G75*
%MOIN*%
%OFA0B0*%
%FSLAX25Y25*%
%IPPOS*%
%LPD*%
%AMOC8*
5,1,8,0,0,1.08239X$1,22.5*
%
%ADD10C,0.06000*%
%ADD11C,0.03150*%
%ADD12C,0.02953*%
%ADD13C,0.03937*%
%ADD14C,0.03200*%
%ADD15C,0.05000*%
%ADD16C,0.01600*%
%ADD17C,0.02000*%
%ADD18C,0.10000*%
%ADD19C,0.01000*%
%ADD20C,0.02400*%
%ADD21C,0.04000*%
%ADD22C,0.03543*%
%ADD23C,0.04724*%
D10*
X0038570Y0026487D03*
X0048570Y0026487D03*
X0058570Y0026487D03*
X0068570Y0026487D03*
X0078570Y0026487D03*
X0088570Y0026487D03*
X0025814Y0039283D03*
X0025814Y0049283D03*
X0025814Y0059283D03*
X0015814Y0059283D03*
X0015814Y0049283D03*
X0015814Y0039283D03*
X0015696Y0082747D03*
X0098728Y0167393D03*
X0108728Y0167393D03*
X0118728Y0167393D03*
X0128728Y0167393D03*
X0146956Y0167235D03*
X0156956Y0167235D03*
X0166956Y0167235D03*
X0176956Y0167235D03*
X0186956Y0167235D03*
D11*
X0042649Y0123480D03*
D12*
X0049948Y0125661D03*
X0049506Y0130649D03*
X0062153Y0126054D03*
X0062546Y0117787D03*
X0049161Y0112275D03*
X0066090Y0102826D03*
X0077625Y0103389D03*
X0077507Y0109913D03*
X0089146Y0105819D03*
X0092468Y0111487D03*
X0090361Y0126448D03*
X0094106Y0132449D03*
X0083413Y0133535D03*
X0079082Y0126448D03*
X0067271Y0141409D03*
X0072697Y0143707D03*
X0079476Y0152039D03*
X0090499Y0143771D03*
X0104672Y0148495D03*
X0115302Y0144165D03*
X0120027Y0144165D03*
X0132231Y0150857D03*
X0148201Y0145976D03*
X0154672Y0149283D03*
X0171995Y0157944D03*
X0189318Y0132354D03*
X0173176Y0111881D03*
X0170027Y0108298D03*
X0166483Y0110700D03*
X0163196Y0108200D03*
X0169616Y0104373D03*
X0168280Y0097945D03*
X0160012Y0093220D03*
X0157687Y0081156D03*
X0155460Y0072905D03*
X0148767Y0076448D03*
X0145839Y0084559D03*
X0124751Y0097314D03*
X0118058Y0092196D03*
X0112546Y0091409D03*
X0099554Y0090228D03*
X0092925Y0082118D03*
X0074972Y0092827D03*
X0065302Y0090228D03*
X0057822Y0089834D03*
X0053098Y0082747D03*
X0066483Y0083141D03*
X0059397Y0063850D03*
X0058106Y0050581D03*
X0070913Y0050000D03*
X0073791Y0047157D03*
X0080878Y0041646D03*
X0091287Y0036291D03*
X0101523Y0039834D03*
X0112153Y0038653D03*
X0123176Y0042590D03*
X0124357Y0050857D03*
X0112153Y0060700D03*
X0112056Y0068025D03*
X0104476Y0057747D03*
X0089712Y0058731D03*
X0123176Y0031172D03*
X0128122Y0032197D03*
X0122217Y0015268D03*
X0147020Y0025898D03*
X0153713Y0025110D03*
X0172783Y0027235D03*
X0177901Y0027235D03*
X0189146Y0020780D03*
X0171626Y0015661D03*
X0190327Y0040490D03*
X0167492Y0049562D03*
X0157035Y0050464D03*
X0140392Y0059498D03*
X0137182Y0061719D03*
X0137235Y0055638D03*
X0125145Y0066212D03*
X0172389Y0072905D03*
X0177507Y0072905D03*
X0182306Y0078381D03*
X0190499Y0068759D03*
X0152310Y0118968D03*
X0161523Y0124873D03*
X0134421Y0131803D03*
X0133052Y0124204D03*
X0125224Y0129125D03*
X0127527Y0112649D03*
X0121208Y0112669D03*
X0060972Y0152432D03*
X0013334Y0124873D03*
X0012940Y0120149D03*
X0010184Y0116212D03*
X0016483Y0092196D03*
X0033806Y0091409D03*
X0039205Y0037078D03*
D13*
X0035543Y0152098D03*
X0039318Y0159483D03*
D14*
X0014588Y0124127D02*
X0014080Y0124127D01*
X0013334Y0124873D01*
X0014588Y0124127D02*
X0016918Y0121797D01*
X0016918Y0118501D01*
X0016483Y0118066D01*
X0016483Y0092196D01*
X0120027Y0144165D02*
X0120180Y0144318D01*
X0121208Y0112669D02*
X0121921Y0112669D01*
X0163027Y0114157D02*
X0166483Y0110700D01*
X0163027Y0114157D02*
X0163027Y0115268D01*
X0148767Y0076448D02*
X0148767Y0072842D01*
X0146606Y0070681D01*
X0146606Y0063790D01*
D15*
X0022216Y0032881D02*
X0015814Y0039283D01*
X0022216Y0032881D02*
X0028466Y0032881D01*
X0032663Y0037078D01*
X0039205Y0037078D01*
X0039205Y0057680D01*
X0040106Y0058581D01*
X0037470Y0060430D01*
X0033319Y0060430D01*
X0027580Y0066956D02*
X0027580Y0081099D01*
X0016483Y0092196D01*
X0035901Y0114313D02*
X0035869Y0124459D01*
X0036447Y0126537D01*
X0036447Y0127908D01*
X0036892Y0128746D02*
X0060972Y0152432D01*
X0061310Y0142601D02*
X0071213Y0152503D01*
X0071606Y0156449D01*
X0082550Y0167393D01*
X0098728Y0167393D01*
X0101379Y0160991D02*
X0089594Y0160991D01*
X0084815Y0156213D01*
X0084815Y0146267D01*
X0083451Y0144903D01*
X0083686Y0143364D01*
X0083686Y0141808D01*
X0083745Y0141416D01*
X0089078Y0138052D01*
X0089078Y0131120D01*
X0090361Y0125711D01*
X0090361Y0126448D01*
X0114909Y0112669D01*
X0121208Y0112669D01*
X0121208Y0106575D01*
X0128389Y0104118D01*
X0129177Y0102937D01*
X0136783Y0110543D01*
X0144657Y0110543D01*
X0150957Y0110543D01*
X0155681Y0115268D01*
X0163027Y0115268D01*
X0175361Y0099624D02*
X0175361Y0079232D01*
X0172629Y0074925D01*
X0172629Y0072905D01*
X0172389Y0072905D02*
X0165169Y0073298D01*
X0156055Y0064184D01*
X0146606Y0063790D01*
X0137751Y0070483D01*
X0131039Y0067708D01*
X0130251Y0048579D01*
X0126720Y0042686D01*
X0123176Y0042590D01*
X0117424Y0039886D02*
X0117818Y0038601D01*
X0117787Y0038964D01*
X0120150Y0036961D01*
X0136051Y0037354D01*
X0157035Y0050464D01*
X0166090Y0041802D01*
X0172783Y0027235D01*
X0190352Y0040465D02*
X0175179Y0056031D01*
X0144611Y0056031D01*
X0142413Y0054620D01*
X0138372Y0054620D01*
X0137354Y0055638D01*
X0137235Y0055638D01*
X0124357Y0050857D02*
X0120267Y0059279D01*
X0120267Y0056842D01*
X0116606Y0053181D01*
X0116606Y0040704D01*
X0117424Y0039886D01*
X0097413Y0047157D02*
X0097413Y0057928D01*
X0077661Y0077681D01*
X0048367Y0077681D01*
X0046895Y0079153D01*
X0046654Y0079177D01*
X0045687Y0080361D01*
X0042708Y0083341D01*
X0042708Y0065980D01*
X0058106Y0050581D01*
X0063765Y0060361D02*
X0073188Y0060361D01*
X0089767Y0044570D01*
X0089767Y0037810D01*
X0091287Y0036291D01*
X0063765Y0060361D02*
X0060019Y0064107D01*
X0051606Y0083181D02*
X0052944Y0084519D01*
X0052944Y0102091D01*
X0067861Y0113858D01*
X0067861Y0132090D01*
X0061310Y0137067D01*
X0061310Y0142601D01*
X0090499Y0143771D02*
X0096076Y0143771D01*
X0098201Y0141646D01*
X0101379Y0160991D02*
X0107781Y0167393D01*
X0108728Y0167393D01*
X0042708Y0106719D02*
X0042708Y0083341D01*
X0042708Y0106719D02*
X0035901Y0114313D01*
X0120267Y0068232D02*
X0120267Y0059279D01*
X0120267Y0068232D02*
X0132779Y0083894D01*
X0132779Y0098154D01*
X0128389Y0104118D01*
X0175361Y0099624D02*
X0182523Y0105998D01*
X0184885Y0110937D01*
D16*
X0166483Y0110700D02*
X0165858Y0110862D01*
X0147807Y0107394D02*
X0144657Y0110543D01*
X0147807Y0107394D02*
X0160012Y0093220D01*
X0120027Y0135305D02*
X0117177Y0132456D01*
X0120027Y0135305D02*
X0120027Y0144165D01*
D17*
X0172389Y0072905D02*
X0172629Y0072905D01*
X0172730Y0072905D01*
X0172389Y0072905D02*
X0172389Y0072511D01*
X0173604Y0056425D02*
X0137235Y0055638D01*
X0173604Y0056425D02*
X0190327Y0040490D01*
X0190352Y0040465D01*
X0190720Y0040465D01*
D18*
X0184885Y0110937D02*
X0184885Y0116928D01*
X0171995Y0138873D01*
X0171995Y0157944D01*
X0172787Y0158334D01*
X0143269Y0158334D01*
X0140270Y0161333D01*
X0128728Y0161333D01*
X0122680Y0155285D01*
X0122680Y0141109D01*
X0117177Y0132456D01*
X0105947Y0136787D01*
X0101088Y0141646D01*
X0098201Y0141646D01*
X0128728Y0161333D02*
X0128728Y0167393D01*
D19*
X0013334Y0120543D02*
X0012940Y0120149D01*
D20*
X0012940Y0119952D01*
X0009461Y0122645D01*
X0009461Y0126315D01*
X0011893Y0128746D01*
X0036892Y0128746D01*
X0036447Y0127908D01*
X0051606Y0083181D02*
X0052350Y0083181D01*
X0053098Y0082747D01*
D21*
X0033319Y0060430D02*
X0027580Y0066956D01*
X0097145Y0041647D02*
X0097145Y0038020D01*
X0108371Y0026794D01*
X0128911Y0026794D01*
X0133971Y0031855D01*
X0160515Y0031855D01*
X0170543Y0021827D01*
X0178684Y0021827D01*
X0182279Y0025422D01*
X0182279Y0032442D01*
X0190327Y0040490D01*
X0097413Y0041916D02*
X0097413Y0047157D01*
X0097413Y0041916D02*
X0097145Y0041647D01*
D22*
X0040106Y0058581D03*
D23*
X0034919Y0066981D03*
X0034919Y0076981D03*
X0106506Y0053381D03*
X0106506Y0043381D03*
X0167306Y0081981D03*
X0167306Y0090381D03*
M02*
