M48
;GenerationSoftware,Autodesk,EAGLE,8.7.1*%
;CreationDate,2018-05-24T02:37:56Z*%
FMAT,2
ICI,OFF
METRIC,TZ,000.000
T6C0.800
T5C0.813
T4C1.000
T3C1.016
T2C1.500
T1C1.800
%
G90
M71
T1
X38290Y2780
X43370Y31820
X38370Y21820
X48490Y8180
X39990Y5280
X48570Y27220
X43290Y12780
X40070Y24320
T2
X35570Y31520
X35490Y12480
T3
X38630Y40670
X46250Y40670
X43710Y40670
X41170Y40670
X36090Y40670
X21345Y4870
X18805Y4870
X16265Y4870
X13725Y4870
X11185Y4870
X8645Y4870
X6840Y40980
X9380Y40980
X11920Y40980
X14460Y40980
X17000Y40980
X4300Y40980
X28940Y40720
X26400Y40720
X23860Y40720
X22450Y8460
X31480Y40720
X22520Y30100
X22520Y12300
X25060Y12300
X27600Y12300
X30140Y12300
X32680Y12300
X28730Y4700
X25060Y30100
X27600Y30100
X30140Y30100
X32680Y30100
X31270Y4700
T4
X16400Y9600
T5
X44560Y16260
X43550Y18540
X39480Y16260
X35930Y18540
T6
X32700Y8600
X24300Y9600
X14500Y33600
M30