G04 EAGLE Gerber X2 export*
%TF.Part,Single*%
%TF.FileFunction,Other,Top Side*%
%TF.FilePolarity,Positive*%
%TF.GenerationSoftware,Autodesk,EAGLE,8.7.1*%
%TF.CreationDate,2018-05-24T02:37:56Z*%
G75*
%MOMM*%
%FSLAX34Y34*%
%LPD*%
%AMOC8*
5,1,8,0,0,1.08239X$1,22.5*%
G01*
%ADD10C,2.700000*%
%ADD11R,2.700000X2.700000*%
%ADD12C,2.250000*%
%ADD13C,1.524000*%
%ADD14P,1.649562X8X202.500000*%
%ADD15P,1.429621X8X22.500000*%
%ADD16P,1.429621X8X202.500000*%
%ADD17C,1.500000*%
%ADD18C,1.270000*%
%ADD19C,1.206400*%
%ADD20C,1.016000*%


D10*
X484900Y81800D03*
D11*
X399900Y52800D03*
D10*
X382900Y27800D03*
X432900Y127800D03*
D12*
X354900Y124800D03*
D13*
X462500Y399080D02*
X462500Y414320D01*
X437100Y414320D02*
X437100Y399080D01*
X411700Y399080D02*
X411700Y414320D01*
X386300Y414320D02*
X386300Y399080D01*
X360900Y399080D02*
X360900Y414320D01*
X213450Y56320D02*
X213450Y41080D01*
X188050Y41080D02*
X188050Y56320D01*
X162650Y56320D02*
X162650Y41080D01*
X137250Y41080D02*
X137250Y56320D01*
X111850Y56320D02*
X111850Y41080D01*
X86450Y41080D02*
X86450Y56320D01*
X43000Y402180D02*
X43000Y417420D01*
X68400Y417420D02*
X68400Y402180D01*
X93800Y402180D02*
X93800Y417420D01*
X119200Y417420D02*
X119200Y402180D01*
X144600Y402180D02*
X144600Y417420D01*
X170000Y417420D02*
X170000Y402180D01*
X314800Y399580D02*
X314800Y414820D01*
X289400Y414820D02*
X289400Y399580D01*
X264000Y399580D02*
X264000Y414820D01*
X238600Y414820D02*
X238600Y399580D01*
D14*
X224500Y84600D03*
D10*
X485700Y272200D03*
D11*
X400700Y243200D03*
D10*
X383700Y218200D03*
X433700Y318200D03*
D12*
X355700Y315200D03*
D15*
X394800Y162600D03*
X445600Y162600D03*
D16*
X435500Y185400D03*
X359300Y185400D03*
D13*
X225200Y130620D02*
X225200Y115380D01*
X250600Y115380D02*
X250600Y130620D01*
X276000Y130620D02*
X276000Y115380D01*
X301400Y115380D02*
X301400Y130620D01*
X326800Y130620D02*
X326800Y115380D01*
X225200Y293380D02*
X225200Y308620D01*
X250600Y308620D02*
X250600Y293380D01*
X276000Y293380D02*
X276000Y308620D01*
X301400Y308620D02*
X301400Y293380D01*
X326800Y293380D02*
X326800Y308620D01*
X312700Y54620D02*
X312700Y39380D01*
X287300Y39380D02*
X287300Y54620D01*
D17*
X164000Y96000D03*
D18*
X164000Y316000D01*
X145000Y335000D01*
X145000Y336000D01*
D19*
X145000Y336000D03*
X243000Y96000D03*
D20*
X317000Y96000D01*
X327000Y86000D01*
D19*
X327000Y86000D03*
M02*
