G75*
%MOIN*%
%OFA0B0*%
%FSLAX25Y25*%
%IPPOS*%
%LPD*%
%AMOC8*
5,1,8,0,0,1.08239X$1,22.5*
%
%ADD10C,0.00600*%
%ADD11C,0.00400*%
%ADD12C,0.00300*%
%ADD13C,0.00500*%
%ADD14C,0.00200*%
%ADD15C,0.00800*%
%ADD16C,0.02559*%
D10*
X0033570Y0023987D02*
X0033570Y0028987D01*
X0036070Y0031487D01*
X0041070Y0031487D01*
X0043570Y0028987D01*
X0046070Y0031487D01*
X0051070Y0031487D01*
X0053570Y0028987D01*
X0056070Y0031487D01*
X0061070Y0031487D01*
X0063570Y0028987D01*
X0066070Y0031487D01*
X0071070Y0031487D01*
X0073570Y0028987D01*
X0076070Y0031487D01*
X0081070Y0031487D01*
X0083570Y0028987D01*
X0086070Y0031487D01*
X0091070Y0031487D01*
X0093570Y0028987D01*
X0093570Y0023987D01*
X0091070Y0021487D01*
X0086070Y0021487D01*
X0083570Y0023987D01*
X0081070Y0021487D01*
X0076070Y0021487D01*
X0073570Y0023987D01*
X0071070Y0021487D01*
X0066070Y0021487D01*
X0063570Y0023987D01*
X0061070Y0021487D01*
X0056070Y0021487D01*
X0053570Y0023987D01*
X0051070Y0021487D01*
X0046070Y0021487D01*
X0043570Y0023987D01*
X0041070Y0021487D01*
X0036070Y0021487D01*
X0033570Y0023987D01*
X0028314Y0034283D02*
X0013314Y0034283D01*
X0010814Y0036783D01*
X0010814Y0041783D01*
X0013314Y0044283D01*
X0028314Y0044283D01*
X0030814Y0046783D01*
X0030814Y0051783D01*
X0028314Y0054283D01*
X0030814Y0056783D01*
X0030814Y0061783D01*
X0028314Y0064283D01*
X0013314Y0064283D01*
X0010814Y0061783D01*
X0010814Y0056783D01*
X0013314Y0054283D01*
X0028314Y0054283D01*
X0028314Y0044283D02*
X0030814Y0041783D01*
X0030814Y0036783D01*
X0028314Y0034283D01*
X0013314Y0044283D02*
X0010814Y0046783D01*
X0010814Y0051783D01*
X0013314Y0054283D01*
X0013196Y0077747D02*
X0018196Y0077747D01*
X0020696Y0080247D01*
X0020696Y0085247D01*
X0018196Y0087747D01*
X0013196Y0087747D01*
X0010696Y0085247D01*
X0010696Y0080247D01*
X0013196Y0077747D01*
X0038828Y0065944D02*
X0042828Y0065944D01*
X0038828Y0065944D01*
X0042828Y0065944D01*
X0049728Y0071244D02*
X0049728Y0071944D01*
X0050428Y0071944D01*
X0055587Y0061343D02*
X0057723Y0061343D01*
X0056655Y0061343D02*
X0056655Y0054938D01*
X0055587Y0054938D02*
X0057723Y0054938D01*
X0059884Y0056005D02*
X0060952Y0054938D01*
X0063087Y0054938D01*
X0064155Y0056005D01*
X0066330Y0054938D02*
X0070600Y0054938D01*
X0068465Y0054938D02*
X0068465Y0061343D01*
X0066330Y0059208D01*
X0064155Y0060276D02*
X0063087Y0061343D01*
X0060952Y0061343D01*
X0059884Y0060276D01*
X0059884Y0056005D01*
X0072775Y0058141D02*
X0077046Y0058141D01*
X0075978Y0061343D02*
X0072775Y0058141D01*
X0075978Y0054938D02*
X0075978Y0061343D01*
X0076228Y0068344D02*
X0074128Y0070444D01*
X0077028Y0071944D02*
X0077728Y0071944D01*
X0077728Y0071244D01*
X0084628Y0062644D02*
X0088628Y0062644D01*
X0077728Y0044644D02*
X0077728Y0043944D01*
X0077028Y0043944D01*
X0062228Y0036944D02*
X0062228Y0032944D01*
X0062228Y0036944D01*
X0062228Y0032944D01*
X0062228Y0036944D01*
X0050428Y0043944D02*
X0049728Y0043944D01*
X0049728Y0044644D01*
X0115639Y0040689D02*
X0135439Y0040689D01*
X0135439Y0057089D01*
X0115639Y0057089D01*
X0115639Y0040689D01*
X0130139Y0053689D02*
X0130141Y0053773D01*
X0130147Y0053858D01*
X0130157Y0053941D01*
X0130171Y0054025D01*
X0130188Y0054107D01*
X0130210Y0054189D01*
X0130235Y0054269D01*
X0130264Y0054348D01*
X0130297Y0054426D01*
X0130333Y0054502D01*
X0130373Y0054577D01*
X0130417Y0054649D01*
X0130463Y0054720D01*
X0130513Y0054788D01*
X0130566Y0054853D01*
X0130622Y0054916D01*
X0130681Y0054977D01*
X0130743Y0055034D01*
X0130807Y0055089D01*
X0130874Y0055140D01*
X0130943Y0055189D01*
X0131015Y0055234D01*
X0131088Y0055275D01*
X0131163Y0055313D01*
X0131240Y0055348D01*
X0131319Y0055379D01*
X0131399Y0055406D01*
X0131480Y0055429D01*
X0131562Y0055449D01*
X0131645Y0055465D01*
X0131728Y0055477D01*
X0131813Y0055485D01*
X0131897Y0055489D01*
X0131981Y0055489D01*
X0132065Y0055485D01*
X0132150Y0055477D01*
X0132233Y0055465D01*
X0132316Y0055449D01*
X0132398Y0055429D01*
X0132479Y0055406D01*
X0132559Y0055379D01*
X0132638Y0055348D01*
X0132715Y0055313D01*
X0132790Y0055275D01*
X0132863Y0055234D01*
X0132935Y0055189D01*
X0133004Y0055140D01*
X0133071Y0055089D01*
X0133135Y0055034D01*
X0133197Y0054977D01*
X0133256Y0054916D01*
X0133312Y0054853D01*
X0133365Y0054788D01*
X0133415Y0054720D01*
X0133461Y0054649D01*
X0133505Y0054577D01*
X0133545Y0054502D01*
X0133581Y0054426D01*
X0133614Y0054348D01*
X0133643Y0054269D01*
X0133668Y0054189D01*
X0133690Y0054107D01*
X0133707Y0054025D01*
X0133721Y0053941D01*
X0133731Y0053858D01*
X0133737Y0053773D01*
X0133739Y0053689D01*
X0133737Y0053605D01*
X0133731Y0053520D01*
X0133721Y0053437D01*
X0133707Y0053353D01*
X0133690Y0053271D01*
X0133668Y0053189D01*
X0133643Y0053109D01*
X0133614Y0053030D01*
X0133581Y0052952D01*
X0133545Y0052876D01*
X0133505Y0052801D01*
X0133461Y0052729D01*
X0133415Y0052658D01*
X0133365Y0052590D01*
X0133312Y0052525D01*
X0133256Y0052462D01*
X0133197Y0052401D01*
X0133135Y0052344D01*
X0133071Y0052289D01*
X0133004Y0052238D01*
X0132935Y0052189D01*
X0132863Y0052144D01*
X0132790Y0052103D01*
X0132715Y0052065D01*
X0132638Y0052030D01*
X0132559Y0051999D01*
X0132479Y0051972D01*
X0132398Y0051949D01*
X0132316Y0051929D01*
X0132233Y0051913D01*
X0132150Y0051901D01*
X0132065Y0051893D01*
X0131981Y0051889D01*
X0131897Y0051889D01*
X0131813Y0051893D01*
X0131728Y0051901D01*
X0131645Y0051913D01*
X0131562Y0051929D01*
X0131480Y0051949D01*
X0131399Y0051972D01*
X0131319Y0051999D01*
X0131240Y0052030D01*
X0131163Y0052065D01*
X0131088Y0052103D01*
X0131015Y0052144D01*
X0130943Y0052189D01*
X0130874Y0052238D01*
X0130807Y0052289D01*
X0130743Y0052344D01*
X0130681Y0052401D01*
X0130622Y0052462D01*
X0130566Y0052525D01*
X0130513Y0052590D01*
X0130463Y0052658D01*
X0130417Y0052729D01*
X0130373Y0052801D01*
X0130333Y0052876D01*
X0130297Y0052952D01*
X0130264Y0053030D01*
X0130235Y0053109D01*
X0130210Y0053189D01*
X0130188Y0053271D01*
X0130171Y0053353D01*
X0130157Y0053437D01*
X0130147Y0053520D01*
X0130141Y0053605D01*
X0130139Y0053689D01*
X0138752Y0044795D02*
X0138752Y0044008D01*
X0136783Y0029047D02*
X0135996Y0029047D01*
X0143870Y0028260D02*
X0144264Y0028260D01*
X0132453Y0018024D02*
X0132453Y0016055D01*
X0132846Y0015661D01*
X0126941Y0021567D02*
X0126941Y0022354D01*
X0127335Y0022748D01*
X0118673Y0021173D02*
X0118673Y0019992D01*
X0160012Y0023142D02*
X0160799Y0023929D01*
X0160799Y0024323D01*
X0148988Y0066843D02*
X0147807Y0068024D01*
X0147413Y0068024D01*
X0160799Y0070780D02*
X0161193Y0070780D01*
X0161980Y0069992D01*
X0152613Y0087280D02*
X0141613Y0087280D01*
X0141553Y0087282D01*
X0141492Y0087287D01*
X0141433Y0087296D01*
X0141374Y0087309D01*
X0141315Y0087325D01*
X0141258Y0087345D01*
X0141203Y0087368D01*
X0141148Y0087395D01*
X0141096Y0087424D01*
X0141045Y0087457D01*
X0140996Y0087493D01*
X0140950Y0087531D01*
X0140906Y0087573D01*
X0140864Y0087617D01*
X0140826Y0087663D01*
X0140790Y0087712D01*
X0140757Y0087763D01*
X0140728Y0087815D01*
X0140701Y0087870D01*
X0140678Y0087925D01*
X0140658Y0087982D01*
X0140642Y0088041D01*
X0140629Y0088100D01*
X0140620Y0088159D01*
X0140615Y0088220D01*
X0140613Y0088280D01*
X0140613Y0094280D01*
X0140615Y0094340D01*
X0140620Y0094401D01*
X0140629Y0094460D01*
X0140642Y0094519D01*
X0140658Y0094578D01*
X0140678Y0094635D01*
X0140701Y0094690D01*
X0140728Y0094745D01*
X0140757Y0094797D01*
X0140790Y0094848D01*
X0140826Y0094897D01*
X0140864Y0094943D01*
X0140906Y0094987D01*
X0140950Y0095029D01*
X0140996Y0095067D01*
X0141045Y0095103D01*
X0141096Y0095136D01*
X0141148Y0095165D01*
X0141203Y0095192D01*
X0141258Y0095215D01*
X0141315Y0095235D01*
X0141374Y0095251D01*
X0141433Y0095264D01*
X0141492Y0095273D01*
X0141553Y0095278D01*
X0141613Y0095280D01*
X0152613Y0095280D01*
X0152673Y0095278D01*
X0152734Y0095273D01*
X0152793Y0095264D01*
X0152852Y0095251D01*
X0152911Y0095235D01*
X0152968Y0095215D01*
X0153023Y0095192D01*
X0153078Y0095165D01*
X0153130Y0095136D01*
X0153181Y0095103D01*
X0153230Y0095067D01*
X0153276Y0095029D01*
X0153320Y0094987D01*
X0153362Y0094943D01*
X0153400Y0094897D01*
X0153436Y0094848D01*
X0153469Y0094797D01*
X0153498Y0094745D01*
X0153525Y0094690D01*
X0153548Y0094635D01*
X0153568Y0094578D01*
X0153584Y0094519D01*
X0153597Y0094460D01*
X0153606Y0094401D01*
X0153611Y0094340D01*
X0153613Y0094280D01*
X0153613Y0088280D01*
X0153611Y0088220D01*
X0153606Y0088159D01*
X0153597Y0088100D01*
X0153584Y0088041D01*
X0153568Y0087982D01*
X0153548Y0087925D01*
X0153525Y0087870D01*
X0153498Y0087815D01*
X0153469Y0087763D01*
X0153436Y0087712D01*
X0153400Y0087663D01*
X0153362Y0087617D01*
X0153320Y0087573D01*
X0153276Y0087531D01*
X0153230Y0087493D01*
X0153181Y0087457D01*
X0153130Y0087424D01*
X0153078Y0087395D01*
X0153023Y0087368D01*
X0152968Y0087345D01*
X0152911Y0087325D01*
X0152852Y0087309D01*
X0152793Y0087296D01*
X0152734Y0087287D01*
X0152673Y0087282D01*
X0152613Y0087280D01*
X0185306Y0101549D02*
X0185306Y0112549D01*
X0185308Y0112609D01*
X0185313Y0112670D01*
X0185322Y0112729D01*
X0185335Y0112788D01*
X0185351Y0112847D01*
X0185371Y0112904D01*
X0185394Y0112959D01*
X0185421Y0113014D01*
X0185450Y0113066D01*
X0185483Y0113117D01*
X0185519Y0113166D01*
X0185557Y0113212D01*
X0185599Y0113256D01*
X0185643Y0113298D01*
X0185689Y0113336D01*
X0185738Y0113372D01*
X0185789Y0113405D01*
X0185841Y0113434D01*
X0185896Y0113461D01*
X0185951Y0113484D01*
X0186008Y0113504D01*
X0186067Y0113520D01*
X0186126Y0113533D01*
X0186185Y0113542D01*
X0186246Y0113547D01*
X0186306Y0113549D01*
X0192306Y0113549D01*
X0192366Y0113547D01*
X0192427Y0113542D01*
X0192486Y0113533D01*
X0192545Y0113520D01*
X0192604Y0113504D01*
X0192661Y0113484D01*
X0192716Y0113461D01*
X0192771Y0113434D01*
X0192823Y0113405D01*
X0192874Y0113372D01*
X0192923Y0113336D01*
X0192969Y0113298D01*
X0193013Y0113256D01*
X0193055Y0113212D01*
X0193093Y0113166D01*
X0193129Y0113117D01*
X0193162Y0113066D01*
X0193191Y0113014D01*
X0193218Y0112959D01*
X0193241Y0112904D01*
X0193261Y0112847D01*
X0193277Y0112788D01*
X0193290Y0112729D01*
X0193299Y0112670D01*
X0193304Y0112609D01*
X0193306Y0112549D01*
X0193306Y0101549D01*
X0193304Y0101489D01*
X0193299Y0101428D01*
X0193290Y0101369D01*
X0193277Y0101310D01*
X0193261Y0101251D01*
X0193241Y0101194D01*
X0193218Y0101139D01*
X0193191Y0101084D01*
X0193162Y0101032D01*
X0193129Y0100981D01*
X0193093Y0100932D01*
X0193055Y0100886D01*
X0193013Y0100842D01*
X0192969Y0100800D01*
X0192923Y0100762D01*
X0192874Y0100726D01*
X0192823Y0100693D01*
X0192771Y0100664D01*
X0192716Y0100637D01*
X0192661Y0100614D01*
X0192604Y0100594D01*
X0192545Y0100578D01*
X0192486Y0100565D01*
X0192427Y0100556D01*
X0192366Y0100551D01*
X0192306Y0100549D01*
X0186306Y0100549D01*
X0186246Y0100551D01*
X0186185Y0100556D01*
X0186126Y0100565D01*
X0186067Y0100578D01*
X0186008Y0100594D01*
X0185951Y0100614D01*
X0185896Y0100637D01*
X0185841Y0100664D01*
X0185789Y0100693D01*
X0185738Y0100726D01*
X0185689Y0100762D01*
X0185643Y0100800D01*
X0185599Y0100842D01*
X0185557Y0100886D01*
X0185519Y0100932D01*
X0185483Y0100981D01*
X0185450Y0101032D01*
X0185421Y0101084D01*
X0185394Y0101139D01*
X0185371Y0101194D01*
X0185351Y0101251D01*
X0185335Y0101310D01*
X0185322Y0101369D01*
X0185313Y0101428D01*
X0185308Y0101489D01*
X0185306Y0101549D01*
X0175596Y0120217D02*
X0175596Y0136617D01*
X0155796Y0136617D01*
X0155796Y0120217D01*
X0175596Y0120217D01*
X0157496Y0123617D02*
X0157498Y0123701D01*
X0157504Y0123786D01*
X0157514Y0123869D01*
X0157528Y0123953D01*
X0157545Y0124035D01*
X0157567Y0124117D01*
X0157592Y0124197D01*
X0157621Y0124276D01*
X0157654Y0124354D01*
X0157690Y0124430D01*
X0157730Y0124505D01*
X0157774Y0124577D01*
X0157820Y0124648D01*
X0157870Y0124716D01*
X0157923Y0124781D01*
X0157979Y0124844D01*
X0158038Y0124905D01*
X0158100Y0124962D01*
X0158164Y0125017D01*
X0158231Y0125068D01*
X0158300Y0125117D01*
X0158372Y0125162D01*
X0158445Y0125203D01*
X0158520Y0125241D01*
X0158597Y0125276D01*
X0158676Y0125307D01*
X0158756Y0125334D01*
X0158837Y0125357D01*
X0158919Y0125377D01*
X0159002Y0125393D01*
X0159085Y0125405D01*
X0159170Y0125413D01*
X0159254Y0125417D01*
X0159338Y0125417D01*
X0159422Y0125413D01*
X0159507Y0125405D01*
X0159590Y0125393D01*
X0159673Y0125377D01*
X0159755Y0125357D01*
X0159836Y0125334D01*
X0159916Y0125307D01*
X0159995Y0125276D01*
X0160072Y0125241D01*
X0160147Y0125203D01*
X0160220Y0125162D01*
X0160292Y0125117D01*
X0160361Y0125068D01*
X0160428Y0125017D01*
X0160492Y0124962D01*
X0160554Y0124905D01*
X0160613Y0124844D01*
X0160669Y0124781D01*
X0160722Y0124716D01*
X0160772Y0124648D01*
X0160818Y0124577D01*
X0160862Y0124505D01*
X0160902Y0124430D01*
X0160938Y0124354D01*
X0160971Y0124276D01*
X0161000Y0124197D01*
X0161025Y0124117D01*
X0161047Y0124035D01*
X0161064Y0123953D01*
X0161078Y0123869D01*
X0161088Y0123786D01*
X0161094Y0123701D01*
X0161096Y0123617D01*
X0161094Y0123533D01*
X0161088Y0123448D01*
X0161078Y0123365D01*
X0161064Y0123281D01*
X0161047Y0123199D01*
X0161025Y0123117D01*
X0161000Y0123037D01*
X0160971Y0122958D01*
X0160938Y0122880D01*
X0160902Y0122804D01*
X0160862Y0122729D01*
X0160818Y0122657D01*
X0160772Y0122586D01*
X0160722Y0122518D01*
X0160669Y0122453D01*
X0160613Y0122390D01*
X0160554Y0122329D01*
X0160492Y0122272D01*
X0160428Y0122217D01*
X0160361Y0122166D01*
X0160292Y0122117D01*
X0160220Y0122072D01*
X0160147Y0122031D01*
X0160072Y0121993D01*
X0159995Y0121958D01*
X0159916Y0121927D01*
X0159836Y0121900D01*
X0159755Y0121877D01*
X0159673Y0121857D01*
X0159590Y0121841D01*
X0159507Y0121829D01*
X0159422Y0121821D01*
X0159338Y0121817D01*
X0159254Y0121817D01*
X0159170Y0121821D01*
X0159085Y0121829D01*
X0159002Y0121841D01*
X0158919Y0121857D01*
X0158837Y0121877D01*
X0158756Y0121900D01*
X0158676Y0121927D01*
X0158597Y0121958D01*
X0158520Y0121993D01*
X0158445Y0122031D01*
X0158372Y0122072D01*
X0158300Y0122117D01*
X0158231Y0122166D01*
X0158164Y0122217D01*
X0158100Y0122272D01*
X0158038Y0122329D01*
X0157979Y0122390D01*
X0157923Y0122453D01*
X0157870Y0122518D01*
X0157820Y0122586D01*
X0157774Y0122657D01*
X0157730Y0122729D01*
X0157690Y0122804D01*
X0157654Y0122880D01*
X0157621Y0122958D01*
X0157592Y0123037D01*
X0157567Y0123117D01*
X0157545Y0123199D01*
X0157528Y0123281D01*
X0157514Y0123365D01*
X0157504Y0123448D01*
X0157498Y0123533D01*
X0157496Y0123617D01*
X0129927Y0120217D02*
X0129927Y0136617D01*
X0110127Y0136617D01*
X0110127Y0120217D01*
X0129927Y0120217D01*
X0111827Y0123617D02*
X0111829Y0123701D01*
X0111835Y0123786D01*
X0111845Y0123869D01*
X0111859Y0123953D01*
X0111876Y0124035D01*
X0111898Y0124117D01*
X0111923Y0124197D01*
X0111952Y0124276D01*
X0111985Y0124354D01*
X0112021Y0124430D01*
X0112061Y0124505D01*
X0112105Y0124577D01*
X0112151Y0124648D01*
X0112201Y0124716D01*
X0112254Y0124781D01*
X0112310Y0124844D01*
X0112369Y0124905D01*
X0112431Y0124962D01*
X0112495Y0125017D01*
X0112562Y0125068D01*
X0112631Y0125117D01*
X0112703Y0125162D01*
X0112776Y0125203D01*
X0112851Y0125241D01*
X0112928Y0125276D01*
X0113007Y0125307D01*
X0113087Y0125334D01*
X0113168Y0125357D01*
X0113250Y0125377D01*
X0113333Y0125393D01*
X0113416Y0125405D01*
X0113501Y0125413D01*
X0113585Y0125417D01*
X0113669Y0125417D01*
X0113753Y0125413D01*
X0113838Y0125405D01*
X0113921Y0125393D01*
X0114004Y0125377D01*
X0114086Y0125357D01*
X0114167Y0125334D01*
X0114247Y0125307D01*
X0114326Y0125276D01*
X0114403Y0125241D01*
X0114478Y0125203D01*
X0114551Y0125162D01*
X0114623Y0125117D01*
X0114692Y0125068D01*
X0114759Y0125017D01*
X0114823Y0124962D01*
X0114885Y0124905D01*
X0114944Y0124844D01*
X0115000Y0124781D01*
X0115053Y0124716D01*
X0115103Y0124648D01*
X0115149Y0124577D01*
X0115193Y0124505D01*
X0115233Y0124430D01*
X0115269Y0124354D01*
X0115302Y0124276D01*
X0115331Y0124197D01*
X0115356Y0124117D01*
X0115378Y0124035D01*
X0115395Y0123953D01*
X0115409Y0123869D01*
X0115419Y0123786D01*
X0115425Y0123701D01*
X0115427Y0123617D01*
X0115425Y0123533D01*
X0115419Y0123448D01*
X0115409Y0123365D01*
X0115395Y0123281D01*
X0115378Y0123199D01*
X0115356Y0123117D01*
X0115331Y0123037D01*
X0115302Y0122958D01*
X0115269Y0122880D01*
X0115233Y0122804D01*
X0115193Y0122729D01*
X0115149Y0122657D01*
X0115103Y0122586D01*
X0115053Y0122518D01*
X0115000Y0122453D01*
X0114944Y0122390D01*
X0114885Y0122329D01*
X0114823Y0122272D01*
X0114759Y0122217D01*
X0114692Y0122166D01*
X0114623Y0122117D01*
X0114551Y0122072D01*
X0114478Y0122031D01*
X0114403Y0121993D01*
X0114326Y0121958D01*
X0114247Y0121927D01*
X0114167Y0121900D01*
X0114086Y0121877D01*
X0114004Y0121857D01*
X0113921Y0121841D01*
X0113838Y0121829D01*
X0113753Y0121821D01*
X0113669Y0121817D01*
X0113585Y0121817D01*
X0113501Y0121821D01*
X0113416Y0121829D01*
X0113333Y0121841D01*
X0113250Y0121857D01*
X0113168Y0121877D01*
X0113087Y0121900D01*
X0113007Y0121927D01*
X0112928Y0121958D01*
X0112851Y0121993D01*
X0112776Y0122031D01*
X0112703Y0122072D01*
X0112631Y0122117D01*
X0112562Y0122166D01*
X0112495Y0122217D01*
X0112431Y0122272D01*
X0112369Y0122329D01*
X0112310Y0122390D01*
X0112254Y0122453D01*
X0112201Y0122518D01*
X0112151Y0122586D01*
X0112105Y0122657D01*
X0112061Y0122729D01*
X0112021Y0122804D01*
X0111985Y0122880D01*
X0111952Y0122958D01*
X0111923Y0123037D01*
X0111898Y0123117D01*
X0111876Y0123199D01*
X0111859Y0123281D01*
X0111845Y0123365D01*
X0111835Y0123448D01*
X0111829Y0123533D01*
X0111827Y0123617D01*
X0105681Y0132197D02*
X0105681Y0132591D01*
X0100957Y0132591D02*
X0100957Y0132197D01*
X0097352Y0136561D02*
X0077552Y0136561D01*
X0077552Y0120161D01*
X0097352Y0120161D01*
X0097352Y0136561D01*
X0112374Y0150307D02*
X0112374Y0150701D01*
X0124972Y0149126D02*
X0126154Y0149126D01*
X0138752Y0153063D02*
X0139146Y0152669D01*
X0138752Y0153063D02*
X0138752Y0154244D01*
X0147807Y0151094D02*
X0148201Y0151488D01*
X0148201Y0152276D01*
X0149456Y0162235D02*
X0144456Y0162235D01*
X0141956Y0164735D01*
X0141956Y0169735D01*
X0144456Y0172235D01*
X0149456Y0172235D01*
X0151956Y0169735D01*
X0154456Y0172235D01*
X0159456Y0172235D01*
X0161956Y0169735D01*
X0164456Y0172235D01*
X0169456Y0172235D01*
X0171956Y0169735D01*
X0174456Y0172235D01*
X0179456Y0172235D01*
X0181956Y0169735D01*
X0184456Y0172235D01*
X0189456Y0172235D01*
X0191956Y0169735D01*
X0191956Y0164735D01*
X0189456Y0162235D01*
X0184456Y0162235D01*
X0181956Y0164735D01*
X0179456Y0162235D01*
X0174456Y0162235D01*
X0171956Y0164735D01*
X0169456Y0162235D01*
X0164456Y0162235D01*
X0161956Y0164735D01*
X0159456Y0162235D01*
X0154456Y0162235D01*
X0151956Y0164735D01*
X0149456Y0162235D01*
X0133728Y0164893D02*
X0131228Y0162393D01*
X0126228Y0162393D01*
X0123728Y0164893D01*
X0121228Y0162393D01*
X0116228Y0162393D01*
X0113728Y0164893D01*
X0111228Y0162393D01*
X0106228Y0162393D01*
X0103728Y0164893D01*
X0101228Y0162393D01*
X0096228Y0162393D01*
X0093728Y0164893D01*
X0093728Y0169893D01*
X0096228Y0172393D01*
X0101228Y0172393D01*
X0103728Y0169893D01*
X0106228Y0172393D01*
X0111228Y0172393D01*
X0113728Y0169893D01*
X0113728Y0164893D01*
X0113728Y0169893D02*
X0116228Y0172393D01*
X0121228Y0172393D01*
X0123728Y0169893D01*
X0126228Y0172393D01*
X0131228Y0172393D01*
X0133728Y0169893D01*
X0133728Y0164893D01*
X0123728Y0164893D02*
X0123728Y0169893D01*
X0103728Y0169893D02*
X0103728Y0164893D01*
X0072217Y0137709D02*
X0072217Y0137315D01*
X0067098Y0127866D02*
X0065917Y0127866D01*
X0065524Y0128260D01*
X0071429Y0126291D02*
X0071823Y0125898D01*
X0071823Y0124717D01*
X0079252Y0123561D02*
X0079254Y0123645D01*
X0079260Y0123730D01*
X0079270Y0123813D01*
X0079284Y0123897D01*
X0079301Y0123979D01*
X0079323Y0124061D01*
X0079348Y0124141D01*
X0079377Y0124220D01*
X0079410Y0124298D01*
X0079446Y0124374D01*
X0079486Y0124449D01*
X0079530Y0124521D01*
X0079576Y0124592D01*
X0079626Y0124660D01*
X0079679Y0124725D01*
X0079735Y0124788D01*
X0079794Y0124849D01*
X0079856Y0124906D01*
X0079920Y0124961D01*
X0079987Y0125012D01*
X0080056Y0125061D01*
X0080128Y0125106D01*
X0080201Y0125147D01*
X0080276Y0125185D01*
X0080353Y0125220D01*
X0080432Y0125251D01*
X0080512Y0125278D01*
X0080593Y0125301D01*
X0080675Y0125321D01*
X0080758Y0125337D01*
X0080841Y0125349D01*
X0080926Y0125357D01*
X0081010Y0125361D01*
X0081094Y0125361D01*
X0081178Y0125357D01*
X0081263Y0125349D01*
X0081346Y0125337D01*
X0081429Y0125321D01*
X0081511Y0125301D01*
X0081592Y0125278D01*
X0081672Y0125251D01*
X0081751Y0125220D01*
X0081828Y0125185D01*
X0081903Y0125147D01*
X0081976Y0125106D01*
X0082048Y0125061D01*
X0082117Y0125012D01*
X0082184Y0124961D01*
X0082248Y0124906D01*
X0082310Y0124849D01*
X0082369Y0124788D01*
X0082425Y0124725D01*
X0082478Y0124660D01*
X0082528Y0124592D01*
X0082574Y0124521D01*
X0082618Y0124449D01*
X0082658Y0124374D01*
X0082694Y0124298D01*
X0082727Y0124220D01*
X0082756Y0124141D01*
X0082781Y0124061D01*
X0082803Y0123979D01*
X0082820Y0123897D01*
X0082834Y0123813D01*
X0082844Y0123730D01*
X0082850Y0123645D01*
X0082852Y0123561D01*
X0082850Y0123477D01*
X0082844Y0123392D01*
X0082834Y0123309D01*
X0082820Y0123225D01*
X0082803Y0123143D01*
X0082781Y0123061D01*
X0082756Y0122981D01*
X0082727Y0122902D01*
X0082694Y0122824D01*
X0082658Y0122748D01*
X0082618Y0122673D01*
X0082574Y0122601D01*
X0082528Y0122530D01*
X0082478Y0122462D01*
X0082425Y0122397D01*
X0082369Y0122334D01*
X0082310Y0122273D01*
X0082248Y0122216D01*
X0082184Y0122161D01*
X0082117Y0122110D01*
X0082048Y0122061D01*
X0081976Y0122016D01*
X0081903Y0121975D01*
X0081828Y0121937D01*
X0081751Y0121902D01*
X0081672Y0121871D01*
X0081592Y0121844D01*
X0081511Y0121821D01*
X0081429Y0121801D01*
X0081346Y0121785D01*
X0081263Y0121773D01*
X0081178Y0121765D01*
X0081094Y0121761D01*
X0081010Y0121761D01*
X0080926Y0121765D01*
X0080841Y0121773D01*
X0080758Y0121785D01*
X0080675Y0121801D01*
X0080593Y0121821D01*
X0080512Y0121844D01*
X0080432Y0121871D01*
X0080353Y0121902D01*
X0080276Y0121937D01*
X0080201Y0121975D01*
X0080128Y0122016D01*
X0080056Y0122061D01*
X0079987Y0122110D01*
X0079920Y0122161D01*
X0079856Y0122216D01*
X0079794Y0122273D01*
X0079735Y0122334D01*
X0079679Y0122397D01*
X0079626Y0122462D01*
X0079576Y0122530D01*
X0079530Y0122601D01*
X0079486Y0122673D01*
X0079446Y0122748D01*
X0079410Y0122824D01*
X0079377Y0122902D01*
X0079348Y0122981D01*
X0079323Y0123061D01*
X0079301Y0123143D01*
X0079284Y0123225D01*
X0079270Y0123309D01*
X0079260Y0123392D01*
X0079254Y0123477D01*
X0079252Y0123561D01*
X0060799Y0142433D02*
X0060799Y0143220D01*
X0053319Y0141252D02*
X0053319Y0140858D01*
X0039539Y0143614D02*
X0038752Y0144402D01*
X0037571Y0144402D01*
X0037965Y0139283D02*
X0038752Y0139283D01*
X0024579Y0142039D02*
X0023398Y0143220D01*
X0020248Y0143220D01*
X0019067Y0138496D02*
X0023791Y0138496D01*
X0021823Y0133772D02*
X0019854Y0133772D01*
X0019067Y0132984D01*
X0016311Y0125898D02*
X0017098Y0125110D01*
X0020248Y0125110D01*
X0020248Y0120780D02*
X0017098Y0120780D01*
X0014574Y0114724D02*
X0014574Y0114354D01*
X0014574Y0114724D02*
X0020755Y0114724D01*
X0020755Y0114354D01*
X0020755Y0111180D02*
X0020755Y0107070D01*
X0020755Y0103897D02*
X0020755Y0103527D01*
X0014574Y0103527D01*
X0014574Y0103897D01*
X0014574Y0107070D02*
X0014574Y0107440D01*
X0014574Y0110810D02*
X0014574Y0111180D01*
X0069854Y0151094D02*
X0069854Y0151488D01*
X0111980Y0107787D02*
X0113555Y0107787D01*
X0116705Y0102669D02*
X0117886Y0102669D01*
D11*
X0117963Y0102207D02*
X0119498Y0100672D01*
X0121032Y0100672D02*
X0124102Y0103742D01*
X0124102Y0104509D01*
X0123334Y0105276D01*
X0121800Y0105276D01*
X0121032Y0104509D01*
X0119498Y0104509D02*
X0119498Y0102974D01*
X0118730Y0102207D01*
X0116428Y0102207D01*
X0116428Y0100672D02*
X0116428Y0105276D01*
X0118730Y0105276D01*
X0119498Y0104509D01*
X0120935Y0106967D02*
X0117866Y0106967D01*
X0120935Y0110036D01*
X0120935Y0110804D01*
X0120168Y0111571D01*
X0118633Y0111571D01*
X0117866Y0110804D01*
X0116331Y0110804D02*
X0116331Y0109269D01*
X0115564Y0108502D01*
X0113262Y0108502D01*
X0114797Y0108502D02*
X0116331Y0106967D01*
X0113262Y0106967D02*
X0113262Y0111571D01*
X0115564Y0111571D01*
X0116331Y0110804D01*
X0122470Y0110804D02*
X0122470Y0110036D01*
X0123237Y0109269D01*
X0124772Y0109269D01*
X0125539Y0108502D01*
X0125539Y0107734D01*
X0124772Y0106967D01*
X0123237Y0106967D01*
X0122470Y0107734D01*
X0122470Y0108502D01*
X0123237Y0109269D01*
X0124772Y0109269D02*
X0125539Y0110036D01*
X0125539Y0110804D01*
X0124772Y0111571D01*
X0123237Y0111571D01*
X0122470Y0110804D01*
X0125636Y0105276D02*
X0125636Y0102974D01*
X0127171Y0103742D01*
X0127938Y0103742D01*
X0128705Y0102974D01*
X0128705Y0101440D01*
X0127938Y0100672D01*
X0126404Y0100672D01*
X0125636Y0101440D01*
X0124102Y0100672D02*
X0121032Y0100672D01*
X0125636Y0105276D02*
X0128705Y0105276D01*
X0139346Y0100407D02*
X0139346Y0099639D01*
X0140113Y0098872D01*
X0141648Y0098872D01*
X0142415Y0098105D01*
X0142415Y0097337D01*
X0141648Y0096570D01*
X0140113Y0096570D01*
X0139346Y0097337D01*
X0139346Y0100407D02*
X0140113Y0101174D01*
X0141648Y0101174D01*
X0142415Y0100407D01*
X0145484Y0101174D02*
X0147019Y0101174D01*
X0146252Y0101174D02*
X0146252Y0097337D01*
X0145484Y0096570D01*
X0144717Y0096570D01*
X0143950Y0097337D01*
X0148554Y0098872D02*
X0151623Y0098872D01*
X0150855Y0096570D02*
X0150855Y0101174D01*
X0148554Y0098872D01*
X0149469Y0110294D02*
X0148702Y0111062D01*
X0151771Y0114131D01*
X0151771Y0111062D01*
X0151004Y0110294D01*
X0149469Y0110294D01*
X0148702Y0111062D02*
X0148702Y0114131D01*
X0149469Y0114898D01*
X0151004Y0114898D01*
X0151771Y0114131D01*
X0147167Y0112596D02*
X0144098Y0112596D01*
X0146400Y0114898D01*
X0146400Y0110294D01*
X0142563Y0110294D02*
X0141028Y0111829D01*
X0141796Y0111829D02*
X0142563Y0112596D01*
X0142563Y0114131D01*
X0141796Y0114898D01*
X0139494Y0114898D01*
X0139494Y0110294D01*
X0139494Y0111829D02*
X0141796Y0111829D01*
X0142880Y0121399D02*
X0142880Y0123701D01*
X0143648Y0124469D01*
X0145182Y0124469D01*
X0145950Y0123701D01*
X0145950Y0121399D01*
X0147484Y0121399D02*
X0142880Y0121399D01*
X0145950Y0122934D02*
X0147484Y0124469D01*
X0146717Y0126003D02*
X0147484Y0126770D01*
X0147484Y0128305D01*
X0146717Y0129072D01*
X0145950Y0129072D01*
X0145182Y0128305D01*
X0145182Y0127538D01*
X0145182Y0128305D02*
X0144415Y0129072D01*
X0143648Y0129072D01*
X0142880Y0128305D01*
X0142880Y0126770D01*
X0143648Y0126003D01*
X0143648Y0130607D02*
X0144415Y0130607D01*
X0145182Y0131374D01*
X0145182Y0132909D01*
X0145950Y0133676D01*
X0146717Y0133676D01*
X0147484Y0132909D01*
X0147484Y0131374D01*
X0146717Y0130607D01*
X0145950Y0130607D01*
X0145182Y0131374D01*
X0145182Y0132909D02*
X0144415Y0133676D01*
X0143648Y0133676D01*
X0142880Y0132909D01*
X0142880Y0131374D01*
X0143648Y0130607D01*
X0136717Y0131336D02*
X0135950Y0130568D01*
X0136717Y0131336D02*
X0136717Y0132870D01*
X0135950Y0133638D01*
X0135183Y0133638D01*
X0134415Y0132870D01*
X0134415Y0132103D01*
X0134415Y0132870D02*
X0133648Y0133638D01*
X0132881Y0133638D01*
X0132113Y0132870D01*
X0132113Y0131336D01*
X0132881Y0130568D01*
X0132881Y0129034D02*
X0134415Y0129034D01*
X0135183Y0128267D01*
X0135183Y0125965D01*
X0135183Y0127499D02*
X0136717Y0129034D01*
X0136717Y0125965D02*
X0132113Y0125965D01*
X0132113Y0128267D01*
X0132881Y0129034D01*
X0134415Y0135172D02*
X0134415Y0138242D01*
X0132113Y0137474D02*
X0134415Y0135172D01*
X0136717Y0137474D02*
X0132113Y0137474D01*
X0124217Y0146117D02*
X0119613Y0146117D01*
X0119613Y0148418D01*
X0120380Y0149186D01*
X0121915Y0149186D01*
X0122682Y0148418D01*
X0122682Y0146117D01*
X0122682Y0147651D02*
X0124217Y0149186D01*
X0123449Y0150720D02*
X0124217Y0151488D01*
X0124217Y0153022D01*
X0123449Y0153790D01*
X0122682Y0153790D01*
X0121915Y0153022D01*
X0121915Y0152255D01*
X0121915Y0153022D02*
X0121147Y0153790D01*
X0120380Y0153790D01*
X0119613Y0153022D01*
X0119613Y0151488D01*
X0120380Y0150720D01*
X0118232Y0152553D02*
X0117465Y0151786D01*
X0115930Y0151786D01*
X0115163Y0152553D01*
X0113628Y0151786D02*
X0110559Y0151786D01*
X0113628Y0154855D01*
X0113628Y0155622D01*
X0112861Y0156390D01*
X0111326Y0156390D01*
X0110559Y0155622D01*
X0109024Y0155622D02*
X0109024Y0154088D01*
X0108257Y0153320D01*
X0105955Y0153320D01*
X0105955Y0151786D02*
X0105955Y0156390D01*
X0108257Y0156390D01*
X0109024Y0155622D01*
X0107490Y0153320D02*
X0109024Y0151786D01*
X0115163Y0155622D02*
X0115930Y0156390D01*
X0117465Y0156390D01*
X0118232Y0155622D01*
X0118232Y0154855D01*
X0117465Y0154088D01*
X0118232Y0153320D01*
X0118232Y0152553D01*
X0117465Y0154088D02*
X0116698Y0154088D01*
X0119613Y0156092D02*
X0119613Y0157626D01*
X0120380Y0158394D01*
X0121147Y0158394D01*
X0121915Y0157626D01*
X0122682Y0158394D01*
X0123449Y0158394D01*
X0124217Y0157626D01*
X0124217Y0156092D01*
X0123449Y0155324D01*
X0121915Y0156859D02*
X0121915Y0157626D01*
X0120380Y0155324D02*
X0119613Y0156092D01*
X0108887Y0145324D02*
X0108887Y0142254D01*
X0108887Y0140720D02*
X0108887Y0137650D01*
X0108887Y0139185D02*
X0104283Y0139185D01*
X0105817Y0137650D01*
X0105050Y0136116D02*
X0104283Y0135348D01*
X0104283Y0133814D01*
X0105050Y0133046D01*
X0108119Y0133046D01*
X0108887Y0133814D01*
X0108887Y0135348D01*
X0108119Y0136116D01*
X0102642Y0136020D02*
X0101107Y0134486D01*
X0101107Y0135253D02*
X0101107Y0132951D01*
X0102642Y0132951D02*
X0098038Y0132951D01*
X0098038Y0135253D01*
X0098805Y0136020D01*
X0100340Y0136020D01*
X0101107Y0135253D01*
X0099572Y0137555D02*
X0098038Y0139090D01*
X0102642Y0139090D01*
X0102642Y0140624D02*
X0102642Y0137555D01*
X0101874Y0142159D02*
X0102642Y0142926D01*
X0102642Y0144461D01*
X0101874Y0145228D01*
X0101107Y0145228D01*
X0100340Y0144461D01*
X0100340Y0143694D01*
X0100340Y0144461D02*
X0099572Y0145228D01*
X0098805Y0145228D01*
X0098038Y0144461D01*
X0098038Y0142926D01*
X0098805Y0142159D01*
X0104283Y0143789D02*
X0108887Y0143789D01*
X0105817Y0142254D02*
X0104283Y0143789D01*
X0091703Y0143647D02*
X0087099Y0143647D01*
X0087099Y0145949D01*
X0087867Y0146717D01*
X0089401Y0146717D01*
X0090169Y0145949D01*
X0090169Y0143647D01*
X0090169Y0145182D02*
X0091703Y0146717D01*
X0091703Y0148251D02*
X0088634Y0151320D01*
X0087867Y0151320D01*
X0087099Y0150553D01*
X0087099Y0149018D01*
X0087867Y0148251D01*
X0091703Y0148251D02*
X0091703Y0151320D01*
X0089401Y0152855D02*
X0089401Y0155924D01*
X0087099Y0155157D02*
X0089401Y0152855D01*
X0091703Y0155157D02*
X0087099Y0155157D01*
X0075192Y0155832D02*
X0075192Y0152763D01*
X0074425Y0151995D01*
X0072890Y0151995D01*
X0072123Y0152763D01*
X0070588Y0152763D02*
X0070588Y0153530D01*
X0069821Y0154297D01*
X0069054Y0154297D01*
X0069821Y0154297D02*
X0070588Y0155065D01*
X0070588Y0155832D01*
X0069821Y0156599D01*
X0068286Y0156599D01*
X0067519Y0155832D01*
X0065984Y0155832D02*
X0065217Y0156599D01*
X0063682Y0156599D01*
X0062915Y0155832D01*
X0062915Y0152763D01*
X0063682Y0151995D01*
X0065217Y0151995D01*
X0065984Y0152763D01*
X0067519Y0152763D02*
X0068286Y0151995D01*
X0069821Y0151995D01*
X0070588Y0152763D01*
X0072123Y0155065D02*
X0072890Y0154297D01*
X0075192Y0154297D01*
X0075192Y0155832D02*
X0074425Y0156599D01*
X0072890Y0156599D01*
X0072123Y0155832D01*
X0072123Y0155065D01*
X0062827Y0155824D02*
X0062827Y0152755D01*
X0062827Y0151220D02*
X0062827Y0148151D01*
X0059757Y0151220D01*
X0058990Y0151220D01*
X0058223Y0150453D01*
X0058223Y0148918D01*
X0058990Y0148151D01*
X0058990Y0146617D02*
X0058223Y0145849D01*
X0058223Y0144315D01*
X0058990Y0143547D01*
X0062059Y0143547D01*
X0062827Y0144315D01*
X0062827Y0145849D01*
X0062059Y0146617D01*
X0065439Y0142820D02*
X0067741Y0142820D01*
X0068509Y0142052D01*
X0068509Y0140518D01*
X0067741Y0139750D01*
X0065439Y0139750D01*
X0065439Y0138216D02*
X0065439Y0142820D01*
X0066974Y0139750D02*
X0068509Y0138216D01*
X0070043Y0138216D02*
X0073113Y0141285D01*
X0073113Y0142052D01*
X0072345Y0142820D01*
X0070811Y0142820D01*
X0070043Y0142052D01*
X0070043Y0138216D02*
X0073113Y0138216D01*
X0074647Y0138216D02*
X0077717Y0141285D01*
X0077717Y0142052D01*
X0076949Y0142820D01*
X0075415Y0142820D01*
X0074647Y0142052D01*
X0074647Y0138216D02*
X0077717Y0138216D01*
X0084749Y0133902D02*
X0085349Y0132701D01*
X0086550Y0131500D01*
X0086550Y0133302D01*
X0087151Y0133902D01*
X0087751Y0133902D01*
X0088352Y0133302D01*
X0088352Y0132100D01*
X0087751Y0131500D01*
X0086550Y0131500D01*
X0085349Y0130219D02*
X0084749Y0129618D01*
X0084749Y0128417D01*
X0085349Y0127817D01*
X0087751Y0127817D01*
X0088352Y0128417D01*
X0088352Y0129618D01*
X0087751Y0130219D01*
X0088352Y0126562D02*
X0088352Y0125361D01*
X0088352Y0125962D02*
X0084749Y0125962D01*
X0084749Y0126562D02*
X0084749Y0125361D01*
X0074237Y0123490D02*
X0074237Y0121955D01*
X0073470Y0121188D01*
X0071935Y0121188D01*
X0071935Y0123490D01*
X0072702Y0124257D01*
X0073470Y0124257D01*
X0074237Y0123490D01*
X0071935Y0121188D02*
X0070400Y0122723D01*
X0069633Y0124257D01*
X0065409Y0123424D02*
X0060806Y0123424D01*
X0060806Y0125726D01*
X0061573Y0126494D01*
X0063107Y0126494D01*
X0063875Y0125726D01*
X0063875Y0123424D01*
X0063875Y0124959D02*
X0065409Y0126494D01*
X0064642Y0128028D02*
X0065409Y0128796D01*
X0065409Y0130330D01*
X0064642Y0131098D01*
X0061573Y0131098D01*
X0060806Y0130330D01*
X0060806Y0128796D01*
X0061573Y0128028D01*
X0062340Y0128028D01*
X0063107Y0128796D01*
X0063107Y0131098D01*
X0055129Y0125453D02*
X0055129Y0120849D01*
X0053594Y0120849D02*
X0056664Y0120849D01*
X0053594Y0123918D02*
X0055129Y0125453D01*
X0050525Y0125453D02*
X0050525Y0120849D01*
X0048991Y0120849D02*
X0052060Y0120849D01*
X0048991Y0123918D02*
X0050525Y0125453D01*
X0047456Y0124685D02*
X0046689Y0125453D01*
X0045154Y0125453D01*
X0044387Y0124685D01*
X0044387Y0121616D01*
X0045154Y0120849D01*
X0046689Y0120849D01*
X0047456Y0121616D01*
X0042852Y0120849D02*
X0041317Y0120849D01*
X0042085Y0120849D02*
X0042085Y0125453D01*
X0042852Y0125453D02*
X0041317Y0125453D01*
X0036886Y0136512D02*
X0033817Y0136512D01*
X0036886Y0139581D01*
X0036886Y0140348D01*
X0036118Y0141116D01*
X0034584Y0141116D01*
X0033817Y0140348D01*
X0032282Y0140348D02*
X0032282Y0138814D01*
X0031515Y0138046D01*
X0029213Y0138046D01*
X0029213Y0136512D02*
X0029213Y0141116D01*
X0031515Y0141116D01*
X0032282Y0140348D01*
X0030747Y0138046D02*
X0032282Y0136512D01*
X0031115Y0143793D02*
X0029580Y0143793D01*
X0028813Y0144560D01*
X0028813Y0147630D01*
X0029580Y0148397D01*
X0031115Y0148397D01*
X0031882Y0147630D01*
X0033417Y0147630D02*
X0033417Y0146862D01*
X0034184Y0146095D01*
X0036486Y0146095D01*
X0036486Y0147630D02*
X0035718Y0148397D01*
X0034184Y0148397D01*
X0033417Y0147630D01*
X0036486Y0147630D02*
X0036486Y0144560D01*
X0035718Y0143793D01*
X0034184Y0143793D01*
X0033417Y0144560D01*
X0031882Y0144560D02*
X0031115Y0143793D01*
X0018311Y0143326D02*
X0017544Y0142559D01*
X0016009Y0142559D01*
X0015242Y0143326D01*
X0018311Y0146396D01*
X0018311Y0143326D01*
X0015242Y0143326D02*
X0015242Y0146396D01*
X0016009Y0147163D01*
X0017544Y0147163D01*
X0018311Y0146396D01*
X0013707Y0142559D02*
X0010638Y0142559D01*
X0012172Y0142559D02*
X0012172Y0147163D01*
X0010638Y0145628D01*
X0009103Y0146396D02*
X0008336Y0147163D01*
X0006801Y0147163D01*
X0006034Y0146396D01*
X0006034Y0143326D01*
X0006801Y0142559D01*
X0008336Y0142559D01*
X0009103Y0143326D01*
X0010913Y0140323D02*
X0010913Y0135719D01*
X0010718Y0134398D02*
X0009951Y0133631D01*
X0010718Y0134398D02*
X0012253Y0134398D01*
X0013020Y0133631D01*
X0013020Y0132864D01*
X0009951Y0129794D01*
X0013020Y0129794D01*
X0014555Y0130562D02*
X0015322Y0129794D01*
X0016857Y0129794D01*
X0017624Y0130562D01*
X0017624Y0131329D01*
X0016857Y0132096D01*
X0014555Y0132096D01*
X0014555Y0130562D01*
X0014555Y0132096D02*
X0016090Y0133631D01*
X0017624Y0134398D01*
X0016285Y0135719D02*
X0016285Y0140323D01*
X0013983Y0138021D01*
X0017052Y0138021D01*
X0012448Y0135719D02*
X0009379Y0135719D01*
X0007844Y0136486D02*
X0007077Y0135719D01*
X0005542Y0135719D01*
X0004775Y0136486D01*
X0004775Y0139555D01*
X0005542Y0140323D01*
X0007077Y0140323D01*
X0007844Y0139555D01*
X0009379Y0138788D02*
X0010913Y0140323D01*
X0007649Y0134398D02*
X0006115Y0134398D01*
X0005347Y0133631D01*
X0005347Y0130562D01*
X0006115Y0129794D01*
X0007649Y0129794D01*
X0008417Y0130562D01*
X0008417Y0133631D02*
X0007649Y0134398D01*
X0035290Y0103961D02*
X0037592Y0103961D01*
X0038359Y0103194D01*
X0038359Y0101659D01*
X0037592Y0100892D01*
X0035290Y0100892D01*
X0036824Y0100892D02*
X0038359Y0099357D01*
X0039894Y0100125D02*
X0040661Y0099357D01*
X0042196Y0099357D01*
X0042963Y0100125D01*
X0042963Y0101659D01*
X0042196Y0102427D01*
X0041428Y0102427D01*
X0039894Y0101659D01*
X0039894Y0103961D01*
X0042963Y0103961D01*
X0047301Y0104303D02*
X0047301Y0099699D01*
X0047301Y0101234D02*
X0049603Y0101234D01*
X0050370Y0102001D01*
X0050370Y0103536D01*
X0049603Y0104303D01*
X0047301Y0104303D01*
X0048835Y0101234D02*
X0050370Y0099699D01*
X0051905Y0099699D02*
X0054974Y0099699D01*
X0053439Y0099699D02*
X0053439Y0104303D01*
X0051905Y0102768D01*
X0056509Y0103536D02*
X0057276Y0104303D01*
X0058811Y0104303D01*
X0059578Y0103536D01*
X0059578Y0102768D01*
X0056509Y0099699D01*
X0059578Y0099699D01*
X0063450Y0096769D02*
X0064218Y0095235D01*
X0065752Y0093700D01*
X0065752Y0096002D01*
X0066520Y0096769D01*
X0067287Y0096769D01*
X0068054Y0096002D01*
X0068054Y0094467D01*
X0067287Y0093700D01*
X0065752Y0093700D01*
X0068054Y0092165D02*
X0068054Y0089096D01*
X0068054Y0087561D02*
X0066520Y0086027D01*
X0066520Y0086794D02*
X0066520Y0084492D01*
X0068054Y0084492D02*
X0063450Y0084492D01*
X0063450Y0086794D01*
X0064218Y0087561D01*
X0065752Y0087561D01*
X0066520Y0086794D01*
X0064985Y0089096D02*
X0063450Y0090631D01*
X0068054Y0090631D01*
X0077942Y0100442D02*
X0077942Y0102744D01*
X0078709Y0103511D01*
X0080244Y0103511D01*
X0081011Y0102744D01*
X0081011Y0100442D01*
X0081011Y0101976D02*
X0082546Y0103511D01*
X0082546Y0105046D02*
X0079476Y0108115D01*
X0078709Y0108115D01*
X0077942Y0107348D01*
X0077942Y0105813D01*
X0078709Y0105046D01*
X0082546Y0105046D02*
X0082546Y0108115D01*
X0082546Y0109650D02*
X0082546Y0112719D01*
X0082546Y0111184D02*
X0077942Y0111184D01*
X0079476Y0109650D01*
X0074237Y0112748D02*
X0074237Y0114282D01*
X0073470Y0115050D01*
X0074237Y0116584D02*
X0074237Y0119654D01*
X0074237Y0118119D02*
X0069633Y0118119D01*
X0071168Y0116584D01*
X0070400Y0115050D02*
X0069633Y0114282D01*
X0069633Y0112748D01*
X0070400Y0111980D01*
X0073470Y0111980D01*
X0074237Y0112748D01*
X0077942Y0100442D02*
X0082546Y0100442D01*
X0082015Y0099194D02*
X0083550Y0099194D01*
X0084317Y0098427D01*
X0085852Y0098427D02*
X0086619Y0099194D01*
X0088154Y0099194D01*
X0088921Y0098427D01*
X0088921Y0097660D01*
X0088154Y0096893D01*
X0088921Y0096125D01*
X0088921Y0095358D01*
X0088154Y0094591D01*
X0086619Y0094591D01*
X0085852Y0095358D01*
X0084317Y0095358D02*
X0083550Y0094591D01*
X0082015Y0094591D01*
X0081248Y0095358D01*
X0081248Y0098427D01*
X0082015Y0099194D01*
X0087387Y0096893D02*
X0088154Y0096893D01*
X0090456Y0095358D02*
X0090456Y0094591D01*
X0090456Y0095358D02*
X0093525Y0098427D01*
X0093525Y0099194D01*
X0090456Y0099194D01*
X0098079Y0097792D02*
X0098079Y0096258D01*
X0098846Y0095491D01*
X0098846Y0093956D02*
X0100381Y0093956D01*
X0101148Y0093189D01*
X0101148Y0090887D01*
X0101148Y0092421D02*
X0102683Y0093956D01*
X0102683Y0095491D02*
X0099613Y0098560D01*
X0098846Y0098560D01*
X0098079Y0097792D01*
X0098846Y0100094D02*
X0099613Y0100094D01*
X0100381Y0100862D01*
X0100381Y0103164D01*
X0101915Y0103164D02*
X0102683Y0102396D01*
X0102683Y0100862D01*
X0101915Y0100094D01*
X0102683Y0098560D02*
X0102683Y0095491D01*
X0098846Y0093956D02*
X0098079Y0093189D01*
X0098079Y0090887D01*
X0102683Y0090887D01*
X0095627Y0085931D02*
X0095627Y0085164D01*
X0092557Y0082095D01*
X0092557Y0081328D01*
X0091023Y0081328D02*
X0087954Y0081328D01*
X0089488Y0081328D02*
X0089488Y0085931D01*
X0087954Y0084397D01*
X0086419Y0085164D02*
X0086419Y0083630D01*
X0085652Y0082862D01*
X0083350Y0082862D01*
X0084884Y0082862D02*
X0086419Y0081328D01*
X0083350Y0081328D02*
X0083350Y0085931D01*
X0085652Y0085931D01*
X0086419Y0085164D01*
X0092557Y0085931D02*
X0095627Y0085931D01*
X0098846Y0100094D02*
X0098079Y0100862D01*
X0098079Y0102396D01*
X0098846Y0103164D01*
X0101915Y0103164D01*
X0101102Y0118589D02*
X0104171Y0121658D01*
X0104171Y0122426D01*
X0103404Y0123193D01*
X0101869Y0123193D01*
X0101102Y0122426D01*
X0099567Y0122426D02*
X0099567Y0120891D01*
X0098800Y0120124D01*
X0096498Y0120124D01*
X0098032Y0120124D02*
X0099567Y0118589D01*
X0101102Y0118589D02*
X0104171Y0118589D01*
X0105705Y0118589D02*
X0105705Y0119356D01*
X0108775Y0122426D01*
X0108775Y0123193D01*
X0105705Y0123193D01*
X0099567Y0122426D02*
X0098800Y0123193D01*
X0096498Y0123193D01*
X0096498Y0118589D01*
X0118324Y0125417D02*
X0118324Y0126618D01*
X0118324Y0126017D02*
X0121927Y0126017D01*
X0121927Y0125417D02*
X0121927Y0126618D01*
X0121326Y0127872D02*
X0118924Y0127872D01*
X0118324Y0128472D01*
X0118324Y0129673D01*
X0118924Y0130274D01*
X0118324Y0131555D02*
X0118324Y0133957D01*
X0118924Y0133957D01*
X0121326Y0131555D01*
X0121927Y0131555D01*
X0121326Y0130274D02*
X0121927Y0129673D01*
X0121927Y0128472D01*
X0121326Y0127872D01*
X0144527Y0146343D02*
X0144527Y0150947D01*
X0146829Y0150947D01*
X0147596Y0150180D01*
X0147596Y0148645D01*
X0146829Y0147878D01*
X0144527Y0147878D01*
X0146061Y0147878D02*
X0147596Y0146343D01*
X0149131Y0147111D02*
X0149898Y0146343D01*
X0151433Y0146343D01*
X0152200Y0147111D01*
X0152200Y0147878D01*
X0151433Y0148645D01*
X0150665Y0148645D01*
X0151433Y0148645D02*
X0152200Y0149413D01*
X0152200Y0150180D01*
X0151433Y0150947D01*
X0149898Y0150947D01*
X0149131Y0150180D01*
X0153735Y0150947D02*
X0153735Y0148645D01*
X0155269Y0149413D01*
X0156037Y0149413D01*
X0156804Y0148645D01*
X0156804Y0147111D01*
X0156037Y0146343D01*
X0154502Y0146343D01*
X0153735Y0147111D01*
X0153735Y0150947D02*
X0156804Y0150947D01*
X0168778Y0152408D02*
X0168778Y0153943D01*
X0169545Y0154710D01*
X0170313Y0154710D01*
X0171080Y0153943D01*
X0171847Y0154710D01*
X0172615Y0154710D01*
X0173382Y0153943D01*
X0173382Y0152408D01*
X0172615Y0151641D01*
X0172615Y0150106D02*
X0173382Y0149339D01*
X0173382Y0147804D01*
X0172615Y0147037D01*
X0169545Y0147037D01*
X0168778Y0147804D01*
X0168778Y0149339D01*
X0169545Y0150106D01*
X0169545Y0151641D02*
X0168778Y0152408D01*
X0171080Y0153176D02*
X0171080Y0153943D01*
X0171847Y0156245D02*
X0171080Y0157012D01*
X0171080Y0158547D01*
X0171847Y0159314D01*
X0172615Y0159314D01*
X0173382Y0158547D01*
X0173382Y0157012D01*
X0172615Y0156245D01*
X0171847Y0156245D01*
X0171080Y0157012D02*
X0170313Y0156245D01*
X0169545Y0156245D01*
X0168778Y0157012D01*
X0168778Y0158547D01*
X0169545Y0159314D01*
X0170313Y0159314D01*
X0171080Y0158547D01*
X0165996Y0133957D02*
X0166596Y0133357D01*
X0166596Y0132156D01*
X0165996Y0131555D01*
X0165395Y0131555D01*
X0164795Y0132156D01*
X0164795Y0133357D01*
X0165395Y0133957D01*
X0165996Y0133957D01*
X0164795Y0133357D02*
X0164194Y0133957D01*
X0163594Y0133957D01*
X0162993Y0133357D01*
X0162993Y0132156D01*
X0163594Y0131555D01*
X0164194Y0131555D01*
X0164795Y0132156D01*
X0165996Y0130274D02*
X0166596Y0129673D01*
X0166596Y0128472D01*
X0165996Y0127872D01*
X0163594Y0127872D01*
X0162993Y0128472D01*
X0162993Y0129673D01*
X0163594Y0130274D01*
X0162993Y0126618D02*
X0162993Y0125417D01*
X0162993Y0126017D02*
X0166596Y0126017D01*
X0166596Y0125417D02*
X0166596Y0126618D01*
X0183096Y0126967D02*
X0183863Y0126200D01*
X0183096Y0126967D02*
X0183096Y0128502D01*
X0183863Y0129269D01*
X0184631Y0129269D01*
X0185398Y0128502D01*
X0186165Y0129269D01*
X0186933Y0129269D01*
X0187700Y0128502D01*
X0187700Y0126967D01*
X0186933Y0126200D01*
X0187700Y0124665D02*
X0186165Y0123131D01*
X0186165Y0123898D02*
X0186165Y0121596D01*
X0187700Y0121596D02*
X0183096Y0121596D01*
X0183096Y0123898D01*
X0183863Y0124665D01*
X0185398Y0124665D01*
X0186165Y0123898D01*
X0185398Y0127735D02*
X0185398Y0128502D01*
X0186933Y0130804D02*
X0187700Y0130804D01*
X0186933Y0130804D02*
X0183863Y0133873D01*
X0183096Y0133873D01*
X0183096Y0130804D01*
X0177962Y0099110D02*
X0177195Y0099110D01*
X0176427Y0098343D01*
X0176427Y0096808D01*
X0175660Y0096041D01*
X0174893Y0096041D01*
X0174125Y0096808D01*
X0174125Y0098343D01*
X0174893Y0099110D01*
X0175660Y0099110D01*
X0176427Y0098343D01*
X0176427Y0096808D02*
X0177195Y0096041D01*
X0177962Y0096041D01*
X0178729Y0096808D01*
X0178729Y0098343D01*
X0177962Y0099110D01*
X0177962Y0094506D02*
X0176427Y0094506D01*
X0175660Y0093739D01*
X0175660Y0092972D01*
X0176427Y0091437D01*
X0174125Y0091437D01*
X0174125Y0094506D01*
X0177962Y0094506D02*
X0178729Y0093739D01*
X0178729Y0092204D01*
X0177962Y0091437D01*
X0178729Y0089902D02*
X0177195Y0088368D01*
X0177195Y0089135D02*
X0177195Y0086833D01*
X0178729Y0086833D02*
X0174125Y0086833D01*
X0174125Y0089135D01*
X0174893Y0089902D01*
X0176427Y0089902D01*
X0177195Y0089135D01*
X0183574Y0088167D02*
X0185876Y0088167D01*
X0185109Y0089702D01*
X0185109Y0090469D01*
X0185876Y0091236D01*
X0187411Y0091236D01*
X0188178Y0090469D01*
X0188178Y0088934D01*
X0187411Y0088167D01*
X0187411Y0086632D02*
X0185876Y0086632D01*
X0185109Y0085865D01*
X0185109Y0085098D01*
X0185876Y0083563D01*
X0183574Y0083563D01*
X0183574Y0086632D01*
X0183574Y0088167D02*
X0183574Y0091236D01*
X0187411Y0086632D02*
X0188178Y0085865D01*
X0188178Y0084330D01*
X0187411Y0083563D01*
X0188178Y0082028D02*
X0186643Y0080494D01*
X0186643Y0081261D02*
X0186643Y0078959D01*
X0188178Y0078959D02*
X0183574Y0078959D01*
X0183574Y0081261D01*
X0184341Y0082028D01*
X0185876Y0082028D01*
X0186643Y0081261D01*
X0191448Y0081261D02*
X0191448Y0078959D01*
X0196052Y0078959D01*
X0194517Y0078959D02*
X0194517Y0081261D01*
X0193750Y0082028D01*
X0192215Y0082028D01*
X0191448Y0081261D01*
X0191448Y0083563D02*
X0193750Y0083563D01*
X0192983Y0085098D01*
X0192983Y0085865D01*
X0193750Y0086632D01*
X0195285Y0086632D01*
X0196052Y0085865D01*
X0196052Y0084330D01*
X0195285Y0083563D01*
X0196052Y0082028D02*
X0194517Y0080494D01*
X0191448Y0083563D02*
X0191448Y0086632D01*
X0193750Y0088167D02*
X0193750Y0091236D01*
X0191448Y0090469D02*
X0193750Y0088167D01*
X0196052Y0090469D02*
X0191448Y0090469D01*
X0178629Y0074091D02*
X0177094Y0073323D01*
X0175560Y0071789D01*
X0177862Y0071789D01*
X0178629Y0071021D01*
X0178629Y0070254D01*
X0177862Y0069487D01*
X0176327Y0069487D01*
X0175560Y0070254D01*
X0175560Y0071789D01*
X0174025Y0071789D02*
X0170956Y0071789D01*
X0173258Y0074091D01*
X0173258Y0069487D01*
X0169421Y0070254D02*
X0168654Y0069487D01*
X0167119Y0069487D01*
X0166352Y0070254D01*
X0166352Y0073323D01*
X0167119Y0074091D01*
X0168654Y0074091D01*
X0169421Y0073323D01*
X0160461Y0073811D02*
X0160461Y0072276D01*
X0159694Y0071509D01*
X0158159Y0071509D02*
X0157392Y0073043D01*
X0157392Y0073811D01*
X0158159Y0074578D01*
X0159694Y0074578D01*
X0160461Y0073811D01*
X0158159Y0071509D02*
X0155857Y0071509D01*
X0155857Y0074578D01*
X0151665Y0073122D02*
X0149363Y0070820D01*
X0152432Y0070820D01*
X0151665Y0068518D02*
X0151665Y0073122D01*
X0147828Y0070820D02*
X0144759Y0070820D01*
X0147061Y0073122D01*
X0147061Y0068518D01*
X0143224Y0069285D02*
X0142457Y0068518D01*
X0140922Y0068518D01*
X0140155Y0069285D01*
X0140155Y0072355D01*
X0140922Y0073122D01*
X0142457Y0073122D01*
X0143224Y0072355D01*
X0138645Y0072963D02*
X0137110Y0071428D01*
X0137110Y0072196D02*
X0137110Y0069894D01*
X0138645Y0069894D02*
X0134041Y0069894D01*
X0134041Y0072196D01*
X0134808Y0072963D01*
X0136343Y0072963D01*
X0137110Y0072196D01*
X0136343Y0074498D02*
X0136343Y0077567D01*
X0135576Y0079102D02*
X0134808Y0079102D01*
X0134041Y0079869D01*
X0134041Y0081404D01*
X0134808Y0082171D01*
X0137878Y0082171D01*
X0138645Y0081404D01*
X0138645Y0079869D01*
X0137878Y0079102D01*
X0136343Y0079869D02*
X0136343Y0082171D01*
X0136343Y0079869D02*
X0135576Y0079102D01*
X0134041Y0076800D02*
X0136343Y0074498D01*
X0138645Y0076800D02*
X0134041Y0076800D01*
X0131706Y0077702D02*
X0127102Y0077702D01*
X0127102Y0080004D01*
X0127870Y0080772D01*
X0129404Y0080772D01*
X0130172Y0080004D01*
X0130172Y0077702D01*
X0130172Y0079237D02*
X0131706Y0080772D01*
X0130939Y0082306D02*
X0131706Y0083074D01*
X0131706Y0084608D01*
X0130939Y0085376D01*
X0129404Y0085376D01*
X0128637Y0084608D01*
X0128637Y0083841D01*
X0129404Y0082306D01*
X0127102Y0082306D01*
X0127102Y0085376D01*
X0127870Y0086910D02*
X0127102Y0087678D01*
X0127102Y0089212D01*
X0127870Y0089980D01*
X0130939Y0086910D01*
X0131706Y0087678D01*
X0131706Y0089212D01*
X0130939Y0089980D01*
X0127870Y0089980D01*
X0127870Y0086910D02*
X0130939Y0086910D01*
X0121719Y0087404D02*
X0121719Y0090473D01*
X0121719Y0088939D02*
X0117115Y0088939D01*
X0118650Y0087404D01*
X0119417Y0085869D02*
X0120952Y0085869D01*
X0121719Y0085102D01*
X0121719Y0083567D01*
X0120952Y0082800D01*
X0119417Y0082800D02*
X0118650Y0084335D01*
X0118650Y0085102D01*
X0119417Y0085869D01*
X0117115Y0085869D02*
X0117115Y0082800D01*
X0119417Y0082800D01*
X0119417Y0081265D02*
X0117882Y0081265D01*
X0117115Y0080498D01*
X0117115Y0078196D01*
X0121719Y0078196D01*
X0120184Y0078196D02*
X0120184Y0080498D01*
X0119417Y0081265D01*
X0120184Y0079731D02*
X0121719Y0081265D01*
X0120734Y0070363D02*
X0123036Y0070363D01*
X0123803Y0069596D01*
X0123803Y0068061D01*
X0123036Y0067294D01*
X0120734Y0067294D01*
X0122268Y0067294D02*
X0123803Y0065759D01*
X0125338Y0068061D02*
X0128407Y0068061D01*
X0129942Y0067294D02*
X0129942Y0066526D01*
X0130709Y0065759D01*
X0132244Y0065759D01*
X0133011Y0066526D01*
X0133011Y0067294D01*
X0132244Y0068061D01*
X0130709Y0068061D01*
X0129942Y0068828D01*
X0129942Y0069596D01*
X0130709Y0070363D01*
X0132244Y0070363D01*
X0133011Y0069596D01*
X0133011Y0068828D01*
X0132244Y0068061D01*
X0130709Y0068061D02*
X0129942Y0067294D01*
X0127640Y0065759D02*
X0127640Y0070363D01*
X0125338Y0068061D01*
X0120734Y0065759D02*
X0120734Y0070363D01*
X0136566Y0056347D02*
X0137333Y0056347D01*
X0140403Y0053278D01*
X0141170Y0053278D01*
X0140403Y0051743D02*
X0138868Y0051743D01*
X0138101Y0050976D01*
X0138101Y0050209D01*
X0138868Y0048674D01*
X0136566Y0048674D01*
X0136566Y0051743D01*
X0136566Y0053278D02*
X0136566Y0056347D01*
X0140403Y0051743D02*
X0141170Y0050976D01*
X0141170Y0049441D01*
X0140403Y0048674D01*
X0141170Y0047139D02*
X0139635Y0045605D01*
X0139635Y0046372D02*
X0139635Y0044070D01*
X0141170Y0044070D02*
X0136566Y0044070D01*
X0136566Y0046372D01*
X0137333Y0047139D01*
X0138868Y0047139D01*
X0139635Y0046372D01*
X0148943Y0046722D02*
X0148943Y0045188D01*
X0149711Y0044420D01*
X0152780Y0044420D01*
X0153547Y0045188D01*
X0153547Y0046722D01*
X0152780Y0047490D01*
X0153547Y0049024D02*
X0150478Y0052094D01*
X0149711Y0052094D01*
X0148943Y0051326D01*
X0148943Y0049792D01*
X0149711Y0049024D01*
X0149711Y0047490D02*
X0148943Y0046722D01*
X0153547Y0049024D02*
X0153547Y0052094D01*
X0153547Y0042886D02*
X0153547Y0041351D01*
X0153547Y0042119D02*
X0148943Y0042119D01*
X0148943Y0042886D02*
X0148943Y0041351D01*
X0140949Y0035374D02*
X0140949Y0033840D01*
X0140182Y0033072D01*
X0138647Y0033072D02*
X0137880Y0034607D01*
X0137880Y0035374D01*
X0138647Y0036142D01*
X0140182Y0036142D01*
X0140949Y0035374D01*
X0138647Y0033072D02*
X0136345Y0033072D01*
X0136345Y0036142D01*
X0138647Y0031538D02*
X0138647Y0028468D01*
X0136345Y0030770D01*
X0140949Y0030770D01*
X0140949Y0026934D02*
X0139414Y0025399D01*
X0139414Y0026167D02*
X0139414Y0023865D01*
X0140949Y0023865D02*
X0136345Y0023865D01*
X0136345Y0026167D01*
X0137112Y0026934D01*
X0138647Y0026934D01*
X0139414Y0026167D01*
X0144772Y0027175D02*
X0147074Y0024873D01*
X0147074Y0027943D01*
X0147074Y0029477D02*
X0144772Y0029477D01*
X0144772Y0032546D01*
X0146306Y0031779D02*
X0146306Y0031012D01*
X0147074Y0029477D01*
X0148608Y0029477D02*
X0149376Y0030244D01*
X0149376Y0031779D01*
X0148608Y0032546D01*
X0147074Y0032546D01*
X0146306Y0031779D01*
X0144772Y0027175D02*
X0149376Y0027175D01*
X0148608Y0023339D02*
X0149376Y0022571D01*
X0149376Y0021037D01*
X0148608Y0020269D01*
X0145539Y0020269D01*
X0144772Y0021037D01*
X0144772Y0022571D01*
X0145539Y0023339D01*
X0149687Y0022414D02*
X0151989Y0022414D01*
X0152757Y0021647D01*
X0152757Y0020112D01*
X0151989Y0019345D01*
X0149687Y0019345D01*
X0149687Y0017810D02*
X0149687Y0022414D01*
X0151222Y0019345D02*
X0152757Y0017810D01*
X0154291Y0018578D02*
X0155059Y0017810D01*
X0156593Y0017810D01*
X0157361Y0018578D01*
X0157361Y0020112D01*
X0156593Y0020880D01*
X0155826Y0020880D01*
X0154291Y0020112D01*
X0154291Y0022414D01*
X0157361Y0022414D01*
X0158895Y0020112D02*
X0160430Y0021647D01*
X0161965Y0022414D01*
X0161197Y0020112D02*
X0158895Y0020112D01*
X0158895Y0018578D01*
X0159663Y0017810D01*
X0161197Y0017810D01*
X0161965Y0018578D01*
X0161965Y0019345D01*
X0161197Y0020112D01*
X0170278Y0025671D02*
X0171045Y0024904D01*
X0172580Y0024904D01*
X0173347Y0025671D01*
X0174882Y0025671D02*
X0175649Y0024904D01*
X0177184Y0024904D01*
X0177951Y0025671D01*
X0177951Y0027206D01*
X0177184Y0027973D01*
X0176417Y0027973D01*
X0174882Y0027206D01*
X0174882Y0029508D01*
X0177951Y0029508D01*
X0179486Y0027206D02*
X0182555Y0027206D01*
X0181788Y0024904D02*
X0181788Y0029508D01*
X0179486Y0027206D01*
X0173347Y0028741D02*
X0172580Y0029508D01*
X0171045Y0029508D01*
X0170278Y0028741D01*
X0170278Y0025671D01*
X0172565Y0042312D02*
X0172565Y0043846D01*
X0172565Y0043079D02*
X0177169Y0043079D01*
X0177169Y0042312D02*
X0177169Y0043846D01*
X0176402Y0045381D02*
X0177169Y0046148D01*
X0177169Y0047683D01*
X0176402Y0048450D01*
X0177169Y0049985D02*
X0177169Y0053054D01*
X0177169Y0051520D02*
X0172565Y0051520D01*
X0174100Y0049985D01*
X0173333Y0048450D02*
X0172565Y0047683D01*
X0172565Y0046148D01*
X0173333Y0045381D01*
X0176402Y0045381D01*
X0193417Y0049432D02*
X0193417Y0051733D01*
X0194184Y0052501D01*
X0195719Y0052501D01*
X0196486Y0051733D01*
X0196486Y0049432D01*
X0196486Y0050966D02*
X0198020Y0052501D01*
X0198020Y0054035D02*
X0197253Y0054035D01*
X0194184Y0057105D01*
X0193417Y0057105D01*
X0193417Y0054035D01*
X0193417Y0049432D02*
X0198020Y0049432D01*
X0197253Y0058639D02*
X0198020Y0059407D01*
X0198020Y0060941D01*
X0197253Y0061709D01*
X0196486Y0061709D01*
X0195719Y0060941D01*
X0195719Y0060174D01*
X0195719Y0060941D02*
X0194951Y0061709D01*
X0194184Y0061709D01*
X0193417Y0060941D01*
X0193417Y0059407D01*
X0194184Y0058639D01*
X0160461Y0067672D02*
X0159694Y0066905D01*
X0156625Y0066905D01*
X0155857Y0067672D01*
X0155857Y0069207D01*
X0156625Y0069974D01*
X0159694Y0069974D02*
X0160461Y0069207D01*
X0160461Y0067672D01*
X0127239Y0050907D02*
X0127239Y0049706D01*
X0126638Y0049106D01*
X0125437Y0049106D02*
X0124837Y0050307D01*
X0124837Y0050907D01*
X0125437Y0051508D01*
X0126638Y0051508D01*
X0127239Y0050907D01*
X0125437Y0049106D02*
X0123636Y0049106D01*
X0123636Y0051508D01*
X0124236Y0047825D02*
X0123636Y0047224D01*
X0123636Y0046023D01*
X0124236Y0045423D01*
X0126638Y0045423D01*
X0127239Y0046023D01*
X0127239Y0047224D01*
X0126638Y0047825D01*
X0127239Y0044168D02*
X0127239Y0042967D01*
X0127239Y0043568D02*
X0123636Y0043568D01*
X0123636Y0044168D02*
X0123636Y0042967D01*
X0098161Y0042403D02*
X0095091Y0042403D01*
X0093557Y0042403D02*
X0092022Y0043938D01*
X0092789Y0043938D02*
X0090487Y0043938D01*
X0090487Y0042403D02*
X0090487Y0047007D01*
X0092789Y0047007D01*
X0093557Y0046240D01*
X0093557Y0044705D01*
X0092789Y0043938D01*
X0095091Y0045472D02*
X0096626Y0047007D01*
X0096626Y0042403D01*
X0095522Y0054458D02*
X0092453Y0054458D01*
X0093987Y0054458D02*
X0093987Y0059062D01*
X0092453Y0057528D01*
X0090918Y0056760D02*
X0090918Y0055226D01*
X0090151Y0054458D01*
X0088616Y0054458D01*
X0087849Y0055226D01*
X0087849Y0056760D02*
X0089383Y0057528D01*
X0090151Y0057528D01*
X0090918Y0056760D01*
X0090918Y0059062D02*
X0087849Y0059062D01*
X0087849Y0056760D01*
X0086314Y0055226D02*
X0085547Y0054458D01*
X0084012Y0054458D01*
X0083245Y0055226D01*
X0083245Y0058295D01*
X0084012Y0059062D01*
X0085547Y0059062D01*
X0086314Y0058295D01*
X0133611Y0019480D02*
X0134378Y0017945D01*
X0135913Y0016410D01*
X0135913Y0018712D01*
X0136680Y0019480D01*
X0137448Y0019480D01*
X0138215Y0018712D01*
X0138215Y0017178D01*
X0137448Y0016410D01*
X0135913Y0016410D01*
X0135913Y0014876D02*
X0135913Y0011806D01*
X0133611Y0014108D01*
X0138215Y0014108D01*
X0138215Y0010272D02*
X0136680Y0008737D01*
X0136680Y0009504D02*
X0136680Y0007202D01*
X0138215Y0007202D02*
X0133611Y0007202D01*
X0133611Y0009504D01*
X0134378Y0010272D01*
X0135913Y0010272D01*
X0136680Y0009504D01*
X0035362Y0085589D02*
X0032293Y0085589D01*
X0035362Y0088658D01*
X0035362Y0089426D01*
X0034595Y0090193D01*
X0033060Y0090193D01*
X0032293Y0089426D01*
X0030758Y0089426D02*
X0029991Y0090193D01*
X0028456Y0090193D01*
X0027689Y0089426D01*
X0026154Y0089426D02*
X0025387Y0090193D01*
X0023852Y0090193D01*
X0023085Y0089426D01*
X0023085Y0086356D01*
X0023852Y0085589D01*
X0025387Y0085589D01*
X0026154Y0086356D01*
X0027689Y0086356D02*
X0028456Y0085589D01*
X0029991Y0085589D01*
X0030758Y0086356D01*
X0030758Y0087124D01*
X0029991Y0087891D01*
X0029224Y0087891D01*
X0029991Y0087891D02*
X0030758Y0088658D01*
X0030758Y0089426D01*
X0035290Y0099357D02*
X0035290Y0103961D01*
X0032641Y0077217D02*
X0031107Y0077217D01*
X0030339Y0076449D01*
X0028805Y0076449D02*
X0028037Y0077217D01*
X0025735Y0077217D01*
X0025735Y0072613D01*
X0025735Y0074147D02*
X0028037Y0074147D01*
X0028805Y0074915D01*
X0028805Y0076449D01*
X0027270Y0074147D02*
X0028805Y0072613D01*
X0030339Y0073380D02*
X0031107Y0072613D01*
X0032641Y0072613D01*
X0033409Y0073380D01*
X0033409Y0074147D01*
X0032641Y0074915D01*
X0031874Y0074915D01*
X0032641Y0074915D02*
X0033409Y0075682D01*
X0033409Y0076449D01*
X0032641Y0077217D01*
X0049215Y0142277D02*
X0049215Y0146881D01*
X0051517Y0146881D01*
X0052284Y0146114D01*
X0052284Y0144579D01*
X0051517Y0143812D01*
X0049215Y0143812D01*
X0050750Y0143812D02*
X0052284Y0142277D01*
X0053819Y0143044D02*
X0053819Y0144579D01*
X0056121Y0144579D01*
X0056888Y0143812D01*
X0056888Y0143044D01*
X0056121Y0142277D01*
X0054586Y0142277D01*
X0053819Y0143044D01*
X0053819Y0144579D02*
X0055354Y0146114D01*
X0056888Y0146881D01*
X0059757Y0152755D02*
X0058223Y0154290D01*
X0062827Y0154290D01*
X0136008Y0153654D02*
X0136008Y0155956D01*
X0136775Y0156724D01*
X0138310Y0156724D01*
X0139077Y0155956D01*
X0139077Y0153654D01*
X0140612Y0153654D02*
X0136008Y0153654D01*
X0139077Y0155189D02*
X0140612Y0156724D01*
X0139845Y0158258D02*
X0140612Y0159026D01*
X0140612Y0160560D01*
X0139845Y0161328D01*
X0139077Y0161328D01*
X0138310Y0160560D01*
X0138310Y0159793D01*
X0138310Y0160560D02*
X0137543Y0161328D01*
X0136775Y0161328D01*
X0136008Y0160560D01*
X0136008Y0159026D01*
X0136775Y0158258D01*
X0138310Y0162862D02*
X0138310Y0165164D01*
X0139077Y0165931D01*
X0139845Y0165931D01*
X0140612Y0165164D01*
X0140612Y0163630D01*
X0139845Y0162862D01*
X0138310Y0162862D01*
X0136775Y0164397D01*
X0136008Y0165931D01*
D12*
X0079398Y0082194D02*
X0076262Y0079058D01*
X0077830Y0079058D02*
X0077830Y0082194D01*
X0076262Y0082194D02*
X0079398Y0079058D01*
X0079398Y0080626D02*
X0076262Y0080626D01*
X0030148Y0111211D02*
X0026444Y0111211D01*
X0026444Y0113062D01*
X0027062Y0113680D01*
X0028296Y0113680D01*
X0028913Y0113062D01*
X0028913Y0111211D01*
X0028913Y0112445D02*
X0030148Y0113680D01*
X0030148Y0114894D02*
X0030148Y0117363D01*
X0030148Y0116128D02*
X0026444Y0116128D01*
X0027679Y0114894D01*
X0027679Y0118577D02*
X0027062Y0118577D01*
X0026444Y0119194D01*
X0026444Y0120429D01*
X0027062Y0121046D01*
X0029530Y0121046D01*
X0030148Y0120429D01*
X0030148Y0119194D01*
X0029530Y0118577D01*
X0028296Y0119194D02*
X0028296Y0121046D01*
X0028296Y0119194D02*
X0027679Y0118577D01*
X0016373Y0120858D02*
X0013904Y0120858D01*
X0015756Y0122710D01*
X0015756Y0119007D01*
X0012690Y0119624D02*
X0012073Y0119007D01*
X0010839Y0119007D01*
X0010221Y0119624D01*
X0009007Y0119624D02*
X0008390Y0119007D01*
X0007155Y0119007D01*
X0006538Y0119624D01*
X0006538Y0122093D01*
X0007155Y0122710D01*
X0008390Y0122710D01*
X0009007Y0122093D01*
X0010221Y0122093D02*
X0010839Y0122710D01*
X0012073Y0122710D01*
X0012690Y0122093D01*
X0012690Y0121475D01*
X0012073Y0120858D01*
X0012690Y0120241D01*
X0012690Y0119624D01*
X0012073Y0120858D02*
X0011456Y0120858D01*
X0011347Y0123878D02*
X0008878Y0123878D01*
X0011347Y0126346D01*
X0011347Y0126964D01*
X0010730Y0127581D01*
X0009495Y0127581D01*
X0008878Y0126964D01*
X0007664Y0126964D02*
X0007047Y0127581D01*
X0005812Y0127581D01*
X0005195Y0126964D01*
X0005195Y0124495D01*
X0005812Y0123878D01*
X0007047Y0123878D01*
X0007664Y0124495D01*
X0012561Y0124495D02*
X0012561Y0123878D01*
X0012561Y0124495D02*
X0015030Y0126964D01*
X0015030Y0127581D01*
X0012561Y0127581D01*
X0010472Y0112986D02*
X0011089Y0112369D01*
X0011089Y0111134D01*
X0010472Y0110517D01*
X0011089Y0109303D02*
X0011089Y0106834D01*
X0011089Y0108068D02*
X0007386Y0108068D01*
X0008621Y0106834D01*
X0008003Y0105620D02*
X0007386Y0105003D01*
X0007386Y0103768D01*
X0008003Y0103151D01*
X0010472Y0103151D01*
X0011089Y0103768D01*
X0011089Y0105003D01*
X0010472Y0105620D01*
X0011089Y0101930D02*
X0011089Y0100696D01*
X0011089Y0101313D02*
X0007386Y0101313D01*
X0007386Y0100696D02*
X0007386Y0101930D01*
X0008003Y0110517D02*
X0007386Y0111134D01*
X0007386Y0112369D01*
X0008003Y0112986D01*
X0008621Y0112986D01*
X0009238Y0112369D01*
X0009855Y0112986D01*
X0010472Y0112986D01*
X0009238Y0112369D02*
X0009238Y0111752D01*
X0117244Y0019087D02*
X0117244Y0016618D01*
X0117244Y0014786D02*
X0119096Y0012935D01*
X0119096Y0015403D01*
X0120330Y0016618D02*
X0120948Y0016618D01*
X0120330Y0016618D02*
X0117862Y0019087D01*
X0117244Y0019087D01*
X0117244Y0014786D02*
X0120948Y0014786D01*
X0120948Y0011720D02*
X0119713Y0010486D01*
X0119713Y0011103D02*
X0119713Y0009252D01*
X0120948Y0009252D02*
X0117244Y0009252D01*
X0117244Y0011103D01*
X0117862Y0011720D01*
X0119096Y0011720D01*
X0119713Y0011103D01*
X0124200Y0010830D02*
X0124200Y0012682D01*
X0124817Y0013299D01*
X0126051Y0013299D01*
X0126668Y0012682D01*
X0126668Y0010830D01*
X0127903Y0010830D02*
X0124200Y0010830D01*
X0126668Y0012065D02*
X0127903Y0013299D01*
X0126051Y0014514D02*
X0126051Y0016982D01*
X0126051Y0018197D02*
X0126051Y0020666D01*
X0124200Y0020048D02*
X0126051Y0018197D01*
X0124200Y0016365D02*
X0126051Y0014514D01*
X0124200Y0016365D02*
X0127903Y0016365D01*
X0127903Y0020048D02*
X0124200Y0020048D01*
D13*
X0024033Y0023436D02*
X0024033Y0024937D01*
X0024033Y0024186D02*
X0027786Y0024186D01*
X0028537Y0023436D01*
X0028537Y0022685D01*
X0027786Y0021934D01*
X0028537Y0026538D02*
X0024033Y0026538D01*
X0024033Y0028790D01*
X0024783Y0029541D01*
X0026285Y0029541D01*
X0027035Y0028790D01*
X0027035Y0026538D01*
X0027786Y0031142D02*
X0028537Y0031893D01*
X0028537Y0033394D01*
X0027786Y0034145D01*
X0027035Y0034145D01*
X0026285Y0033394D01*
X0026285Y0032643D01*
X0026285Y0033394D02*
X0025534Y0034145D01*
X0024783Y0034145D01*
X0024033Y0033394D01*
X0024033Y0031893D01*
X0024783Y0031142D01*
X0036320Y0033988D02*
X0037071Y0033237D01*
X0038572Y0033237D01*
X0039323Y0033988D01*
X0039323Y0034739D01*
X0038572Y0035489D01*
X0037071Y0035489D01*
X0036320Y0036240D01*
X0036320Y0036991D01*
X0037071Y0037741D01*
X0038572Y0037741D01*
X0039323Y0036991D01*
X0040924Y0037741D02*
X0040924Y0034739D01*
X0042425Y0033237D01*
X0043927Y0034739D01*
X0043927Y0037741D01*
X0045528Y0036991D02*
X0046279Y0037741D01*
X0047780Y0037741D01*
X0048530Y0036991D01*
X0048530Y0036240D01*
X0045528Y0033237D01*
X0048530Y0033237D01*
X0037821Y0019741D02*
X0037821Y0015237D01*
X0036320Y0015237D02*
X0039323Y0015237D01*
X0036320Y0018240D02*
X0037821Y0019741D01*
X0086320Y0033988D02*
X0087071Y0033237D01*
X0088572Y0033237D01*
X0089323Y0033988D01*
X0089323Y0034739D01*
X0088572Y0035489D01*
X0086320Y0035489D01*
X0086320Y0033988D01*
X0086320Y0035489D02*
X0087821Y0036991D01*
X0089323Y0037741D01*
X0020856Y0072197D02*
X0017854Y0072197D01*
X0019355Y0072197D02*
X0019355Y0076701D01*
X0017854Y0075200D01*
X0016253Y0075950D02*
X0016253Y0074449D01*
X0015502Y0073699D01*
X0013250Y0073699D01*
X0013250Y0072197D02*
X0013250Y0076701D01*
X0015502Y0076701D01*
X0016253Y0075950D01*
X0011649Y0076701D02*
X0010147Y0076701D01*
X0010898Y0076701D02*
X0010898Y0072948D01*
X0010147Y0072197D01*
X0009397Y0072197D01*
X0008646Y0072948D01*
X0094428Y0174843D02*
X0095179Y0174843D01*
X0095929Y0175594D01*
X0095929Y0179347D01*
X0095179Y0179347D02*
X0096680Y0179347D01*
X0098281Y0179347D02*
X0100533Y0179347D01*
X0101284Y0178596D01*
X0101284Y0177095D01*
X0100533Y0176344D01*
X0098281Y0176344D01*
X0098281Y0174843D02*
X0098281Y0179347D01*
X0102885Y0178596D02*
X0103636Y0179347D01*
X0105137Y0179347D01*
X0105888Y0178596D01*
X0105888Y0177845D01*
X0102885Y0174843D01*
X0105888Y0174843D01*
X0094428Y0174843D02*
X0093678Y0175594D01*
X0145102Y0160489D02*
X0145102Y0158237D01*
X0146603Y0158988D01*
X0147354Y0158988D01*
X0148105Y0158237D01*
X0148105Y0156736D01*
X0147354Y0155985D01*
X0145853Y0155985D01*
X0145102Y0156736D01*
X0145102Y0160489D02*
X0148105Y0160489D01*
X0178394Y0158539D02*
X0178394Y0157788D01*
X0179145Y0157037D01*
X0180646Y0157037D01*
X0181397Y0156287D01*
X0181397Y0155536D01*
X0180646Y0154785D01*
X0179145Y0154785D01*
X0178394Y0155536D01*
X0178394Y0158539D02*
X0179145Y0159289D01*
X0180646Y0159289D01*
X0181397Y0158539D01*
X0182998Y0159289D02*
X0182998Y0156287D01*
X0184499Y0154785D01*
X0186001Y0156287D01*
X0186001Y0159289D01*
X0187602Y0157788D02*
X0189103Y0159289D01*
X0189103Y0154785D01*
X0187602Y0154785D02*
X0190605Y0154785D01*
X0188105Y0173985D02*
X0185102Y0173985D01*
X0186603Y0173985D02*
X0186603Y0178489D01*
X0185102Y0176988D01*
X0183239Y0113379D02*
X0183989Y0112628D01*
X0183989Y0111127D01*
X0183239Y0110376D01*
X0181737Y0111877D02*
X0181737Y0112628D01*
X0182488Y0113379D01*
X0183239Y0113379D01*
X0181737Y0112628D02*
X0180987Y0113379D01*
X0180236Y0113379D01*
X0179486Y0112628D01*
X0179486Y0111127D01*
X0180236Y0110376D01*
X0179486Y0108775D02*
X0179486Y0107273D01*
X0179486Y0108024D02*
X0183239Y0108024D01*
X0183989Y0107273D01*
X0183989Y0106523D01*
X0183239Y0105772D01*
X0183239Y0104171D02*
X0183989Y0103420D01*
X0183989Y0101919D01*
X0183239Y0101168D01*
X0181737Y0101919D02*
X0181737Y0103420D01*
X0182488Y0104171D01*
X0183239Y0104171D01*
X0181737Y0101919D02*
X0180987Y0101168D01*
X0180236Y0101168D01*
X0179486Y0101919D01*
X0179486Y0103420D01*
X0180236Y0104171D01*
D14*
X0174696Y0121117D02*
X0174696Y0135717D01*
X0156696Y0135717D01*
X0156696Y0121117D01*
X0174696Y0121117D01*
X0129027Y0121117D02*
X0129027Y0135717D01*
X0111027Y0135717D01*
X0111027Y0121117D01*
X0129027Y0121117D01*
X0096452Y0121061D02*
X0096452Y0135661D01*
X0078452Y0135661D01*
X0078452Y0121061D01*
X0096452Y0121061D01*
X0116539Y0056189D02*
X0116539Y0041589D01*
X0134539Y0041589D01*
X0134539Y0056189D01*
X0116539Y0056189D01*
D15*
X0055287Y0109983D02*
X0055287Y0135968D01*
X0037570Y0135968D01*
X0037570Y0109983D01*
X0055287Y0109983D01*
D16*
X0040129Y0133212D03*
M02*
