G75*
%MOIN*%
%OFA0B0*%
%FSLAX25Y25*%
%IPPOS*%
%LPD*%
%AMOC8*
5,1,8,0,0,1.08239X$1,22.5*
%
%ADD10C,0.06000*%
%ADD11C,0.03150*%
%ADD12C,0.02953*%
%ADD13C,0.02000*%
%ADD14C,0.03937*%
%ADD15C,0.02400*%
%ADD16C,0.10000*%
%ADD17C,0.04000*%
%ADD18C,0.03543*%
%ADD19C,0.04724*%
%ADD20C,0.01000*%
%ADD21C,0.03200*%
%ADD22C,0.01600*%
D10*
X0038570Y0026487D03*
X0048570Y0026487D03*
X0058570Y0026487D03*
X0068570Y0026487D03*
X0078570Y0026487D03*
X0088570Y0026487D03*
X0025814Y0039283D03*
X0025814Y0049283D03*
X0025814Y0059283D03*
X0015814Y0059283D03*
X0015814Y0049283D03*
X0015814Y0039283D03*
X0015696Y0082747D03*
X0098728Y0167393D03*
X0108728Y0167393D03*
X0118728Y0167393D03*
X0128728Y0167393D03*
X0146956Y0167235D03*
X0156956Y0167235D03*
X0166956Y0167235D03*
X0176956Y0167235D03*
X0186956Y0167235D03*
D11*
X0042649Y0123480D03*
D12*
X0049948Y0125661D03*
X0049506Y0130649D03*
X0062153Y0126054D03*
X0062546Y0117787D03*
X0049161Y0112275D03*
X0066090Y0102826D03*
X0077625Y0103389D03*
X0077507Y0109913D03*
X0089146Y0105819D03*
X0092468Y0111487D03*
X0090361Y0126448D03*
X0094106Y0132449D03*
X0083413Y0133535D03*
X0079082Y0126448D03*
X0067271Y0141409D03*
X0072697Y0143707D03*
X0079476Y0152039D03*
X0090499Y0143771D03*
X0104672Y0148495D03*
X0115302Y0144165D03*
X0120027Y0144165D03*
X0132231Y0150857D03*
X0148201Y0145976D03*
X0154672Y0149283D03*
X0171995Y0157944D03*
X0189318Y0132354D03*
X0173176Y0111881D03*
X0170027Y0108298D03*
X0166483Y0110700D03*
X0163196Y0108200D03*
X0169616Y0104373D03*
X0168280Y0097945D03*
X0160012Y0093220D03*
X0157687Y0081156D03*
X0155460Y0072905D03*
X0148767Y0076448D03*
X0145839Y0084559D03*
X0124751Y0097314D03*
X0118058Y0092196D03*
X0112546Y0091409D03*
X0099554Y0090228D03*
X0092925Y0082118D03*
X0074972Y0092827D03*
X0065302Y0090228D03*
X0057822Y0089834D03*
X0053098Y0082747D03*
X0066483Y0083141D03*
X0059397Y0063850D03*
X0058106Y0050581D03*
X0070913Y0050000D03*
X0073791Y0047157D03*
X0080878Y0041646D03*
X0091287Y0036291D03*
X0101523Y0039834D03*
X0112153Y0038653D03*
X0123176Y0042590D03*
X0124357Y0050857D03*
X0112153Y0060700D03*
X0112056Y0068025D03*
X0104476Y0057747D03*
X0089712Y0058731D03*
X0123176Y0031172D03*
X0128122Y0032197D03*
X0122217Y0015268D03*
X0147020Y0025898D03*
X0153713Y0025110D03*
X0172783Y0027235D03*
X0177901Y0027235D03*
X0189146Y0020780D03*
X0171626Y0015661D03*
X0190327Y0040490D03*
X0167492Y0049562D03*
X0157035Y0050464D03*
X0140392Y0059498D03*
X0137182Y0061719D03*
X0137235Y0055638D03*
X0125145Y0066212D03*
X0172389Y0072905D03*
X0177507Y0072905D03*
X0182306Y0078381D03*
X0190499Y0068759D03*
X0152310Y0118968D03*
X0161523Y0124873D03*
X0134421Y0131803D03*
X0133052Y0124204D03*
X0125224Y0129125D03*
X0127527Y0112649D03*
X0121208Y0112669D03*
X0060972Y0152432D03*
X0013334Y0124873D03*
X0012940Y0120149D03*
X0010184Y0116212D03*
X0016483Y0092196D03*
X0033806Y0091409D03*
X0039205Y0037078D03*
D13*
X0007468Y0009968D02*
X0007468Y0114011D01*
X0008215Y0113265D01*
X0009493Y0112735D01*
X0010876Y0112735D01*
X0012153Y0113265D01*
X0013131Y0114243D01*
X0013661Y0115520D01*
X0013661Y0116684D01*
X0014909Y0117202D01*
X0015887Y0118180D01*
X0016417Y0119457D01*
X0016417Y0120840D01*
X0015887Y0122118D01*
X0015691Y0122314D01*
X0016281Y0122904D01*
X0016810Y0124182D01*
X0016810Y0125565D01*
X0016281Y0126842D01*
X0015303Y0127820D01*
X0014025Y0128350D01*
X0012642Y0128350D01*
X0011365Y0127820D01*
X0010387Y0126842D01*
X0009857Y0125565D01*
X0009857Y0124182D01*
X0010387Y0122904D01*
X0010583Y0122708D01*
X0009993Y0122118D01*
X0009464Y0120840D01*
X0009464Y0119676D01*
X0008215Y0119159D01*
X0007468Y0118412D01*
X0007468Y0152697D01*
X0049500Y0152343D01*
X0049157Y0134125D01*
X0048815Y0134125D01*
X0047537Y0133596D01*
X0046559Y0132618D01*
X0046030Y0131340D01*
X0046030Y0129957D01*
X0046559Y0128680D01*
X0047218Y0128021D01*
X0046896Y0127700D01*
X0046348Y0126377D01*
X0046348Y0124945D01*
X0046896Y0123621D01*
X0047909Y0122609D01*
X0049232Y0122061D01*
X0051224Y0122061D01*
X0051246Y0122052D01*
X0051939Y0122061D01*
X0052633Y0122061D01*
X0052654Y0122070D01*
X0052678Y0122070D01*
X0053315Y0122343D01*
X0053956Y0122609D01*
X0053973Y0122625D01*
X0053994Y0122635D01*
X0054478Y0123131D01*
X0054968Y0123621D01*
X0054978Y0123643D01*
X0059174Y0127947D01*
X0058676Y0126746D01*
X0058676Y0125363D01*
X0059206Y0124085D01*
X0060184Y0123107D01*
X0061461Y0122578D01*
X0062844Y0122578D01*
X0064106Y0123101D01*
X0064106Y0120903D01*
X0063238Y0121263D01*
X0061855Y0121263D01*
X0060577Y0120734D01*
X0059599Y0119756D01*
X0059070Y0118478D01*
X0059070Y0117095D01*
X0059599Y0115817D01*
X0060577Y0114839D01*
X0061855Y0114310D01*
X0063223Y0114310D01*
X0062451Y0102343D01*
X0062913Y0100987D01*
X0063858Y0099912D01*
X0064091Y0099797D01*
X0064106Y0099760D01*
X0064106Y0093495D01*
X0063333Y0093175D01*
X0062355Y0092197D01*
X0061826Y0090919D01*
X0061826Y0089536D01*
X0062355Y0088258D01*
X0063333Y0087280D01*
X0064611Y0086751D01*
X0065994Y0086751D01*
X0067272Y0087280D01*
X0068172Y0088181D01*
X0068287Y0088181D01*
X0067931Y0051886D01*
X0067436Y0050691D01*
X0067436Y0049309D01*
X0067965Y0048031D01*
X0068943Y0047053D01*
X0070221Y0046524D01*
X0070315Y0046524D01*
X0070315Y0046466D01*
X0070844Y0045188D01*
X0071822Y0044210D01*
X0073100Y0043681D01*
X0074483Y0043681D01*
X0075761Y0044210D01*
X0076738Y0045188D01*
X0077268Y0046466D01*
X0077268Y0047849D01*
X0076738Y0049127D01*
X0075761Y0050105D01*
X0074483Y0050634D01*
X0074389Y0050634D01*
X0074389Y0050691D01*
X0073930Y0051799D01*
X0074287Y0088181D01*
X0079106Y0088181D01*
X0079106Y0068181D01*
X0099106Y0068181D01*
X0099279Y0042506D01*
X0098576Y0041803D01*
X0098046Y0040525D01*
X0098046Y0039142D01*
X0098576Y0037865D01*
X0099315Y0037126D01*
X0099497Y0009968D01*
X0007468Y0009968D01*
X0007468Y0010997D02*
X0099490Y0010997D01*
X0099477Y0012996D02*
X0007468Y0012996D01*
X0007468Y0014994D02*
X0012303Y0014994D01*
X0012859Y0014438D02*
X0010363Y0016934D01*
X0009012Y0020195D01*
X0009012Y0023726D01*
X0010363Y0026987D01*
X0012859Y0029484D01*
X0016121Y0030835D01*
X0019651Y0030835D01*
X0022913Y0029484D01*
X0025409Y0026987D01*
X0026760Y0023726D01*
X0026760Y0020195D01*
X0025409Y0016934D01*
X0022913Y0014438D01*
X0019651Y0013087D01*
X0016121Y0013087D01*
X0012859Y0014438D01*
X0010338Y0016993D02*
X0007468Y0016993D01*
X0007468Y0018991D02*
X0009511Y0018991D01*
X0009012Y0020990D02*
X0007468Y0020990D01*
X0007468Y0022988D02*
X0009012Y0022988D01*
X0009534Y0024987D02*
X0007468Y0024987D01*
X0007468Y0026985D02*
X0010362Y0026985D01*
X0012359Y0028984D02*
X0007468Y0028984D01*
X0007468Y0030982D02*
X0036356Y0030982D01*
X0035738Y0030726D02*
X0037576Y0031487D01*
X0039565Y0031487D01*
X0041402Y0030726D01*
X0042809Y0029320D01*
X0043570Y0027482D01*
X0043570Y0025493D01*
X0042809Y0023655D01*
X0041402Y0022249D01*
X0039565Y0021487D01*
X0037576Y0021487D01*
X0035738Y0022249D01*
X0034331Y0023655D01*
X0033570Y0025493D01*
X0033570Y0027482D01*
X0034331Y0029320D01*
X0035738Y0030726D01*
X0034192Y0028984D02*
X0023413Y0028984D01*
X0025410Y0026985D02*
X0033570Y0026985D01*
X0033780Y0024987D02*
X0026238Y0024987D01*
X0026760Y0022988D02*
X0034998Y0022988D01*
X0042142Y0022988D02*
X0044998Y0022988D01*
X0044331Y0023655D02*
X0043570Y0025493D01*
X0043570Y0027482D01*
X0044331Y0029320D01*
X0045738Y0030726D01*
X0047576Y0031487D01*
X0049565Y0031487D01*
X0051402Y0030726D01*
X0052809Y0029320D01*
X0053570Y0027482D01*
X0053570Y0025493D01*
X0052809Y0023655D01*
X0051402Y0022249D01*
X0049565Y0021487D01*
X0047576Y0021487D01*
X0045738Y0022249D01*
X0044331Y0023655D01*
X0043780Y0024987D02*
X0043360Y0024987D01*
X0043570Y0026985D02*
X0043570Y0026985D01*
X0042948Y0028984D02*
X0044192Y0028984D01*
X0046356Y0030982D02*
X0040784Y0030982D01*
X0039896Y0033602D02*
X0041174Y0034131D01*
X0042152Y0035109D01*
X0042681Y0036386D01*
X0042681Y0037769D01*
X0042152Y0039047D01*
X0041174Y0040025D01*
X0039896Y0040554D01*
X0038513Y0040554D01*
X0037236Y0040025D01*
X0036258Y0039047D01*
X0035728Y0037769D01*
X0035728Y0036386D01*
X0036258Y0035109D01*
X0037236Y0034131D01*
X0038513Y0033602D01*
X0039896Y0033602D01*
X0042022Y0034979D02*
X0088067Y0034979D01*
X0087810Y0035599D02*
X0088339Y0034321D01*
X0089317Y0033343D01*
X0090595Y0032814D01*
X0091978Y0032814D01*
X0093256Y0033343D01*
X0094234Y0034321D01*
X0094763Y0035599D01*
X0094763Y0036982D01*
X0094234Y0038260D01*
X0093256Y0039238D01*
X0091978Y0039767D01*
X0090595Y0039767D01*
X0089317Y0039238D01*
X0088339Y0038260D01*
X0087810Y0036982D01*
X0087810Y0035599D01*
X0087810Y0036978D02*
X0042681Y0036978D01*
X0042181Y0038976D02*
X0078631Y0038976D01*
X0078909Y0038699D02*
X0080186Y0038169D01*
X0081569Y0038169D01*
X0082847Y0038699D01*
X0083825Y0039676D01*
X0084354Y0040954D01*
X0084354Y0042337D01*
X0083825Y0043615D01*
X0082847Y0044593D01*
X0081569Y0045122D01*
X0080186Y0045122D01*
X0078909Y0044593D01*
X0077931Y0043615D01*
X0077402Y0042337D01*
X0077402Y0040954D01*
X0077931Y0039676D01*
X0078909Y0038699D01*
X0077402Y0040975D02*
X0030525Y0040975D01*
X0030814Y0040277D02*
X0030053Y0042115D01*
X0028646Y0043521D01*
X0026809Y0044283D01*
X0024820Y0044283D01*
X0022982Y0043521D01*
X0021575Y0042115D01*
X0020814Y0040277D01*
X0020814Y0038288D01*
X0020053Y0036450D01*
X0018646Y0035044D01*
X0016809Y0034283D01*
X0014820Y0034283D01*
X0012982Y0035044D01*
X0011575Y0036450D01*
X0010814Y0038288D01*
X0010814Y0040277D01*
X0011575Y0042115D01*
X0012982Y0043521D01*
X0014820Y0044283D01*
X0016809Y0044283D01*
X0018646Y0043521D01*
X0020053Y0042115D01*
X0020814Y0040277D01*
X0020814Y0038288D01*
X0021575Y0036450D01*
X0022982Y0035044D01*
X0024820Y0034283D01*
X0026809Y0034283D01*
X0028646Y0035044D01*
X0030053Y0036450D01*
X0030814Y0038288D01*
X0030814Y0040277D01*
X0030814Y0038976D02*
X0036228Y0038976D01*
X0035728Y0036978D02*
X0030271Y0036978D01*
X0028490Y0034979D02*
X0036387Y0034979D01*
X0029195Y0042973D02*
X0077665Y0042973D01*
X0076522Y0044972D02*
X0079824Y0044972D01*
X0081932Y0044972D02*
X0099262Y0044972D01*
X0099249Y0046970D02*
X0077268Y0046970D01*
X0076804Y0048969D02*
X0099235Y0048969D01*
X0099222Y0050967D02*
X0074275Y0050967D01*
X0073942Y0052966D02*
X0099208Y0052966D01*
X0099195Y0054964D02*
X0073961Y0054964D01*
X0073981Y0056963D02*
X0086682Y0056963D01*
X0086765Y0056762D02*
X0086235Y0058040D01*
X0086235Y0059423D01*
X0086765Y0060701D01*
X0087743Y0061679D01*
X0089020Y0062208D01*
X0090403Y0062208D01*
X0091681Y0061679D01*
X0092659Y0060701D01*
X0093188Y0059423D01*
X0093188Y0058040D01*
X0092659Y0056762D01*
X0091681Y0055784D01*
X0090403Y0055255D01*
X0089020Y0055255D01*
X0087743Y0055784D01*
X0086765Y0056762D01*
X0086235Y0058961D02*
X0074001Y0058961D01*
X0074020Y0060960D02*
X0087024Y0060960D01*
X0092400Y0060960D02*
X0099155Y0060960D01*
X0099141Y0062958D02*
X0074040Y0062958D01*
X0074059Y0064957D02*
X0099128Y0064957D01*
X0099115Y0066955D02*
X0074079Y0066955D01*
X0074099Y0068954D02*
X0079106Y0068954D01*
X0079106Y0070952D02*
X0074118Y0070952D01*
X0074138Y0072951D02*
X0079106Y0072951D01*
X0079106Y0074949D02*
X0074157Y0074949D01*
X0074177Y0076948D02*
X0079106Y0076948D01*
X0079106Y0078946D02*
X0074197Y0078946D01*
X0074216Y0080945D02*
X0079106Y0080945D01*
X0079106Y0082943D02*
X0074236Y0082943D01*
X0074256Y0084942D02*
X0079106Y0084942D01*
X0079106Y0086940D02*
X0074275Y0086940D01*
X0071306Y0090129D02*
X0066090Y0102826D01*
X0069106Y0102929D02*
X0074148Y0102929D01*
X0074148Y0102698D02*
X0074666Y0101449D01*
X0069106Y0101449D01*
X0069106Y0136449D01*
X0054106Y0136449D01*
X0054106Y0163780D01*
X0070498Y0163780D01*
X0079274Y0155003D01*
X0081243Y0153034D01*
X0083816Y0151969D01*
X0092496Y0151969D01*
X0093648Y0151491D01*
X0102821Y0151491D01*
X0102703Y0151442D01*
X0101725Y0150464D01*
X0101196Y0149187D01*
X0101196Y0147804D01*
X0101725Y0146526D01*
X0102703Y0145548D01*
X0103981Y0145019D01*
X0105364Y0145019D01*
X0106642Y0145548D01*
X0107620Y0146526D01*
X0108149Y0147804D01*
X0108149Y0149187D01*
X0107620Y0150464D01*
X0106642Y0151442D01*
X0106523Y0151491D01*
X0113807Y0151491D01*
X0116380Y0152557D01*
X0118349Y0154526D01*
X0118349Y0154526D01*
X0121594Y0157771D01*
X0123563Y0159741D01*
X0124629Y0162313D01*
X0124629Y0163395D01*
X0124662Y0163428D01*
X0124943Y0164106D01*
X0125895Y0163154D01*
X0127733Y0162393D01*
X0129722Y0162393D01*
X0131560Y0163154D01*
X0132966Y0164561D01*
X0133728Y0166398D01*
X0133728Y0168387D01*
X0132966Y0170225D01*
X0131560Y0171632D01*
X0129722Y0172393D01*
X0127733Y0172393D01*
X0125895Y0171632D01*
X0124943Y0170679D01*
X0124662Y0171358D01*
X0122693Y0173327D01*
X0120120Y0174393D01*
X0117335Y0174393D01*
X0114762Y0173327D01*
X0112313Y0170878D01*
X0111560Y0171632D01*
X0109722Y0172393D01*
X0107733Y0172393D01*
X0105895Y0171632D01*
X0104489Y0170225D01*
X0103728Y0168387D01*
X0102966Y0170225D01*
X0101560Y0171632D01*
X0099722Y0172393D01*
X0097733Y0172393D01*
X0095895Y0171632D01*
X0094489Y0170225D01*
X0093728Y0168387D01*
X0093728Y0166398D01*
X0093906Y0165968D01*
X0088108Y0165968D01*
X0077363Y0176714D01*
X0076615Y0177024D01*
X0195193Y0177024D01*
X0195193Y0009968D01*
X0104456Y0009968D01*
X0104303Y0037697D01*
X0104470Y0037865D01*
X0104999Y0039142D01*
X0104999Y0039284D01*
X0105639Y0039019D01*
X0107374Y0039019D01*
X0108977Y0039683D01*
X0110204Y0040910D01*
X0110868Y0042513D01*
X0110868Y0044249D01*
X0110204Y0045852D01*
X0108977Y0047079D01*
X0107374Y0047743D01*
X0105639Y0047743D01*
X0104250Y0047168D01*
X0104237Y0049600D01*
X0105639Y0049019D01*
X0107374Y0049019D01*
X0108977Y0049683D01*
X0110204Y0050910D01*
X0110868Y0052513D01*
X0110868Y0053922D01*
X0122672Y0053922D01*
X0122388Y0053805D01*
X0121410Y0052827D01*
X0120881Y0051549D01*
X0120881Y0050166D01*
X0121410Y0048888D01*
X0122388Y0047910D01*
X0123666Y0047381D01*
X0125049Y0047381D01*
X0126327Y0047910D01*
X0127305Y0048888D01*
X0127834Y0050166D01*
X0127834Y0051549D01*
X0127305Y0052827D01*
X0126327Y0053805D01*
X0126043Y0053922D01*
X0133221Y0053922D01*
X0134042Y0054262D01*
X0134288Y0053669D01*
X0135266Y0052691D01*
X0136544Y0052161D01*
X0137927Y0052161D01*
X0139205Y0052691D01*
X0140183Y0053669D01*
X0140712Y0054946D01*
X0140712Y0056329D01*
X0140183Y0057607D01*
X0139205Y0058585D01*
X0138952Y0058690D01*
X0139151Y0058772D01*
X0140129Y0059750D01*
X0140659Y0061028D01*
X0140659Y0062411D01*
X0140129Y0063689D01*
X0139151Y0064667D01*
X0137874Y0065196D01*
X0136491Y0065196D01*
X0135213Y0064667D01*
X0134235Y0063689D01*
X0133959Y0063021D01*
X0131259Y0060322D01*
X0111996Y0060322D01*
X0111858Y0060460D01*
X0110682Y0060947D01*
X0105834Y0060947D01*
X0105167Y0061224D01*
X0104172Y0061224D01*
X0104106Y0073181D01*
X0084106Y0073181D01*
X0084106Y0101449D01*
X0080584Y0101449D01*
X0081101Y0102698D01*
X0081101Y0104081D01*
X0080572Y0105358D01*
X0079594Y0106336D01*
X0078775Y0106675D01*
X0079476Y0106965D01*
X0080454Y0107943D01*
X0080983Y0109221D01*
X0080983Y0110604D01*
X0080454Y0111882D01*
X0079476Y0112860D01*
X0078199Y0113389D01*
X0076816Y0113389D01*
X0075538Y0112860D01*
X0074560Y0111882D01*
X0074031Y0110604D01*
X0074031Y0109221D01*
X0074560Y0107943D01*
X0075538Y0106965D01*
X0076356Y0106626D01*
X0075656Y0106336D01*
X0074678Y0105358D01*
X0074148Y0104081D01*
X0074148Y0102698D01*
X0074499Y0104927D02*
X0069106Y0104927D01*
X0069106Y0106926D02*
X0075634Y0106926D01*
X0074154Y0108924D02*
X0069106Y0108924D01*
X0069106Y0110923D02*
X0074163Y0110923D01*
X0075686Y0112921D02*
X0069106Y0112921D01*
X0069106Y0114920D02*
X0091670Y0114920D01*
X0091776Y0114964D02*
X0090498Y0114435D01*
X0089521Y0113457D01*
X0088991Y0112179D01*
X0088991Y0110796D01*
X0089521Y0109518D01*
X0090498Y0108540D01*
X0091776Y0108011D01*
X0093159Y0108011D01*
X0094437Y0108540D01*
X0095415Y0109518D01*
X0095944Y0110796D01*
X0095944Y0112179D01*
X0095415Y0113457D01*
X0094437Y0114435D01*
X0093159Y0114964D01*
X0091776Y0114964D01*
X0093266Y0114920D02*
X0118543Y0114920D01*
X0118261Y0114638D02*
X0119239Y0115616D01*
X0120516Y0116145D01*
X0121899Y0116145D01*
X0123177Y0115616D01*
X0124155Y0114638D01*
X0124371Y0114115D01*
X0124580Y0114618D01*
X0125558Y0115596D01*
X0126835Y0116125D01*
X0128218Y0116125D01*
X0129496Y0115596D01*
X0130474Y0114618D01*
X0131003Y0113340D01*
X0131003Y0111957D01*
X0130474Y0110680D01*
X0129496Y0109702D01*
X0128218Y0109172D01*
X0126835Y0109172D01*
X0125558Y0109702D01*
X0124580Y0110680D01*
X0124363Y0111202D01*
X0124155Y0110699D01*
X0123177Y0109721D01*
X0121899Y0109192D01*
X0120516Y0109192D01*
X0119239Y0109721D01*
X0118261Y0110699D01*
X0117731Y0111977D01*
X0117731Y0113360D01*
X0118261Y0114638D01*
X0117731Y0112921D02*
X0095637Y0112921D01*
X0095944Y0110923D02*
X0118168Y0110923D01*
X0124247Y0110923D02*
X0124479Y0110923D01*
X0124881Y0114920D02*
X0123873Y0114920D01*
X0130172Y0114920D02*
X0171428Y0114920D01*
X0171207Y0114828D02*
X0172485Y0115357D01*
X0173868Y0115357D01*
X0175146Y0114828D01*
X0176123Y0113850D01*
X0176653Y0112573D01*
X0176653Y0111190D01*
X0176123Y0109912D01*
X0175146Y0108934D01*
X0173868Y0108405D01*
X0173503Y0108405D01*
X0173503Y0107607D01*
X0172974Y0106329D01*
X0172687Y0106042D01*
X0173092Y0105064D01*
X0173092Y0103681D01*
X0172563Y0102404D01*
X0171585Y0101426D01*
X0170307Y0100896D01*
X0168924Y0100896D01*
X0167646Y0101426D01*
X0166668Y0102404D01*
X0166139Y0103681D01*
X0166139Y0105064D01*
X0166668Y0106342D01*
X0166955Y0106629D01*
X0166709Y0107224D01*
X0166554Y0107224D01*
X0166143Y0106231D01*
X0165165Y0105253D01*
X0163888Y0104724D01*
X0162505Y0104724D01*
X0161227Y0105253D01*
X0160249Y0106231D01*
X0159720Y0107509D01*
X0159720Y0108891D01*
X0160249Y0110169D01*
X0161227Y0111147D01*
X0162505Y0111676D01*
X0163125Y0111676D01*
X0163536Y0112669D01*
X0164514Y0113647D01*
X0165792Y0114176D01*
X0167175Y0114176D01*
X0168453Y0113647D01*
X0169431Y0112669D01*
X0169700Y0112019D01*
X0169700Y0112573D01*
X0170229Y0113850D01*
X0171207Y0114828D01*
X0169844Y0112921D02*
X0169179Y0112921D01*
X0163788Y0112921D02*
X0131003Y0112921D01*
X0130575Y0110923D02*
X0161002Y0110923D01*
X0159733Y0108924D02*
X0094821Y0108924D01*
X0090115Y0108924D02*
X0080860Y0108924D01*
X0080852Y0110923D02*
X0088991Y0110923D01*
X0089299Y0112921D02*
X0079328Y0112921D01*
X0079380Y0106926D02*
X0159961Y0106926D01*
X0162013Y0104927D02*
X0080750Y0104927D01*
X0081101Y0102929D02*
X0166451Y0102929D01*
X0166139Y0104927D02*
X0164379Y0104927D01*
X0166431Y0106926D02*
X0166833Y0106926D01*
X0168843Y0100930D02*
X0084106Y0100930D01*
X0084106Y0098932D02*
X0121658Y0098932D01*
X0121804Y0099283D02*
X0121275Y0098006D01*
X0121275Y0096623D01*
X0121804Y0095345D01*
X0122782Y0094367D01*
X0124060Y0093838D01*
X0125443Y0093838D01*
X0126720Y0094367D01*
X0127698Y0095345D01*
X0128228Y0096623D01*
X0128228Y0098006D01*
X0127698Y0099283D01*
X0126720Y0100261D01*
X0125443Y0100791D01*
X0124060Y0100791D01*
X0122782Y0100261D01*
X0121804Y0099283D01*
X0121275Y0096933D02*
X0084106Y0096933D01*
X0084106Y0094934D02*
X0122215Y0094934D01*
X0127288Y0094934D02*
X0156959Y0094934D01*
X0157065Y0095190D02*
X0156535Y0093912D01*
X0156535Y0092529D01*
X0157065Y0091251D01*
X0158043Y0090273D01*
X0159320Y0089744D01*
X0160703Y0089744D01*
X0161981Y0090273D01*
X0162944Y0091236D01*
X0162944Y0089513D01*
X0163608Y0087910D01*
X0164835Y0086683D01*
X0166047Y0086181D01*
X0164835Y0085679D01*
X0163608Y0084452D01*
X0162944Y0082849D01*
X0162944Y0081113D01*
X0163608Y0079510D01*
X0164835Y0078283D01*
X0166439Y0077619D01*
X0168174Y0077619D01*
X0169777Y0078283D01*
X0171004Y0079510D01*
X0171668Y0081113D01*
X0171668Y0082849D01*
X0171004Y0084452D01*
X0169777Y0085679D01*
X0168566Y0086181D01*
X0169777Y0086683D01*
X0171004Y0087910D01*
X0171668Y0089513D01*
X0171668Y0091249D01*
X0171004Y0092852D01*
X0169777Y0094079D01*
X0168174Y0094743D01*
X0166439Y0094743D01*
X0164835Y0094079D01*
X0163608Y0092852D01*
X0163488Y0092562D01*
X0163488Y0093912D01*
X0162959Y0095190D01*
X0161981Y0096168D01*
X0160703Y0096697D01*
X0159320Y0096697D01*
X0158043Y0096168D01*
X0157065Y0095190D01*
X0156535Y0092936D02*
X0115677Y0092936D01*
X0115494Y0093378D02*
X0116023Y0092100D01*
X0116023Y0090717D01*
X0115494Y0089439D01*
X0114516Y0088462D01*
X0113238Y0087932D01*
X0111855Y0087932D01*
X0110577Y0088462D01*
X0109599Y0089439D01*
X0109070Y0090717D01*
X0109070Y0092100D01*
X0109599Y0093378D01*
X0110577Y0094356D01*
X0111855Y0094885D01*
X0113238Y0094885D01*
X0114516Y0094356D01*
X0115494Y0093378D01*
X0116023Y0090937D02*
X0157378Y0090937D01*
X0162645Y0090937D02*
X0162944Y0090937D01*
X0163182Y0088939D02*
X0114993Y0088939D01*
X0110100Y0088939D02*
X0102783Y0088939D01*
X0103031Y0089536D02*
X0102501Y0088258D01*
X0101524Y0087280D01*
X0100246Y0086751D01*
X0098863Y0086751D01*
X0097585Y0087280D01*
X0096607Y0088258D01*
X0096078Y0089536D01*
X0096078Y0090919D01*
X0096607Y0092197D01*
X0097585Y0093175D01*
X0098863Y0093704D01*
X0100246Y0093704D01*
X0101524Y0093175D01*
X0102501Y0092197D01*
X0103031Y0090919D01*
X0103031Y0089536D01*
X0103023Y0090937D02*
X0109070Y0090937D01*
X0109416Y0092936D02*
X0101762Y0092936D01*
X0097346Y0092936D02*
X0084106Y0092936D01*
X0084106Y0090937D02*
X0096086Y0090937D01*
X0096325Y0088939D02*
X0084106Y0088939D01*
X0084106Y0086940D02*
X0098406Y0086940D01*
X0100703Y0086940D02*
X0143304Y0086940D01*
X0142891Y0086528D02*
X0142362Y0085251D01*
X0142362Y0083868D01*
X0142891Y0082590D01*
X0143869Y0081612D01*
X0145147Y0081083D01*
X0146530Y0081083D01*
X0147808Y0081612D01*
X0148786Y0082590D01*
X0149315Y0083868D01*
X0149315Y0085251D01*
X0148786Y0086528D01*
X0147808Y0087506D01*
X0146530Y0088035D01*
X0145147Y0088035D01*
X0143869Y0087506D01*
X0142891Y0086528D01*
X0142362Y0084942D02*
X0084106Y0084942D01*
X0084106Y0082943D02*
X0142745Y0082943D01*
X0146349Y0078946D02*
X0084106Y0078946D01*
X0084106Y0076948D02*
X0145291Y0076948D01*
X0145291Y0077140D02*
X0145291Y0075757D01*
X0145820Y0074479D01*
X0146798Y0073501D01*
X0148075Y0072972D01*
X0149458Y0072972D01*
X0150736Y0073501D01*
X0151714Y0074479D01*
X0152243Y0075757D01*
X0152243Y0077140D01*
X0151714Y0078417D01*
X0150736Y0079395D01*
X0149458Y0079924D01*
X0148075Y0079924D01*
X0146798Y0079395D01*
X0145820Y0078417D01*
X0145291Y0077140D01*
X0145625Y0074949D02*
X0084106Y0074949D01*
X0084106Y0080945D02*
X0154211Y0080945D01*
X0154211Y0080464D02*
X0154740Y0079187D01*
X0155718Y0078209D01*
X0156996Y0077680D01*
X0158379Y0077680D01*
X0159657Y0078209D01*
X0160635Y0079187D01*
X0161164Y0080464D01*
X0161164Y0081847D01*
X0160635Y0083125D01*
X0159657Y0084103D01*
X0158379Y0084632D01*
X0156996Y0084632D01*
X0155718Y0084103D01*
X0154740Y0083125D01*
X0154211Y0081847D01*
X0154211Y0080464D01*
X0154981Y0078946D02*
X0151185Y0078946D01*
X0152243Y0076948D02*
X0179137Y0076948D01*
X0179359Y0076412D02*
X0178830Y0077690D01*
X0178830Y0079073D01*
X0179359Y0080350D01*
X0180337Y0081328D01*
X0181615Y0081857D01*
X0182998Y0081857D01*
X0184276Y0081328D01*
X0185253Y0080350D01*
X0185783Y0079073D01*
X0185783Y0077690D01*
X0185253Y0076412D01*
X0184276Y0075434D01*
X0182998Y0074905D01*
X0181615Y0074905D01*
X0180337Y0075434D01*
X0179359Y0076412D01*
X0181507Y0074949D02*
X0175261Y0074949D01*
X0175336Y0074874D02*
X0174358Y0075852D01*
X0173080Y0076381D01*
X0171697Y0076381D01*
X0170420Y0075852D01*
X0169442Y0074874D01*
X0168913Y0073596D01*
X0168913Y0072213D01*
X0169442Y0070936D01*
X0170420Y0069958D01*
X0171697Y0069428D01*
X0173080Y0069428D01*
X0174358Y0069958D01*
X0175336Y0070936D01*
X0175865Y0072213D01*
X0175865Y0073596D01*
X0175336Y0074874D01*
X0175865Y0072951D02*
X0195193Y0072951D01*
X0195193Y0074949D02*
X0183106Y0074949D01*
X0185475Y0076948D02*
X0195193Y0076948D01*
X0195193Y0078946D02*
X0185783Y0078946D01*
X0184659Y0080945D02*
X0195193Y0080945D01*
X0195193Y0082943D02*
X0171629Y0082943D01*
X0171599Y0080945D02*
X0179954Y0080945D01*
X0178830Y0078946D02*
X0170441Y0078946D01*
X0169517Y0074949D02*
X0151909Y0074949D01*
X0155460Y0072905D02*
X0157263Y0075889D01*
X0174182Y0076676D01*
X0177166Y0072905D01*
X0177507Y0072905D01*
X0178991Y0071420D01*
X0178991Y0070738D01*
X0180970Y0068759D01*
X0190499Y0068759D01*
X0186562Y0064822D01*
X0186562Y0049676D01*
X0182264Y0045378D01*
X0168058Y0031172D01*
X0153491Y0030385D01*
X0153021Y0028587D02*
X0151743Y0028057D01*
X0150765Y0027079D01*
X0150236Y0025802D01*
X0150236Y0024419D01*
X0150765Y0023141D01*
X0151743Y0022163D01*
X0153021Y0021634D01*
X0154404Y0021634D01*
X0155682Y0022163D01*
X0156660Y0023141D01*
X0157189Y0024419D01*
X0157189Y0025802D01*
X0156660Y0027079D01*
X0155682Y0028057D01*
X0154404Y0028587D01*
X0153021Y0028587D01*
X0150726Y0026985D02*
X0104362Y0026985D01*
X0104373Y0024987D02*
X0150236Y0024987D01*
X0150918Y0022988D02*
X0104384Y0022988D01*
X0104395Y0020990D02*
X0185669Y0020990D01*
X0185669Y0021471D02*
X0185669Y0020088D01*
X0186199Y0018810D01*
X0187176Y0017832D01*
X0188454Y0017303D01*
X0189837Y0017303D01*
X0191115Y0017832D01*
X0192093Y0018810D01*
X0192622Y0020088D01*
X0192622Y0021471D01*
X0192093Y0022749D01*
X0191115Y0023727D01*
X0189837Y0024256D01*
X0188454Y0024256D01*
X0187176Y0023727D01*
X0186199Y0022749D01*
X0185669Y0021471D01*
X0186438Y0022988D02*
X0156507Y0022988D01*
X0157189Y0024987D02*
X0170115Y0024987D01*
X0169836Y0025266D02*
X0170813Y0024288D01*
X0172091Y0023759D01*
X0173474Y0023759D01*
X0174752Y0024288D01*
X0175730Y0025266D01*
X0176259Y0026544D01*
X0176259Y0027927D01*
X0175730Y0029205D01*
X0174752Y0030183D01*
X0173474Y0030712D01*
X0172091Y0030712D01*
X0170813Y0030183D01*
X0169836Y0029205D01*
X0169306Y0027927D01*
X0169306Y0026544D01*
X0169836Y0025266D01*
X0169306Y0026985D02*
X0156699Y0026985D01*
X0168679Y0017631D02*
X0168150Y0016353D01*
X0168150Y0014970D01*
X0168679Y0013692D01*
X0169657Y0012714D01*
X0170934Y0012185D01*
X0172317Y0012185D01*
X0173595Y0012714D01*
X0174573Y0013692D01*
X0175102Y0014970D01*
X0175102Y0016353D01*
X0174573Y0017631D01*
X0173595Y0018609D01*
X0172317Y0019138D01*
X0170934Y0019138D01*
X0169657Y0018609D01*
X0168679Y0017631D01*
X0168415Y0016993D02*
X0125265Y0016993D01*
X0125164Y0017237D02*
X0124186Y0018215D01*
X0122908Y0018744D01*
X0121525Y0018744D01*
X0120247Y0018215D01*
X0119269Y0017237D01*
X0118740Y0015959D01*
X0118740Y0014576D01*
X0119269Y0013298D01*
X0120247Y0012321D01*
X0121525Y0011791D01*
X0122908Y0011791D01*
X0124186Y0012321D01*
X0125164Y0013298D01*
X0125693Y0014576D01*
X0125693Y0015959D01*
X0125164Y0017237D01*
X0125693Y0014994D02*
X0168150Y0014994D01*
X0169376Y0012996D02*
X0124861Y0012996D01*
X0119572Y0012996D02*
X0104439Y0012996D01*
X0104450Y0010997D02*
X0195193Y0010997D01*
X0195193Y0012996D02*
X0173876Y0012996D01*
X0175102Y0014994D02*
X0195193Y0014994D01*
X0195193Y0016993D02*
X0174837Y0016993D01*
X0172672Y0018991D02*
X0186124Y0018991D01*
X0192168Y0018991D02*
X0195193Y0018991D01*
X0195193Y0020990D02*
X0192622Y0020990D01*
X0191853Y0022988D02*
X0195193Y0022988D01*
X0195193Y0024987D02*
X0175450Y0024987D01*
X0176259Y0026985D02*
X0195193Y0026985D01*
X0195193Y0028984D02*
X0175821Y0028984D01*
X0177901Y0027235D02*
X0185381Y0032984D01*
X0186562Y0049676D01*
X0189635Y0043966D02*
X0188358Y0043437D01*
X0187380Y0042459D01*
X0186850Y0041181D01*
X0186850Y0039798D01*
X0187380Y0038521D01*
X0188358Y0037543D01*
X0189635Y0037013D01*
X0191018Y0037013D01*
X0192296Y0037543D01*
X0193274Y0038521D01*
X0193803Y0039798D01*
X0193803Y0041181D01*
X0193274Y0042459D01*
X0192296Y0043437D01*
X0191018Y0043966D01*
X0189635Y0043966D01*
X0187894Y0042973D02*
X0126653Y0042973D01*
X0126653Y0043281D02*
X0126123Y0044559D01*
X0125146Y0045537D01*
X0123868Y0046066D01*
X0122485Y0046066D01*
X0121207Y0045537D01*
X0120229Y0044559D01*
X0119700Y0043281D01*
X0119700Y0041898D01*
X0120229Y0040621D01*
X0121207Y0039643D01*
X0122485Y0039113D01*
X0123868Y0039113D01*
X0125146Y0039643D01*
X0126123Y0040621D01*
X0126653Y0041898D01*
X0126653Y0043281D01*
X0125711Y0044972D02*
X0195193Y0044972D01*
X0195193Y0046970D02*
X0169816Y0046970D01*
X0169461Y0046615D02*
X0170439Y0047593D01*
X0170968Y0048871D01*
X0170968Y0050254D01*
X0170439Y0051531D01*
X0169461Y0052509D01*
X0168184Y0053039D01*
X0166801Y0053039D01*
X0165523Y0052509D01*
X0164545Y0051531D01*
X0164016Y0050254D01*
X0164016Y0048871D01*
X0164545Y0047593D01*
X0165523Y0046615D01*
X0166801Y0046086D01*
X0168184Y0046086D01*
X0169461Y0046615D01*
X0170968Y0048969D02*
X0195193Y0048969D01*
X0195193Y0050967D02*
X0170673Y0050967D01*
X0168359Y0052966D02*
X0195193Y0052966D01*
X0195193Y0054964D02*
X0140712Y0054964D01*
X0140449Y0056963D02*
X0195193Y0056963D01*
X0195193Y0058961D02*
X0139340Y0058961D01*
X0140630Y0060960D02*
X0195193Y0060960D01*
X0195193Y0062958D02*
X0140432Y0062958D01*
X0138451Y0064957D02*
X0195193Y0064957D01*
X0195193Y0066955D02*
X0115375Y0066955D01*
X0115532Y0067333D02*
X0115003Y0066056D01*
X0114025Y0065078D01*
X0112747Y0064548D01*
X0111364Y0064548D01*
X0110086Y0065078D01*
X0109108Y0066056D01*
X0108579Y0067333D01*
X0108579Y0068716D01*
X0109108Y0069994D01*
X0110086Y0070972D01*
X0111364Y0071501D01*
X0112747Y0071501D01*
X0114025Y0070972D01*
X0115003Y0069994D01*
X0115532Y0068716D01*
X0115532Y0067333D01*
X0115434Y0068954D02*
X0195193Y0068954D01*
X0195193Y0070952D02*
X0175343Y0070952D01*
X0169435Y0070952D02*
X0114044Y0070952D01*
X0110067Y0070952D02*
X0104119Y0070952D01*
X0104108Y0072951D02*
X0168913Y0072951D01*
X0164172Y0078946D02*
X0160394Y0078946D01*
X0161164Y0080945D02*
X0163014Y0080945D01*
X0162983Y0082943D02*
X0160710Y0082943D01*
X0164098Y0084942D02*
X0149315Y0084942D01*
X0148932Y0082943D02*
X0154665Y0082943D01*
X0148374Y0086940D02*
X0164578Y0086940D01*
X0170035Y0086940D02*
X0195193Y0086940D01*
X0195193Y0084942D02*
X0170515Y0084942D01*
X0171431Y0088939D02*
X0195193Y0088939D01*
X0195193Y0090937D02*
X0171668Y0090937D01*
X0170920Y0092936D02*
X0195193Y0092936D01*
X0195193Y0094934D02*
X0163065Y0094934D01*
X0163488Y0092936D02*
X0163692Y0092936D01*
X0166311Y0098732D02*
X0167492Y0098732D01*
X0168280Y0097945D01*
X0170388Y0100930D02*
X0195193Y0100930D01*
X0195193Y0098932D02*
X0127844Y0098932D01*
X0128228Y0096933D02*
X0195193Y0096933D01*
X0195193Y0102929D02*
X0172780Y0102929D01*
X0173092Y0104927D02*
X0195193Y0104927D01*
X0195193Y0106926D02*
X0173221Y0106926D01*
X0175122Y0108924D02*
X0195193Y0108924D01*
X0195193Y0110923D02*
X0176542Y0110923D01*
X0176508Y0112921D02*
X0195193Y0112921D01*
X0195193Y0114920D02*
X0174925Y0114920D01*
X0187349Y0129406D02*
X0188627Y0128877D01*
X0190010Y0128877D01*
X0191287Y0129406D01*
X0192265Y0130384D01*
X0192794Y0131662D01*
X0192794Y0133045D01*
X0192265Y0134323D01*
X0191287Y0135301D01*
X0190010Y0135830D01*
X0188627Y0135830D01*
X0187349Y0135301D01*
X0186371Y0134323D01*
X0185842Y0133045D01*
X0185842Y0131662D01*
X0186371Y0130384D01*
X0187349Y0129406D01*
X0188549Y0128909D02*
X0136444Y0128909D01*
X0136390Y0128856D02*
X0137368Y0129834D01*
X0137898Y0131112D01*
X0137898Y0132495D01*
X0137368Y0133772D01*
X0136390Y0134750D01*
X0135113Y0135280D01*
X0133730Y0135280D01*
X0132452Y0134750D01*
X0131474Y0133772D01*
X0130945Y0132495D01*
X0130945Y0131112D01*
X0131474Y0129834D01*
X0132452Y0128856D01*
X0133730Y0128327D01*
X0135113Y0128327D01*
X0136390Y0128856D01*
X0135021Y0127151D02*
X0133743Y0127680D01*
X0132360Y0127680D01*
X0131083Y0127151D01*
X0130105Y0126173D01*
X0129575Y0124895D01*
X0129575Y0123512D01*
X0130105Y0122235D01*
X0131083Y0121257D01*
X0132360Y0120728D01*
X0133743Y0120728D01*
X0135021Y0121257D01*
X0135999Y0122235D01*
X0136528Y0123512D01*
X0136528Y0124895D01*
X0135999Y0126173D01*
X0135021Y0127151D01*
X0135261Y0126911D02*
X0195193Y0126911D01*
X0195193Y0128909D02*
X0190087Y0128909D01*
X0186154Y0130908D02*
X0137813Y0130908D01*
X0137727Y0132906D02*
X0185842Y0132906D01*
X0186953Y0134905D02*
X0136018Y0134905D01*
X0132825Y0134905D02*
X0086608Y0134905D01*
X0086360Y0135504D02*
X0085382Y0136482D01*
X0084104Y0137011D01*
X0082721Y0137011D01*
X0081443Y0136482D01*
X0080465Y0135504D01*
X0079936Y0134226D01*
X0079936Y0132843D01*
X0080465Y0131565D01*
X0081443Y0130588D01*
X0082721Y0130058D01*
X0084104Y0130058D01*
X0085382Y0130588D01*
X0086360Y0131565D01*
X0086889Y0132843D01*
X0086889Y0134226D01*
X0086360Y0135504D01*
X0084364Y0136903D02*
X0195193Y0136903D01*
X0195193Y0134905D02*
X0191683Y0134905D01*
X0192794Y0132906D02*
X0195193Y0132906D01*
X0195193Y0130908D02*
X0192482Y0130908D01*
X0195193Y0124912D02*
X0136521Y0124912D01*
X0136280Y0122914D02*
X0195193Y0122914D01*
X0195193Y0120915D02*
X0134196Y0120915D01*
X0131907Y0120915D02*
X0069106Y0120915D01*
X0069106Y0118917D02*
X0195193Y0118917D01*
X0195193Y0116918D02*
X0069106Y0116918D01*
X0064106Y0120915D02*
X0064078Y0120915D01*
X0064106Y0122914D02*
X0063655Y0122914D01*
X0060651Y0122914D02*
X0054266Y0122914D01*
X0056215Y0124912D02*
X0058863Y0124912D01*
X0058745Y0126911D02*
X0058163Y0126911D01*
X0061015Y0120915D02*
X0016386Y0120915D01*
X0016285Y0122914D02*
X0047604Y0122914D01*
X0046361Y0124912D02*
X0016810Y0124912D01*
X0016213Y0126911D02*
X0046569Y0126911D01*
X0046464Y0128909D02*
X0007468Y0128909D01*
X0007468Y0126911D02*
X0010455Y0126911D01*
X0009857Y0124912D02*
X0007468Y0124912D01*
X0007468Y0122914D02*
X0010383Y0122914D01*
X0009495Y0120915D02*
X0007468Y0120915D01*
X0007468Y0118917D02*
X0007973Y0118917D01*
X0007468Y0112921D02*
X0009045Y0112921D01*
X0011324Y0112921D02*
X0063134Y0112921D01*
X0063005Y0110923D02*
X0007468Y0110923D01*
X0007468Y0108924D02*
X0062876Y0108924D01*
X0062747Y0106926D02*
X0007468Y0106926D01*
X0007468Y0104927D02*
X0062618Y0104927D01*
X0062489Y0102929D02*
X0007468Y0102929D01*
X0007468Y0100930D02*
X0062963Y0100930D01*
X0064106Y0098932D02*
X0007468Y0098932D01*
X0007468Y0096933D02*
X0064106Y0096933D01*
X0064106Y0094934D02*
X0018661Y0094934D01*
X0018453Y0095143D02*
X0017175Y0095672D01*
X0015792Y0095672D01*
X0014514Y0095143D01*
X0013536Y0094165D01*
X0013007Y0092888D01*
X0013007Y0091505D01*
X0013536Y0090227D01*
X0014514Y0089249D01*
X0015792Y0088720D01*
X0017175Y0088720D01*
X0018453Y0089249D01*
X0019431Y0090227D01*
X0019960Y0091505D01*
X0019960Y0092888D01*
X0019431Y0094165D01*
X0018453Y0095143D01*
X0019940Y0092936D02*
X0030676Y0092936D01*
X0030859Y0093378D02*
X0030330Y0092100D01*
X0030330Y0090717D01*
X0030859Y0089439D01*
X0031837Y0088462D01*
X0033115Y0087932D01*
X0034498Y0087932D01*
X0035776Y0088462D01*
X0036753Y0089439D01*
X0037283Y0090717D01*
X0037283Y0092100D01*
X0036753Y0093378D01*
X0035776Y0094356D01*
X0034498Y0094885D01*
X0033115Y0094885D01*
X0031837Y0094356D01*
X0030859Y0093378D01*
X0030330Y0090937D02*
X0019725Y0090937D01*
X0017704Y0088939D02*
X0031360Y0088939D01*
X0036253Y0088939D02*
X0054430Y0088939D01*
X0054346Y0089142D02*
X0054875Y0087865D01*
X0055853Y0086887D01*
X0057131Y0086357D01*
X0058514Y0086357D01*
X0059791Y0086887D01*
X0060769Y0087865D01*
X0061298Y0089142D01*
X0061298Y0090525D01*
X0060769Y0091803D01*
X0059791Y0092781D01*
X0058514Y0093310D01*
X0057131Y0093310D01*
X0055853Y0092781D01*
X0054875Y0091803D01*
X0054346Y0090525D01*
X0054346Y0089142D01*
X0054516Y0090937D02*
X0037283Y0090937D01*
X0036936Y0092936D02*
X0056227Y0092936D01*
X0059417Y0092936D02*
X0063094Y0092936D01*
X0061834Y0090937D02*
X0061128Y0090937D01*
X0061214Y0088939D02*
X0062073Y0088939D01*
X0064154Y0086940D02*
X0059845Y0086940D01*
X0055799Y0086940D02*
X0018574Y0086940D01*
X0018528Y0086986D02*
X0016691Y0087747D01*
X0014701Y0087747D01*
X0012864Y0086986D01*
X0011457Y0085580D01*
X0010696Y0083742D01*
X0010696Y0081753D01*
X0011457Y0079915D01*
X0012864Y0078508D01*
X0014701Y0077747D01*
X0016691Y0077747D01*
X0018528Y0078508D01*
X0019935Y0079915D01*
X0020696Y0081753D01*
X0020696Y0083742D01*
X0019935Y0085580D01*
X0018528Y0086986D01*
X0020199Y0084942D02*
X0050376Y0084942D01*
X0050151Y0084716D02*
X0049621Y0083439D01*
X0049621Y0082056D01*
X0050151Y0080778D01*
X0051128Y0079800D01*
X0052406Y0079271D01*
X0053789Y0079271D01*
X0055067Y0079800D01*
X0056045Y0080778D01*
X0056574Y0082056D01*
X0056574Y0083439D01*
X0056045Y0084716D01*
X0055067Y0085694D01*
X0053789Y0086224D01*
X0052406Y0086224D01*
X0051128Y0085694D01*
X0050151Y0084716D01*
X0049621Y0082943D02*
X0020696Y0082943D01*
X0020361Y0080945D02*
X0033089Y0080945D01*
X0032448Y0080679D02*
X0031221Y0079452D01*
X0030557Y0077849D01*
X0030557Y0076113D01*
X0031221Y0074510D01*
X0032448Y0073283D01*
X0034051Y0072619D01*
X0035787Y0072619D01*
X0037390Y0073283D01*
X0038617Y0074510D01*
X0039281Y0076113D01*
X0039281Y0077849D01*
X0038617Y0079452D01*
X0037390Y0080679D01*
X0035787Y0081343D01*
X0034051Y0081343D01*
X0032448Y0080679D01*
X0031011Y0078946D02*
X0018966Y0078946D01*
X0012426Y0078946D02*
X0007468Y0078946D01*
X0007468Y0076948D02*
X0030557Y0076948D01*
X0031039Y0074949D02*
X0007468Y0074949D01*
X0007468Y0072951D02*
X0033250Y0072951D01*
X0034051Y0071343D02*
X0032448Y0070679D01*
X0031221Y0069452D01*
X0030557Y0067849D01*
X0030557Y0066113D01*
X0031221Y0064510D01*
X0032448Y0063283D01*
X0034051Y0062619D01*
X0035787Y0062619D01*
X0037390Y0063283D01*
X0038617Y0064510D01*
X0039281Y0066113D01*
X0039281Y0067849D01*
X0038617Y0069452D01*
X0037390Y0070679D01*
X0035787Y0071343D01*
X0034051Y0071343D01*
X0033107Y0070952D02*
X0007468Y0070952D01*
X0007468Y0068954D02*
X0031014Y0068954D01*
X0030557Y0066955D02*
X0007468Y0066955D01*
X0007468Y0064957D02*
X0031036Y0064957D01*
X0029210Y0062958D02*
X0033232Y0062958D01*
X0030053Y0062115D02*
X0030814Y0060277D01*
X0030814Y0058288D01*
X0030053Y0056450D01*
X0028646Y0055044D01*
X0026809Y0054283D01*
X0024820Y0054283D01*
X0022982Y0053521D01*
X0021575Y0052115D01*
X0020814Y0050277D01*
X0020814Y0048288D01*
X0020053Y0046450D01*
X0018646Y0045044D01*
X0016809Y0044283D01*
X0014820Y0044283D01*
X0012982Y0045044D01*
X0011575Y0046450D01*
X0010814Y0048288D01*
X0010814Y0050277D01*
X0011575Y0052115D01*
X0012982Y0053521D01*
X0014820Y0054283D01*
X0016809Y0054283D01*
X0018646Y0053521D01*
X0020053Y0052115D01*
X0020814Y0050277D01*
X0020814Y0048288D01*
X0021575Y0046450D01*
X0022982Y0045044D01*
X0024820Y0044283D01*
X0026809Y0044283D01*
X0028646Y0045044D01*
X0030053Y0046450D01*
X0030814Y0048288D01*
X0030814Y0050277D01*
X0030053Y0052115D01*
X0028646Y0053521D01*
X0026809Y0054283D01*
X0024820Y0054283D01*
X0022982Y0055044D01*
X0021575Y0056450D01*
X0020814Y0058288D01*
X0020814Y0060277D01*
X0021575Y0062115D01*
X0022982Y0063521D01*
X0024820Y0064283D01*
X0026809Y0064283D01*
X0028646Y0063521D01*
X0030053Y0062115D01*
X0030531Y0060960D02*
X0037151Y0060960D01*
X0036909Y0060718D02*
X0036335Y0059331D01*
X0036335Y0057831D01*
X0036909Y0056445D01*
X0037970Y0055384D01*
X0039356Y0054809D01*
X0040857Y0054809D01*
X0042243Y0055384D01*
X0043304Y0056445D01*
X0043878Y0057831D01*
X0043878Y0059331D01*
X0043304Y0060718D01*
X0042243Y0061779D01*
X0040857Y0062353D01*
X0039356Y0062353D01*
X0037970Y0061779D01*
X0036909Y0060718D01*
X0036335Y0058961D02*
X0030814Y0058961D01*
X0030265Y0056963D02*
X0036694Y0056963D01*
X0038982Y0054964D02*
X0028454Y0054964D01*
X0029202Y0052966D02*
X0055575Y0052966D01*
X0055159Y0052550D02*
X0054630Y0051273D01*
X0054630Y0049890D01*
X0055159Y0048612D01*
X0056137Y0047634D01*
X0057415Y0047105D01*
X0058798Y0047105D01*
X0060076Y0047634D01*
X0061053Y0048612D01*
X0061583Y0049890D01*
X0061583Y0051273D01*
X0061053Y0052550D01*
X0060076Y0053528D01*
X0058798Y0054057D01*
X0057415Y0054057D01*
X0056137Y0053528D01*
X0055159Y0052550D01*
X0054630Y0050967D02*
X0030528Y0050967D01*
X0030814Y0048969D02*
X0055011Y0048969D01*
X0061201Y0048969D02*
X0067577Y0048969D01*
X0067550Y0050967D02*
X0061583Y0050967D01*
X0060638Y0052966D02*
X0067942Y0052966D01*
X0067961Y0054964D02*
X0041230Y0054964D01*
X0043518Y0056963D02*
X0067981Y0056963D01*
X0068000Y0058961D02*
X0043878Y0058961D01*
X0043062Y0060960D02*
X0057370Y0060960D01*
X0057428Y0060902D02*
X0058705Y0060373D01*
X0060088Y0060373D01*
X0061366Y0060902D01*
X0062344Y0061880D01*
X0062873Y0063158D01*
X0062873Y0064541D01*
X0062344Y0065819D01*
X0061366Y0066797D01*
X0060088Y0067326D01*
X0058705Y0067326D01*
X0057428Y0066797D01*
X0056450Y0065819D01*
X0055920Y0064541D01*
X0055920Y0063158D01*
X0056450Y0061880D01*
X0057428Y0060902D01*
X0056003Y0062958D02*
X0036606Y0062958D01*
X0038802Y0064957D02*
X0056093Y0064957D01*
X0057811Y0066955D02*
X0039281Y0066955D01*
X0038823Y0068954D02*
X0068098Y0068954D01*
X0068079Y0066955D02*
X0060983Y0066955D01*
X0062701Y0064957D02*
X0068059Y0064957D01*
X0068040Y0062958D02*
X0062790Y0062958D01*
X0061423Y0060960D02*
X0068020Y0060960D01*
X0068118Y0070952D02*
X0036730Y0070952D01*
X0036588Y0072951D02*
X0068138Y0072951D01*
X0068157Y0074949D02*
X0038799Y0074949D01*
X0039281Y0076948D02*
X0068177Y0076948D01*
X0068196Y0078946D02*
X0038826Y0078946D01*
X0036748Y0080945D02*
X0050081Y0080945D01*
X0056114Y0080945D02*
X0068216Y0080945D01*
X0068236Y0082943D02*
X0056574Y0082943D01*
X0055819Y0084942D02*
X0068255Y0084942D01*
X0068275Y0086940D02*
X0066451Y0086940D01*
X0071306Y0090129D02*
X0070913Y0050000D01*
X0069143Y0046970D02*
X0030268Y0046970D01*
X0028472Y0044972D02*
X0071061Y0044972D01*
X0084091Y0042973D02*
X0099275Y0042973D01*
X0098233Y0040975D02*
X0084354Y0040975D01*
X0083125Y0038976D02*
X0089056Y0038976D01*
X0093517Y0038976D02*
X0098115Y0038976D01*
X0099316Y0036978D02*
X0094763Y0036978D01*
X0094506Y0034979D02*
X0099329Y0034979D01*
X0099342Y0032981D02*
X0092380Y0032981D01*
X0090193Y0032981D02*
X0007468Y0032981D01*
X0007468Y0034979D02*
X0013138Y0034979D01*
X0011357Y0036978D02*
X0007468Y0036978D01*
X0007468Y0038976D02*
X0010814Y0038976D01*
X0011103Y0040975D02*
X0007468Y0040975D01*
X0007468Y0042973D02*
X0012434Y0042973D01*
X0013156Y0044972D02*
X0007468Y0044972D01*
X0007468Y0046970D02*
X0011360Y0046970D01*
X0010814Y0048969D02*
X0007468Y0048969D01*
X0007468Y0050967D02*
X0011100Y0050967D01*
X0012426Y0052966D02*
X0007468Y0052966D01*
X0007468Y0054964D02*
X0013276Y0054964D01*
X0013194Y0055006D02*
X0013895Y0054649D01*
X0014643Y0054406D01*
X0015421Y0054283D01*
X0015814Y0054283D01*
X0015814Y0059283D01*
X0015814Y0064283D01*
X0015421Y0064283D01*
X0014643Y0064160D01*
X0013895Y0063916D01*
X0013194Y0063559D01*
X0012557Y0063096D01*
X0012000Y0062540D01*
X0011538Y0061903D01*
X0011180Y0061202D01*
X0010937Y0060454D01*
X0010814Y0059676D01*
X0010814Y0059283D01*
X0015814Y0059283D01*
X0015814Y0059283D01*
X0015814Y0059283D01*
X0015814Y0064283D01*
X0016208Y0064283D01*
X0016985Y0064160D01*
X0017734Y0063916D01*
X0018435Y0063559D01*
X0019071Y0063096D01*
X0019628Y0062540D01*
X0020091Y0061903D01*
X0020448Y0061202D01*
X0020691Y0060454D01*
X0020814Y0059676D01*
X0020814Y0059283D01*
X0015814Y0059283D01*
X0010814Y0059283D01*
X0010814Y0058889D01*
X0010937Y0058112D01*
X0011180Y0057363D01*
X0011538Y0056662D01*
X0012000Y0056025D01*
X0012557Y0055469D01*
X0013194Y0055006D01*
X0015814Y0054964D02*
X0015814Y0054964D01*
X0015814Y0054283D02*
X0016208Y0054283D01*
X0016985Y0054406D01*
X0017734Y0054649D01*
X0018435Y0055006D01*
X0019071Y0055469D01*
X0019628Y0056025D01*
X0020091Y0056662D01*
X0020448Y0057363D01*
X0020691Y0058112D01*
X0020814Y0058889D01*
X0020814Y0059283D01*
X0015814Y0059283D01*
X0015814Y0059283D01*
X0015814Y0059283D01*
X0015814Y0054283D01*
X0018352Y0054964D02*
X0023174Y0054964D01*
X0022426Y0052966D02*
X0019202Y0052966D01*
X0020528Y0050967D02*
X0021100Y0050967D01*
X0020814Y0048969D02*
X0020814Y0048969D01*
X0020268Y0046970D02*
X0021360Y0046970D01*
X0023156Y0044972D02*
X0018472Y0044972D01*
X0019195Y0042973D02*
X0022434Y0042973D01*
X0021103Y0040975D02*
X0020525Y0040975D01*
X0020814Y0038976D02*
X0020814Y0038976D01*
X0020271Y0036978D02*
X0021357Y0036978D01*
X0023138Y0034979D02*
X0018490Y0034979D01*
X0026760Y0020990D02*
X0099423Y0020990D01*
X0099409Y0022988D02*
X0092142Y0022988D01*
X0092384Y0023230D02*
X0092846Y0023867D01*
X0093204Y0024568D01*
X0093447Y0025317D01*
X0093570Y0026094D01*
X0093570Y0026487D01*
X0088570Y0026487D01*
X0088570Y0026487D01*
X0088570Y0021487D01*
X0088177Y0021487D01*
X0087399Y0021611D01*
X0086651Y0021854D01*
X0085949Y0022211D01*
X0085313Y0022674D01*
X0084756Y0023230D01*
X0084294Y0023867D01*
X0083936Y0024568D01*
X0083693Y0025317D01*
X0083570Y0026094D01*
X0083570Y0026487D01*
X0088570Y0026487D01*
X0088570Y0021487D01*
X0088964Y0021487D01*
X0089741Y0021611D01*
X0090489Y0021854D01*
X0091191Y0022211D01*
X0091827Y0022674D01*
X0092384Y0023230D01*
X0093340Y0024987D02*
X0099396Y0024987D01*
X0099383Y0026985D02*
X0093554Y0026985D01*
X0093570Y0026881D02*
X0093447Y0027658D01*
X0093204Y0028407D01*
X0092846Y0029108D01*
X0092384Y0029745D01*
X0091827Y0030301D01*
X0091191Y0030764D01*
X0090489Y0031121D01*
X0089741Y0031364D01*
X0088964Y0031487D01*
X0088570Y0031487D01*
X0088177Y0031487D01*
X0087399Y0031364D01*
X0086651Y0031121D01*
X0085949Y0030764D01*
X0085313Y0030301D01*
X0084756Y0029745D01*
X0084294Y0029108D01*
X0083936Y0028407D01*
X0083693Y0027658D01*
X0083570Y0026881D01*
X0083447Y0027658D01*
X0083204Y0028407D01*
X0082846Y0029108D01*
X0082384Y0029745D01*
X0081827Y0030301D01*
X0081191Y0030764D01*
X0080489Y0031121D01*
X0079741Y0031364D01*
X0078964Y0031487D01*
X0078570Y0031487D01*
X0078177Y0031487D01*
X0077399Y0031364D01*
X0076651Y0031121D01*
X0075949Y0030764D01*
X0075313Y0030301D01*
X0074756Y0029745D01*
X0074294Y0029108D01*
X0073936Y0028407D01*
X0073693Y0027658D01*
X0073570Y0026881D01*
X0073570Y0026487D01*
X0073570Y0026094D01*
X0073693Y0025317D01*
X0073936Y0024568D01*
X0074294Y0023867D01*
X0074756Y0023230D01*
X0075313Y0022674D01*
X0075949Y0022211D01*
X0076651Y0021854D01*
X0077399Y0021611D01*
X0078177Y0021487D01*
X0078570Y0021487D01*
X0078570Y0026487D01*
X0078570Y0026487D01*
X0078570Y0021487D01*
X0078964Y0021487D01*
X0079741Y0021611D01*
X0080489Y0021854D01*
X0081191Y0022211D01*
X0081827Y0022674D01*
X0082384Y0023230D01*
X0082846Y0023867D01*
X0083204Y0024568D01*
X0083447Y0025317D01*
X0083570Y0026094D01*
X0083570Y0026487D01*
X0078570Y0026487D01*
X0073570Y0026487D01*
X0078570Y0026487D01*
X0078570Y0026487D01*
X0078570Y0026487D01*
X0083570Y0026487D01*
X0088570Y0026487D01*
X0088570Y0026487D01*
X0088570Y0026487D01*
X0093570Y0026487D01*
X0093570Y0026881D01*
X0092910Y0028984D02*
X0099369Y0028984D01*
X0099356Y0030982D02*
X0090762Y0030982D01*
X0088570Y0030982D02*
X0088570Y0030982D01*
X0088570Y0031487D02*
X0088570Y0026488D01*
X0088570Y0031487D01*
X0086378Y0030982D02*
X0080762Y0030982D01*
X0078570Y0030982D02*
X0078570Y0030982D01*
X0078570Y0031487D02*
X0078570Y0026488D01*
X0078570Y0031487D01*
X0076378Y0030982D02*
X0070784Y0030982D01*
X0071402Y0030726D02*
X0069565Y0031487D01*
X0067576Y0031487D01*
X0065738Y0030726D01*
X0064331Y0029320D01*
X0063570Y0027482D01*
X0062809Y0029320D01*
X0061402Y0030726D01*
X0059565Y0031487D01*
X0057576Y0031487D01*
X0055738Y0030726D01*
X0054331Y0029320D01*
X0053570Y0027482D01*
X0053570Y0025493D01*
X0054331Y0023655D01*
X0055738Y0022249D01*
X0057576Y0021487D01*
X0059565Y0021487D01*
X0061402Y0022249D01*
X0062809Y0023655D01*
X0063570Y0025493D01*
X0063570Y0027482D01*
X0063570Y0025493D01*
X0064331Y0023655D01*
X0065738Y0022249D01*
X0067576Y0021487D01*
X0069565Y0021487D01*
X0071402Y0022249D01*
X0072809Y0023655D01*
X0073570Y0025493D01*
X0073570Y0027482D01*
X0072809Y0029320D01*
X0071402Y0030726D01*
X0072948Y0028984D02*
X0074230Y0028984D01*
X0073587Y0026985D02*
X0073570Y0026985D01*
X0073360Y0024987D02*
X0073800Y0024987D01*
X0074998Y0022988D02*
X0072142Y0022988D01*
X0078570Y0022988D02*
X0078570Y0022988D01*
X0078570Y0024987D02*
X0078570Y0024987D01*
X0078570Y0026488D02*
X0078570Y0026488D01*
X0078570Y0026985D02*
X0078570Y0026985D01*
X0078570Y0028984D02*
X0078570Y0028984D01*
X0082910Y0028984D02*
X0084230Y0028984D01*
X0083587Y0026985D02*
X0083554Y0026985D01*
X0083570Y0026881D02*
X0083570Y0026487D01*
X0083570Y0026881D01*
X0083340Y0024987D02*
X0083800Y0024987D01*
X0084998Y0022988D02*
X0082142Y0022988D01*
X0088570Y0022988D02*
X0088570Y0022988D01*
X0088570Y0024987D02*
X0088570Y0024987D01*
X0088570Y0026488D02*
X0088570Y0026488D01*
X0088570Y0026985D02*
X0088570Y0026985D01*
X0088570Y0028984D02*
X0088570Y0028984D01*
X0099436Y0018991D02*
X0026261Y0018991D01*
X0025433Y0016993D02*
X0099450Y0016993D01*
X0099463Y0014994D02*
X0023469Y0014994D01*
X0052142Y0022988D02*
X0054998Y0022988D01*
X0053780Y0024987D02*
X0053360Y0024987D01*
X0053570Y0026985D02*
X0053570Y0026985D01*
X0052948Y0028984D02*
X0054192Y0028984D01*
X0056356Y0030982D02*
X0050784Y0030982D01*
X0060784Y0030982D02*
X0066356Y0030982D01*
X0064192Y0028984D02*
X0062948Y0028984D01*
X0063570Y0026985D02*
X0063570Y0026985D01*
X0063360Y0024987D02*
X0063780Y0024987D01*
X0064998Y0022988D02*
X0062142Y0022988D01*
X0092742Y0056963D02*
X0099182Y0056963D01*
X0099168Y0058961D02*
X0093188Y0058961D01*
X0104163Y0062958D02*
X0133896Y0062958D01*
X0131897Y0060960D02*
X0105804Y0060960D01*
X0104152Y0064957D02*
X0110378Y0064957D01*
X0108736Y0066955D02*
X0104141Y0066955D01*
X0104130Y0068954D02*
X0108678Y0068954D01*
X0113733Y0064957D02*
X0135914Y0064957D01*
X0134991Y0052966D02*
X0127166Y0052966D01*
X0127834Y0050967D02*
X0153558Y0050967D01*
X0153558Y0051155D02*
X0153558Y0049772D01*
X0154088Y0048495D01*
X0155065Y0047517D01*
X0156343Y0046987D01*
X0157726Y0046987D01*
X0159004Y0047517D01*
X0159982Y0048495D01*
X0160511Y0049772D01*
X0160511Y0051155D01*
X0159982Y0052433D01*
X0159004Y0053411D01*
X0157726Y0053940D01*
X0156343Y0053940D01*
X0155065Y0053411D01*
X0154088Y0052433D01*
X0153558Y0051155D01*
X0154620Y0052966D02*
X0139480Y0052966D01*
X0127338Y0048969D02*
X0153891Y0048969D01*
X0160178Y0048969D02*
X0164016Y0048969D01*
X0164311Y0050967D02*
X0160511Y0050967D01*
X0159449Y0052966D02*
X0166625Y0052966D01*
X0165168Y0046970D02*
X0109086Y0046970D01*
X0110569Y0044972D02*
X0120642Y0044972D01*
X0119700Y0042973D02*
X0110868Y0042973D01*
X0110231Y0040975D02*
X0120083Y0040975D01*
X0126270Y0040975D02*
X0186850Y0040975D01*
X0187191Y0038976D02*
X0104930Y0038976D01*
X0104307Y0036978D02*
X0195193Y0036978D01*
X0195193Y0038976D02*
X0193463Y0038976D01*
X0193803Y0040975D02*
X0195193Y0040975D01*
X0195193Y0042973D02*
X0192760Y0042973D01*
X0195193Y0034979D02*
X0130256Y0034979D01*
X0130091Y0035144D02*
X0128814Y0035673D01*
X0127431Y0035673D01*
X0126153Y0035144D01*
X0125175Y0034166D01*
X0124646Y0032888D01*
X0124646Y0031505D01*
X0125175Y0030228D01*
X0126153Y0029250D01*
X0127431Y0028720D01*
X0128814Y0028720D01*
X0130091Y0029250D01*
X0131069Y0030228D01*
X0131598Y0031505D01*
X0131598Y0032888D01*
X0131069Y0034166D01*
X0130091Y0035144D01*
X0131560Y0032981D02*
X0195193Y0032981D01*
X0195193Y0030982D02*
X0131382Y0030982D01*
X0129449Y0028984D02*
X0169744Y0028984D01*
X0170580Y0018991D02*
X0104406Y0018991D01*
X0104417Y0016993D02*
X0119168Y0016993D01*
X0118740Y0014994D02*
X0104428Y0014994D01*
X0104351Y0028984D02*
X0126795Y0028984D01*
X0124862Y0030982D02*
X0104340Y0030982D01*
X0104329Y0032981D02*
X0124684Y0032981D01*
X0123964Y0032354D02*
X0123176Y0031172D01*
X0125988Y0034979D02*
X0104318Y0034979D01*
X0104240Y0048969D02*
X0121377Y0048969D01*
X0120881Y0050967D02*
X0110228Y0050967D01*
X0110868Y0052966D02*
X0121549Y0052966D01*
X0118058Y0080681D02*
X0116346Y0082118D01*
X0092925Y0082118D01*
X0060497Y0114920D02*
X0013412Y0114920D01*
X0014225Y0116918D02*
X0059143Y0116918D01*
X0059252Y0118917D02*
X0016193Y0118917D01*
X0007468Y0130908D02*
X0046030Y0130908D01*
X0046847Y0132906D02*
X0007468Y0132906D01*
X0007468Y0134905D02*
X0049171Y0134905D01*
X0049209Y0136903D02*
X0007468Y0136903D01*
X0007468Y0138902D02*
X0049247Y0138902D01*
X0049284Y0140900D02*
X0007468Y0140900D01*
X0007468Y0142899D02*
X0049322Y0142899D01*
X0049360Y0144897D02*
X0007468Y0144897D01*
X0007468Y0146896D02*
X0049397Y0146896D01*
X0049435Y0148894D02*
X0007468Y0148894D01*
X0007468Y0150893D02*
X0049473Y0150893D01*
X0054106Y0150893D02*
X0057847Y0150893D01*
X0058025Y0150463D02*
X0059002Y0149485D01*
X0060280Y0148956D01*
X0061663Y0148956D01*
X0062941Y0149485D01*
X0063919Y0150463D01*
X0064448Y0151741D01*
X0064448Y0153124D01*
X0063919Y0154401D01*
X0062941Y0155379D01*
X0061663Y0155909D01*
X0060280Y0155909D01*
X0059002Y0155379D01*
X0058025Y0154401D01*
X0057495Y0153124D01*
X0057495Y0151741D01*
X0058025Y0150463D01*
X0057495Y0152891D02*
X0054106Y0152891D01*
X0054106Y0154890D02*
X0058513Y0154890D01*
X0054106Y0156888D02*
X0077389Y0156888D01*
X0079388Y0154890D02*
X0063430Y0154890D01*
X0064448Y0152891D02*
X0081588Y0152891D01*
X0088530Y0146718D02*
X0087552Y0145740D01*
X0087023Y0144462D01*
X0087023Y0143079D01*
X0087552Y0141802D01*
X0088530Y0140824D01*
X0089808Y0140294D01*
X0091191Y0140294D01*
X0092468Y0140824D01*
X0093446Y0141802D01*
X0093976Y0143079D01*
X0093976Y0144462D01*
X0093446Y0145740D01*
X0092468Y0146718D01*
X0091191Y0147247D01*
X0089808Y0147247D01*
X0088530Y0146718D01*
X0088959Y0146896D02*
X0074083Y0146896D01*
X0074666Y0146654D02*
X0073388Y0147183D01*
X0072005Y0147183D01*
X0070727Y0146654D01*
X0069750Y0145676D01*
X0069220Y0144399D01*
X0069220Y0143016D01*
X0069750Y0141738D01*
X0070727Y0140760D01*
X0072005Y0140231D01*
X0073388Y0140231D01*
X0074666Y0140760D01*
X0075644Y0141738D01*
X0076173Y0143016D01*
X0076173Y0144399D01*
X0075644Y0145676D01*
X0074666Y0146654D01*
X0075966Y0144897D02*
X0087203Y0144897D01*
X0087098Y0142899D02*
X0076125Y0142899D01*
X0074806Y0140900D02*
X0088453Y0140900D01*
X0092545Y0140900D02*
X0114099Y0140900D01*
X0114611Y0140688D02*
X0113333Y0141217D01*
X0112355Y0142195D01*
X0111826Y0143473D01*
X0111826Y0144856D01*
X0112355Y0146134D01*
X0113333Y0147112D01*
X0114611Y0147641D01*
X0115994Y0147641D01*
X0117272Y0147112D01*
X0117665Y0146719D01*
X0118058Y0147112D01*
X0119335Y0147641D01*
X0120718Y0147641D01*
X0121996Y0147112D01*
X0122974Y0146134D01*
X0123503Y0144856D01*
X0123503Y0143473D01*
X0122974Y0142195D01*
X0121996Y0141217D01*
X0120718Y0140688D01*
X0119335Y0140688D01*
X0118058Y0141217D01*
X0117665Y0141610D01*
X0117272Y0141217D01*
X0115994Y0140688D01*
X0114611Y0140688D01*
X0116506Y0140900D02*
X0118823Y0140900D01*
X0121230Y0140900D02*
X0195193Y0140900D01*
X0195193Y0138902D02*
X0054106Y0138902D01*
X0054106Y0140900D02*
X0070587Y0140900D01*
X0069269Y0142899D02*
X0054106Y0142899D01*
X0054106Y0144897D02*
X0069427Y0144897D01*
X0071311Y0146896D02*
X0054106Y0146896D01*
X0054106Y0148894D02*
X0101196Y0148894D01*
X0101572Y0146896D02*
X0092039Y0146896D01*
X0093795Y0144897D02*
X0111843Y0144897D01*
X0112064Y0142899D02*
X0093901Y0142899D01*
X0102154Y0150893D02*
X0064097Y0150893D01*
X0054106Y0158887D02*
X0075391Y0158887D01*
X0073392Y0160885D02*
X0054106Y0160885D01*
X0054106Y0162884D02*
X0071394Y0162884D01*
X0081200Y0172876D02*
X0114312Y0172876D01*
X0123144Y0172876D02*
X0195193Y0172876D01*
X0195193Y0170878D02*
X0190384Y0170878D01*
X0189788Y0171474D02*
X0191195Y0170068D01*
X0191956Y0168230D01*
X0191956Y0166241D01*
X0191195Y0164403D01*
X0189788Y0162997D01*
X0187950Y0162235D01*
X0185961Y0162235D01*
X0184124Y0162997D01*
X0182717Y0164403D01*
X0181956Y0166241D01*
X0181956Y0168230D01*
X0182717Y0170068D01*
X0184124Y0171474D01*
X0185961Y0172235D01*
X0187950Y0172235D01*
X0189788Y0171474D01*
X0191687Y0168879D02*
X0195193Y0168879D01*
X0195193Y0166881D02*
X0191956Y0166881D01*
X0191393Y0164882D02*
X0195193Y0164882D01*
X0195193Y0162884D02*
X0189516Y0162884D01*
X0184396Y0162884D02*
X0179516Y0162884D01*
X0179788Y0162997D02*
X0177950Y0162235D01*
X0175961Y0162235D01*
X0174124Y0162997D01*
X0172717Y0164403D01*
X0171956Y0166241D01*
X0171956Y0168230D01*
X0172717Y0170068D01*
X0174124Y0171474D01*
X0175961Y0172235D01*
X0177950Y0172235D01*
X0179788Y0171474D01*
X0181195Y0170068D01*
X0181956Y0168230D01*
X0181956Y0166241D01*
X0181195Y0164403D01*
X0179788Y0162997D01*
X0181393Y0164882D02*
X0182519Y0164882D01*
X0181956Y0166881D02*
X0181956Y0166881D01*
X0181687Y0168879D02*
X0182225Y0168879D01*
X0183527Y0170878D02*
X0180384Y0170878D01*
X0173527Y0170878D02*
X0170384Y0170878D01*
X0170213Y0171049D02*
X0169576Y0171512D01*
X0168875Y0171869D01*
X0168127Y0172112D01*
X0167349Y0172235D01*
X0166956Y0172235D01*
X0166956Y0167236D01*
X0166956Y0167236D01*
X0166956Y0172235D01*
X0166562Y0172235D01*
X0165785Y0172112D01*
X0165037Y0171869D01*
X0164335Y0171512D01*
X0163699Y0171049D01*
X0163142Y0170493D01*
X0162680Y0169856D01*
X0162322Y0169155D01*
X0162079Y0168406D01*
X0161956Y0167629D01*
X0161956Y0167235D01*
X0161956Y0166842D01*
X0162079Y0166065D01*
X0162322Y0165316D01*
X0162680Y0164615D01*
X0163142Y0163978D01*
X0163699Y0163422D01*
X0164335Y0162959D01*
X0165037Y0162602D01*
X0165785Y0162359D01*
X0166562Y0162235D01*
X0166956Y0162235D01*
X0167349Y0162235D01*
X0168127Y0162359D01*
X0168875Y0162602D01*
X0169576Y0162959D01*
X0170213Y0163422D01*
X0170770Y0163978D01*
X0171232Y0164615D01*
X0171590Y0165316D01*
X0171833Y0166065D01*
X0171956Y0166842D01*
X0171956Y0167235D01*
X0166956Y0167235D01*
X0166956Y0162235D01*
X0166956Y0167235D01*
X0166956Y0167235D01*
X0166956Y0167235D01*
X0161956Y0167235D01*
X0166956Y0167235D01*
X0166956Y0167235D01*
X0171956Y0167235D01*
X0171956Y0167629D01*
X0171833Y0168406D01*
X0171590Y0169155D01*
X0171232Y0169856D01*
X0170770Y0170493D01*
X0170213Y0171049D01*
X0171679Y0168879D02*
X0172225Y0168879D01*
X0171956Y0166881D02*
X0171956Y0166881D01*
X0172519Y0164882D02*
X0171369Y0164882D01*
X0169429Y0162884D02*
X0174396Y0162884D01*
X0173964Y0160891D02*
X0172687Y0161420D01*
X0171304Y0161420D01*
X0170026Y0160891D01*
X0169048Y0159913D01*
X0168519Y0158636D01*
X0168519Y0157253D01*
X0169048Y0155975D01*
X0170026Y0154997D01*
X0171304Y0154468D01*
X0172687Y0154468D01*
X0173964Y0154997D01*
X0174942Y0155975D01*
X0175472Y0157253D01*
X0175472Y0158636D01*
X0174942Y0159913D01*
X0173964Y0160891D01*
X0173970Y0160885D02*
X0195193Y0160885D01*
X0195193Y0158887D02*
X0175368Y0158887D01*
X0175321Y0156888D02*
X0195193Y0156888D01*
X0195193Y0154890D02*
X0173706Y0154890D01*
X0170285Y0154890D02*
X0118713Y0154890D01*
X0120711Y0156888D02*
X0168670Y0156888D01*
X0168623Y0158887D02*
X0122710Y0158887D01*
X0124038Y0160885D02*
X0170020Y0160885D01*
X0166956Y0162884D02*
X0166956Y0162884D01*
X0166956Y0164882D02*
X0166956Y0164882D01*
X0166956Y0166881D02*
X0166956Y0166881D01*
X0166956Y0168879D02*
X0166956Y0168879D01*
X0166956Y0170878D02*
X0166956Y0170878D01*
X0163527Y0170878D02*
X0160384Y0170878D01*
X0159788Y0171474D02*
X0157950Y0172235D01*
X0155961Y0172235D01*
X0154124Y0171474D01*
X0152717Y0170068D01*
X0151956Y0168230D01*
X0151956Y0166241D01*
X0152717Y0164403D01*
X0154124Y0162997D01*
X0155961Y0162235D01*
X0157950Y0162235D01*
X0159788Y0162997D01*
X0161195Y0164403D01*
X0161956Y0166241D01*
X0161956Y0168230D01*
X0161195Y0170068D01*
X0159788Y0171474D01*
X0161687Y0168879D02*
X0162233Y0168879D01*
X0161956Y0166881D02*
X0161956Y0166881D01*
X0161393Y0164882D02*
X0162543Y0164882D01*
X0164483Y0162884D02*
X0159516Y0162884D01*
X0154396Y0162884D02*
X0149516Y0162884D01*
X0149788Y0162997D02*
X0151195Y0164403D01*
X0151956Y0166241D01*
X0151956Y0168230D01*
X0151195Y0170068D01*
X0149788Y0171474D01*
X0147950Y0172235D01*
X0145961Y0172235D01*
X0144124Y0171474D01*
X0142717Y0170068D01*
X0141956Y0168230D01*
X0141956Y0166241D01*
X0142717Y0164403D01*
X0144124Y0162997D01*
X0145961Y0162235D01*
X0147950Y0162235D01*
X0149788Y0162997D01*
X0151393Y0164882D02*
X0152519Y0164882D01*
X0151956Y0166881D02*
X0151956Y0166881D01*
X0151687Y0168879D02*
X0152225Y0168879D01*
X0153527Y0170878D02*
X0150384Y0170878D01*
X0143527Y0170878D02*
X0132314Y0170878D01*
X0133524Y0168879D02*
X0142225Y0168879D01*
X0141956Y0166881D02*
X0133728Y0166881D01*
X0133100Y0164882D02*
X0142519Y0164882D01*
X0144396Y0162884D02*
X0130907Y0162884D01*
X0126548Y0162884D02*
X0124629Y0162884D01*
X0124861Y0170878D02*
X0125142Y0170878D01*
X0131540Y0154334D02*
X0130262Y0153805D01*
X0129284Y0152827D01*
X0128755Y0151549D01*
X0128755Y0150166D01*
X0129284Y0148888D01*
X0130262Y0147910D01*
X0131540Y0147381D01*
X0132923Y0147381D01*
X0134201Y0147910D01*
X0135179Y0148888D01*
X0135708Y0150166D01*
X0135708Y0151549D01*
X0135179Y0152827D01*
X0134201Y0153805D01*
X0132923Y0154334D01*
X0131540Y0154334D01*
X0129349Y0152891D02*
X0116714Y0152891D01*
X0117487Y0146896D02*
X0117842Y0146896D01*
X0122212Y0146896D02*
X0144819Y0146896D01*
X0144724Y0146668D02*
X0144724Y0145285D01*
X0145254Y0144007D01*
X0146232Y0143029D01*
X0147509Y0142500D01*
X0148892Y0142500D01*
X0150170Y0143029D01*
X0151148Y0144007D01*
X0151677Y0145285D01*
X0151677Y0146668D01*
X0151148Y0147946D01*
X0150170Y0148923D01*
X0148892Y0149453D01*
X0147509Y0149453D01*
X0146232Y0148923D01*
X0145254Y0147946D01*
X0144724Y0146668D01*
X0144885Y0144897D02*
X0123486Y0144897D01*
X0123265Y0142899D02*
X0146547Y0142899D01*
X0149855Y0142899D02*
X0195193Y0142899D01*
X0195193Y0144897D02*
X0151517Y0144897D01*
X0151583Y0146896D02*
X0195193Y0146896D01*
X0195193Y0148894D02*
X0150199Y0148894D01*
X0146202Y0148894D02*
X0135181Y0148894D01*
X0135708Y0150893D02*
X0195193Y0150893D01*
X0195193Y0152891D02*
X0135114Y0152891D01*
X0129282Y0148894D02*
X0108149Y0148894D01*
X0107773Y0146896D02*
X0113117Y0146896D01*
X0107191Y0150893D02*
X0128755Y0150893D01*
X0131115Y0132906D02*
X0086889Y0132906D01*
X0085702Y0130908D02*
X0131029Y0130908D01*
X0132399Y0128909D02*
X0092817Y0128909D01*
X0092331Y0129395D02*
X0091053Y0129924D01*
X0089670Y0129924D01*
X0088392Y0129395D01*
X0087414Y0128417D01*
X0086885Y0127140D01*
X0086885Y0125757D01*
X0087414Y0124479D01*
X0088392Y0123501D01*
X0089670Y0122972D01*
X0091053Y0122972D01*
X0092331Y0123501D01*
X0093309Y0124479D01*
X0093838Y0125757D01*
X0093838Y0127140D01*
X0093309Y0128417D01*
X0092331Y0129395D01*
X0093838Y0126911D02*
X0130842Y0126911D01*
X0129582Y0124912D02*
X0093488Y0124912D01*
X0087235Y0124912D02*
X0069106Y0124912D01*
X0069106Y0122914D02*
X0129823Y0122914D01*
X0087906Y0128909D02*
X0069106Y0128909D01*
X0069106Y0126911D02*
X0086885Y0126911D01*
X0081123Y0130908D02*
X0069106Y0130908D01*
X0069106Y0132906D02*
X0079936Y0132906D01*
X0080217Y0134905D02*
X0069106Y0134905D01*
X0082461Y0136903D02*
X0054106Y0136903D01*
X0087196Y0166881D02*
X0093728Y0166881D01*
X0093931Y0168879D02*
X0085197Y0168879D01*
X0083199Y0170878D02*
X0095142Y0170878D01*
X0102314Y0170878D02*
X0105142Y0170878D01*
X0103931Y0168879D02*
X0103524Y0168879D01*
X0103728Y0168387D02*
X0103728Y0166398D01*
X0104103Y0165491D01*
X0103352Y0165491D01*
X0103728Y0166398D01*
X0103728Y0168387D01*
X0103728Y0166881D02*
X0103728Y0166881D01*
X0079202Y0174875D02*
X0195193Y0174875D01*
X0195193Y0176873D02*
X0076977Y0176873D01*
X0014306Y0094934D02*
X0007468Y0094934D01*
X0007468Y0092936D02*
X0013027Y0092936D01*
X0013242Y0090937D02*
X0007468Y0090937D01*
X0007468Y0088939D02*
X0015263Y0088939D01*
X0012818Y0086940D02*
X0007468Y0086940D01*
X0007468Y0084942D02*
X0011193Y0084942D01*
X0010696Y0082943D02*
X0007468Y0082943D01*
X0007468Y0080945D02*
X0011031Y0080945D01*
X0012419Y0062958D02*
X0007468Y0062958D01*
X0007468Y0060960D02*
X0011102Y0060960D01*
X0010814Y0058961D02*
X0007468Y0058961D01*
X0007468Y0056963D02*
X0011385Y0056963D01*
X0015814Y0056963D02*
X0015814Y0056963D01*
X0015814Y0058961D02*
X0015814Y0058961D01*
X0015814Y0060960D02*
X0015814Y0060960D01*
X0015814Y0062958D02*
X0015814Y0062958D01*
X0019210Y0062958D02*
X0022419Y0062958D01*
X0021097Y0060960D02*
X0020527Y0060960D01*
X0020814Y0058961D02*
X0020814Y0058961D01*
X0021363Y0056963D02*
X0020244Y0056963D01*
D14*
X0035543Y0152098D03*
X0039318Y0159483D03*
D15*
X0068094Y0159483D01*
X0079476Y0152039D01*
X0042649Y0123480D02*
X0031606Y0134522D01*
X0035543Y0152098D01*
X0132585Y0057122D02*
X0137182Y0061719D01*
X0132585Y0057122D02*
X0110671Y0057122D01*
X0110046Y0057747D01*
X0104476Y0057747D01*
D16*
X0035543Y0152098D02*
X0027512Y0152098D01*
X0023791Y0155819D01*
X0023791Y0164480D01*
X0030091Y0170780D01*
X0073398Y0170780D01*
X0085209Y0158969D01*
X0094563Y0158969D01*
X0095040Y0158491D01*
X0112415Y0158491D01*
X0117629Y0163706D01*
X0117629Y0166294D01*
X0118728Y0167393D01*
D17*
X0066483Y0083141D02*
X0066483Y0038574D01*
X0078570Y0026487D01*
X0058854Y0046203D01*
X0045875Y0046203D01*
X0031716Y0060363D01*
X0031716Y0061727D01*
X0028259Y0065184D01*
X0023370Y0065184D01*
X0017468Y0059283D01*
X0015814Y0059283D01*
X0078570Y0026487D02*
X0088570Y0026487D01*
D18*
X0040106Y0058581D03*
D19*
X0034919Y0066981D03*
X0034919Y0076981D03*
X0106506Y0053381D03*
X0106506Y0043381D03*
X0167306Y0081981D03*
X0167306Y0090381D03*
D20*
X0079082Y0126448D02*
X0077113Y0125661D01*
X0077507Y0126054D01*
D21*
X0079082Y0126448D02*
X0073602Y0121756D01*
X0066877Y0115031D01*
X0066090Y0102826D01*
X0051917Y0125661D02*
X0049948Y0125661D01*
X0051917Y0125661D02*
X0067271Y0141409D01*
X0080263Y0141523D02*
X0079476Y0152039D01*
X0080263Y0141523D02*
X0087391Y0137545D01*
X0088178Y0132549D01*
X0093176Y0131881D01*
X0094106Y0129125D01*
X0125224Y0129125D01*
X0129074Y0125275D01*
X0129074Y0122556D01*
X0134237Y0117393D01*
X0152310Y0118968D01*
X0154043Y0117393D01*
X0161523Y0124873D01*
X0161523Y0139676D01*
X0166956Y0145109D01*
X0166956Y0167235D01*
X0154672Y0149283D02*
X0161523Y0139676D01*
X0125224Y0129125D02*
X0116049Y0119950D01*
X0116049Y0111414D01*
X0118058Y0109405D01*
X0118058Y0092196D01*
X0118058Y0080681D01*
X0118058Y0073298D01*
X0125145Y0066212D01*
X0147700Y0066212D01*
X0152745Y0071257D01*
X0152745Y0072158D01*
X0155460Y0072905D01*
D22*
X0168469Y0045378D02*
X0160406Y0037315D01*
X0168469Y0045378D02*
X0182264Y0045378D01*
X0089146Y0105819D02*
X0085602Y0110897D01*
X0079176Y0117323D01*
X0078429Y0116929D01*
X0073602Y0121756D01*
X0094106Y0129125D02*
X0094106Y0132449D01*
M02*
