G75*
%MOIN*%
%OFA0B0*%
%FSLAX25Y25*%
%IPPOS*%
%LPD*%
%AMOC8*
5,1,8,0,0,1.08239X$1,22.5*
%
%ADD10C,0.00600*%
%ADD11C,0.00400*%
%ADD12C,0.00500*%
%ADD13C,0.00200*%
%ADD14C,0.00300*%
%ADD15C,0.00800*%
%ADD16C,0.02559*%
D10*
X0033964Y0022806D02*
X0036464Y0020306D01*
X0041464Y0020306D01*
X0043964Y0022806D01*
X0046464Y0020306D01*
X0051464Y0020306D01*
X0053964Y0022806D01*
X0056464Y0020306D01*
X0061464Y0020306D01*
X0063964Y0022806D01*
X0066464Y0020306D01*
X0071464Y0020306D01*
X0073964Y0022806D01*
X0076464Y0020306D01*
X0081464Y0020306D01*
X0083964Y0022806D01*
X0086464Y0020306D01*
X0091464Y0020306D01*
X0093964Y0022806D01*
X0093964Y0027806D01*
X0091464Y0030306D01*
X0086464Y0030306D01*
X0083964Y0027806D01*
X0081464Y0030306D01*
X0076464Y0030306D01*
X0073964Y0027806D01*
X0071464Y0030306D01*
X0066464Y0030306D01*
X0063964Y0027806D01*
X0061464Y0030306D01*
X0056464Y0030306D01*
X0053964Y0027806D01*
X0051464Y0030306D01*
X0046464Y0030306D01*
X0043964Y0027806D01*
X0041464Y0030306D01*
X0036464Y0030306D01*
X0033964Y0027806D01*
X0033964Y0022806D01*
X0028708Y0033102D02*
X0013708Y0033102D01*
X0011208Y0035602D01*
X0011208Y0040602D01*
X0013708Y0043102D01*
X0028708Y0043102D01*
X0031208Y0045602D01*
X0031208Y0050602D01*
X0028708Y0053102D01*
X0031208Y0055602D01*
X0031208Y0060602D01*
X0028708Y0063102D01*
X0013708Y0063102D01*
X0011208Y0060602D01*
X0011208Y0055602D01*
X0013708Y0053102D01*
X0028708Y0053102D01*
X0028708Y0043102D02*
X0031208Y0040602D01*
X0031208Y0035602D01*
X0028708Y0033102D01*
X0013708Y0043102D02*
X0011208Y0045602D01*
X0011208Y0050602D01*
X0013708Y0053102D01*
X0039221Y0064763D02*
X0043221Y0064763D01*
X0039221Y0064763D01*
X0043221Y0064763D01*
X0050121Y0070063D02*
X0050121Y0070763D01*
X0050821Y0070763D01*
X0055981Y0060162D02*
X0058116Y0060162D01*
X0057049Y0060162D02*
X0057049Y0053757D01*
X0058116Y0053757D02*
X0055981Y0053757D01*
X0060278Y0054824D02*
X0061346Y0053757D01*
X0063481Y0053757D01*
X0064548Y0054824D01*
X0066724Y0053757D02*
X0070994Y0053757D01*
X0068859Y0053757D02*
X0068859Y0060162D01*
X0066724Y0058027D01*
X0064548Y0059095D02*
X0063481Y0060162D01*
X0061346Y0060162D01*
X0060278Y0059095D01*
X0060278Y0054824D01*
X0073169Y0056959D02*
X0077439Y0056959D01*
X0076372Y0053757D02*
X0076372Y0060162D01*
X0073169Y0056959D01*
X0076621Y0067163D02*
X0074521Y0069263D01*
X0077421Y0070763D02*
X0078121Y0070763D01*
X0078121Y0070063D01*
X0085021Y0061463D02*
X0089021Y0061463D01*
X0078121Y0043463D02*
X0078121Y0042763D01*
X0077421Y0042763D01*
X0062621Y0035763D02*
X0062621Y0031763D01*
X0062621Y0035763D01*
X0062621Y0031763D01*
X0062621Y0035763D01*
X0050821Y0042763D02*
X0050121Y0042763D01*
X0050121Y0043463D01*
X0018590Y0076566D02*
X0013590Y0076566D01*
X0011090Y0079066D01*
X0011090Y0084066D01*
X0013590Y0086566D01*
X0018590Y0086566D01*
X0021090Y0084066D01*
X0021090Y0079066D01*
X0018590Y0076566D01*
X0021149Y0094078D02*
X0014968Y0094078D01*
X0014968Y0094448D01*
X0014968Y0097621D02*
X0014968Y0097991D01*
X0014968Y0101361D02*
X0014968Y0101731D01*
X0014968Y0104905D02*
X0014968Y0105275D01*
X0021149Y0105275D01*
X0021149Y0104905D01*
X0021149Y0101731D02*
X0021149Y0097621D01*
X0021149Y0094448D02*
X0021149Y0094078D01*
X0077946Y0110713D02*
X0077946Y0127113D01*
X0097746Y0127113D01*
X0097746Y0110713D01*
X0077946Y0110713D01*
X0079646Y0114113D02*
X0079648Y0114197D01*
X0079654Y0114282D01*
X0079664Y0114365D01*
X0079678Y0114449D01*
X0079695Y0114531D01*
X0079717Y0114613D01*
X0079742Y0114693D01*
X0079771Y0114772D01*
X0079804Y0114850D01*
X0079840Y0114926D01*
X0079880Y0115001D01*
X0079924Y0115073D01*
X0079970Y0115144D01*
X0080020Y0115212D01*
X0080073Y0115277D01*
X0080129Y0115340D01*
X0080188Y0115401D01*
X0080250Y0115458D01*
X0080314Y0115513D01*
X0080381Y0115564D01*
X0080450Y0115613D01*
X0080522Y0115658D01*
X0080595Y0115699D01*
X0080670Y0115737D01*
X0080747Y0115772D01*
X0080826Y0115803D01*
X0080906Y0115830D01*
X0080987Y0115853D01*
X0081069Y0115873D01*
X0081152Y0115889D01*
X0081235Y0115901D01*
X0081320Y0115909D01*
X0081404Y0115913D01*
X0081488Y0115913D01*
X0081572Y0115909D01*
X0081657Y0115901D01*
X0081740Y0115889D01*
X0081823Y0115873D01*
X0081905Y0115853D01*
X0081986Y0115830D01*
X0082066Y0115803D01*
X0082145Y0115772D01*
X0082222Y0115737D01*
X0082297Y0115699D01*
X0082370Y0115658D01*
X0082442Y0115613D01*
X0082511Y0115564D01*
X0082578Y0115513D01*
X0082642Y0115458D01*
X0082704Y0115401D01*
X0082763Y0115340D01*
X0082819Y0115277D01*
X0082872Y0115212D01*
X0082922Y0115144D01*
X0082968Y0115073D01*
X0083012Y0115001D01*
X0083052Y0114926D01*
X0083088Y0114850D01*
X0083121Y0114772D01*
X0083150Y0114693D01*
X0083175Y0114613D01*
X0083197Y0114531D01*
X0083214Y0114449D01*
X0083228Y0114365D01*
X0083238Y0114282D01*
X0083244Y0114197D01*
X0083246Y0114113D01*
X0083244Y0114029D01*
X0083238Y0113944D01*
X0083228Y0113861D01*
X0083214Y0113777D01*
X0083197Y0113695D01*
X0083175Y0113613D01*
X0083150Y0113533D01*
X0083121Y0113454D01*
X0083088Y0113376D01*
X0083052Y0113300D01*
X0083012Y0113225D01*
X0082968Y0113153D01*
X0082922Y0113082D01*
X0082872Y0113014D01*
X0082819Y0112949D01*
X0082763Y0112886D01*
X0082704Y0112825D01*
X0082642Y0112768D01*
X0082578Y0112713D01*
X0082511Y0112662D01*
X0082442Y0112613D01*
X0082370Y0112568D01*
X0082297Y0112527D01*
X0082222Y0112489D01*
X0082145Y0112454D01*
X0082066Y0112423D01*
X0081986Y0112396D01*
X0081905Y0112373D01*
X0081823Y0112353D01*
X0081740Y0112337D01*
X0081657Y0112325D01*
X0081572Y0112317D01*
X0081488Y0112313D01*
X0081404Y0112313D01*
X0081320Y0112317D01*
X0081235Y0112325D01*
X0081152Y0112337D01*
X0081069Y0112353D01*
X0080987Y0112373D01*
X0080906Y0112396D01*
X0080826Y0112423D01*
X0080747Y0112454D01*
X0080670Y0112489D01*
X0080595Y0112527D01*
X0080522Y0112568D01*
X0080450Y0112613D01*
X0080381Y0112662D01*
X0080314Y0112713D01*
X0080250Y0112768D01*
X0080188Y0112825D01*
X0080129Y0112886D01*
X0080073Y0112949D01*
X0080020Y0113014D01*
X0079970Y0113082D01*
X0079924Y0113153D01*
X0079880Y0113225D01*
X0079840Y0113300D01*
X0079804Y0113376D01*
X0079771Y0113454D01*
X0079742Y0113533D01*
X0079717Y0113613D01*
X0079695Y0113695D01*
X0079678Y0113777D01*
X0079664Y0113861D01*
X0079654Y0113944D01*
X0079648Y0114029D01*
X0079646Y0114113D01*
X0110520Y0110768D02*
X0110520Y0127168D01*
X0130320Y0127168D01*
X0130320Y0110768D01*
X0110520Y0110768D01*
X0112220Y0114168D02*
X0112222Y0114252D01*
X0112228Y0114337D01*
X0112238Y0114420D01*
X0112252Y0114504D01*
X0112269Y0114586D01*
X0112291Y0114668D01*
X0112316Y0114748D01*
X0112345Y0114827D01*
X0112378Y0114905D01*
X0112414Y0114981D01*
X0112454Y0115056D01*
X0112498Y0115128D01*
X0112544Y0115199D01*
X0112594Y0115267D01*
X0112647Y0115332D01*
X0112703Y0115395D01*
X0112762Y0115456D01*
X0112824Y0115513D01*
X0112888Y0115568D01*
X0112955Y0115619D01*
X0113024Y0115668D01*
X0113096Y0115713D01*
X0113169Y0115754D01*
X0113244Y0115792D01*
X0113321Y0115827D01*
X0113400Y0115858D01*
X0113480Y0115885D01*
X0113561Y0115908D01*
X0113643Y0115928D01*
X0113726Y0115944D01*
X0113809Y0115956D01*
X0113894Y0115964D01*
X0113978Y0115968D01*
X0114062Y0115968D01*
X0114146Y0115964D01*
X0114231Y0115956D01*
X0114314Y0115944D01*
X0114397Y0115928D01*
X0114479Y0115908D01*
X0114560Y0115885D01*
X0114640Y0115858D01*
X0114719Y0115827D01*
X0114796Y0115792D01*
X0114871Y0115754D01*
X0114944Y0115713D01*
X0115016Y0115668D01*
X0115085Y0115619D01*
X0115152Y0115568D01*
X0115216Y0115513D01*
X0115278Y0115456D01*
X0115337Y0115395D01*
X0115393Y0115332D01*
X0115446Y0115267D01*
X0115496Y0115199D01*
X0115542Y0115128D01*
X0115586Y0115056D01*
X0115626Y0114981D01*
X0115662Y0114905D01*
X0115695Y0114827D01*
X0115724Y0114748D01*
X0115749Y0114668D01*
X0115771Y0114586D01*
X0115788Y0114504D01*
X0115802Y0114420D01*
X0115812Y0114337D01*
X0115818Y0114252D01*
X0115820Y0114168D01*
X0115818Y0114084D01*
X0115812Y0113999D01*
X0115802Y0113916D01*
X0115788Y0113832D01*
X0115771Y0113750D01*
X0115749Y0113668D01*
X0115724Y0113588D01*
X0115695Y0113509D01*
X0115662Y0113431D01*
X0115626Y0113355D01*
X0115586Y0113280D01*
X0115542Y0113208D01*
X0115496Y0113137D01*
X0115446Y0113069D01*
X0115393Y0113004D01*
X0115337Y0112941D01*
X0115278Y0112880D01*
X0115216Y0112823D01*
X0115152Y0112768D01*
X0115085Y0112717D01*
X0115016Y0112668D01*
X0114944Y0112623D01*
X0114871Y0112582D01*
X0114796Y0112544D01*
X0114719Y0112509D01*
X0114640Y0112478D01*
X0114560Y0112451D01*
X0114479Y0112428D01*
X0114397Y0112408D01*
X0114314Y0112392D01*
X0114231Y0112380D01*
X0114146Y0112372D01*
X0114062Y0112368D01*
X0113978Y0112368D01*
X0113894Y0112372D01*
X0113809Y0112380D01*
X0113726Y0112392D01*
X0113643Y0112408D01*
X0113561Y0112428D01*
X0113480Y0112451D01*
X0113400Y0112478D01*
X0113321Y0112509D01*
X0113244Y0112544D01*
X0113169Y0112582D01*
X0113096Y0112623D01*
X0113024Y0112668D01*
X0112955Y0112717D01*
X0112888Y0112768D01*
X0112824Y0112823D01*
X0112762Y0112880D01*
X0112703Y0112941D01*
X0112647Y0113004D01*
X0112594Y0113069D01*
X0112544Y0113137D01*
X0112498Y0113208D01*
X0112454Y0113280D01*
X0112414Y0113355D01*
X0112378Y0113431D01*
X0112345Y0113509D01*
X0112316Y0113588D01*
X0112291Y0113668D01*
X0112269Y0113750D01*
X0112252Y0113832D01*
X0112238Y0113916D01*
X0112228Y0113999D01*
X0112222Y0114084D01*
X0112220Y0114168D01*
X0156190Y0110768D02*
X0156190Y0127168D01*
X0175990Y0127168D01*
X0175990Y0110768D01*
X0156190Y0110768D01*
X0157890Y0114168D02*
X0157892Y0114252D01*
X0157898Y0114337D01*
X0157908Y0114420D01*
X0157922Y0114504D01*
X0157939Y0114586D01*
X0157961Y0114668D01*
X0157986Y0114748D01*
X0158015Y0114827D01*
X0158048Y0114905D01*
X0158084Y0114981D01*
X0158124Y0115056D01*
X0158168Y0115128D01*
X0158214Y0115199D01*
X0158264Y0115267D01*
X0158317Y0115332D01*
X0158373Y0115395D01*
X0158432Y0115456D01*
X0158494Y0115513D01*
X0158558Y0115568D01*
X0158625Y0115619D01*
X0158694Y0115668D01*
X0158766Y0115713D01*
X0158839Y0115754D01*
X0158914Y0115792D01*
X0158991Y0115827D01*
X0159070Y0115858D01*
X0159150Y0115885D01*
X0159231Y0115908D01*
X0159313Y0115928D01*
X0159396Y0115944D01*
X0159479Y0115956D01*
X0159564Y0115964D01*
X0159648Y0115968D01*
X0159732Y0115968D01*
X0159816Y0115964D01*
X0159901Y0115956D01*
X0159984Y0115944D01*
X0160067Y0115928D01*
X0160149Y0115908D01*
X0160230Y0115885D01*
X0160310Y0115858D01*
X0160389Y0115827D01*
X0160466Y0115792D01*
X0160541Y0115754D01*
X0160614Y0115713D01*
X0160686Y0115668D01*
X0160755Y0115619D01*
X0160822Y0115568D01*
X0160886Y0115513D01*
X0160948Y0115456D01*
X0161007Y0115395D01*
X0161063Y0115332D01*
X0161116Y0115267D01*
X0161166Y0115199D01*
X0161212Y0115128D01*
X0161256Y0115056D01*
X0161296Y0114981D01*
X0161332Y0114905D01*
X0161365Y0114827D01*
X0161394Y0114748D01*
X0161419Y0114668D01*
X0161441Y0114586D01*
X0161458Y0114504D01*
X0161472Y0114420D01*
X0161482Y0114337D01*
X0161488Y0114252D01*
X0161490Y0114168D01*
X0161488Y0114084D01*
X0161482Y0113999D01*
X0161472Y0113916D01*
X0161458Y0113832D01*
X0161441Y0113750D01*
X0161419Y0113668D01*
X0161394Y0113588D01*
X0161365Y0113509D01*
X0161332Y0113431D01*
X0161296Y0113355D01*
X0161256Y0113280D01*
X0161212Y0113208D01*
X0161166Y0113137D01*
X0161116Y0113069D01*
X0161063Y0113004D01*
X0161007Y0112941D01*
X0160948Y0112880D01*
X0160886Y0112823D01*
X0160822Y0112768D01*
X0160755Y0112717D01*
X0160686Y0112668D01*
X0160614Y0112623D01*
X0160541Y0112582D01*
X0160466Y0112544D01*
X0160389Y0112509D01*
X0160310Y0112478D01*
X0160230Y0112451D01*
X0160149Y0112428D01*
X0160067Y0112408D01*
X0159984Y0112392D01*
X0159901Y0112380D01*
X0159816Y0112372D01*
X0159732Y0112368D01*
X0159648Y0112368D01*
X0159564Y0112372D01*
X0159479Y0112380D01*
X0159396Y0112392D01*
X0159313Y0112408D01*
X0159231Y0112428D01*
X0159150Y0112451D01*
X0159070Y0112478D01*
X0158991Y0112509D01*
X0158914Y0112544D01*
X0158839Y0112582D01*
X0158766Y0112623D01*
X0158694Y0112668D01*
X0158625Y0112717D01*
X0158558Y0112768D01*
X0158494Y0112823D01*
X0158432Y0112880D01*
X0158373Y0112941D01*
X0158317Y0113004D01*
X0158264Y0113069D01*
X0158214Y0113137D01*
X0158168Y0113208D01*
X0158124Y0113280D01*
X0158084Y0113355D01*
X0158048Y0113431D01*
X0158015Y0113509D01*
X0157986Y0113588D01*
X0157961Y0113668D01*
X0157939Y0113750D01*
X0157922Y0113832D01*
X0157908Y0113916D01*
X0157898Y0113999D01*
X0157892Y0114084D01*
X0157890Y0114168D01*
X0185700Y0103100D02*
X0185700Y0092100D01*
X0185702Y0092040D01*
X0185707Y0091979D01*
X0185716Y0091920D01*
X0185729Y0091861D01*
X0185745Y0091802D01*
X0185765Y0091745D01*
X0185788Y0091690D01*
X0185815Y0091635D01*
X0185844Y0091583D01*
X0185877Y0091532D01*
X0185913Y0091483D01*
X0185951Y0091437D01*
X0185993Y0091393D01*
X0186037Y0091351D01*
X0186083Y0091313D01*
X0186132Y0091277D01*
X0186183Y0091244D01*
X0186235Y0091215D01*
X0186290Y0091188D01*
X0186345Y0091165D01*
X0186402Y0091145D01*
X0186461Y0091129D01*
X0186520Y0091116D01*
X0186579Y0091107D01*
X0186640Y0091102D01*
X0186700Y0091100D01*
X0192700Y0091100D01*
X0192760Y0091102D01*
X0192821Y0091107D01*
X0192880Y0091116D01*
X0192939Y0091129D01*
X0192998Y0091145D01*
X0193055Y0091165D01*
X0193110Y0091188D01*
X0193165Y0091215D01*
X0193217Y0091244D01*
X0193268Y0091277D01*
X0193317Y0091313D01*
X0193363Y0091351D01*
X0193407Y0091393D01*
X0193449Y0091437D01*
X0193487Y0091483D01*
X0193523Y0091532D01*
X0193556Y0091583D01*
X0193585Y0091635D01*
X0193612Y0091690D01*
X0193635Y0091745D01*
X0193655Y0091802D01*
X0193671Y0091861D01*
X0193684Y0091920D01*
X0193693Y0091979D01*
X0193698Y0092040D01*
X0193700Y0092100D01*
X0193700Y0103100D01*
X0193698Y0103160D01*
X0193693Y0103221D01*
X0193684Y0103280D01*
X0193671Y0103339D01*
X0193655Y0103398D01*
X0193635Y0103455D01*
X0193612Y0103510D01*
X0193585Y0103565D01*
X0193556Y0103617D01*
X0193523Y0103668D01*
X0193487Y0103717D01*
X0193449Y0103763D01*
X0193407Y0103807D01*
X0193363Y0103849D01*
X0193317Y0103887D01*
X0193268Y0103923D01*
X0193217Y0103956D01*
X0193165Y0103985D01*
X0193110Y0104012D01*
X0193055Y0104035D01*
X0192998Y0104055D01*
X0192939Y0104071D01*
X0192880Y0104084D01*
X0192821Y0104093D01*
X0192760Y0104098D01*
X0192700Y0104100D01*
X0186700Y0104100D01*
X0186640Y0104098D01*
X0186579Y0104093D01*
X0186520Y0104084D01*
X0186461Y0104071D01*
X0186402Y0104055D01*
X0186345Y0104035D01*
X0186290Y0104012D01*
X0186235Y0103985D01*
X0186183Y0103956D01*
X0186132Y0103923D01*
X0186083Y0103887D01*
X0186037Y0103849D01*
X0185993Y0103807D01*
X0185951Y0103763D01*
X0185913Y0103717D01*
X0185877Y0103668D01*
X0185844Y0103617D01*
X0185815Y0103565D01*
X0185788Y0103510D01*
X0185765Y0103455D01*
X0185745Y0103398D01*
X0185729Y0103339D01*
X0185716Y0103280D01*
X0185707Y0103221D01*
X0185702Y0103160D01*
X0185700Y0103100D01*
X0135832Y0055908D02*
X0135832Y0039508D01*
X0116032Y0039508D01*
X0116032Y0055908D01*
X0135832Y0055908D01*
X0130532Y0052508D02*
X0130534Y0052592D01*
X0130540Y0052677D01*
X0130550Y0052760D01*
X0130564Y0052844D01*
X0130581Y0052926D01*
X0130603Y0053008D01*
X0130628Y0053088D01*
X0130657Y0053167D01*
X0130690Y0053245D01*
X0130726Y0053321D01*
X0130766Y0053396D01*
X0130810Y0053468D01*
X0130856Y0053539D01*
X0130906Y0053607D01*
X0130959Y0053672D01*
X0131015Y0053735D01*
X0131074Y0053796D01*
X0131136Y0053853D01*
X0131200Y0053908D01*
X0131267Y0053959D01*
X0131336Y0054008D01*
X0131408Y0054053D01*
X0131481Y0054094D01*
X0131556Y0054132D01*
X0131633Y0054167D01*
X0131712Y0054198D01*
X0131792Y0054225D01*
X0131873Y0054248D01*
X0131955Y0054268D01*
X0132038Y0054284D01*
X0132121Y0054296D01*
X0132206Y0054304D01*
X0132290Y0054308D01*
X0132374Y0054308D01*
X0132458Y0054304D01*
X0132543Y0054296D01*
X0132626Y0054284D01*
X0132709Y0054268D01*
X0132791Y0054248D01*
X0132872Y0054225D01*
X0132952Y0054198D01*
X0133031Y0054167D01*
X0133108Y0054132D01*
X0133183Y0054094D01*
X0133256Y0054053D01*
X0133328Y0054008D01*
X0133397Y0053959D01*
X0133464Y0053908D01*
X0133528Y0053853D01*
X0133590Y0053796D01*
X0133649Y0053735D01*
X0133705Y0053672D01*
X0133758Y0053607D01*
X0133808Y0053539D01*
X0133854Y0053468D01*
X0133898Y0053396D01*
X0133938Y0053321D01*
X0133974Y0053245D01*
X0134007Y0053167D01*
X0134036Y0053088D01*
X0134061Y0053008D01*
X0134083Y0052926D01*
X0134100Y0052844D01*
X0134114Y0052760D01*
X0134124Y0052677D01*
X0134130Y0052592D01*
X0134132Y0052508D01*
X0134130Y0052424D01*
X0134124Y0052339D01*
X0134114Y0052256D01*
X0134100Y0052172D01*
X0134083Y0052090D01*
X0134061Y0052008D01*
X0134036Y0051928D01*
X0134007Y0051849D01*
X0133974Y0051771D01*
X0133938Y0051695D01*
X0133898Y0051620D01*
X0133854Y0051548D01*
X0133808Y0051477D01*
X0133758Y0051409D01*
X0133705Y0051344D01*
X0133649Y0051281D01*
X0133590Y0051220D01*
X0133528Y0051163D01*
X0133464Y0051108D01*
X0133397Y0051057D01*
X0133328Y0051008D01*
X0133256Y0050963D01*
X0133183Y0050922D01*
X0133108Y0050884D01*
X0133031Y0050849D01*
X0132952Y0050818D01*
X0132872Y0050791D01*
X0132791Y0050768D01*
X0132709Y0050748D01*
X0132626Y0050732D01*
X0132543Y0050720D01*
X0132458Y0050712D01*
X0132374Y0050708D01*
X0132290Y0050708D01*
X0132206Y0050712D01*
X0132121Y0050720D01*
X0132038Y0050732D01*
X0131955Y0050748D01*
X0131873Y0050768D01*
X0131792Y0050791D01*
X0131712Y0050818D01*
X0131633Y0050849D01*
X0131556Y0050884D01*
X0131481Y0050922D01*
X0131408Y0050963D01*
X0131336Y0051008D01*
X0131267Y0051057D01*
X0131200Y0051108D01*
X0131136Y0051163D01*
X0131074Y0051220D01*
X0131015Y0051281D01*
X0130959Y0051344D01*
X0130906Y0051409D01*
X0130856Y0051477D01*
X0130810Y0051548D01*
X0130766Y0051620D01*
X0130726Y0051695D01*
X0130690Y0051771D01*
X0130657Y0051849D01*
X0130628Y0051928D01*
X0130603Y0052008D01*
X0130581Y0052090D01*
X0130564Y0052172D01*
X0130550Y0052256D01*
X0130540Y0052339D01*
X0130534Y0052424D01*
X0130532Y0052508D01*
X0131621Y0152944D02*
X0126621Y0152944D01*
X0124121Y0155444D01*
X0121621Y0152944D01*
X0116621Y0152944D01*
X0114121Y0155444D01*
X0111621Y0152944D01*
X0106621Y0152944D01*
X0104121Y0155444D01*
X0101621Y0152944D01*
X0096621Y0152944D01*
X0094121Y0155444D01*
X0094121Y0160444D01*
X0096621Y0162944D01*
X0101621Y0162944D01*
X0104121Y0160444D01*
X0106621Y0162944D01*
X0111621Y0162944D01*
X0114121Y0160444D01*
X0114121Y0155444D01*
X0114121Y0160444D02*
X0116621Y0162944D01*
X0121621Y0162944D01*
X0124121Y0160444D01*
X0126621Y0162944D01*
X0131621Y0162944D01*
X0134121Y0160444D01*
X0134121Y0155444D01*
X0131621Y0152944D01*
X0124121Y0155444D02*
X0124121Y0160444D01*
X0142350Y0160287D02*
X0142350Y0155287D01*
X0144850Y0152787D01*
X0149850Y0152787D01*
X0152350Y0155287D01*
X0154850Y0152787D01*
X0159850Y0152787D01*
X0162350Y0155287D01*
X0164850Y0152787D01*
X0169850Y0152787D01*
X0172350Y0155287D01*
X0174850Y0152787D01*
X0179850Y0152787D01*
X0182350Y0155287D01*
X0184850Y0152787D01*
X0189850Y0152787D01*
X0192350Y0155287D01*
X0192350Y0160287D01*
X0189850Y0162787D01*
X0184850Y0162787D01*
X0182350Y0160287D01*
X0179850Y0162787D01*
X0174850Y0162787D01*
X0172350Y0160287D01*
X0169850Y0162787D01*
X0164850Y0162787D01*
X0162350Y0160287D01*
X0159850Y0162787D01*
X0154850Y0162787D01*
X0152350Y0160287D01*
X0149850Y0162787D01*
X0144850Y0162787D01*
X0142350Y0160287D01*
X0104121Y0160444D02*
X0104121Y0155444D01*
D11*
X0106349Y0146941D02*
X0108651Y0146941D01*
X0109418Y0146174D01*
X0109418Y0144639D01*
X0108651Y0143872D01*
X0106349Y0143872D01*
X0107883Y0143872D02*
X0109418Y0142337D01*
X0110953Y0142337D02*
X0114022Y0145406D01*
X0114022Y0146174D01*
X0113255Y0146941D01*
X0111720Y0146941D01*
X0110953Y0146174D01*
X0110953Y0142337D02*
X0114022Y0142337D01*
X0115557Y0143104D02*
X0116324Y0142337D01*
X0117859Y0142337D01*
X0118626Y0143104D01*
X0118626Y0143872D01*
X0117859Y0144639D01*
X0117091Y0144639D01*
X0117859Y0144639D02*
X0118626Y0145406D01*
X0118626Y0146174D01*
X0117859Y0146941D01*
X0116324Y0146941D01*
X0115557Y0146174D01*
X0120006Y0146249D02*
X0120006Y0147784D01*
X0120774Y0148551D01*
X0121541Y0148551D01*
X0122308Y0147784D01*
X0123076Y0148551D01*
X0123843Y0148551D01*
X0124610Y0147784D01*
X0124610Y0146249D01*
X0123843Y0145482D01*
X0123843Y0143947D02*
X0124610Y0143180D01*
X0124610Y0141645D01*
X0123843Y0140878D01*
X0124610Y0139343D02*
X0123076Y0137809D01*
X0123076Y0138576D02*
X0123076Y0136274D01*
X0124610Y0136274D02*
X0120006Y0136274D01*
X0120006Y0138576D01*
X0120774Y0139343D01*
X0122308Y0139343D01*
X0123076Y0138576D01*
X0120774Y0140878D02*
X0120006Y0141645D01*
X0120006Y0143180D01*
X0120774Y0143947D01*
X0121541Y0143947D01*
X0122308Y0143180D01*
X0123076Y0143947D01*
X0123843Y0143947D01*
X0122308Y0143180D02*
X0122308Y0142413D01*
X0120774Y0145482D02*
X0120006Y0146249D01*
X0122308Y0147016D02*
X0122308Y0147784D01*
X0132526Y0146866D02*
X0134828Y0144565D01*
X0134828Y0147634D01*
X0137130Y0146866D02*
X0132526Y0146866D01*
X0133293Y0143030D02*
X0132526Y0142263D01*
X0132526Y0140728D01*
X0133293Y0139961D01*
X0133293Y0138426D02*
X0134828Y0138426D01*
X0135595Y0137659D01*
X0135595Y0135357D01*
X0135595Y0136891D02*
X0137130Y0138426D01*
X0136363Y0139961D02*
X0137130Y0140728D01*
X0137130Y0142263D01*
X0136363Y0143030D01*
X0135595Y0143030D01*
X0134828Y0142263D01*
X0134828Y0141495D01*
X0134828Y0142263D02*
X0134061Y0143030D01*
X0133293Y0143030D01*
X0133293Y0138426D02*
X0132526Y0137659D01*
X0132526Y0135357D01*
X0137130Y0135357D01*
X0138014Y0141336D02*
X0138014Y0143638D01*
X0138782Y0144406D01*
X0140316Y0144406D01*
X0141083Y0143638D01*
X0141083Y0141336D01*
X0141083Y0142871D02*
X0142618Y0144406D01*
X0141851Y0145940D02*
X0142618Y0146707D01*
X0142618Y0148242D01*
X0141851Y0149009D01*
X0141083Y0149009D01*
X0140316Y0148242D01*
X0140316Y0147475D01*
X0140316Y0148242D02*
X0139549Y0149009D01*
X0138782Y0149009D01*
X0138014Y0148242D01*
X0138014Y0146707D01*
X0138782Y0145940D01*
X0138014Y0141336D02*
X0142618Y0141336D01*
X0149274Y0136326D02*
X0149274Y0134791D01*
X0150041Y0134024D01*
X0150041Y0132489D02*
X0149274Y0131722D01*
X0149274Y0130187D01*
X0150041Y0129420D01*
X0153111Y0129420D01*
X0153878Y0130187D01*
X0153878Y0131722D01*
X0153111Y0132489D01*
X0153878Y0134024D02*
X0150809Y0137093D01*
X0150041Y0137093D01*
X0149274Y0136326D01*
X0153878Y0137093D02*
X0153878Y0134024D01*
X0154457Y0141431D02*
X0152923Y0142966D01*
X0153690Y0142966D02*
X0151388Y0142966D01*
X0151388Y0141431D02*
X0151388Y0146035D01*
X0153690Y0146035D01*
X0154457Y0145268D01*
X0154457Y0143733D01*
X0153690Y0142966D01*
X0155992Y0142199D02*
X0156759Y0141431D01*
X0158294Y0141431D01*
X0159061Y0142199D01*
X0159061Y0142966D01*
X0158294Y0143733D01*
X0157527Y0143733D01*
X0158294Y0143733D02*
X0159061Y0144501D01*
X0159061Y0145268D01*
X0158294Y0146035D01*
X0156759Y0146035D01*
X0155992Y0145268D01*
X0160596Y0146035D02*
X0160596Y0143733D01*
X0162131Y0144501D01*
X0162898Y0144501D01*
X0163665Y0143733D01*
X0163665Y0142199D01*
X0162898Y0141431D01*
X0161363Y0141431D01*
X0160596Y0142199D01*
X0160596Y0146035D02*
X0163665Y0146035D01*
X0168928Y0147563D02*
X0168928Y0149098D01*
X0169695Y0149865D01*
X0170462Y0149865D01*
X0171230Y0149098D01*
X0171230Y0147563D01*
X0170462Y0146796D01*
X0169695Y0146796D01*
X0168928Y0147563D01*
X0171230Y0147563D02*
X0171997Y0146796D01*
X0172764Y0146796D01*
X0173531Y0147563D01*
X0173531Y0149098D01*
X0172764Y0149865D01*
X0171997Y0149865D01*
X0171230Y0149098D01*
X0171997Y0145261D02*
X0172764Y0145261D01*
X0173531Y0144494D01*
X0173531Y0142959D01*
X0172764Y0142192D01*
X0172764Y0140657D02*
X0173531Y0139890D01*
X0173531Y0138356D01*
X0172764Y0137588D01*
X0169695Y0137588D01*
X0168928Y0138356D01*
X0168928Y0139890D01*
X0169695Y0140657D01*
X0169695Y0142192D02*
X0168928Y0142959D01*
X0168928Y0144494D01*
X0169695Y0145261D01*
X0170462Y0145261D01*
X0171230Y0144494D01*
X0171997Y0145261D01*
X0171230Y0144494D02*
X0171230Y0143727D01*
X0166389Y0124508D02*
X0166990Y0123908D01*
X0166990Y0122707D01*
X0166389Y0122106D01*
X0165789Y0122106D01*
X0165188Y0122707D01*
X0165188Y0123908D01*
X0165789Y0124508D01*
X0166389Y0124508D01*
X0165188Y0123908D02*
X0164588Y0124508D01*
X0163987Y0124508D01*
X0163387Y0123908D01*
X0163387Y0122707D01*
X0163987Y0122106D01*
X0164588Y0122106D01*
X0165188Y0122707D01*
X0163987Y0120825D02*
X0163387Y0120225D01*
X0163387Y0119024D01*
X0163987Y0118423D01*
X0166389Y0118423D01*
X0166990Y0119024D01*
X0166990Y0120225D01*
X0166389Y0120825D01*
X0166990Y0117169D02*
X0166990Y0115968D01*
X0166990Y0116568D02*
X0163387Y0116568D01*
X0163387Y0115968D02*
X0163387Y0117169D01*
X0155673Y0109405D02*
X0156440Y0108638D01*
X0153371Y0105569D01*
X0154138Y0104802D01*
X0155673Y0104802D01*
X0156440Y0105569D01*
X0156440Y0108638D01*
X0155673Y0109405D02*
X0154138Y0109405D01*
X0153371Y0108638D01*
X0153371Y0105569D01*
X0151836Y0107104D02*
X0148767Y0107104D01*
X0151069Y0109405D01*
X0151069Y0104802D01*
X0147232Y0104802D02*
X0145698Y0106336D01*
X0146465Y0106336D02*
X0144163Y0106336D01*
X0144163Y0104802D02*
X0144163Y0109405D01*
X0146465Y0109405D01*
X0147232Y0108638D01*
X0147232Y0107104D01*
X0146465Y0106336D01*
X0145950Y0108013D02*
X0145950Y0110315D01*
X0145182Y0111083D01*
X0143648Y0111083D01*
X0142880Y0110315D01*
X0142880Y0108013D01*
X0147484Y0108013D01*
X0145950Y0109548D02*
X0147484Y0111083D01*
X0146717Y0112617D02*
X0147484Y0113385D01*
X0147484Y0114919D01*
X0146717Y0115687D01*
X0145950Y0115687D01*
X0145182Y0114919D01*
X0145182Y0114152D01*
X0145182Y0114919D02*
X0144415Y0115687D01*
X0143648Y0115687D01*
X0142880Y0114919D01*
X0142880Y0113385D01*
X0143648Y0112617D01*
X0143648Y0117221D02*
X0144415Y0117221D01*
X0145182Y0117989D01*
X0145182Y0119523D01*
X0145950Y0120291D01*
X0146717Y0120291D01*
X0147484Y0119523D01*
X0147484Y0117989D01*
X0146717Y0117221D01*
X0145950Y0117221D01*
X0145182Y0117989D01*
X0145182Y0119523D02*
X0144415Y0120291D01*
X0143648Y0120291D01*
X0142880Y0119523D01*
X0142880Y0117989D01*
X0143648Y0117221D01*
X0145485Y0098983D02*
X0145485Y0095913D01*
X0143183Y0098215D01*
X0147787Y0098215D01*
X0147020Y0094379D02*
X0147787Y0093611D01*
X0147787Y0092077D01*
X0147020Y0091309D01*
X0143951Y0091309D01*
X0143183Y0092077D01*
X0143183Y0093611D01*
X0143951Y0094379D01*
X0131706Y0087637D02*
X0131706Y0086103D01*
X0130939Y0085335D01*
X0127870Y0088405D01*
X0130939Y0088405D01*
X0131706Y0087637D01*
X0130939Y0085335D02*
X0127870Y0085335D01*
X0127102Y0086103D01*
X0127102Y0087637D01*
X0127870Y0088405D01*
X0126700Y0090998D02*
X0125166Y0090998D01*
X0124398Y0091766D01*
X0124398Y0093300D02*
X0125933Y0094068D01*
X0126700Y0094068D01*
X0127468Y0093300D01*
X0127468Y0091766D01*
X0126700Y0090998D01*
X0122864Y0090998D02*
X0119794Y0090998D01*
X0122864Y0094068D01*
X0122864Y0094835D01*
X0122096Y0095602D01*
X0120562Y0095602D01*
X0119794Y0094835D01*
X0118260Y0094835D02*
X0117493Y0095602D01*
X0115191Y0095602D01*
X0115191Y0090998D01*
X0115191Y0092533D02*
X0117493Y0092533D01*
X0118260Y0093300D01*
X0118260Y0094835D01*
X0116725Y0092533D02*
X0118260Y0090998D01*
X0118709Y0087532D02*
X0123313Y0087532D01*
X0123313Y0085998D02*
X0123313Y0089067D01*
X0120243Y0085998D02*
X0118709Y0087532D01*
X0118709Y0084463D02*
X0118709Y0081394D01*
X0121011Y0081394D01*
X0120243Y0082928D01*
X0120243Y0083696D01*
X0121011Y0084463D01*
X0122545Y0084463D01*
X0123313Y0083696D01*
X0123313Y0082161D01*
X0122545Y0081394D01*
X0123313Y0079859D02*
X0121778Y0078324D01*
X0121778Y0079092D02*
X0121778Y0076790D01*
X0123313Y0076790D02*
X0118709Y0076790D01*
X0118709Y0079092D01*
X0119476Y0079859D01*
X0121011Y0079859D01*
X0121778Y0079092D01*
X0127102Y0078430D02*
X0127102Y0076128D01*
X0131706Y0076128D01*
X0130172Y0076128D02*
X0130172Y0078430D01*
X0129404Y0079197D01*
X0127870Y0079197D01*
X0127102Y0078430D01*
X0130172Y0077662D02*
X0131706Y0079197D01*
X0130939Y0080731D02*
X0131706Y0081499D01*
X0131706Y0083033D01*
X0130939Y0083801D01*
X0129404Y0083801D01*
X0128637Y0083033D01*
X0128637Y0082266D01*
X0129404Y0080731D01*
X0127102Y0080731D01*
X0127102Y0083801D01*
X0133628Y0079791D02*
X0133628Y0078256D01*
X0134396Y0077489D01*
X0135163Y0077489D01*
X0135930Y0078256D01*
X0135930Y0080558D01*
X0134396Y0080558D02*
X0137465Y0080558D01*
X0138232Y0079791D01*
X0138232Y0078256D01*
X0137465Y0077489D01*
X0135930Y0075954D02*
X0135930Y0072885D01*
X0133628Y0075187D01*
X0138232Y0075187D01*
X0142517Y0071961D02*
X0142517Y0068892D01*
X0143285Y0068124D01*
X0144819Y0068124D01*
X0145587Y0068892D01*
X0147121Y0070426D02*
X0150191Y0070426D01*
X0151725Y0070426D02*
X0154794Y0070426D01*
X0154027Y0068124D02*
X0154027Y0072728D01*
X0151725Y0070426D01*
X0149423Y0068124D02*
X0149423Y0072728D01*
X0147121Y0070426D01*
X0145587Y0071961D02*
X0144819Y0072728D01*
X0143285Y0072728D01*
X0142517Y0071961D01*
X0138232Y0071350D02*
X0136698Y0069816D01*
X0136698Y0070583D02*
X0136698Y0068281D01*
X0138232Y0068281D02*
X0133628Y0068281D01*
X0133628Y0070583D01*
X0134396Y0071350D01*
X0135930Y0071350D01*
X0136698Y0070583D01*
X0134417Y0068040D02*
X0134417Y0067272D01*
X0133650Y0066505D01*
X0132115Y0066505D01*
X0131348Y0067272D01*
X0131348Y0068040D01*
X0132115Y0068807D01*
X0133650Y0068807D01*
X0134417Y0068040D01*
X0133650Y0066505D02*
X0134417Y0065738D01*
X0134417Y0064970D01*
X0133650Y0064203D01*
X0132115Y0064203D01*
X0131348Y0064970D01*
X0131348Y0065738D01*
X0132115Y0066505D01*
X0129813Y0066505D02*
X0126744Y0066505D01*
X0129046Y0068807D01*
X0129046Y0064203D01*
X0125209Y0064203D02*
X0123675Y0065738D01*
X0124442Y0065738D02*
X0122140Y0065738D01*
X0122140Y0064203D02*
X0122140Y0068807D01*
X0124442Y0068807D01*
X0125209Y0068040D01*
X0125209Y0066505D01*
X0124442Y0065738D01*
X0114563Y0075849D02*
X0111494Y0075849D01*
X0110727Y0076616D01*
X0110727Y0078151D01*
X0111494Y0078918D01*
X0113029Y0080453D02*
X0111494Y0081987D01*
X0110727Y0083522D01*
X0113029Y0082755D02*
X0113029Y0080453D01*
X0114563Y0080453D01*
X0115331Y0081220D01*
X0115331Y0082755D01*
X0114563Y0083522D01*
X0113796Y0083522D01*
X0113029Y0082755D01*
X0114563Y0078918D02*
X0115331Y0078151D01*
X0115331Y0076616D01*
X0114563Y0075849D01*
X0107669Y0076522D02*
X0107669Y0074987D01*
X0106902Y0074220D01*
X0103833Y0074220D01*
X0103065Y0074987D01*
X0103065Y0076522D01*
X0103833Y0077289D01*
X0103065Y0078824D02*
X0105367Y0078824D01*
X0104600Y0080358D01*
X0104600Y0081126D01*
X0105367Y0081893D01*
X0106902Y0081893D01*
X0107669Y0081126D01*
X0107669Y0079591D01*
X0106902Y0078824D01*
X0106902Y0077289D02*
X0107669Y0076522D01*
X0103065Y0078824D02*
X0103065Y0081893D01*
X0102327Y0083857D02*
X0097723Y0083857D01*
X0097723Y0086159D01*
X0098490Y0086926D01*
X0100025Y0086926D01*
X0100792Y0086159D01*
X0100792Y0083857D01*
X0100792Y0085391D02*
X0102327Y0086926D01*
X0102327Y0088461D02*
X0099257Y0091530D01*
X0098490Y0091530D01*
X0097723Y0090763D01*
X0097723Y0089228D01*
X0098490Y0088461D01*
X0102327Y0088461D02*
X0102327Y0091530D01*
X0101559Y0093065D02*
X0102327Y0093832D01*
X0102327Y0095366D01*
X0101559Y0096134D01*
X0098490Y0096134D01*
X0097723Y0095366D01*
X0097723Y0093832D01*
X0098490Y0093065D01*
X0099257Y0093065D01*
X0100025Y0093832D01*
X0100025Y0096134D01*
X0105199Y0100274D02*
X0105199Y0104878D01*
X0107501Y0104878D01*
X0108268Y0104111D01*
X0108268Y0102576D01*
X0107501Y0101809D01*
X0105199Y0101809D01*
X0106734Y0101809D02*
X0108268Y0100274D01*
X0109803Y0100274D02*
X0112872Y0103343D01*
X0112872Y0104111D01*
X0112105Y0104878D01*
X0110570Y0104878D01*
X0109803Y0104111D01*
X0109803Y0100274D02*
X0112872Y0100274D01*
X0114407Y0101041D02*
X0114407Y0101809D01*
X0115174Y0102576D01*
X0116709Y0102576D01*
X0117476Y0101809D01*
X0117476Y0101041D01*
X0116709Y0100274D01*
X0115174Y0100274D01*
X0114407Y0101041D01*
X0115174Y0102576D02*
X0114407Y0103343D01*
X0114407Y0104111D01*
X0115174Y0104878D01*
X0116709Y0104878D01*
X0117476Y0104111D01*
X0117476Y0103343D01*
X0116709Y0102576D01*
X0124398Y0095602D02*
X0124398Y0093300D01*
X0124398Y0095602D02*
X0127468Y0095602D01*
X0134396Y0080558D02*
X0133628Y0079791D01*
X0166746Y0072142D02*
X0166746Y0069073D01*
X0167513Y0068306D01*
X0169048Y0068306D01*
X0169815Y0069073D01*
X0171350Y0070607D02*
X0174419Y0070607D01*
X0175954Y0070607D02*
X0175954Y0069073D01*
X0176721Y0068306D01*
X0178255Y0068306D01*
X0179023Y0069073D01*
X0179023Y0069840D01*
X0178255Y0070607D01*
X0175954Y0070607D01*
X0177488Y0072142D01*
X0179023Y0072909D01*
X0173652Y0072909D02*
X0173652Y0068306D01*
X0171350Y0070607D02*
X0173652Y0072909D01*
X0169815Y0072142D02*
X0169048Y0072909D01*
X0167513Y0072909D01*
X0166746Y0072142D01*
X0172959Y0050339D02*
X0177563Y0050339D01*
X0177563Y0051873D02*
X0177563Y0048804D01*
X0176796Y0047269D02*
X0177563Y0046502D01*
X0177563Y0044967D01*
X0176796Y0044200D01*
X0173726Y0044200D01*
X0172959Y0044967D01*
X0172959Y0046502D01*
X0173726Y0047269D01*
X0174494Y0048804D02*
X0172959Y0050339D01*
X0172959Y0042665D02*
X0172959Y0041131D01*
X0172959Y0041898D02*
X0177563Y0041898D01*
X0177563Y0041131D02*
X0177563Y0042665D01*
X0177951Y0028571D02*
X0174882Y0028571D01*
X0174882Y0026269D01*
X0176417Y0027036D01*
X0177184Y0027036D01*
X0177951Y0026269D01*
X0177951Y0024734D01*
X0177184Y0023967D01*
X0175649Y0023967D01*
X0174882Y0024734D01*
X0173347Y0024734D02*
X0172580Y0023967D01*
X0171045Y0023967D01*
X0170278Y0024734D01*
X0170278Y0027804D01*
X0171045Y0028571D01*
X0172580Y0028571D01*
X0173347Y0027804D01*
X0179486Y0026269D02*
X0182555Y0026269D01*
X0181788Y0023967D02*
X0181788Y0028571D01*
X0179486Y0026269D01*
X0158000Y0025993D02*
X0158000Y0024459D01*
X0157233Y0023691D01*
X0155698Y0023691D01*
X0154931Y0024459D01*
X0154931Y0025993D02*
X0156465Y0026761D01*
X0157233Y0026761D01*
X0158000Y0025993D01*
X0158000Y0028295D02*
X0154931Y0028295D01*
X0154931Y0025993D01*
X0153396Y0025993D02*
X0150327Y0025993D01*
X0152629Y0028295D01*
X0152629Y0023691D01*
X0148792Y0024459D02*
X0148025Y0023691D01*
X0146490Y0023691D01*
X0145723Y0024459D01*
X0145723Y0027528D01*
X0146490Y0028295D01*
X0148025Y0028295D01*
X0148792Y0027528D01*
X0142524Y0025753D02*
X0140989Y0024218D01*
X0140989Y0024985D02*
X0140989Y0022683D01*
X0142524Y0022683D02*
X0137920Y0022683D01*
X0137920Y0024985D01*
X0138687Y0025753D01*
X0140222Y0025753D01*
X0140989Y0024985D01*
X0140222Y0027287D02*
X0140222Y0030357D01*
X0140222Y0031891D02*
X0137920Y0031891D01*
X0137920Y0034961D01*
X0139454Y0034193D02*
X0140222Y0034961D01*
X0141756Y0034961D01*
X0142524Y0034193D01*
X0142524Y0032659D01*
X0141756Y0031891D01*
X0140222Y0031891D02*
X0139454Y0033426D01*
X0139454Y0034193D01*
X0137920Y0029589D02*
X0140222Y0027287D01*
X0142524Y0029589D02*
X0137920Y0029589D01*
X0137636Y0019873D02*
X0136869Y0019106D01*
X0136869Y0016804D01*
X0138404Y0016804D01*
X0139171Y0017571D01*
X0139171Y0019106D01*
X0138404Y0019873D01*
X0137636Y0019873D01*
X0135334Y0018339D02*
X0136869Y0016804D01*
X0136869Y0015269D02*
X0136869Y0012200D01*
X0134567Y0014502D01*
X0139171Y0014502D01*
X0135334Y0018339D02*
X0134567Y0019873D01*
X0128272Y0017285D02*
X0123668Y0017285D01*
X0125970Y0014983D01*
X0125970Y0018052D01*
X0121291Y0017328D02*
X0120524Y0017328D01*
X0117455Y0020398D01*
X0116687Y0020398D01*
X0116687Y0017328D01*
X0116687Y0015026D02*
X0118989Y0012724D01*
X0118989Y0015794D01*
X0121291Y0015026D02*
X0116687Y0015026D01*
X0113756Y0015089D02*
X0113756Y0013554D01*
X0112989Y0012787D01*
X0109919Y0012787D01*
X0109152Y0013554D01*
X0109152Y0015089D01*
X0109919Y0015856D01*
X0109152Y0017391D02*
X0109152Y0020460D01*
X0109919Y0020460D01*
X0112989Y0017391D01*
X0113756Y0017391D01*
X0112989Y0015856D02*
X0113756Y0015089D01*
X0117455Y0011190D02*
X0118989Y0011190D01*
X0119757Y0010422D01*
X0119757Y0008120D01*
X0121291Y0008120D02*
X0116687Y0008120D01*
X0116687Y0010422D01*
X0117455Y0011190D01*
X0119757Y0009655D02*
X0121291Y0011190D01*
X0123668Y0012681D02*
X0125970Y0010379D01*
X0125970Y0013448D01*
X0128272Y0012681D02*
X0123668Y0012681D01*
X0124435Y0008844D02*
X0125970Y0008844D01*
X0126737Y0008077D01*
X0126737Y0005775D01*
X0126737Y0007309D02*
X0128272Y0008844D01*
X0128272Y0005775D02*
X0123668Y0005775D01*
X0123668Y0008077D01*
X0124435Y0008844D01*
X0134567Y0009898D02*
X0134567Y0007596D01*
X0139171Y0007596D01*
X0137636Y0007596D02*
X0137636Y0009898D01*
X0136869Y0010665D01*
X0135334Y0010665D01*
X0134567Y0009898D01*
X0137636Y0009131D02*
X0139171Y0010665D01*
X0105988Y0010510D02*
X0105221Y0011277D01*
X0105988Y0010510D02*
X0105988Y0008975D01*
X0105221Y0008208D01*
X0102152Y0008208D01*
X0101384Y0008975D01*
X0101384Y0010510D01*
X0102152Y0011277D01*
X0102152Y0012812D02*
X0101384Y0013579D01*
X0101384Y0015114D01*
X0102152Y0015881D01*
X0102919Y0015881D01*
X0103686Y0015114D01*
X0103686Y0013579D01*
X0102919Y0012812D01*
X0102152Y0012812D01*
X0103686Y0013579D02*
X0104454Y0012812D01*
X0105221Y0012812D01*
X0105988Y0013579D01*
X0105988Y0015114D01*
X0105221Y0015881D01*
X0104454Y0015881D01*
X0103686Y0015114D01*
X0124029Y0041786D02*
X0124029Y0042987D01*
X0124029Y0042387D02*
X0127632Y0042387D01*
X0127632Y0042987D02*
X0127632Y0041786D01*
X0127032Y0044242D02*
X0127632Y0044842D01*
X0127632Y0046043D01*
X0127032Y0046644D01*
X0127032Y0047925D02*
X0127632Y0048525D01*
X0127632Y0049726D01*
X0127032Y0050327D01*
X0125831Y0050327D01*
X0125230Y0049726D01*
X0125230Y0049126D01*
X0125831Y0047925D01*
X0124029Y0047925D01*
X0124029Y0050327D01*
X0124630Y0046644D02*
X0124029Y0046043D01*
X0124029Y0044842D01*
X0124630Y0044242D01*
X0127032Y0044242D01*
X0149337Y0044007D02*
X0150104Y0043239D01*
X0153174Y0043239D01*
X0153941Y0044007D01*
X0153941Y0045541D01*
X0153174Y0046309D01*
X0153941Y0047843D02*
X0150872Y0050913D01*
X0150104Y0050913D01*
X0149337Y0050145D01*
X0149337Y0048611D01*
X0150104Y0047843D01*
X0150104Y0046309D02*
X0149337Y0045541D01*
X0149337Y0044007D01*
X0149337Y0041705D02*
X0149337Y0040170D01*
X0149337Y0040937D02*
X0153941Y0040937D01*
X0153941Y0040170D02*
X0153941Y0041705D01*
X0153941Y0047843D02*
X0153941Y0050913D01*
X0100555Y0051448D02*
X0100555Y0048379D01*
X0100555Y0049913D02*
X0095951Y0049913D01*
X0097486Y0048379D01*
X0096719Y0046844D02*
X0098253Y0046844D01*
X0099020Y0046077D01*
X0099020Y0043775D01*
X0099020Y0045309D02*
X0100555Y0046844D01*
X0100555Y0043775D02*
X0095951Y0043775D01*
X0095951Y0046077D01*
X0096719Y0046844D01*
X0086437Y0048354D02*
X0085670Y0047587D01*
X0086437Y0048354D02*
X0086437Y0049889D01*
X0085670Y0050656D01*
X0084135Y0050656D01*
X0083368Y0049889D01*
X0083368Y0049121D01*
X0084135Y0047587D01*
X0081833Y0047587D01*
X0081833Y0050656D01*
X0083368Y0052191D02*
X0081833Y0053725D01*
X0086437Y0053725D01*
X0086437Y0052191D02*
X0086437Y0055260D01*
X0085670Y0046052D02*
X0086437Y0045285D01*
X0086437Y0043750D01*
X0085670Y0042983D01*
X0082600Y0042983D01*
X0081833Y0043750D01*
X0081833Y0045285D01*
X0082600Y0046052D01*
X0082939Y0083203D02*
X0082939Y0083970D01*
X0086008Y0087040D01*
X0086008Y0087807D01*
X0082939Y0087807D01*
X0082545Y0087928D02*
X0082545Y0088695D01*
X0085614Y0091764D01*
X0085614Y0092531D01*
X0082545Y0092531D01*
X0081010Y0091764D02*
X0081010Y0090997D01*
X0080243Y0090230D01*
X0081010Y0089462D01*
X0081010Y0088695D01*
X0080243Y0087928D01*
X0078708Y0087928D01*
X0077941Y0088695D01*
X0076406Y0088695D02*
X0075639Y0087928D01*
X0074104Y0087928D01*
X0073337Y0088695D01*
X0073337Y0091764D01*
X0074104Y0092531D01*
X0075639Y0092531D01*
X0076406Y0091764D01*
X0076382Y0092652D02*
X0077917Y0092652D01*
X0078684Y0093419D01*
X0078684Y0094187D01*
X0077917Y0094954D01*
X0075615Y0094954D01*
X0075615Y0093419D01*
X0076382Y0092652D01*
X0077941Y0091764D02*
X0078708Y0092531D01*
X0080243Y0092531D01*
X0081010Y0091764D01*
X0080243Y0090230D02*
X0079476Y0090230D01*
X0079869Y0087807D02*
X0079869Y0083203D01*
X0078335Y0083203D02*
X0081404Y0083203D01*
X0078335Y0086272D02*
X0079869Y0087807D01*
X0076800Y0087040D02*
X0076800Y0085505D01*
X0076033Y0084738D01*
X0073731Y0084738D01*
X0075265Y0084738D02*
X0076800Y0083203D01*
X0073731Y0083203D02*
X0073731Y0087807D01*
X0076033Y0087807D01*
X0076800Y0087040D01*
X0074080Y0092652D02*
X0071011Y0092652D01*
X0069476Y0092652D02*
X0067942Y0094187D01*
X0068709Y0094187D02*
X0066407Y0094187D01*
X0066407Y0092652D02*
X0066407Y0097256D01*
X0068709Y0097256D01*
X0069476Y0096489D01*
X0069476Y0094954D01*
X0068709Y0094187D01*
X0071011Y0095721D02*
X0072546Y0097256D01*
X0072546Y0092652D01*
X0075615Y0094954D02*
X0077150Y0096489D01*
X0078684Y0097256D01*
X0080151Y0098770D02*
X0080151Y0103374D01*
X0082453Y0103374D01*
X0083220Y0102607D01*
X0083220Y0101072D01*
X0082453Y0100305D01*
X0080151Y0100305D01*
X0081686Y0100305D02*
X0083220Y0098770D01*
X0084755Y0098770D02*
X0087824Y0101839D01*
X0087824Y0102607D01*
X0087057Y0103374D01*
X0085522Y0103374D01*
X0084755Y0102607D01*
X0084755Y0098770D02*
X0087824Y0098770D01*
X0089359Y0098770D02*
X0092428Y0098770D01*
X0090894Y0098770D02*
X0090894Y0103374D01*
X0089359Y0101839D01*
X0096104Y0109140D02*
X0096104Y0113744D01*
X0098406Y0113744D01*
X0099173Y0112977D01*
X0099173Y0111442D01*
X0098406Y0110675D01*
X0096104Y0110675D01*
X0097639Y0110675D02*
X0099173Y0109140D01*
X0100708Y0109140D02*
X0103777Y0112209D01*
X0103777Y0112977D01*
X0103010Y0113744D01*
X0101475Y0113744D01*
X0100708Y0112977D01*
X0105312Y0113744D02*
X0108381Y0113744D01*
X0108381Y0112977D01*
X0105312Y0109907D01*
X0105312Y0109140D01*
X0103777Y0109140D02*
X0100708Y0109140D01*
X0088746Y0115913D02*
X0088746Y0117114D01*
X0088746Y0116513D02*
X0085143Y0116513D01*
X0085143Y0115913D02*
X0085143Y0117114D01*
X0085743Y0118368D02*
X0088145Y0118368D01*
X0088746Y0118969D01*
X0088746Y0120170D01*
X0088145Y0120770D01*
X0088145Y0122051D02*
X0088746Y0122652D01*
X0088746Y0123853D01*
X0088145Y0124453D01*
X0087545Y0124453D01*
X0086944Y0123853D01*
X0086944Y0122051D01*
X0088145Y0122051D01*
X0086944Y0122051D02*
X0085743Y0123252D01*
X0085143Y0124453D01*
X0085743Y0120770D02*
X0085143Y0120170D01*
X0085143Y0118969D01*
X0085743Y0118368D01*
X0077949Y0118306D02*
X0073345Y0118306D01*
X0074880Y0116772D01*
X0074112Y0115237D02*
X0073345Y0114470D01*
X0073345Y0112935D01*
X0074112Y0112168D01*
X0077182Y0112168D01*
X0077949Y0112935D01*
X0077949Y0114470D01*
X0077182Y0115237D01*
X0077949Y0116772D02*
X0077949Y0119841D01*
X0077182Y0121376D02*
X0075647Y0121376D01*
X0075647Y0123678D01*
X0076414Y0124445D01*
X0077182Y0124445D01*
X0077949Y0123678D01*
X0077949Y0122143D01*
X0077182Y0121376D01*
X0075647Y0121376D02*
X0074112Y0122910D01*
X0073345Y0124445D01*
X0072738Y0128542D02*
X0069669Y0128542D01*
X0072738Y0131611D01*
X0072738Y0132378D01*
X0071970Y0133146D01*
X0070436Y0133146D01*
X0069669Y0132378D01*
X0068134Y0132378D02*
X0068134Y0130844D01*
X0067367Y0130076D01*
X0065065Y0130076D01*
X0066599Y0130076D02*
X0068134Y0128542D01*
X0065065Y0128542D02*
X0065065Y0133146D01*
X0067367Y0133146D01*
X0068134Y0132378D01*
X0064608Y0134415D02*
X0064608Y0135950D01*
X0063841Y0136717D01*
X0064608Y0138252D02*
X0061539Y0141321D01*
X0060771Y0141321D01*
X0060004Y0140554D01*
X0060004Y0139019D01*
X0060771Y0138252D01*
X0060771Y0136717D02*
X0060004Y0135950D01*
X0060004Y0134415D01*
X0060771Y0133648D01*
X0063841Y0133648D01*
X0064608Y0134415D01*
X0064608Y0138252D02*
X0064608Y0141321D01*
X0064076Y0140746D02*
X0065611Y0140746D01*
X0066378Y0141514D01*
X0067913Y0141514D02*
X0068680Y0140746D01*
X0070215Y0140746D01*
X0070982Y0141514D01*
X0070982Y0142281D01*
X0070215Y0143048D01*
X0069447Y0143048D01*
X0070215Y0143048D02*
X0070982Y0143816D01*
X0070982Y0144583D01*
X0070215Y0145350D01*
X0068680Y0145350D01*
X0067913Y0144583D01*
X0066378Y0144583D02*
X0065611Y0145350D01*
X0064076Y0145350D01*
X0063309Y0144583D01*
X0063309Y0141514D01*
X0064076Y0140746D01*
X0064608Y0142856D02*
X0064608Y0145925D01*
X0064608Y0144391D02*
X0060004Y0144391D01*
X0061539Y0142856D01*
X0057282Y0136232D02*
X0055747Y0135465D01*
X0054213Y0133930D01*
X0056515Y0133930D01*
X0057282Y0133163D01*
X0057282Y0132396D01*
X0056515Y0131628D01*
X0054980Y0131628D01*
X0054213Y0132396D01*
X0054213Y0133930D01*
X0052678Y0133930D02*
X0052678Y0135465D01*
X0051911Y0136232D01*
X0049609Y0136232D01*
X0049609Y0131628D01*
X0049609Y0133163D02*
X0051911Y0133163D01*
X0052678Y0133930D01*
X0051143Y0133163D02*
X0052678Y0131628D01*
X0039154Y0131930D02*
X0038386Y0132697D01*
X0036852Y0132697D01*
X0036084Y0131930D01*
X0036618Y0133199D02*
X0035083Y0133199D01*
X0034316Y0133967D01*
X0033782Y0132697D02*
X0034550Y0131930D01*
X0034550Y0130395D01*
X0033782Y0129628D01*
X0031480Y0129628D01*
X0033015Y0129628D02*
X0034550Y0128093D01*
X0036084Y0128093D02*
X0039154Y0131162D01*
X0039154Y0131930D01*
X0037385Y0133967D02*
X0037385Y0137036D01*
X0036618Y0137803D01*
X0035083Y0137803D01*
X0034316Y0137036D01*
X0034316Y0136268D01*
X0035083Y0135501D01*
X0037385Y0135501D01*
X0037385Y0133967D02*
X0036618Y0133199D01*
X0033782Y0132697D02*
X0031480Y0132697D01*
X0031480Y0128093D01*
X0036084Y0128093D02*
X0039154Y0128093D01*
X0032781Y0133967D02*
X0032014Y0133199D01*
X0030479Y0133199D01*
X0029712Y0133967D01*
X0029712Y0137036D01*
X0030479Y0137803D01*
X0032014Y0137803D01*
X0032781Y0137036D01*
X0022905Y0136347D02*
X0022905Y0133278D01*
X0022137Y0132510D01*
X0020603Y0132510D01*
X0019835Y0133278D01*
X0022905Y0136347D01*
X0022137Y0137114D01*
X0020603Y0137114D01*
X0019835Y0136347D01*
X0019835Y0133278D01*
X0018301Y0132510D02*
X0015231Y0132510D01*
X0016766Y0132510D02*
X0016766Y0137114D01*
X0015231Y0135580D01*
X0013697Y0136347D02*
X0012930Y0137114D01*
X0011395Y0137114D01*
X0010628Y0136347D01*
X0010628Y0133278D01*
X0011395Y0132510D01*
X0012930Y0132510D01*
X0013697Y0133278D01*
X0012870Y0130874D02*
X0011336Y0130874D01*
X0010569Y0130107D01*
X0010569Y0127037D01*
X0011336Y0126270D01*
X0012870Y0126270D01*
X0013638Y0127037D01*
X0013944Y0126150D02*
X0013176Y0125382D01*
X0013944Y0126150D02*
X0015478Y0126150D01*
X0016246Y0125382D01*
X0016246Y0124615D01*
X0013176Y0121546D01*
X0016246Y0121546D01*
X0017780Y0122313D02*
X0018548Y0121546D01*
X0020082Y0121546D01*
X0020850Y0122313D01*
X0020850Y0123080D01*
X0020082Y0123848D01*
X0017780Y0123848D01*
X0017780Y0122313D01*
X0017780Y0123848D02*
X0019315Y0125382D01*
X0020850Y0126150D01*
X0022078Y0126270D02*
X0022078Y0130874D01*
X0019776Y0128572D01*
X0022846Y0128572D01*
X0018242Y0126270D02*
X0015172Y0126270D01*
X0016707Y0126270D02*
X0016707Y0130874D01*
X0015172Y0129339D01*
X0013638Y0130107D02*
X0012870Y0130874D01*
X0010874Y0126150D02*
X0009340Y0126150D01*
X0008572Y0125382D01*
X0008572Y0122313D01*
X0009340Y0121546D01*
X0010874Y0121546D01*
X0011642Y0122313D01*
X0011642Y0125382D02*
X0010874Y0126150D01*
X0009378Y0118083D02*
X0007844Y0118083D01*
X0007076Y0117315D01*
X0007076Y0114246D01*
X0007844Y0113479D01*
X0009378Y0113479D01*
X0010146Y0114246D01*
X0009549Y0113012D02*
X0008782Y0112244D01*
X0008782Y0109175D01*
X0009549Y0108408D01*
X0011084Y0108408D01*
X0011851Y0109175D01*
X0013386Y0109175D02*
X0014153Y0108408D01*
X0015688Y0108408D01*
X0016455Y0109175D01*
X0016455Y0109943D01*
X0015688Y0110710D01*
X0014920Y0110710D01*
X0015688Y0110710D02*
X0016455Y0111477D01*
X0016455Y0112244D01*
X0015688Y0113012D01*
X0014153Y0113012D01*
X0013386Y0112244D01*
X0011851Y0112244D02*
X0011084Y0113012D01*
X0009549Y0113012D01*
X0011680Y0113479D02*
X0014750Y0116548D01*
X0014750Y0117315D01*
X0013982Y0118083D01*
X0012448Y0118083D01*
X0011680Y0117315D01*
X0010146Y0117315D02*
X0009378Y0118083D01*
X0011680Y0113479D02*
X0014750Y0113479D01*
X0016284Y0113479D02*
X0016284Y0114246D01*
X0019354Y0117315D01*
X0019354Y0118083D01*
X0016284Y0118083D01*
X0020292Y0113012D02*
X0017990Y0110710D01*
X0021059Y0110710D01*
X0020292Y0108408D02*
X0020292Y0113012D01*
X0010858Y0104074D02*
X0010091Y0104842D01*
X0009324Y0104842D01*
X0008556Y0104074D01*
X0008556Y0103307D01*
X0008556Y0104074D02*
X0007789Y0104842D01*
X0007022Y0104842D01*
X0006254Y0104074D01*
X0006254Y0102540D01*
X0007022Y0101772D01*
X0010091Y0101772D02*
X0010858Y0102540D01*
X0010858Y0104074D01*
X0010858Y0100238D02*
X0010858Y0097168D01*
X0010858Y0098703D02*
X0006254Y0098703D01*
X0007789Y0097168D01*
X0007022Y0095634D02*
X0006254Y0094867D01*
X0006254Y0093332D01*
X0007022Y0092565D01*
X0010091Y0092565D01*
X0010858Y0093332D01*
X0010858Y0094867D01*
X0010091Y0095634D01*
X0010858Y0091030D02*
X0010858Y0089495D01*
X0010858Y0090263D02*
X0006254Y0090263D01*
X0006254Y0091030D02*
X0006254Y0089495D01*
X0021117Y0087457D02*
X0021117Y0084388D01*
X0021884Y0083620D01*
X0023418Y0083620D01*
X0024186Y0084388D01*
X0025720Y0084388D02*
X0026488Y0083620D01*
X0028022Y0083620D01*
X0028790Y0084388D01*
X0028790Y0085155D01*
X0028022Y0085922D01*
X0027255Y0085922D01*
X0028022Y0085922D02*
X0028790Y0086690D01*
X0028790Y0087457D01*
X0028022Y0088224D01*
X0026488Y0088224D01*
X0025720Y0087457D01*
X0024186Y0087457D02*
X0023418Y0088224D01*
X0021884Y0088224D01*
X0021117Y0087457D01*
X0030324Y0087457D02*
X0031092Y0088224D01*
X0032626Y0088224D01*
X0033394Y0087457D01*
X0033394Y0086690D01*
X0030324Y0083620D01*
X0033394Y0083620D01*
X0033332Y0091006D02*
X0033332Y0093307D01*
X0032564Y0094075D01*
X0031030Y0094075D01*
X0030262Y0093307D01*
X0030262Y0091006D01*
X0034866Y0091006D01*
X0035683Y0091109D02*
X0035683Y0095713D01*
X0037985Y0095713D01*
X0038753Y0094945D01*
X0038753Y0093411D01*
X0037985Y0092643D01*
X0035683Y0092643D01*
X0037218Y0092643D02*
X0038753Y0091109D01*
X0040287Y0091876D02*
X0041055Y0091109D01*
X0042589Y0091109D01*
X0043357Y0091876D01*
X0043357Y0093411D01*
X0042589Y0094178D01*
X0041822Y0094178D01*
X0040287Y0093411D01*
X0040287Y0095713D01*
X0043357Y0095713D01*
X0047695Y0094854D02*
X0049996Y0094854D01*
X0050764Y0094087D01*
X0050764Y0092552D01*
X0049996Y0091785D01*
X0047695Y0091785D01*
X0049229Y0091785D02*
X0050764Y0090250D01*
X0052298Y0090250D02*
X0055368Y0090250D01*
X0056902Y0090250D02*
X0059972Y0093320D01*
X0059972Y0094087D01*
X0059204Y0094854D01*
X0057670Y0094854D01*
X0056902Y0094087D01*
X0053833Y0094854D02*
X0053833Y0090250D01*
X0056902Y0090250D02*
X0059972Y0090250D01*
X0062490Y0096002D02*
X0065559Y0096002D01*
X0066327Y0096769D01*
X0066327Y0098304D01*
X0065559Y0099071D01*
X0066327Y0100606D02*
X0063257Y0103675D01*
X0062490Y0103675D01*
X0061723Y0102907D01*
X0061723Y0101373D01*
X0062490Y0100606D01*
X0062490Y0099071D02*
X0061723Y0098304D01*
X0061723Y0096769D01*
X0062490Y0096002D01*
X0066327Y0100606D02*
X0066327Y0103675D01*
X0065559Y0105209D02*
X0066327Y0105977D01*
X0066327Y0107511D01*
X0065559Y0108279D01*
X0064792Y0108279D01*
X0064025Y0107511D01*
X0064025Y0106744D01*
X0064025Y0107511D02*
X0063257Y0108279D01*
X0062490Y0108279D01*
X0061723Y0107511D01*
X0061723Y0105977D01*
X0062490Y0105209D01*
X0057057Y0111400D02*
X0053988Y0111400D01*
X0052454Y0111400D02*
X0049384Y0111400D01*
X0050919Y0111400D02*
X0050919Y0116004D01*
X0049384Y0114469D01*
X0047850Y0115237D02*
X0047082Y0116004D01*
X0045548Y0116004D01*
X0044780Y0115237D01*
X0044780Y0112167D01*
X0045548Y0111400D01*
X0047082Y0111400D01*
X0047850Y0112167D01*
X0043246Y0111400D02*
X0041711Y0111400D01*
X0042478Y0111400D02*
X0042478Y0116004D01*
X0041711Y0116004D02*
X0043246Y0116004D01*
X0053988Y0114469D02*
X0055523Y0116004D01*
X0055523Y0111400D01*
X0061199Y0113976D02*
X0061199Y0116278D01*
X0061967Y0117045D01*
X0063501Y0117045D01*
X0064269Y0116278D01*
X0064269Y0113976D01*
X0065803Y0113976D02*
X0061199Y0113976D01*
X0064269Y0115510D02*
X0065803Y0117045D01*
X0065036Y0118580D02*
X0065803Y0119347D01*
X0065803Y0120881D01*
X0065036Y0121649D01*
X0061967Y0121649D01*
X0061199Y0120881D01*
X0061199Y0119347D01*
X0061967Y0118580D01*
X0062734Y0118580D01*
X0063501Y0119347D01*
X0063501Y0121649D01*
X0074272Y0128542D02*
X0077342Y0131611D01*
X0077342Y0132378D01*
X0076574Y0133146D01*
X0075040Y0133146D01*
X0074272Y0132378D01*
X0074272Y0128542D02*
X0077342Y0128542D01*
X0076614Y0136416D02*
X0075080Y0137950D01*
X0075847Y0137950D02*
X0073545Y0137950D01*
X0073545Y0136416D02*
X0073545Y0141020D01*
X0075847Y0141020D01*
X0076614Y0140252D01*
X0076614Y0138718D01*
X0075847Y0137950D01*
X0078149Y0136416D02*
X0081218Y0139485D01*
X0081218Y0140252D01*
X0080451Y0141020D01*
X0078916Y0141020D01*
X0078149Y0140252D01*
X0075586Y0141514D02*
X0075586Y0144583D01*
X0074818Y0145350D01*
X0073284Y0145350D01*
X0072517Y0144583D01*
X0072517Y0143816D01*
X0073284Y0143048D01*
X0075586Y0143048D01*
X0075586Y0141514D02*
X0074818Y0140746D01*
X0073284Y0140746D01*
X0072517Y0141514D01*
X0078149Y0136416D02*
X0081218Y0136416D01*
X0082753Y0138718D02*
X0085822Y0138718D01*
X0085055Y0136416D02*
X0085055Y0141020D01*
X0082753Y0138718D01*
X0099219Y0135949D02*
X0099986Y0136716D01*
X0100754Y0136716D01*
X0101521Y0135949D01*
X0102288Y0136716D01*
X0103056Y0136716D01*
X0103823Y0135949D01*
X0103823Y0134415D01*
X0103056Y0133647D01*
X0103823Y0132113D02*
X0103823Y0129043D01*
X0103823Y0127509D02*
X0102288Y0125974D01*
X0102288Y0126741D02*
X0102288Y0124439D01*
X0103823Y0124439D02*
X0099219Y0124439D01*
X0099219Y0126741D01*
X0099986Y0127509D01*
X0101521Y0127509D01*
X0102288Y0126741D01*
X0104652Y0126781D02*
X0104652Y0125246D01*
X0105419Y0124479D01*
X0108489Y0124479D01*
X0109256Y0125246D01*
X0109256Y0126781D01*
X0108489Y0127548D01*
X0109256Y0129083D02*
X0109256Y0132152D01*
X0109256Y0130617D02*
X0104652Y0130617D01*
X0106187Y0129083D01*
X0105419Y0127548D02*
X0104652Y0126781D01*
X0103823Y0130578D02*
X0099219Y0130578D01*
X0100754Y0129043D01*
X0099986Y0133647D02*
X0099219Y0134415D01*
X0099219Y0135949D01*
X0101521Y0135949D02*
X0101521Y0135182D01*
X0106349Y0142337D02*
X0106349Y0146941D01*
X0118717Y0124508D02*
X0119318Y0124508D01*
X0121720Y0122106D01*
X0122320Y0122106D01*
X0121720Y0120825D02*
X0122320Y0120225D01*
X0122320Y0119024D01*
X0121720Y0118423D01*
X0119318Y0118423D01*
X0118717Y0119024D01*
X0118717Y0120225D01*
X0119318Y0120825D01*
X0118717Y0122106D02*
X0118717Y0124508D01*
X0118717Y0117169D02*
X0118717Y0115968D01*
X0118717Y0116568D02*
X0122320Y0116568D01*
X0122320Y0115968D02*
X0122320Y0117169D01*
X0140316Y0150544D02*
X0138782Y0152079D01*
X0138014Y0153613D01*
X0140316Y0152846D02*
X0140316Y0150544D01*
X0141851Y0150544D01*
X0142618Y0151311D01*
X0142618Y0152846D01*
X0141851Y0153613D01*
X0141083Y0153613D01*
X0140316Y0152846D01*
X0184652Y0120881D02*
X0184652Y0117812D01*
X0185419Y0116277D02*
X0186187Y0116277D01*
X0186954Y0115510D01*
X0187721Y0116277D01*
X0188489Y0116277D01*
X0189256Y0115510D01*
X0189256Y0113975D01*
X0188489Y0113208D01*
X0189256Y0111673D02*
X0187721Y0110139D01*
X0187721Y0110906D02*
X0187721Y0108604D01*
X0189256Y0108604D02*
X0184652Y0108604D01*
X0184652Y0110906D01*
X0185419Y0111673D01*
X0186954Y0111673D01*
X0187721Y0110906D01*
X0185419Y0113208D02*
X0184652Y0113975D01*
X0184652Y0115510D01*
X0185419Y0116277D01*
X0186954Y0115510D02*
X0186954Y0114743D01*
X0188489Y0117812D02*
X0189256Y0117812D01*
X0188489Y0117812D02*
X0185419Y0120881D01*
X0184652Y0120881D01*
X0053833Y0094854D02*
X0052298Y0093320D01*
X0047695Y0094854D02*
X0047695Y0090250D01*
X0034866Y0094075D02*
X0033332Y0092540D01*
X0034866Y0095609D02*
X0034866Y0098679D01*
X0034866Y0097144D02*
X0030262Y0097144D01*
X0031797Y0095609D01*
X0031797Y0100213D02*
X0031030Y0100213D01*
X0030262Y0100981D01*
X0030262Y0102515D01*
X0031030Y0103283D01*
X0034099Y0103283D01*
X0034866Y0102515D01*
X0034866Y0100981D01*
X0034099Y0100213D01*
X0032564Y0100981D02*
X0032564Y0103283D01*
X0032564Y0100981D02*
X0031797Y0100213D01*
X0026736Y0070917D02*
X0025201Y0070917D01*
X0024434Y0070150D01*
X0022899Y0070150D02*
X0022899Y0068615D01*
X0022132Y0067848D01*
X0019830Y0067848D01*
X0021365Y0067848D02*
X0022899Y0066313D01*
X0024434Y0067081D02*
X0025201Y0066313D01*
X0026736Y0066313D01*
X0027503Y0067081D01*
X0027503Y0067848D01*
X0026736Y0068615D01*
X0025968Y0068615D01*
X0026736Y0068615D02*
X0027503Y0069383D01*
X0027503Y0070150D01*
X0026736Y0070917D01*
X0022899Y0070150D02*
X0022132Y0070917D01*
X0019830Y0070917D01*
X0019830Y0066313D01*
D12*
X0024426Y0023756D02*
X0024426Y0022254D01*
X0024426Y0023005D02*
X0028180Y0023005D01*
X0028930Y0022254D01*
X0028930Y0021504D01*
X0028180Y0020753D01*
X0028930Y0025357D02*
X0024426Y0025357D01*
X0024426Y0027609D01*
X0025177Y0028360D01*
X0026678Y0028360D01*
X0027429Y0027609D01*
X0027429Y0025357D01*
X0028180Y0029961D02*
X0028930Y0030712D01*
X0028930Y0032213D01*
X0028180Y0032964D01*
X0027429Y0032964D01*
X0026678Y0032213D01*
X0026678Y0031462D01*
X0026678Y0032213D02*
X0025928Y0032964D01*
X0025177Y0032964D01*
X0024426Y0032213D01*
X0024426Y0030712D01*
X0025177Y0029961D01*
X0036714Y0032807D02*
X0037464Y0032056D01*
X0038966Y0032056D01*
X0039716Y0032807D01*
X0039716Y0033558D01*
X0038966Y0034308D01*
X0037464Y0034308D01*
X0036714Y0035059D01*
X0036714Y0035809D01*
X0037464Y0036560D01*
X0038966Y0036560D01*
X0039716Y0035809D01*
X0041318Y0036560D02*
X0041318Y0033558D01*
X0042819Y0032056D01*
X0044320Y0033558D01*
X0044320Y0036560D01*
X0045922Y0035809D02*
X0046672Y0036560D01*
X0048174Y0036560D01*
X0048924Y0035809D01*
X0048924Y0035059D01*
X0045922Y0032056D01*
X0048924Y0032056D01*
X0038215Y0018560D02*
X0038215Y0014056D01*
X0036714Y0014056D02*
X0039716Y0014056D01*
X0036714Y0017059D02*
X0038215Y0018560D01*
X0086714Y0032807D02*
X0087464Y0032056D01*
X0088966Y0032056D01*
X0089716Y0032807D01*
X0089716Y0033558D01*
X0088966Y0034308D01*
X0086714Y0034308D01*
X0086714Y0032807D01*
X0086714Y0034308D02*
X0088215Y0035809D01*
X0089716Y0036560D01*
X0021250Y0071016D02*
X0018248Y0071016D01*
X0019749Y0071016D02*
X0019749Y0075520D01*
X0018248Y0074019D01*
X0016646Y0074769D02*
X0016646Y0073268D01*
X0015896Y0072517D01*
X0013644Y0072517D01*
X0013644Y0071016D02*
X0013644Y0075520D01*
X0015896Y0075520D01*
X0016646Y0074769D01*
X0012042Y0075520D02*
X0010541Y0075520D01*
X0011292Y0075520D02*
X0011292Y0071767D01*
X0010541Y0071016D01*
X0009790Y0071016D01*
X0009040Y0071767D01*
X0094822Y0165394D02*
X0095573Y0165394D01*
X0096323Y0166145D01*
X0096323Y0169898D01*
X0095573Y0169898D02*
X0097074Y0169898D01*
X0098675Y0169898D02*
X0100927Y0169898D01*
X0101678Y0169147D01*
X0101678Y0167646D01*
X0100927Y0166895D01*
X0098675Y0166895D01*
X0098675Y0165394D02*
X0098675Y0169898D01*
X0103279Y0169147D02*
X0104030Y0169898D01*
X0105531Y0169898D01*
X0106282Y0169147D01*
X0106282Y0168397D01*
X0103279Y0165394D01*
X0106282Y0165394D01*
X0094822Y0165394D02*
X0094071Y0166145D01*
X0145496Y0151040D02*
X0145496Y0148789D01*
X0146997Y0149539D01*
X0147748Y0149539D01*
X0148498Y0148789D01*
X0148498Y0147287D01*
X0147748Y0146537D01*
X0146246Y0146537D01*
X0145496Y0147287D01*
X0145496Y0151040D02*
X0148498Y0151040D01*
X0178788Y0150290D02*
X0178788Y0149539D01*
X0179538Y0148789D01*
X0181040Y0148789D01*
X0181790Y0148038D01*
X0181790Y0147287D01*
X0181040Y0146537D01*
X0179538Y0146537D01*
X0178788Y0147287D01*
X0178788Y0150290D02*
X0179538Y0151040D01*
X0181040Y0151040D01*
X0181790Y0150290D01*
X0183392Y0151040D02*
X0183392Y0148038D01*
X0184893Y0146537D01*
X0186394Y0148038D01*
X0186394Y0151040D01*
X0187996Y0149539D02*
X0189497Y0151040D01*
X0189497Y0146537D01*
X0187996Y0146537D02*
X0190998Y0146537D01*
X0188498Y0164537D02*
X0185496Y0164537D01*
X0186997Y0164537D02*
X0186997Y0169040D01*
X0185496Y0167539D01*
X0189685Y0088575D02*
X0190436Y0088575D01*
X0191186Y0087825D01*
X0191937Y0088575D01*
X0192688Y0088575D01*
X0193438Y0087825D01*
X0193438Y0086323D01*
X0192688Y0085573D01*
X0191186Y0087074D02*
X0191186Y0087825D01*
X0189685Y0088575D02*
X0188934Y0087825D01*
X0188934Y0086323D01*
X0189685Y0085573D01*
X0188934Y0083971D02*
X0188934Y0082470D01*
X0188934Y0083221D02*
X0192688Y0083221D01*
X0193438Y0082470D01*
X0193438Y0081720D01*
X0192688Y0080969D01*
X0192688Y0079368D02*
X0191937Y0079368D01*
X0191186Y0078617D01*
X0191186Y0077116D01*
X0190436Y0076365D01*
X0189685Y0076365D01*
X0188934Y0077116D01*
X0188934Y0078617D01*
X0189685Y0079368D01*
X0192688Y0079368D02*
X0193438Y0078617D01*
X0193438Y0077116D01*
X0192688Y0076365D01*
D13*
X0175090Y0111668D02*
X0157090Y0111668D01*
X0157090Y0126268D01*
X0175090Y0126268D01*
X0175090Y0111668D01*
X0129420Y0111668D02*
X0129420Y0126268D01*
X0111420Y0126268D01*
X0111420Y0111668D01*
X0129420Y0111668D01*
X0096846Y0111613D02*
X0096846Y0126213D01*
X0078846Y0126213D01*
X0078846Y0111613D01*
X0096846Y0111613D01*
X0116932Y0055008D02*
X0116932Y0040408D01*
X0134932Y0040408D01*
X0134932Y0055008D01*
X0116932Y0055008D01*
D14*
X0079791Y0077877D02*
X0076655Y0081013D01*
X0076655Y0079445D02*
X0079791Y0079445D01*
X0079791Y0081013D02*
X0076655Y0077877D01*
X0078223Y0077877D02*
X0078223Y0081013D01*
D15*
X0055680Y0100535D02*
X0055680Y0126519D01*
X0037964Y0126519D01*
X0037964Y0100535D01*
X0055680Y0100535D01*
D16*
X0040523Y0123763D03*
M02*
