G75*
%MOIN*%
%OFA0B0*%
%FSLAX25Y25*%
%IPPOS*%
%LPD*%
%AMOC8*
5,1,8,0,0,1.08239X$1,22.5*
%
%ADD10R,0.02756X0.03543*%
%ADD11R,0.03543X0.02756*%
%ADD12R,0.03937X0.04331*%
%ADD13R,0.05118X0.05906*%
%ADD14R,0.02362X0.08661*%
%ADD15C,0.06000*%
%ADD16R,0.03543X0.03937*%
%ADD17R,0.03543X0.04331*%
%ADD18OC8,0.06000*%
%ADD19R,0.06300X0.04600*%
%ADD20R,0.02953X0.01181*%
%ADD21R,0.05906X0.05118*%
%ADD22C,0.01496*%
%ADD23R,0.05512X0.02362*%
%ADD24R,0.05512X0.02559*%
%ADD25C,0.00800*%
%ADD26R,0.03150X0.02362*%
%ADD27C,0.01000*%
%ADD28C,0.02756*%
%ADD29C,0.02362*%
%ADD30C,0.01600*%
%ADD31C,0.02559*%
%ADD32C,0.02000*%
%ADD33C,0.01200*%
%ADD34C,0.02400*%
%ADD35C,0.03543*%
%ADD36C,0.05000*%
%ADD37C,0.04724*%
%ADD38C,0.03200*%
%ADD39C,0.03150*%
D10*
X0050932Y0039440D03*
X0056050Y0039440D03*
X0117113Y0053574D03*
X0122231Y0053574D03*
X0134712Y0052078D03*
X0139830Y0052078D03*
X0138373Y0064283D03*
X0133255Y0064283D03*
X0130617Y0091172D03*
X0125499Y0091172D03*
X0125617Y0108377D03*
X0120499Y0108377D03*
X0119641Y0123448D03*
X0114523Y0123448D03*
X0120735Y0129558D03*
X0125854Y0129558D03*
X0095861Y0114377D03*
X0090743Y0114377D03*
X0076129Y0126842D03*
X0071011Y0126842D03*
X0055420Y0131767D03*
X0050302Y0131767D03*
X0037334Y0131546D03*
X0032216Y0131546D03*
X0023791Y0130460D03*
X0018672Y0130460D03*
X0017228Y0122322D03*
X0017259Y0118145D03*
X0022377Y0118145D03*
X0022346Y0122322D03*
X0023141Y0109798D03*
X0018023Y0109798D03*
X0018932Y0105499D03*
X0018141Y0101172D03*
X0018322Y0097121D03*
X0023259Y0101172D03*
X0023440Y0097121D03*
X0024050Y0105499D03*
X0048739Y0094102D03*
X0050909Y0098385D03*
X0056027Y0098385D03*
X0053857Y0094102D03*
X0088176Y0129558D03*
X0093294Y0129558D03*
X0090302Y0158731D03*
X0085184Y0158731D03*
X0157625Y0103417D03*
X0162743Y0103417D03*
X0161208Y0109165D03*
X0166326Y0109165D03*
X0168609Y0115503D03*
X0173728Y0115503D03*
X0167035Y0120543D03*
X0161917Y0120543D03*
X0162901Y0094046D03*
X0157783Y0094046D03*
X0169436Y0065700D03*
X0174554Y0065700D03*
X0140617Y0033889D03*
X0135499Y0033889D03*
X0126247Y0037511D03*
X0121129Y0037511D03*
X0171405Y0029991D03*
X0176523Y0029991D03*
D11*
X0138688Y0040503D03*
X0134043Y0040385D03*
X0134043Y0045503D03*
X0138688Y0045621D03*
X0159751Y0066291D03*
X0159751Y0071409D03*
X0138806Y0106094D03*
X0133491Y0106094D03*
X0133491Y0111212D03*
X0138806Y0111212D03*
X0075539Y0082550D03*
X0075539Y0077432D03*
X0066810Y0099046D03*
X0062294Y0098700D03*
X0062294Y0103818D03*
X0066810Y0104165D03*
X0032113Y0099546D03*
X0032113Y0094428D03*
D12*
X0049279Y0077826D03*
X0049279Y0071133D03*
X0041011Y0072393D03*
X0041011Y0065700D03*
X0057271Y0147196D03*
X0057271Y0153889D03*
X0048885Y0153180D03*
X0048885Y0159873D03*
D13*
X0132586Y0098141D03*
X0139279Y0098141D03*
X0140066Y0070661D03*
X0132586Y0070661D03*
X0131090Y0058062D03*
X0138570Y0058062D03*
D14*
X0145558Y0057983D03*
X0150558Y0057983D03*
X0155558Y0057983D03*
X0160558Y0057983D03*
X0167920Y0057865D03*
X0172920Y0057865D03*
X0177920Y0057865D03*
X0182920Y0057865D03*
X0182920Y0037393D03*
X0177920Y0037393D03*
X0172920Y0037393D03*
X0167920Y0037393D03*
X0160558Y0037511D03*
X0155558Y0037511D03*
X0150558Y0037511D03*
X0145558Y0037511D03*
D15*
X0038964Y0028306D02*
X0038964Y0022306D01*
X0048964Y0022306D02*
X0048964Y0028306D01*
X0058964Y0028306D02*
X0058964Y0022306D01*
X0068964Y0022306D02*
X0068964Y0028306D01*
X0078964Y0028306D02*
X0078964Y0022306D01*
X0088964Y0022306D02*
X0088964Y0028306D01*
X0099121Y0154944D02*
X0099121Y0160944D01*
X0109121Y0160944D02*
X0109121Y0154944D01*
X0119121Y0154944D02*
X0119121Y0160944D01*
X0129121Y0160944D02*
X0129121Y0154944D01*
X0147350Y0154787D02*
X0147350Y0160787D01*
X0157350Y0160787D02*
X0157350Y0154787D01*
X0167350Y0154787D02*
X0167350Y0160787D01*
X0177350Y0160787D02*
X0177350Y0154787D01*
X0187350Y0154787D02*
X0187350Y0160787D01*
D16*
X0108216Y0099283D03*
X0108216Y0092590D03*
D17*
X0119633Y0095936D03*
D18*
X0026208Y0058102D03*
X0016208Y0058102D03*
X0016208Y0048102D03*
X0026208Y0048102D03*
X0026208Y0038102D03*
X0016208Y0038102D03*
X0016090Y0081566D03*
D19*
X0016483Y0073149D03*
X0016483Y0067149D03*
X0025539Y0067149D03*
X0025539Y0073149D03*
D20*
X0032247Y0104066D03*
X0032247Y0106625D03*
X0032247Y0109184D03*
X0032247Y0111743D03*
X0032247Y0114302D03*
X0032247Y0116861D03*
X0032247Y0119420D03*
X0032247Y0121980D03*
X0032247Y0124539D03*
X0032247Y0127098D03*
X0055869Y0127098D03*
X0055869Y0124539D03*
X0055869Y0121980D03*
X0055869Y0119420D03*
X0055869Y0116861D03*
X0055869Y0114302D03*
X0055869Y0111743D03*
X0055869Y0109184D03*
X0055869Y0106625D03*
X0055869Y0104066D03*
D21*
X0071227Y0112865D03*
X0071227Y0120346D03*
D22*
X0010809Y0143500D02*
X0010809Y0149484D01*
X0030179Y0149484D01*
X0030179Y0143500D01*
X0010809Y0143500D01*
X0010809Y0144995D02*
X0030179Y0144995D01*
X0030179Y0146490D02*
X0010809Y0146490D01*
X0010809Y0147985D02*
X0030179Y0147985D01*
X0030179Y0149480D02*
X0010809Y0149480D01*
X0010809Y0156886D02*
X0010809Y0162870D01*
X0030179Y0162870D01*
X0030179Y0156886D01*
X0010809Y0156886D01*
X0010809Y0158381D02*
X0030179Y0158381D01*
X0030179Y0159876D02*
X0010809Y0159876D01*
X0010809Y0161371D02*
X0030179Y0161371D01*
X0030179Y0162866D02*
X0010809Y0162866D01*
D23*
X0064145Y0158726D03*
X0064145Y0146926D03*
X0078613Y0146926D03*
X0078613Y0158726D03*
X0069165Y0077624D03*
X0069165Y0065824D03*
X0054696Y0065824D03*
X0054696Y0077624D03*
D24*
X0069165Y0071724D03*
X0078613Y0152826D03*
D25*
X0080263Y0153128D02*
X0061759Y0153128D01*
X0061759Y0153926D02*
X0076013Y0153926D01*
X0076326Y0153613D02*
X0074357Y0155582D01*
X0061759Y0155582D01*
X0061759Y0150070D01*
X0074357Y0150070D01*
X0076326Y0152039D01*
X0080263Y0152039D01*
X0080263Y0153613D01*
X0076326Y0153613D01*
X0075215Y0154725D02*
X0061759Y0154725D01*
X0061759Y0155523D02*
X0074416Y0155523D01*
X0075818Y0151531D02*
X0061759Y0151531D01*
X0061759Y0152329D02*
X0080263Y0152329D01*
X0075019Y0150732D02*
X0061759Y0150732D01*
X0120420Y0129873D02*
X0120735Y0129558D01*
X0065313Y0074075D02*
X0052310Y0074075D01*
X0052310Y0074480D02*
X0052310Y0068968D01*
X0064909Y0068968D01*
X0066877Y0070936D01*
X0070814Y0070936D01*
X0070814Y0072511D01*
X0066877Y0072511D01*
X0064909Y0074480D01*
X0052310Y0074480D01*
X0052310Y0073276D02*
X0066112Y0073276D01*
X0066822Y0070881D02*
X0052310Y0070881D01*
X0052310Y0071679D02*
X0070814Y0071679D01*
X0070814Y0072478D02*
X0052310Y0072478D01*
X0052310Y0070082D02*
X0066023Y0070082D01*
X0065225Y0069284D02*
X0052310Y0069284D01*
D26*
X0098700Y0067850D03*
X0098700Y0061550D03*
X0105700Y0061050D03*
X0105700Y0067350D03*
X0106700Y0031850D03*
X0106700Y0025550D03*
X0100200Y0025050D03*
X0100200Y0031350D03*
D27*
X0097953Y0043547D02*
X0102843Y0048436D01*
X0108459Y0048436D01*
X0110664Y0050641D01*
X0110664Y0053759D01*
X0109865Y0054557D01*
X0109865Y0060629D01*
X0130909Y0054351D02*
X0130909Y0049647D01*
X0130609Y0049647D01*
X0130909Y0049647D02*
X0134043Y0046513D01*
X0129476Y0042196D02*
X0129869Y0041802D01*
X0129869Y0039427D01*
X0131690Y0037606D01*
X0131704Y0037606D01*
X0131798Y0037511D01*
X0143255Y0037511D01*
X0140420Y0034676D01*
X0140617Y0033889D01*
X0143255Y0037511D02*
X0145558Y0037511D01*
X0138688Y0040503D02*
X0138570Y0040385D01*
X0134043Y0040385D01*
X0129476Y0042196D02*
X0125539Y0042196D01*
X0126247Y0041487D01*
X0126247Y0037511D01*
X0124426Y0034338D02*
X0129776Y0034338D01*
X0129981Y0034543D01*
X0134846Y0034543D01*
X0135499Y0033889D01*
X0131755Y0031255D02*
X0131050Y0031960D01*
X0124357Y0029991D02*
X0124357Y0034269D01*
X0124426Y0034338D01*
X0121129Y0037511D02*
X0120302Y0036684D01*
X0130909Y0054351D02*
X0131474Y0054917D01*
X0131377Y0055022D01*
X0131394Y0055449D01*
X0131302Y0055867D01*
X0131380Y0057772D01*
X0133255Y0064283D02*
X0133255Y0067787D01*
X0132586Y0070661D01*
X0140066Y0070661D02*
X0142385Y0072980D01*
X0138373Y0064283D02*
X0138570Y0064086D01*
X0139314Y0057318D02*
X0142976Y0056137D01*
X0142976Y0053072D01*
X0143797Y0052251D01*
X0147320Y0052251D01*
X0148141Y0053072D01*
X0148141Y0055566D01*
X0150558Y0057983D01*
X0159751Y0066291D02*
X0160558Y0065483D01*
X0167920Y0057865D02*
X0167920Y0056200D01*
X0161208Y0109165D02*
X0161917Y0109873D01*
X0125932Y0119755D02*
X0125854Y0119676D01*
X0125255Y0120275D01*
X0125617Y0119676D02*
X0125854Y0119676D01*
X0119757Y0123448D02*
X0119641Y0123448D01*
X0081963Y0152826D02*
X0081663Y0152826D01*
X0061365Y0142983D02*
X0061090Y0143102D01*
X0055420Y0131767D02*
X0055869Y0131318D01*
X0055869Y0127098D01*
X0062940Y0109200D02*
X0062940Y0108338D01*
X0066810Y0104165D02*
X0066464Y0103818D01*
X0055869Y0104066D02*
X0050909Y0099106D01*
X0050909Y0098385D01*
X0051102Y0098192D01*
X0050336Y0098385D02*
X0049607Y0097657D01*
X0049594Y0097657D01*
X0048739Y0094102D01*
X0053857Y0094102D02*
X0054216Y0094102D01*
X0054279Y0094165D01*
X0064700Y0084641D02*
X0067988Y0084641D01*
X0070078Y0082550D01*
X0075539Y0082550D01*
X0069165Y0071724D02*
X0063334Y0071724D01*
X0060972Y0074086D01*
X0032113Y0103932D02*
X0032247Y0104066D01*
X0031284Y0104066D01*
X0024322Y0109812D02*
X0026253Y0111743D01*
X0032247Y0111743D01*
X0033737Y0111743D01*
X0032247Y0119420D02*
X0030379Y0119420D01*
X0024304Y0125495D01*
X0020387Y0125495D01*
X0019566Y0124674D01*
X0019566Y0124661D01*
X0017228Y0122322D01*
X0017228Y0118176D01*
X0017259Y0118145D01*
X0023738Y0110396D02*
X0024322Y0109812D01*
X0023141Y0109798D01*
X0020802Y0107460D01*
X0020802Y0107446D01*
X0018932Y0105576D01*
X0018932Y0105499D01*
X0018141Y0101172D02*
X0018322Y0100991D01*
X0018322Y0097121D01*
X0030499Y0124539D02*
X0023791Y0130460D01*
X0030499Y0124539D02*
X0032247Y0124539D01*
X0032247Y0127098D02*
X0032247Y0131515D01*
X0032216Y0131546D01*
X0068964Y0025306D02*
X0069739Y0025306D01*
D28*
X0043043Y0114031D03*
D29*
X0050342Y0116212D03*
X0049900Y0121200D03*
X0062546Y0116606D03*
X0077507Y0115818D03*
X0077901Y0104401D03*
X0094830Y0099283D03*
X0118452Y0087865D03*
X0143649Y0107944D03*
X0125617Y0119676D03*
X0161917Y0115424D03*
X0078294Y0139440D03*
X0066877Y0130779D03*
X0061365Y0142983D03*
X0013728Y0115424D03*
X0010578Y0106763D03*
X0016877Y0091015D03*
X0034200Y0091015D03*
X0062546Y0054401D03*
X0058500Y0049400D03*
X0071700Y0050000D03*
X0079869Y0040228D03*
X0080657Y0035897D03*
X0084594Y0041409D03*
X0131050Y0031960D03*
D30*
X0124357Y0033845D02*
X0124357Y0029991D01*
X0120302Y0036684D02*
X0112940Y0036684D01*
X0106700Y0031850D02*
X0100700Y0031850D01*
X0100200Y0031350D01*
X0100200Y0036936D01*
X0101917Y0038653D01*
X0088964Y0025306D02*
X0078964Y0025306D01*
X0062546Y0041724D01*
X0062546Y0054401D01*
X0061346Y0053200D01*
X0054700Y0053200D01*
X0049700Y0048200D01*
X0049700Y0046960D01*
X0054987Y0046960D01*
X0056050Y0045896D01*
X0056050Y0039440D01*
X0049700Y0046960D02*
X0031715Y0046960D01*
X0028155Y0043400D01*
X0024260Y0043400D01*
X0021506Y0046154D01*
X0021506Y0052803D01*
X0016208Y0058102D01*
X0011506Y0060049D02*
X0011506Y0056154D01*
X0016208Y0051453D01*
X0016208Y0048102D01*
X0021506Y0056154D02*
X0026208Y0051453D01*
X0026208Y0048102D01*
X0021506Y0056154D02*
X0021506Y0060049D01*
X0025539Y0064081D01*
X0025539Y0067149D01*
X0025539Y0073149D02*
X0025539Y0074330D01*
X0035999Y0084791D01*
X0056681Y0084791D01*
X0056981Y0084491D01*
X0059451Y0084491D01*
X0062432Y0087472D01*
X0065696Y0087472D01*
X0064700Y0084641D02*
X0064311Y0084641D01*
X0057294Y0077624D01*
X0054696Y0077624D01*
X0060972Y0076180D02*
X0060972Y0074086D01*
X0060972Y0076180D02*
X0061346Y0076554D01*
X0061346Y0076180D01*
X0061346Y0076554D02*
X0066752Y0081960D01*
X0066877Y0081960D01*
X0058216Y0087472D02*
X0032700Y0087472D01*
X0022379Y0077150D01*
X0021684Y0077150D01*
X0017682Y0073149D01*
X0016483Y0073149D01*
X0016483Y0067149D02*
X0016483Y0065026D01*
X0011506Y0060049D01*
X0026208Y0058102D02*
X0033398Y0058102D01*
X0038900Y0052600D01*
X0049500Y0052600D01*
X0055100Y0058200D01*
X0089554Y0058102D01*
X0090106Y0057550D01*
X0112546Y0059519D02*
X0116400Y0059519D01*
X0119313Y0056606D01*
X0125539Y0065031D01*
X0131090Y0058062D02*
X0131004Y0055957D01*
X0130983Y0055924D01*
X0130937Y0054804D01*
X0130609Y0054476D01*
X0130609Y0049647D01*
X0127901Y0047678D01*
X0126266Y0046164D01*
X0120542Y0046164D01*
X0117183Y0049523D01*
X0117183Y0050748D01*
X0117113Y0053574D01*
X0119313Y0056606D01*
X0112940Y0059125D02*
X0112546Y0059519D01*
X0130609Y0049647D02*
X0130609Y0049523D01*
X0134043Y0046089D01*
X0134043Y0045503D01*
X0138688Y0045621D02*
X0156874Y0045621D01*
X0156981Y0045514D01*
X0159386Y0045514D01*
X0160700Y0044200D01*
X0160700Y0040200D01*
X0160558Y0040058D01*
X0160558Y0037511D01*
X0157822Y0029991D02*
X0171405Y0029991D01*
X0172783Y0025267D02*
X0176523Y0029007D01*
X0176523Y0029991D01*
X0157783Y0094046D02*
X0157783Y0103259D01*
X0157625Y0103417D01*
X0157625Y0105582D01*
X0161208Y0109165D01*
X0166326Y0109165D02*
X0166877Y0108613D01*
X0166877Y0101251D01*
X0163590Y0102570D02*
X0163590Y0098751D01*
X0163590Y0102570D02*
X0162743Y0103417D01*
X0095683Y0124183D02*
X0094500Y0123000D01*
X0095683Y0124183D02*
X0095683Y0127170D01*
X0082900Y0152826D02*
X0081963Y0152826D01*
X0078613Y0152826D01*
X0052141Y0134326D02*
X0052141Y0133606D01*
X0050302Y0131767D01*
X0045629Y0127094D01*
X0045629Y0124600D01*
X0045629Y0123129D01*
X0043700Y0121200D01*
X0043700Y0114688D01*
X0043043Y0114031D01*
X0042700Y0113688D01*
X0042700Y0109200D01*
X0049074Y0102826D01*
X0049554Y0102826D01*
X0050336Y0098385D02*
X0050909Y0098385D01*
X0043043Y0114031D02*
X0037334Y0120527D01*
D31*
X0049554Y0102826D03*
X0062940Y0108338D03*
X0067271Y0093377D03*
X0065696Y0087472D03*
X0066877Y0081960D03*
X0058216Y0087472D03*
X0053491Y0081566D03*
X0059791Y0062669D03*
X0090106Y0057550D03*
X0104869Y0056566D03*
X0112546Y0059519D03*
X0125539Y0065031D03*
X0126720Y0052039D03*
X0125539Y0042196D03*
X0112940Y0036684D03*
X0101917Y0038653D03*
X0091680Y0035109D03*
X0124357Y0029991D03*
X0144043Y0048889D03*
X0158216Y0048495D03*
X0157822Y0029991D03*
X0157428Y0021724D03*
X0172783Y0025267D03*
X0186956Y0027235D03*
X0190893Y0067578D03*
X0184987Y0071724D03*
X0177901Y0071724D03*
X0172783Y0071724D03*
X0159003Y0080779D03*
X0149161Y0071724D03*
X0153491Y0071330D03*
X0145224Y0075661D03*
X0139357Y0090976D03*
X0125145Y0086684D03*
X0114121Y0087865D03*
X0099948Y0089046D03*
X0094500Y0077000D03*
X0121602Y0103220D03*
X0127920Y0103200D03*
X0133446Y0114755D03*
X0120420Y0134716D03*
X0115696Y0134716D03*
X0105066Y0139046D03*
X0090893Y0134322D03*
X0094500Y0123000D03*
X0085243Y0114243D03*
X0077113Y0122117D03*
X0071122Y0134652D03*
X0013334Y0110700D03*
X0039598Y0035897D03*
X0155066Y0137078D03*
X0173570Y0148495D03*
X0182231Y0111881D03*
X0171602Y0098495D03*
X0169633Y0094913D03*
X0166877Y0101251D03*
X0163590Y0098751D03*
X0132625Y0140621D03*
D32*
X0131050Y0139046D01*
X0105066Y0139046D01*
X0114523Y0133543D02*
X0115696Y0134716D01*
X0114523Y0133543D02*
X0114523Y0123448D01*
X0119641Y0123448D02*
X0121846Y0123448D01*
X0125854Y0127456D01*
X0125854Y0129558D01*
X0120735Y0129558D02*
X0120735Y0134401D01*
X0120420Y0134716D01*
X0121846Y0123448D02*
X0125617Y0119676D01*
X0125617Y0108377D01*
X0121602Y0107275D02*
X0120499Y0108377D01*
X0121602Y0107275D02*
X0121602Y0103220D01*
X0127920Y0103200D02*
X0127920Y0094590D01*
X0128779Y0093732D01*
X0128779Y0093011D01*
X0130617Y0091172D01*
X0139161Y0091172D01*
X0139357Y0090976D01*
X0139357Y0098062D01*
X0139279Y0098141D01*
X0132586Y0098141D02*
X0132586Y0105188D01*
X0133491Y0106094D01*
X0138806Y0106094D02*
X0141798Y0106094D01*
X0143649Y0107944D01*
X0140785Y0111212D02*
X0138806Y0111212D01*
X0133491Y0111212D01*
X0133491Y0114709D01*
X0133446Y0114755D01*
X0140785Y0111212D02*
X0176751Y0147178D01*
X0176751Y0147188D01*
X0187350Y0157787D01*
X0167035Y0120543D02*
X0168609Y0118968D01*
X0168609Y0115503D01*
X0168609Y0112720D01*
X0170058Y0111271D01*
X0170058Y0100039D01*
X0171602Y0098495D01*
X0169633Y0094913D02*
X0163688Y0094913D01*
X0162822Y0094046D01*
X0162901Y0094046D01*
X0157582Y0082200D02*
X0159003Y0080779D01*
X0157582Y0082200D02*
X0098700Y0082200D01*
X0093700Y0087200D01*
X0093700Y0091200D01*
X0100700Y0098200D01*
X0100700Y0102200D01*
X0093700Y0109200D01*
X0084700Y0109200D01*
X0081700Y0112200D01*
X0081700Y0129200D01*
X0078700Y0132200D01*
X0075700Y0132200D01*
X0073248Y0134652D01*
X0071122Y0134652D01*
X0075542Y0137833D02*
X0055648Y0137833D01*
X0052141Y0134326D01*
X0061365Y0142983D02*
X0057271Y0147078D01*
X0057271Y0147196D01*
X0061365Y0142983D02*
X0064145Y0145763D01*
X0064145Y0146926D01*
X0057271Y0153889D02*
X0052113Y0153102D01*
X0048885Y0153180D01*
X0048885Y0159873D02*
X0053649Y0159913D01*
X0060972Y0159913D01*
X0062158Y0158726D01*
X0064145Y0158726D01*
X0051287Y0163062D02*
X0091680Y0163062D01*
X0090302Y0161684D01*
X0090302Y0158731D01*
X0091680Y0163062D02*
X0097586Y0163062D01*
X0099121Y0161527D01*
X0099121Y0157944D01*
X0097303Y0148889D02*
X0111759Y0148889D01*
X0119121Y0156251D01*
X0119121Y0157944D01*
X0097303Y0148889D02*
X0084771Y0136357D01*
X0077018Y0136357D01*
X0075542Y0137833D01*
X0066877Y0130779D02*
X0066483Y0130779D01*
X0071011Y0126842D02*
X0071011Y0121361D01*
X0071227Y0120346D01*
X0077113Y0122117D02*
X0077113Y0125857D01*
X0076129Y0126842D01*
X0088176Y0129558D02*
X0088176Y0131606D01*
X0090893Y0134322D01*
X0093294Y0129558D02*
X0095683Y0127170D01*
X0094500Y0123000D02*
X0094500Y0122000D01*
X0096500Y0120000D01*
X0096500Y0115016D01*
X0095861Y0114377D01*
X0090743Y0114377D02*
X0090609Y0114243D01*
X0085243Y0114243D01*
X0089712Y0104401D02*
X0077901Y0104401D01*
X0070700Y0108200D02*
X0070700Y0112192D01*
X0071227Y0112865D01*
X0070700Y0108200D02*
X0066810Y0104310D01*
X0066810Y0104165D01*
X0066464Y0103818D02*
X0062294Y0103818D01*
X0062641Y0099046D02*
X0062294Y0098700D01*
X0062641Y0099046D02*
X0066810Y0099046D01*
X0067271Y0098586D01*
X0067271Y0093377D01*
X0067094Y0093200D01*
X0058700Y0093200D01*
X0057798Y0094102D01*
X0055700Y0094102D01*
X0056027Y0094428D01*
X0056027Y0098385D01*
X0055700Y0094102D02*
X0053857Y0094102D01*
X0052019Y0092263D01*
X0052019Y0091542D01*
X0050905Y0090428D01*
X0046574Y0090428D01*
X0045987Y0091015D01*
X0034200Y0091015D01*
X0032113Y0093102D01*
X0032113Y0094428D01*
X0030928Y0094428D01*
X0029947Y0093448D01*
X0021275Y0093448D01*
X0020161Y0094562D01*
X0020161Y0095283D01*
X0018322Y0097121D01*
X0041011Y0072393D02*
X0047389Y0071606D01*
X0049279Y0071133D01*
X0047901Y0071724D01*
X0069165Y0071724D01*
X0059791Y0062669D02*
X0093519Y0062669D01*
X0098700Y0067850D01*
X0098700Y0061550D02*
X0105200Y0061550D01*
X0105700Y0061050D01*
X0105700Y0057397D01*
X0104869Y0056566D01*
X0100700Y0056566D01*
X0094334Y0050200D01*
X0084700Y0050200D01*
X0079869Y0045369D01*
X0079869Y0040228D01*
X0080657Y0035897D02*
X0087153Y0035897D01*
X0089909Y0038653D01*
X0101917Y0038653D01*
X0094700Y0031200D02*
X0094700Y0028200D01*
X0097850Y0025050D01*
X0100200Y0025050D01*
X0100200Y0022700D01*
X0095700Y0018200D01*
X0091789Y0018200D01*
X0090994Y0017405D01*
X0076933Y0017405D01*
X0074062Y0020276D01*
X0074062Y0020983D01*
X0069739Y0025306D01*
X0068964Y0025306D02*
X0068896Y0025306D01*
X0058435Y0035767D01*
X0053885Y0035767D01*
X0052771Y0036881D01*
X0052771Y0037602D01*
X0050932Y0039440D01*
X0050342Y0039440D01*
X0039598Y0035897D01*
X0059791Y0062669D02*
X0056635Y0065824D01*
X0054696Y0065824D01*
X0043250Y0065824D01*
X0041011Y0065700D01*
X0048289Y0077624D02*
X0049279Y0077826D01*
X0048289Y0077624D02*
X0050342Y0077624D01*
X0050342Y0079991D01*
X0053491Y0081566D01*
X0054696Y0077624D02*
X0050342Y0077624D01*
X0089712Y0104401D02*
X0094830Y0099283D01*
X0099948Y0091015D02*
X0108216Y0099283D01*
X0111562Y0095936D01*
X0119633Y0095936D01*
X0125145Y0090818D02*
X0125499Y0091172D01*
X0125145Y0090818D02*
X0125145Y0086684D01*
X0114121Y0087865D02*
X0112940Y0087865D01*
X0108216Y0092590D01*
X0099948Y0091015D02*
X0099948Y0089046D01*
X0102000Y0077000D02*
X0094500Y0077000D01*
X0102000Y0077000D02*
X0105700Y0073300D01*
X0105700Y0067350D01*
X0122231Y0053574D02*
X0125184Y0053574D01*
X0126720Y0052039D01*
X0134712Y0052078D02*
X0136550Y0050239D01*
X0136550Y0049519D01*
X0138688Y0047381D01*
X0138688Y0045621D01*
X0140999Y0048901D02*
X0140700Y0049200D01*
X0140700Y0051208D01*
X0139830Y0052078D01*
X0140999Y0048901D02*
X0141247Y0048901D01*
X0141259Y0048889D01*
X0144043Y0048889D01*
X0145558Y0057983D02*
X0145558Y0061659D01*
X0146794Y0062895D01*
X0140066Y0069623D01*
X0140066Y0070661D01*
X0143300Y0075661D02*
X0142961Y0076000D01*
X0134300Y0076000D01*
X0132586Y0074286D01*
X0132586Y0070661D01*
X0138570Y0064086D02*
X0138570Y0058062D01*
X0139314Y0057318D01*
X0146794Y0062895D02*
X0149100Y0065200D01*
X0153700Y0065200D01*
X0155558Y0063342D01*
X0155558Y0057983D01*
X0158641Y0056066D02*
X0160558Y0057983D01*
X0160558Y0065483D01*
X0164700Y0064200D02*
X0164700Y0071200D01*
X0169700Y0076200D01*
X0180511Y0076200D01*
X0184987Y0071724D01*
X0190893Y0067578D02*
X0182920Y0059605D01*
X0182920Y0057865D01*
X0177920Y0057865D02*
X0177920Y0062334D01*
X0174554Y0065700D01*
X0174554Y0069952D01*
X0172783Y0071724D01*
X0169436Y0065700D02*
X0171275Y0063861D01*
X0171275Y0063141D01*
X0172920Y0061495D01*
X0172920Y0057865D01*
X0172920Y0037393D01*
X0172920Y0031507D01*
X0171405Y0029991D01*
X0176523Y0029991D02*
X0177920Y0031389D01*
X0177920Y0037393D01*
X0182920Y0037393D02*
X0182920Y0030550D01*
X0174456Y0022086D01*
X0171465Y0022086D01*
X0166741Y0026810D01*
X0156504Y0026810D01*
X0154641Y0028674D01*
X0154641Y0031309D01*
X0155558Y0032226D01*
X0155558Y0037511D01*
X0167920Y0037393D02*
X0167920Y0056200D01*
X0167920Y0057865D02*
X0167920Y0060980D01*
X0164700Y0064200D01*
X0159751Y0071409D02*
X0153570Y0071409D01*
X0153491Y0071330D01*
X0145224Y0075661D02*
X0143300Y0075661D01*
X0158641Y0056066D02*
X0158641Y0052865D01*
X0158216Y0052440D01*
X0158216Y0048495D01*
X0131755Y0031255D02*
X0141287Y0021724D01*
X0157428Y0021724D01*
X0124357Y0029991D02*
X0119917Y0025550D01*
X0106700Y0025550D01*
X0094700Y0031200D02*
X0091680Y0034220D01*
X0091680Y0035109D01*
X0161208Y0109165D02*
X0161700Y0109657D01*
X0161700Y0112200D01*
X0161917Y0112417D01*
X0161917Y0115424D01*
X0161917Y0120543D01*
X0173728Y0115503D02*
X0177350Y0111881D01*
X0182231Y0111881D01*
X0051287Y0163062D02*
X0048885Y0159873D01*
D33*
X0037334Y0131546D02*
X0037334Y0120527D01*
X0036228Y0119420D01*
X0032247Y0119420D01*
X0032247Y0116861D02*
X0028934Y0116861D01*
X0024377Y0121418D01*
X0023250Y0121418D01*
X0022346Y0122322D01*
X0022377Y0118145D02*
X0022377Y0114872D01*
X0015259Y0114872D01*
X0014706Y0115424D01*
X0013728Y0115424D01*
X0016023Y0113072D02*
X0021062Y0113072D01*
X0023738Y0110396D01*
X0023141Y0109798D01*
X0023738Y0110396D02*
X0025086Y0111743D01*
X0032247Y0111743D01*
X0032247Y0114302D02*
X0028598Y0114302D01*
X0028028Y0114872D01*
X0022377Y0114872D01*
X0016023Y0113072D02*
X0013651Y0110700D01*
X0013334Y0110700D01*
X0010578Y0109523D02*
X0010578Y0106763D01*
X0010578Y0109523D02*
X0010553Y0109548D01*
X0010553Y0120920D01*
X0016728Y0127095D01*
X0024967Y0127095D01*
X0030083Y0121980D01*
X0032247Y0121980D01*
X0045629Y0124600D02*
X0045691Y0124539D01*
X0055869Y0124539D01*
X0055869Y0121980D02*
X0063920Y0121980D01*
X0064700Y0121200D01*
X0064700Y0118246D01*
X0065229Y0117717D01*
X0065229Y0111489D01*
X0062940Y0109200D01*
X0059487Y0106625D02*
X0062294Y0103818D01*
X0059487Y0106625D02*
X0055869Y0106625D01*
X0055869Y0109184D02*
X0051716Y0109184D01*
X0049700Y0111200D01*
X0049700Y0115570D01*
X0050342Y0116212D01*
X0052891Y0118208D02*
X0054238Y0116861D01*
X0055869Y0116861D01*
X0055869Y0119420D02*
X0059731Y0119420D01*
X0062546Y0116606D01*
X0052891Y0118208D02*
X0052891Y0118209D01*
X0049900Y0121200D01*
X0032247Y0109184D02*
X0027800Y0109184D01*
X0025141Y0106525D01*
X0025076Y0106525D01*
X0024050Y0105499D01*
X0024313Y0102226D02*
X0023259Y0101172D01*
X0024313Y0102226D02*
X0026050Y0102226D01*
X0030450Y0106625D01*
X0032247Y0106625D01*
X0032113Y0103932D02*
X0032113Y0099546D01*
X0031767Y0099200D01*
X0028700Y0099200D01*
X0026621Y0097121D01*
X0023440Y0097121D01*
X0018141Y0101172D02*
X0017087Y0102226D01*
X0016932Y0102226D01*
X0016053Y0103106D01*
X0016053Y0107893D01*
X0016932Y0108772D01*
X0016997Y0108772D01*
X0018023Y0109798D01*
X0084594Y0041409D02*
X0086732Y0043547D01*
X0097953Y0043547D01*
X0102743Y0048336D01*
X0108500Y0048336D01*
X0110764Y0050600D01*
X0110764Y0053800D01*
X0109765Y0054799D01*
X0109765Y0060671D01*
X0127536Y0078442D01*
X0146376Y0078442D01*
X0148005Y0076813D01*
X0148005Y0074509D01*
X0146376Y0072880D01*
X0142285Y0072880D01*
X0140066Y0070661D01*
X0143755Y0043343D02*
X0140915Y0040503D01*
X0138688Y0040503D01*
X0143755Y0043343D02*
X0147361Y0043343D01*
X0148241Y0042464D01*
X0148241Y0039828D01*
X0150558Y0037511D01*
D34*
X0075539Y0077432D02*
X0075347Y0077624D01*
X0069165Y0077624D01*
X0018672Y0130460D02*
X0018672Y0133672D01*
X0019500Y0134500D01*
X0023580Y0134500D01*
X0024500Y0135420D01*
X0034362Y0135420D01*
X0035937Y0136994D01*
X0035937Y0142650D01*
X0034464Y0135420D02*
X0034362Y0135420D01*
X0034464Y0135420D02*
X0035695Y0134189D01*
X0035695Y0133185D01*
X0037334Y0131546D01*
X0022189Y0145917D02*
X0020494Y0146492D01*
X0048049Y0152393D02*
X0048885Y0153180D01*
X0057271Y0153889D02*
X0057546Y0152826D01*
X0078613Y0152826D01*
X0082900Y0152826D01*
X0082900Y0149548D01*
X0083471Y0148978D01*
X0083471Y0144874D01*
X0078294Y0139698D01*
X0078294Y0139440D01*
X0078613Y0158726D02*
X0085179Y0158726D01*
X0085184Y0158731D01*
D35*
X0039712Y0150035D03*
X0035937Y0142650D03*
D36*
X0025457Y0142650D01*
X0022189Y0145917D01*
X0020494Y0159878D02*
X0034299Y0159878D01*
X0039712Y0154465D01*
X0039712Y0150035D01*
D37*
X0035313Y0075800D03*
X0035313Y0065800D03*
X0106900Y0052200D03*
X0106900Y0042200D03*
X0167886Y0081016D03*
X0167886Y0089677D03*
X0182700Y0087000D03*
D38*
X0054696Y0065824D02*
X0042924Y0065824D01*
X0040500Y0057400D01*
D39*
X0040500Y0057400D03*
M02*
