%
M48
M72
T01C0.01378
T02C0.01575
T03C0.01969
T04C0.02362
T05C0.03150
T06C0.04000
T07C0.11811
%
T01
X39205Y37078
X58106Y50581
X70913Y50000
X73791Y47157
X80878Y41646
X91287Y36291
X101523Y39834
X112153Y38653
X123176Y42590
X124357Y50857
X112153Y60700
X112056Y68025
X104476Y57747
X89712Y58731
X92925Y82118
X99554Y90228
X112546Y91409
X118058Y92196
X124751Y97314
X127527Y112649
X121208Y112669
X133052Y124204
X125224Y129125
X134421Y131803
X120027Y144165
X115302Y144165
X104672Y148495
X90499Y143771
X79476Y152039
X72697Y143707
X67271Y141409
X60972Y152432
X49506Y130649
X49948Y125661
X62153Y126054
X62546Y117787
X49161Y112275
X66090Y102826
X77625Y103389
X77507Y109913
X89146Y105819
X92468Y111487
X90361Y126448
X94106Y132449
X83413Y133535
X79082Y126448
X74972Y92827
X65302Y90228
X57822Y89834
X53098Y82747
X66483Y83141
X59397Y63850
X33806Y91409
X16483Y92196
X10184Y116212
X12940Y120149
X13334Y124873
X123176Y31172
X128122Y32197
X122217Y15268
X147020Y25898
X153713Y25110
X172783Y27235
X177901Y27235
X189146Y20780
X171626Y15661
X190327Y40490
X167492Y49562
X157035Y50464
X140392Y59498
X137182Y61719
X137235Y55638
X125145Y66212
X145839Y84559
X148767Y76448
X155460Y72905
X157687Y81156
X160012Y93220
X168280Y97945
X169616Y104373
X170027Y108298
X173176Y111881
X166483Y110700
X163196Y108200
X152310Y118968
X161523Y124873
X148201Y145976
X154672Y149283
X171995Y157944
X189318Y132354
X132231Y150857
X182306Y78381
X177507Y72905
X172389Y72905
X190499Y68759
T02
X42649Y123480
T03
X40106Y58581
T04
X35543Y152098
X39318Y159483
T05
X34919Y76981
X34919Y66981
X106506Y53381
X106506Y43381
X167306Y81981
X167306Y90381
T06
X88570Y26487
X78570Y26487
X68570Y26487
X58570Y26487
X48570Y26487
X38570Y26487
X25814Y39283
X25814Y49283
X25814Y59283
X15814Y59283
X15814Y49283
X15814Y39283
X15696Y82747
X98728Y167393
X108728Y167393
X118728Y167393
X128728Y167393
X146956Y167235
X156956Y167235
X166956Y167235
X176956Y167235
X186956Y167235
T07
X17886Y21961
M30
