G75*
%MOIN*%
%OFA0B0*%
%FSLAX25Y25*%
%IPPOS*%
%LPD*%
%AMOC8*
5,1,8,0,0,1.08239X$1,22.5*
%
%ADD10C,0.00400*%
%ADD11C,0.00300*%
%ADD12C,0.00600*%
%ADD13C,0.00500*%
%ADD14C,0.00800*%
%ADD15C,0.02559*%
%ADD16C,0.00700*%
D10*
X0052326Y0032140D02*
X0055395Y0032140D01*
X0052326Y0035209D01*
X0052326Y0035977D01*
X0053093Y0036744D01*
X0054628Y0036744D01*
X0055395Y0035977D01*
X0056930Y0036744D02*
X0059999Y0036744D01*
X0059999Y0034442D01*
X0058465Y0035209D01*
X0057697Y0035209D01*
X0056930Y0034442D01*
X0056930Y0032907D01*
X0057697Y0032140D01*
X0059232Y0032140D01*
X0059999Y0032907D01*
X0061534Y0032907D02*
X0062301Y0032140D01*
X0063836Y0032140D01*
X0064603Y0032907D01*
X0064603Y0035977D01*
X0063836Y0036744D01*
X0062301Y0036744D01*
X0061534Y0035977D01*
X0042915Y0052514D02*
X0042148Y0051746D01*
X0039078Y0051746D01*
X0038311Y0052514D01*
X0038311Y0054048D01*
X0039078Y0054816D01*
X0038311Y0056350D02*
X0038311Y0059420D01*
X0038311Y0057885D02*
X0042915Y0057885D01*
X0041380Y0056350D01*
X0042148Y0054816D02*
X0042915Y0054048D01*
X0042915Y0052514D01*
X0047579Y0055335D02*
X0047579Y0056870D01*
X0048346Y0057637D01*
X0047579Y0059172D02*
X0047579Y0062241D01*
X0047579Y0060706D02*
X0052183Y0060706D01*
X0050648Y0059172D01*
X0051415Y0057637D02*
X0052183Y0056870D01*
X0052183Y0055335D01*
X0051415Y0054568D01*
X0048346Y0054568D01*
X0047579Y0055335D01*
X0042148Y0060954D02*
X0041380Y0060954D01*
X0040613Y0061722D01*
X0040613Y0064024D01*
X0042148Y0064024D02*
X0042915Y0063256D01*
X0042915Y0061722D01*
X0042148Y0060954D01*
X0042148Y0064024D02*
X0039078Y0064024D01*
X0038311Y0063256D01*
X0038311Y0061722D01*
X0039078Y0060954D01*
X0047579Y0064543D02*
X0048346Y0063776D01*
X0049113Y0063776D01*
X0049881Y0064543D01*
X0049881Y0066078D01*
X0049113Y0066845D01*
X0048346Y0066845D01*
X0047579Y0066078D01*
X0047579Y0064543D01*
X0049881Y0064543D02*
X0050648Y0063776D01*
X0051415Y0063776D01*
X0052183Y0064543D01*
X0052183Y0066078D01*
X0051415Y0066845D01*
X0050648Y0066845D01*
X0049881Y0066078D01*
X0034617Y0077043D02*
X0033850Y0076276D01*
X0030781Y0076276D01*
X0030013Y0077043D01*
X0030013Y0078578D01*
X0030781Y0079345D01*
X0030781Y0080880D02*
X0030013Y0081647D01*
X0030013Y0083181D01*
X0030781Y0083949D01*
X0031548Y0083949D01*
X0032315Y0083181D01*
X0032315Y0082414D01*
X0032315Y0083181D02*
X0033083Y0083949D01*
X0033850Y0083949D01*
X0034617Y0083181D01*
X0034617Y0081647D01*
X0033850Y0080880D01*
X0033850Y0079345D02*
X0034617Y0078578D01*
X0034617Y0077043D01*
X0033850Y0085483D02*
X0034617Y0086251D01*
X0034617Y0087785D01*
X0033850Y0088553D01*
X0033083Y0088553D01*
X0032315Y0087785D01*
X0031548Y0088553D01*
X0030781Y0088553D01*
X0030013Y0087785D01*
X0030013Y0086251D01*
X0030781Y0085483D01*
X0032315Y0087018D02*
X0032315Y0087785D01*
X0026181Y0089821D02*
X0026181Y0094425D01*
X0023879Y0094425D01*
X0023112Y0093658D01*
X0023112Y0092123D01*
X0023879Y0091356D01*
X0026181Y0091356D01*
X0024646Y0091356D02*
X0023112Y0089821D01*
X0021577Y0089821D02*
X0018508Y0089821D01*
X0020043Y0089821D02*
X0020043Y0094425D01*
X0021577Y0092891D01*
X0016973Y0092891D02*
X0016973Y0093658D01*
X0016206Y0094425D01*
X0014671Y0094425D01*
X0013904Y0093658D01*
X0013904Y0092891D01*
X0014671Y0092123D01*
X0016206Y0092123D01*
X0016973Y0092891D01*
X0016206Y0092123D02*
X0016973Y0091356D01*
X0016973Y0090589D01*
X0016206Y0089821D01*
X0014671Y0089821D01*
X0013904Y0090589D01*
X0013904Y0091356D01*
X0014671Y0092123D01*
X0014064Y0095300D02*
X0010995Y0095300D01*
X0010228Y0096067D01*
X0010228Y0097602D01*
X0010995Y0098369D01*
X0010995Y0099904D02*
X0010228Y0100671D01*
X0010228Y0102206D01*
X0010995Y0102973D01*
X0011762Y0102973D01*
X0012530Y0102206D01*
X0012530Y0101439D01*
X0012530Y0102206D02*
X0013297Y0102973D01*
X0014064Y0102973D01*
X0014831Y0102206D01*
X0014831Y0100671D01*
X0014064Y0099904D01*
X0014064Y0098369D02*
X0014831Y0097602D01*
X0014831Y0096067D01*
X0014064Y0095300D01*
X0014831Y0104508D02*
X0012530Y0104508D01*
X0013297Y0106042D01*
X0013297Y0106810D01*
X0012530Y0107577D01*
X0010995Y0107577D01*
X0010228Y0106810D01*
X0010228Y0105275D01*
X0010995Y0104508D01*
X0011766Y0107018D02*
X0010998Y0107785D01*
X0010998Y0109320D01*
X0011766Y0110087D01*
X0011766Y0111622D02*
X0010998Y0112389D01*
X0010998Y0113924D01*
X0011766Y0114691D01*
X0012533Y0114691D01*
X0013300Y0113924D01*
X0013300Y0113157D01*
X0013300Y0113924D02*
X0014068Y0114691D01*
X0014835Y0114691D01*
X0015602Y0113924D01*
X0015602Y0112389D01*
X0014835Y0111622D01*
X0014835Y0110087D02*
X0015602Y0109320D01*
X0015602Y0107785D01*
X0014835Y0107018D01*
X0011766Y0107018D01*
X0014831Y0107577D02*
X0014831Y0104508D01*
X0024455Y0110974D02*
X0024455Y0112508D01*
X0025222Y0113276D01*
X0026301Y0112401D02*
X0027068Y0113168D01*
X0027835Y0113168D01*
X0028603Y0112401D01*
X0028603Y0110099D01*
X0027068Y0110099D01*
X0026301Y0110866D01*
X0026301Y0112401D01*
X0028292Y0113276D02*
X0029059Y0112508D01*
X0029059Y0110974D01*
X0028292Y0110206D01*
X0025222Y0110206D01*
X0024455Y0110974D01*
X0027068Y0108565D02*
X0026301Y0107797D01*
X0026301Y0106263D01*
X0027068Y0105495D01*
X0027068Y0103961D02*
X0026301Y0103193D01*
X0026301Y0101659D01*
X0027068Y0100891D01*
X0030137Y0100891D01*
X0030905Y0101659D01*
X0030905Y0103193D01*
X0030137Y0103961D01*
X0030137Y0105495D02*
X0030905Y0106263D01*
X0030905Y0107797D01*
X0030137Y0108565D01*
X0029370Y0108565D01*
X0028603Y0107797D01*
X0027835Y0108565D01*
X0027068Y0108565D01*
X0028603Y0107797D02*
X0028603Y0107030D01*
X0028603Y0110099D02*
X0030137Y0111634D01*
X0030905Y0113168D01*
X0029059Y0115578D02*
X0028292Y0114810D01*
X0029059Y0115578D02*
X0029059Y0117112D01*
X0028292Y0117880D01*
X0027524Y0117880D01*
X0024455Y0114810D01*
X0024455Y0117880D01*
X0025222Y0119414D02*
X0025990Y0119414D01*
X0026757Y0120181D01*
X0026757Y0121716D01*
X0025990Y0122483D01*
X0025222Y0122483D01*
X0024455Y0121716D01*
X0024455Y0120181D01*
X0025222Y0119414D01*
X0026757Y0120181D02*
X0027524Y0119414D01*
X0028292Y0119414D01*
X0029059Y0120181D01*
X0029059Y0121716D01*
X0028292Y0122483D01*
X0027524Y0122483D01*
X0026757Y0121716D01*
X0015482Y0121313D02*
X0010878Y0121313D01*
X0010878Y0119779D02*
X0010878Y0122848D01*
X0011645Y0124383D02*
X0010878Y0125150D01*
X0010878Y0126685D01*
X0011645Y0127452D01*
X0012413Y0127452D01*
X0013180Y0126685D01*
X0013180Y0125917D01*
X0013180Y0126685D02*
X0013947Y0127452D01*
X0014715Y0127452D01*
X0015482Y0126685D01*
X0015482Y0125150D01*
X0014715Y0124383D01*
X0015482Y0121313D02*
X0013947Y0119779D01*
X0014715Y0118244D02*
X0015482Y0117477D01*
X0015482Y0115942D01*
X0014715Y0115175D01*
X0011645Y0115175D01*
X0010878Y0115942D01*
X0010878Y0117477D01*
X0011645Y0118244D01*
X0010998Y0117761D02*
X0015602Y0117761D01*
X0014068Y0116226D01*
X0010998Y0116226D02*
X0010998Y0119295D01*
X0016626Y0133160D02*
X0016626Y0137764D01*
X0018928Y0135462D01*
X0015858Y0135462D01*
X0020462Y0135462D02*
X0021230Y0134694D01*
X0023531Y0134694D01*
X0021997Y0134694D02*
X0020462Y0133160D01*
X0020462Y0135462D02*
X0020462Y0136996D01*
X0021230Y0137764D01*
X0023531Y0137764D01*
X0023531Y0133160D01*
X0028609Y0135014D02*
X0028609Y0136548D01*
X0029377Y0137316D01*
X0030144Y0137316D01*
X0031679Y0136548D01*
X0031679Y0138850D01*
X0028609Y0138850D01*
X0028609Y0135014D02*
X0029377Y0134246D01*
X0030911Y0134246D01*
X0031679Y0135014D01*
X0033213Y0134246D02*
X0036283Y0134246D01*
X0037817Y0134246D02*
X0039352Y0135781D01*
X0038585Y0135781D02*
X0040887Y0135781D01*
X0040887Y0134246D02*
X0040887Y0138850D01*
X0038585Y0138850D01*
X0037817Y0138083D01*
X0037817Y0136548D01*
X0038585Y0135781D01*
X0036283Y0137316D02*
X0034748Y0138850D01*
X0034748Y0134246D01*
X0049971Y0139010D02*
X0049971Y0140544D01*
X0050738Y0141312D01*
X0049971Y0142846D02*
X0053040Y0145916D01*
X0053807Y0145916D01*
X0054575Y0145148D01*
X0054575Y0143614D01*
X0053807Y0142846D01*
X0053807Y0141312D02*
X0054575Y0140544D01*
X0054575Y0139010D01*
X0053807Y0138243D01*
X0050738Y0138243D01*
X0049971Y0139010D01*
X0049971Y0142846D02*
X0049971Y0145916D01*
X0050738Y0147450D02*
X0049971Y0148218D01*
X0049971Y0149752D01*
X0050738Y0150520D01*
X0052273Y0150520D01*
X0053040Y0149752D01*
X0053040Y0148985D01*
X0052273Y0147450D01*
X0054575Y0147450D01*
X0054575Y0150520D01*
X0046189Y0151182D02*
X0045422Y0150415D01*
X0042352Y0150415D01*
X0041585Y0151182D01*
X0041585Y0152717D01*
X0042352Y0153484D01*
X0041585Y0155019D02*
X0044654Y0158088D01*
X0045422Y0158088D01*
X0046189Y0157321D01*
X0046189Y0155786D01*
X0045422Y0155019D01*
X0045422Y0153484D02*
X0046189Y0152717D01*
X0046189Y0151182D01*
X0041585Y0155019D02*
X0041585Y0158088D01*
X0043887Y0159623D02*
X0043887Y0162692D01*
X0041585Y0161925D02*
X0046189Y0161925D01*
X0043887Y0159623D01*
X0057463Y0139071D02*
X0059765Y0136769D01*
X0056696Y0136769D01*
X0057463Y0134467D02*
X0057463Y0139071D01*
X0062835Y0139071D02*
X0062835Y0134467D01*
X0064369Y0134467D02*
X0061300Y0134467D01*
X0064369Y0137536D02*
X0062835Y0139071D01*
X0065904Y0138304D02*
X0065904Y0136769D01*
X0066671Y0136002D01*
X0068973Y0136002D01*
X0067439Y0136002D02*
X0065904Y0134467D01*
X0066193Y0134146D02*
X0067728Y0133378D01*
X0069262Y0131844D01*
X0066960Y0131844D01*
X0066193Y0131076D01*
X0066193Y0130309D01*
X0066960Y0129542D01*
X0068495Y0129542D01*
X0069262Y0130309D01*
X0069262Y0131844D01*
X0070797Y0132611D02*
X0070797Y0133378D01*
X0071564Y0134146D01*
X0073099Y0134146D01*
X0073866Y0133378D01*
X0075401Y0133378D02*
X0075401Y0131844D01*
X0076168Y0131076D01*
X0078470Y0131076D01*
X0078470Y0129542D02*
X0078470Y0134146D01*
X0076168Y0134146D01*
X0075401Y0133378D01*
X0076935Y0131076D02*
X0075401Y0129542D01*
X0073866Y0129542D02*
X0070797Y0132611D01*
X0068973Y0134467D02*
X0068973Y0139071D01*
X0066671Y0139071D01*
X0065904Y0138304D01*
X0070797Y0129542D02*
X0073866Y0129542D01*
X0077194Y0124083D02*
X0076427Y0123315D01*
X0076427Y0121781D01*
X0077194Y0121013D01*
X0080263Y0124083D01*
X0077194Y0124083D01*
X0080263Y0124083D02*
X0081031Y0123315D01*
X0081031Y0121781D01*
X0080263Y0121013D01*
X0077194Y0121013D01*
X0078729Y0119479D02*
X0078729Y0116409D01*
X0081031Y0118711D01*
X0076427Y0118711D01*
X0077194Y0114875D02*
X0076427Y0114107D01*
X0076427Y0112573D01*
X0077194Y0111806D01*
X0080263Y0111806D01*
X0081031Y0112573D01*
X0081031Y0114107D01*
X0080263Y0114875D01*
X0087137Y0110914D02*
X0087137Y0107844D01*
X0087904Y0107077D01*
X0089439Y0107077D01*
X0090206Y0107844D01*
X0087137Y0110914D01*
X0087904Y0111681D01*
X0089439Y0111681D01*
X0090206Y0110914D01*
X0090206Y0107844D01*
X0091741Y0107844D02*
X0092508Y0107077D01*
X0094043Y0107077D01*
X0094810Y0107844D01*
X0096345Y0107844D02*
X0097112Y0107077D01*
X0098647Y0107077D01*
X0099414Y0107844D01*
X0099414Y0110914D01*
X0098647Y0111681D01*
X0097112Y0111681D01*
X0096345Y0110914D01*
X0094810Y0111681D02*
X0094810Y0109379D01*
X0093276Y0110146D01*
X0092508Y0110146D01*
X0091741Y0109379D01*
X0091741Y0107844D01*
X0091741Y0111681D02*
X0094810Y0111681D01*
X0095068Y0122258D02*
X0093533Y0122258D01*
X0092766Y0123026D01*
X0091232Y0124560D02*
X0088162Y0124560D01*
X0086628Y0125328D02*
X0085860Y0124560D01*
X0083558Y0124560D01*
X0083558Y0123026D02*
X0083558Y0126095D01*
X0084326Y0126862D01*
X0085860Y0126862D01*
X0086628Y0126095D01*
X0086628Y0125328D01*
X0086628Y0123026D02*
X0085860Y0122258D01*
X0084326Y0122258D01*
X0083558Y0123026D01*
X0088930Y0122258D02*
X0088930Y0126862D01*
X0091232Y0124560D01*
X0092766Y0126095D02*
X0093533Y0126862D01*
X0095068Y0126862D01*
X0095835Y0126095D01*
X0095835Y0123026D01*
X0095068Y0122258D01*
X0110705Y0120185D02*
X0110705Y0117115D01*
X0111472Y0116348D01*
X0113007Y0116348D01*
X0113774Y0117115D01*
X0110705Y0120185D01*
X0111472Y0120952D01*
X0113007Y0120952D01*
X0113774Y0120185D01*
X0113774Y0117115D01*
X0115309Y0116348D02*
X0118378Y0116348D01*
X0115309Y0119417D01*
X0115309Y0120185D01*
X0116076Y0120952D01*
X0117611Y0120952D01*
X0118378Y0120185D01*
X0119913Y0120185D02*
X0119913Y0118650D01*
X0120680Y0117883D01*
X0122982Y0117883D01*
X0121447Y0117883D02*
X0119913Y0116348D01*
X0119428Y0114881D02*
X0119428Y0110277D01*
X0120962Y0110277D02*
X0117893Y0110277D01*
X0120962Y0113346D02*
X0119428Y0114881D01*
X0122982Y0116348D02*
X0122982Y0120952D01*
X0120680Y0120952D01*
X0119913Y0120185D01*
X0124032Y0114881D02*
X0124032Y0110277D01*
X0125566Y0110277D02*
X0122497Y0110277D01*
X0125566Y0113346D02*
X0124032Y0114881D01*
X0127101Y0114114D02*
X0127868Y0114881D01*
X0129403Y0114881D01*
X0130170Y0114114D01*
X0130170Y0111044D01*
X0129403Y0110277D01*
X0127868Y0110277D01*
X0127101Y0111044D01*
X0131209Y0115847D02*
X0135813Y0115847D01*
X0135813Y0118149D01*
X0135045Y0118917D01*
X0133511Y0118917D01*
X0132743Y0118149D01*
X0132743Y0115847D01*
X0132743Y0117382D02*
X0131209Y0118917D01*
X0131976Y0120451D02*
X0131209Y0121218D01*
X0131209Y0122753D01*
X0131976Y0123520D01*
X0132743Y0123520D01*
X0133511Y0122753D01*
X0133511Y0121986D01*
X0133511Y0122753D02*
X0134278Y0123520D01*
X0135045Y0123520D01*
X0135813Y0122753D01*
X0135813Y0121218D01*
X0135045Y0120451D01*
X0137494Y0121255D02*
X0137494Y0124324D01*
X0135813Y0126590D02*
X0131209Y0126590D01*
X0131209Y0128124D02*
X0131209Y0125055D01*
X0134278Y0125055D02*
X0135813Y0126590D01*
X0140563Y0124324D02*
X0141330Y0124324D01*
X0142098Y0123557D01*
X0142098Y0122022D01*
X0141330Y0121255D01*
X0141330Y0119720D02*
X0140563Y0119720D01*
X0139796Y0118953D01*
X0139028Y0119720D01*
X0138261Y0119720D01*
X0137494Y0118953D01*
X0137494Y0117418D01*
X0138261Y0116651D01*
X0137494Y0115117D02*
X0139028Y0113582D01*
X0139028Y0114349D02*
X0139028Y0112047D01*
X0137494Y0112047D02*
X0142098Y0112047D01*
X0142098Y0114349D01*
X0141330Y0115117D01*
X0139796Y0115117D01*
X0139028Y0114349D01*
X0141330Y0116651D02*
X0142098Y0117418D01*
X0142098Y0118953D01*
X0141330Y0119720D01*
X0139796Y0118953D02*
X0139796Y0118186D01*
X0137494Y0121255D02*
X0140563Y0124324D01*
X0150124Y0116868D02*
X0150124Y0112265D01*
X0148590Y0112265D02*
X0151659Y0112265D01*
X0153961Y0112265D02*
X0153961Y0116868D01*
X0156263Y0114567D01*
X0153194Y0114567D01*
X0151659Y0115334D02*
X0150124Y0116868D01*
X0157798Y0116101D02*
X0158565Y0116868D01*
X0160100Y0116868D01*
X0160867Y0116101D01*
X0160867Y0113032D01*
X0160100Y0112265D01*
X0158565Y0112265D01*
X0157798Y0113032D01*
X0157347Y0123357D02*
X0160417Y0123357D01*
X0157347Y0126427D01*
X0157347Y0127194D01*
X0158115Y0127961D01*
X0159649Y0127961D01*
X0160417Y0127194D01*
X0161951Y0125659D02*
X0165020Y0125659D01*
X0162719Y0127961D01*
X0162719Y0123357D01*
X0166555Y0123357D02*
X0168090Y0124892D01*
X0167322Y0124892D02*
X0169624Y0124892D01*
X0169624Y0123357D02*
X0169624Y0127961D01*
X0167322Y0127961D01*
X0166555Y0127194D01*
X0166555Y0125659D01*
X0167322Y0124892D01*
X0177603Y0117840D02*
X0177603Y0117072D01*
X0178370Y0116305D01*
X0177603Y0115538D01*
X0177603Y0114770D01*
X0178370Y0114003D01*
X0179905Y0114003D01*
X0180672Y0114770D01*
X0179138Y0116305D02*
X0178370Y0116305D01*
X0177603Y0117840D02*
X0178370Y0118607D01*
X0179905Y0118607D01*
X0180672Y0117840D01*
X0182207Y0116305D02*
X0185276Y0116305D01*
X0182974Y0118607D01*
X0182974Y0114003D01*
X0186811Y0114003D02*
X0188346Y0115538D01*
X0187578Y0115538D02*
X0189880Y0115538D01*
X0189880Y0114003D02*
X0189880Y0118607D01*
X0187578Y0118607D01*
X0186811Y0117840D01*
X0186811Y0116305D01*
X0187578Y0115538D01*
X0182928Y0105087D02*
X0180626Y0105087D01*
X0179858Y0104320D01*
X0179858Y0102785D01*
X0180626Y0102018D01*
X0182928Y0102018D01*
X0182928Y0100483D02*
X0182928Y0105087D01*
X0181393Y0102018D02*
X0179858Y0100483D01*
X0178324Y0101251D02*
X0177556Y0100483D01*
X0176022Y0100483D01*
X0175254Y0101251D01*
X0175254Y0102018D01*
X0176022Y0102785D01*
X0176789Y0102785D01*
X0176022Y0102785D02*
X0175254Y0103553D01*
X0175254Y0104320D01*
X0176022Y0105087D01*
X0177556Y0105087D01*
X0178324Y0104320D01*
X0173720Y0104320D02*
X0173720Y0103553D01*
X0172952Y0102785D01*
X0170650Y0102785D01*
X0170650Y0101251D02*
X0170650Y0104320D01*
X0171418Y0105087D01*
X0172952Y0105087D01*
X0173720Y0104320D01*
X0173720Y0101251D02*
X0172952Y0100483D01*
X0171418Y0100483D01*
X0170650Y0101251D01*
X0169054Y0091350D02*
X0166752Y0091350D01*
X0165984Y0090583D01*
X0165984Y0089048D01*
X0166752Y0088281D01*
X0169054Y0088281D01*
X0169054Y0086746D02*
X0169054Y0091350D01*
X0167519Y0088281D02*
X0165984Y0086746D01*
X0164450Y0089048D02*
X0161380Y0089048D01*
X0159846Y0089816D02*
X0158311Y0091350D01*
X0158311Y0086746D01*
X0159846Y0086746D02*
X0156776Y0086746D01*
X0162148Y0086746D02*
X0162148Y0091350D01*
X0164450Y0089048D01*
X0163986Y0078827D02*
X0163218Y0078827D01*
X0162451Y0078059D01*
X0162451Y0076525D01*
X0163218Y0075757D01*
X0163986Y0075757D01*
X0164753Y0076525D01*
X0164753Y0078059D01*
X0163986Y0078827D01*
X0164753Y0078059D02*
X0165520Y0078827D01*
X0166288Y0078827D01*
X0167055Y0078059D01*
X0167055Y0076525D01*
X0166288Y0075757D01*
X0165520Y0075757D01*
X0164753Y0076525D01*
X0164753Y0074223D02*
X0164753Y0071154D01*
X0167055Y0073455D01*
X0162451Y0073455D01*
X0163218Y0069619D02*
X0162451Y0068852D01*
X0162451Y0067317D01*
X0163218Y0066550D01*
X0166288Y0066550D01*
X0167055Y0067317D01*
X0167055Y0068852D01*
X0166288Y0069619D01*
X0179630Y0067437D02*
X0180397Y0068204D01*
X0181932Y0068204D01*
X0182699Y0067437D01*
X0184234Y0065902D02*
X0187303Y0065902D01*
X0185001Y0068204D01*
X0185001Y0063600D01*
X0182699Y0063600D02*
X0179630Y0066669D01*
X0179630Y0067437D01*
X0179630Y0063600D02*
X0182699Y0063600D01*
X0188838Y0064367D02*
X0189605Y0063600D01*
X0191140Y0063600D01*
X0191907Y0064367D01*
X0191907Y0067437D01*
X0191140Y0068204D01*
X0189605Y0068204D01*
X0188838Y0067437D01*
X0182048Y0049624D02*
X0180513Y0049624D01*
X0181281Y0049624D02*
X0181281Y0045020D01*
X0182048Y0045020D02*
X0180513Y0045020D01*
X0178979Y0045788D02*
X0178211Y0045020D01*
X0176677Y0045020D01*
X0175909Y0045788D01*
X0174375Y0045788D02*
X0173608Y0045020D01*
X0172073Y0045020D01*
X0171306Y0045788D01*
X0171306Y0046555D01*
X0172073Y0047322D01*
X0172840Y0047322D01*
X0172073Y0047322D02*
X0171306Y0048090D01*
X0171306Y0048857D01*
X0172073Y0049624D01*
X0173608Y0049624D01*
X0174375Y0048857D01*
X0175909Y0048857D02*
X0176677Y0049624D01*
X0178211Y0049624D01*
X0178979Y0048857D01*
X0178979Y0045788D01*
X0179296Y0028495D02*
X0180064Y0027728D01*
X0180064Y0024659D01*
X0179296Y0023891D01*
X0177762Y0023891D01*
X0176995Y0024659D01*
X0175460Y0026193D02*
X0172391Y0026193D01*
X0170856Y0024659D02*
X0170089Y0023891D01*
X0168554Y0023891D01*
X0167787Y0024659D01*
X0167787Y0025426D01*
X0168554Y0026193D01*
X0169321Y0026193D01*
X0168554Y0026193D02*
X0167787Y0026961D01*
X0167787Y0027728D01*
X0168554Y0028495D01*
X0170089Y0028495D01*
X0170856Y0027728D01*
X0173158Y0028495D02*
X0175460Y0026193D01*
X0176995Y0027728D02*
X0177762Y0028495D01*
X0179296Y0028495D01*
X0173158Y0028495D02*
X0173158Y0023891D01*
X0146570Y0027356D02*
X0145803Y0026589D01*
X0144268Y0026589D01*
X0143501Y0027356D01*
X0141966Y0027356D02*
X0141199Y0026589D01*
X0139664Y0026589D01*
X0138897Y0027356D01*
X0138897Y0028891D01*
X0139664Y0029658D01*
X0140432Y0029658D01*
X0141966Y0028891D01*
X0141966Y0031193D01*
X0138897Y0031193D01*
X0137362Y0030426D02*
X0136595Y0031193D01*
X0135060Y0031193D01*
X0134293Y0030426D01*
X0134293Y0029658D01*
X0135060Y0028891D01*
X0134293Y0028124D01*
X0134293Y0027356D01*
X0135060Y0026589D01*
X0136595Y0026589D01*
X0137362Y0027356D01*
X0135828Y0028891D02*
X0135060Y0028891D01*
X0127812Y0031156D02*
X0127812Y0034226D01*
X0127045Y0034993D01*
X0125510Y0034993D01*
X0124743Y0034226D01*
X0123208Y0034993D02*
X0123208Y0032691D01*
X0121673Y0033458D01*
X0120906Y0033458D01*
X0120139Y0032691D01*
X0120139Y0031156D01*
X0120906Y0030389D01*
X0122441Y0030389D01*
X0123208Y0031156D01*
X0124743Y0031156D02*
X0125510Y0030389D01*
X0127045Y0030389D01*
X0127812Y0031156D01*
X0123208Y0034993D02*
X0120139Y0034993D01*
X0118604Y0034993D02*
X0118604Y0032691D01*
X0117069Y0033458D01*
X0116302Y0033458D01*
X0115535Y0032691D01*
X0115535Y0031156D01*
X0116302Y0030389D01*
X0117837Y0030389D01*
X0118604Y0031156D01*
X0118604Y0034993D02*
X0115535Y0034993D01*
X0116938Y0038888D02*
X0116938Y0043492D01*
X0114636Y0043492D01*
X0113869Y0042725D01*
X0113869Y0041190D01*
X0114636Y0040423D01*
X0116938Y0040423D01*
X0115403Y0040423D02*
X0113869Y0038888D01*
X0112334Y0039655D02*
X0111567Y0038888D01*
X0110032Y0038888D01*
X0109265Y0039655D01*
X0109265Y0041190D01*
X0110032Y0041957D01*
X0110799Y0041957D01*
X0112334Y0041190D01*
X0112334Y0043492D01*
X0109265Y0043492D01*
X0109475Y0044157D02*
X0111009Y0045692D01*
X0110242Y0045692D02*
X0112544Y0045692D01*
X0112544Y0044157D02*
X0112544Y0048761D01*
X0110242Y0048761D01*
X0109475Y0047994D01*
X0109475Y0046459D01*
X0110242Y0045692D01*
X0107940Y0044925D02*
X0107173Y0044157D01*
X0105638Y0044157D01*
X0104871Y0044925D01*
X0104871Y0046459D01*
X0105638Y0047227D01*
X0106406Y0047227D01*
X0107940Y0046459D01*
X0107940Y0048761D01*
X0104871Y0048761D01*
X0103336Y0047994D02*
X0102569Y0048761D01*
X0101034Y0048761D01*
X0100267Y0047994D01*
X0100267Y0047227D01*
X0103336Y0044157D01*
X0100267Y0044157D01*
X0104661Y0042725D02*
X0104661Y0041957D01*
X0105428Y0041190D01*
X0104661Y0040423D01*
X0104661Y0039655D01*
X0105428Y0038888D01*
X0106963Y0038888D01*
X0107730Y0039655D01*
X0106195Y0041190D02*
X0105428Y0041190D01*
X0104661Y0042725D02*
X0105428Y0043492D01*
X0106963Y0043492D01*
X0107730Y0042725D01*
X0107365Y0051674D02*
X0104295Y0051674D01*
X0104295Y0054743D02*
X0107365Y0051674D01*
X0108899Y0051674D02*
X0111969Y0051674D01*
X0108899Y0054743D01*
X0108899Y0055511D01*
X0109667Y0056278D01*
X0111201Y0056278D01*
X0111969Y0055511D01*
X0113503Y0055511D02*
X0114270Y0056278D01*
X0115805Y0056278D01*
X0116572Y0055511D01*
X0116572Y0052441D01*
X0115805Y0051674D01*
X0114270Y0051674D01*
X0113503Y0052441D01*
X0118519Y0050626D02*
X0120821Y0048324D01*
X0117752Y0048324D01*
X0118519Y0046022D02*
X0118519Y0050626D01*
X0122356Y0050626D02*
X0125425Y0050626D01*
X0125425Y0048324D01*
X0123891Y0049091D01*
X0123123Y0049091D01*
X0122356Y0048324D01*
X0122356Y0046789D01*
X0123123Y0046022D01*
X0124658Y0046022D01*
X0125425Y0046789D01*
X0126960Y0046022D02*
X0128495Y0047557D01*
X0127727Y0047557D02*
X0130029Y0047557D01*
X0130029Y0046022D02*
X0130029Y0050626D01*
X0127727Y0050626D01*
X0126960Y0049859D01*
X0126960Y0048324D01*
X0127727Y0047557D01*
X0127068Y0059138D02*
X0126301Y0059905D01*
X0127068Y0059138D02*
X0128603Y0059138D01*
X0129370Y0059905D01*
X0129370Y0062974D01*
X0128603Y0063742D01*
X0127068Y0063742D01*
X0126301Y0062974D01*
X0124766Y0062974D02*
X0123999Y0063742D01*
X0122464Y0063742D01*
X0121697Y0062974D01*
X0121697Y0062207D01*
X0122464Y0061440D01*
X0121697Y0060672D01*
X0121697Y0059905D01*
X0122464Y0059138D01*
X0123999Y0059138D01*
X0124766Y0059905D01*
X0123232Y0061440D02*
X0122464Y0061440D01*
X0120162Y0059905D02*
X0120162Y0062974D01*
X0119395Y0063742D01*
X0117860Y0063742D01*
X0117093Y0062974D01*
X0120162Y0059905D01*
X0119395Y0059138D01*
X0117860Y0059138D01*
X0117093Y0059905D01*
X0117093Y0062974D01*
X0116911Y0067617D02*
X0115376Y0067617D01*
X0114609Y0068385D01*
X0114609Y0069919D01*
X0115376Y0070687D01*
X0116143Y0070687D01*
X0117678Y0069919D01*
X0117678Y0072221D01*
X0114609Y0072221D01*
X0119213Y0072221D02*
X0122282Y0072221D01*
X0122282Y0069919D01*
X0120747Y0070687D01*
X0119980Y0070687D01*
X0119213Y0069919D01*
X0119213Y0068385D01*
X0119980Y0067617D01*
X0121515Y0067617D01*
X0122282Y0068385D01*
X0123817Y0067617D02*
X0125351Y0069152D01*
X0124584Y0069152D02*
X0126886Y0069152D01*
X0126886Y0067617D02*
X0126886Y0072221D01*
X0124584Y0072221D01*
X0123817Y0071454D01*
X0123817Y0069919D01*
X0124584Y0069152D01*
X0117678Y0068385D02*
X0116911Y0067617D01*
X0106597Y0056278D02*
X0105063Y0056278D01*
X0104295Y0055511D01*
X0104295Y0054743D01*
X0106597Y0056278D02*
X0107365Y0055511D01*
X0132861Y0075628D02*
X0132861Y0078697D01*
X0133628Y0079465D01*
X0135163Y0079465D01*
X0135930Y0078697D01*
X0135930Y0077930D01*
X0135163Y0077163D01*
X0132861Y0077163D01*
X0132861Y0075628D02*
X0133628Y0074861D01*
X0135163Y0074861D01*
X0135930Y0075628D01*
X0137465Y0074861D02*
X0140534Y0074861D01*
X0137465Y0077930D01*
X0137465Y0078697D01*
X0138232Y0079465D01*
X0139767Y0079465D01*
X0140534Y0078697D01*
X0142069Y0078697D02*
X0142836Y0079465D01*
X0144370Y0079465D01*
X0145138Y0078697D01*
X0145138Y0075628D01*
X0144370Y0074861D01*
X0142836Y0074861D01*
X0142069Y0075628D01*
X0133958Y0084272D02*
X0133958Y0088876D01*
X0131656Y0088876D01*
X0130889Y0088109D01*
X0130889Y0086574D01*
X0131656Y0085807D01*
X0133958Y0085807D01*
X0132424Y0085807D02*
X0130889Y0084272D01*
X0129354Y0085040D02*
X0128587Y0084272D01*
X0127052Y0084272D01*
X0126285Y0085040D01*
X0126285Y0085807D01*
X0127052Y0086574D01*
X0127820Y0086574D01*
X0127052Y0086574D02*
X0126285Y0087342D01*
X0126285Y0088109D01*
X0127052Y0088876D01*
X0128587Y0088876D01*
X0129354Y0088109D01*
X0124750Y0088109D02*
X0124750Y0085040D01*
X0121681Y0088109D01*
X0121681Y0085040D01*
X0122448Y0084272D01*
X0123983Y0084272D01*
X0124750Y0085040D01*
X0124750Y0088109D02*
X0123983Y0088876D01*
X0122448Y0088876D01*
X0121681Y0088109D01*
X0117812Y0088004D02*
X0117812Y0084935D01*
X0116277Y0083400D01*
X0114743Y0084935D01*
X0114743Y0088004D01*
X0113208Y0088004D02*
X0110906Y0088004D01*
X0110139Y0087237D01*
X0110139Y0085702D01*
X0110906Y0084935D01*
X0113208Y0084935D01*
X0111673Y0084935D02*
X0110139Y0083400D01*
X0108604Y0083400D02*
X0105535Y0083400D01*
X0107069Y0083400D02*
X0107069Y0088004D01*
X0108604Y0086469D01*
X0113208Y0088004D02*
X0113208Y0083400D01*
X0143441Y0094935D02*
X0143441Y0096470D01*
X0144208Y0097237D01*
X0144208Y0098772D02*
X0143441Y0099539D01*
X0143441Y0101074D01*
X0144208Y0101841D01*
X0144976Y0101841D01*
X0145743Y0101074D01*
X0145743Y0100306D01*
X0145743Y0101074D02*
X0146510Y0101841D01*
X0147278Y0101841D01*
X0148045Y0101074D01*
X0148045Y0099539D01*
X0147278Y0098772D01*
X0147278Y0097237D02*
X0148045Y0096470D01*
X0148045Y0094935D01*
X0147278Y0094168D01*
X0144208Y0094168D01*
X0143441Y0094935D01*
X0128227Y0132458D02*
X0126693Y0132458D01*
X0125925Y0133226D01*
X0124391Y0132458D02*
X0121321Y0132458D01*
X0119787Y0132458D02*
X0116717Y0135528D01*
X0116717Y0136295D01*
X0117485Y0137062D01*
X0119019Y0137062D01*
X0119787Y0136295D01*
X0122856Y0137062D02*
X0124391Y0135528D01*
X0125925Y0136295D02*
X0126693Y0137062D01*
X0128227Y0137062D01*
X0128994Y0136295D01*
X0128994Y0133226D01*
X0128227Y0132458D01*
X0122856Y0132458D02*
X0122856Y0137062D01*
X0119787Y0132458D02*
X0116717Y0132458D01*
X0093043Y0161431D02*
X0093043Y0166035D01*
X0090741Y0166035D01*
X0089974Y0165268D01*
X0089974Y0163733D01*
X0090741Y0162966D01*
X0093043Y0162966D01*
X0091509Y0162966D02*
X0089974Y0161431D01*
X0088439Y0161431D02*
X0085370Y0161431D01*
X0083835Y0161431D02*
X0080766Y0161431D01*
X0082301Y0161431D02*
X0082301Y0166035D01*
X0083835Y0164501D01*
X0086905Y0166035D02*
X0086905Y0161431D01*
X0088439Y0164501D02*
X0086905Y0166035D01*
X0055128Y0118813D02*
X0053594Y0118813D01*
X0054361Y0118813D02*
X0054361Y0114209D01*
X0055128Y0114209D02*
X0053594Y0114209D01*
X0052059Y0114976D02*
X0051292Y0114209D01*
X0049757Y0114209D01*
X0048990Y0114976D01*
X0047455Y0114209D02*
X0044386Y0114209D01*
X0045920Y0114209D02*
X0045920Y0118813D01*
X0047455Y0117278D01*
X0048990Y0118045D02*
X0049757Y0118813D01*
X0051292Y0118813D01*
X0052059Y0118045D01*
X0052059Y0114976D01*
X0042851Y0114209D02*
X0039782Y0117278D01*
X0039782Y0118045D01*
X0040549Y0118813D01*
X0042084Y0118813D01*
X0042851Y0118045D01*
X0042851Y0114209D02*
X0039782Y0114209D01*
X0040262Y0101289D02*
X0039495Y0100522D01*
X0039495Y0099754D01*
X0040262Y0098987D01*
X0041796Y0098987D01*
X0042564Y0099754D01*
X0042564Y0100522D01*
X0041796Y0101289D01*
X0040262Y0101289D01*
X0040262Y0098987D02*
X0039495Y0098220D01*
X0039495Y0097452D01*
X0040262Y0096685D01*
X0041796Y0096685D01*
X0042564Y0097452D01*
X0042564Y0098220D01*
X0041796Y0098987D01*
X0044098Y0098987D02*
X0044098Y0100522D01*
X0044866Y0101289D01*
X0047168Y0101289D01*
X0047168Y0096685D01*
X0047168Y0098220D02*
X0044866Y0098220D01*
X0044098Y0098987D01*
X0045633Y0098220D02*
X0044098Y0096685D01*
X0046333Y0091405D02*
X0046333Y0090638D01*
X0049402Y0087569D01*
X0049402Y0086802D01*
X0050937Y0086802D02*
X0054006Y0086802D01*
X0052472Y0086802D02*
X0052472Y0091405D01*
X0054006Y0089871D01*
X0055541Y0090638D02*
X0056308Y0091405D01*
X0057843Y0091405D01*
X0058610Y0090638D01*
X0058610Y0087569D01*
X0057843Y0086802D01*
X0056308Y0086802D01*
X0055541Y0087569D01*
X0060394Y0086959D02*
X0064998Y0086959D01*
X0064998Y0089261D01*
X0064231Y0090028D01*
X0062696Y0090028D01*
X0061929Y0089261D01*
X0061929Y0086959D01*
X0061929Y0088494D02*
X0060394Y0090028D01*
X0060394Y0091563D02*
X0061162Y0091563D01*
X0064231Y0094632D01*
X0064998Y0094632D01*
X0064998Y0091563D01*
X0069510Y0093061D02*
X0069510Y0094596D01*
X0070278Y0095363D01*
X0069510Y0096898D02*
X0072580Y0099967D01*
X0073347Y0099967D01*
X0074114Y0099200D01*
X0074114Y0097665D01*
X0073347Y0096898D01*
X0073347Y0095363D02*
X0074114Y0094596D01*
X0074114Y0093061D01*
X0073347Y0092294D01*
X0070278Y0092294D01*
X0069510Y0093061D01*
X0069510Y0096898D02*
X0069510Y0099967D01*
X0070278Y0101502D02*
X0073347Y0104571D01*
X0070278Y0104571D01*
X0069510Y0103804D01*
X0069510Y0102269D01*
X0070278Y0101502D01*
X0073347Y0101502D01*
X0074114Y0102269D01*
X0074114Y0103804D01*
X0073347Y0104571D01*
X0049402Y0091405D02*
X0046333Y0091405D01*
X0073439Y0074189D02*
X0073439Y0072655D01*
X0074206Y0071887D01*
X0077275Y0074957D01*
X0074206Y0074957D01*
X0073439Y0074189D01*
X0074206Y0071887D02*
X0077275Y0071887D01*
X0078043Y0072655D01*
X0078043Y0074189D01*
X0077275Y0074957D01*
X0073439Y0070353D02*
X0073439Y0067283D01*
X0073439Y0065749D02*
X0074973Y0064214D01*
X0074973Y0064981D02*
X0074973Y0062680D01*
X0073439Y0062680D02*
X0078043Y0062680D01*
X0078043Y0064981D01*
X0077275Y0065749D01*
X0075741Y0065749D01*
X0074973Y0064981D01*
X0076508Y0067283D02*
X0078043Y0068818D01*
X0073439Y0068818D01*
X0143501Y0030426D02*
X0144268Y0031193D01*
X0145803Y0031193D01*
X0146570Y0030426D01*
X0146570Y0027356D01*
X0147478Y0046258D02*
X0147478Y0050862D01*
X0149780Y0048560D01*
X0146710Y0048560D01*
X0151314Y0047026D02*
X0152082Y0046258D01*
X0153616Y0046258D01*
X0154383Y0047026D01*
X0154383Y0050095D01*
X0153616Y0050862D01*
X0152082Y0050862D01*
X0151314Y0050095D01*
X0155918Y0050862D02*
X0157453Y0050862D01*
X0156685Y0050862D02*
X0156685Y0046258D01*
X0155918Y0046258D02*
X0157453Y0046258D01*
D11*
X0138700Y0041200D02*
X0138700Y0037600D01*
X0137900Y0036800D01*
X0131900Y0036800D01*
X0130500Y0038200D01*
X0130500Y0039600D01*
X0129100Y0041000D01*
X0117500Y0041000D01*
X0120300Y0043600D02*
X0117900Y0046000D01*
X0114100Y0046000D01*
X0120300Y0043600D02*
X0132900Y0043600D01*
X0131300Y0048800D02*
X0130100Y0048800D01*
X0131300Y0048800D02*
X0133700Y0051200D01*
X0135700Y0051200D01*
X0131500Y0057400D02*
X0125700Y0057400D01*
X0124700Y0058400D01*
X0128900Y0064200D02*
X0126100Y0067000D01*
X0128900Y0064200D02*
X0134100Y0064200D01*
X0139100Y0072000D02*
X0139100Y0074200D01*
X0160700Y0067200D02*
X0161900Y0067200D01*
X0162100Y0067400D01*
X0174100Y0065600D02*
X0178300Y0065600D01*
X0168500Y0103200D02*
X0161900Y0103200D01*
X0162300Y0109000D02*
X0158500Y0109000D01*
X0156100Y0111400D01*
X0109350Y0074853D02*
X0107498Y0074853D01*
X0106881Y0074236D01*
X0106881Y0071767D01*
X0107498Y0071150D01*
X0109350Y0071150D01*
X0109350Y0074853D01*
X0105667Y0074236D02*
X0105050Y0074853D01*
X0103815Y0074853D01*
X0103198Y0074236D01*
X0103198Y0073619D01*
X0103815Y0073002D01*
X0103198Y0072384D01*
X0103198Y0071767D01*
X0103815Y0071150D01*
X0105050Y0071150D01*
X0105667Y0071767D01*
X0104432Y0073002D02*
X0103815Y0073002D01*
X0101350Y0072150D02*
X0101350Y0075853D01*
X0099498Y0075853D01*
X0098881Y0075236D01*
X0098881Y0072767D01*
X0099498Y0072150D01*
X0101350Y0072150D01*
X0097667Y0074002D02*
X0095198Y0074002D01*
X0095815Y0075853D02*
X0095815Y0072150D01*
X0097667Y0074002D02*
X0095815Y0075853D01*
X0053300Y0092000D02*
X0053300Y0093200D01*
X0051900Y0098600D02*
X0047300Y0098600D01*
X0032100Y0095200D02*
X0032100Y0090200D01*
X0022700Y0094800D02*
X0022700Y0096200D01*
X0019300Y0101000D02*
X0015100Y0101000D01*
X0023100Y0105400D02*
X0025500Y0105400D01*
X0019100Y0110200D02*
X0016900Y0110200D01*
X0015700Y0111400D01*
X0021700Y0118200D02*
X0023900Y0118200D01*
X0018100Y0123000D02*
X0015500Y0123000D01*
X0054700Y0132200D02*
X0057700Y0132200D01*
X0059300Y0133800D01*
X0055300Y0143600D02*
X0056900Y0145200D01*
X0056900Y0148400D01*
X0051100Y0156400D02*
X0049900Y0156400D01*
X0075300Y0128800D02*
X0075300Y0127200D01*
X0075900Y0119400D02*
X0073300Y0119400D01*
X0087700Y0159800D02*
X0087700Y0160600D01*
X0123500Y0036600D02*
X0123500Y0034800D01*
X0109350Y0021853D02*
X0107498Y0021853D01*
X0106881Y0021236D01*
X0106881Y0018767D01*
X0107498Y0018150D01*
X0109350Y0018150D01*
X0109350Y0021853D01*
X0105667Y0020619D02*
X0104432Y0021853D01*
X0104432Y0018150D01*
X0103350Y0018150D02*
X0101498Y0018150D01*
X0100881Y0018767D01*
X0100881Y0021236D01*
X0101498Y0021853D01*
X0103350Y0021853D01*
X0103350Y0018150D01*
X0103198Y0018150D02*
X0105667Y0018150D01*
X0099667Y0018150D02*
X0097198Y0020619D01*
X0097198Y0021236D01*
X0097815Y0021853D01*
X0099050Y0021853D01*
X0099667Y0021236D01*
X0099667Y0018150D02*
X0097198Y0018150D01*
D12*
X0094500Y0025000D02*
X0094500Y0027000D01*
X0092500Y0029000D01*
X0094500Y0029000D01*
X0094500Y0031000D01*
X0094500Y0029000D02*
X0096500Y0029000D01*
X0094500Y0027000D01*
X0092500Y0027000D01*
X0094500Y0027000D02*
X0096500Y0027000D01*
X0110500Y0028000D02*
X0112500Y0028000D01*
X0112500Y0026000D01*
X0112500Y0028000D02*
X0114500Y0028000D01*
X0112500Y0030000D01*
X0112500Y0032000D01*
X0112500Y0030000D02*
X0110500Y0030000D01*
X0112500Y0030000D02*
X0110500Y0028000D01*
X0112500Y0030000D02*
X0114500Y0030000D01*
X0029539Y0064649D02*
X0029539Y0075649D01*
X0029537Y0075709D01*
X0029532Y0075770D01*
X0029523Y0075829D01*
X0029510Y0075888D01*
X0029494Y0075947D01*
X0029474Y0076004D01*
X0029451Y0076059D01*
X0029424Y0076114D01*
X0029395Y0076166D01*
X0029362Y0076217D01*
X0029326Y0076266D01*
X0029288Y0076312D01*
X0029246Y0076356D01*
X0029202Y0076398D01*
X0029156Y0076436D01*
X0029107Y0076472D01*
X0029056Y0076505D01*
X0029004Y0076534D01*
X0028949Y0076561D01*
X0028894Y0076584D01*
X0028837Y0076604D01*
X0028778Y0076620D01*
X0028719Y0076633D01*
X0028660Y0076642D01*
X0028599Y0076647D01*
X0028539Y0076649D01*
X0022539Y0076649D01*
X0022479Y0076647D01*
X0022418Y0076642D01*
X0022359Y0076633D01*
X0022300Y0076620D01*
X0022241Y0076604D01*
X0022184Y0076584D01*
X0022129Y0076561D01*
X0022074Y0076534D01*
X0022022Y0076505D01*
X0021971Y0076472D01*
X0021922Y0076436D01*
X0021876Y0076398D01*
X0021832Y0076356D01*
X0021790Y0076312D01*
X0021752Y0076266D01*
X0021716Y0076217D01*
X0021683Y0076166D01*
X0021654Y0076114D01*
X0021627Y0076059D01*
X0021604Y0076004D01*
X0021584Y0075947D01*
X0021568Y0075888D01*
X0021555Y0075829D01*
X0021546Y0075770D01*
X0021541Y0075709D01*
X0021539Y0075649D01*
X0021539Y0064649D01*
X0021541Y0064589D01*
X0021546Y0064528D01*
X0021555Y0064469D01*
X0021568Y0064410D01*
X0021584Y0064351D01*
X0021604Y0064294D01*
X0021627Y0064239D01*
X0021654Y0064184D01*
X0021683Y0064132D01*
X0021716Y0064081D01*
X0021752Y0064032D01*
X0021790Y0063986D01*
X0021832Y0063942D01*
X0021876Y0063900D01*
X0021922Y0063862D01*
X0021971Y0063826D01*
X0022022Y0063793D01*
X0022074Y0063764D01*
X0022129Y0063737D01*
X0022184Y0063714D01*
X0022241Y0063694D01*
X0022300Y0063678D01*
X0022359Y0063665D01*
X0022418Y0063656D01*
X0022479Y0063651D01*
X0022539Y0063649D01*
X0028539Y0063649D01*
X0028599Y0063651D01*
X0028660Y0063656D01*
X0028719Y0063665D01*
X0028778Y0063678D01*
X0028837Y0063694D01*
X0028894Y0063714D01*
X0028949Y0063737D01*
X0029004Y0063764D01*
X0029056Y0063793D01*
X0029107Y0063826D01*
X0029156Y0063862D01*
X0029202Y0063900D01*
X0029246Y0063942D01*
X0029288Y0063986D01*
X0029326Y0064032D01*
X0029362Y0064081D01*
X0029395Y0064132D01*
X0029424Y0064184D01*
X0029451Y0064239D01*
X0029474Y0064294D01*
X0029494Y0064351D01*
X0029510Y0064410D01*
X0029523Y0064469D01*
X0029532Y0064528D01*
X0029537Y0064589D01*
X0029539Y0064649D01*
X0020483Y0064649D02*
X0020483Y0075649D01*
X0020481Y0075709D01*
X0020476Y0075770D01*
X0020467Y0075829D01*
X0020454Y0075888D01*
X0020438Y0075947D01*
X0020418Y0076004D01*
X0020395Y0076059D01*
X0020368Y0076114D01*
X0020339Y0076166D01*
X0020306Y0076217D01*
X0020270Y0076266D01*
X0020232Y0076312D01*
X0020190Y0076356D01*
X0020146Y0076398D01*
X0020100Y0076436D01*
X0020051Y0076472D01*
X0020000Y0076505D01*
X0019948Y0076534D01*
X0019893Y0076561D01*
X0019838Y0076584D01*
X0019781Y0076604D01*
X0019722Y0076620D01*
X0019663Y0076633D01*
X0019604Y0076642D01*
X0019543Y0076647D01*
X0019483Y0076649D01*
X0013483Y0076649D01*
X0013423Y0076647D01*
X0013362Y0076642D01*
X0013303Y0076633D01*
X0013244Y0076620D01*
X0013185Y0076604D01*
X0013128Y0076584D01*
X0013073Y0076561D01*
X0013018Y0076534D01*
X0012966Y0076505D01*
X0012915Y0076472D01*
X0012866Y0076436D01*
X0012820Y0076398D01*
X0012776Y0076356D01*
X0012734Y0076312D01*
X0012696Y0076266D01*
X0012660Y0076217D01*
X0012627Y0076166D01*
X0012598Y0076114D01*
X0012571Y0076059D01*
X0012548Y0076004D01*
X0012528Y0075947D01*
X0012512Y0075888D01*
X0012499Y0075829D01*
X0012490Y0075770D01*
X0012485Y0075709D01*
X0012483Y0075649D01*
X0012483Y0064649D01*
X0012485Y0064589D01*
X0012490Y0064528D01*
X0012499Y0064469D01*
X0012512Y0064410D01*
X0012528Y0064351D01*
X0012548Y0064294D01*
X0012571Y0064239D01*
X0012598Y0064184D01*
X0012627Y0064132D01*
X0012660Y0064081D01*
X0012696Y0064032D01*
X0012734Y0063986D01*
X0012776Y0063942D01*
X0012820Y0063900D01*
X0012866Y0063862D01*
X0012915Y0063826D01*
X0012966Y0063793D01*
X0013018Y0063764D01*
X0013073Y0063737D01*
X0013128Y0063714D01*
X0013185Y0063694D01*
X0013244Y0063678D01*
X0013303Y0063665D01*
X0013362Y0063656D01*
X0013423Y0063651D01*
X0013483Y0063649D01*
X0019483Y0063649D01*
X0019543Y0063651D01*
X0019604Y0063656D01*
X0019663Y0063665D01*
X0019722Y0063678D01*
X0019781Y0063694D01*
X0019838Y0063714D01*
X0019893Y0063737D01*
X0019948Y0063764D01*
X0020000Y0063793D01*
X0020051Y0063826D01*
X0020100Y0063862D01*
X0020146Y0063900D01*
X0020190Y0063942D01*
X0020232Y0063986D01*
X0020270Y0064032D01*
X0020306Y0064081D01*
X0020339Y0064132D01*
X0020368Y0064184D01*
X0020395Y0064239D01*
X0020418Y0064294D01*
X0020438Y0064351D01*
X0020454Y0064410D01*
X0020467Y0064469D01*
X0020476Y0064528D01*
X0020481Y0064589D01*
X0020483Y0064649D01*
D13*
X0017987Y0061297D02*
X0018737Y0060547D01*
X0018737Y0059046D01*
X0017987Y0058295D01*
X0018737Y0056694D02*
X0018737Y0055192D01*
X0018737Y0055943D02*
X0014984Y0055943D01*
X0014233Y0055192D01*
X0014233Y0054442D01*
X0014984Y0053691D01*
X0014984Y0052090D02*
X0014233Y0051339D01*
X0014233Y0049838D01*
X0014984Y0049087D01*
X0016485Y0049838D02*
X0016485Y0051339D01*
X0015735Y0052090D01*
X0014984Y0052090D01*
X0017987Y0052090D02*
X0018737Y0051339D01*
X0018737Y0049838D01*
X0017987Y0049087D01*
X0017236Y0049087D01*
X0016485Y0049838D01*
X0023289Y0049838D02*
X0024039Y0049087D01*
X0023289Y0049838D02*
X0023289Y0051339D01*
X0024039Y0052090D01*
X0024790Y0052090D01*
X0025541Y0051339D01*
X0025541Y0049838D01*
X0026291Y0049087D01*
X0027042Y0049087D01*
X0027792Y0049838D01*
X0027792Y0051339D01*
X0027042Y0052090D01*
X0027792Y0055192D02*
X0027792Y0056694D01*
X0027792Y0055943D02*
X0024039Y0055943D01*
X0023289Y0055192D01*
X0023289Y0054442D01*
X0024039Y0053691D01*
X0023289Y0058295D02*
X0023289Y0061297D01*
X0023289Y0059796D02*
X0027792Y0059796D01*
X0026291Y0058295D01*
X0017987Y0061297D02*
X0017236Y0061297D01*
X0014233Y0058295D01*
X0014233Y0061297D01*
X0095747Y0058794D02*
X0101653Y0058794D01*
X0101653Y0070606D01*
X0095747Y0070606D01*
X0095747Y0058794D01*
X0096950Y0063950D02*
X0098700Y0065450D01*
X0100450Y0063950D01*
X0096950Y0063950D01*
X0096950Y0065450D02*
X0100450Y0065450D01*
X0103950Y0064950D02*
X0105700Y0063450D01*
X0107450Y0064950D01*
X0103950Y0064950D01*
X0103950Y0063450D02*
X0107450Y0063450D01*
X0108653Y0058294D02*
X0102747Y0058294D01*
X0102747Y0070106D01*
X0108653Y0070106D01*
X0108653Y0058294D01*
X0109653Y0034606D02*
X0103747Y0034606D01*
X0103747Y0022794D01*
X0109653Y0022794D01*
X0109653Y0034606D01*
X0108450Y0029450D02*
X0104950Y0029450D01*
X0104950Y0027950D02*
X0106700Y0029450D01*
X0108450Y0027950D01*
X0104950Y0027950D01*
X0101950Y0027450D02*
X0098450Y0027450D01*
X0098450Y0028950D02*
X0100200Y0027450D01*
X0101950Y0028950D01*
X0098450Y0028950D01*
X0097247Y0034106D02*
X0097247Y0022294D01*
X0103153Y0022294D01*
X0103153Y0034106D01*
X0097247Y0034106D01*
X0107035Y0089834D02*
X0107035Y0102039D01*
X0121011Y0102039D01*
X0121011Y0089834D01*
X0107035Y0089834D01*
X0109791Y0095936D02*
X0118452Y0095936D01*
X0109772Y0095936D02*
X0109774Y0096067D01*
X0109780Y0096199D01*
X0109790Y0096330D01*
X0109804Y0096460D01*
X0109822Y0096590D01*
X0109843Y0096720D01*
X0109869Y0096849D01*
X0109898Y0096977D01*
X0109932Y0097104D01*
X0109969Y0097230D01*
X0110010Y0097355D01*
X0110055Y0097478D01*
X0110103Y0097600D01*
X0110155Y0097721D01*
X0110211Y0097840D01*
X0110270Y0097957D01*
X0110333Y0098072D01*
X0110399Y0098186D01*
X0110469Y0098297D01*
X0110542Y0098407D01*
X0110618Y0098513D01*
X0110698Y0098618D01*
X0110780Y0098720D01*
X0110866Y0098820D01*
X0110954Y0098917D01*
X0111046Y0099011D01*
X0111140Y0099103D01*
X0111237Y0099191D01*
X0111337Y0099277D01*
X0111439Y0099359D01*
X0111544Y0099439D01*
X0111650Y0099515D01*
X0111760Y0099588D01*
X0111871Y0099658D01*
X0111985Y0099724D01*
X0112100Y0099787D01*
X0112217Y0099846D01*
X0112336Y0099902D01*
X0112457Y0099954D01*
X0112579Y0100002D01*
X0112702Y0100047D01*
X0112827Y0100088D01*
X0112953Y0100125D01*
X0113080Y0100159D01*
X0113208Y0100188D01*
X0113337Y0100214D01*
X0113467Y0100235D01*
X0113597Y0100253D01*
X0113727Y0100267D01*
X0113858Y0100277D01*
X0113990Y0100283D01*
X0114121Y0100285D01*
X0114252Y0100283D01*
X0114384Y0100277D01*
X0114515Y0100267D01*
X0114645Y0100253D01*
X0114775Y0100235D01*
X0114905Y0100214D01*
X0115034Y0100188D01*
X0115162Y0100159D01*
X0115289Y0100125D01*
X0115415Y0100088D01*
X0115540Y0100047D01*
X0115663Y0100002D01*
X0115785Y0099954D01*
X0115906Y0099902D01*
X0116025Y0099846D01*
X0116142Y0099787D01*
X0116257Y0099724D01*
X0116371Y0099658D01*
X0116482Y0099588D01*
X0116592Y0099515D01*
X0116698Y0099439D01*
X0116803Y0099359D01*
X0116905Y0099277D01*
X0117005Y0099191D01*
X0117102Y0099103D01*
X0117196Y0099011D01*
X0117288Y0098917D01*
X0117376Y0098820D01*
X0117462Y0098720D01*
X0117544Y0098618D01*
X0117624Y0098513D01*
X0117700Y0098407D01*
X0117773Y0098297D01*
X0117843Y0098186D01*
X0117909Y0098072D01*
X0117972Y0097957D01*
X0118031Y0097840D01*
X0118087Y0097721D01*
X0118139Y0097600D01*
X0118187Y0097478D01*
X0118232Y0097355D01*
X0118273Y0097230D01*
X0118310Y0097104D01*
X0118344Y0096977D01*
X0118373Y0096849D01*
X0118399Y0096720D01*
X0118420Y0096590D01*
X0118438Y0096460D01*
X0118452Y0096330D01*
X0118462Y0096199D01*
X0118468Y0096067D01*
X0118470Y0095936D01*
X0118468Y0095805D01*
X0118462Y0095673D01*
X0118452Y0095542D01*
X0118438Y0095412D01*
X0118420Y0095282D01*
X0118399Y0095152D01*
X0118373Y0095023D01*
X0118344Y0094895D01*
X0118310Y0094768D01*
X0118273Y0094642D01*
X0118232Y0094517D01*
X0118187Y0094394D01*
X0118139Y0094272D01*
X0118087Y0094151D01*
X0118031Y0094032D01*
X0117972Y0093915D01*
X0117909Y0093800D01*
X0117843Y0093686D01*
X0117773Y0093575D01*
X0117700Y0093465D01*
X0117624Y0093359D01*
X0117544Y0093254D01*
X0117462Y0093152D01*
X0117376Y0093052D01*
X0117288Y0092955D01*
X0117196Y0092861D01*
X0117102Y0092769D01*
X0117005Y0092681D01*
X0116905Y0092595D01*
X0116803Y0092513D01*
X0116698Y0092433D01*
X0116592Y0092357D01*
X0116482Y0092284D01*
X0116371Y0092214D01*
X0116257Y0092148D01*
X0116142Y0092085D01*
X0116025Y0092026D01*
X0115906Y0091970D01*
X0115785Y0091918D01*
X0115663Y0091870D01*
X0115540Y0091825D01*
X0115415Y0091784D01*
X0115289Y0091747D01*
X0115162Y0091713D01*
X0115034Y0091684D01*
X0114905Y0091658D01*
X0114775Y0091637D01*
X0114645Y0091619D01*
X0114515Y0091605D01*
X0114384Y0091595D01*
X0114252Y0091589D01*
X0114121Y0091587D01*
X0113990Y0091589D01*
X0113858Y0091595D01*
X0113727Y0091605D01*
X0113597Y0091619D01*
X0113467Y0091637D01*
X0113337Y0091658D01*
X0113208Y0091684D01*
X0113080Y0091713D01*
X0112953Y0091747D01*
X0112827Y0091784D01*
X0112702Y0091825D01*
X0112579Y0091870D01*
X0112457Y0091918D01*
X0112336Y0091970D01*
X0112217Y0092026D01*
X0112100Y0092085D01*
X0111985Y0092148D01*
X0111871Y0092214D01*
X0111760Y0092284D01*
X0111650Y0092357D01*
X0111544Y0092433D01*
X0111439Y0092513D01*
X0111337Y0092595D01*
X0111237Y0092681D01*
X0111140Y0092769D01*
X0111046Y0092861D01*
X0110954Y0092955D01*
X0110866Y0093052D01*
X0110780Y0093152D01*
X0110698Y0093254D01*
X0110618Y0093359D01*
X0110542Y0093465D01*
X0110469Y0093575D01*
X0110399Y0093686D01*
X0110333Y0093800D01*
X0110270Y0093915D01*
X0110211Y0094032D01*
X0110155Y0094151D01*
X0110103Y0094272D01*
X0110055Y0094394D01*
X0110010Y0094517D01*
X0109969Y0094642D01*
X0109932Y0094768D01*
X0109898Y0094895D01*
X0109869Y0095023D01*
X0109843Y0095152D01*
X0109822Y0095282D01*
X0109804Y0095412D01*
X0109790Y0095542D01*
X0109780Y0095673D01*
X0109774Y0095805D01*
X0109772Y0095936D01*
X0114121Y0091606D02*
X0114121Y0100267D01*
D14*
X0066877Y0080779D02*
X0057035Y0080779D01*
X0057035Y0062669D02*
X0066877Y0062669D01*
X0052917Y0102590D02*
X0035200Y0102590D01*
X0035200Y0128574D01*
X0052917Y0128574D01*
X0052917Y0102590D01*
X0066483Y0143771D02*
X0076326Y0143771D01*
X0076326Y0161881D02*
X0066483Y0161881D01*
X0030337Y0155154D02*
X0030337Y0151217D01*
X0010258Y0151217D02*
X0010258Y0155154D01*
D15*
X0037759Y0105346D03*
D16*
X0060841Y0074246D02*
X0063043Y0074246D01*
X0063593Y0073695D01*
X0063593Y0072594D01*
X0063043Y0072044D01*
X0062492Y0072044D01*
X0061942Y0072594D01*
X0061942Y0074246D01*
X0060841Y0074246D02*
X0060290Y0073695D01*
X0060290Y0072594D01*
X0060841Y0072044D01*
X0060841Y0070563D02*
X0060290Y0070012D01*
X0060290Y0068911D01*
X0060841Y0068361D01*
X0063043Y0068361D01*
X0063593Y0068911D01*
X0063593Y0070012D01*
X0063043Y0070563D01*
X0063593Y0067006D02*
X0063593Y0065905D01*
X0063593Y0066456D02*
X0060290Y0066456D01*
X0060290Y0067006D02*
X0060290Y0065905D01*
X0069788Y0144671D02*
X0069788Y0145772D01*
X0069788Y0145222D02*
X0073091Y0145222D01*
X0073091Y0145772D02*
X0073091Y0144671D01*
X0072540Y0147127D02*
X0070338Y0147127D01*
X0069788Y0147677D01*
X0069788Y0148778D01*
X0070338Y0149328D01*
X0069788Y0150810D02*
X0069788Y0153012D01*
X0069788Y0151911D02*
X0073091Y0151911D01*
X0071990Y0150810D01*
X0072540Y0149328D02*
X0073091Y0148778D01*
X0073091Y0147677D01*
X0072540Y0147127D01*
X0072540Y0154493D02*
X0070338Y0154493D01*
X0072540Y0156695D01*
X0070338Y0156695D01*
X0069788Y0156144D01*
X0069788Y0155043D01*
X0070338Y0154493D01*
X0072540Y0154493D02*
X0073091Y0155043D01*
X0073091Y0156144D01*
X0072540Y0156695D01*
X0023587Y0155069D02*
X0023587Y0151766D01*
X0021385Y0151766D01*
X0019904Y0151766D02*
X0017702Y0151766D01*
X0018803Y0151766D02*
X0018803Y0155069D01*
X0019904Y0153968D01*
M02*
