%
M48
M72
T01C0.01181
T02C0.01378
T03C0.01575
T04C0.01969
T05C0.02362
T06C0.03150
T07C0.04000
%
T01
X58500Y49400
X62546Y54401
X71700Y50000
X79869Y40228
X80657Y35897
X84594Y41409
X131050Y31960
X118452Y87865
X143649Y107944
X125617Y119676
X94830Y99283
X77901Y104401
X77507Y115818
X62546Y116606
X50342Y116212
X49900Y121200
X66877Y130779
X61365Y142983
X78294Y139440
X34200Y91015
X16877Y91015
X10578Y106763
X13728Y115424
X161917Y115424
T02
X166877Y101251
X163590Y98751
X169633Y94913
X171602Y98495
X182231Y111881
X155066Y137078
X173570Y148495
X133446Y114755
X127920Y103200
X121602Y103220
X114121Y87865
X125145Y86684
X139357Y90976
X145224Y75661
X149161Y71724
X153491Y71330
X159003Y80779
X172783Y71724
X177901Y71724
X184987Y71724
X190893Y67578
X158216Y48495
X144043Y48889
X126720Y52039
X125539Y42196
X112940Y36684
X101917Y38653
X91680Y35109
X104869Y56566
X112546Y59519
X125539Y65031
X99948Y89046
X94500Y77000
X90106Y57550
X66877Y81960
X65696Y87472
X67271Y93377
X58216Y87472
X53491Y81566
X59791Y62669
X39598Y35897
X49554Y102826
X62940Y108338
X77113Y122117
X85243Y114243
X94500Y123000
X90893Y134322
X105066Y139046
X115696Y134716
X120420Y134716
X132625Y140621
X71122Y134652
X13334Y110700
X124357Y29991
X157822Y29991
X157428Y21724
X172783Y25267
X186956Y27235
T03
X43043Y114031
T04
X40500Y57400
T05
X35937Y142650
X39712Y150035
T06
X35313Y75800
X35313Y65800
X106900Y52200
X106900Y42200
X167886Y81016
X167886Y89677
X182700Y87000
T07
X38964Y25306
X48964Y25306
X58964Y25306
X68964Y25306
X78964Y25306
X88964Y25306
X26208Y38102
X26208Y48102
X16208Y48102
X16208Y38102
X16208Y58102
X26208Y58102
X16090Y81566
X99121Y157944
X109121Y157944
X119121Y157944
X129121Y157944
X147350Y157787
X157350Y157787
X167350Y157787
X177350Y157787
X187350Y157787
M30
