%
M48
M72
T01C0.03189
T02C0.03937
T03C0.04016
T04C0.05906
T05C0.07087
%
T01
X87914Y56355
X87914Y64355
X85095Y83190
X93095Y83190
X91064Y123284
X91064Y131284
X90670Y144150
X90670Y152150
X144331Y83347
X158308Y74371
X174331Y83347
X178308Y74371
T02
X95788Y98544
X59961Y142639
X132009Y159961
X67048Y39883
T03
X36910Y29528
X46910Y29528
X56910Y29528
X66910Y29528
X76910Y29528
X86910Y29528
X101930Y28465
X111930Y28465
X121930Y28465
X109331Y55080
X109331Y65080
X109331Y75080
X109331Y125946
X109331Y135946
X109331Y145946
X106812Y170670
X96812Y170670
X116812Y170670
X126812Y170670
X144961Y170473
X154961Y170473
X164961Y170473
X174961Y170473
X184961Y170473
X69804Y171694
X59804Y171694
X49804Y171694
X39804Y171694
X29804Y171694
X19804Y171694
T04
X142914Y134450
X142599Y59489
T05
X173308Y60670
X193780Y42560
X160316Y31143
X153623Y21300
X153938Y96261
X160631Y106103
X173623Y135631
X194095Y117520
M30
