G75*
%MOIN*%
%OFA0B0*%
%FSLAX25Y25*%
%IPPOS*%
%LPD*%
%AMOC8*
5,1,8,0,0,1.08239X$1,22.5*
%
%ADD10C,0.10630*%
%ADD11R,0.10630X0.10630*%
%ADD12C,0.08858*%
%ADD13C,0.06000*%
%ADD14OC8,0.05200*%
%ADD15C,0.05200*%
%ADD16C,0.05906*%
%ADD17C,0.05000*%
D10*
X0153623Y0021300D03*
X0193780Y0042560D03*
X0173308Y0060670D03*
X0153938Y0096261D03*
X0194095Y0117520D03*
X0173623Y0135631D03*
D11*
X0160631Y0106103D03*
X0160316Y0031143D03*
D12*
X0142599Y0059489D03*
X0142914Y0134450D03*
D13*
X0036910Y0032528D02*
X0036910Y0026528D01*
X0046910Y0026528D02*
X0046910Y0032528D01*
X0056910Y0032528D02*
X0056910Y0026528D01*
X0066910Y0026528D02*
X0066910Y0032528D01*
X0076910Y0032528D02*
X0076910Y0026528D01*
X0086910Y0026528D02*
X0086910Y0032528D01*
X0101930Y0031465D02*
X0101930Y0025465D01*
X0111930Y0025465D02*
X0111930Y0031465D01*
X0121930Y0031465D02*
X0121930Y0025465D01*
X0112331Y0055080D02*
X0106331Y0055080D01*
X0106331Y0065080D02*
X0112331Y0065080D01*
X0112331Y0075080D02*
X0106331Y0075080D01*
X0106331Y0125946D02*
X0112331Y0125946D01*
X0112331Y0135946D02*
X0106331Y0135946D01*
X0106331Y0145946D02*
X0112331Y0145946D01*
X0116812Y0167670D02*
X0116812Y0173670D01*
X0126812Y0173670D02*
X0126812Y0167670D01*
X0144961Y0167473D02*
X0144961Y0173473D01*
X0154961Y0173473D02*
X0154961Y0167473D01*
X0164961Y0167473D02*
X0164961Y0173473D01*
X0174961Y0173473D02*
X0174961Y0167473D01*
X0184961Y0167473D02*
X0184961Y0173473D01*
X0106812Y0173670D02*
X0106812Y0167670D01*
X0096812Y0167670D02*
X0096812Y0173670D01*
X0069804Y0174694D02*
X0069804Y0168694D01*
X0059804Y0168694D02*
X0059804Y0174694D01*
X0049804Y0174694D02*
X0049804Y0168694D01*
X0039804Y0168694D02*
X0039804Y0174694D01*
X0029804Y0174694D02*
X0029804Y0168694D01*
X0019804Y0168694D02*
X0019804Y0174694D01*
D14*
X0090670Y0144150D03*
X0091064Y0131284D03*
X0085095Y0083190D03*
X0087914Y0064355D03*
X0144331Y0083347D03*
X0158308Y0074371D03*
X0174331Y0083347D03*
X0178308Y0074371D03*
D15*
X0093095Y0083190D03*
X0087914Y0056355D03*
X0091064Y0123284D03*
X0090670Y0152150D03*
D16*
X0059961Y0142639D03*
X0095788Y0098544D03*
X0067048Y0039883D03*
X0132009Y0159961D03*
D17*
X0132009Y0134765D01*
X0095788Y0098544D01*
X0067442Y0134765D02*
X0059961Y0142245D01*
X0059961Y0142639D01*
X0067442Y0134765D02*
X0067048Y0039883D01*
M02*
