%
M48
M72
T01C0.03150
T02C0.03189
T03C0.03937
T04C0.04016
T05C0.05906
T06C0.07087
%
T01
X96669Y38795
X129740Y34858
X58087Y133283
T02
X142457Y73992
X156433Y65016
X172457Y73992
X176433Y65016
T03
X65567Y38795
T04
X35429Y19386
X45429Y19386
X55429Y19386
X65429Y19386
X75429Y19386
X85429Y19386
X89386Y34307
X89661Y49425
X99661Y49425
X109661Y49425
X119661Y49425
X129661Y49425
X124110Y19504
X114110Y19504
X240370Y50646
X240370Y60646
X240370Y70646
X240370Y80646
X240370Y90646
X240370Y100646
X240370Y110646
X240370Y120646
X183480Y151669
X173480Y151669
X163480Y151669
X153480Y151669
X143480Y151669
X125724Y151866
X115724Y151866
X105724Y151866
X95724Y151866
X67929Y151709
X57929Y151709
X47929Y151709
X37929Y151709
X27929Y151709
X17929Y151709
X89661Y119504
X99661Y119504
X109661Y119504
X119661Y119504
X129661Y119504
T05
X141039Y125094
X140724Y50134
T06
X171433Y51315
X191906Y33205
X158441Y21787
X151748Y11945
X152063Y86906
X158756Y96748
X192220Y108165
X171748Y126276
M30
