G75*
%MOIN*%
%OFA0B0*%
%FSLAX25Y25*%
%IPPOS*%
%LPD*%
%AMOC8*
5,1,8,0,0,1.08239X$1,22.5*
%
%ADD10C,0.12611*%
%ADD11R,0.03556X0.04343*%
%ADD12R,0.04343X0.03556*%
%ADD13R,0.04737X0.05131*%
%ADD14R,0.05918X0.06706*%
%ADD15R,0.03162X0.09461*%
%ADD16C,0.06000*%
%ADD17C,0.06800*%
%ADD18R,0.04343X0.04737*%
%ADD19R,0.04343X0.05131*%
%ADD20OC8,0.06000*%
%ADD21OC8,0.06800*%
%ADD22R,0.07100X0.05400*%
%ADD23R,0.07200X0.00600*%
%ADD24R,0.03753X0.01981*%
%ADD25R,0.06706X0.05918*%
%ADD26C,0.01656*%
%ADD27R,0.06312X0.03162*%
%ADD28R,0.06312X0.03359*%
%ADD29C,0.01000*%
%ADD30R,0.03950X0.03162*%
%ADD31R,0.05400X0.07100*%
%ADD32R,0.00600X0.07200*%
%ADD33C,0.02756*%
%ADD34C,0.03556*%
%ADD35C,0.02559*%
%ADD36C,0.03543*%
%ADD37C,0.04343*%
%ADD38C,0.03150*%
%ADD39C,0.03950*%
%ADD40C,0.04724*%
%ADD41C,0.05524*%
D10*
X0018280Y0020780D03*
D11*
X0050932Y0039440D03*
X0056050Y0039440D03*
X0117113Y0053574D03*
X0122231Y0053574D03*
X0134712Y0052078D03*
X0139830Y0052078D03*
X0138373Y0064283D03*
X0133255Y0064283D03*
X0130617Y0091172D03*
X0125499Y0091172D03*
X0125617Y0108377D03*
X0120499Y0108377D03*
X0119641Y0123448D03*
X0114523Y0123448D03*
X0120735Y0129558D03*
X0125854Y0129558D03*
X0095861Y0114377D03*
X0090743Y0114377D03*
X0076129Y0126842D03*
X0071011Y0126842D03*
X0055420Y0131767D03*
X0050302Y0131767D03*
X0037334Y0131546D03*
X0032216Y0131546D03*
X0023397Y0131247D03*
X0018279Y0131247D03*
X0017228Y0122322D03*
X0017259Y0118145D03*
X0022377Y0118145D03*
X0022346Y0122322D03*
X0023141Y0109798D03*
X0018023Y0109798D03*
X0018932Y0105499D03*
X0018141Y0101172D03*
X0018322Y0096728D03*
X0023259Y0101172D03*
X0024050Y0105499D03*
X0023440Y0096728D03*
X0048739Y0094102D03*
X0050909Y0098385D03*
X0056027Y0098385D03*
X0053857Y0094102D03*
X0088176Y0129558D03*
X0093294Y0129558D03*
X0090302Y0158731D03*
X0085184Y0158731D03*
X0157625Y0103417D03*
X0162743Y0103417D03*
X0161208Y0109165D03*
X0166326Y0109165D03*
X0168609Y0115503D03*
X0173728Y0115503D03*
X0167035Y0120543D03*
X0161917Y0120543D03*
X0162901Y0094046D03*
X0157783Y0094046D03*
X0169436Y0065700D03*
X0174554Y0065700D03*
X0140617Y0033889D03*
X0135499Y0033889D03*
X0126247Y0037511D03*
X0121129Y0037511D03*
X0170051Y0019598D03*
X0175169Y0019598D03*
X0176523Y0029991D03*
X0171405Y0029991D03*
D12*
X0138688Y0040503D03*
X0134043Y0040385D03*
X0134043Y0045503D03*
X0138688Y0045621D03*
X0159751Y0066291D03*
X0159751Y0071409D03*
X0138806Y0106094D03*
X0133491Y0106094D03*
X0133491Y0111212D03*
X0138806Y0111212D03*
X0075539Y0082550D03*
X0075539Y0077432D03*
X0066810Y0099046D03*
X0062294Y0098700D03*
X0062294Y0103818D03*
X0066810Y0104165D03*
X0032113Y0099546D03*
X0032113Y0094428D03*
D13*
X0049279Y0077826D03*
X0049279Y0071133D03*
X0041011Y0072393D03*
X0041011Y0065700D03*
X0057271Y0147196D03*
X0057271Y0153889D03*
X0048885Y0153180D03*
X0048885Y0159873D03*
D14*
X0132586Y0098141D03*
X0139279Y0098141D03*
X0140066Y0070661D03*
X0132586Y0070661D03*
X0131090Y0058062D03*
X0138570Y0058062D03*
D15*
X0145558Y0057983D03*
X0150558Y0057983D03*
X0155558Y0057983D03*
X0160558Y0057983D03*
X0167920Y0057865D03*
X0172920Y0057865D03*
X0177920Y0057865D03*
X0182920Y0057865D03*
X0182920Y0037393D03*
X0177920Y0037393D03*
X0172920Y0037393D03*
X0167920Y0037393D03*
X0160558Y0037511D03*
X0155558Y0037511D03*
X0150558Y0037511D03*
X0145558Y0037511D03*
D16*
X0088964Y0028306D02*
X0088964Y0022306D01*
X0078964Y0022306D02*
X0078964Y0028306D01*
X0068964Y0028306D02*
X0068964Y0022306D01*
X0058964Y0022306D02*
X0058964Y0028306D01*
X0048964Y0028306D02*
X0048964Y0022306D01*
X0038964Y0022306D02*
X0038964Y0028306D01*
X0099121Y0154944D02*
X0099121Y0160944D01*
X0109121Y0160944D02*
X0109121Y0154944D01*
X0119121Y0154944D02*
X0119121Y0160944D01*
X0129121Y0160944D02*
X0129121Y0154944D01*
X0147350Y0154787D02*
X0147350Y0160787D01*
X0157350Y0160787D02*
X0157350Y0154787D01*
X0167350Y0154787D02*
X0167350Y0160787D01*
X0177350Y0160787D02*
X0177350Y0154787D01*
X0187350Y0154787D02*
X0187350Y0160787D01*
D17*
X0187350Y0154787D01*
X0177350Y0154787D02*
X0177350Y0160787D01*
X0167350Y0160787D02*
X0167350Y0154787D01*
X0157350Y0154787D02*
X0157350Y0160787D01*
X0147350Y0160787D02*
X0147350Y0154787D01*
X0129121Y0154944D02*
X0129121Y0160944D01*
X0119121Y0160944D02*
X0119121Y0154944D01*
X0109121Y0154944D02*
X0109121Y0160944D01*
X0099121Y0160944D02*
X0099121Y0154944D01*
X0088964Y0028306D02*
X0088964Y0022306D01*
X0078964Y0022306D02*
X0078964Y0028306D01*
X0068964Y0028306D02*
X0068964Y0022306D01*
X0058964Y0022306D02*
X0058964Y0028306D01*
X0048964Y0028306D02*
X0048964Y0022306D01*
X0038964Y0022306D02*
X0038964Y0028306D01*
D18*
X0108216Y0092590D03*
X0108216Y0099283D03*
D19*
X0119633Y0095936D03*
D20*
X0026208Y0058102D03*
X0016208Y0058102D03*
X0016208Y0048102D03*
X0026208Y0048102D03*
X0026208Y0038102D03*
X0016208Y0038102D03*
X0016090Y0081566D03*
D21*
X0016090Y0081566D03*
X0016208Y0058102D03*
X0026208Y0058102D03*
X0026208Y0048102D03*
X0016208Y0048102D03*
X0016208Y0038102D03*
X0026208Y0038102D03*
D22*
X0025539Y0067149D03*
X0025539Y0073149D03*
X0016483Y0073149D03*
X0016483Y0067149D03*
D23*
X0016483Y0070149D03*
X0025539Y0070149D03*
D24*
X0032247Y0104066D03*
X0032247Y0106625D03*
X0032247Y0109184D03*
X0032247Y0111743D03*
X0032247Y0114302D03*
X0032247Y0116861D03*
X0032247Y0119420D03*
X0032247Y0121980D03*
X0032247Y0124539D03*
X0032247Y0127098D03*
X0055869Y0127098D03*
X0055869Y0124539D03*
X0055869Y0121980D03*
X0055869Y0119420D03*
X0055869Y0116861D03*
X0055869Y0114302D03*
X0055869Y0111743D03*
X0055869Y0109184D03*
X0055869Y0106625D03*
X0055869Y0104066D03*
D25*
X0071227Y0112865D03*
X0071227Y0120346D03*
D26*
X0010489Y0143180D02*
X0010489Y0149804D01*
X0030499Y0149804D01*
X0030499Y0143180D01*
X0010489Y0143180D01*
X0010489Y0144835D02*
X0030499Y0144835D01*
X0030499Y0146490D02*
X0010489Y0146490D01*
X0010489Y0148145D02*
X0030499Y0148145D01*
X0030499Y0149800D02*
X0010489Y0149800D01*
X0010489Y0156566D02*
X0010489Y0163190D01*
X0030499Y0163190D01*
X0030499Y0156566D01*
X0010489Y0156566D01*
X0010489Y0158221D02*
X0030499Y0158221D01*
X0030499Y0159876D02*
X0010489Y0159876D01*
X0010489Y0161531D02*
X0030499Y0161531D01*
X0030499Y0163186D02*
X0010489Y0163186D01*
D27*
X0064145Y0158726D03*
X0064145Y0146926D03*
X0078613Y0146926D03*
X0078613Y0158726D03*
X0069165Y0077624D03*
X0069165Y0065824D03*
X0054696Y0065824D03*
X0054696Y0077624D03*
D28*
X0069165Y0071724D03*
X0078613Y0152826D03*
D29*
X0076129Y0152783D02*
X0061365Y0152783D01*
X0061365Y0153781D02*
X0076129Y0153781D01*
X0076129Y0154401D02*
X0076129Y0151251D01*
X0074554Y0149676D01*
X0061365Y0149676D01*
X0061365Y0155976D01*
X0074554Y0155976D01*
X0076129Y0154401D01*
X0075750Y0154780D02*
X0061365Y0154780D01*
X0061365Y0155778D02*
X0074752Y0155778D01*
X0076129Y0151784D02*
X0061365Y0151784D01*
X0061365Y0150786D02*
X0075664Y0150786D01*
X0074665Y0149787D02*
X0061365Y0149787D01*
X0065106Y0074873D02*
X0051917Y0074873D01*
X0051917Y0068574D01*
X0065106Y0068574D01*
X0066680Y0070149D01*
X0066680Y0073298D01*
X0065106Y0074873D01*
X0066078Y0073900D02*
X0051917Y0073900D01*
X0051917Y0072902D02*
X0066680Y0072902D01*
X0066680Y0071903D02*
X0051917Y0071903D01*
X0051917Y0070905D02*
X0066680Y0070905D01*
X0066438Y0069906D02*
X0051917Y0069906D01*
X0051917Y0068908D02*
X0065439Y0068908D01*
D30*
X0098700Y0067850D03*
X0098700Y0061550D03*
X0105700Y0061050D03*
X0105700Y0067350D03*
X0106700Y0031850D03*
X0106700Y0025550D03*
X0100200Y0025050D03*
X0100200Y0031350D03*
D31*
X0110700Y0080200D03*
X0116700Y0080200D03*
D32*
X0113700Y0080200D03*
D33*
X0043043Y0114031D03*
D34*
X0043043Y0114031D03*
D35*
X0050342Y0116212D03*
X0049900Y0121200D03*
X0062546Y0116606D03*
X0062940Y0108338D03*
X0049554Y0102826D03*
X0034200Y0090228D03*
X0016877Y0091015D03*
X0010578Y0106763D03*
X0013334Y0110700D03*
X0013728Y0115424D03*
X0053491Y0081566D03*
X0058216Y0087472D03*
X0065696Y0087472D03*
X0066877Y0081960D03*
X0067271Y0093377D03*
X0077901Y0104401D03*
X0085243Y0114243D03*
X0077507Y0115818D03*
X0077113Y0122117D03*
X0066877Y0130779D03*
X0071122Y0134652D03*
X0079869Y0142590D03*
X0090893Y0134322D03*
X0094500Y0123000D03*
X0105066Y0139046D03*
X0115696Y0134716D03*
X0120420Y0134716D03*
X0132625Y0140621D03*
X0155066Y0137078D03*
X0173570Y0148495D03*
X0161917Y0115424D03*
X0166877Y0101251D03*
X0163590Y0098751D03*
X0167271Y0094913D03*
X0171602Y0094952D03*
X0182231Y0111881D03*
X0182700Y0077200D03*
X0177901Y0071724D03*
X0172783Y0071724D03*
X0156900Y0078400D03*
X0153491Y0071330D03*
X0149161Y0071724D03*
X0145224Y0075661D03*
X0139357Y0090976D03*
X0125145Y0086684D03*
X0118452Y0087865D03*
X0114121Y0087865D03*
X0099948Y0089046D03*
X0094436Y0099676D03*
X0085602Y0091252D03*
X0094500Y0077000D03*
X0112546Y0059519D03*
X0104869Y0056566D03*
X0090106Y0057550D03*
X0084594Y0041409D03*
X0079476Y0040228D03*
X0080657Y0035897D03*
X0091680Y0035109D03*
X0101917Y0038653D03*
X0112940Y0036684D03*
X0124357Y0029991D03*
X0128516Y0031016D03*
X0125539Y0042196D03*
X0124357Y0050070D03*
X0125539Y0065031D03*
X0144043Y0048889D03*
X0158216Y0048495D03*
X0160184Y0029991D03*
X0151350Y0023929D03*
X0172783Y0025267D03*
X0186956Y0027235D03*
X0190893Y0067578D03*
X0143649Y0107944D03*
X0133446Y0114755D03*
X0125617Y0119676D03*
X0127920Y0103200D03*
X0121602Y0103220D03*
X0061365Y0142983D03*
X0059791Y0062669D03*
X0062546Y0054401D03*
X0058500Y0049400D03*
X0071700Y0050000D03*
X0039598Y0035897D03*
D36*
X0035937Y0142650D03*
X0039712Y0150035D03*
D37*
X0039712Y0150035D03*
X0035937Y0142650D03*
D38*
X0040500Y0057400D03*
D39*
X0040500Y0057400D03*
D40*
X0035313Y0065800D03*
X0035313Y0075800D03*
X0106900Y0052200D03*
X0106900Y0042200D03*
X0167700Y0080800D03*
X0167700Y0089200D03*
X0182700Y0087000D03*
D41*
X0182700Y0087000D03*
X0167700Y0089200D03*
X0167700Y0080800D03*
X0106900Y0052200D03*
X0106900Y0042200D03*
X0035313Y0065800D03*
X0035313Y0075800D03*
M02*
