G75*
%MOIN*%
%OFA0B0*%
%FSLAX25Y25*%
%IPPOS*%
%LPD*%
%AMOC8*
5,1,8,0,0,1.08239X$1,22.5*
%
%ADD10C,0.00000*%
D10*
X0004500Y0007000D02*
X0004500Y0171331D01*
X0198161Y0171331D01*
X0198161Y0007000D01*
X0004500Y0007000D01*
X0012374Y0020780D02*
X0012376Y0020933D01*
X0012382Y0021087D01*
X0012392Y0021240D01*
X0012406Y0021392D01*
X0012424Y0021545D01*
X0012446Y0021696D01*
X0012471Y0021847D01*
X0012501Y0021998D01*
X0012535Y0022148D01*
X0012572Y0022296D01*
X0012613Y0022444D01*
X0012658Y0022590D01*
X0012707Y0022736D01*
X0012760Y0022880D01*
X0012816Y0023022D01*
X0012876Y0023163D01*
X0012940Y0023303D01*
X0013007Y0023441D01*
X0013078Y0023577D01*
X0013153Y0023711D01*
X0013230Y0023843D01*
X0013312Y0023973D01*
X0013396Y0024101D01*
X0013484Y0024227D01*
X0013575Y0024350D01*
X0013669Y0024471D01*
X0013767Y0024589D01*
X0013867Y0024705D01*
X0013971Y0024818D01*
X0014077Y0024929D01*
X0014186Y0025037D01*
X0014298Y0025142D01*
X0014412Y0025243D01*
X0014530Y0025342D01*
X0014649Y0025438D01*
X0014771Y0025531D01*
X0014896Y0025620D01*
X0015023Y0025707D01*
X0015152Y0025789D01*
X0015283Y0025869D01*
X0015416Y0025945D01*
X0015551Y0026018D01*
X0015688Y0026087D01*
X0015827Y0026152D01*
X0015967Y0026214D01*
X0016109Y0026272D01*
X0016252Y0026327D01*
X0016397Y0026378D01*
X0016543Y0026425D01*
X0016690Y0026468D01*
X0016838Y0026507D01*
X0016987Y0026543D01*
X0017137Y0026574D01*
X0017288Y0026602D01*
X0017439Y0026626D01*
X0017592Y0026646D01*
X0017744Y0026662D01*
X0017897Y0026674D01*
X0018050Y0026682D01*
X0018203Y0026686D01*
X0018357Y0026686D01*
X0018510Y0026682D01*
X0018663Y0026674D01*
X0018816Y0026662D01*
X0018968Y0026646D01*
X0019121Y0026626D01*
X0019272Y0026602D01*
X0019423Y0026574D01*
X0019573Y0026543D01*
X0019722Y0026507D01*
X0019870Y0026468D01*
X0020017Y0026425D01*
X0020163Y0026378D01*
X0020308Y0026327D01*
X0020451Y0026272D01*
X0020593Y0026214D01*
X0020733Y0026152D01*
X0020872Y0026087D01*
X0021009Y0026018D01*
X0021144Y0025945D01*
X0021277Y0025869D01*
X0021408Y0025789D01*
X0021537Y0025707D01*
X0021664Y0025620D01*
X0021789Y0025531D01*
X0021911Y0025438D01*
X0022030Y0025342D01*
X0022148Y0025243D01*
X0022262Y0025142D01*
X0022374Y0025037D01*
X0022483Y0024929D01*
X0022589Y0024818D01*
X0022693Y0024705D01*
X0022793Y0024589D01*
X0022891Y0024471D01*
X0022985Y0024350D01*
X0023076Y0024227D01*
X0023164Y0024101D01*
X0023248Y0023973D01*
X0023330Y0023843D01*
X0023407Y0023711D01*
X0023482Y0023577D01*
X0023553Y0023441D01*
X0023620Y0023303D01*
X0023684Y0023163D01*
X0023744Y0023022D01*
X0023800Y0022880D01*
X0023853Y0022736D01*
X0023902Y0022590D01*
X0023947Y0022444D01*
X0023988Y0022296D01*
X0024025Y0022148D01*
X0024059Y0021998D01*
X0024089Y0021847D01*
X0024114Y0021696D01*
X0024136Y0021545D01*
X0024154Y0021392D01*
X0024168Y0021240D01*
X0024178Y0021087D01*
X0024184Y0020933D01*
X0024186Y0020780D01*
X0024184Y0020627D01*
X0024178Y0020473D01*
X0024168Y0020320D01*
X0024154Y0020168D01*
X0024136Y0020015D01*
X0024114Y0019864D01*
X0024089Y0019713D01*
X0024059Y0019562D01*
X0024025Y0019412D01*
X0023988Y0019264D01*
X0023947Y0019116D01*
X0023902Y0018970D01*
X0023853Y0018824D01*
X0023800Y0018680D01*
X0023744Y0018538D01*
X0023684Y0018397D01*
X0023620Y0018257D01*
X0023553Y0018119D01*
X0023482Y0017983D01*
X0023407Y0017849D01*
X0023330Y0017717D01*
X0023248Y0017587D01*
X0023164Y0017459D01*
X0023076Y0017333D01*
X0022985Y0017210D01*
X0022891Y0017089D01*
X0022793Y0016971D01*
X0022693Y0016855D01*
X0022589Y0016742D01*
X0022483Y0016631D01*
X0022374Y0016523D01*
X0022262Y0016418D01*
X0022148Y0016317D01*
X0022030Y0016218D01*
X0021911Y0016122D01*
X0021789Y0016029D01*
X0021664Y0015940D01*
X0021537Y0015853D01*
X0021408Y0015771D01*
X0021277Y0015691D01*
X0021144Y0015615D01*
X0021009Y0015542D01*
X0020872Y0015473D01*
X0020733Y0015408D01*
X0020593Y0015346D01*
X0020451Y0015288D01*
X0020308Y0015233D01*
X0020163Y0015182D01*
X0020017Y0015135D01*
X0019870Y0015092D01*
X0019722Y0015053D01*
X0019573Y0015017D01*
X0019423Y0014986D01*
X0019272Y0014958D01*
X0019121Y0014934D01*
X0018968Y0014914D01*
X0018816Y0014898D01*
X0018663Y0014886D01*
X0018510Y0014878D01*
X0018357Y0014874D01*
X0018203Y0014874D01*
X0018050Y0014878D01*
X0017897Y0014886D01*
X0017744Y0014898D01*
X0017592Y0014914D01*
X0017439Y0014934D01*
X0017288Y0014958D01*
X0017137Y0014986D01*
X0016987Y0015017D01*
X0016838Y0015053D01*
X0016690Y0015092D01*
X0016543Y0015135D01*
X0016397Y0015182D01*
X0016252Y0015233D01*
X0016109Y0015288D01*
X0015967Y0015346D01*
X0015827Y0015408D01*
X0015688Y0015473D01*
X0015551Y0015542D01*
X0015416Y0015615D01*
X0015283Y0015691D01*
X0015152Y0015771D01*
X0015023Y0015853D01*
X0014896Y0015940D01*
X0014771Y0016029D01*
X0014649Y0016122D01*
X0014530Y0016218D01*
X0014412Y0016317D01*
X0014298Y0016418D01*
X0014186Y0016523D01*
X0014077Y0016631D01*
X0013971Y0016742D01*
X0013867Y0016855D01*
X0013767Y0016971D01*
X0013669Y0017089D01*
X0013575Y0017210D01*
X0013484Y0017333D01*
X0013396Y0017459D01*
X0013312Y0017587D01*
X0013230Y0017717D01*
X0013153Y0017849D01*
X0013078Y0017983D01*
X0013007Y0018119D01*
X0012940Y0018257D01*
X0012876Y0018397D01*
X0012816Y0018538D01*
X0012760Y0018680D01*
X0012707Y0018824D01*
X0012658Y0018970D01*
X0012613Y0019116D01*
X0012572Y0019264D01*
X0012535Y0019412D01*
X0012501Y0019562D01*
X0012471Y0019713D01*
X0012446Y0019864D01*
X0012424Y0020015D01*
X0012406Y0020168D01*
X0012392Y0020320D01*
X0012382Y0020473D01*
X0012376Y0020627D01*
X0012374Y0020780D01*
M02*
