G75*
%MOIN*%
%OFA0B0*%
%FSLAX25Y25*%
%IPPOS*%
%LPD*%
%AMOC8*
5,1,8,0,0,1.08239X$1,22.5*
%
%ADD10C,0.12611*%
%ADD11R,0.03556X0.04343*%
%ADD12R,0.06706X0.05918*%
%ADD13R,0.04343X0.03556*%
%ADD14R,0.05918X0.06706*%
%ADD15R,0.03162X0.09461*%
%ADD16C,0.06000*%
%ADD17C,0.06800*%
%ADD18R,0.02000X0.04700*%
%ADD19R,0.02800X0.06600*%
%ADD20R,0.06600X0.02800*%
%ADD21OC8,0.06000*%
%ADD22OC8,0.06800*%
%ADD23R,0.03753X0.01981*%
%ADD24R,0.05524X0.02965*%
%ADD25R,0.07100X0.05400*%
%ADD26R,0.07200X0.00600*%
%ADD27R,0.05400X0.07100*%
%ADD28R,0.00600X0.07200*%
%ADD29C,0.02756*%
%ADD30C,0.03556*%
%ADD31C,0.02559*%
%ADD32C,0.03543*%
%ADD33C,0.04343*%
%ADD34C,0.03150*%
%ADD35C,0.03950*%
%ADD36C,0.04724*%
%ADD37C,0.05524*%
D10*
X0018280Y0020780D03*
D11*
X0021279Y0073613D03*
X0026397Y0073613D03*
X0027976Y0090920D03*
X0022857Y0090920D03*
X0035424Y0097409D03*
X0040543Y0097409D03*
X0053247Y0097550D03*
X0058365Y0097550D03*
X0085578Y0086684D03*
X0090696Y0086684D03*
X0091090Y0081960D03*
X0085972Y0081960D03*
X0107940Y0098574D03*
X0113058Y0098574D03*
X0112743Y0093298D03*
X0117861Y0093298D03*
X0106775Y0107440D03*
X0101657Y0107440D03*
X0075735Y0126842D03*
X0070617Y0126842D03*
X0072980Y0139046D03*
X0067861Y0139046D03*
X0055968Y0129928D03*
X0050850Y0129928D03*
X0043779Y0130007D03*
X0038661Y0130007D03*
X0038661Y0134499D03*
X0043779Y0134499D03*
X0029298Y0132810D03*
X0024180Y0132810D03*
X0023621Y0128570D03*
X0021625Y0124346D03*
X0026743Y0124346D03*
X0028739Y0128570D03*
X0025247Y0115779D03*
X0025141Y0111208D03*
X0020023Y0111208D03*
X0020129Y0115779D03*
X0111090Y0139637D03*
X0116208Y0139637D03*
X0146129Y0143731D03*
X0151247Y0143731D03*
X0153216Y0103102D03*
X0158334Y0103102D03*
X0131798Y0076094D03*
X0126680Y0076094D03*
X0125381Y0070503D03*
X0130499Y0070503D03*
X0148570Y0065424D03*
X0153688Y0065424D03*
X0172798Y0065606D03*
X0177917Y0065606D03*
X0178137Y0030267D03*
X0173019Y0030267D03*
X0165720Y0023929D03*
X0160602Y0023929D03*
X0154082Y0029991D03*
X0148964Y0029991D03*
X0133767Y0017629D03*
X0128649Y0017629D03*
X0129672Y0022472D03*
X0124554Y0022472D03*
D12*
X0111956Y0023054D03*
X0103688Y0020976D03*
X0103688Y0028456D03*
X0111956Y0030535D03*
X0113531Y0066409D03*
X0113531Y0073889D03*
X0104869Y0073968D03*
X0104869Y0066487D03*
X0070027Y0099873D03*
X0070027Y0107354D03*
X0145578Y0129873D03*
X0145578Y0136566D03*
D13*
X0139318Y0138889D03*
X0134830Y0134716D03*
X0134830Y0129598D03*
X0127310Y0136015D03*
X0127310Y0141133D03*
X0139318Y0144007D03*
X0150184Y0121684D03*
X0150184Y0116566D03*
X0167231Y0143141D03*
X0167231Y0148259D03*
X0181956Y0122275D03*
X0181956Y0117157D03*
X0135932Y0069952D03*
X0135932Y0064834D03*
X0119987Y0071251D03*
X0119987Y0076369D03*
X0100027Y0094598D03*
X0100027Y0099716D03*
X0085839Y0101464D03*
X0085839Y0096346D03*
X0074735Y0091670D03*
X0074735Y0086552D03*
X0072149Y0115909D03*
X0068003Y0115924D03*
X0068003Y0121043D03*
X0072149Y0121027D03*
X0062208Y0128389D03*
X0062208Y0133507D03*
X0085365Y0137339D03*
X0085365Y0142457D03*
X0101523Y0123298D03*
X0101523Y0118180D03*
X0106956Y0118220D03*
X0106956Y0123338D03*
X0028566Y0102676D03*
X0028566Y0097558D03*
X0088137Y0051842D03*
X0088137Y0046724D03*
X0093255Y0046724D03*
X0093255Y0051842D03*
X0118491Y0024480D03*
X0118491Y0019361D03*
X0135224Y0025424D03*
X0135224Y0030543D03*
X0138752Y0039480D03*
X0138752Y0044598D03*
D14*
X0150263Y0094913D03*
X0156956Y0094913D03*
D15*
X0159141Y0057983D03*
X0154141Y0057983D03*
X0149141Y0057983D03*
X0144141Y0057983D03*
X0167763Y0057944D03*
X0172763Y0057944D03*
X0177763Y0057944D03*
X0182763Y0057944D03*
X0182763Y0037472D03*
X0177763Y0037472D03*
X0172763Y0037472D03*
X0167763Y0037472D03*
X0159141Y0037511D03*
X0154141Y0037511D03*
X0149141Y0037511D03*
X0144141Y0037511D03*
D16*
X0088964Y0028306D02*
X0088964Y0022306D01*
X0078964Y0022306D02*
X0078964Y0028306D01*
X0068964Y0028306D02*
X0068964Y0022306D01*
X0058964Y0022306D02*
X0058964Y0028306D01*
X0048964Y0028306D02*
X0048964Y0022306D01*
X0038964Y0022306D02*
X0038964Y0028306D01*
X0099121Y0154944D02*
X0099121Y0160944D01*
X0109121Y0160944D02*
X0109121Y0154944D01*
X0119121Y0154944D02*
X0119121Y0160944D01*
X0129121Y0160944D02*
X0129121Y0154944D01*
X0147350Y0154787D02*
X0147350Y0160787D01*
X0157350Y0160787D02*
X0157350Y0154787D01*
X0167350Y0154787D02*
X0167350Y0160787D01*
X0177350Y0160787D02*
X0177350Y0154787D01*
X0187350Y0154787D02*
X0187350Y0160787D01*
D17*
X0187350Y0154787D01*
X0177350Y0154787D02*
X0177350Y0160787D01*
X0167350Y0160787D02*
X0167350Y0154787D01*
X0157350Y0154787D02*
X0157350Y0160787D01*
X0147350Y0160787D02*
X0147350Y0154787D01*
X0129121Y0154944D02*
X0129121Y0160944D01*
X0119121Y0160944D02*
X0119121Y0154944D01*
X0109121Y0154944D02*
X0109121Y0160944D01*
X0099121Y0160944D02*
X0099121Y0154944D01*
X0088964Y0028306D02*
X0088964Y0022306D01*
X0078964Y0022306D02*
X0078964Y0028306D01*
X0068964Y0028306D02*
X0068964Y0022306D01*
X0058964Y0022306D02*
X0058964Y0028306D01*
X0048964Y0028306D02*
X0048964Y0022306D01*
X0038964Y0022306D02*
X0038964Y0028306D01*
D18*
X0118432Y0037008D03*
X0120932Y0037008D03*
X0123432Y0037008D03*
X0125932Y0037008D03*
X0128432Y0037008D03*
X0130932Y0037008D03*
X0133432Y0037008D03*
X0133432Y0058408D03*
X0130932Y0058408D03*
X0128432Y0058408D03*
X0125932Y0058408D03*
X0123432Y0058408D03*
X0120932Y0058408D03*
X0118432Y0058408D03*
X0117920Y0108268D03*
X0115420Y0108268D03*
X0112920Y0108268D03*
X0120420Y0108268D03*
X0122920Y0108268D03*
X0125420Y0108268D03*
X0127920Y0108268D03*
X0127920Y0129668D03*
X0125420Y0129668D03*
X0122920Y0129668D03*
X0120420Y0129668D03*
X0117920Y0129668D03*
X0115420Y0129668D03*
X0112920Y0129668D03*
X0095346Y0129613D03*
X0092846Y0129613D03*
X0090346Y0129613D03*
X0087846Y0129613D03*
X0085346Y0129613D03*
X0082846Y0129613D03*
X0080346Y0129613D03*
X0080346Y0108213D03*
X0082846Y0108213D03*
X0085346Y0108213D03*
X0087846Y0108213D03*
X0090346Y0108213D03*
X0092846Y0108213D03*
X0095346Y0108213D03*
X0158590Y0108268D03*
X0161090Y0108268D03*
X0163590Y0108268D03*
X0166090Y0108268D03*
X0168590Y0108268D03*
X0171090Y0108268D03*
X0173590Y0108268D03*
X0173590Y0129668D03*
X0171090Y0129668D03*
X0168590Y0129668D03*
X0166090Y0129668D03*
X0163590Y0129668D03*
X0161090Y0129668D03*
X0158590Y0129668D03*
D19*
X0075121Y0073463D03*
X0072021Y0073463D03*
X0068821Y0073463D03*
X0065721Y0073463D03*
X0062521Y0073463D03*
X0059421Y0073463D03*
X0056221Y0073463D03*
X0053121Y0073463D03*
X0053121Y0040063D03*
X0056221Y0040063D03*
X0059421Y0040063D03*
X0062521Y0040063D03*
X0065721Y0040063D03*
X0068821Y0040063D03*
X0072021Y0040063D03*
X0075121Y0040063D03*
D20*
X0080821Y0045763D03*
X0080821Y0048863D03*
X0080821Y0052063D03*
X0080821Y0055163D03*
X0080821Y0058363D03*
X0080821Y0061463D03*
X0080821Y0064663D03*
X0080821Y0067763D03*
X0047421Y0067763D03*
X0047421Y0064663D03*
X0047421Y0061463D03*
X0047421Y0058363D03*
X0047421Y0055163D03*
X0047421Y0052063D03*
X0047421Y0048863D03*
X0047421Y0045763D03*
D21*
X0026208Y0048102D03*
X0016208Y0048102D03*
X0016208Y0038102D03*
X0026208Y0038102D03*
X0026208Y0058102D03*
X0016208Y0058102D03*
X0016090Y0081566D03*
D22*
X0016090Y0081566D03*
X0016208Y0058102D03*
X0026208Y0058102D03*
X0026208Y0048102D03*
X0016208Y0048102D03*
X0016208Y0038102D03*
X0026208Y0038102D03*
D23*
X0035011Y0102011D03*
X0035011Y0104570D03*
X0035011Y0107129D03*
X0035011Y0109688D03*
X0035011Y0112247D03*
X0035011Y0114806D03*
X0035011Y0117365D03*
X0035011Y0119924D03*
X0035011Y0122483D03*
X0035011Y0125043D03*
X0058633Y0125043D03*
X0058633Y0122483D03*
X0058633Y0119924D03*
X0058633Y0117365D03*
X0058633Y0114806D03*
X0058633Y0112247D03*
X0058633Y0109688D03*
X0058633Y0107129D03*
X0058633Y0104570D03*
X0058633Y0102011D03*
D24*
X0023176Y0103417D03*
X0023176Y0095936D03*
X0012940Y0095936D03*
X0012940Y0099676D03*
X0012940Y0103417D03*
D25*
X0189700Y0100600D03*
X0189700Y0094600D03*
D26*
X0189700Y0097600D03*
D27*
X0150900Y0083800D03*
X0144900Y0083800D03*
D28*
X0147900Y0083800D03*
D29*
X0043043Y0114031D03*
D30*
X0043043Y0114031D03*
D31*
X0050342Y0116212D03*
X0049900Y0121200D03*
X0062546Y0116606D03*
X0062940Y0108338D03*
X0049554Y0102826D03*
X0034200Y0090228D03*
X0016877Y0091015D03*
X0010578Y0106763D03*
X0013334Y0110700D03*
X0013728Y0115424D03*
X0053491Y0081566D03*
X0058216Y0087472D03*
X0065696Y0087472D03*
X0066877Y0081960D03*
X0067271Y0093377D03*
X0077901Y0104401D03*
X0085243Y0114243D03*
X0077507Y0115818D03*
X0077113Y0122117D03*
X0066877Y0130779D03*
X0071122Y0134652D03*
X0079869Y0142590D03*
X0090893Y0134322D03*
X0094500Y0123000D03*
X0105066Y0139046D03*
X0115696Y0134716D03*
X0120420Y0134716D03*
X0132625Y0140621D03*
X0155066Y0137078D03*
X0173570Y0148495D03*
X0161917Y0115424D03*
X0166877Y0101251D03*
X0163590Y0098751D03*
X0167271Y0094913D03*
X0171602Y0094952D03*
X0182231Y0111881D03*
X0182700Y0077200D03*
X0177901Y0071724D03*
X0172783Y0071724D03*
X0156900Y0078400D03*
X0153491Y0071330D03*
X0149161Y0071724D03*
X0145224Y0075661D03*
X0139357Y0090976D03*
X0125145Y0086684D03*
X0118452Y0087865D03*
X0114121Y0087865D03*
X0099948Y0089046D03*
X0094436Y0099676D03*
X0085602Y0091252D03*
X0094500Y0077000D03*
X0112546Y0059519D03*
X0104869Y0056566D03*
X0090106Y0057550D03*
X0084594Y0041409D03*
X0079476Y0040228D03*
X0080657Y0035897D03*
X0091680Y0035109D03*
X0101917Y0038653D03*
X0112940Y0036684D03*
X0124357Y0029991D03*
X0128516Y0031016D03*
X0125539Y0042196D03*
X0124357Y0050070D03*
X0125539Y0065031D03*
X0144043Y0048889D03*
X0158216Y0048495D03*
X0160184Y0029991D03*
X0151350Y0023929D03*
X0172783Y0025267D03*
X0186956Y0027235D03*
X0190893Y0067578D03*
X0143649Y0107944D03*
X0133446Y0114755D03*
X0125617Y0119676D03*
X0127920Y0103200D03*
X0121602Y0103220D03*
X0061365Y0142983D03*
X0059791Y0062669D03*
X0062546Y0054401D03*
X0058500Y0049400D03*
X0071700Y0050000D03*
X0039598Y0035897D03*
D32*
X0035937Y0142650D03*
X0039712Y0150035D03*
D33*
X0039712Y0150035D03*
X0035937Y0142650D03*
D34*
X0040500Y0057400D03*
D35*
X0040500Y0057400D03*
D36*
X0035313Y0065800D03*
X0035313Y0075800D03*
X0106900Y0052200D03*
X0106900Y0042200D03*
X0167700Y0080800D03*
X0167700Y0089200D03*
X0182700Y0087000D03*
D37*
X0182700Y0087000D03*
X0167700Y0089200D03*
X0167700Y0080800D03*
X0106900Y0052200D03*
X0106900Y0042200D03*
X0035313Y0065800D03*
X0035313Y0075800D03*
M02*
