G75*
%MOIN*%
%OFA0B0*%
%FSLAX25Y25*%
%IPPOS*%
%LPD*%
%AMOC8*
5,1,8,0,0,1.08239X$1,22.5*
%
%ADD10R,0.02756X0.03543*%
%ADD11R,0.05906X0.05118*%
%ADD12R,0.03543X0.02756*%
%ADD13R,0.05118X0.05906*%
%ADD14R,0.02362X0.08661*%
%ADD15C,0.06000*%
%ADD16R,0.01200X0.03900*%
%ADD17R,0.02000X0.05800*%
%ADD18R,0.05800X0.02000*%
%ADD19OC8,0.06000*%
%ADD20R,0.02953X0.01181*%
%ADD21R,0.04724X0.02165*%
%ADD22R,0.06300X0.04600*%
%ADD23R,0.04600X0.06300*%
%ADD24C,0.01000*%
%ADD25C,0.02756*%
%ADD26C,0.02559*%
%ADD27C,0.01600*%
%ADD28C,0.01200*%
%ADD29C,0.02000*%
%ADD30C,0.03543*%
%ADD31C,0.02400*%
%ADD32C,0.00800*%
%ADD33C,0.03150*%
%ADD34C,0.04724*%
D10*
X0021279Y0073613D03*
X0026397Y0073613D03*
X0027976Y0090920D03*
X0022857Y0090920D03*
X0035424Y0097409D03*
X0040543Y0097409D03*
X0053247Y0097550D03*
X0058365Y0097550D03*
X0085578Y0086684D03*
X0090696Y0086684D03*
X0091090Y0081960D03*
X0085972Y0081960D03*
X0107940Y0098574D03*
X0113058Y0098574D03*
X0112743Y0093298D03*
X0117861Y0093298D03*
X0106775Y0107440D03*
X0101657Y0107440D03*
X0075735Y0126842D03*
X0070617Y0126842D03*
X0072980Y0139046D03*
X0067861Y0139046D03*
X0055968Y0129928D03*
X0050850Y0129928D03*
X0043779Y0130007D03*
X0038661Y0130007D03*
X0038661Y0134499D03*
X0043779Y0134499D03*
X0029298Y0132810D03*
X0024180Y0132810D03*
X0023621Y0128570D03*
X0021625Y0124346D03*
X0026743Y0124346D03*
X0028739Y0128570D03*
X0025247Y0115779D03*
X0025141Y0111208D03*
X0020023Y0111208D03*
X0020129Y0115779D03*
X0111090Y0139637D03*
X0116208Y0139637D03*
X0146129Y0143731D03*
X0151247Y0143731D03*
X0153216Y0103102D03*
X0158334Y0103102D03*
X0131798Y0076094D03*
X0126680Y0076094D03*
X0125381Y0070503D03*
X0130499Y0070503D03*
X0148570Y0065424D03*
X0153688Y0065424D03*
X0172798Y0065606D03*
X0177917Y0065606D03*
X0178137Y0030267D03*
X0173019Y0030267D03*
X0165720Y0023929D03*
X0160602Y0023929D03*
X0154082Y0029991D03*
X0148964Y0029991D03*
X0133767Y0017629D03*
X0128649Y0017629D03*
X0129672Y0022472D03*
X0124554Y0022472D03*
D11*
X0111956Y0023054D03*
X0103688Y0020976D03*
X0103688Y0028456D03*
X0111956Y0030535D03*
X0113531Y0066409D03*
X0113531Y0073889D03*
X0104869Y0073968D03*
X0104869Y0066487D03*
X0070027Y0099873D03*
X0070027Y0107354D03*
X0145578Y0129873D03*
X0145578Y0136566D03*
D12*
X0139318Y0138889D03*
X0134830Y0134716D03*
X0134830Y0129598D03*
X0127310Y0136015D03*
X0127310Y0141133D03*
X0139318Y0144007D03*
X0150184Y0121684D03*
X0150184Y0116566D03*
X0167231Y0143141D03*
X0167231Y0148259D03*
X0181956Y0122275D03*
X0181956Y0117157D03*
X0135932Y0069952D03*
X0135932Y0064834D03*
X0119987Y0071251D03*
X0119987Y0076369D03*
X0100027Y0094598D03*
X0100027Y0099716D03*
X0085839Y0101464D03*
X0085839Y0096346D03*
X0074735Y0091670D03*
X0074735Y0086552D03*
X0072149Y0115909D03*
X0068003Y0115924D03*
X0068003Y0121043D03*
X0072149Y0121027D03*
X0062208Y0128389D03*
X0062208Y0133507D03*
X0085365Y0137339D03*
X0085365Y0142457D03*
X0101523Y0123298D03*
X0101523Y0118180D03*
X0106956Y0118220D03*
X0106956Y0123338D03*
X0028566Y0102676D03*
X0028566Y0097558D03*
X0088137Y0051842D03*
X0088137Y0046724D03*
X0093255Y0046724D03*
X0093255Y0051842D03*
X0118491Y0024480D03*
X0118491Y0019361D03*
X0135224Y0025424D03*
X0135224Y0030543D03*
X0138752Y0039480D03*
X0138752Y0044598D03*
D13*
X0150263Y0094913D03*
X0156956Y0094913D03*
D14*
X0159141Y0057983D03*
X0154141Y0057983D03*
X0149141Y0057983D03*
X0144141Y0057983D03*
X0167763Y0057944D03*
X0172763Y0057944D03*
X0177763Y0057944D03*
X0182763Y0057944D03*
X0182763Y0037472D03*
X0177763Y0037472D03*
X0172763Y0037472D03*
X0167763Y0037472D03*
X0159141Y0037511D03*
X0154141Y0037511D03*
X0149141Y0037511D03*
X0144141Y0037511D03*
D15*
X0088964Y0028306D02*
X0088964Y0022306D01*
X0078964Y0022306D02*
X0078964Y0028306D01*
X0068964Y0028306D02*
X0068964Y0022306D01*
X0058964Y0022306D02*
X0058964Y0028306D01*
X0048964Y0028306D02*
X0048964Y0022306D01*
X0038964Y0022306D02*
X0038964Y0028306D01*
X0099121Y0154944D02*
X0099121Y0160944D01*
X0109121Y0160944D02*
X0109121Y0154944D01*
X0119121Y0154944D02*
X0119121Y0160944D01*
X0129121Y0160944D02*
X0129121Y0154944D01*
X0147350Y0154787D02*
X0147350Y0160787D01*
X0157350Y0160787D02*
X0157350Y0154787D01*
X0167350Y0154787D02*
X0167350Y0160787D01*
X0177350Y0160787D02*
X0177350Y0154787D01*
X0187350Y0154787D02*
X0187350Y0160787D01*
D16*
X0173590Y0129668D03*
X0171090Y0129668D03*
X0168590Y0129668D03*
X0166090Y0129668D03*
X0163590Y0129668D03*
X0161090Y0129668D03*
X0158590Y0129668D03*
X0158590Y0108268D03*
X0161090Y0108268D03*
X0163590Y0108268D03*
X0166090Y0108268D03*
X0168590Y0108268D03*
X0171090Y0108268D03*
X0173590Y0108268D03*
X0127920Y0108268D03*
X0125420Y0108268D03*
X0122920Y0108268D03*
X0120420Y0108268D03*
X0117920Y0108268D03*
X0115420Y0108268D03*
X0112920Y0108268D03*
X0095346Y0108213D03*
X0092846Y0108213D03*
X0090346Y0108213D03*
X0087846Y0108213D03*
X0085346Y0108213D03*
X0082846Y0108213D03*
X0080346Y0108213D03*
X0080346Y0129613D03*
X0082846Y0129613D03*
X0085346Y0129613D03*
X0087846Y0129613D03*
X0090346Y0129613D03*
X0092846Y0129613D03*
X0095346Y0129613D03*
X0112920Y0129668D03*
X0115420Y0129668D03*
X0117920Y0129668D03*
X0120420Y0129668D03*
X0122920Y0129668D03*
X0125420Y0129668D03*
X0127920Y0129668D03*
X0128432Y0058408D03*
X0125932Y0058408D03*
X0123432Y0058408D03*
X0120932Y0058408D03*
X0118432Y0058408D03*
X0130932Y0058408D03*
X0133432Y0058408D03*
X0133432Y0037008D03*
X0130932Y0037008D03*
X0128432Y0037008D03*
X0125932Y0037008D03*
X0123432Y0037008D03*
X0120932Y0037008D03*
X0118432Y0037008D03*
D17*
X0075121Y0040063D03*
X0072021Y0040063D03*
X0068821Y0040063D03*
X0065721Y0040063D03*
X0062521Y0040063D03*
X0059421Y0040063D03*
X0056221Y0040063D03*
X0053121Y0040063D03*
X0053121Y0073463D03*
X0056221Y0073463D03*
X0059421Y0073463D03*
X0062521Y0073463D03*
X0065721Y0073463D03*
X0068821Y0073463D03*
X0072021Y0073463D03*
X0075121Y0073463D03*
D18*
X0080821Y0067763D03*
X0080821Y0064663D03*
X0080821Y0061463D03*
X0080821Y0058363D03*
X0080821Y0055163D03*
X0080821Y0052063D03*
X0080821Y0048863D03*
X0080821Y0045763D03*
X0047421Y0045763D03*
X0047421Y0048863D03*
X0047421Y0052063D03*
X0047421Y0055163D03*
X0047421Y0058363D03*
X0047421Y0061463D03*
X0047421Y0064663D03*
X0047421Y0067763D03*
D19*
X0026208Y0058102D03*
X0016208Y0058102D03*
X0016208Y0048102D03*
X0026208Y0048102D03*
X0026208Y0038102D03*
X0016208Y0038102D03*
X0016090Y0081566D03*
D20*
X0035011Y0102011D03*
X0035011Y0104570D03*
X0035011Y0107129D03*
X0035011Y0109688D03*
X0035011Y0112247D03*
X0035011Y0114806D03*
X0035011Y0117365D03*
X0035011Y0119924D03*
X0035011Y0122483D03*
X0035011Y0125043D03*
X0058633Y0125043D03*
X0058633Y0122483D03*
X0058633Y0119924D03*
X0058633Y0117365D03*
X0058633Y0114806D03*
X0058633Y0112247D03*
X0058633Y0109688D03*
X0058633Y0107129D03*
X0058633Y0104570D03*
X0058633Y0102011D03*
D21*
X0023176Y0103417D03*
X0023176Y0095936D03*
X0012940Y0095936D03*
X0012940Y0099676D03*
X0012940Y0103417D03*
D22*
X0189700Y0100600D03*
X0189700Y0094600D03*
D23*
X0150900Y0083800D03*
X0144900Y0083800D03*
D24*
X0149554Y0072117D02*
X0149161Y0071724D01*
X0132743Y0076094D02*
X0131798Y0076094D01*
X0130499Y0070503D02*
X0130657Y0069991D01*
X0125539Y0065031D02*
X0125539Y0064637D01*
X0121169Y0076842D02*
X0119987Y0076369D01*
X0118938Y0075976D01*
X0125145Y0086684D02*
X0124922Y0086907D01*
X0124922Y0098889D01*
X0125239Y0099206D01*
X0125239Y0104704D01*
X0125420Y0104885D01*
X0125420Y0108268D01*
X0124161Y0118220D02*
X0125617Y0119676D01*
X0124161Y0118220D02*
X0106956Y0118220D01*
X0101562Y0118220D01*
X0101523Y0118180D01*
X0106917Y0123298D02*
X0106956Y0123338D01*
X0100884Y0108213D02*
X0095346Y0108213D01*
X0093255Y0108213D02*
X0092846Y0108213D01*
X0100884Y0108213D02*
X0101657Y0107440D01*
X0094436Y0099676D02*
X0094566Y0099546D01*
X0099200Y0094598D02*
X0100027Y0094598D01*
X0107940Y0097200D02*
X0107940Y0098574D01*
X0112743Y0093298D02*
X0115082Y0090960D01*
X0115082Y0090946D01*
X0115903Y0090125D01*
X0116192Y0090125D01*
X0118452Y0087865D01*
X0106116Y0073968D02*
X0104869Y0073968D01*
X0091090Y0086291D02*
X0090696Y0086684D01*
X0065696Y0087472D02*
X0064909Y0086684D01*
X0063405Y0086684D01*
X0063405Y0104617D01*
X0065621Y0107227D01*
X0065621Y0109448D01*
X0064051Y0111019D01*
X0061568Y0111019D01*
X0061511Y0111076D01*
X0060123Y0109688D01*
X0058633Y0109688D01*
X0058633Y0107129D02*
X0059987Y0106956D01*
X0061477Y0106956D01*
X0062466Y0108338D01*
X0062940Y0108338D01*
X0061477Y0106956D02*
X0061511Y0105741D01*
X0061511Y0086830D01*
X0058857Y0086830D01*
X0058216Y0087472D01*
X0061365Y0086684D02*
X0061511Y0086830D01*
X0053255Y0097550D02*
X0053247Y0097550D01*
X0058365Y0101743D02*
X0058633Y0102011D01*
X0049948Y0103220D02*
X0049554Y0102826D01*
X0061511Y0111076D02*
X0061511Y0115964D01*
X0062546Y0116606D01*
X0068003Y0115924D02*
X0068019Y0115909D01*
X0068452Y0120936D02*
X0068346Y0121043D01*
X0068003Y0121043D01*
X0072149Y0121027D02*
X0072298Y0121027D01*
X0071208Y0126448D02*
X0070814Y0126842D01*
X0070617Y0126842D01*
X0075735Y0126842D02*
X0076326Y0126842D01*
X0075932Y0126448D01*
X0090346Y0128200D02*
X0090346Y0129613D01*
X0080066Y0142393D02*
X0079869Y0142590D01*
X0058661Y0122511D02*
X0058633Y0122483D01*
X0050850Y0129928D02*
X0050771Y0130007D01*
X0044200Y0133507D02*
X0043779Y0133928D01*
X0043779Y0134499D01*
X0038661Y0130007D02*
X0037777Y0129123D01*
X0027531Y0124253D02*
X0027438Y0124346D01*
X0026743Y0124346D01*
X0027438Y0124346D02*
X0026354Y0125430D01*
X0026354Y0125444D01*
X0023621Y0128570D01*
X0023228Y0128468D01*
X0023176Y0128417D01*
X0021602Y0124480D02*
X0021625Y0124456D01*
X0021625Y0124346D01*
X0022088Y0118952D02*
X0018171Y0118952D01*
X0017350Y0118131D01*
X0017350Y0117472D01*
X0013728Y0115424D01*
X0020023Y0115672D02*
X0020023Y0111208D01*
X0022361Y0108869D01*
X0022361Y0108856D01*
X0023182Y0108035D01*
X0027099Y0108035D01*
X0028753Y0109688D01*
X0035011Y0109688D01*
X0026180Y0112247D02*
X0025141Y0111208D01*
X0026220Y0114806D02*
X0025247Y0115779D01*
X0022909Y0118117D01*
X0022909Y0118131D01*
X0022088Y0118952D01*
X0020129Y0115779D02*
X0020023Y0115672D01*
X0023830Y0104070D02*
X0023176Y0103417D01*
X0024311Y0100632D02*
X0027976Y0096968D01*
X0023176Y0095936D02*
X0022857Y0095617D01*
X0027976Y0091483D02*
X0027976Y0090920D01*
X0027976Y0091483D02*
X0028294Y0091802D01*
X0016972Y0090920D02*
X0016877Y0091015D01*
X0035011Y0102011D02*
X0035424Y0101598D01*
X0024357Y0132747D02*
X0024243Y0132747D01*
X0024180Y0132810D01*
X0024294Y0132810D01*
X0024357Y0132747D01*
X0125539Y0042196D02*
X0125932Y0042196D01*
X0125932Y0037008D01*
X0124751Y0029991D02*
X0124357Y0029991D01*
X0124554Y0029794D02*
X0124751Y0029991D01*
X0113334Y0036684D02*
X0112940Y0036684D01*
X0105564Y0029545D02*
X0103688Y0028456D01*
X0118491Y0019361D02*
X0118518Y0018941D01*
X0119830Y0017629D01*
X0118518Y0018941D02*
X0118544Y0018968D01*
X0118491Y0019361D01*
X0079506Y0040063D02*
X0079705Y0040457D01*
X0079476Y0040228D01*
X0053121Y0040063D02*
X0052892Y0039834D01*
X0049739Y0025306D02*
X0048964Y0025306D01*
X0152625Y0103102D02*
X0153216Y0103102D01*
X0172783Y0071724D02*
X0172798Y0071708D01*
X0177901Y0071724D02*
X0177901Y0072117D01*
X0177763Y0059200D02*
X0177763Y0057944D01*
X0172763Y0030523D02*
X0172763Y0025287D01*
X0172783Y0025267D01*
D25*
X0043043Y0114031D03*
D26*
X0050342Y0116212D03*
X0049900Y0121200D03*
X0062546Y0116606D03*
X0062940Y0108338D03*
X0049554Y0102826D03*
X0034200Y0090228D03*
X0016877Y0091015D03*
X0010578Y0106763D03*
X0013334Y0110700D03*
X0013728Y0115424D03*
X0053491Y0081566D03*
X0058216Y0087472D03*
X0065696Y0087472D03*
X0066877Y0081960D03*
X0067271Y0093377D03*
X0077901Y0104401D03*
X0085243Y0114243D03*
X0077507Y0115818D03*
X0077113Y0122117D03*
X0066877Y0130779D03*
X0071122Y0134652D03*
X0079869Y0142590D03*
X0090893Y0134322D03*
X0094500Y0123000D03*
X0105066Y0139046D03*
X0115696Y0134716D03*
X0120420Y0134716D03*
X0132625Y0140621D03*
X0155066Y0137078D03*
X0173570Y0148495D03*
X0161917Y0115424D03*
X0166877Y0101251D03*
X0163590Y0098751D03*
X0167271Y0094913D03*
X0171602Y0094952D03*
X0182231Y0111881D03*
X0182700Y0077200D03*
X0177901Y0071724D03*
X0172783Y0071724D03*
X0156900Y0078400D03*
X0153491Y0071330D03*
X0149161Y0071724D03*
X0145224Y0075661D03*
X0139357Y0090976D03*
X0125145Y0086684D03*
X0118452Y0087865D03*
X0114121Y0087865D03*
X0099948Y0089046D03*
X0094436Y0099676D03*
X0085602Y0091252D03*
X0094500Y0077000D03*
X0112546Y0059519D03*
X0104869Y0056566D03*
X0090106Y0057550D03*
X0084594Y0041409D03*
X0079476Y0040228D03*
X0080657Y0035897D03*
X0091680Y0035109D03*
X0101917Y0038653D03*
X0112940Y0036684D03*
X0124357Y0029991D03*
X0128516Y0031016D03*
X0125539Y0042196D03*
X0124357Y0050070D03*
X0125539Y0065031D03*
X0144043Y0048889D03*
X0158216Y0048495D03*
X0160184Y0029991D03*
X0151350Y0023929D03*
X0172783Y0025267D03*
X0186956Y0027235D03*
X0190893Y0067578D03*
X0143649Y0107944D03*
X0133446Y0114755D03*
X0125617Y0119676D03*
X0127920Y0103200D03*
X0121602Y0103220D03*
X0061365Y0142983D03*
X0059791Y0062669D03*
X0062546Y0054401D03*
X0058500Y0049400D03*
X0071700Y0050000D03*
X0039598Y0035897D03*
D27*
X0028155Y0033400D02*
X0024260Y0033400D01*
X0021506Y0036154D01*
X0021506Y0040049D01*
X0026208Y0044751D01*
X0026208Y0048102D01*
X0020420Y0052826D02*
X0033700Y0052826D01*
X0037663Y0048863D01*
X0047421Y0048863D01*
X0047421Y0045763D02*
X0033869Y0045763D01*
X0026208Y0038102D01*
X0028155Y0033400D02*
X0034589Y0039834D01*
X0052892Y0039834D01*
X0049315Y0025306D02*
X0059116Y0014717D01*
X0091781Y0014717D01*
X0098828Y0021765D01*
X0098828Y0040858D01*
X0100957Y0042987D01*
X0100957Y0054638D01*
X0098828Y0056766D01*
X0098828Y0056801D01*
X0090966Y0064663D01*
X0080821Y0064663D01*
X0080821Y0061463D02*
X0090409Y0061463D01*
X0096728Y0055143D01*
X0096728Y0044641D01*
X0095555Y0043468D01*
X0095555Y0022249D01*
X0090911Y0017605D01*
X0067016Y0017605D01*
X0059315Y0025306D01*
X0058964Y0025306D01*
X0049315Y0025306D02*
X0048964Y0025306D01*
X0020420Y0052826D02*
X0016208Y0048613D01*
X0016208Y0048102D01*
X0031850Y0061463D02*
X0028113Y0065200D01*
X0025700Y0065200D01*
X0021300Y0069600D01*
X0021300Y0073592D01*
X0021279Y0073613D01*
X0016090Y0078802D01*
X0016090Y0081566D01*
X0015683Y0087739D02*
X0020090Y0087739D01*
X0026397Y0081825D01*
X0026397Y0073613D01*
X0031850Y0061463D02*
X0047421Y0061463D01*
X0074735Y0086552D02*
X0080878Y0086552D01*
X0084421Y0086552D01*
X0085735Y0086684D01*
X0085578Y0086684D01*
X0085578Y0085897D01*
X0085972Y0081960D01*
X0091090Y0081960D02*
X0091090Y0086291D01*
X0090696Y0086684D02*
X0090696Y0095149D01*
X0094436Y0099676D01*
X0096554Y0096680D02*
X0096554Y0092515D01*
X0096700Y0092368D01*
X0096700Y0092200D01*
X0099854Y0089046D01*
X0099948Y0089046D01*
X0100027Y0094598D02*
X0109740Y0084884D01*
X0119548Y0084884D01*
X0121741Y0086684D01*
X0125145Y0086684D01*
X0114121Y0087865D02*
X0110035Y0087865D01*
X0107700Y0090200D01*
X0107700Y0096960D01*
X0107940Y0097200D01*
X0100027Y0099716D02*
X0097988Y0097677D01*
X0097550Y0097677D01*
X0096554Y0096680D01*
X0085839Y0096346D02*
X0085839Y0091489D01*
X0085602Y0091252D01*
X0113531Y0066409D02*
X0113531Y0060503D01*
X0112546Y0059519D01*
X0125381Y0064794D02*
X0125381Y0070503D01*
X0125381Y0064794D02*
X0125539Y0064637D01*
X0076700Y0115011D02*
X0077507Y0115818D01*
X0077507Y0117508D01*
X0075257Y0119757D01*
X0073568Y0119757D01*
X0072298Y0121027D01*
X0077113Y0122117D02*
X0077113Y0125464D01*
X0075735Y0126842D01*
X0072133Y0115924D02*
X0068003Y0115924D01*
X0072133Y0115924D02*
X0072149Y0115909D01*
X0062208Y0128389D02*
X0061397Y0129200D01*
X0058700Y0129200D01*
X0057972Y0129928D01*
X0055968Y0129928D01*
X0050850Y0129928D02*
X0043857Y0129928D01*
X0043779Y0130007D01*
X0043779Y0134499D01*
X0038661Y0134499D02*
X0038661Y0130007D01*
X0062208Y0133507D02*
X0062208Y0133692D01*
X0080066Y0142393D02*
X0085365Y0142457D01*
X0101562Y0123338D02*
X0101523Y0123298D01*
X0101562Y0123338D02*
X0106956Y0123338D01*
X0150184Y0121684D02*
X0158168Y0129668D01*
X0158590Y0129668D01*
X0173590Y0129668D02*
X0174563Y0129668D01*
X0181956Y0122275D01*
X0053247Y0099133D02*
X0053247Y0097550D01*
X0053247Y0099133D02*
X0049554Y0102826D01*
X0040684Y0097550D02*
X0040543Y0097409D01*
X0038504Y0095370D01*
X0038504Y0094932D01*
X0037507Y0093935D01*
X0028240Y0093935D01*
X0027976Y0094200D01*
X0027976Y0096968D01*
X0028566Y0097558D01*
X0027406Y0097558D01*
X0026243Y0098720D01*
X0026223Y0098720D01*
X0024311Y0100632D01*
X0018606Y0100632D01*
X0015822Y0103417D01*
X0012940Y0103417D01*
X0011140Y0106201D02*
X0010578Y0106763D01*
X0011140Y0106201D02*
X0016795Y0106201D01*
X0019579Y0103417D01*
X0023176Y0103417D01*
X0022857Y0095617D02*
X0022857Y0090920D01*
X0016972Y0090920D01*
X0015683Y0087739D02*
X0013601Y0089821D01*
X0013601Y0094882D01*
X0012940Y0095936D01*
X0027976Y0094200D02*
X0027976Y0090920D01*
X0035424Y0097409D02*
X0035424Y0101598D01*
D28*
X0035011Y0104570D02*
X0030460Y0104570D01*
X0028566Y0102676D01*
X0027762Y0106041D02*
X0025801Y0106041D01*
X0023830Y0104070D01*
X0027762Y0106041D02*
X0028850Y0107129D01*
X0035011Y0107129D01*
X0035011Y0109688D02*
X0039487Y0109688D01*
X0039515Y0109716D01*
X0040543Y0108688D01*
X0040543Y0097409D01*
X0043816Y0092653D02*
X0030661Y0082254D01*
X0030661Y0074200D01*
X0032925Y0071936D01*
X0036564Y0071936D01*
X0040900Y0067600D01*
X0040900Y0064663D01*
X0045986Y0069198D02*
X0045986Y0075800D01*
X0045986Y0103191D01*
X0054576Y0111780D01*
X0058166Y0111780D01*
X0058633Y0112247D01*
X0058633Y0104570D02*
X0051298Y0104570D01*
X0049948Y0103220D01*
X0043422Y0108616D02*
X0046725Y0111919D01*
X0046725Y0117025D01*
X0049900Y0121200D01*
X0054054Y0119924D02*
X0050342Y0116212D01*
X0054054Y0119924D02*
X0058633Y0119924D01*
X0058633Y0122483D02*
X0061289Y0122483D01*
X0065610Y0118163D01*
X0065765Y0118163D01*
X0068003Y0115924D01*
X0058861Y0125043D02*
X0062208Y0128389D01*
X0058861Y0125043D02*
X0058633Y0125043D01*
X0070617Y0131200D02*
X0079094Y0131200D01*
X0080346Y0130735D01*
X0080346Y0129613D01*
X0079894Y0130794D02*
X0079094Y0131200D01*
X0082846Y0129613D02*
X0082846Y0126652D01*
X0081658Y0125464D01*
X0077113Y0125464D01*
X0077377Y0125200D01*
X0082846Y0129613D02*
X0082846Y0129613D01*
X0082846Y0133378D01*
X0077094Y0138737D01*
X0076700Y0139050D01*
X0073546Y0139046D01*
X0072980Y0139046D01*
X0085346Y0137320D02*
X0085346Y0129613D01*
X0087846Y0129613D02*
X0087846Y0133346D01*
X0088700Y0134200D01*
X0090771Y0134200D01*
X0090893Y0134322D01*
X0085365Y0137339D02*
X0085346Y0137320D01*
X0092846Y0129613D02*
X0095346Y0129613D01*
X0101523Y0123435D01*
X0101523Y0123298D01*
X0106956Y0123338D02*
X0107094Y0123200D01*
X0116700Y0123200D01*
X0117920Y0124420D01*
X0117920Y0129668D01*
X0115420Y0129668D02*
X0115420Y0134440D01*
X0115696Y0134716D01*
X0115696Y0139125D01*
X0116208Y0139637D01*
X0112915Y0137812D02*
X0112915Y0133564D01*
X0112920Y0133558D01*
X0112920Y0129668D01*
X0120420Y0129668D02*
X0120420Y0134716D01*
X0123319Y0134559D02*
X0123319Y0133346D01*
X0122920Y0132947D01*
X0122920Y0129668D01*
X0125420Y0129668D02*
X0125420Y0132200D01*
X0127310Y0134090D01*
X0127310Y0136015D01*
X0133531Y0136015D01*
X0134830Y0134716D01*
X0134760Y0129668D02*
X0127920Y0129668D01*
X0123319Y0134559D02*
X0124037Y0135277D01*
X0124037Y0143133D01*
X0124917Y0144013D01*
X0133167Y0144013D01*
X0133172Y0144007D01*
X0139318Y0144007D01*
X0132625Y0140621D02*
X0132113Y0141133D01*
X0127310Y0141133D01*
X0134760Y0129668D02*
X0134830Y0129598D01*
X0133446Y0114755D02*
X0126195Y0114755D01*
X0122920Y0111481D01*
X0122920Y0108268D01*
X0125420Y0108268D02*
X0125420Y0104633D01*
X0125139Y0104352D01*
X0125139Y0087124D01*
X0124922Y0086907D01*
X0117920Y0093357D02*
X0117861Y0093298D01*
X0117920Y0093357D02*
X0117920Y0108268D01*
X0115420Y0108268D02*
X0115420Y0112480D01*
X0113700Y0114200D01*
X0110700Y0114200D01*
X0108700Y0112200D01*
X0108700Y0109365D01*
X0106775Y0107440D01*
X0107347Y0101847D02*
X0112920Y0107420D01*
X0112920Y0108268D01*
X0115420Y0108268D02*
X0115420Y0100936D01*
X0113058Y0098574D01*
X0107347Y0101847D02*
X0105940Y0101847D01*
X0103809Y0099716D01*
X0100027Y0099716D01*
X0094436Y0099676D02*
X0090346Y0103767D01*
X0090346Y0108213D01*
X0090346Y0128200D01*
X0085243Y0114243D02*
X0087846Y0111641D01*
X0087846Y0108213D01*
X0085346Y0108213D02*
X0085346Y0101957D01*
X0085839Y0101464D01*
X0082846Y0105031D02*
X0080878Y0103064D01*
X0080878Y0086552D01*
X0077901Y0104401D02*
X0080346Y0106846D01*
X0080346Y0108213D01*
X0082846Y0108213D02*
X0082846Y0105031D01*
X0058365Y0101743D02*
X0058365Y0097550D01*
X0043816Y0092653D02*
X0043422Y0108616D01*
X0039515Y0109716D02*
X0039515Y0110503D01*
X0043043Y0114031D01*
X0035011Y0114806D02*
X0026220Y0114806D01*
X0026180Y0112247D02*
X0035011Y0112247D01*
X0035011Y0117365D02*
X0031535Y0117365D01*
X0029700Y0119200D01*
X0028700Y0119200D01*
X0026700Y0121200D01*
X0026052Y0120946D01*
X0017508Y0120946D01*
X0016369Y0120200D01*
X0012306Y0120200D01*
X0009913Y0118200D01*
X0009913Y0113200D01*
X0013200Y0110700D01*
X0013334Y0110700D01*
X0026700Y0121200D02*
X0026700Y0124302D01*
X0026743Y0124346D01*
X0029623Y0122277D02*
X0031976Y0119924D01*
X0035011Y0119924D01*
X0035011Y0122483D02*
X0033380Y0122483D01*
X0031619Y0124244D01*
X0031619Y0130964D01*
X0030739Y0131843D01*
X0030265Y0131843D01*
X0029298Y0132810D01*
X0024180Y0132810D02*
X0023213Y0131843D01*
X0021621Y0131843D01*
X0020742Y0130964D01*
X0020742Y0126176D01*
X0021625Y0125293D01*
X0021625Y0124346D01*
X0028739Y0127623D02*
X0029623Y0126739D01*
X0029623Y0122277D01*
X0035011Y0125043D02*
X0035011Y0126357D01*
X0037777Y0129123D01*
X0028739Y0128570D02*
X0028739Y0127623D01*
X0045986Y0069198D02*
X0047421Y0067763D01*
X0049382Y0034953D02*
X0069244Y0034953D01*
X0071429Y0032768D01*
X0077059Y0032768D01*
X0077099Y0032808D01*
X0080828Y0032808D01*
X0080869Y0032768D01*
X0081321Y0032768D01*
X0088457Y0038723D01*
X0088457Y0045863D01*
X0088137Y0046724D01*
X0088137Y0051842D02*
X0093255Y0051842D01*
X0093255Y0054401D01*
X0090106Y0057550D01*
X0104698Y0056738D02*
X0104869Y0056566D01*
X0105005Y0056702D02*
X0105041Y0056738D01*
X0104698Y0056738D01*
X0105041Y0056738D02*
X0107900Y0056738D01*
X0116762Y0056738D01*
X0118432Y0058408D01*
X0120932Y0058408D01*
X0123432Y0058408D02*
X0123432Y0061690D01*
X0122610Y0062512D01*
X0121429Y0062512D01*
X0120248Y0063693D01*
X0120248Y0070991D01*
X0119987Y0071251D01*
X0120932Y0070306D01*
X0130657Y0069991D02*
X0130932Y0069716D01*
X0130932Y0058408D01*
X0128432Y0058408D02*
X0128432Y0054918D01*
X0138752Y0044598D01*
X0133432Y0037008D02*
X0133412Y0035827D01*
X0135224Y0034409D01*
X0135224Y0030543D01*
X0131557Y0032306D02*
X0131557Y0028149D01*
X0132830Y0027663D01*
X0132985Y0027663D01*
X0135224Y0025424D01*
X0128516Y0031016D02*
X0128432Y0032507D01*
X0128432Y0037008D01*
X0130932Y0037008D02*
X0130932Y0033717D01*
X0131557Y0032306D01*
X0123432Y0033806D02*
X0121035Y0031409D01*
X0121035Y0027024D01*
X0118491Y0024480D01*
X0123432Y0033806D02*
X0123432Y0037008D01*
X0120932Y0037008D02*
X0118432Y0037008D01*
X0118432Y0037556D01*
X0115524Y0040465D01*
X0111437Y0040465D01*
X0109625Y0038653D01*
X0106900Y0038653D01*
X0106900Y0052200D02*
X0107900Y0053200D01*
X0107900Y0056738D01*
X0124357Y0050070D02*
X0125932Y0052826D01*
X0125932Y0058408D01*
X0133432Y0058408D02*
X0133432Y0062334D01*
X0135932Y0064834D01*
X0167271Y0094913D02*
X0167271Y0095361D01*
X0170294Y0098384D01*
X0170294Y0102796D01*
X0168590Y0104500D01*
X0168590Y0108268D01*
X0171090Y0108268D02*
X0171090Y0105979D01*
X0171206Y0105862D01*
X0171206Y0105648D01*
X0173398Y0103457D01*
X0173398Y0096748D01*
X0171602Y0094952D01*
X0166877Y0101251D02*
X0166090Y0102039D01*
X0166090Y0108268D01*
X0163590Y0108268D02*
X0163590Y0112090D01*
X0166700Y0115200D01*
X0179999Y0115200D01*
X0181956Y0117157D01*
X0182231Y0111881D02*
X0179508Y0109157D01*
X0178618Y0108268D01*
X0173590Y0108268D01*
X0178618Y0108268D02*
X0179508Y0109157D01*
X0163590Y0108268D02*
X0163590Y0098751D01*
X0158334Y0103102D02*
X0161090Y0105857D01*
X0161090Y0108268D01*
X0161090Y0111810D01*
X0159700Y0113200D01*
X0153550Y0113200D01*
X0150184Y0116566D01*
X0158227Y0108268D02*
X0155454Y0105495D01*
X0155454Y0105340D01*
X0153216Y0103102D01*
X0158227Y0108268D02*
X0158590Y0108268D01*
X0158590Y0129668D02*
X0161090Y0129668D01*
X0163590Y0129668D02*
X0163590Y0132407D01*
X0166090Y0129668D02*
X0166090Y0141999D01*
X0167231Y0143141D01*
X0168700Y0134600D02*
X0168590Y0134490D01*
X0168590Y0129668D01*
X0171090Y0129668D02*
X0173590Y0129668D01*
X0127920Y0108268D02*
X0127920Y0103200D01*
X0121602Y0103220D02*
X0120420Y0104401D01*
X0120420Y0108268D01*
X0112915Y0137812D02*
X0111090Y0139637D01*
X0049382Y0034953D02*
X0047237Y0032808D01*
X0047099Y0032808D01*
X0039598Y0025306D01*
X0038964Y0025306D01*
D29*
X0056221Y0040063D02*
X0056221Y0047121D01*
X0058500Y0049400D01*
X0062546Y0054401D02*
X0068821Y0060676D01*
X0068821Y0062321D01*
X0068700Y0062200D01*
X0068821Y0062321D02*
X0068821Y0073463D01*
X0068821Y0080016D01*
X0066877Y0081960D01*
X0066117Y0081200D01*
X0061700Y0081200D01*
X0062521Y0080379D01*
X0062521Y0073463D01*
X0059421Y0073463D02*
X0059421Y0067479D01*
X0060700Y0066200D01*
X0061700Y0066200D01*
X0061700Y0064578D01*
X0059791Y0062669D01*
X0061700Y0066200D02*
X0063700Y0066200D01*
X0065721Y0068221D01*
X0065721Y0073463D01*
X0061700Y0081200D02*
X0059700Y0081200D01*
X0053247Y0087653D01*
X0053247Y0097550D01*
X0070027Y0099873D02*
X0074948Y0094952D01*
X0074735Y0091670D01*
X0070027Y0107354D02*
X0072149Y0109476D01*
X0072149Y0115909D01*
X0070617Y0126842D02*
X0070617Y0131200D01*
X0070617Y0134147D01*
X0071122Y0134652D01*
X0070248Y0134652D01*
X0068700Y0136200D01*
X0068700Y0138208D01*
X0067861Y0139046D01*
X0091090Y0081960D02*
X0095641Y0081960D01*
X0101700Y0082200D01*
X0143300Y0082200D01*
X0144900Y0083800D01*
X0150900Y0083800D02*
X0156300Y0083800D01*
X0158700Y0085600D01*
X0167700Y0085600D01*
X0167700Y0089200D01*
X0167700Y0085600D02*
X0174900Y0085600D01*
X0182700Y0078400D01*
X0182700Y0077200D01*
X0182700Y0058007D01*
X0182763Y0057944D01*
X0177763Y0057944D02*
X0177700Y0057881D01*
X0177700Y0052200D01*
X0175700Y0050200D01*
X0170700Y0050200D01*
X0167763Y0053137D01*
X0167763Y0057944D01*
X0172763Y0057944D02*
X0172763Y0065570D01*
X0172798Y0065606D01*
X0172798Y0071708D01*
X0177901Y0072117D02*
X0177917Y0072102D01*
X0177917Y0065606D01*
X0177917Y0059354D01*
X0177763Y0059200D01*
X0185846Y0068083D02*
X0188169Y0070406D01*
X0188169Y0083600D01*
X0186100Y0083600D01*
X0182700Y0087000D01*
X0188169Y0083600D02*
X0188169Y0093069D01*
X0189700Y0094600D01*
X0189700Y0100600D02*
X0189700Y0104413D01*
X0182231Y0111881D01*
X0167271Y0094913D02*
X0156956Y0094913D01*
X0150263Y0094913D02*
X0150263Y0100149D01*
X0153216Y0103102D01*
X0167700Y0080800D02*
X0163059Y0076159D01*
X0159141Y0076159D01*
X0156900Y0078400D01*
X0159141Y0076159D02*
X0159141Y0057983D01*
X0154141Y0057983D02*
X0154141Y0052641D01*
X0151700Y0050200D01*
X0147700Y0050200D01*
X0144141Y0053759D01*
X0144141Y0057983D01*
X0149141Y0057983D02*
X0149141Y0064854D01*
X0148570Y0065424D01*
X0148570Y0071133D01*
X0149161Y0071724D01*
X0153491Y0071330D02*
X0153688Y0071133D01*
X0153688Y0065424D01*
X0154141Y0064972D01*
X0154141Y0057983D01*
X0144043Y0066086D02*
X0141058Y0063102D01*
X0141058Y0052865D01*
X0144043Y0049881D01*
X0144043Y0048889D01*
X0154141Y0041680D02*
X0157661Y0045200D01*
X0177728Y0045200D01*
X0177728Y0037506D01*
X0177763Y0037472D01*
X0182763Y0037472D02*
X0182763Y0031428D01*
X0183924Y0030267D01*
X0186956Y0027235D01*
X0183924Y0030267D02*
X0178137Y0030267D01*
X0177763Y0030641D01*
X0173019Y0030267D02*
X0173019Y0025543D01*
X0172763Y0025287D01*
X0173019Y0030267D02*
X0172763Y0030523D01*
X0172763Y0035200D01*
X0172763Y0037472D01*
X0172763Y0035200D02*
X0173019Y0034944D01*
X0173019Y0030267D01*
X0167763Y0025972D02*
X0165720Y0023929D01*
X0167763Y0025972D02*
X0167763Y0037472D01*
X0159141Y0037511D02*
X0159141Y0031035D01*
X0160184Y0029991D01*
X0154082Y0029991D01*
X0154082Y0029810D01*
X0154141Y0029869D01*
X0149141Y0030169D02*
X0148964Y0029991D01*
X0149141Y0030169D02*
X0149141Y0037511D01*
X0149141Y0040712D01*
X0156924Y0048495D01*
X0158216Y0048495D01*
X0154141Y0041680D02*
X0154141Y0037511D01*
X0144141Y0037511D02*
X0140721Y0037511D01*
X0138752Y0039480D01*
X0135224Y0030543D02*
X0137062Y0028704D01*
X0137783Y0028704D01*
X0138897Y0027590D01*
X0138897Y0023259D01*
X0133767Y0018129D01*
X0133767Y0017629D01*
X0132271Y0022472D02*
X0129672Y0022472D01*
X0132271Y0022472D02*
X0135224Y0025424D01*
X0128649Y0017629D02*
X0119830Y0017629D01*
X0118491Y0018968D01*
X0118491Y0019361D01*
X0118518Y0018941D02*
X0116044Y0018941D01*
X0115696Y0018594D01*
X0108216Y0018594D01*
X0105834Y0020976D01*
X0103688Y0020976D01*
X0111956Y0023054D02*
X0113554Y0023054D01*
X0114700Y0024200D01*
X0118212Y0024200D01*
X0118491Y0024480D01*
X0124554Y0022472D02*
X0124554Y0029794D01*
X0113334Y0036684D02*
X0111956Y0035306D01*
X0111956Y0030535D01*
X0103688Y0028456D02*
X0101917Y0030228D01*
X0101917Y0038653D01*
X0106900Y0038653D01*
X0106900Y0042200D01*
X0103353Y0038653D02*
X0101917Y0038653D01*
X0091680Y0040625D02*
X0091680Y0035109D01*
X0091680Y0040625D02*
X0092468Y0046137D01*
X0093255Y0046724D01*
X0084594Y0041991D02*
X0080821Y0045763D01*
X0084594Y0041991D02*
X0084594Y0041409D01*
X0079506Y0040063D02*
X0075121Y0040063D01*
X0072021Y0040063D02*
X0072021Y0035879D01*
X0072500Y0035400D01*
X0073195Y0035400D01*
X0073334Y0035261D01*
X0076909Y0035261D01*
X0077544Y0035897D01*
X0080657Y0035897D01*
X0065721Y0040063D02*
X0065721Y0044021D01*
X0071700Y0050000D01*
X0080821Y0058363D02*
X0089293Y0058363D01*
X0090106Y0057550D01*
X0104869Y0056566D02*
X0104869Y0066487D01*
X0104869Y0073968D02*
X0104869Y0074369D01*
X0108700Y0078200D01*
X0109641Y0078200D01*
X0109790Y0078350D01*
X0118007Y0078350D01*
X0119987Y0076369D01*
X0126405Y0076369D01*
X0126680Y0076094D01*
X0131798Y0076094D02*
X0131905Y0076200D01*
X0138700Y0076200D01*
X0139893Y0075007D01*
X0139893Y0067993D01*
X0136733Y0064834D01*
X0135932Y0064834D01*
X0135932Y0069952D02*
X0130696Y0069952D01*
X0130657Y0069991D01*
X0119987Y0071251D02*
X0119267Y0071251D01*
X0116509Y0074009D01*
X0113651Y0074009D01*
X0113531Y0073889D01*
X0113728Y0074086D01*
X0144043Y0074480D02*
X0144043Y0066086D01*
X0144043Y0074480D02*
X0145224Y0075661D01*
X0177728Y0045200D02*
X0181100Y0045200D01*
X0183462Y0046505D01*
X0185846Y0050070D01*
X0185846Y0068083D01*
X0181100Y0045200D02*
X0178039Y0045112D01*
X0180798Y0045109D02*
X0181100Y0045200D01*
X0160602Y0023929D02*
X0151350Y0023929D01*
X0047421Y0064663D02*
X0040900Y0064663D01*
X0037237Y0064663D01*
X0035313Y0065800D01*
X0035313Y0075800D02*
X0045986Y0075800D01*
X0139318Y0144007D02*
X0139594Y0143731D01*
X0146129Y0143731D01*
X0146129Y0156566D01*
X0147350Y0157787D01*
X0157350Y0157787D02*
X0157700Y0157436D01*
X0157700Y0145200D01*
X0163590Y0139310D01*
X0163590Y0132407D01*
X0168700Y0134600D02*
X0168700Y0136200D01*
X0177350Y0144850D01*
X0177350Y0157787D01*
X0167350Y0157787D02*
X0167231Y0157669D01*
X0167231Y0148259D01*
X0172700Y0147625D02*
X0172700Y0144200D01*
X0171641Y0143141D01*
X0167231Y0143141D01*
X0172700Y0147625D02*
X0173570Y0148495D01*
X0155066Y0139913D02*
X0155066Y0137078D01*
X0155066Y0139913D02*
X0151247Y0143731D01*
D30*
X0039712Y0150035D03*
X0035937Y0142650D03*
D31*
X0043598Y0143748D02*
X0039712Y0150035D01*
X0029247Y0150035D01*
X0024180Y0144180D01*
X0024180Y0132810D01*
X0043779Y0134499D02*
X0061401Y0134499D01*
X0062208Y0133692D01*
X0062208Y0133507D02*
X0064149Y0133507D01*
X0066877Y0130779D01*
X0066877Y0122169D01*
X0068003Y0121043D01*
X0072283Y0121043D01*
X0072267Y0121027D01*
X0072149Y0121027D01*
X0072283Y0121043D02*
X0072298Y0121027D01*
X0101523Y0118180D02*
X0124121Y0118180D01*
X0125617Y0119676D01*
X0134830Y0129598D02*
X0143700Y0129598D01*
X0143976Y0129873D01*
X0145578Y0129873D01*
X0145578Y0136566D02*
X0141641Y0136566D01*
X0139318Y0138889D01*
X0111090Y0139637D02*
X0105657Y0139637D01*
X0105066Y0139046D01*
X0043779Y0137000D02*
X0043779Y0134499D01*
X0043779Y0137000D02*
X0043598Y0143748D01*
D32*
X0093255Y0108213D02*
X0095346Y0108213D01*
X0120420Y0134716D02*
X0120420Y0135109D01*
D33*
X0040500Y0057400D03*
D34*
X0035313Y0065800D03*
X0035313Y0075800D03*
X0106900Y0052200D03*
X0106900Y0042200D03*
X0167700Y0080800D03*
X0167700Y0089200D03*
X0182700Y0087000D03*
M02*
