%
M48
M72
T01C0.01378
T02C0.01575
T03C0.01969
T04C0.02362
T05C0.03150
T06C0.04000
T07C0.11811
%
T01
X39598Y35897
X58500Y49400
X62546Y54401
X71700Y50000
X79476Y40228
X80657Y35897
X84594Y41409
X91680Y35109
X101917Y38653
X112940Y36684
X124357Y29991
X128516Y31016
X125539Y42196
X124357Y50070
X112546Y59519
X104869Y56566
X90106Y57550
X94500Y77000
X99948Y89046
X94436Y99676
X85602Y91252
X77901Y104401
X85243Y114243
X77507Y115818
X77113Y122117
X66877Y130779
X71122Y134652
X79869Y142590
X90893Y134322
X94500Y123000
X105066Y139046
X115696Y134716
X120420Y134716
X132625Y140621
X155066Y137078
X173570Y148495
X161917Y115424
X166877Y101251
X163590Y98751
X167271Y94913
X171602Y94952
X182231Y111881
X182700Y77200
X177901Y71724
X172783Y71724
X156900Y78400
X153491Y71330
X149161Y71724
X145224Y75661
X139357Y90976
X125145Y86684
X118452Y87865
X114121Y87865
X121602Y103220
X127920Y103200
X133446Y114755
X125617Y119676
X143649Y107944
X190893Y67578
X158216Y48495
X144043Y48889
X125539Y65031
X160184Y29991
X151350Y23929
X172783Y25267
X186956Y27235
X66877Y81960
X65696Y87472
X67271Y93377
X58216Y87472
X53491Y81566
X34200Y90228
X49554Y102826
X62940Y108338
X62546Y116606
X50342Y116212
X49900Y121200
X61365Y142983
X13728Y115424
X13334Y110700
X10578Y106763
X16877Y91015
X59791Y62669
T02
X43043Y114031
T03
X40500Y57400
T04
X35937Y142650
X39712Y150035
T05
X35313Y75800
X35313Y65800
X106900Y52200
X106900Y42200
X167700Y80800
X167700Y89200
X182700Y87000
T06
X187350Y157787
X177350Y157787
X167350Y157787
X157350Y157787
X147350Y157787
X129121Y157944
X119121Y157944
X109121Y157944
X99121Y157944
X16090Y81566
X16208Y58102
X26208Y58102
X26208Y48102
X16208Y48102
X16208Y38102
X26208Y38102
X38964Y25306
X48964Y25306
X58964Y25306
X68964Y25306
X78964Y25306
X88964Y25306
T07
X18280Y20780
M30
