G04 EAGLE Gerber X2 export*
%TF.Part,Single*%
%TF.FileFunction,Other,Silk screen CMP*%
%TF.FilePolarity,Positive*%
%TF.GenerationSoftware,Autodesk,EAGLE,8.7.1*%
%TF.CreationDate,2018-04-25T07:09:38Z*%
G75*
%MOMM*%
%FSLAX34Y34*%
%LPD*%
%AMOC8*
5,1,8,0,0,1.08239X$1,22.5*%
G01*
%ADD10C,0.152400*%
%ADD11C,0.101600*%
%ADD12C,0.076200*%
%ADD13C,0.127000*%
%ADD14C,0.050800*%
%ADD15C,0.203200*%
%ADD16C,0.650000*%


D10*
X129762Y121762D02*
X135185Y121762D01*
X132474Y121762D02*
X132474Y138032D01*
X135185Y138032D02*
X129762Y138032D01*
X148811Y138032D02*
X151523Y135320D01*
X148811Y138032D02*
X143388Y138032D01*
X140676Y135320D01*
X140676Y124474D01*
X143388Y121762D01*
X148811Y121762D01*
X151523Y124474D01*
X157048Y132609D02*
X162471Y138032D01*
X162471Y121762D01*
X157048Y121762D02*
X167895Y121762D01*
X181554Y121762D02*
X181554Y138032D01*
X173420Y129897D01*
X184266Y129897D01*
X40000Y289000D02*
X32000Y289000D01*
X32000Y300000D02*
X40000Y300000D01*
X32000Y300000D02*
X30000Y302000D01*
X39000Y322000D02*
X44000Y322000D01*
X39000Y322000D02*
X37000Y320000D01*
X37000Y334000D02*
X49000Y334000D01*
X51000Y343000D02*
X48000Y346000D01*
X40000Y346000D01*
X85000Y336000D02*
X87000Y336000D01*
X89000Y347000D02*
X87000Y349000D01*
X84000Y349000D01*
X156000Y307000D02*
X159000Y307000D01*
X156000Y307000D02*
X155000Y308000D01*
X170000Y303000D02*
X171000Y302000D01*
X171000Y299000D01*
X172000Y331000D02*
X172000Y332000D01*
X124000Y340000D02*
X124000Y341000D01*
X290000Y36000D02*
X290000Y33000D01*
X311000Y39000D02*
X312000Y40000D01*
X311000Y39000D02*
X311000Y37000D01*
X325000Y28000D02*
X325000Y23000D01*
X326000Y22000D01*
X334000Y56000D02*
X336000Y56000D01*
X354000Y54000D02*
X355000Y54000D01*
X341000Y94000D02*
X341000Y96000D01*
X397000Y44000D02*
X397000Y43000D01*
X395000Y41000D01*
X367000Y152000D02*
X364000Y155000D01*
X363000Y155000D01*
X398000Y162000D02*
X400000Y160000D01*
X398000Y162000D02*
X397000Y162000D01*
X277000Y256000D02*
X273000Y256000D01*
X285000Y243000D02*
X288000Y243000D01*
D11*
X348355Y239202D02*
X350304Y237253D01*
X348355Y239202D02*
X344457Y239202D01*
X342508Y237253D01*
X342508Y235304D01*
X344457Y233355D01*
X348355Y233355D01*
X350304Y231406D01*
X350304Y229457D01*
X348355Y227508D01*
X344457Y227508D01*
X342508Y229457D01*
X354202Y229457D02*
X356151Y227508D01*
X358100Y227508D01*
X360049Y229457D01*
X360049Y239202D01*
X358100Y239202D02*
X361998Y239202D01*
X371743Y239202D02*
X371743Y227508D01*
X365896Y233355D02*
X371743Y239202D01*
X373692Y233355D02*
X365896Y233355D01*
D10*
X143000Y344000D02*
X143000Y346000D01*
X166000Y366000D02*
X166000Y367000D01*
X306000Y361000D02*
X309000Y361000D01*
X257000Y319000D02*
X257000Y318000D01*
X245000Y318000D02*
X245000Y319000D01*
X274000Y364000D02*
X274000Y365000D01*
X365000Y367000D02*
X365000Y369000D01*
X365000Y367000D02*
X364000Y366000D01*
X342000Y370000D02*
X341000Y371000D01*
X341000Y374000D01*
D11*
X426923Y57170D02*
X428872Y55221D01*
X426923Y57170D02*
X423025Y57170D01*
X421076Y55221D01*
X421076Y47425D01*
X423025Y45476D01*
X426923Y45476D01*
X428872Y47425D01*
X432770Y57170D02*
X440566Y57170D01*
X432770Y57170D02*
X432770Y51323D01*
X436668Y53272D01*
X438617Y53272D01*
X440566Y51323D01*
X440566Y47425D01*
X438617Y45476D01*
X434719Y45476D01*
X432770Y47425D01*
X450311Y45476D02*
X450311Y57170D01*
X444464Y51323D01*
X452260Y51323D01*
X417266Y361541D02*
X419215Y363490D01*
X417266Y361541D02*
X417266Y357643D01*
X419215Y355694D01*
X427011Y355694D01*
X428960Y357643D01*
X428960Y361541D01*
X427011Y363490D01*
X419215Y367388D02*
X417266Y369337D01*
X417266Y373235D01*
X419215Y375184D01*
X421164Y375184D01*
X423113Y373235D01*
X423113Y371286D01*
X423113Y373235D02*
X425062Y375184D01*
X427011Y375184D01*
X428960Y373235D01*
X428960Y369337D01*
X427011Y367388D01*
X419215Y379082D02*
X417266Y381031D01*
X417266Y384929D01*
X419215Y386878D01*
X421164Y386878D01*
X423113Y384929D01*
X425062Y386878D01*
X427011Y386878D01*
X428960Y384929D01*
X428960Y381031D01*
X427011Y379082D01*
X425062Y379082D01*
X423113Y381031D01*
X421164Y379082D01*
X419215Y379082D01*
X423113Y381031D02*
X423113Y384929D01*
X257696Y379450D02*
X257696Y367756D01*
X257696Y379450D02*
X263543Y379450D01*
X265492Y377501D01*
X265492Y373603D01*
X263543Y371654D01*
X257696Y371654D01*
X261594Y371654D02*
X265492Y367756D01*
X269390Y367756D02*
X277186Y367756D01*
X269390Y367756D02*
X277186Y375552D01*
X277186Y377501D01*
X275237Y379450D01*
X271339Y379450D01*
X269390Y377501D01*
X281084Y377501D02*
X283033Y379450D01*
X286931Y379450D01*
X288880Y377501D01*
X288880Y375552D01*
X286931Y373603D01*
X284982Y373603D01*
X286931Y373603D02*
X288880Y371654D01*
X288880Y369705D01*
X286931Y367756D01*
X283033Y367756D01*
X281084Y369705D01*
X249280Y319916D02*
X237586Y319916D01*
X237586Y325763D01*
X239535Y327712D01*
X243433Y327712D01*
X245382Y325763D01*
X245382Y319916D01*
X245382Y323814D02*
X249280Y327712D01*
X241484Y331610D02*
X237586Y335508D01*
X249280Y335508D01*
X249280Y331610D02*
X249280Y339406D01*
X239535Y343304D02*
X237586Y345253D01*
X237586Y349151D01*
X239535Y351100D01*
X241484Y351100D01*
X243433Y349151D01*
X243433Y347202D01*
X243433Y349151D02*
X245382Y351100D01*
X247331Y351100D01*
X249280Y349151D01*
X249280Y345253D01*
X247331Y343304D01*
X284298Y249622D02*
X284298Y237928D01*
X284298Y249622D02*
X290145Y249622D01*
X292094Y247673D01*
X292094Y243775D01*
X290145Y241826D01*
X284298Y241826D01*
X288196Y241826D02*
X292094Y237928D01*
X295992Y237928D02*
X303788Y237928D01*
X295992Y237928D02*
X303788Y245724D01*
X303788Y247673D01*
X301839Y249622D01*
X297941Y249622D01*
X295992Y247673D01*
X307686Y249622D02*
X315482Y249622D01*
X307686Y249622D02*
X307686Y243775D01*
X311584Y245724D01*
X313533Y245724D01*
X315482Y243775D01*
X315482Y239877D01*
X313533Y237928D01*
X309635Y237928D01*
X307686Y239877D01*
X233674Y283436D02*
X233674Y295130D01*
X239521Y295130D01*
X241470Y293181D01*
X241470Y289283D01*
X239521Y287334D01*
X233674Y287334D01*
X237572Y287334D02*
X241470Y283436D01*
X245368Y283436D02*
X253164Y283436D01*
X245368Y283436D02*
X253164Y291232D01*
X253164Y293181D01*
X251215Y295130D01*
X247317Y295130D01*
X245368Y293181D01*
X257062Y295130D02*
X264858Y295130D01*
X264858Y293181D01*
X257062Y285385D01*
X257062Y283436D01*
X276256Y265610D02*
X276256Y253916D01*
X276256Y265610D02*
X282103Y265610D01*
X284052Y263661D01*
X284052Y259763D01*
X282103Y257814D01*
X276256Y257814D01*
X280154Y257814D02*
X284052Y253916D01*
X287950Y253916D02*
X295746Y253916D01*
X287950Y253916D02*
X295746Y261712D01*
X295746Y263661D01*
X293797Y265610D01*
X289899Y265610D01*
X287950Y263661D01*
X299644Y263661D02*
X301593Y265610D01*
X305491Y265610D01*
X307440Y263661D01*
X307440Y261712D01*
X305491Y259763D01*
X307440Y257814D01*
X307440Y255865D01*
X305491Y253916D01*
X301593Y253916D01*
X299644Y255865D01*
X299644Y257814D01*
X301593Y259763D01*
X299644Y261712D01*
X299644Y263661D01*
X301593Y259763D02*
X305491Y259763D01*
X324138Y302170D02*
X335832Y302170D01*
X324138Y302170D02*
X324138Y308017D01*
X326087Y309966D01*
X329985Y309966D01*
X331934Y308017D01*
X331934Y302170D01*
X331934Y306068D02*
X335832Y309966D01*
X326087Y313864D02*
X324138Y315813D01*
X324138Y319711D01*
X326087Y321660D01*
X328036Y321660D01*
X329985Y319711D01*
X329985Y317762D01*
X329985Y319711D02*
X331934Y321660D01*
X333883Y321660D01*
X335832Y319711D01*
X335832Y315813D01*
X333883Y313864D01*
X335832Y331405D02*
X324138Y331405D01*
X329985Y325558D01*
X329985Y333354D01*
X304080Y353356D02*
X292386Y353356D01*
X292386Y359203D01*
X294335Y361152D01*
X298233Y361152D01*
X300182Y359203D01*
X300182Y353356D01*
X300182Y357254D02*
X304080Y361152D01*
X294335Y365050D02*
X292386Y366999D01*
X292386Y370897D01*
X294335Y372846D01*
X296284Y372846D01*
X298233Y370897D01*
X298233Y368948D01*
X298233Y370897D02*
X300182Y372846D01*
X302131Y372846D01*
X304080Y370897D01*
X304080Y366999D01*
X302131Y365050D01*
X294335Y376744D02*
X292386Y378693D01*
X292386Y382591D01*
X294335Y384540D01*
X296284Y384540D01*
X298233Y382591D01*
X298233Y380642D01*
X298233Y382591D02*
X300182Y384540D01*
X302131Y384540D01*
X304080Y382591D01*
X304080Y378693D01*
X302131Y376744D01*
X355668Y365626D02*
X355668Y353932D01*
X355668Y365626D02*
X361515Y365626D01*
X363464Y363677D01*
X363464Y359779D01*
X361515Y357830D01*
X355668Y357830D01*
X359566Y357830D02*
X363464Y353932D01*
X367362Y363677D02*
X369311Y365626D01*
X373209Y365626D01*
X375158Y363677D01*
X375158Y361728D01*
X373209Y359779D01*
X371260Y359779D01*
X373209Y359779D02*
X375158Y357830D01*
X375158Y355881D01*
X373209Y353932D01*
X369311Y353932D01*
X367362Y355881D01*
X379056Y365626D02*
X386852Y365626D01*
X379056Y365626D02*
X379056Y359779D01*
X382954Y361728D01*
X384903Y361728D01*
X386852Y359779D01*
X386852Y355881D01*
X384903Y353932D01*
X381005Y353932D01*
X379056Y355881D01*
X345724Y372502D02*
X334030Y372502D01*
X334030Y378349D01*
X335979Y380298D01*
X339877Y380298D01*
X341826Y378349D01*
X341826Y372502D01*
X341826Y376400D02*
X345724Y380298D01*
X335979Y384196D02*
X334030Y386145D01*
X334030Y390043D01*
X335979Y391992D01*
X337928Y391992D01*
X339877Y390043D01*
X339877Y388094D01*
X339877Y390043D02*
X341826Y391992D01*
X343775Y391992D01*
X345724Y390043D01*
X345724Y386145D01*
X343775Y384196D01*
X335979Y399788D02*
X334030Y403686D01*
X335979Y399788D02*
X339877Y395890D01*
X343775Y395890D01*
X345724Y397839D01*
X345724Y401737D01*
X343775Y403686D01*
X341826Y403686D01*
X339877Y401737D01*
X339877Y395890D01*
X249384Y213072D02*
X237690Y213072D01*
X237690Y218919D01*
X239639Y220868D01*
X243537Y220868D01*
X245486Y218919D01*
X245486Y213072D01*
X245486Y216970D02*
X249384Y220868D01*
X249384Y224766D02*
X249384Y232562D01*
X249384Y224766D02*
X241588Y232562D01*
X239639Y232562D01*
X237690Y230613D01*
X237690Y226715D01*
X239639Y224766D01*
X247435Y236460D02*
X249384Y238409D01*
X249384Y242307D01*
X247435Y244256D01*
X239639Y244256D01*
X237690Y242307D01*
X237690Y238409D01*
X239639Y236460D01*
X241588Y236460D01*
X243537Y238409D01*
X243537Y244256D01*
X351486Y290574D02*
X363180Y290574D01*
X351486Y290574D02*
X351486Y296421D01*
X353435Y298370D01*
X357333Y298370D01*
X359282Y296421D01*
X359282Y290574D01*
X359282Y294472D02*
X363180Y298370D01*
X353435Y302268D02*
X351486Y304217D01*
X351486Y308115D01*
X353435Y310064D01*
X355384Y310064D01*
X357333Y308115D01*
X357333Y306166D01*
X357333Y308115D02*
X359282Y310064D01*
X361231Y310064D01*
X363180Y308115D01*
X363180Y304217D01*
X361231Y302268D01*
X353435Y313962D02*
X351486Y315911D01*
X351486Y319809D01*
X353435Y321758D01*
X355384Y321758D01*
X357333Y319809D01*
X359282Y321758D01*
X361231Y321758D01*
X363180Y319809D01*
X363180Y315911D01*
X361231Y313962D01*
X359282Y313962D01*
X357333Y315911D01*
X355384Y313962D01*
X353435Y313962D01*
X357333Y315911D02*
X357333Y319809D01*
X453634Y291074D02*
X465328Y291074D01*
X453634Y291074D02*
X453634Y296921D01*
X455583Y298870D01*
X459481Y298870D01*
X461430Y296921D01*
X461430Y291074D01*
X461430Y294972D02*
X465328Y298870D01*
X455583Y302768D02*
X453634Y304717D01*
X453634Y308615D01*
X455583Y310564D01*
X457532Y310564D01*
X459481Y308615D01*
X459481Y306666D01*
X459481Y308615D02*
X461430Y310564D01*
X463379Y310564D01*
X465328Y308615D01*
X465328Y304717D01*
X463379Y302768D01*
X453634Y314462D02*
X453634Y322258D01*
X455583Y322258D01*
X463379Y314462D01*
X465328Y314462D01*
X342884Y274062D02*
X342884Y262368D01*
X342884Y274062D02*
X348731Y274062D01*
X350680Y272113D01*
X350680Y268215D01*
X348731Y266266D01*
X342884Y266266D01*
X346782Y266266D02*
X350680Y262368D01*
X360425Y262368D02*
X360425Y274062D01*
X354578Y268215D01*
X362374Y268215D01*
X366272Y264317D02*
X366272Y272113D01*
X368221Y274062D01*
X372119Y274062D01*
X374068Y272113D01*
X374068Y264317D01*
X372119Y262368D01*
X368221Y262368D01*
X366272Y264317D01*
X374068Y272113D01*
X346580Y42836D02*
X334886Y42836D01*
X334886Y48683D01*
X336835Y50632D01*
X340733Y50632D01*
X342682Y48683D01*
X342682Y42836D01*
X342682Y46734D02*
X346580Y50632D01*
X346580Y60377D02*
X334886Y60377D01*
X340733Y54530D01*
X340733Y62326D01*
X334886Y66224D02*
X334886Y74020D01*
X334886Y66224D02*
X340733Y66224D01*
X338784Y70122D01*
X338784Y72071D01*
X340733Y74020D01*
X344631Y74020D01*
X346580Y72071D01*
X346580Y68173D01*
X344631Y66224D01*
X340728Y159750D02*
X329034Y159750D01*
X329034Y165597D01*
X330983Y167546D01*
X334881Y167546D01*
X336830Y165597D01*
X336830Y159750D01*
X336830Y163648D02*
X340728Y167546D01*
X340728Y177291D02*
X329034Y177291D01*
X334881Y171444D01*
X334881Y179240D01*
X338779Y183138D02*
X340728Y185087D01*
X340728Y188985D01*
X338779Y190934D01*
X330983Y190934D01*
X329034Y188985D01*
X329034Y185087D01*
X330983Y183138D01*
X332932Y183138D01*
X334881Y185087D01*
X334881Y190934D01*
X339636Y514D02*
X327942Y514D01*
X327942Y6361D01*
X329891Y8310D01*
X333789Y8310D01*
X335738Y6361D01*
X335738Y514D01*
X335738Y4412D02*
X339636Y8310D01*
X339636Y18055D02*
X327942Y18055D01*
X333789Y12208D01*
X333789Y20004D01*
X329891Y27800D02*
X327942Y31698D01*
X329891Y27800D02*
X333789Y23902D01*
X337687Y23902D01*
X339636Y25851D01*
X339636Y29749D01*
X337687Y31698D01*
X335738Y31698D01*
X333789Y29749D01*
X333789Y23902D01*
D12*
X295777Y5719D02*
X286371Y5719D01*
X286371Y10422D01*
X287939Y11990D01*
X291074Y11990D01*
X292642Y10422D01*
X292642Y5719D01*
X292642Y8854D02*
X295777Y11990D01*
X295777Y19777D02*
X286371Y19777D01*
X291074Y15074D01*
X291074Y21345D01*
X286371Y24429D02*
X286371Y30700D01*
X287939Y30700D01*
X294209Y24429D01*
X295777Y24429D01*
D11*
X311410Y179584D02*
X323104Y179584D01*
X311410Y179584D02*
X311410Y185431D01*
X313359Y187380D01*
X317257Y187380D01*
X319206Y185431D01*
X319206Y179584D01*
X319206Y183482D02*
X323104Y187380D01*
X311410Y191278D02*
X311410Y199074D01*
X311410Y191278D02*
X317257Y191278D01*
X315308Y195176D01*
X315308Y197125D01*
X317257Y199074D01*
X321155Y199074D01*
X323104Y197125D01*
X323104Y193227D01*
X321155Y191278D01*
X321155Y202972D02*
X313359Y202972D01*
X311410Y204921D01*
X311410Y208819D01*
X313359Y210768D01*
X321155Y210768D01*
X323104Y208819D01*
X323104Y204921D01*
X321155Y202972D01*
X313359Y210768D01*
X297736Y180838D02*
X286042Y180838D01*
X286042Y186685D01*
X287991Y188634D01*
X291889Y188634D01*
X293838Y186685D01*
X293838Y180838D01*
X293838Y184736D02*
X297736Y188634D01*
X286042Y192532D02*
X286042Y200328D01*
X286042Y192532D02*
X291889Y192532D01*
X289940Y196430D01*
X289940Y198379D01*
X291889Y200328D01*
X295787Y200328D01*
X297736Y198379D01*
X297736Y194481D01*
X295787Y192532D01*
X289940Y204226D02*
X286042Y208124D01*
X297736Y208124D01*
X297736Y204226D02*
X297736Y212022D01*
D12*
X304037Y9729D02*
X313443Y9729D01*
X304037Y9729D02*
X304037Y14432D01*
X305605Y16000D01*
X308740Y16000D01*
X310308Y14432D01*
X310308Y9729D01*
X310308Y12865D02*
X313443Y16000D01*
X313443Y23788D02*
X304037Y23788D01*
X308740Y19085D01*
X308740Y25355D01*
X313443Y33143D02*
X304037Y33143D01*
X308740Y28440D01*
X308740Y34711D01*
D11*
X295234Y149248D02*
X295234Y160942D01*
X301081Y160942D01*
X303030Y158993D01*
X303030Y155095D01*
X301081Y153146D01*
X295234Y153146D01*
X299132Y153146D02*
X303030Y149248D01*
X312775Y149248D02*
X312775Y160942D01*
X306928Y155095D01*
X314724Y155095D01*
X318622Y158993D02*
X320571Y160942D01*
X324469Y160942D01*
X326418Y158993D01*
X326418Y157044D01*
X324469Y155095D01*
X326418Y153146D01*
X326418Y151197D01*
X324469Y149248D01*
X320571Y149248D01*
X318622Y151197D01*
X318622Y153146D01*
X320571Y155095D01*
X318622Y157044D01*
X318622Y158993D01*
X320571Y155095D02*
X324469Y155095D01*
X378580Y91150D02*
X378580Y87252D01*
X378580Y89201D02*
X366886Y89201D01*
X366886Y87252D02*
X366886Y91150D01*
X366886Y100895D02*
X368835Y102844D01*
X366886Y100895D02*
X366886Y96997D01*
X368835Y95048D01*
X376631Y95048D01*
X378580Y96997D01*
X378580Y100895D01*
X376631Y102844D01*
X378580Y106742D02*
X378580Y114538D01*
X378580Y106742D02*
X370784Y114538D01*
X368835Y114538D01*
X366886Y112589D01*
X366886Y108691D01*
X368835Y106742D01*
X438580Y93590D02*
X438580Y89692D01*
X438580Y91641D02*
X426886Y91641D01*
X426886Y89692D02*
X426886Y93590D01*
X426886Y103335D02*
X428835Y105284D01*
X426886Y103335D02*
X426886Y99437D01*
X428835Y97488D01*
X436631Y97488D01*
X438580Y99437D01*
X438580Y103335D01*
X436631Y105284D01*
X430784Y109182D02*
X426886Y113080D01*
X438580Y113080D01*
X438580Y109182D02*
X438580Y116978D01*
D10*
X457088Y394298D02*
X469788Y394298D01*
X457088Y394298D02*
X450738Y400648D01*
X450738Y413348D02*
X457088Y419698D01*
X450738Y400648D02*
X444388Y394298D01*
X431688Y394298D01*
X425338Y400648D01*
X425338Y413348D02*
X431688Y419698D01*
X444388Y419698D01*
X450738Y413348D01*
X476138Y413348D02*
X476138Y400648D01*
X469788Y394298D01*
X476138Y413348D02*
X469788Y419698D01*
X457088Y419698D01*
X425338Y400648D02*
X418988Y394298D01*
X406288Y394298D01*
X399938Y400648D01*
X399938Y413348D02*
X406288Y419698D01*
X418988Y419698D01*
X425338Y413348D01*
X393588Y394298D02*
X380888Y394298D01*
X374538Y400648D01*
X374538Y413348D02*
X380888Y419698D01*
X374538Y400648D02*
X368188Y394298D01*
X355488Y394298D01*
X349138Y400648D01*
X349138Y413348D01*
X355488Y419698D01*
X368188Y419698D01*
X374538Y413348D01*
X393588Y394298D02*
X399938Y400648D01*
X399938Y413348D02*
X393588Y419698D01*
X380888Y419698D01*
D13*
X458729Y431770D02*
X462542Y435583D01*
X462542Y424143D01*
X458729Y424143D02*
X466356Y424143D01*
X364756Y389863D02*
X357129Y389863D01*
X357129Y384143D01*
X360942Y386050D01*
X362849Y386050D01*
X364756Y384143D01*
X364756Y380330D01*
X362849Y378423D01*
X359036Y378423D01*
X357129Y380330D01*
X447411Y386815D02*
X449318Y384908D01*
X447411Y386815D02*
X443598Y386815D01*
X441691Y384908D01*
X441691Y383002D01*
X443598Y381095D01*
X447411Y381095D01*
X449318Y379188D01*
X449318Y377282D01*
X447411Y375375D01*
X443598Y375375D01*
X441691Y377282D01*
X453385Y379188D02*
X453385Y386815D01*
X453385Y379188D02*
X457198Y375375D01*
X461012Y379188D01*
X461012Y386815D01*
X465079Y383002D02*
X468892Y386815D01*
X468892Y375375D01*
X465079Y375375D02*
X472705Y375375D01*
D10*
X92888Y62198D02*
X80188Y62198D01*
X92888Y62198D02*
X99238Y55848D01*
X99238Y43148D02*
X92888Y36798D01*
X99238Y55848D02*
X105588Y62198D01*
X118288Y62198D01*
X124638Y55848D01*
X124638Y43148D02*
X118288Y36798D01*
X105588Y36798D01*
X99238Y43148D01*
X73838Y43148D02*
X73838Y55848D01*
X80188Y62198D01*
X73838Y43148D02*
X80188Y36798D01*
X92888Y36798D01*
X124638Y55848D02*
X130988Y62198D01*
X143688Y62198D01*
X150038Y55848D01*
X150038Y43148D02*
X143688Y36798D01*
X130988Y36798D01*
X124638Y43148D01*
X156388Y62198D02*
X169088Y62198D01*
X175438Y55848D01*
X175438Y43148D02*
X169088Y36798D01*
X175438Y55848D02*
X181788Y62198D01*
X194488Y62198D01*
X200838Y55848D01*
X200838Y43148D02*
X194488Y36798D01*
X181788Y36798D01*
X175438Y43148D01*
X156388Y62198D02*
X150038Y55848D01*
X150038Y43148D02*
X156388Y36798D01*
X169088Y36798D01*
X200838Y55848D02*
X207188Y62198D01*
X219888Y62198D01*
X226238Y55848D01*
X226238Y43148D02*
X219888Y36798D01*
X207188Y36798D01*
X200838Y43148D01*
X226238Y43148D02*
X226238Y55848D01*
D13*
X84636Y32363D02*
X80823Y28550D01*
X84636Y32363D02*
X84636Y20923D01*
X80823Y20923D02*
X88450Y20923D01*
X211636Y76176D02*
X215450Y78083D01*
X211636Y76176D02*
X207823Y72363D01*
X207823Y68550D01*
X209730Y66643D01*
X213543Y66643D01*
X215450Y68550D01*
X215450Y70456D01*
X213543Y72363D01*
X207823Y72363D01*
X88450Y76176D02*
X86543Y78083D01*
X82730Y78083D01*
X80823Y76176D01*
X80823Y74270D01*
X82730Y72363D01*
X86543Y72363D01*
X88450Y70456D01*
X88450Y68550D01*
X86543Y66643D01*
X82730Y66643D01*
X80823Y68550D01*
X92517Y70456D02*
X92517Y78083D01*
X92517Y70456D02*
X96330Y66643D01*
X100143Y70456D01*
X100143Y78083D01*
X104211Y66643D02*
X111837Y66643D01*
X104211Y66643D02*
X111837Y74270D01*
X111837Y76176D01*
X109931Y78083D01*
X106118Y78083D01*
X104211Y76176D01*
D10*
X185552Y287430D02*
X235844Y287430D01*
X235844Y329086D01*
X185552Y329086D01*
X185552Y287430D01*
D14*
X187838Y289716D02*
X233558Y289716D01*
X233558Y326800D01*
X187838Y326800D01*
X187838Y289716D01*
D10*
X189870Y296066D02*
X189872Y296201D01*
X189878Y296336D01*
X189888Y296470D01*
X189902Y296604D01*
X189920Y296738D01*
X189941Y296871D01*
X189967Y297003D01*
X189997Y297135D01*
X190030Y297266D01*
X190067Y297395D01*
X190109Y297524D01*
X190153Y297651D01*
X190202Y297777D01*
X190254Y297901D01*
X190310Y298024D01*
X190370Y298145D01*
X190433Y298264D01*
X190499Y298381D01*
X190569Y298496D01*
X190643Y298610D01*
X190720Y298721D01*
X190799Y298829D01*
X190883Y298935D01*
X190969Y299039D01*
X191058Y299140D01*
X191150Y299239D01*
X191245Y299334D01*
X191343Y299427D01*
X191443Y299517D01*
X191546Y299604D01*
X191652Y299688D01*
X191760Y299769D01*
X191870Y299846D01*
X191983Y299920D01*
X192098Y299991D01*
X192215Y300059D01*
X192333Y300123D01*
X192454Y300183D01*
X192576Y300240D01*
X192700Y300293D01*
X192826Y300343D01*
X192952Y300389D01*
X193081Y300431D01*
X193210Y300469D01*
X193340Y300503D01*
X193472Y300534D01*
X193604Y300561D01*
X193737Y300583D01*
X193870Y300602D01*
X194004Y300617D01*
X194139Y300628D01*
X194273Y300635D01*
X194408Y300638D01*
X194543Y300637D01*
X194678Y300632D01*
X194812Y300623D01*
X194947Y300610D01*
X195081Y300593D01*
X195214Y300572D01*
X195346Y300548D01*
X195478Y300519D01*
X195609Y300487D01*
X195739Y300450D01*
X195868Y300410D01*
X195995Y300366D01*
X196121Y300318D01*
X196246Y300267D01*
X196369Y300212D01*
X196491Y300153D01*
X196610Y300091D01*
X196728Y300025D01*
X196844Y299956D01*
X196957Y299884D01*
X197069Y299808D01*
X197178Y299729D01*
X197285Y299647D01*
X197389Y299561D01*
X197491Y299473D01*
X197590Y299381D01*
X197687Y299287D01*
X197780Y299190D01*
X197871Y299090D01*
X197959Y298988D01*
X198043Y298883D01*
X198125Y298775D01*
X198203Y298665D01*
X198278Y298553D01*
X198350Y298439D01*
X198418Y298323D01*
X198483Y298204D01*
X198544Y298084D01*
X198602Y297962D01*
X198656Y297839D01*
X198707Y297714D01*
X198753Y297587D01*
X198796Y297460D01*
X198836Y297331D01*
X198871Y297200D01*
X198903Y297069D01*
X198930Y296937D01*
X198954Y296805D01*
X198974Y296671D01*
X198990Y296537D01*
X199002Y296403D01*
X199010Y296268D01*
X199014Y296133D01*
X199014Y295999D01*
X199010Y295864D01*
X199002Y295729D01*
X198990Y295595D01*
X198974Y295461D01*
X198954Y295327D01*
X198930Y295195D01*
X198903Y295063D01*
X198871Y294932D01*
X198836Y294801D01*
X198796Y294672D01*
X198753Y294545D01*
X198707Y294418D01*
X198656Y294293D01*
X198602Y294170D01*
X198544Y294048D01*
X198483Y293928D01*
X198418Y293809D01*
X198350Y293693D01*
X198278Y293579D01*
X198203Y293467D01*
X198125Y293357D01*
X198043Y293249D01*
X197959Y293144D01*
X197871Y293042D01*
X197780Y292942D01*
X197687Y292845D01*
X197590Y292751D01*
X197491Y292659D01*
X197389Y292571D01*
X197285Y292485D01*
X197178Y292403D01*
X197069Y292324D01*
X196957Y292248D01*
X196844Y292176D01*
X196728Y292107D01*
X196610Y292041D01*
X196491Y291979D01*
X196369Y291920D01*
X196246Y291865D01*
X196121Y291814D01*
X195995Y291766D01*
X195868Y291722D01*
X195739Y291682D01*
X195609Y291645D01*
X195478Y291613D01*
X195346Y291584D01*
X195214Y291560D01*
X195081Y291539D01*
X194947Y291522D01*
X194812Y291509D01*
X194678Y291500D01*
X194543Y291495D01*
X194408Y291494D01*
X194273Y291497D01*
X194139Y291504D01*
X194004Y291515D01*
X193870Y291530D01*
X193737Y291549D01*
X193604Y291571D01*
X193472Y291598D01*
X193340Y291629D01*
X193210Y291663D01*
X193081Y291701D01*
X192952Y291743D01*
X192826Y291789D01*
X192700Y291839D01*
X192576Y291892D01*
X192454Y291949D01*
X192333Y292009D01*
X192215Y292073D01*
X192098Y292141D01*
X191983Y292212D01*
X191870Y292286D01*
X191760Y292363D01*
X191652Y292444D01*
X191546Y292528D01*
X191443Y292615D01*
X191343Y292705D01*
X191245Y292798D01*
X191150Y292893D01*
X191058Y292992D01*
X190969Y293093D01*
X190883Y293197D01*
X190799Y293303D01*
X190720Y293411D01*
X190643Y293522D01*
X190569Y293636D01*
X190499Y293751D01*
X190433Y293868D01*
X190370Y293987D01*
X190310Y294108D01*
X190254Y294231D01*
X190202Y294355D01*
X190153Y294481D01*
X190109Y294608D01*
X190067Y294737D01*
X190030Y294866D01*
X189997Y294997D01*
X189967Y295129D01*
X189941Y295261D01*
X189920Y295394D01*
X189902Y295528D01*
X189888Y295662D01*
X189878Y295796D01*
X189872Y295931D01*
X189870Y296066D01*
D11*
X212984Y300638D02*
X212984Y303689D01*
X212984Y302163D02*
X203832Y302163D01*
X203832Y300638D02*
X203832Y303689D01*
X203832Y311451D02*
X205358Y312976D01*
X203832Y311451D02*
X203832Y308400D01*
X205358Y306875D01*
X211459Y306875D01*
X212984Y308400D01*
X212984Y311451D01*
X211459Y312976D01*
X205358Y319281D02*
X203832Y322331D01*
X205358Y319281D02*
X208408Y316230D01*
X211459Y316230D01*
X212984Y317755D01*
X212984Y320806D01*
X211459Y322331D01*
X209933Y322331D01*
X208408Y320806D01*
X208408Y316230D01*
D10*
X268292Y287570D02*
X318584Y287570D01*
X318584Y329226D01*
X268292Y329226D01*
X268292Y287570D01*
D14*
X270578Y289856D02*
X316298Y289856D01*
X316298Y326940D01*
X270578Y326940D01*
X270578Y289856D01*
D10*
X272610Y296206D02*
X272612Y296341D01*
X272618Y296476D01*
X272628Y296610D01*
X272642Y296744D01*
X272660Y296878D01*
X272681Y297011D01*
X272707Y297143D01*
X272737Y297275D01*
X272770Y297406D01*
X272807Y297535D01*
X272849Y297664D01*
X272893Y297791D01*
X272942Y297917D01*
X272994Y298041D01*
X273050Y298164D01*
X273110Y298285D01*
X273173Y298404D01*
X273239Y298521D01*
X273309Y298636D01*
X273383Y298750D01*
X273460Y298861D01*
X273539Y298969D01*
X273623Y299075D01*
X273709Y299179D01*
X273798Y299280D01*
X273890Y299379D01*
X273985Y299474D01*
X274083Y299567D01*
X274183Y299657D01*
X274286Y299744D01*
X274392Y299828D01*
X274500Y299909D01*
X274610Y299986D01*
X274723Y300060D01*
X274838Y300131D01*
X274955Y300199D01*
X275073Y300263D01*
X275194Y300323D01*
X275316Y300380D01*
X275440Y300433D01*
X275566Y300483D01*
X275692Y300529D01*
X275821Y300571D01*
X275950Y300609D01*
X276080Y300643D01*
X276212Y300674D01*
X276344Y300701D01*
X276477Y300723D01*
X276610Y300742D01*
X276744Y300757D01*
X276879Y300768D01*
X277013Y300775D01*
X277148Y300778D01*
X277283Y300777D01*
X277418Y300772D01*
X277552Y300763D01*
X277687Y300750D01*
X277821Y300733D01*
X277954Y300712D01*
X278086Y300688D01*
X278218Y300659D01*
X278349Y300627D01*
X278479Y300590D01*
X278608Y300550D01*
X278735Y300506D01*
X278861Y300458D01*
X278986Y300407D01*
X279109Y300352D01*
X279231Y300293D01*
X279350Y300231D01*
X279468Y300165D01*
X279584Y300096D01*
X279697Y300024D01*
X279809Y299948D01*
X279918Y299869D01*
X280025Y299787D01*
X280129Y299701D01*
X280231Y299613D01*
X280330Y299521D01*
X280427Y299427D01*
X280520Y299330D01*
X280611Y299230D01*
X280699Y299128D01*
X280783Y299023D01*
X280865Y298915D01*
X280943Y298805D01*
X281018Y298693D01*
X281090Y298579D01*
X281158Y298463D01*
X281223Y298344D01*
X281284Y298224D01*
X281342Y298102D01*
X281396Y297979D01*
X281447Y297854D01*
X281493Y297727D01*
X281536Y297600D01*
X281576Y297471D01*
X281611Y297340D01*
X281643Y297209D01*
X281670Y297077D01*
X281694Y296945D01*
X281714Y296811D01*
X281730Y296677D01*
X281742Y296543D01*
X281750Y296408D01*
X281754Y296273D01*
X281754Y296139D01*
X281750Y296004D01*
X281742Y295869D01*
X281730Y295735D01*
X281714Y295601D01*
X281694Y295467D01*
X281670Y295335D01*
X281643Y295203D01*
X281611Y295072D01*
X281576Y294941D01*
X281536Y294812D01*
X281493Y294685D01*
X281447Y294558D01*
X281396Y294433D01*
X281342Y294310D01*
X281284Y294188D01*
X281223Y294068D01*
X281158Y293949D01*
X281090Y293833D01*
X281018Y293719D01*
X280943Y293607D01*
X280865Y293497D01*
X280783Y293389D01*
X280699Y293284D01*
X280611Y293182D01*
X280520Y293082D01*
X280427Y292985D01*
X280330Y292891D01*
X280231Y292799D01*
X280129Y292711D01*
X280025Y292625D01*
X279918Y292543D01*
X279809Y292464D01*
X279697Y292388D01*
X279584Y292316D01*
X279468Y292247D01*
X279350Y292181D01*
X279231Y292119D01*
X279109Y292060D01*
X278986Y292005D01*
X278861Y291954D01*
X278735Y291906D01*
X278608Y291862D01*
X278479Y291822D01*
X278349Y291785D01*
X278218Y291753D01*
X278086Y291724D01*
X277954Y291700D01*
X277821Y291679D01*
X277687Y291662D01*
X277552Y291649D01*
X277418Y291640D01*
X277283Y291635D01*
X277148Y291634D01*
X277013Y291637D01*
X276879Y291644D01*
X276744Y291655D01*
X276610Y291670D01*
X276477Y291689D01*
X276344Y291711D01*
X276212Y291738D01*
X276080Y291769D01*
X275950Y291803D01*
X275821Y291841D01*
X275692Y291883D01*
X275566Y291929D01*
X275440Y291979D01*
X275316Y292032D01*
X275194Y292089D01*
X275073Y292149D01*
X274955Y292213D01*
X274838Y292281D01*
X274723Y292352D01*
X274610Y292426D01*
X274500Y292503D01*
X274392Y292584D01*
X274286Y292668D01*
X274183Y292755D01*
X274083Y292845D01*
X273985Y292938D01*
X273890Y293033D01*
X273798Y293132D01*
X273709Y293233D01*
X273623Y293337D01*
X273539Y293443D01*
X273460Y293551D01*
X273383Y293662D01*
X273309Y293776D01*
X273239Y293891D01*
X273173Y294008D01*
X273110Y294127D01*
X273050Y294248D01*
X272994Y294371D01*
X272942Y294495D01*
X272893Y294621D01*
X272849Y294748D01*
X272807Y294877D01*
X272770Y295006D01*
X272737Y295137D01*
X272707Y295269D01*
X272681Y295401D01*
X272660Y295534D01*
X272642Y295668D01*
X272628Y295802D01*
X272618Y295936D01*
X272612Y296071D01*
X272610Y296206D01*
D11*
X298264Y300778D02*
X298264Y303829D01*
X298264Y302303D02*
X289112Y302303D01*
X289112Y300778D02*
X289112Y303829D01*
X289112Y311591D02*
X290638Y313116D01*
X289112Y311591D02*
X289112Y308540D01*
X290638Y307015D01*
X296739Y307015D01*
X298264Y308540D01*
X298264Y311591D01*
X296739Y313116D01*
X289112Y316370D02*
X289112Y322471D01*
X290638Y322471D01*
X296739Y316370D01*
X298264Y316370D01*
D10*
X384292Y287570D02*
X434584Y287570D01*
X434584Y329226D01*
X384292Y329226D01*
X384292Y287570D01*
D14*
X386578Y289856D02*
X432298Y289856D01*
X432298Y326940D01*
X386578Y326940D01*
X386578Y289856D01*
D10*
X388610Y296206D02*
X388612Y296341D01*
X388618Y296476D01*
X388628Y296610D01*
X388642Y296744D01*
X388660Y296878D01*
X388681Y297011D01*
X388707Y297143D01*
X388737Y297275D01*
X388770Y297406D01*
X388807Y297535D01*
X388849Y297664D01*
X388893Y297791D01*
X388942Y297917D01*
X388994Y298041D01*
X389050Y298164D01*
X389110Y298285D01*
X389173Y298404D01*
X389239Y298521D01*
X389309Y298636D01*
X389383Y298750D01*
X389460Y298861D01*
X389539Y298969D01*
X389623Y299075D01*
X389709Y299179D01*
X389798Y299280D01*
X389890Y299379D01*
X389985Y299474D01*
X390083Y299567D01*
X390183Y299657D01*
X390286Y299744D01*
X390392Y299828D01*
X390500Y299909D01*
X390610Y299986D01*
X390723Y300060D01*
X390838Y300131D01*
X390955Y300199D01*
X391073Y300263D01*
X391194Y300323D01*
X391316Y300380D01*
X391440Y300433D01*
X391566Y300483D01*
X391692Y300529D01*
X391821Y300571D01*
X391950Y300609D01*
X392080Y300643D01*
X392212Y300674D01*
X392344Y300701D01*
X392477Y300723D01*
X392610Y300742D01*
X392744Y300757D01*
X392879Y300768D01*
X393013Y300775D01*
X393148Y300778D01*
X393283Y300777D01*
X393418Y300772D01*
X393552Y300763D01*
X393687Y300750D01*
X393821Y300733D01*
X393954Y300712D01*
X394086Y300688D01*
X394218Y300659D01*
X394349Y300627D01*
X394479Y300590D01*
X394608Y300550D01*
X394735Y300506D01*
X394861Y300458D01*
X394986Y300407D01*
X395109Y300352D01*
X395231Y300293D01*
X395350Y300231D01*
X395468Y300165D01*
X395584Y300096D01*
X395697Y300024D01*
X395809Y299948D01*
X395918Y299869D01*
X396025Y299787D01*
X396129Y299701D01*
X396231Y299613D01*
X396330Y299521D01*
X396427Y299427D01*
X396520Y299330D01*
X396611Y299230D01*
X396699Y299128D01*
X396783Y299023D01*
X396865Y298915D01*
X396943Y298805D01*
X397018Y298693D01*
X397090Y298579D01*
X397158Y298463D01*
X397223Y298344D01*
X397284Y298224D01*
X397342Y298102D01*
X397396Y297979D01*
X397447Y297854D01*
X397493Y297727D01*
X397536Y297600D01*
X397576Y297471D01*
X397611Y297340D01*
X397643Y297209D01*
X397670Y297077D01*
X397694Y296945D01*
X397714Y296811D01*
X397730Y296677D01*
X397742Y296543D01*
X397750Y296408D01*
X397754Y296273D01*
X397754Y296139D01*
X397750Y296004D01*
X397742Y295869D01*
X397730Y295735D01*
X397714Y295601D01*
X397694Y295467D01*
X397670Y295335D01*
X397643Y295203D01*
X397611Y295072D01*
X397576Y294941D01*
X397536Y294812D01*
X397493Y294685D01*
X397447Y294558D01*
X397396Y294433D01*
X397342Y294310D01*
X397284Y294188D01*
X397223Y294068D01*
X397158Y293949D01*
X397090Y293833D01*
X397018Y293719D01*
X396943Y293607D01*
X396865Y293497D01*
X396783Y293389D01*
X396699Y293284D01*
X396611Y293182D01*
X396520Y293082D01*
X396427Y292985D01*
X396330Y292891D01*
X396231Y292799D01*
X396129Y292711D01*
X396025Y292625D01*
X395918Y292543D01*
X395809Y292464D01*
X395697Y292388D01*
X395584Y292316D01*
X395468Y292247D01*
X395350Y292181D01*
X395231Y292119D01*
X395109Y292060D01*
X394986Y292005D01*
X394861Y291954D01*
X394735Y291906D01*
X394608Y291862D01*
X394479Y291822D01*
X394349Y291785D01*
X394218Y291753D01*
X394086Y291724D01*
X393954Y291700D01*
X393821Y291679D01*
X393687Y291662D01*
X393552Y291649D01*
X393418Y291640D01*
X393283Y291635D01*
X393148Y291634D01*
X393013Y291637D01*
X392879Y291644D01*
X392744Y291655D01*
X392610Y291670D01*
X392477Y291689D01*
X392344Y291711D01*
X392212Y291738D01*
X392080Y291769D01*
X391950Y291803D01*
X391821Y291841D01*
X391692Y291883D01*
X391566Y291929D01*
X391440Y291979D01*
X391316Y292032D01*
X391194Y292089D01*
X391073Y292149D01*
X390955Y292213D01*
X390838Y292281D01*
X390723Y292352D01*
X390610Y292426D01*
X390500Y292503D01*
X390392Y292584D01*
X390286Y292668D01*
X390183Y292755D01*
X390083Y292845D01*
X389985Y292938D01*
X389890Y293033D01*
X389798Y293132D01*
X389709Y293233D01*
X389623Y293337D01*
X389539Y293443D01*
X389460Y293551D01*
X389383Y293662D01*
X389309Y293776D01*
X389239Y293891D01*
X389173Y294008D01*
X389110Y294127D01*
X389050Y294248D01*
X388994Y294371D01*
X388942Y294495D01*
X388893Y294621D01*
X388849Y294748D01*
X388807Y294877D01*
X388770Y295006D01*
X388737Y295137D01*
X388707Y295269D01*
X388681Y295401D01*
X388660Y295534D01*
X388642Y295668D01*
X388628Y295802D01*
X388618Y295936D01*
X388612Y296071D01*
X388610Y296206D01*
D11*
X411724Y300778D02*
X411724Y303829D01*
X411724Y302303D02*
X402572Y302303D01*
X402572Y300778D02*
X402572Y303829D01*
X402572Y311591D02*
X404098Y313116D01*
X402572Y311591D02*
X402572Y308540D01*
X404098Y307015D01*
X410199Y307015D01*
X411724Y308540D01*
X411724Y311591D01*
X410199Y313116D01*
X404098Y316370D02*
X402572Y317895D01*
X402572Y320946D01*
X404098Y322471D01*
X405623Y322471D01*
X407148Y320946D01*
X408673Y322471D01*
X410199Y322471D01*
X411724Y320946D01*
X411724Y317895D01*
X410199Y316370D01*
X408673Y316370D01*
X407148Y317895D01*
X405623Y316370D01*
X404098Y316370D01*
X407148Y317895D02*
X407148Y320946D01*
X350411Y167950D02*
X352360Y166001D01*
X350411Y167950D02*
X346513Y167950D01*
X344564Y166001D01*
X344564Y158205D01*
X346513Y156256D01*
X350411Y156256D01*
X352360Y158205D01*
X362105Y156256D02*
X362105Y167950D01*
X356258Y162103D01*
X364054Y162103D01*
X373799Y156256D02*
X373799Y167950D01*
X367952Y162103D01*
X375748Y162103D01*
X358239Y41500D02*
X356290Y39551D01*
X356290Y35653D01*
X358239Y33704D01*
X366035Y33704D01*
X367984Y35653D01*
X367984Y39551D01*
X366035Y41500D01*
X367984Y51245D02*
X356290Y51245D01*
X362137Y45398D01*
X362137Y53194D01*
X356290Y57092D02*
X356290Y64888D01*
X356290Y57092D02*
X362137Y57092D01*
X360188Y60990D01*
X360188Y62939D01*
X362137Y64888D01*
X366035Y64888D01*
X367984Y62939D01*
X367984Y59041D01*
X366035Y57092D01*
X418900Y168461D02*
X416951Y170410D01*
X413053Y170410D01*
X411104Y168461D01*
X411104Y160665D01*
X413053Y158716D01*
X416951Y158716D01*
X418900Y160665D01*
X428645Y158716D02*
X428645Y170410D01*
X422798Y164563D01*
X430594Y164563D01*
X438390Y168461D02*
X442288Y170410D01*
X438390Y168461D02*
X434492Y164563D01*
X434492Y160665D01*
X436441Y158716D01*
X440339Y158716D01*
X442288Y160665D01*
X442288Y162614D01*
X440339Y164563D01*
X434492Y164563D01*
D10*
X332584Y127226D02*
X282292Y127226D01*
X282292Y85570D01*
X332584Y85570D01*
X332584Y127226D01*
D14*
X330298Y124940D02*
X284578Y124940D01*
X284578Y87856D01*
X330298Y87856D01*
X330298Y124940D01*
D10*
X319122Y118590D02*
X319124Y118725D01*
X319130Y118860D01*
X319140Y118994D01*
X319154Y119128D01*
X319172Y119262D01*
X319193Y119395D01*
X319219Y119527D01*
X319249Y119659D01*
X319282Y119790D01*
X319319Y119919D01*
X319361Y120048D01*
X319405Y120175D01*
X319454Y120301D01*
X319506Y120425D01*
X319562Y120548D01*
X319622Y120669D01*
X319685Y120788D01*
X319751Y120905D01*
X319821Y121020D01*
X319895Y121134D01*
X319972Y121245D01*
X320051Y121353D01*
X320135Y121459D01*
X320221Y121563D01*
X320310Y121664D01*
X320402Y121763D01*
X320497Y121858D01*
X320595Y121951D01*
X320695Y122041D01*
X320798Y122128D01*
X320904Y122212D01*
X321012Y122293D01*
X321122Y122370D01*
X321235Y122444D01*
X321350Y122515D01*
X321467Y122583D01*
X321585Y122647D01*
X321706Y122707D01*
X321828Y122764D01*
X321952Y122817D01*
X322078Y122867D01*
X322204Y122913D01*
X322333Y122955D01*
X322462Y122993D01*
X322592Y123027D01*
X322724Y123058D01*
X322856Y123085D01*
X322989Y123107D01*
X323122Y123126D01*
X323256Y123141D01*
X323391Y123152D01*
X323525Y123159D01*
X323660Y123162D01*
X323795Y123161D01*
X323930Y123156D01*
X324064Y123147D01*
X324199Y123134D01*
X324333Y123117D01*
X324466Y123096D01*
X324598Y123072D01*
X324730Y123043D01*
X324861Y123011D01*
X324991Y122974D01*
X325120Y122934D01*
X325247Y122890D01*
X325373Y122842D01*
X325498Y122791D01*
X325621Y122736D01*
X325743Y122677D01*
X325862Y122615D01*
X325980Y122549D01*
X326096Y122480D01*
X326209Y122408D01*
X326321Y122332D01*
X326430Y122253D01*
X326537Y122171D01*
X326641Y122085D01*
X326743Y121997D01*
X326842Y121905D01*
X326939Y121811D01*
X327032Y121714D01*
X327123Y121614D01*
X327211Y121512D01*
X327295Y121407D01*
X327377Y121299D01*
X327455Y121189D01*
X327530Y121077D01*
X327602Y120963D01*
X327670Y120847D01*
X327735Y120728D01*
X327796Y120608D01*
X327854Y120486D01*
X327908Y120363D01*
X327959Y120238D01*
X328005Y120111D01*
X328048Y119984D01*
X328088Y119855D01*
X328123Y119724D01*
X328155Y119593D01*
X328182Y119461D01*
X328206Y119329D01*
X328226Y119195D01*
X328242Y119061D01*
X328254Y118927D01*
X328262Y118792D01*
X328266Y118657D01*
X328266Y118523D01*
X328262Y118388D01*
X328254Y118253D01*
X328242Y118119D01*
X328226Y117985D01*
X328206Y117851D01*
X328182Y117719D01*
X328155Y117587D01*
X328123Y117456D01*
X328088Y117325D01*
X328048Y117196D01*
X328005Y117069D01*
X327959Y116942D01*
X327908Y116817D01*
X327854Y116694D01*
X327796Y116572D01*
X327735Y116452D01*
X327670Y116333D01*
X327602Y116217D01*
X327530Y116103D01*
X327455Y115991D01*
X327377Y115881D01*
X327295Y115773D01*
X327211Y115668D01*
X327123Y115566D01*
X327032Y115466D01*
X326939Y115369D01*
X326842Y115275D01*
X326743Y115183D01*
X326641Y115095D01*
X326537Y115009D01*
X326430Y114927D01*
X326321Y114848D01*
X326209Y114772D01*
X326096Y114700D01*
X325980Y114631D01*
X325862Y114565D01*
X325743Y114503D01*
X325621Y114444D01*
X325498Y114389D01*
X325373Y114338D01*
X325247Y114290D01*
X325120Y114246D01*
X324991Y114206D01*
X324861Y114169D01*
X324730Y114137D01*
X324598Y114108D01*
X324466Y114084D01*
X324333Y114063D01*
X324199Y114046D01*
X324064Y114033D01*
X323930Y114024D01*
X323795Y114019D01*
X323660Y114018D01*
X323525Y114021D01*
X323391Y114028D01*
X323256Y114039D01*
X323122Y114054D01*
X322989Y114073D01*
X322856Y114095D01*
X322724Y114122D01*
X322592Y114153D01*
X322462Y114187D01*
X322333Y114225D01*
X322204Y114267D01*
X322078Y114313D01*
X321952Y114363D01*
X321828Y114416D01*
X321706Y114473D01*
X321585Y114533D01*
X321467Y114597D01*
X321350Y114665D01*
X321235Y114736D01*
X321122Y114810D01*
X321012Y114887D01*
X320904Y114968D01*
X320798Y115052D01*
X320695Y115139D01*
X320595Y115229D01*
X320497Y115322D01*
X320402Y115417D01*
X320310Y115516D01*
X320221Y115617D01*
X320135Y115721D01*
X320051Y115827D01*
X319972Y115935D01*
X319895Y116046D01*
X319821Y116160D01*
X319751Y116275D01*
X319685Y116392D01*
X319622Y116511D01*
X319562Y116632D01*
X319506Y116755D01*
X319454Y116879D01*
X319405Y117005D01*
X319361Y117132D01*
X319319Y117261D01*
X319282Y117390D01*
X319249Y117521D01*
X319219Y117653D01*
X319193Y117785D01*
X319172Y117918D01*
X319154Y118052D01*
X319140Y118186D01*
X319130Y118320D01*
X319124Y118455D01*
X319122Y118590D01*
D11*
X311756Y94407D02*
X311756Y91357D01*
X311756Y92882D02*
X302604Y92882D01*
X302604Y91357D02*
X302604Y94407D01*
X302604Y102170D02*
X304130Y103695D01*
X302604Y102170D02*
X302604Y99119D01*
X304130Y97594D01*
X310231Y97594D01*
X311756Y99119D01*
X311756Y102170D01*
X310231Y103695D01*
X302604Y106949D02*
X302604Y113050D01*
X302604Y106949D02*
X307180Y106949D01*
X305655Y109999D01*
X305655Y111525D01*
X307180Y113050D01*
X310231Y113050D01*
X311756Y111525D01*
X311756Y108474D01*
X310231Y106949D01*
D10*
X277438Y413748D02*
X283788Y420098D01*
X296488Y420098D01*
X302838Y413748D01*
X302838Y401048D01*
X296488Y394698D01*
X283788Y394698D01*
X277438Y401048D01*
X245688Y420098D02*
X232988Y420098D01*
X245688Y420098D02*
X252038Y413748D01*
X252038Y401048D01*
X245688Y394698D01*
X252038Y413748D02*
X258388Y420098D01*
X271088Y420098D01*
X277438Y413748D01*
X277438Y401048D01*
X271088Y394698D01*
X258388Y394698D01*
X252038Y401048D01*
X226638Y401048D02*
X226638Y413748D01*
X232988Y420098D01*
X226638Y401048D02*
X232988Y394698D01*
X245688Y394698D01*
X309188Y420098D02*
X321888Y420098D01*
X328238Y413748D01*
X328238Y401048D01*
X321888Y394698D01*
X302838Y413748D02*
X309188Y420098D01*
X302838Y401048D02*
X309188Y394698D01*
X321888Y394698D01*
D13*
X228418Y426321D02*
X226511Y428228D01*
X228418Y426321D02*
X230324Y426321D01*
X232231Y428228D01*
X232231Y437761D01*
X230324Y437761D02*
X234138Y437761D01*
X238205Y437761D02*
X238205Y426321D01*
X238205Y437761D02*
X243925Y437761D01*
X245831Y435854D01*
X245831Y432041D01*
X243925Y430134D01*
X238205Y430134D01*
X249899Y426321D02*
X257525Y426321D01*
X249899Y426321D02*
X257525Y433948D01*
X257525Y435854D01*
X255619Y437761D01*
X251806Y437761D01*
X249899Y435854D01*
D10*
X97352Y149718D02*
X87192Y149718D01*
X146628Y76058D02*
X146628Y65898D01*
X97352Y149718D02*
X87192Y149718D01*
X203524Y141336D02*
X213684Y141336D01*
X146628Y76058D02*
X146628Y65898D01*
X146628Y76058D01*
X146628Y65898D01*
X97352Y149718D02*
X87192Y149718D01*
X185998Y163180D02*
X185998Y164958D01*
X176854Y161148D02*
X182188Y155814D01*
X114878Y163180D02*
X114878Y164958D01*
X114878Y93838D02*
X116656Y93838D01*
X185998Y93838D02*
X185998Y95616D01*
X185998Y164958D02*
X184220Y164958D01*
X116656Y164958D02*
X114878Y164958D01*
X114878Y95616D02*
X114878Y93838D01*
X184220Y93838D02*
X185998Y93838D01*
D12*
X182274Y183028D02*
X190240Y190993D01*
X190240Y183028D02*
X182274Y190993D01*
X186257Y190993D02*
X186257Y183028D01*
X182274Y187010D02*
X190240Y187010D01*
D11*
X218408Y101618D02*
X218408Y89924D01*
X218408Y101618D02*
X224255Y101618D01*
X226204Y99669D01*
X226204Y95771D01*
X224255Y93822D01*
X218408Y93822D01*
X222306Y93822D02*
X226204Y89924D01*
X230102Y97720D02*
X234000Y101618D01*
X234000Y89924D01*
X230102Y89924D02*
X237898Y89924D01*
X207808Y130289D02*
X205859Y132238D01*
X201961Y132238D01*
X200012Y130289D01*
X200012Y122493D01*
X201961Y120544D01*
X205859Y120544D01*
X207808Y122493D01*
X211706Y132238D02*
X219502Y132238D01*
X211706Y132238D02*
X211706Y126391D01*
X215604Y128340D01*
X217553Y128340D01*
X219502Y126391D01*
X219502Y122493D01*
X217553Y120544D01*
X213655Y120544D01*
X211706Y122493D01*
X223400Y128340D02*
X227298Y132238D01*
X227298Y120544D01*
X223400Y120544D02*
X231196Y120544D01*
D10*
X66838Y75648D02*
X60488Y69298D01*
X66838Y88348D02*
X60488Y94698D01*
X66838Y101048D01*
X66838Y113748D02*
X60488Y120098D01*
X60488Y69298D02*
X22388Y69298D01*
X16038Y75648D01*
X16038Y88348D01*
X22388Y94698D01*
X16038Y101048D01*
X16038Y113748D01*
X22388Y120098D01*
X22388Y94698D02*
X60488Y94698D01*
X60488Y120098D02*
X22388Y120098D01*
X66838Y113748D02*
X66838Y101048D01*
X66838Y88348D02*
X66838Y75648D01*
X60488Y120098D02*
X66838Y126448D01*
X66838Y139148D02*
X60488Y145498D01*
X22388Y120098D02*
X16038Y126448D01*
X16038Y139148D01*
X22388Y145498D01*
X60488Y145498D01*
X66838Y139148D02*
X66838Y126448D01*
D13*
X61053Y39840D02*
X59146Y37933D01*
X61053Y39840D02*
X61053Y41746D01*
X59146Y43653D01*
X49613Y43653D01*
X49613Y41746D02*
X49613Y45560D01*
X49613Y49627D02*
X61053Y49627D01*
X49613Y49627D02*
X49613Y55347D01*
X51520Y57253D01*
X55333Y57253D01*
X57240Y55347D01*
X57240Y49627D01*
X51520Y61321D02*
X49613Y63228D01*
X49613Y67041D01*
X51520Y68947D01*
X53427Y68947D01*
X55333Y67041D01*
X55333Y65134D01*
X55333Y67041D02*
X57240Y68947D01*
X59146Y68947D01*
X61053Y67041D01*
X61053Y63228D01*
X59146Y61321D01*
D15*
X83998Y261578D02*
X83998Y327578D01*
X83998Y261578D02*
X128998Y261578D01*
X128998Y327578D01*
X83998Y327578D01*
D16*
X90498Y320578D03*
D11*
X93516Y289176D02*
X97414Y289176D01*
X95465Y289176D02*
X95465Y300870D01*
X93516Y300870D02*
X97414Y300870D01*
X107159Y300870D02*
X109108Y298921D01*
X107159Y300870D02*
X103261Y300870D01*
X101312Y298921D01*
X101312Y291125D01*
X103261Y289176D01*
X107159Y289176D01*
X109108Y291125D01*
X113006Y296972D02*
X116904Y300870D01*
X116904Y289176D01*
X113006Y289176D02*
X120802Y289176D01*
X124700Y296972D02*
X128598Y300870D01*
X128598Y289176D01*
X124700Y289176D02*
X132496Y289176D01*
X62770Y328960D02*
X62770Y340654D01*
X68617Y340654D01*
X70566Y338705D01*
X70566Y334807D01*
X68617Y332858D01*
X62770Y332858D01*
X66668Y332858D02*
X70566Y328960D01*
X74464Y328960D02*
X82260Y328960D01*
X74464Y328960D02*
X82260Y336756D01*
X82260Y338705D01*
X80311Y340654D01*
X76413Y340654D01*
X74464Y338705D01*
X69550Y357199D02*
X67601Y359148D01*
X63703Y359148D01*
X61754Y357199D01*
X61754Y349403D01*
X63703Y347454D01*
X67601Y347454D01*
X69550Y349403D01*
X73448Y349403D02*
X75397Y347454D01*
X79295Y347454D01*
X81244Y349403D01*
X81244Y357199D01*
X79295Y359148D01*
X75397Y359148D01*
X73448Y357199D01*
X73448Y355250D01*
X75397Y353301D01*
X81244Y353301D01*
X11692Y354065D02*
X9743Y356014D01*
X5845Y356014D01*
X3896Y354065D01*
X3896Y346269D01*
X5845Y344320D01*
X9743Y344320D01*
X11692Y346269D01*
X15590Y352116D02*
X19488Y356014D01*
X19488Y344320D01*
X15590Y344320D02*
X23386Y344320D01*
X27284Y346269D02*
X27284Y354065D01*
X29233Y356014D01*
X33131Y356014D01*
X35080Y354065D01*
X35080Y346269D01*
X33131Y344320D01*
X29233Y344320D01*
X27284Y346269D01*
X35080Y354065D01*
X8494Y336691D02*
X6545Y338640D01*
X2647Y338640D01*
X698Y336691D01*
X698Y328895D01*
X2647Y326946D01*
X6545Y326946D01*
X8494Y328895D01*
X12392Y334742D02*
X16290Y338640D01*
X16290Y326946D01*
X12392Y326946D02*
X20188Y326946D01*
X29933Y326946D02*
X29933Y338640D01*
X24086Y332793D01*
X31882Y332793D01*
X78206Y246282D02*
X78206Y234588D01*
X78206Y246282D02*
X84053Y246282D01*
X86002Y244333D01*
X86002Y240435D01*
X84053Y238486D01*
X78206Y238486D01*
X82104Y238486D02*
X86002Y234588D01*
X89900Y246282D02*
X97696Y246282D01*
X89900Y246282D02*
X89900Y240435D01*
X93798Y242384D01*
X95747Y242384D01*
X97696Y240435D01*
X97696Y236537D01*
X95747Y234588D01*
X91849Y234588D01*
X89900Y236537D01*
X165438Y272497D02*
X167387Y274446D01*
X165438Y272497D02*
X165438Y268599D01*
X167387Y266650D01*
X175183Y266650D01*
X177132Y268599D01*
X177132Y272497D01*
X175183Y274446D01*
X169336Y278344D02*
X165438Y282242D01*
X177132Y282242D01*
X177132Y278344D02*
X177132Y286140D01*
X167387Y293936D02*
X165438Y297834D01*
X167387Y293936D02*
X171285Y290038D01*
X175183Y290038D01*
X177132Y291987D01*
X177132Y295885D01*
X175183Y297834D01*
X173234Y297834D01*
X171285Y295885D01*
X171285Y290038D01*
X136456Y352677D02*
X138405Y354626D01*
X136456Y352677D02*
X136456Y348779D01*
X138405Y346830D01*
X146201Y346830D01*
X148150Y348779D01*
X148150Y352677D01*
X146201Y354626D01*
X148150Y358524D02*
X148150Y366320D01*
X148150Y358524D02*
X140354Y366320D01*
X138405Y366320D01*
X136456Y364371D01*
X136456Y360473D01*
X138405Y358524D01*
X140354Y370218D02*
X136456Y374116D01*
X148150Y374116D01*
X148150Y370218D02*
X148150Y378014D01*
X113576Y355298D02*
X113576Y343604D01*
X113576Y355298D02*
X119423Y355298D01*
X121372Y353349D01*
X121372Y349451D01*
X119423Y347502D01*
X113576Y347502D01*
X117474Y347502D02*
X121372Y343604D01*
X129168Y353349D02*
X133066Y355298D01*
X129168Y353349D02*
X125270Y349451D01*
X125270Y345553D01*
X127219Y343604D01*
X131117Y343604D01*
X133066Y345553D01*
X133066Y347502D01*
X131117Y349451D01*
X125270Y349451D01*
X143016Y295718D02*
X154710Y295718D01*
X143016Y295718D02*
X143016Y301565D01*
X144965Y303514D01*
X148863Y303514D01*
X150812Y301565D01*
X150812Y295718D01*
X150812Y299616D02*
X154710Y303514D01*
X152761Y307412D02*
X154710Y309361D01*
X154710Y313259D01*
X152761Y315208D01*
X144965Y315208D01*
X143016Y313259D01*
X143016Y309361D01*
X144965Y307412D01*
X146914Y307412D01*
X148863Y309361D01*
X148863Y315208D01*
X9948Y321643D02*
X7999Y323592D01*
X4101Y323592D01*
X2152Y321643D01*
X2152Y313847D01*
X4101Y311898D01*
X7999Y311898D01*
X9948Y313847D01*
X13846Y311898D02*
X21642Y311898D01*
X13846Y311898D02*
X21642Y319694D01*
X21642Y321643D01*
X19693Y323592D01*
X15795Y323592D01*
X13846Y321643D01*
X29438Y321643D02*
X33336Y323592D01*
X29438Y321643D02*
X25540Y317745D01*
X25540Y313847D01*
X27489Y311898D01*
X31387Y311898D01*
X33336Y313847D01*
X33336Y315796D01*
X31387Y317745D01*
X25540Y317745D01*
D12*
X8036Y304707D02*
X6468Y306275D01*
X3333Y306275D01*
X1765Y304707D01*
X1765Y298437D01*
X3333Y296869D01*
X6468Y296869D01*
X8036Y298437D01*
X11121Y296869D02*
X17391Y296869D01*
X11121Y296869D02*
X17391Y303140D01*
X17391Y304707D01*
X15824Y306275D01*
X12688Y306275D01*
X11121Y304707D01*
X20476Y306275D02*
X26747Y306275D01*
X26747Y304707D01*
X20476Y298437D01*
X20476Y296869D01*
D11*
X53053Y211310D02*
X55002Y209361D01*
X53053Y211310D02*
X49155Y211310D01*
X47206Y209361D01*
X47206Y201565D01*
X49155Y199616D01*
X53053Y199616D01*
X55002Y201565D01*
X58900Y209361D02*
X60849Y211310D01*
X64747Y211310D01*
X66696Y209361D01*
X66696Y207412D01*
X64747Y205463D01*
X62798Y205463D01*
X64747Y205463D02*
X66696Y203514D01*
X66696Y201565D01*
X64747Y199616D01*
X60849Y199616D01*
X58900Y201565D01*
X70594Y199616D02*
X78390Y199616D01*
X70594Y199616D02*
X78390Y207412D01*
X78390Y209361D01*
X76441Y211310D01*
X72543Y211310D01*
X70594Y209361D01*
X108714Y235456D02*
X108714Y247150D01*
X114561Y247150D01*
X116510Y245201D01*
X116510Y241303D01*
X114561Y239354D01*
X108714Y239354D01*
X112612Y239354D02*
X116510Y235456D01*
X120408Y243252D02*
X124306Y247150D01*
X124306Y235456D01*
X120408Y235456D02*
X128204Y235456D01*
X132102Y235456D02*
X139898Y235456D01*
X132102Y235456D02*
X139898Y243252D01*
X139898Y245201D01*
X137949Y247150D01*
X134051Y247150D01*
X132102Y245201D01*
D12*
X65145Y264695D02*
X55739Y264695D01*
X55739Y269398D01*
X57307Y270966D01*
X60442Y270966D01*
X62010Y269398D01*
X62010Y264695D01*
X62010Y267831D02*
X65145Y270966D01*
X58874Y274051D02*
X55739Y277186D01*
X65145Y277186D01*
X65145Y274051D02*
X65145Y280321D01*
X63577Y283406D02*
X65145Y284973D01*
X65145Y288109D01*
X63577Y289677D01*
X57307Y289677D01*
X55739Y288109D01*
X55739Y284973D01*
X57307Y283406D01*
X58874Y283406D01*
X60442Y284973D01*
X60442Y289677D01*
X11448Y292335D02*
X9880Y293903D01*
X6745Y293903D01*
X5177Y292335D01*
X5177Y286065D01*
X6745Y284497D01*
X9880Y284497D01*
X11448Y286065D01*
X14532Y292335D02*
X16100Y293903D01*
X19235Y293903D01*
X20803Y292335D01*
X20803Y290768D01*
X19235Y289200D01*
X17668Y289200D01*
X19235Y289200D02*
X20803Y287632D01*
X20803Y286065D01*
X19235Y284497D01*
X16100Y284497D01*
X14532Y286065D01*
X28590Y284497D02*
X28590Y293903D01*
X23887Y289200D01*
X30158Y289200D01*
D11*
X200278Y200486D02*
X200278Y188792D01*
X200278Y200486D02*
X206125Y200486D01*
X208074Y198537D01*
X208074Y194639D01*
X206125Y192690D01*
X200278Y192690D01*
X204176Y192690D02*
X208074Y188792D01*
X211972Y196588D02*
X215870Y200486D01*
X215870Y188792D01*
X211972Y188792D02*
X219768Y188792D01*
X223666Y200486D02*
X231462Y200486D01*
X231462Y198537D01*
X223666Y190741D01*
X223666Y188792D01*
X202736Y232225D02*
X200787Y234174D01*
X196889Y234174D01*
X194940Y232225D01*
X194940Y224429D01*
X196889Y222480D01*
X200787Y222480D01*
X202736Y224429D01*
X206634Y232225D02*
X208583Y234174D01*
X212481Y234174D01*
X214430Y232225D01*
X214430Y230276D01*
X212481Y228327D01*
X210532Y228327D01*
X212481Y228327D02*
X214430Y226378D01*
X214430Y224429D01*
X212481Y222480D01*
X208583Y222480D01*
X206634Y224429D01*
X218328Y234174D02*
X226124Y234174D01*
X226124Y232225D01*
X218328Y224429D01*
X218328Y222480D01*
X198236Y237342D02*
X186542Y237342D01*
X186542Y243189D01*
X188491Y245138D01*
X192389Y245138D01*
X194338Y243189D01*
X194338Y237342D01*
X194338Y241240D02*
X198236Y245138D01*
X198236Y249036D02*
X198236Y256832D01*
X198236Y249036D02*
X190440Y256832D01*
X188491Y256832D01*
X186542Y254883D01*
X186542Y250985D01*
X188491Y249036D01*
X190440Y260730D02*
X186542Y264628D01*
X198236Y264628D01*
X198236Y260730D02*
X198236Y268526D01*
X161428Y196830D02*
X149734Y196830D01*
X149734Y202677D01*
X151683Y204626D01*
X155581Y204626D01*
X157530Y202677D01*
X157530Y196830D01*
X157530Y200728D02*
X161428Y204626D01*
X153632Y208524D02*
X149734Y212422D01*
X161428Y212422D01*
X161428Y208524D02*
X161428Y216320D01*
X151683Y224116D02*
X149734Y228014D01*
X151683Y224116D02*
X155581Y220218D01*
X159479Y220218D01*
X161428Y222167D01*
X161428Y226065D01*
X159479Y228014D01*
X157530Y228014D01*
X155581Y226065D01*
X155581Y220218D01*
X154786Y333288D02*
X154786Y344982D01*
X160633Y344982D01*
X162582Y343033D01*
X162582Y339135D01*
X160633Y337186D01*
X154786Y337186D01*
X158684Y337186D02*
X162582Y333288D01*
X166480Y333288D02*
X174276Y333288D01*
X166480Y333288D02*
X174276Y341084D01*
X174276Y343033D01*
X172327Y344982D01*
X168429Y344982D01*
X166480Y343033D01*
X178174Y333288D02*
X185970Y333288D01*
X178174Y333288D02*
X185970Y341084D01*
X185970Y343033D01*
X184021Y344982D01*
X180123Y344982D01*
X178174Y343033D01*
X156170Y378033D02*
X154221Y379982D01*
X150323Y379982D01*
X148374Y378033D01*
X148374Y370237D01*
X150323Y368288D01*
X154221Y368288D01*
X156170Y370237D01*
X160068Y378033D02*
X162017Y379982D01*
X165915Y379982D01*
X167864Y378033D01*
X167864Y376084D01*
X165915Y374135D01*
X163966Y374135D01*
X165915Y374135D02*
X167864Y372186D01*
X167864Y370237D01*
X165915Y368288D01*
X162017Y368288D01*
X160068Y370237D01*
X171762Y370237D02*
X173711Y368288D01*
X177609Y368288D01*
X179558Y370237D01*
X179558Y378033D01*
X177609Y379982D01*
X173711Y379982D01*
X171762Y378033D01*
X171762Y376084D01*
X173711Y374135D01*
X179558Y374135D01*
X209802Y347084D02*
X221496Y347084D01*
X209802Y347084D02*
X209802Y352931D01*
X211751Y354880D01*
X215649Y354880D01*
X217598Y352931D01*
X217598Y347084D01*
X217598Y350982D02*
X221496Y354880D01*
X221496Y358778D02*
X221496Y366574D01*
X221496Y358778D02*
X213700Y366574D01*
X211751Y366574D01*
X209802Y364625D01*
X209802Y360727D01*
X211751Y358778D01*
X209802Y376319D02*
X221496Y376319D01*
X215649Y370472D02*
X209802Y376319D01*
X215649Y378268D02*
X215649Y370472D01*
D10*
X41288Y245178D02*
X25588Y245178D01*
X25588Y273618D02*
X41288Y273618D01*
X41288Y264618D02*
X41288Y254178D01*
X25588Y263678D02*
X25588Y264618D01*
X25588Y255118D02*
X25588Y254178D01*
X25588Y272678D02*
X25588Y273618D01*
X25588Y246118D02*
X25588Y245178D01*
X41288Y245178D02*
X41288Y246118D01*
X41288Y272678D02*
X41288Y273618D01*
D12*
X16737Y241122D02*
X16737Y237987D01*
X16737Y239554D02*
X7331Y239554D01*
X7331Y237987D02*
X7331Y241122D01*
X7331Y248926D02*
X8899Y250494D01*
X7331Y248926D02*
X7331Y245791D01*
X8899Y244223D01*
X15169Y244223D01*
X16737Y245791D01*
X16737Y248926D01*
X15169Y250494D01*
X10466Y253579D02*
X7331Y256714D01*
X16737Y256714D01*
X16737Y253579D02*
X16737Y259849D01*
X8899Y262934D02*
X7331Y264501D01*
X7331Y267637D01*
X8899Y269204D01*
X10466Y269204D01*
X12034Y267637D01*
X12034Y266069D01*
X12034Y267637D02*
X13602Y269204D01*
X15169Y269204D01*
X16737Y267637D01*
X16737Y264501D01*
X15169Y262934D01*
D11*
X53938Y178350D02*
X53938Y166656D01*
X53938Y178350D02*
X59785Y178350D01*
X61734Y176401D01*
X61734Y172503D01*
X59785Y170554D01*
X53938Y170554D01*
X57836Y170554D02*
X61734Y166656D01*
X65632Y176401D02*
X67581Y178350D01*
X71479Y178350D01*
X73428Y176401D01*
X73428Y174452D01*
X71479Y172503D01*
X69530Y172503D01*
X71479Y172503D02*
X73428Y170554D01*
X73428Y168605D01*
X71479Y166656D01*
X67581Y166656D01*
X65632Y168605D01*
D10*
X34788Y205098D02*
X22088Y205098D01*
X34788Y205098D02*
X41138Y198748D01*
X41138Y186048D01*
X34788Y179698D01*
X15738Y186048D02*
X15738Y198748D01*
X22088Y205098D01*
X15738Y186048D02*
X22088Y179698D01*
X34788Y179698D01*
D13*
X12438Y165601D02*
X10531Y167508D01*
X12438Y165601D02*
X14344Y165601D01*
X16251Y167508D01*
X16251Y177041D01*
X14344Y177041D02*
X18158Y177041D01*
X22225Y177041D02*
X22225Y165601D01*
X22225Y177041D02*
X27945Y177041D01*
X29851Y175134D01*
X29851Y171321D01*
X27945Y169414D01*
X22225Y169414D01*
X33919Y173228D02*
X37732Y177041D01*
X37732Y165601D01*
X33919Y165601D02*
X41545Y165601D01*
D10*
X459248Y240154D02*
X459248Y268094D01*
X479568Y240154D02*
X479566Y240054D01*
X479560Y239955D01*
X479550Y239855D01*
X479537Y239757D01*
X479519Y239658D01*
X479498Y239561D01*
X479473Y239465D01*
X479444Y239369D01*
X479411Y239275D01*
X479375Y239182D01*
X479335Y239091D01*
X479291Y239001D01*
X479244Y238913D01*
X479194Y238827D01*
X479140Y238743D01*
X479083Y238661D01*
X479023Y238582D01*
X478959Y238504D01*
X478893Y238430D01*
X478824Y238358D01*
X478752Y238289D01*
X478678Y238223D01*
X478600Y238159D01*
X478521Y238099D01*
X478439Y238042D01*
X478355Y237988D01*
X478269Y237938D01*
X478181Y237891D01*
X478091Y237847D01*
X478000Y237807D01*
X477907Y237771D01*
X477813Y237738D01*
X477717Y237709D01*
X477621Y237684D01*
X477524Y237663D01*
X477425Y237645D01*
X477327Y237632D01*
X477227Y237622D01*
X477128Y237616D01*
X477028Y237614D01*
X479568Y268094D02*
X479566Y268194D01*
X479560Y268293D01*
X479550Y268393D01*
X479537Y268491D01*
X479519Y268590D01*
X479498Y268687D01*
X479473Y268783D01*
X479444Y268879D01*
X479411Y268973D01*
X479375Y269066D01*
X479335Y269157D01*
X479291Y269247D01*
X479244Y269335D01*
X479194Y269421D01*
X479140Y269505D01*
X479083Y269587D01*
X479023Y269666D01*
X478959Y269744D01*
X478893Y269818D01*
X478824Y269890D01*
X478752Y269959D01*
X478678Y270025D01*
X478600Y270089D01*
X478521Y270149D01*
X478439Y270206D01*
X478355Y270260D01*
X478269Y270310D01*
X478181Y270357D01*
X478091Y270401D01*
X478000Y270441D01*
X477907Y270477D01*
X477813Y270510D01*
X477717Y270539D01*
X477621Y270564D01*
X477524Y270585D01*
X477425Y270603D01*
X477327Y270616D01*
X477227Y270626D01*
X477128Y270632D01*
X477028Y270634D01*
X461788Y270634D02*
X461688Y270632D01*
X461589Y270626D01*
X461489Y270616D01*
X461391Y270603D01*
X461292Y270585D01*
X461195Y270564D01*
X461099Y270539D01*
X461003Y270510D01*
X460909Y270477D01*
X460816Y270441D01*
X460725Y270401D01*
X460635Y270357D01*
X460547Y270310D01*
X460461Y270260D01*
X460377Y270206D01*
X460295Y270149D01*
X460216Y270089D01*
X460138Y270025D01*
X460064Y269959D01*
X459992Y269890D01*
X459923Y269818D01*
X459857Y269744D01*
X459793Y269666D01*
X459733Y269587D01*
X459676Y269505D01*
X459622Y269421D01*
X459572Y269335D01*
X459525Y269247D01*
X459481Y269157D01*
X459441Y269066D01*
X459405Y268973D01*
X459372Y268879D01*
X459343Y268783D01*
X459318Y268687D01*
X459297Y268590D01*
X459279Y268491D01*
X459266Y268393D01*
X459256Y268293D01*
X459250Y268194D01*
X459248Y268094D01*
X459248Y240154D02*
X459250Y240054D01*
X459256Y239955D01*
X459266Y239855D01*
X459279Y239757D01*
X459297Y239658D01*
X459318Y239561D01*
X459343Y239465D01*
X459372Y239369D01*
X459405Y239275D01*
X459441Y239182D01*
X459481Y239091D01*
X459525Y239001D01*
X459572Y238913D01*
X459622Y238827D01*
X459676Y238743D01*
X459733Y238661D01*
X459793Y238582D01*
X459857Y238504D01*
X459923Y238430D01*
X459992Y238358D01*
X460064Y238289D01*
X460138Y238223D01*
X460216Y238159D01*
X460295Y238099D01*
X460377Y238042D01*
X460461Y237988D01*
X460547Y237938D01*
X460635Y237891D01*
X460725Y237847D01*
X460816Y237807D01*
X460909Y237771D01*
X461003Y237738D01*
X461099Y237709D01*
X461195Y237684D01*
X461292Y237663D01*
X461391Y237645D01*
X461489Y237632D01*
X461589Y237622D01*
X461688Y237616D01*
X461788Y237614D01*
X477028Y237614D01*
X477028Y270634D02*
X461788Y270634D01*
X479568Y268094D02*
X479568Y240154D01*
D13*
X446370Y246814D02*
X444463Y244907D01*
X444463Y241094D01*
X446370Y239187D01*
X448277Y239187D01*
X450183Y241094D01*
X450183Y244907D01*
X452090Y246814D01*
X453996Y246814D01*
X455903Y244907D01*
X455903Y241094D01*
X453996Y239187D01*
X453996Y250881D02*
X455903Y252788D01*
X455903Y254694D01*
X453996Y256601D01*
X444463Y256601D01*
X444463Y254694D02*
X444463Y258508D01*
X446370Y262575D02*
X444463Y264482D01*
X444463Y268295D01*
X446370Y270201D01*
X448277Y270201D01*
X450183Y268295D01*
X450183Y266388D01*
X450183Y268295D02*
X452090Y270201D01*
X453996Y270201D01*
X455903Y268295D01*
X455903Y264482D01*
X453996Y262575D01*
D10*
X376206Y203912D02*
X348266Y203912D01*
X376206Y224232D02*
X376306Y224230D01*
X376405Y224224D01*
X376505Y224214D01*
X376603Y224201D01*
X376702Y224183D01*
X376799Y224162D01*
X376895Y224137D01*
X376991Y224108D01*
X377085Y224075D01*
X377178Y224039D01*
X377269Y223999D01*
X377359Y223955D01*
X377447Y223908D01*
X377533Y223858D01*
X377617Y223804D01*
X377699Y223747D01*
X377778Y223687D01*
X377856Y223623D01*
X377930Y223557D01*
X378002Y223488D01*
X378071Y223416D01*
X378137Y223342D01*
X378201Y223264D01*
X378261Y223185D01*
X378318Y223103D01*
X378372Y223019D01*
X378422Y222933D01*
X378469Y222845D01*
X378513Y222755D01*
X378553Y222664D01*
X378589Y222571D01*
X378622Y222477D01*
X378651Y222381D01*
X378676Y222285D01*
X378697Y222188D01*
X378715Y222089D01*
X378728Y221991D01*
X378738Y221891D01*
X378744Y221792D01*
X378746Y221692D01*
X348266Y224232D02*
X348166Y224230D01*
X348067Y224224D01*
X347967Y224214D01*
X347869Y224201D01*
X347770Y224183D01*
X347673Y224162D01*
X347577Y224137D01*
X347481Y224108D01*
X347387Y224075D01*
X347294Y224039D01*
X347203Y223999D01*
X347113Y223955D01*
X347025Y223908D01*
X346939Y223858D01*
X346855Y223804D01*
X346773Y223747D01*
X346694Y223687D01*
X346616Y223623D01*
X346542Y223557D01*
X346470Y223488D01*
X346401Y223416D01*
X346335Y223342D01*
X346271Y223264D01*
X346211Y223185D01*
X346154Y223103D01*
X346100Y223019D01*
X346050Y222933D01*
X346003Y222845D01*
X345959Y222755D01*
X345919Y222664D01*
X345883Y222571D01*
X345850Y222477D01*
X345821Y222381D01*
X345796Y222285D01*
X345775Y222188D01*
X345757Y222089D01*
X345744Y221991D01*
X345734Y221891D01*
X345728Y221792D01*
X345726Y221692D01*
X345726Y206452D02*
X345728Y206352D01*
X345734Y206253D01*
X345744Y206153D01*
X345757Y206055D01*
X345775Y205956D01*
X345796Y205859D01*
X345821Y205763D01*
X345850Y205667D01*
X345883Y205573D01*
X345919Y205480D01*
X345959Y205389D01*
X346003Y205299D01*
X346050Y205211D01*
X346100Y205125D01*
X346154Y205041D01*
X346211Y204959D01*
X346271Y204880D01*
X346335Y204802D01*
X346401Y204728D01*
X346470Y204656D01*
X346542Y204587D01*
X346616Y204521D01*
X346694Y204457D01*
X346773Y204397D01*
X346855Y204340D01*
X346939Y204286D01*
X347025Y204236D01*
X347113Y204189D01*
X347203Y204145D01*
X347294Y204105D01*
X347387Y204069D01*
X347481Y204036D01*
X347577Y204007D01*
X347673Y203982D01*
X347770Y203961D01*
X347869Y203943D01*
X347967Y203930D01*
X348067Y203920D01*
X348166Y203914D01*
X348266Y203912D01*
X376206Y203912D02*
X376306Y203914D01*
X376405Y203920D01*
X376505Y203930D01*
X376603Y203943D01*
X376702Y203961D01*
X376799Y203982D01*
X376895Y204007D01*
X376991Y204036D01*
X377085Y204069D01*
X377178Y204105D01*
X377269Y204145D01*
X377359Y204189D01*
X377447Y204236D01*
X377533Y204286D01*
X377617Y204340D01*
X377699Y204397D01*
X377778Y204457D01*
X377856Y204521D01*
X377930Y204587D01*
X378002Y204656D01*
X378071Y204728D01*
X378137Y204802D01*
X378201Y204880D01*
X378261Y204959D01*
X378318Y205041D01*
X378372Y205125D01*
X378422Y205211D01*
X378469Y205299D01*
X378513Y205389D01*
X378553Y205480D01*
X378589Y205573D01*
X378622Y205667D01*
X378651Y205763D01*
X378676Y205859D01*
X378697Y205956D01*
X378715Y206055D01*
X378728Y206153D01*
X378738Y206253D01*
X378744Y206352D01*
X378746Y206452D01*
X378746Y221692D01*
X345726Y221692D02*
X345726Y206452D01*
X348266Y224232D02*
X376206Y224232D01*
D11*
X368776Y39152D02*
X368776Y27458D01*
X368776Y39152D02*
X374623Y39152D01*
X376572Y37203D01*
X376572Y33305D01*
X374623Y31356D01*
X368776Y31356D01*
X372674Y31356D02*
X376572Y27458D01*
X380470Y39152D02*
X388266Y39152D01*
X380470Y39152D02*
X380470Y33305D01*
X384368Y35254D01*
X386317Y35254D01*
X388266Y33305D01*
X388266Y29407D01*
X386317Y27458D01*
X382419Y27458D01*
X380470Y29407D01*
X396062Y37203D02*
X399960Y39152D01*
X396062Y37203D02*
X392164Y33305D01*
X392164Y29407D01*
X394113Y27458D01*
X398011Y27458D01*
X399960Y29407D01*
X399960Y31356D01*
X398011Y33305D01*
X392164Y33305D01*
X347142Y94158D02*
X335448Y94158D01*
X335448Y100005D01*
X337397Y101954D01*
X341295Y101954D01*
X343244Y100005D01*
X343244Y94158D01*
X343244Y98056D02*
X347142Y101954D01*
X335448Y105852D02*
X335448Y113648D01*
X335448Y105852D02*
X341295Y105852D01*
X339346Y109750D01*
X339346Y111699D01*
X341295Y113648D01*
X345193Y113648D01*
X347142Y111699D01*
X347142Y107801D01*
X345193Y105852D01*
X335448Y117546D02*
X335448Y125342D01*
X337397Y125342D01*
X345193Y117546D01*
X347142Y117546D01*
X384448Y158005D02*
X386397Y159954D01*
X384448Y158005D02*
X384448Y154107D01*
X386397Y152158D01*
X394193Y152158D01*
X396142Y154107D01*
X396142Y158005D01*
X394193Y159954D01*
X384448Y163852D02*
X384448Y171648D01*
X384448Y163852D02*
X390295Y163852D01*
X388346Y167750D01*
X388346Y169699D01*
X390295Y171648D01*
X394193Y171648D01*
X396142Y169699D01*
X396142Y165801D01*
X394193Y163852D01*
X474848Y182776D02*
X486542Y182776D01*
X474848Y182776D02*
X474848Y188623D01*
X476797Y190572D01*
X480695Y190572D01*
X482644Y188623D01*
X482644Y182776D01*
X482644Y186674D02*
X486542Y190572D01*
X474848Y194470D02*
X474848Y202266D01*
X474848Y194470D02*
X480695Y194470D01*
X478746Y198368D01*
X478746Y200317D01*
X480695Y202266D01*
X484593Y202266D01*
X486542Y200317D01*
X486542Y196419D01*
X484593Y194470D01*
X486542Y212011D02*
X474848Y212011D01*
X480695Y206164D01*
X480695Y213960D01*
X466542Y182776D02*
X454848Y182776D01*
X454848Y188623D01*
X456797Y190572D01*
X460695Y190572D01*
X462644Y188623D01*
X462644Y182776D01*
X462644Y186674D02*
X466542Y190572D01*
X454848Y194470D02*
X454848Y202266D01*
X454848Y194470D02*
X460695Y194470D01*
X458746Y198368D01*
X458746Y200317D01*
X460695Y202266D01*
X464593Y202266D01*
X466542Y200317D01*
X466542Y196419D01*
X464593Y194470D01*
X454848Y206164D02*
X454848Y213960D01*
X454848Y206164D02*
X460695Y206164D01*
X458746Y210062D01*
X458746Y212011D01*
X460695Y213960D01*
X464593Y213960D01*
X466542Y212011D01*
X466542Y208113D01*
X464593Y206164D01*
X442542Y202776D02*
X430848Y202776D01*
X430848Y208623D01*
X432797Y210572D01*
X436695Y210572D01*
X438644Y208623D01*
X438644Y202776D01*
X438644Y206674D02*
X442542Y210572D01*
X430848Y214470D02*
X430848Y222266D01*
X430848Y214470D02*
X436695Y214470D01*
X434746Y218368D01*
X434746Y220317D01*
X436695Y222266D01*
X440593Y222266D01*
X442542Y220317D01*
X442542Y216419D01*
X440593Y214470D01*
X432797Y226164D02*
X430848Y228113D01*
X430848Y232011D01*
X432797Y233960D01*
X434746Y233960D01*
X436695Y232011D01*
X438644Y233960D01*
X440593Y233960D01*
X442542Y232011D01*
X442542Y228113D01*
X440593Y226164D01*
X438644Y226164D01*
X436695Y228113D01*
X434746Y226164D01*
X432797Y226164D01*
X436695Y228113D02*
X436695Y232011D01*
X479848Y107776D02*
X491542Y107776D01*
X479848Y107776D02*
X479848Y113623D01*
X481797Y115572D01*
X485695Y115572D01*
X487644Y113623D01*
X487644Y107776D01*
X487644Y111674D02*
X491542Y115572D01*
X479848Y119470D02*
X479848Y127266D01*
X481797Y127266D01*
X489593Y119470D01*
X491542Y119470D01*
X481797Y131164D02*
X479848Y133113D01*
X479848Y137011D01*
X481797Y138960D01*
X483746Y138960D01*
X485695Y137011D01*
X485695Y135062D01*
X485695Y137011D02*
X487644Y138960D01*
X489593Y138960D01*
X491542Y137011D01*
X491542Y133113D01*
X489593Y131164D01*
X255397Y327954D02*
X253448Y326005D01*
X253448Y322107D01*
X255397Y320158D01*
X263193Y320158D01*
X265142Y322107D01*
X265142Y326005D01*
X263193Y327954D01*
X257346Y331852D02*
X253448Y335750D01*
X265142Y335750D01*
X265142Y331852D02*
X265142Y339648D01*
X257346Y343546D02*
X253448Y347444D01*
X265142Y347444D01*
X265142Y343546D02*
X265142Y351342D01*
M02*
