G04 EAGLE Gerber X2 export*
%TF.Part,Single*%
%TF.FileFunction,Other,Component side*%
%TF.FilePolarity,Positive*%
%TF.GenerationSoftware,Autodesk,EAGLE,8.7.1*%
%TF.CreationDate,2018-04-25T07:09:38Z*%
G75*
%MOMM*%
%FSLAX34Y34*%
%LPD*%
%AMOC8*
5,1,8,0,0,1.08239X$1,22.5*%
G01*
%ADD10R,0.700000X0.900000*%
%ADD11R,0.900000X0.700000*%
%ADD12R,0.600000X2.200000*%
%ADD13C,1.524000*%
%ADD14R,0.304800X0.990600*%
%ADD15R,0.508000X1.473200*%
%ADD16R,1.473200X0.508000*%
%ADD17P,1.649562X8X112.500000*%
%ADD18R,0.750000X0.300000*%
%ADD19R,1.200000X0.550000*%
%ADD20P,1.649562X8X22.500000*%
%ADD21R,1.600200X1.168400*%
%ADD22R,1.168400X1.600200*%
%ADD23C,0.254000*%
%ADD24C,0.700000*%
%ADD25C,0.406400*%
%ADD26C,0.650000*%
%ADD27C,0.304800*%
%ADD28C,0.508000*%
%ADD29C,0.900000*%
%ADD30C,0.609600*%
%ADD31C,0.203200*%
%ADD32C,0.800000*%
%ADD33C,1.200000*%


D10*
X427038Y62098D03*
X440038Y62098D03*
D11*
X412338Y382798D03*
X412338Y369798D03*
D10*
X269738Y360898D03*
X282738Y360898D03*
D11*
X245438Y306398D03*
X245438Y319398D03*
D10*
X286938Y243198D03*
X273938Y243198D03*
X258778Y279118D03*
X245778Y279118D03*
X261738Y256598D03*
X274738Y256598D03*
D11*
X330038Y335398D03*
X330038Y348398D03*
X310938Y352698D03*
X310938Y365698D03*
D10*
X358738Y371298D03*
X371738Y371298D03*
D11*
X341438Y371998D03*
X341438Y358998D03*
X241638Y246498D03*
X241638Y259498D03*
X369038Y315298D03*
X369038Y302298D03*
X449738Y316798D03*
X449738Y303798D03*
D10*
X389738Y268098D03*
X376738Y268098D03*
D11*
X331038Y49798D03*
X331038Y62798D03*
X332838Y162898D03*
X332838Y149898D03*
D10*
X327338Y29998D03*
X314338Y29998D03*
D11*
X288538Y34398D03*
X288538Y47398D03*
D10*
X322338Y178498D03*
X309338Y178498D03*
D11*
X292338Y179198D03*
X292338Y166198D03*
D10*
X303938Y42298D03*
X316938Y42298D03*
X306038Y164298D03*
X319038Y164298D03*
D12*
X379088Y132498D03*
X379088Y80498D03*
X391788Y132498D03*
X366388Y132498D03*
X353688Y132498D03*
X391788Y80498D03*
X366388Y80498D03*
X353688Y80498D03*
X439088Y132398D03*
X439088Y80398D03*
X451788Y132398D03*
X426388Y132398D03*
X413688Y132398D03*
X451788Y80398D03*
X426388Y80398D03*
X413688Y80398D03*
D13*
X463438Y399378D02*
X463438Y414618D01*
X438038Y414618D02*
X438038Y399378D01*
X412638Y399378D02*
X412638Y414618D01*
X387238Y414618D02*
X387238Y399378D01*
X361838Y399378D02*
X361838Y414618D01*
X86538Y57118D02*
X86538Y41878D01*
X111938Y41878D02*
X111938Y57118D01*
X137338Y57118D02*
X137338Y41878D01*
X162738Y41878D02*
X162738Y57118D01*
X188138Y57118D02*
X188138Y41878D01*
X213538Y41878D02*
X213538Y57118D01*
D14*
X191648Y279810D03*
X197998Y279810D03*
X204348Y279810D03*
X210698Y279810D03*
X217048Y279810D03*
X223398Y279810D03*
X229748Y279810D03*
X191648Y336706D03*
X197998Y336706D03*
X204348Y336706D03*
X210698Y336706D03*
X217048Y336706D03*
X223398Y336706D03*
X229748Y336706D03*
X274388Y279950D03*
X280738Y279950D03*
X287088Y279950D03*
X293438Y279950D03*
X299788Y279950D03*
X306138Y279950D03*
X312488Y279950D03*
X274388Y336846D03*
X280738Y336846D03*
X287088Y336846D03*
X293438Y336846D03*
X299788Y336846D03*
X306138Y336846D03*
X312488Y336846D03*
X390388Y279950D03*
X396738Y279950D03*
X403088Y279950D03*
X409438Y279950D03*
X415788Y279950D03*
X422138Y279950D03*
X428488Y279950D03*
X390388Y336846D03*
X396738Y336846D03*
X403088Y336846D03*
X409438Y336846D03*
X415788Y336846D03*
X422138Y336846D03*
X428488Y336846D03*
D10*
X377938Y151398D03*
X364938Y151398D03*
D11*
X351398Y60062D03*
X351398Y47062D03*
D10*
X439478Y151858D03*
X426478Y151858D03*
D14*
X326488Y134846D03*
X320138Y134846D03*
X313788Y134846D03*
X307438Y134846D03*
X301088Y134846D03*
X294738Y134846D03*
X288388Y134846D03*
X326488Y77950D03*
X320138Y77950D03*
X313788Y77950D03*
X307438Y77950D03*
X301088Y77950D03*
X294738Y77950D03*
X288388Y77950D03*
D13*
X239338Y399778D02*
X239338Y415018D01*
X264738Y415018D02*
X264738Y399778D01*
X290138Y399778D02*
X290138Y415018D01*
X315538Y415018D02*
X315538Y399778D01*
D15*
X178378Y171816D03*
X170504Y171816D03*
X162376Y171816D03*
X154502Y171816D03*
X146374Y171816D03*
X138500Y171816D03*
X130372Y171816D03*
X122498Y171816D03*
D16*
X108020Y157338D03*
X108020Y149464D03*
X108020Y141336D03*
X108020Y133462D03*
X108020Y125334D03*
X108020Y117460D03*
X108020Y109332D03*
X108020Y101458D03*
D15*
X122498Y86980D03*
X130372Y86980D03*
X138500Y86980D03*
X146374Y86980D03*
X154502Y86980D03*
X162376Y86980D03*
X170504Y86980D03*
X178378Y86980D03*
D16*
X192856Y101458D03*
X192856Y109332D03*
X192856Y117460D03*
X192856Y125334D03*
X192856Y133462D03*
X192856Y141336D03*
X192856Y149464D03*
X192856Y157338D03*
D11*
X224438Y116898D03*
X224438Y103898D03*
X211438Y103898D03*
X211438Y116898D03*
D17*
X54138Y81998D03*
X28738Y81998D03*
X54138Y107398D03*
X28738Y107398D03*
X54138Y132798D03*
X28738Y132798D03*
D18*
X76498Y323828D03*
X76498Y317328D03*
X76498Y310828D03*
X76498Y304328D03*
X76498Y297828D03*
X76498Y291328D03*
X76498Y284828D03*
X76498Y278328D03*
X76498Y271828D03*
X76498Y265328D03*
X136498Y265328D03*
X136498Y271828D03*
X136498Y278328D03*
X136498Y284828D03*
X136498Y291328D03*
X136498Y297828D03*
X136498Y304328D03*
X136498Y310828D03*
X136498Y317328D03*
X136498Y323828D03*
D10*
X98768Y336438D03*
X85768Y336438D03*
X98768Y347848D03*
X85768Y347848D03*
X61988Y343558D03*
X48988Y343558D03*
X60568Y332788D03*
X47568Y332788D03*
X77548Y253638D03*
X90548Y253638D03*
D11*
X170828Y300628D03*
X170828Y313628D03*
X143578Y332328D03*
X143578Y345328D03*
D10*
X116728Y336238D03*
X129728Y336238D03*
D11*
X160298Y313668D03*
X160298Y300668D03*
D10*
X55498Y322058D03*
X42498Y322058D03*
X51698Y300298D03*
X38698Y300298D03*
X45628Y216158D03*
X58628Y216158D03*
X135818Y253998D03*
X122818Y253998D03*
D11*
X60128Y267018D03*
X60128Y254018D03*
D10*
X38428Y288688D03*
X51428Y288688D03*
X205938Y205398D03*
X218938Y205398D03*
X204938Y218398D03*
X217938Y218398D03*
D11*
X205602Y263938D03*
X205602Y250938D03*
X167398Y205062D03*
X167398Y218062D03*
D10*
X178938Y328398D03*
X165938Y328398D03*
X172938Y363398D03*
X159938Y363398D03*
D11*
X204398Y355062D03*
X204398Y368062D03*
D19*
X20438Y268898D03*
X20438Y259398D03*
X20438Y249898D03*
X46438Y249898D03*
X46438Y268898D03*
D10*
X54618Y172198D03*
X41618Y172198D03*
D20*
X28438Y192398D03*
D21*
X469408Y261744D03*
X469408Y246504D03*
D22*
X354616Y214072D03*
X369856Y214072D03*
D10*
X403500Y46000D03*
X390500Y46000D03*
D11*
X341000Y80500D03*
X341000Y93500D03*
X403000Y151500D03*
X403000Y164500D03*
X477000Y229500D03*
X477000Y216500D03*
X464000Y229500D03*
X464000Y216500D03*
X447000Y228500D03*
X447000Y215500D03*
X473000Y142500D03*
X473000Y129500D03*
X257000Y306500D03*
X257000Y319500D03*
D23*
X56403Y280628D02*
X46453Y280628D01*
X44368Y282713D01*
X60603Y284828D02*
X76498Y284828D01*
X44368Y282748D02*
X44368Y282713D01*
X56403Y280628D02*
X60603Y284828D01*
X44368Y282748D02*
X38428Y288688D01*
X38428Y300028D01*
X38698Y300298D01*
D24*
X96898Y295858D03*
D23*
X58628Y252518D02*
X49320Y261826D01*
X58628Y238588D02*
X58628Y216158D01*
X58628Y238588D02*
X59438Y239398D01*
X122818Y253998D02*
X122838Y253998D01*
D25*
X90908Y253998D02*
X90548Y253638D01*
X122818Y253998D02*
X122818Y258018D01*
X113438Y267398D01*
D26*
X113438Y267398D03*
D23*
X114438Y268398D01*
D26*
X157438Y193398D03*
D25*
X58628Y216158D02*
X58628Y245488D01*
X58628Y252518D01*
X60128Y254018D01*
X54228Y256970D02*
X54176Y256970D01*
X49320Y261826D01*
X57180Y254018D02*
X60128Y254018D01*
X57180Y254018D02*
X54228Y256970D01*
X27757Y268898D02*
X20438Y268898D01*
X27757Y268898D02*
X34829Y261826D01*
X49320Y261826D01*
X82838Y244816D02*
X85370Y247348D01*
X85370Y248460D02*
X90548Y253638D01*
X85370Y248460D02*
X85370Y247348D01*
X59300Y244816D02*
X58628Y245488D01*
X59300Y244816D02*
X82838Y244816D01*
D27*
X87868Y284828D02*
X76498Y284828D01*
X87868Y284828D02*
X87938Y284898D01*
X87938Y286898D01*
X96898Y295858D01*
X90548Y282288D02*
X90548Y253638D01*
X90548Y282288D02*
X87938Y284898D01*
D28*
X122818Y253998D02*
X122818Y207858D01*
X139208Y191468D01*
X144288Y191468D01*
X155508Y191468D01*
X157438Y193398D01*
X146374Y189382D02*
X146374Y171816D01*
X146374Y189382D02*
X144288Y191468D01*
X162376Y188460D02*
X162376Y171816D01*
X162376Y188460D02*
X157438Y193398D01*
D27*
X136498Y271828D02*
X117868Y271828D01*
X114438Y268398D01*
D29*
X78850Y368550D03*
D26*
X281438Y348398D03*
D27*
X280738Y347698D02*
X280738Y336846D01*
X280738Y347698D02*
X281438Y348398D01*
X281438Y359598D01*
X282738Y360898D01*
D26*
X324438Y365398D03*
X254438Y359398D03*
D27*
X274388Y345458D02*
X274388Y336846D01*
X274388Y345458D02*
X274374Y345472D01*
X274374Y356262D02*
X269738Y360898D01*
X274374Y356262D02*
X274374Y345472D01*
X310938Y365698D02*
X321138Y365698D01*
X324438Y365398D01*
D30*
X269738Y360898D02*
X255938Y360898D01*
X254438Y359398D01*
D27*
X306938Y347808D02*
X310938Y352698D01*
X306938Y347808D02*
X306138Y342008D01*
X306138Y336846D01*
X310938Y352698D02*
X326738Y352698D01*
X330038Y348398D01*
D28*
X358738Y371298D02*
X358738Y403898D01*
X361838Y406998D01*
X358738Y371298D02*
X342138Y371298D01*
X341438Y371998D01*
D27*
X304858Y375012D02*
X300624Y371778D01*
X300624Y351823D01*
X304858Y375012D02*
X325814Y375012D01*
X332828Y374998D01*
X341438Y371998D01*
X299788Y343906D02*
X299788Y336846D01*
X299788Y343906D02*
X300800Y344918D01*
X300800Y347999D01*
X300624Y351823D01*
D30*
X341438Y358998D02*
X347338Y353098D01*
D26*
X365000Y353000D03*
D28*
X360902Y353098D01*
X347338Y353098D01*
D23*
X241638Y246498D02*
X239538Y246498D01*
X306138Y272629D02*
X306138Y279950D01*
X305438Y229398D02*
X304872Y226964D01*
D26*
X305438Y229398D03*
D27*
X306138Y230098D01*
X306138Y271988D02*
X306138Y272629D01*
X306138Y271988D02*
X305424Y271274D01*
X305424Y265422D01*
X306138Y264708D01*
X306138Y230098D01*
D28*
X255388Y232748D02*
X241638Y246498D01*
X296518Y220478D02*
X296518Y213051D01*
X296518Y220478D02*
X305438Y229398D01*
X255388Y232748D02*
X255388Y222021D01*
X271091Y206318D01*
X289785Y206318D01*
X296518Y213051D01*
D26*
X312488Y268348D03*
D27*
X312488Y279950D01*
X280738Y279950D02*
X280738Y262598D01*
X274738Y256598D01*
X280738Y279950D02*
X280738Y287918D01*
X279368Y289288D01*
X268748Y289288D01*
X263668Y284208D01*
X263668Y284008D01*
X258778Y279118D01*
D26*
X241438Y211398D03*
D27*
X274388Y279068D02*
X274388Y279950D01*
X260232Y264912D02*
X256658Y264912D01*
X260232Y264912D02*
X274388Y279068D01*
X251244Y259498D02*
X241638Y259498D01*
X251244Y259498D02*
X256658Y264912D01*
D28*
X232308Y251999D02*
X232308Y240997D01*
X232308Y251999D02*
X235137Y254828D01*
X236968Y254828D01*
X241438Y231867D02*
X241438Y211398D01*
X241438Y231867D02*
X232308Y240997D01*
X236968Y254828D02*
X241638Y259498D01*
D26*
X274438Y214398D03*
D28*
X261738Y227098D01*
X261738Y256598D01*
D27*
X390388Y336846D02*
X396738Y336846D01*
D25*
X390388Y336846D02*
X389316Y335576D01*
X369038Y315298D01*
D27*
X422138Y336846D02*
X428488Y336846D01*
D25*
X430960Y335576D02*
X449738Y316798D01*
X430960Y335576D02*
X428488Y336846D01*
D26*
X403088Y257048D03*
D27*
X403088Y279950D01*
X403088Y290928D01*
X410988Y298828D01*
X444768Y298828D01*
X449738Y303798D01*
X396738Y279950D02*
X396738Y272098D01*
X389738Y268098D01*
X396738Y279950D02*
X396738Y290218D01*
X393208Y293748D02*
X377588Y293748D01*
X369038Y302298D01*
X393208Y293748D02*
X396738Y290218D01*
D23*
X376738Y268098D02*
X375238Y268098D01*
D27*
X382424Y273784D02*
X382424Y274178D01*
X382424Y273784D02*
X376738Y268098D01*
X390388Y279950D02*
X389466Y281220D01*
X382424Y274178D01*
D26*
X419394Y247327D03*
D28*
X381408Y261597D02*
X381408Y263428D01*
X376738Y268098D01*
X395678Y247327D02*
X419394Y247327D01*
X395678Y247327D02*
X381408Y261597D01*
D26*
X420438Y257298D03*
D27*
X415788Y271650D02*
X415788Y279950D01*
X420438Y257438D02*
X420438Y257298D01*
X420438Y257438D02*
X420116Y256116D01*
X420116Y267322D01*
X415788Y271650D01*
D26*
X326522Y297698D03*
D27*
X316522Y297478D01*
X315000Y298000D01*
X308104Y297698D01*
X299788Y289382D01*
X299788Y279950D01*
X312488Y336846D02*
X327860Y336576D01*
X330038Y335398D01*
D26*
X330000Y317000D03*
D28*
X330000Y335436D01*
X327860Y336576D01*
D27*
X287088Y279950D02*
X287088Y243348D01*
X286938Y243198D01*
X403088Y336846D02*
X403088Y342534D01*
D28*
X403088Y360068D01*
X388128Y375028D01*
X388128Y406108D01*
X387238Y406998D01*
X438038Y406998D02*
X438038Y374138D01*
X416068Y352168D01*
X416068Y348104D01*
D27*
X415788Y347824D02*
X415788Y336846D01*
X415788Y347824D02*
X416068Y348104D01*
D26*
X428438Y266398D03*
D27*
X422434Y275111D02*
X422138Y275407D01*
X422434Y275111D02*
X422434Y272566D01*
X428000Y267000D01*
X428000Y266960D01*
X428438Y266398D01*
X422138Y275407D02*
X422138Y279950D01*
D26*
X469438Y318398D03*
D28*
X469415Y282999D01*
X469408Y271428D01*
X469408Y261744D01*
D27*
X430267Y282999D02*
X428488Y279950D01*
X430267Y282999D02*
X469415Y282999D01*
D26*
X185438Y261398D03*
X223438Y265398D03*
D23*
X217048Y331848D02*
X217048Y336706D01*
X223438Y265398D02*
X222768Y265068D01*
D27*
X217048Y269788D02*
X217048Y279810D01*
X217048Y269788D02*
X223438Y265398D01*
D28*
X218938Y205398D02*
X220111Y204180D01*
X240049Y193777D02*
X245888Y194008D01*
D27*
X191648Y277608D02*
X191648Y279810D01*
D28*
X245888Y194008D02*
X333552Y194008D01*
X354616Y214072D01*
D27*
X191648Y277608D02*
X185438Y271398D01*
X185438Y261398D01*
X217048Y279810D02*
X217048Y290048D01*
X228000Y300000D01*
X228000Y307000D01*
X225424Y309576D02*
X224674Y311576D01*
X217048Y319202D01*
X225424Y309576D02*
X228000Y307000D01*
X217048Y319202D02*
X217048Y336706D01*
D28*
X240049Y195952D02*
X240049Y193777D01*
X240049Y195952D02*
X230000Y206000D01*
X221931Y206000D01*
X220111Y204180D01*
X218938Y205398D02*
X218938Y217398D01*
X217938Y218398D01*
D25*
X223438Y223898D02*
X223438Y265398D01*
X223438Y223898D02*
X217938Y218398D01*
D27*
X287088Y322248D02*
X287088Y336846D01*
X287088Y322248D02*
X283988Y319148D01*
X259588Y319148D01*
D25*
X245538Y319498D02*
X245438Y319398D01*
D27*
X245438Y319746D01*
X229748Y336706D01*
X223398Y336706D01*
D25*
X245538Y319498D02*
X256998Y319498D01*
X257000Y319500D01*
X259236Y319500D01*
X259588Y319148D01*
D27*
X245086Y279810D02*
X229748Y279810D01*
X245086Y279810D02*
X245778Y279118D01*
X229748Y279810D02*
X223398Y279810D01*
D23*
X426388Y62748D02*
X427552Y50388D01*
X427438Y51398D01*
D26*
X427438Y51398D03*
X410438Y108398D03*
X304438Y111398D03*
X218088Y303398D03*
X296438Y268398D03*
X411438Y263398D03*
D27*
X409438Y265398D02*
X409438Y279950D01*
X409438Y265398D02*
X411438Y263398D01*
X210698Y279810D02*
X210698Y293788D01*
X218088Y303398D01*
X307438Y119398D02*
X304438Y111398D01*
D28*
X366388Y88629D02*
X366388Y80498D01*
X366388Y88629D02*
X386157Y108398D01*
X404000Y108398D02*
X410438Y108398D01*
X404000Y108398D02*
X386157Y108398D01*
X427038Y73978D02*
X427038Y62098D01*
X427038Y73978D02*
X426388Y74628D01*
X427038Y62098D02*
X426902Y51038D01*
X427552Y50388D01*
X426388Y74628D02*
X426388Y80398D01*
X426388Y74628D02*
X426388Y62748D01*
X427038Y62098D01*
D27*
X293438Y271398D02*
X293438Y279950D01*
X293438Y271398D02*
X296438Y268398D01*
X307438Y134846D02*
X307438Y119398D01*
D26*
X395000Y219000D03*
D28*
X403000Y151500D02*
X403000Y109398D01*
X404000Y108398D01*
X362859Y60062D02*
X351398Y60062D01*
X366388Y63591D02*
X366388Y80498D01*
X366388Y63591D02*
X362859Y60062D01*
D26*
X218438Y347398D03*
D31*
X293438Y348398D02*
X293438Y349398D01*
D26*
X293438Y348398D03*
D23*
X307438Y85398D02*
X307438Y77950D01*
X307438Y85398D02*
X301438Y90398D01*
D26*
X301438Y90398D03*
D23*
X365438Y175398D02*
X366438Y176398D01*
D26*
X366438Y176398D03*
D23*
X426438Y167398D02*
X426478Y167358D01*
D26*
X426438Y167398D03*
X425438Y383398D03*
D27*
X409438Y366898D02*
X409438Y336846D01*
X409438Y366898D02*
X412338Y369798D01*
D28*
X423538Y369798D01*
X426228Y372488D01*
X426228Y381188D01*
X425438Y383398D01*
D27*
X293438Y348398D02*
X293438Y336846D01*
X210698Y336706D02*
X210698Y344918D01*
X212868Y347088D01*
X218128Y347088D01*
X218438Y347398D01*
D28*
X426388Y151768D02*
X426388Y132398D01*
X426388Y151768D02*
X426478Y151858D01*
X426478Y167358D01*
X366388Y149948D02*
X366388Y132498D01*
X366388Y149948D02*
X364938Y151398D01*
X364938Y165898D01*
X366438Y176398D01*
D23*
X167438Y328398D02*
X165938Y328398D01*
X167438Y328398D02*
X168438Y327398D01*
D26*
X173220Y347236D03*
D27*
X188468Y339468D02*
X190500Y338436D01*
D28*
X172938Y339468D02*
X165938Y328398D01*
X172938Y339468D02*
X172938Y346954D01*
X173220Y347236D01*
D27*
X172938Y339468D02*
X188468Y339468D01*
D28*
X173220Y347236D02*
X162000Y354236D01*
X161068Y357168D01*
X161068Y362268D01*
X159938Y363398D01*
D27*
X191648Y338288D02*
X191648Y336706D01*
X191648Y338288D02*
X188468Y339468D01*
D23*
X54508Y324848D02*
X54508Y324813D01*
X54508Y324848D02*
X47568Y332788D01*
X54508Y324813D02*
X57263Y322058D01*
X55498Y322058D01*
X57263Y322058D02*
X57498Y321823D01*
D26*
X21438Y287398D03*
D23*
X46568Y332528D02*
X47568Y332788D01*
X46568Y332528D02*
X46438Y332398D01*
D26*
X143438Y369398D03*
D27*
X76498Y304328D02*
X67668Y304328D01*
X63008Y308988D01*
X60468Y308988D01*
X55388Y314068D01*
X55388Y321948D01*
X55498Y322058D01*
X21438Y287398D02*
X21098Y287398D01*
X12748Y293748D01*
X12748Y306448D01*
X18828Y311528D01*
X29146Y311528D01*
X32040Y313422D01*
X53742Y313422D02*
X55388Y314068D01*
X53742Y313422D02*
X32040Y313422D01*
D28*
X130372Y104908D02*
X130372Y86980D01*
X130372Y104908D02*
X136160Y110696D01*
D26*
X136160Y110696D03*
X337148Y123540D03*
X472000Y85064D03*
D25*
X28438Y185378D02*
X28438Y192398D01*
X28438Y185378D02*
X41618Y172198D01*
X68468Y141336D02*
X108020Y141336D01*
X58976Y150828D02*
X52848Y150828D01*
X41672Y162004D01*
X41672Y172144D01*
X41618Y172198D01*
X58976Y150828D02*
X68468Y141336D01*
D26*
X146438Y302398D03*
D23*
X143808Y300768D01*
X143808Y288353D01*
X140283Y284828D02*
X136498Y284828D01*
X140283Y284828D02*
X143808Y288353D01*
X150259Y288208D02*
X154248Y284219D01*
X154248Y278577D01*
X143953Y288208D02*
X143808Y288353D01*
X148618Y271947D02*
X148618Y210398D01*
X150259Y288208D02*
X143953Y288208D01*
X154248Y278577D02*
X148618Y271947D01*
X148618Y210398D02*
X152438Y210398D01*
X154438Y211398D01*
D26*
X154438Y211398D03*
X123438Y192398D03*
D23*
X54168Y297828D02*
X51698Y300298D01*
D26*
X22438Y299398D03*
D23*
X31638Y306273D02*
X33723Y308358D01*
X43673Y308358D01*
X45758Y306273D01*
X31638Y304598D02*
X22438Y299398D01*
X31638Y304598D02*
X31638Y306273D01*
X45758Y306273D02*
X45758Y306238D01*
X51698Y300298D01*
X46438Y249898D02*
X45628Y249088D01*
X30438Y216398D02*
X30678Y216158D01*
D26*
X30438Y216398D03*
X220438Y74398D03*
X88150Y76398D03*
X139438Y144398D03*
D28*
X220438Y88408D02*
X220438Y74398D01*
X220438Y88408D02*
X222438Y102408D01*
X224438Y103898D01*
D25*
X45628Y216158D02*
X30678Y216158D01*
X45628Y216158D02*
X45628Y249088D01*
D27*
X54168Y297828D02*
X76498Y297828D01*
D28*
X154502Y171816D02*
X154502Y158502D01*
X149368Y153368D01*
X144288Y153368D02*
X141748Y153368D01*
X144288Y153368D02*
X149368Y153368D01*
X138500Y156616D02*
X138500Y171816D01*
X138500Y156616D02*
X141748Y153368D01*
X144288Y153368D02*
X144288Y149248D01*
X139438Y144398D01*
D32*
X90440Y131016D03*
D28*
X316938Y42298D02*
X323538Y42298D01*
X331038Y49798D01*
D27*
X320138Y67852D02*
X320138Y77950D01*
X322724Y57718D02*
X324958Y55484D01*
X325352Y55484D01*
X331038Y49798D01*
X322724Y65266D02*
X320138Y67852D01*
X322724Y65266D02*
X322724Y57718D01*
D23*
X319438Y162998D02*
X319038Y164298D01*
D28*
X319538Y162898D02*
X332838Y162898D01*
X319538Y162898D02*
X319438Y162998D01*
D27*
X320138Y162298D02*
X320138Y134846D01*
X320138Y162298D02*
X319438Y162998D01*
X331038Y72618D02*
X331038Y62798D01*
D28*
X340368Y55299D02*
X340368Y44297D01*
X340368Y55299D02*
X337539Y58128D01*
X327338Y31267D02*
X327338Y29998D01*
X335708Y58128D02*
X337539Y58128D01*
X335708Y58128D02*
X331038Y62798D01*
X340368Y44297D02*
X327338Y31267D01*
D27*
X326436Y76220D02*
X326488Y77950D01*
X326436Y76220D02*
X331038Y72618D01*
D23*
X324738Y178498D02*
X322338Y178498D01*
D28*
X332838Y149898D02*
X334873Y149898D01*
X342898Y157923D01*
X342898Y175738D01*
X339868Y178768D02*
X322608Y178768D01*
X322338Y178498D01*
X339868Y178768D02*
X342898Y175738D01*
D27*
X332838Y149898D02*
X326488Y143548D01*
X326488Y134846D01*
D28*
X292338Y166198D02*
X290507Y166198D01*
X283503Y158203D01*
X276243Y158203D01*
D27*
X292338Y166198D02*
X294738Y163798D01*
X301088Y141912D02*
X301088Y134846D01*
X301088Y141912D02*
X299000Y144000D01*
X296000Y144000D01*
X293000Y147000D01*
X293000Y165536D01*
X292338Y166198D01*
D26*
X273191Y155003D03*
D28*
X276243Y158055D01*
X276243Y158203D01*
D27*
X301088Y77950D02*
X301088Y71088D01*
X291000Y62000D01*
X291000Y53860D01*
X288538Y47398D01*
D26*
X299000Y21000D03*
D25*
X286000Y21000D01*
X276000Y31000D01*
X276000Y42000D01*
X280398Y47398D01*
X288538Y47398D01*
D23*
X289673Y178198D02*
X292338Y179198D01*
X295338Y180398D01*
D28*
X292338Y179198D02*
X303000Y179198D01*
X308638Y179198D01*
X309338Y178498D01*
D26*
X359000Y197000D03*
D27*
X352179Y188000D01*
X309644Y179198D02*
X303000Y179198D01*
X309644Y179198D02*
X317258Y186812D01*
X351367Y186812D02*
X352179Y188000D01*
X351367Y186812D02*
X317258Y186812D01*
D23*
X288538Y34398D02*
X288673Y33398D01*
X288605Y33331D01*
X291938Y29998D01*
X288605Y33331D02*
X288538Y34398D01*
D28*
X288538Y33398D01*
X291938Y29998D01*
X314338Y29998D01*
X332839Y20668D02*
X334171Y22000D01*
X332839Y20668D02*
X321837Y20668D01*
X319008Y23497D01*
X319008Y25328D01*
X314338Y29998D01*
X334171Y22000D02*
X424500Y22000D01*
D26*
X424500Y22000D03*
X246438Y83398D03*
D28*
X250086Y83398D01*
D33*
X259096Y92408D03*
D28*
X259096Y83398D02*
X246438Y83398D01*
X259096Y83398D02*
X259096Y92408D01*
D27*
X288388Y77950D02*
X294738Y77950D01*
X288388Y77950D02*
X288388Y80612D01*
X280000Y92000D01*
X272619Y92000D01*
X265017Y83398D02*
X259096Y83398D01*
X265017Y83398D02*
X272619Y92000D01*
D26*
X469000Y35000D03*
D25*
X337000Y13000D02*
X336572Y13428D01*
D28*
X433428Y13428D01*
X455000Y35000D01*
X469000Y35000D01*
X336572Y13428D02*
X302855Y13428D01*
X302347Y12920D01*
X246158Y82678D02*
X246438Y83398D01*
X246158Y82678D02*
X246158Y45292D01*
X279530Y12920D01*
X302347Y12920D01*
D26*
X253938Y128898D03*
D27*
X254282Y129242D02*
X254374Y129334D01*
X261636Y129334D01*
X254374Y129334D02*
X253502Y129334D01*
X253938Y128898D01*
X261636Y129334D02*
X261636Y120348D01*
X259096Y117808D01*
D33*
X259096Y117808D03*
D27*
X261636Y129334D02*
X284146Y129334D01*
X288388Y134846D01*
X294738Y134846D01*
D26*
X337013Y138987D03*
D27*
X212252Y101712D02*
X211438Y103898D01*
X212252Y83576D02*
X194127Y68450D01*
X212252Y83576D02*
X212252Y101712D01*
X102552Y67552D02*
X101202Y66552D01*
X102552Y67552D02*
X108000Y71000D01*
X88148Y49498D02*
X86538Y49498D01*
X88148Y49498D02*
X101202Y66552D01*
X108000Y71000D02*
X163450Y71000D01*
X169000Y68450D01*
X192976Y68450D02*
X194127Y68450D01*
X192976Y68450D02*
X192874Y68552D01*
X183402Y68552D01*
X183300Y68450D01*
X169000Y68450D01*
D25*
X230280Y95628D02*
X233260Y98608D01*
X233260Y125284D01*
X138229Y49498D02*
X137338Y49498D01*
X138229Y49498D02*
X157791Y29936D01*
X230280Y41731D02*
X230280Y95628D01*
X230280Y41731D02*
X218485Y29936D01*
X157791Y29936D01*
X192856Y141336D02*
X217208Y141336D01*
X233260Y125284D01*
D23*
X113907Y49498D02*
X111938Y49498D01*
D25*
X112829Y49498D01*
X137725Y22602D01*
X220694Y22602D01*
X238594Y40502D01*
X238594Y89000D01*
X218624Y149464D02*
X192856Y149464D01*
X218624Y149464D02*
X238594Y129494D01*
X238594Y129406D01*
X244000Y124000D01*
X244000Y94406D01*
X238594Y89000D01*
D26*
X216438Y131398D03*
D28*
X214374Y133462D02*
X192856Y133462D01*
X214374Y133462D02*
X216438Y131398D01*
D27*
X211438Y116898D02*
X224438Y116898D01*
X224438Y123398D01*
X216438Y131398D01*
D23*
X122498Y86980D02*
X121916Y86398D01*
D25*
X42196Y86945D02*
X42196Y77051D01*
X49191Y70056D01*
X59085Y70056D01*
X75427Y86398D01*
X121916Y86398D01*
X54138Y98887D02*
X54138Y107398D01*
X54138Y98887D02*
X42196Y86945D01*
X73598Y101458D02*
X108020Y101458D01*
X73598Y101458D02*
X54138Y81998D01*
X28738Y107398D02*
X28738Y108698D01*
X39438Y119398D01*
X83234Y109332D02*
X108020Y109332D01*
X83234Y109332D02*
X73168Y119398D01*
X39438Y119398D01*
D26*
X14438Y277398D03*
D23*
X46438Y268898D02*
X48098Y270558D01*
D27*
X58086Y275564D02*
X60850Y278328D01*
X53104Y275564D02*
X48098Y270558D01*
X53104Y275564D02*
X58086Y275564D01*
X60850Y278328D02*
X76498Y278328D01*
D25*
X46438Y268898D02*
X37300Y268898D01*
X30228Y275970D02*
X15866Y275970D01*
X14438Y277398D01*
X30228Y275970D02*
X37300Y268898D01*
D27*
X67882Y338868D02*
X65648Y341102D01*
X64444Y341102D01*
X61988Y343558D01*
X67882Y338868D02*
X67882Y321800D01*
X72354Y317328D02*
X76498Y317328D01*
X72354Y317328D02*
X67882Y321800D01*
D23*
X143723Y277888D02*
X143808Y274803D01*
X139938Y277888D02*
X136498Y278328D01*
X139938Y277888D02*
X143723Y277888D01*
X143438Y211398D02*
X143808Y210768D01*
X143808Y274803D01*
D26*
X147438Y281398D03*
D23*
X146233Y281398D01*
X143723Y277888D01*
X143808Y210768D02*
X137068Y210768D01*
X135438Y210398D01*
D26*
X135438Y210398D03*
D33*
X77264Y152352D03*
D28*
X91456Y149464D02*
X108020Y149464D01*
X91456Y149464D02*
X82152Y149464D01*
X77264Y152352D01*
D27*
X91456Y149464D02*
X91456Y156924D01*
X71199Y167938D02*
X65450Y173687D01*
X71199Y167938D02*
X80442Y167938D01*
D26*
X114316Y314068D03*
D27*
X80442Y167938D02*
X91456Y156924D01*
X104212Y303964D02*
X114316Y314068D01*
X104212Y303964D02*
X104212Y292828D01*
X97862Y286478D01*
X65450Y191000D02*
X65450Y173687D01*
X65450Y191000D02*
X97862Y223412D01*
X97862Y286478D01*
X135312Y290142D02*
X136498Y291328D01*
X135312Y290142D02*
X126192Y290142D01*
X104374Y268324D01*
X104374Y160984D02*
X108020Y157338D01*
X104374Y177752D02*
X104374Y268324D01*
X104374Y177752D02*
X104374Y160984D01*
D33*
X77264Y177752D03*
D28*
X104374Y177752D01*
D23*
X51428Y288688D02*
X54068Y291328D01*
D27*
X76498Y291328D01*
X76498Y271828D02*
X64938Y271828D01*
X60128Y267018D01*
D23*
X135818Y264648D02*
X136498Y265328D01*
D27*
X135818Y264648D02*
X135818Y253998D01*
D23*
X83523Y334193D02*
X85768Y336438D01*
D25*
X85768Y347848D01*
D27*
X76498Y327168D02*
X76498Y323828D01*
X76498Y327168D02*
X83523Y334193D01*
D23*
X98768Y346398D02*
X98768Y347848D01*
X49278Y343558D02*
X48988Y343558D01*
X49278Y343558D02*
X49438Y343398D01*
X49148Y343398D01*
X48988Y343558D01*
D29*
X88438Y387308D03*
D26*
X189438Y303398D03*
X115438Y301398D03*
D23*
X99838Y345328D02*
X98768Y346398D01*
X42498Y322338D02*
X42498Y322058D01*
X42498Y322338D02*
X42438Y322398D01*
D26*
X74438Y214398D03*
D23*
X439088Y135588D02*
X439088Y132398D01*
X303938Y60898D02*
X302438Y61398D01*
X301438Y61398D01*
D26*
X301438Y61398D03*
X383438Y167398D03*
D23*
X439438Y167398D02*
X439438Y168398D01*
D26*
X439438Y167398D03*
X440438Y51398D03*
X273438Y136398D03*
X273438Y80398D03*
D23*
X306438Y149398D02*
X306438Y150398D01*
D26*
X306438Y150398D03*
D23*
X245438Y306398D02*
X245538Y306498D01*
D26*
X306638Y310198D03*
X288438Y216398D03*
X398838Y299398D03*
X375438Y284398D03*
D23*
X306638Y310198D02*
X302938Y306498D01*
X190938Y367898D02*
X190438Y368398D01*
D26*
X190438Y368398D03*
D23*
X161168Y313668D02*
X160298Y313668D01*
X161168Y313668D02*
X161438Y313398D01*
D26*
X159438Y341398D03*
X472438Y156868D03*
D25*
X306038Y149798D02*
X306038Y164298D01*
X306038Y149798D02*
X306438Y149398D01*
D23*
X116728Y336238D02*
X116528Y336438D01*
D26*
X381438Y361398D03*
X156438Y243398D03*
D28*
X412338Y382798D02*
X412338Y406698D01*
X412638Y406998D01*
D25*
X204398Y368062D02*
X190938Y367898D01*
X145578Y345798D02*
X143578Y345328D01*
X116728Y336238D02*
X98968Y336238D01*
X98768Y336438D01*
X98768Y347848D01*
D28*
X439478Y168358D02*
X439478Y151858D01*
X439478Y168358D02*
X439438Y168398D01*
X439478Y151858D02*
X439478Y135978D01*
X439088Y135588D01*
X413688Y132398D02*
X413688Y120188D01*
X421148Y112728D01*
X433848Y112728D01*
X438928Y117808D01*
X438928Y132238D01*
X439088Y132398D01*
X354688Y121768D02*
X353688Y132498D01*
X354688Y121768D02*
X362728Y112728D01*
X372888Y112728D01*
X379088Y118928D02*
X379088Y132498D01*
X379088Y118928D02*
X372888Y112728D01*
X379088Y132498D02*
X379088Y150248D01*
X377938Y151398D01*
X439088Y63048D02*
X440038Y62098D01*
X381438Y361398D02*
X381438Y361598D01*
X371738Y371298D01*
X303938Y60898D02*
X303938Y42298D01*
D27*
X40254Y338868D02*
X42488Y341102D01*
X40254Y338868D02*
X40254Y326708D01*
X46532Y341102D02*
X48988Y343558D01*
X46532Y341102D02*
X42488Y341102D01*
X40254Y326708D02*
X42498Y324464D01*
X42498Y322058D01*
X124868Y310828D02*
X136498Y310828D01*
X124868Y310828D02*
X115438Y301398D01*
D25*
X273438Y136398D02*
X272938Y135898D01*
D28*
X154502Y97034D02*
X154502Y86980D01*
D26*
X168688Y109220D03*
D28*
X154502Y97034D01*
D30*
X245438Y306398D02*
X302838Y306398D01*
X306638Y310198D01*
D26*
X224600Y190800D03*
D30*
X98308Y371340D02*
X88438Y387308D01*
X98308Y371340D02*
X98768Y354200D01*
X98768Y347848D01*
X143528Y347848D01*
X145578Y345798D01*
X143578Y345328D02*
X150508Y345328D01*
X159438Y341398D01*
X160298Y313668D02*
X171168Y313668D01*
X171208Y313628D01*
X171128Y313628D02*
X170828Y313628D01*
X171128Y313628D02*
X171168Y313668D01*
X88438Y387308D02*
X61858Y387308D01*
X48988Y372438D02*
X48988Y343558D01*
X48988Y372438D02*
X61858Y387308D01*
D26*
X227600Y318640D03*
D25*
X212602Y250602D02*
X205602Y250938D01*
X212602Y250602D02*
X215000Y251000D01*
D26*
X215000Y251000D03*
X345166Y133346D03*
D28*
X352840Y133346D01*
X353688Y132498D01*
X403000Y164500D02*
X416500Y178000D01*
X432000Y178000D02*
X439438Y170562D01*
X439438Y168398D01*
X432000Y178000D02*
X416500Y178000D01*
X440038Y62098D02*
X440038Y54798D01*
X440438Y51398D01*
X273938Y238000D02*
X273938Y243198D01*
D26*
X362000Y48000D03*
D28*
X361062Y47062D01*
X351398Y47062D01*
X472438Y143062D02*
X472438Y156868D01*
X472438Y143062D02*
X473000Y142500D01*
X447000Y228500D02*
X418500Y228500D01*
X416000Y231000D01*
D26*
X416000Y231000D03*
D25*
X257000Y306500D02*
X256898Y306398D01*
X245438Y306398D01*
D28*
X383438Y156898D02*
X377938Y151398D01*
X383438Y156898D02*
X383438Y167398D01*
X179208Y313628D02*
X171208Y313628D01*
X170828Y313628D01*
X179208Y313628D02*
X189438Y303398D01*
X157608Y334899D02*
X159438Y336729D01*
X159438Y341398D01*
X157608Y316358D02*
X160298Y313668D01*
X157608Y316358D02*
X157608Y334899D01*
X273938Y230898D02*
X288438Y216398D01*
X273938Y230898D02*
X273938Y238000D01*
D23*
X77548Y264278D02*
X76498Y265328D01*
D25*
X77548Y264278D02*
X77548Y253638D01*
D27*
X62812Y316804D02*
X62812Y328138D01*
X60568Y330382D02*
X60568Y332788D01*
X60568Y330382D02*
X62812Y328138D01*
X68788Y310828D02*
X76498Y310828D01*
X68788Y310828D02*
X62812Y316804D01*
D25*
X204938Y218398D02*
X205336Y205398D01*
X202000Y205062D01*
X193000Y205062D02*
X167398Y205062D01*
X193000Y205062D02*
X202000Y205062D01*
D27*
X197998Y273000D02*
X197998Y279810D01*
X193000Y268002D02*
X193000Y205062D01*
X193000Y268002D02*
X197998Y273000D01*
D28*
X205938Y217398D02*
X205938Y205398D01*
X205938Y217398D02*
X204938Y218398D01*
D23*
X160338Y300628D02*
X160298Y300668D01*
X136568Y317398D02*
X136498Y317328D01*
D27*
X154218Y306354D02*
X154612Y306354D01*
X160298Y300668D01*
X143244Y317328D02*
X136498Y317328D01*
X143244Y317328D02*
X154218Y306354D01*
D25*
X160298Y300668D02*
X170788Y300668D01*
X170828Y300628D01*
D26*
X185737Y244828D03*
D28*
X170828Y259737D01*
X170828Y300628D01*
D26*
X200438Y321398D03*
D27*
X174378Y359398D02*
X172938Y363398D01*
X174378Y359398D02*
X182388Y359408D01*
X183388Y358612D01*
X198000Y345000D01*
X198000Y335438D01*
X197998Y336706D01*
X197998Y327915D01*
X180588Y326748D02*
X178938Y328398D01*
D28*
X185938Y321398D01*
X200438Y321398D01*
D27*
X200438Y325475D02*
X197998Y327915D01*
X200438Y325475D02*
X200438Y321398D01*
D25*
X136668Y334388D02*
X134818Y336238D01*
X136668Y334388D02*
X143518Y334388D01*
X143578Y332328D01*
X134818Y336238D02*
X129728Y336238D01*
D27*
X136498Y323828D02*
X137078Y323828D01*
X143578Y332328D01*
D25*
X22116Y213365D02*
X27405Y208076D01*
X22116Y247220D02*
X20438Y249898D01*
X22116Y247220D02*
X22116Y213365D01*
X27405Y208076D02*
X38598Y208076D01*
X54618Y193056D02*
X54618Y172198D01*
X54618Y193056D02*
X38598Y208076D01*
D28*
X439788Y99804D02*
X447564Y100028D01*
X446796Y99796D01*
X447564Y100028D02*
X439000Y100028D01*
X388028Y100028D01*
X447564Y100028D02*
X453564Y103343D01*
X459618Y112397D01*
X465518Y164051D02*
X465518Y208564D01*
X459618Y158151D02*
X459618Y112397D01*
X459618Y158151D02*
X465518Y164051D01*
X439000Y100028D02*
X439000Y80486D01*
X439088Y80398D01*
X379088Y80498D02*
X379088Y91088D01*
X388028Y100028D01*
X465518Y208564D02*
X464000Y213082D01*
X464000Y216500D01*
X463000Y215500D02*
X447000Y215500D01*
X463000Y215500D02*
X464000Y216500D01*
D27*
X204348Y265192D02*
X204348Y279810D01*
X204348Y265192D02*
X205602Y263938D01*
X204348Y336706D02*
X204348Y355012D01*
X204398Y355062D01*
D28*
X369856Y214072D02*
X380572Y203072D01*
X390668Y202644D01*
X413528Y202644D01*
X431816Y202644D01*
X451628Y184356D01*
X451628Y181308D01*
D26*
X451628Y181308D03*
D28*
X451628Y132558D01*
X451788Y132398D01*
X413528Y202644D02*
X413528Y211788D01*
D33*
X413528Y211788D03*
D26*
X389096Y188356D03*
D28*
X391788Y178664D02*
X391788Y132498D01*
X391788Y178664D02*
X389096Y188356D01*
X391788Y178664D02*
X401740Y178664D01*
X413528Y190452D01*
D33*
X413528Y190452D03*
D25*
X353688Y80498D02*
X347000Y81000D01*
X341000Y80500D01*
D27*
X313788Y124712D02*
X313788Y134846D01*
X313788Y124712D02*
X314000Y123000D01*
X314000Y115000D01*
X341000Y93500D01*
D28*
X413688Y80398D02*
X413688Y51188D01*
X403500Y46000D01*
D26*
X379000Y46000D03*
X314000Y64000D03*
D28*
X379000Y46000D02*
X390500Y46000D01*
D27*
X313788Y67788D02*
X313788Y77950D01*
X313788Y67788D02*
X314000Y64000D01*
D28*
X178062Y218062D02*
X167398Y218062D01*
X178062Y218062D02*
X179000Y217000D01*
D26*
X179000Y218000D03*
D28*
X179000Y217000D01*
D25*
X179398Y88000D02*
X178378Y86980D01*
X179398Y88000D02*
X194000Y88000D01*
D26*
X194000Y88000D03*
X176000Y102000D03*
D25*
X170504Y96504D01*
X170504Y86980D01*
D28*
X370920Y49347D02*
X370920Y42653D01*
X391788Y70215D02*
X391788Y80498D01*
X391788Y70215D02*
X370920Y49347D01*
X370920Y42653D02*
X376903Y36670D01*
X440137Y36670D02*
X451518Y48051D01*
X451518Y80128D01*
X440137Y36670D02*
X376903Y36670D01*
X451518Y80128D02*
X451788Y80398D01*
X477000Y163732D02*
X477000Y216500D01*
X484360Y112970D02*
X451788Y80398D01*
X484360Y112970D02*
X484360Y130000D01*
X484360Y156372D01*
X477000Y163732D01*
X473000Y129500D02*
X483860Y129500D01*
X484360Y130000D01*
X464000Y229500D02*
X462000Y239096D01*
X469408Y246504D01*
X477000Y238912D02*
X477000Y229500D01*
X477000Y238912D02*
X469408Y246504D01*
M02*
