G04 EAGLE Gerber X2 export*
%TF.Part,Single*%
%TF.FileFunction,Other,Solder stop mask SOL*%
%TF.FilePolarity,Positive*%
%TF.GenerationSoftware,Autodesk,EAGLE,8.7.1*%
%TF.CreationDate,2018-04-25T07:09:38Z*%
G75*
%MOMM*%
%FSLAX34Y34*%
%LPD*%
%AMOC8*
5,1,8,0,0,1.08239X$1,22.5*%
G01*
%ADD10C,3.203200*%
%ADD11R,1.103200X0.903200*%
%ADD12R,0.903200X1.103200*%
%ADD13R,1.203200X1.303200*%
%ADD14C,1.524000*%
%ADD15C,1.727200*%
%ADD16R,1.103200X1.203200*%
%ADD17R,1.103200X1.303200*%
%ADD18P,1.649562X8X112.500000*%
%ADD19P,1.869504X8X112.500000*%
%ADD20R,1.803400X1.371600*%
%ADD21R,1.828800X0.152400*%
%ADD22R,0.953200X0.503200*%
%ADD23P,1.649562X8X22.500000*%
%ADD24P,1.869504X8X22.500000*%
%ADD25C,0.420637*%
%ADD26R,1.603200X0.803200*%
%ADD27R,1.603200X0.853200*%
%ADD28R,1.003200X0.803200*%
%ADD29R,0.803200X1.003200*%
%ADD30R,1.371600X1.803400*%
%ADD31R,0.152400X1.828800*%
%ADD32R,1.193800X0.508000*%
%ADD33R,2.003200X1.803200*%
%ADD34R,3.903200X2.003200*%
%ADD35R,2.003200X3.903200*%
%ADD36R,1.803200X2.003200*%
%ADD37R,1.303200X0.603200*%
%ADD38C,0.700000*%
%ADD39C,0.903200*%
%ADD40C,0.650000*%
%ADD41C,0.900000*%
%ADD42C,1.103200*%
%ADD43C,0.800000*%
%ADD44C,1.003200*%
%ADD45C,1.200000*%
%ADD46C,1.403200*%

G36*
X177036Y385141D02*
X177036Y385141D01*
X177135Y385144D01*
X177193Y385161D01*
X177254Y385169D01*
X177346Y385205D01*
X177441Y385233D01*
X177493Y385263D01*
X177549Y385286D01*
X177629Y385344D01*
X177715Y385394D01*
X177790Y385460D01*
X177807Y385472D01*
X177814Y385482D01*
X177836Y385501D01*
X181836Y389501D01*
X181896Y389579D01*
X181964Y389651D01*
X181993Y389704D01*
X182030Y389752D01*
X182070Y389843D01*
X182118Y389929D01*
X182133Y389988D01*
X182157Y390044D01*
X182172Y390142D01*
X182197Y390237D01*
X182203Y390337D01*
X182207Y390358D01*
X182205Y390370D01*
X182207Y390398D01*
X182207Y398398D01*
X182195Y398496D01*
X182192Y398595D01*
X182175Y398653D01*
X182167Y398714D01*
X182131Y398806D01*
X182103Y398901D01*
X182073Y398953D01*
X182050Y399009D01*
X181992Y399089D01*
X181942Y399175D01*
X181876Y399250D01*
X181864Y399267D01*
X181854Y399274D01*
X181836Y399296D01*
X177836Y403296D01*
X177757Y403356D01*
X177685Y403424D01*
X177632Y403453D01*
X177584Y403490D01*
X177493Y403530D01*
X177407Y403578D01*
X177348Y403593D01*
X177292Y403617D01*
X177194Y403632D01*
X177099Y403657D01*
X176999Y403663D01*
X176978Y403667D01*
X176966Y403665D01*
X176938Y403667D01*
X143438Y403667D01*
X143320Y403652D01*
X143201Y403645D01*
X143163Y403632D01*
X143122Y403627D01*
X143012Y403584D01*
X142899Y403547D01*
X142864Y403525D01*
X142827Y403510D01*
X142731Y403441D01*
X142630Y403377D01*
X142602Y403347D01*
X142569Y403324D01*
X142494Y403232D01*
X142412Y403145D01*
X142392Y403110D01*
X142367Y403079D01*
X142316Y402971D01*
X142258Y402867D01*
X142248Y402827D01*
X142231Y402791D01*
X142209Y402674D01*
X142179Y402559D01*
X142175Y402499D01*
X142171Y402479D01*
X142173Y402458D01*
X142169Y402398D01*
X142169Y386398D01*
X142184Y386280D01*
X142191Y386161D01*
X142204Y386123D01*
X142209Y386082D01*
X142252Y385972D01*
X142289Y385859D01*
X142311Y385824D01*
X142326Y385787D01*
X142396Y385691D01*
X142459Y385590D01*
X142489Y385562D01*
X142512Y385529D01*
X142604Y385454D01*
X142691Y385372D01*
X142726Y385352D01*
X142757Y385327D01*
X142865Y385276D01*
X142969Y385218D01*
X143009Y385208D01*
X143045Y385191D01*
X143162Y385169D01*
X143277Y385139D01*
X143338Y385135D01*
X143358Y385131D01*
X143378Y385133D01*
X143438Y385129D01*
X176938Y385129D01*
X177036Y385141D01*
G37*
G36*
X153036Y155141D02*
X153036Y155141D01*
X153135Y155144D01*
X153193Y155161D01*
X153254Y155169D01*
X153346Y155205D01*
X153441Y155233D01*
X153493Y155263D01*
X153549Y155286D01*
X153629Y155344D01*
X153715Y155394D01*
X153790Y155460D01*
X153807Y155472D01*
X153814Y155482D01*
X153836Y155501D01*
X157836Y159501D01*
X157896Y159579D01*
X157964Y159651D01*
X157993Y159704D01*
X158030Y159752D01*
X158070Y159843D01*
X158118Y159929D01*
X158133Y159988D01*
X158157Y160044D01*
X158172Y160142D01*
X158197Y160237D01*
X158203Y160337D01*
X158207Y160358D01*
X158205Y160370D01*
X158207Y160398D01*
X158207Y168398D01*
X158195Y168496D01*
X158192Y168595D01*
X158175Y168653D01*
X158167Y168714D01*
X158131Y168806D01*
X158103Y168901D01*
X158073Y168953D01*
X158050Y169009D01*
X157992Y169089D01*
X157942Y169175D01*
X157876Y169250D01*
X157864Y169267D01*
X157854Y169274D01*
X157836Y169296D01*
X153836Y173296D01*
X153757Y173356D01*
X153685Y173424D01*
X153632Y173453D01*
X153584Y173490D01*
X153493Y173530D01*
X153407Y173578D01*
X153348Y173593D01*
X153292Y173617D01*
X153194Y173632D01*
X153099Y173657D01*
X152999Y173663D01*
X152978Y173667D01*
X152966Y173665D01*
X152938Y173667D01*
X119438Y173667D01*
X119320Y173652D01*
X119201Y173645D01*
X119163Y173632D01*
X119122Y173627D01*
X119012Y173584D01*
X118899Y173547D01*
X118864Y173525D01*
X118827Y173510D01*
X118731Y173441D01*
X118630Y173377D01*
X118602Y173347D01*
X118569Y173324D01*
X118494Y173232D01*
X118412Y173145D01*
X118392Y173110D01*
X118367Y173079D01*
X118316Y172971D01*
X118258Y172867D01*
X118248Y172827D01*
X118231Y172791D01*
X118209Y172674D01*
X118179Y172559D01*
X118175Y172499D01*
X118171Y172479D01*
X118173Y172458D01*
X118169Y172398D01*
X118169Y156398D01*
X118184Y156280D01*
X118191Y156161D01*
X118204Y156123D01*
X118209Y156082D01*
X118252Y155972D01*
X118289Y155859D01*
X118311Y155824D01*
X118326Y155787D01*
X118396Y155691D01*
X118459Y155590D01*
X118489Y155562D01*
X118512Y155529D01*
X118604Y155454D01*
X118691Y155372D01*
X118726Y155352D01*
X118757Y155327D01*
X118865Y155276D01*
X118969Y155218D01*
X119009Y155208D01*
X119045Y155191D01*
X119162Y155169D01*
X119277Y155139D01*
X119338Y155135D01*
X119358Y155131D01*
X119378Y155133D01*
X119438Y155129D01*
X152938Y155129D01*
X153036Y155141D01*
G37*
D10*
X34000Y38000D03*
D11*
X254262Y303058D03*
X254262Y316058D03*
D12*
X417938Y155098D03*
X430938Y155098D03*
X331738Y71298D03*
X344738Y71298D03*
X242538Y348298D03*
X229538Y348298D03*
X295238Y80498D03*
X308238Y80498D03*
X299038Y101298D03*
X286038Y101298D03*
X410038Y283498D03*
X397038Y283498D03*
X405402Y173338D03*
X392402Y173338D03*
X307238Y335298D03*
X294238Y335298D03*
D13*
X112738Y182898D03*
X112738Y165898D03*
X91738Y152098D03*
X91738Y169098D03*
X111738Y412298D03*
X111738Y395298D03*
X133038Y380098D03*
X133038Y397098D03*
D12*
X291458Y319778D03*
X278458Y319778D03*
X328302Y281638D03*
X341302Y281638D03*
D11*
X364138Y295698D03*
X364138Y282698D03*
X305202Y255338D03*
X305202Y242338D03*
D12*
X400938Y268898D03*
X387938Y268898D03*
X398838Y312398D03*
X411838Y312398D03*
X388338Y245098D03*
X401338Y245098D03*
X415838Y299598D03*
X428838Y299598D03*
D14*
X463438Y399378D02*
X463438Y414618D01*
D15*
X463438Y399378D01*
D14*
X438038Y399378D02*
X438038Y414618D01*
D15*
X438038Y399378D01*
D14*
X412638Y399378D02*
X412638Y414618D01*
D15*
X412638Y399378D01*
D14*
X387238Y399378D02*
X387238Y414618D01*
D15*
X387238Y399378D01*
D14*
X361838Y399378D02*
X361838Y414618D01*
D15*
X361838Y399378D01*
D14*
X86538Y57118D02*
X86538Y41878D01*
D15*
X86538Y57118D01*
D14*
X111938Y57118D02*
X111938Y41878D01*
D15*
X111938Y57118D01*
D14*
X137338Y57118D02*
X137338Y41878D01*
D15*
X137338Y57118D01*
D14*
X162738Y57118D02*
X162738Y41878D01*
D15*
X162738Y57118D01*
D14*
X188138Y57118D02*
X188138Y41878D01*
D15*
X188138Y57118D01*
D14*
X213538Y57118D02*
X213538Y41878D01*
D15*
X213538Y57118D01*
D12*
X416938Y48398D03*
X403938Y48398D03*
D16*
X262438Y241398D03*
X262438Y258398D03*
D17*
X291438Y249898D03*
D14*
X239338Y399778D02*
X239338Y415018D01*
D15*
X239338Y399778D01*
D14*
X264738Y399778D02*
X264738Y415018D01*
D15*
X264738Y399778D01*
D14*
X290138Y399778D02*
X290138Y415018D01*
D15*
X290138Y399778D01*
D14*
X315538Y399778D02*
X315538Y415018D01*
D15*
X315538Y399778D01*
D18*
X54138Y81998D03*
D19*
X54138Y81998D03*
D18*
X28738Y81998D03*
D19*
X28738Y81998D03*
D18*
X54138Y107398D03*
D19*
X54138Y107398D03*
D18*
X28738Y107398D03*
D19*
X28738Y107398D03*
D18*
X54138Y132798D03*
D19*
X54138Y132798D03*
D18*
X28738Y132798D03*
D19*
X28738Y132798D03*
D11*
X72602Y78938D03*
X72602Y91938D03*
D20*
X52438Y171018D03*
X52438Y155778D03*
D21*
X52438Y163398D03*
D20*
X29438Y171018D03*
X29438Y155778D03*
D21*
X29438Y163398D03*
D22*
X69478Y270548D03*
X69478Y277048D03*
X69478Y283548D03*
X69478Y290048D03*
X69478Y296548D03*
X69478Y303048D03*
X69478Y309548D03*
X69478Y316048D03*
X69478Y322548D03*
X69478Y329048D03*
X129478Y329048D03*
X129478Y322548D03*
X129478Y316048D03*
X129478Y309548D03*
X129478Y303048D03*
X129478Y296548D03*
X129478Y290048D03*
X129478Y283548D03*
X129478Y277048D03*
X129478Y270548D03*
D12*
X44328Y316918D03*
X31328Y316918D03*
X46998Y339588D03*
X33998Y339588D03*
X111368Y245238D03*
X124368Y245238D03*
D11*
X167268Y253798D03*
X167268Y240798D03*
X145798Y249918D03*
X145798Y262918D03*
D12*
X129878Y256118D03*
X116878Y256118D03*
X44408Y306308D03*
X31408Y306308D03*
X46348Y285108D03*
X33348Y285108D03*
X115338Y340908D03*
X128338Y340908D03*
X69398Y340348D03*
X82398Y340348D03*
D11*
X69138Y259068D03*
X69138Y246068D03*
D12*
X47108Y251908D03*
X34108Y251908D03*
X33648Y263198D03*
X46648Y263198D03*
X35658Y274188D03*
X48658Y274188D03*
X188938Y336398D03*
X175938Y336398D03*
D23*
X28438Y192398D03*
D24*
X28438Y192398D03*
D25*
X14213Y403897D02*
X14213Y420723D01*
X65039Y420723D01*
X65039Y403897D01*
X14213Y403897D01*
X14213Y408102D02*
X65039Y408102D01*
X65039Y412307D02*
X14213Y412307D01*
X14213Y416512D02*
X65039Y416512D01*
X65039Y420717D02*
X14213Y420717D01*
X14213Y386723D02*
X14213Y369897D01*
X14213Y386723D02*
X65039Y386723D01*
X65039Y369897D01*
X14213Y369897D01*
X14213Y374102D02*
X65039Y374102D01*
X65039Y378307D02*
X14213Y378307D01*
X14213Y382512D02*
X65039Y382512D01*
X65039Y386717D02*
X14213Y386717D01*
D26*
X163248Y179384D03*
X163248Y149412D03*
D27*
X163248Y164398D03*
D26*
X126498Y149412D03*
X126498Y179384D03*
X187248Y409384D03*
X187248Y379412D03*
D27*
X187248Y394398D03*
D26*
X150498Y379412D03*
X150498Y409384D03*
D11*
X177438Y189898D03*
X177438Y176898D03*
D12*
X216938Y409398D03*
X203938Y409398D03*
D28*
X305412Y47882D03*
X305412Y31882D03*
D29*
X238848Y20922D03*
X222848Y20922D03*
X235712Y191048D03*
X251712Y191048D03*
X228442Y152268D03*
X212442Y152268D03*
D30*
X268748Y197928D03*
X283988Y197928D03*
D31*
X276368Y197928D03*
D32*
X373552Y89950D03*
X373552Y96300D03*
X373552Y102650D03*
X373552Y109000D03*
X373552Y115350D03*
X373552Y121700D03*
X373552Y128050D03*
X430448Y89950D03*
X430448Y96300D03*
X430448Y102650D03*
X430448Y109000D03*
X430448Y115350D03*
X430448Y121700D03*
X430448Y128050D03*
D11*
X362000Y107500D03*
X362000Y94500D03*
X325000Y139500D03*
X325000Y126500D03*
D12*
X387500Y76000D03*
X374500Y76000D03*
D11*
X316000Y94500D03*
X316000Y107500D03*
D12*
X386500Y144000D03*
X373500Y144000D03*
D11*
X339000Y99500D03*
X339000Y112500D03*
X350000Y112500D03*
X350000Y99500D03*
X443000Y107500D03*
X443000Y94500D03*
D12*
X427500Y64000D03*
X414500Y64000D03*
X418500Y76000D03*
X431500Y76000D03*
D11*
X479000Y123500D03*
X479000Y136500D03*
D12*
X460500Y136000D03*
X447500Y136000D03*
X458500Y97000D03*
X471500Y97000D03*
X471500Y109000D03*
X458500Y109000D03*
D33*
X465000Y257000D03*
X465000Y285000D03*
X207000Y208000D03*
X207000Y180000D03*
X175000Y285000D03*
X175000Y313000D03*
D34*
X350000Y331500D03*
X350000Y372500D03*
D35*
X327500Y256000D03*
X368500Y256000D03*
D36*
X286000Y154000D03*
X258000Y154000D03*
D33*
X341000Y191000D03*
X341000Y163000D03*
X268000Y31000D03*
X268000Y59000D03*
X468000Y21000D03*
X468000Y49000D03*
D11*
X402000Y156500D03*
X402000Y143500D03*
D37*
X154500Y109750D03*
X154500Y103250D03*
X154500Y96750D03*
X154500Y90250D03*
X109500Y90250D03*
X109500Y96750D03*
X109500Y103250D03*
X109500Y109750D03*
D11*
X209000Y89500D03*
X209000Y76500D03*
D12*
X186500Y107000D03*
X199500Y107000D03*
X116500Y76000D03*
X103500Y76000D03*
X296500Y284000D03*
X309500Y284000D03*
D38*
X96898Y295858D03*
D39*
X96898Y295858D03*
D40*
X113438Y267398D03*
X157438Y193398D03*
D41*
X78850Y368550D03*
D42*
X78850Y368550D03*
D40*
X281438Y348398D03*
X324438Y365398D03*
X254438Y359398D03*
X365000Y353000D03*
X305438Y229398D03*
X312488Y268348D03*
X241438Y211398D03*
X274438Y214398D03*
X403088Y257048D03*
X419394Y247327D03*
X420438Y257298D03*
X326522Y297698D03*
X330000Y317000D03*
X428438Y266398D03*
X469438Y318398D03*
X185438Y261398D03*
X223438Y265398D03*
X427438Y51398D03*
X410438Y108398D03*
X304438Y111398D03*
X218088Y303398D03*
X296438Y268398D03*
X411438Y263398D03*
X395000Y219000D03*
X218438Y347398D03*
X293438Y348398D03*
X301438Y90398D03*
X366438Y176398D03*
X426438Y167398D03*
X425438Y383398D03*
X173220Y347236D03*
X21438Y287398D03*
X143438Y369398D03*
X136160Y110696D03*
X337148Y123540D03*
X472000Y85064D03*
X146438Y302398D03*
X154438Y211398D03*
X123438Y192398D03*
X22438Y299398D03*
X30438Y216398D03*
X220438Y74398D03*
X88150Y76398D03*
X139438Y144398D03*
D43*
X90440Y131016D03*
D44*
X90440Y131016D03*
D40*
X273191Y155003D03*
X299000Y21000D03*
X359000Y197000D03*
X424500Y22000D03*
X246438Y83398D03*
D45*
X259096Y92408D03*
D46*
X259096Y92408D03*
D40*
X469000Y35000D03*
X253938Y128898D03*
D45*
X259096Y117808D03*
D46*
X259096Y117808D03*
D40*
X337013Y138987D03*
X216438Y131398D03*
X14438Y277398D03*
X147438Y281398D03*
X135438Y210398D03*
D45*
X77264Y152352D03*
D46*
X77264Y152352D03*
D40*
X114316Y314068D03*
D45*
X77264Y177752D03*
D46*
X77264Y177752D03*
D41*
X88438Y387308D03*
D42*
X88438Y387308D03*
D40*
X189438Y303398D03*
X115438Y301398D03*
X74438Y214398D03*
X301438Y61398D03*
X383438Y167398D03*
X439438Y167398D03*
X440438Y51398D03*
X273438Y136398D03*
X273438Y80398D03*
X306438Y150398D03*
X306638Y310198D03*
X288438Y216398D03*
X398838Y299398D03*
X375438Y284398D03*
X190438Y368398D03*
X159438Y341398D03*
X472438Y156868D03*
X381438Y361398D03*
X156438Y243398D03*
X168688Y109220D03*
X224600Y190800D03*
X227600Y318640D03*
X215000Y251000D03*
X345166Y133346D03*
X362000Y48000D03*
X416000Y231000D03*
X185737Y244828D03*
X200438Y321398D03*
X451628Y181308D03*
D45*
X413528Y211788D03*
D46*
X413528Y211788D03*
D40*
X389096Y188356D03*
D45*
X413528Y190452D03*
D46*
X413528Y190452D03*
D40*
X379000Y46000D03*
X314000Y64000D03*
X179000Y218000D03*
X194000Y88000D03*
X176000Y102000D03*
M02*
