G04 EAGLE Gerber X2 export*
%TF.Part,Single*%
%TF.FileFunction,Other,Solder side*%
%TF.FilePolarity,Positive*%
%TF.GenerationSoftware,Autodesk,EAGLE,8.7.1*%
%TF.CreationDate,2018-04-25T07:09:38Z*%
G75*
%MOMM*%
%FSLAX34Y34*%
%LPD*%
%AMOC8*
5,1,8,0,0,1.08239X$1,22.5*%
G01*
%ADD10R,0.900000X0.700000*%
%ADD11R,0.700000X0.900000*%
%ADD12R,1.000000X1.100000*%
%ADD13C,1.524000*%
%ADD14R,0.900000X1.000000*%
%ADD15R,0.900000X1.100000*%
%ADD16P,1.649562X8X112.500000*%
%ADD17R,1.600200X1.168400*%
%ADD18R,0.750000X0.300000*%
%ADD19P,1.649562X8X22.500000*%
%ADD20C,0.380000*%
%ADD21R,1.400000X0.600000*%
%ADD22R,1.400000X0.650000*%
%ADD23R,0.800000X0.600000*%
%ADD24R,0.600000X0.800000*%
%ADD25R,1.168400X1.600200*%
%ADD26R,0.990600X0.304800*%
%ADD27R,1.800000X1.600000*%
%ADD28R,3.700000X1.800000*%
%ADD29R,1.800000X3.700000*%
%ADD30R,1.600000X1.800000*%
%ADD31R,1.100000X0.400000*%
%ADD32C,0.254000*%
%ADD33C,0.700000*%
%ADD34C,0.406400*%
%ADD35C,0.650000*%
%ADD36C,0.508000*%
%ADD37C,0.304800*%
%ADD38C,0.609600*%
%ADD39C,0.900000*%
%ADD40C,1.270000*%
%ADD41C,0.203200*%
%ADD42C,0.812800*%
%ADD43C,0.800000*%
%ADD44C,1.200000*%

G36*
X176525Y386395D02*
X176525Y386395D01*
X176612Y386398D01*
X176665Y386415D01*
X176720Y386423D01*
X176799Y386458D01*
X176883Y386485D01*
X176922Y386513D01*
X176979Y386539D01*
X177092Y386635D01*
X177156Y386680D01*
X181859Y391383D01*
X191438Y391383D01*
X191496Y391391D01*
X191554Y391389D01*
X191636Y391411D01*
X191720Y391423D01*
X191773Y391447D01*
X191829Y391461D01*
X191902Y391504D01*
X191979Y391539D01*
X192024Y391577D01*
X192074Y391607D01*
X192132Y391668D01*
X192196Y391723D01*
X192228Y391771D01*
X192268Y391814D01*
X192307Y391889D01*
X192354Y391959D01*
X192371Y392015D01*
X192398Y392067D01*
X192409Y392135D01*
X192439Y392230D01*
X192442Y392330D01*
X192453Y392398D01*
X192453Y396398D01*
X192445Y396456D01*
X192447Y396514D01*
X192425Y396596D01*
X192413Y396680D01*
X192390Y396733D01*
X192375Y396789D01*
X192332Y396862D01*
X192297Y396939D01*
X192259Y396984D01*
X192230Y397034D01*
X192168Y397092D01*
X192114Y397156D01*
X192065Y397188D01*
X192022Y397228D01*
X191947Y397267D01*
X191877Y397314D01*
X191821Y397331D01*
X191769Y397358D01*
X191701Y397369D01*
X191606Y397399D01*
X191506Y397402D01*
X191438Y397413D01*
X181859Y397413D01*
X177156Y402116D01*
X177086Y402168D01*
X177022Y402228D01*
X176973Y402254D01*
X176929Y402287D01*
X176847Y402318D01*
X176769Y402358D01*
X176722Y402366D01*
X176663Y402388D01*
X176515Y402400D01*
X176438Y402413D01*
X144438Y402413D01*
X144380Y402405D01*
X144322Y402407D01*
X144240Y402385D01*
X144157Y402373D01*
X144103Y402350D01*
X144047Y402335D01*
X143974Y402292D01*
X143897Y402257D01*
X143852Y402219D01*
X143802Y402190D01*
X143744Y402128D01*
X143680Y402074D01*
X143648Y402025D01*
X143608Y401982D01*
X143569Y401907D01*
X143523Y401837D01*
X143505Y401781D01*
X143478Y401729D01*
X143467Y401661D01*
X143437Y401566D01*
X143434Y401466D01*
X143423Y401398D01*
X143423Y387398D01*
X143431Y387340D01*
X143429Y387282D01*
X143451Y387200D01*
X143463Y387117D01*
X143487Y387063D01*
X143501Y387007D01*
X143544Y386934D01*
X143579Y386857D01*
X143617Y386812D01*
X143647Y386762D01*
X143708Y386704D01*
X143763Y386640D01*
X143811Y386608D01*
X143854Y386568D01*
X143929Y386529D01*
X143999Y386483D01*
X144055Y386465D01*
X144107Y386438D01*
X144175Y386427D01*
X144270Y386397D01*
X144370Y386394D01*
X144438Y386383D01*
X176438Y386383D01*
X176525Y386395D01*
G37*
G36*
X152525Y156395D02*
X152525Y156395D01*
X152612Y156398D01*
X152665Y156415D01*
X152720Y156423D01*
X152799Y156458D01*
X152883Y156485D01*
X152922Y156513D01*
X152979Y156539D01*
X153092Y156635D01*
X153156Y156680D01*
X157859Y161383D01*
X167438Y161383D01*
X167496Y161391D01*
X167554Y161389D01*
X167636Y161411D01*
X167720Y161423D01*
X167773Y161447D01*
X167829Y161461D01*
X167902Y161504D01*
X167979Y161539D01*
X168024Y161577D01*
X168074Y161607D01*
X168132Y161668D01*
X168196Y161723D01*
X168228Y161771D01*
X168268Y161814D01*
X168307Y161889D01*
X168354Y161959D01*
X168371Y162015D01*
X168398Y162067D01*
X168409Y162135D01*
X168439Y162230D01*
X168442Y162330D01*
X168453Y162398D01*
X168453Y166398D01*
X168445Y166456D01*
X168447Y166514D01*
X168425Y166596D01*
X168413Y166680D01*
X168390Y166733D01*
X168375Y166789D01*
X168332Y166862D01*
X168297Y166939D01*
X168259Y166984D01*
X168230Y167034D01*
X168168Y167092D01*
X168114Y167156D01*
X168065Y167188D01*
X168022Y167228D01*
X167947Y167267D01*
X167877Y167314D01*
X167821Y167331D01*
X167769Y167358D01*
X167701Y167369D01*
X167606Y167399D01*
X167506Y167402D01*
X167438Y167413D01*
X157859Y167413D01*
X153156Y172116D01*
X153086Y172168D01*
X153022Y172228D01*
X152973Y172254D01*
X152929Y172287D01*
X152847Y172318D01*
X152769Y172358D01*
X152722Y172366D01*
X152663Y172388D01*
X152515Y172400D01*
X152438Y172413D01*
X120438Y172413D01*
X120380Y172405D01*
X120322Y172407D01*
X120240Y172385D01*
X120157Y172373D01*
X120103Y172350D01*
X120047Y172335D01*
X119974Y172292D01*
X119897Y172257D01*
X119852Y172219D01*
X119802Y172190D01*
X119744Y172128D01*
X119680Y172074D01*
X119648Y172025D01*
X119608Y171982D01*
X119569Y171907D01*
X119523Y171837D01*
X119505Y171781D01*
X119478Y171729D01*
X119467Y171661D01*
X119437Y171566D01*
X119434Y171466D01*
X119423Y171398D01*
X119423Y157398D01*
X119431Y157340D01*
X119429Y157282D01*
X119451Y157200D01*
X119463Y157117D01*
X119487Y157063D01*
X119501Y157007D01*
X119544Y156934D01*
X119579Y156857D01*
X119617Y156812D01*
X119647Y156762D01*
X119708Y156704D01*
X119763Y156640D01*
X119811Y156608D01*
X119854Y156568D01*
X119929Y156529D01*
X119999Y156483D01*
X120055Y156465D01*
X120107Y156438D01*
X120175Y156427D01*
X120270Y156397D01*
X120370Y156394D01*
X120438Y156383D01*
X152438Y156383D01*
X152525Y156395D01*
G37*
D10*
X254262Y303058D03*
X254262Y316058D03*
D11*
X417938Y155098D03*
X430938Y155098D03*
X331738Y71298D03*
X344738Y71298D03*
X242538Y348298D03*
X229538Y348298D03*
X295238Y80498D03*
X308238Y80498D03*
X299038Y101298D03*
X286038Y101298D03*
X410038Y283498D03*
X397038Y283498D03*
X405402Y173338D03*
X392402Y173338D03*
X307238Y335298D03*
X294238Y335298D03*
D12*
X112738Y182898D03*
X112738Y165898D03*
X91738Y152098D03*
X91738Y169098D03*
X111738Y412298D03*
X111738Y395298D03*
X133038Y380098D03*
X133038Y397098D03*
D11*
X291458Y319778D03*
X278458Y319778D03*
X328302Y281638D03*
X341302Y281638D03*
D10*
X364138Y295698D03*
X364138Y282698D03*
X305202Y255338D03*
X305202Y242338D03*
D11*
X400938Y268898D03*
X387938Y268898D03*
X398838Y312398D03*
X411838Y312398D03*
X388338Y245098D03*
X401338Y245098D03*
X415838Y299598D03*
X428838Y299598D03*
D13*
X463438Y399378D02*
X463438Y414618D01*
X438038Y414618D02*
X438038Y399378D01*
X412638Y399378D02*
X412638Y414618D01*
X387238Y414618D02*
X387238Y399378D01*
X361838Y399378D02*
X361838Y414618D01*
X86538Y57118D02*
X86538Y41878D01*
X111938Y41878D02*
X111938Y57118D01*
X137338Y57118D02*
X137338Y41878D01*
X162738Y41878D02*
X162738Y57118D01*
X188138Y57118D02*
X188138Y41878D01*
X213538Y41878D02*
X213538Y57118D01*
D11*
X416938Y48398D03*
X403938Y48398D03*
D14*
X262438Y241398D03*
X262438Y258398D03*
D15*
X291438Y249898D03*
D13*
X239338Y399778D02*
X239338Y415018D01*
X264738Y415018D02*
X264738Y399778D01*
X290138Y399778D02*
X290138Y415018D01*
X315538Y415018D02*
X315538Y399778D01*
D16*
X54138Y81998D03*
X28738Y81998D03*
X54138Y107398D03*
X28738Y107398D03*
X54138Y132798D03*
X28738Y132798D03*
D10*
X72602Y78938D03*
X72602Y91938D03*
D17*
X52438Y171018D03*
X52438Y155778D03*
X29438Y171018D03*
X29438Y155778D03*
D18*
X69478Y270548D03*
X69478Y277048D03*
X69478Y283548D03*
X69478Y290048D03*
X69478Y296548D03*
X69478Y303048D03*
X69478Y309548D03*
X69478Y316048D03*
X69478Y322548D03*
X69478Y329048D03*
X129478Y329048D03*
X129478Y322548D03*
X129478Y316048D03*
X129478Y309548D03*
X129478Y303048D03*
X129478Y296548D03*
X129478Y290048D03*
X129478Y283548D03*
X129478Y277048D03*
X129478Y270548D03*
D11*
X44328Y316918D03*
X31328Y316918D03*
X46998Y339588D03*
X33998Y339588D03*
X111368Y245238D03*
X124368Y245238D03*
D10*
X167268Y253798D03*
X167268Y240798D03*
X145798Y249918D03*
X145798Y262918D03*
D11*
X129878Y256118D03*
X116878Y256118D03*
X44408Y306308D03*
X31408Y306308D03*
X46348Y285108D03*
X33348Y285108D03*
X115338Y340908D03*
X128338Y340908D03*
X69398Y340348D03*
X82398Y340348D03*
D10*
X69138Y259068D03*
X69138Y246068D03*
D11*
X47108Y251908D03*
X34108Y251908D03*
X33648Y263198D03*
X46648Y263198D03*
X35658Y274188D03*
X48658Y274188D03*
X188938Y336398D03*
X175938Y336398D03*
D19*
X28438Y192398D03*
D20*
X15026Y404710D02*
X15026Y419910D01*
X64226Y419910D01*
X64226Y404710D01*
X15026Y404710D01*
X15026Y408509D02*
X64226Y408509D01*
X64226Y412308D02*
X15026Y412308D01*
X15026Y416107D02*
X64226Y416107D01*
X64226Y419906D02*
X15026Y419906D01*
X15026Y385910D02*
X15026Y370710D01*
X15026Y385910D02*
X64226Y385910D01*
X64226Y370710D01*
X15026Y370710D01*
X15026Y374509D02*
X64226Y374509D01*
X64226Y378308D02*
X15026Y378308D01*
X15026Y382107D02*
X64226Y382107D01*
X64226Y385906D02*
X15026Y385906D01*
D21*
X163248Y179384D03*
X163248Y149412D03*
D22*
X163248Y164398D03*
D21*
X126498Y149412D03*
X126498Y179384D03*
X187248Y409384D03*
X187248Y379412D03*
D22*
X187248Y394398D03*
D21*
X150498Y379412D03*
X150498Y409384D03*
D10*
X177438Y189898D03*
X177438Y176898D03*
D11*
X216938Y409398D03*
X203938Y409398D03*
D23*
X305412Y47882D03*
X305412Y31882D03*
D24*
X238848Y20922D03*
X222848Y20922D03*
X235712Y191048D03*
X251712Y191048D03*
X228442Y152268D03*
X212442Y152268D03*
D25*
X268748Y197928D03*
X283988Y197928D03*
D26*
X373552Y89950D03*
X373552Y96300D03*
X373552Y102650D03*
X373552Y109000D03*
X373552Y115350D03*
X373552Y121700D03*
X373552Y128050D03*
X430448Y89950D03*
X430448Y96300D03*
X430448Y102650D03*
X430448Y109000D03*
X430448Y115350D03*
X430448Y121700D03*
X430448Y128050D03*
D10*
X362000Y107500D03*
X362000Y94500D03*
X325000Y139500D03*
X325000Y126500D03*
D11*
X387500Y76000D03*
X374500Y76000D03*
D10*
X316000Y94500D03*
X316000Y107500D03*
D11*
X386500Y144000D03*
X373500Y144000D03*
D10*
X339000Y99500D03*
X339000Y112500D03*
X350000Y112500D03*
X350000Y99500D03*
X443000Y107500D03*
X443000Y94500D03*
D11*
X427500Y64000D03*
X414500Y64000D03*
X418500Y76000D03*
X431500Y76000D03*
D10*
X479000Y123500D03*
X479000Y136500D03*
D11*
X460500Y136000D03*
X447500Y136000D03*
X458500Y97000D03*
X471500Y97000D03*
X471500Y109000D03*
X458500Y109000D03*
D27*
X465000Y257000D03*
X465000Y285000D03*
X207000Y208000D03*
X207000Y180000D03*
X175000Y285000D03*
X175000Y313000D03*
D28*
X350000Y331500D03*
X350000Y372500D03*
D29*
X327500Y256000D03*
X368500Y256000D03*
D30*
X286000Y154000D03*
X258000Y154000D03*
D27*
X341000Y191000D03*
X341000Y163000D03*
X268000Y31000D03*
X268000Y59000D03*
X468000Y21000D03*
X468000Y49000D03*
D10*
X402000Y156500D03*
X402000Y143500D03*
D31*
X154500Y109750D03*
X154500Y103250D03*
X154500Y96750D03*
X154500Y90250D03*
X109500Y90250D03*
X109500Y96750D03*
X109500Y103250D03*
X109500Y109750D03*
D10*
X209000Y89500D03*
X209000Y76500D03*
D11*
X186500Y107000D03*
X199500Y107000D03*
X116500Y76000D03*
X103500Y76000D03*
X296500Y284000D03*
X309500Y284000D03*
D32*
X33705Y319295D02*
X31328Y316918D01*
X31328Y306388D01*
X31408Y306308D01*
D33*
X96898Y295858D03*
D34*
X82398Y312358D01*
D35*
X113438Y267398D03*
D36*
X107938Y167098D02*
X91738Y169098D01*
X109238Y167398D02*
X163248Y164398D01*
X112738Y165898D02*
X109238Y167398D01*
X107938Y167098D02*
X112738Y165898D01*
D35*
X157438Y193398D03*
D32*
X148438Y167398D02*
X163248Y164398D01*
X148438Y167398D02*
X142438Y173398D01*
D36*
X189195Y357568D02*
X208889Y357568D01*
X189195Y357568D02*
X177447Y357316D01*
X208889Y357568D02*
X234719Y384398D01*
X177447Y357316D02*
X125915Y357316D01*
X290138Y403098D02*
X290138Y407398D01*
X290138Y403098D02*
X271438Y384398D01*
X234719Y384398D01*
D37*
X79588Y309548D02*
X69478Y309548D01*
X79588Y309548D02*
X82398Y312358D01*
X82398Y340348D01*
D34*
X157120Y193398D02*
X157438Y193398D01*
X157120Y193398D02*
X143389Y179667D01*
X142438Y178716D01*
X143389Y178716D02*
X143389Y179667D01*
X142438Y178716D02*
X142438Y173398D01*
X42196Y119340D02*
X28738Y132798D01*
X98568Y314068D02*
X103468Y318968D01*
X98568Y314068D02*
X98568Y297528D01*
X96898Y295858D01*
X103468Y318968D02*
X103468Y322704D01*
X103468Y329038D01*
X115338Y340908D01*
X113438Y267398D02*
X112218Y267398D01*
X96028Y283588D01*
X96028Y294988D01*
X96898Y295858D01*
D37*
X103624Y322548D02*
X129478Y322548D01*
X103624Y322548D02*
X103468Y322704D01*
D38*
X78236Y347059D02*
X75109Y350186D01*
X78236Y344510D02*
X82398Y340348D01*
X78236Y344510D02*
X78236Y347059D01*
X74850Y350186D02*
X49800Y350186D01*
X74850Y350186D02*
X75109Y350186D01*
X34998Y345748D02*
X33998Y339588D01*
X34998Y345748D02*
X36100Y349850D01*
X46464Y349850D01*
X49800Y350186D01*
D39*
X78850Y368550D03*
D38*
X43931Y376849D02*
X39626Y378310D01*
D40*
X52230Y368550D02*
X78850Y368550D01*
X52230Y368550D02*
X43931Y376849D01*
D38*
X78850Y368550D02*
X78850Y354186D01*
X74850Y350186D01*
D37*
X69478Y309548D02*
X60668Y309548D01*
X51642Y318574D02*
X51642Y322998D01*
X49408Y325232D01*
X39248Y325232D01*
X37014Y322998D01*
X37014Y322604D01*
X33705Y319295D01*
X51642Y318574D02*
X60668Y309548D01*
D34*
X42196Y102451D02*
X49191Y95456D01*
X42196Y102451D02*
X42196Y119340D01*
X69084Y95456D02*
X72602Y91938D01*
X69084Y95456D02*
X49191Y95456D01*
D36*
X115338Y346739D02*
X125915Y357316D01*
X115338Y346739D02*
X115338Y340908D01*
D34*
X109500Y96750D02*
X109322Y96572D01*
X102210Y96572D01*
X97576Y91938D02*
X72602Y91938D01*
X97576Y91938D02*
X102210Y96572D01*
X209000Y76500D02*
X208500Y69860D01*
X188138Y49498D01*
D35*
X281438Y348398D03*
D36*
X278458Y345418D02*
X278458Y319778D01*
X278458Y345418D02*
X281438Y348398D01*
D35*
X324438Y365398D03*
X254438Y359398D03*
D36*
X320438Y359398D01*
X324438Y365398D01*
D35*
X365000Y353000D03*
D36*
X351549Y370074D02*
X350000Y372500D01*
D38*
X365000Y356622D02*
X365000Y353000D01*
X365000Y356622D02*
X351549Y370074D01*
D35*
X305438Y229398D03*
D36*
X305438Y229898D01*
X305202Y242338D01*
D35*
X312488Y268348D03*
D37*
X312488Y261042D01*
X311652Y258878D01*
X311652Y258484D01*
X305733Y255597D01*
X305202Y255338D01*
D36*
X305733Y255597D02*
X312000Y255597D01*
D38*
X312488Y256085D02*
X312488Y268348D01*
X312488Y256085D02*
X312000Y255597D01*
X327097Y255597D02*
X327500Y256000D01*
X327097Y255597D02*
X312000Y255597D01*
X341302Y281638D02*
X342862Y281638D01*
X368500Y256000D01*
D35*
X241438Y211398D03*
D36*
X241438Y216398D01*
X243991Y221504D01*
X270938Y249898D02*
X291438Y249898D01*
X270938Y249898D02*
X265418Y255418D01*
X262438Y258398D01*
X260191Y256151D01*
X260191Y253904D01*
X260191Y256151D02*
X260284Y256153D01*
X260377Y256159D01*
X260469Y256168D01*
X260561Y256182D01*
X260652Y256199D01*
X260743Y256220D01*
X260832Y256244D01*
X260921Y256273D01*
X261008Y256305D01*
X261094Y256340D01*
X261178Y256379D01*
X261260Y256422D01*
X261341Y256468D01*
X261420Y256517D01*
X261497Y256569D01*
X261571Y256625D01*
X261643Y256683D01*
X261713Y256745D01*
X261780Y256809D01*
X261844Y256876D01*
X261906Y256946D01*
X261964Y257018D01*
X262020Y257092D01*
X262072Y257169D01*
X262121Y257248D01*
X262167Y257329D01*
X262210Y257411D01*
X262249Y257495D01*
X262284Y257581D01*
X262316Y257668D01*
X262345Y257757D01*
X262369Y257846D01*
X262390Y257937D01*
X262407Y258028D01*
X262421Y258120D01*
X262430Y258212D01*
X262436Y258305D01*
X262438Y258398D01*
X261705Y255418D02*
X265418Y255418D01*
X261705Y255418D02*
X261628Y255416D01*
X261552Y255410D01*
X261476Y255401D01*
X261400Y255387D01*
X261326Y255370D01*
X261252Y255349D01*
X261179Y255324D01*
X261108Y255295D01*
X261038Y255263D01*
X260970Y255228D01*
X260904Y255189D01*
X260840Y255147D01*
X260778Y255101D01*
X260719Y255053D01*
X260662Y255001D01*
X260608Y254947D01*
X260556Y254890D01*
X260508Y254831D01*
X260462Y254769D01*
X260420Y254705D01*
X260381Y254639D01*
X260346Y254571D01*
X260314Y254501D01*
X260285Y254430D01*
X260260Y254357D01*
X260239Y254283D01*
X260222Y254209D01*
X260208Y254133D01*
X260199Y254057D01*
X260193Y253981D01*
X260191Y253904D01*
X257515Y251228D02*
X255937Y251228D01*
X257515Y251228D02*
X260191Y253904D01*
X243991Y239282D02*
X243991Y221504D01*
X243991Y239282D02*
X255937Y251228D01*
D35*
X274438Y214398D03*
D34*
X274438Y229398D01*
X262438Y241398D01*
D35*
X403088Y257048D03*
D34*
X403088Y266748D01*
X400938Y268898D01*
D36*
X451000Y247000D02*
X465000Y257000D01*
X424721Y247000D02*
X419394Y247327D01*
D35*
X419394Y247327D03*
D36*
X424721Y247000D02*
X451000Y247000D01*
D35*
X420438Y257298D03*
D36*
X401338Y245098D02*
X401138Y245098D01*
X403338Y247298D02*
X420438Y257298D01*
X403338Y247298D02*
X401138Y245098D01*
X460561Y286133D02*
X465000Y285000D01*
D38*
X434726Y257298D02*
X420438Y257298D01*
X434726Y257298D02*
X460561Y286133D01*
D35*
X326522Y297698D03*
D36*
X436518Y380051D02*
X436518Y380078D01*
X463438Y406998D01*
X364165Y304698D02*
X364138Y295698D01*
X364165Y304698D02*
X436518Y380051D01*
X326302Y291918D02*
X328302Y281638D01*
X326302Y291918D02*
X326522Y297698D01*
X362138Y297698D01*
X364138Y295698D01*
X346665Y329082D02*
X350000Y331500D01*
X330000Y317000D02*
X329000Y317000D01*
D35*
X330000Y317000D03*
D38*
X334583Y317000D01*
X346665Y329082D01*
D35*
X428438Y266398D03*
D36*
X415838Y299598D02*
X415838Y308398D01*
X411838Y312398D01*
X415838Y299598D02*
X415838Y292529D01*
X419518Y278318D02*
X428438Y266398D01*
X419518Y288849D02*
X415838Y292529D01*
X419518Y288849D02*
X419518Y278318D01*
D35*
X469438Y318398D03*
D36*
X428838Y302838D02*
X428838Y299598D01*
X444398Y318398D02*
X469438Y318398D01*
X444398Y318398D02*
X428838Y302838D01*
D35*
X185438Y261398D03*
X223438Y265398D03*
D36*
X217438Y261398D02*
X185438Y261398D01*
X217438Y261398D02*
X223438Y265398D01*
D35*
X427438Y51398D03*
X410438Y108398D03*
X304438Y111398D03*
X218088Y303398D03*
X296438Y268398D03*
X411438Y263398D03*
D36*
X296438Y268398D02*
X296438Y278698D01*
X223398Y303282D02*
X218088Y303398D01*
X223398Y303282D02*
X254262Y303058D01*
D34*
X411438Y282098D02*
X411438Y263398D01*
X411438Y282098D02*
X410038Y283498D01*
D37*
X410438Y108398D02*
X430448Y109000D01*
X304438Y111398D02*
X299038Y101298D01*
D35*
X395000Y219000D03*
D36*
X400732Y178008D02*
X405402Y173338D01*
X395000Y212489D02*
X395000Y219000D01*
X400732Y206757D02*
X400732Y178008D01*
X400732Y206757D02*
X395000Y212489D01*
D34*
X296500Y284000D02*
X296438Y283938D01*
X296438Y278698D01*
D36*
X419938Y51398D02*
X427438Y51398D01*
X419938Y51398D02*
X416938Y48398D01*
D35*
X218438Y347398D03*
X293438Y348398D03*
D41*
X293438Y336098D02*
X294238Y335298D01*
D35*
X301438Y90398D03*
X366438Y176398D03*
X426438Y167398D03*
X425438Y383398D03*
D32*
X308238Y84598D02*
X308238Y80498D01*
X308238Y84598D02*
X301438Y90398D01*
X322338Y80498D02*
X337438Y80498D01*
X322098Y80738D02*
X322063Y80738D01*
X322098Y80738D02*
X322338Y80498D01*
X309438Y81363D02*
X308438Y82398D01*
X309438Y81363D02*
X322063Y80738D01*
X344238Y73298D02*
X344738Y71298D01*
X344238Y73298D02*
X337438Y80498D01*
D36*
X294238Y335298D02*
X294238Y347598D01*
X293438Y348398D01*
X229538Y348298D02*
X218538Y347498D01*
X218438Y347398D01*
X430938Y162898D02*
X430938Y155098D01*
X430938Y162898D02*
X426438Y167398D01*
D37*
X390000Y112000D02*
X387000Y109000D01*
X390000Y112000D02*
X390000Y130000D01*
X429660Y155196D02*
X430938Y155098D01*
D36*
X309438Y81363D02*
X309103Y81363D01*
X308238Y80498D01*
D37*
X373552Y109000D02*
X387000Y109000D01*
X390000Y130000D02*
X398500Y138500D01*
X402000Y143500D01*
X425252Y149018D02*
X425252Y149412D01*
X430938Y155098D01*
X419734Y143500D02*
X402000Y143500D01*
X419734Y143500D02*
X425252Y149018D01*
D35*
X173220Y347236D03*
D36*
X173620Y347236D01*
X183848Y347008D01*
X199468Y347008D01*
X209000Y295296D02*
X216708Y283588D01*
X230665Y279925D02*
X243348Y270808D01*
X230665Y279925D02*
X225568Y283588D01*
X216708Y283588D01*
X209000Y295296D02*
X209000Y310000D01*
X213000Y314000D01*
X213000Y336476D01*
X199468Y347008D01*
X257676Y204000D02*
X268748Y197928D01*
X244785Y203318D02*
X238091Y203318D01*
X233358Y208051D01*
X244785Y203318D02*
X245467Y204000D01*
X233358Y208051D02*
X233358Y244298D01*
X243348Y254288D01*
X245467Y204000D02*
X257676Y204000D01*
X243348Y254288D02*
X243348Y270808D01*
X230665Y279925D02*
X230665Y279925D01*
X230665Y279925D01*
D35*
X21438Y287398D03*
D32*
X46348Y285108D02*
X49348Y285143D01*
X47865Y286625D01*
X69478Y290048D02*
X73263Y290048D01*
X69478Y290048D02*
X54253Y290048D01*
X49348Y285143D01*
X40408Y279168D02*
X40408Y279133D01*
X40408Y279168D02*
X46348Y285108D01*
X35658Y274383D02*
X35658Y274188D01*
X35658Y274383D02*
X40408Y279133D01*
X142738Y369698D02*
X143438Y369398D01*
D35*
X143438Y369398D03*
D36*
X150498Y376458D02*
X150498Y379412D01*
X150498Y376458D02*
X143438Y369398D01*
X133038Y379798D02*
X133038Y380098D01*
X133038Y379798D02*
X143438Y369398D01*
D37*
X69478Y290048D02*
X51288Y290048D01*
X47865Y286625D01*
X46348Y285108D01*
X22244Y287398D02*
X21438Y287398D01*
X22244Y287398D02*
X28268Y293422D01*
X41069Y293422D01*
X47865Y286625D01*
D35*
X136160Y110696D03*
X337148Y123540D03*
D36*
X340670Y114170D02*
X339000Y112500D01*
X340670Y114170D02*
X340670Y118001D01*
X339148Y123479D02*
X337148Y123540D01*
X339148Y123479D02*
X340670Y118001D01*
X471500Y97000D02*
X471500Y85564D01*
X472000Y85064D01*
D35*
X472000Y85064D03*
D34*
X143000Y97000D02*
X136160Y102840D01*
X136160Y110696D01*
X144678Y86460D02*
X147210Y83928D01*
X161790Y83928D01*
X161862Y84000D01*
X144678Y95322D02*
X143250Y96750D01*
X144678Y95322D02*
X144678Y86460D01*
X179500Y84000D02*
X186428Y90928D01*
X186428Y91136D01*
X190864Y95572D01*
X179500Y84000D02*
X161862Y84000D01*
X154500Y96750D02*
X143250Y96750D01*
X143000Y97000D01*
X200928Y95572D02*
X209000Y89500D01*
X200928Y95572D02*
X190864Y95572D01*
D35*
X146438Y302398D03*
X154438Y211398D03*
D37*
X139288Y309548D02*
X129478Y309548D01*
X139288Y309548D02*
X146438Y302398D01*
D34*
X52438Y174018D02*
X52438Y171018D01*
X52438Y174018D02*
X74210Y195790D01*
X88202Y195790D01*
X147146Y211398D02*
X154438Y211398D01*
X147146Y211398D02*
X138574Y202826D01*
X95238Y202826D01*
X88202Y195790D01*
D36*
X145452Y409384D02*
X150498Y409384D01*
X145452Y409384D02*
X142438Y412398D01*
X239338Y416498D02*
X239338Y407398D01*
X239338Y416498D02*
X235438Y420398D01*
X220438Y420398D01*
X216938Y416898D02*
X216938Y409398D01*
X216938Y416898D02*
X220438Y420398D01*
X117838Y420398D02*
X111738Y412298D01*
X117838Y420398D02*
X220438Y420398D01*
X142438Y412398D02*
X123838Y412398D01*
X111738Y412298D01*
X115438Y182384D02*
X126498Y179384D01*
X115438Y182384D02*
X110224Y182384D01*
X112738Y182898D01*
X115438Y182384D02*
X115438Y188398D01*
X123438Y192398D01*
D35*
X123438Y192398D03*
D34*
X171646Y189898D02*
X177438Y189898D01*
X171646Y189898D02*
X160574Y200970D01*
X148084Y200970D01*
X126498Y179384D01*
D35*
X22438Y299398D03*
X30438Y216398D03*
X220438Y74398D03*
X88150Y76398D03*
X139438Y144398D03*
D37*
X22924Y299398D02*
X22438Y299398D01*
X22924Y299398D02*
X24328Y297994D01*
X44408Y297994D02*
X58762Y297994D01*
X44408Y297994D02*
X24328Y297994D01*
X60208Y296548D02*
X69478Y296548D01*
X60208Y296548D02*
X58762Y297994D01*
X44408Y297994D02*
X44408Y306308D01*
D36*
X126498Y149412D02*
X127501Y146808D01*
X209108Y152398D02*
X212442Y152268D01*
X220438Y74398D02*
X220438Y72138D01*
X228108Y64468D01*
X228108Y29848D02*
X222848Y20922D01*
X228108Y29848D02*
X228108Y64468D01*
X162738Y49498D02*
X162565Y49498D01*
D42*
X91370Y149033D02*
X91596Y153412D01*
D43*
X90440Y131016D03*
D42*
X91370Y149033D01*
D36*
X85610Y78938D02*
X72602Y78938D01*
X85610Y78938D02*
X88150Y76398D01*
X88150Y75850D01*
D42*
X91738Y152098D02*
X95902Y152098D01*
X103000Y145000D01*
X125693Y145000D01*
X127501Y146808D01*
D36*
X138836Y145000D02*
X139438Y144398D01*
X138836Y145000D02*
X125693Y145000D01*
X192065Y152398D02*
X209108Y152398D01*
X192065Y152398D02*
X172249Y141582D01*
X154247Y141582D01*
X151431Y144398D01*
X139438Y144398D01*
D34*
X91738Y149401D02*
X91738Y152098D01*
X91738Y149401D02*
X91370Y149033D01*
D36*
X99488Y36721D02*
X106781Y29428D01*
X99488Y36721D02*
X99488Y64512D01*
X92500Y71500D02*
X88150Y75850D01*
X92500Y71500D02*
X99488Y64512D01*
X142495Y29428D02*
X162565Y49498D01*
X142495Y29428D02*
X106781Y29428D01*
X162738Y49498D02*
X191314Y20922D01*
X222848Y20922D01*
X103500Y76000D02*
X99000Y71500D01*
X92500Y71500D01*
X199500Y107000D02*
X207086Y102414D01*
X211917Y101414D02*
X220438Y92893D01*
X211917Y101414D02*
X207086Y102414D01*
X220438Y92893D02*
X220438Y74398D01*
D37*
X286000Y154000D02*
X287000Y154000D01*
D35*
X273191Y155003D03*
D38*
X274194Y154000D01*
X287000Y154000D01*
D37*
X268000Y31000D02*
X272228Y24023D01*
D35*
X299000Y21000D03*
D38*
X295977Y24023D01*
X272228Y24023D01*
D37*
X341000Y191000D02*
X345685Y197255D01*
D35*
X359000Y197000D03*
D38*
X355745Y197255D01*
X345685Y197255D01*
D35*
X424500Y22000D03*
D36*
X467000Y22000D02*
X468000Y21000D01*
X467000Y22000D02*
X424500Y22000D01*
D35*
X246438Y83398D03*
D44*
X259096Y92408D03*
D34*
X427500Y64000D02*
X431847Y63542D01*
D36*
X428500Y65000D02*
X452000Y65000D01*
X428500Y65000D02*
X427500Y64000D01*
D35*
X469000Y35000D03*
D36*
X468000Y49000D01*
X452000Y65000D01*
D35*
X253938Y128898D03*
D44*
X259096Y117808D03*
D35*
X337013Y138987D03*
D38*
X325000Y139500D02*
X341000Y155500D01*
X341000Y163000D01*
X337013Y154513D02*
X337013Y138987D01*
X337013Y154513D02*
X341000Y163000D01*
D35*
X216438Y131398D03*
D34*
X74402Y132798D02*
X54138Y132798D01*
X74402Y132798D02*
X85376Y121824D01*
X95300Y121824D01*
X106524Y133048D01*
X215038Y132798D01*
X216438Y131398D01*
X42196Y127851D02*
X42196Y137745D01*
X54138Y115909D02*
X54138Y107398D01*
X54138Y115909D02*
X42196Y127851D01*
X42196Y137745D02*
X52438Y147987D01*
X52438Y155778D01*
X16796Y137745D02*
X16796Y127851D01*
X29438Y150387D02*
X29438Y155778D01*
X29438Y150387D02*
X16796Y137745D01*
X16796Y127851D02*
X28738Y115909D01*
X28738Y107398D01*
D35*
X14438Y277398D03*
D37*
X54934Y326867D02*
X51986Y330042D01*
X12374Y284472D02*
X14438Y281408D01*
X14438Y277398D01*
X30058Y330042D02*
X51986Y330042D01*
X30058Y330042D02*
X12374Y313358D01*
X12374Y284472D01*
X60275Y316048D02*
X69478Y316048D01*
X60275Y316048D02*
X56662Y319662D01*
X56662Y325140D01*
X54934Y326867D01*
X49488Y314622D02*
X46624Y314622D01*
X44328Y316918D01*
X61062Y303048D02*
X69478Y303048D01*
X61062Y303048D02*
X49488Y314622D01*
D35*
X147438Y281398D03*
X135438Y210398D03*
D37*
X129478Y316048D02*
X148928Y316048D01*
X151908Y314068D01*
X151908Y308565D01*
X154252Y306221D01*
X154252Y300000D01*
D34*
X44412Y181182D02*
X42647Y181182D01*
X32483Y171018D02*
X29438Y171018D01*
X32483Y171018D02*
X42647Y181182D01*
X89000Y210398D02*
X135438Y210398D01*
X66615Y203385D02*
X44412Y181182D01*
X66615Y203385D02*
X80987Y203385D01*
X89000Y210398D01*
D37*
X147438Y281398D02*
X147438Y293186D01*
X154252Y300000D01*
D44*
X77264Y152352D03*
D35*
X114316Y314068D03*
D37*
X121914Y306470D02*
X121914Y306468D01*
X121914Y306470D02*
X114316Y314068D01*
X125334Y303048D02*
X129478Y303048D01*
X125334Y303048D02*
X121914Y306468D01*
D44*
X77264Y177752D03*
D32*
X69478Y270548D02*
X67033Y270548D01*
X69138Y270208D02*
X69478Y270548D01*
D37*
X69138Y270208D02*
X69138Y259068D01*
X55188Y252908D02*
X47108Y251908D01*
X55188Y252908D02*
X60468Y258188D01*
X68258Y258188D01*
X69138Y259068D01*
X69478Y322548D02*
X64038Y322548D01*
X60980Y325606D01*
X60980Y326928D01*
X55096Y333039D02*
X53933Y334291D01*
X53840Y334294D01*
X53775Y334360D01*
X52226Y334360D01*
X46998Y339588D01*
X58033Y330102D02*
X60980Y326928D01*
X58033Y330102D02*
X55096Y333039D01*
D32*
X69478Y329048D02*
X69478Y340268D01*
X69398Y340348D01*
X129478Y339768D02*
X129478Y329048D01*
X129478Y339768D02*
X128338Y340908D01*
X34108Y262738D02*
X34108Y251908D01*
X34108Y262738D02*
X33648Y263198D01*
D39*
X88438Y387308D03*
D35*
X189438Y303398D03*
X115438Y301398D03*
X74438Y214398D03*
D32*
X124368Y245238D02*
X125278Y245238D01*
X125438Y245398D01*
D35*
X301438Y61398D03*
X383438Y167398D03*
X439438Y167398D03*
X440438Y51398D03*
X273438Y136398D03*
X273438Y80398D03*
X306438Y150398D03*
D32*
X291753Y319778D02*
X291458Y319778D01*
X397038Y283498D02*
X398838Y285298D01*
D35*
X306638Y310198D03*
D32*
X307238Y310198D01*
X307438Y310398D01*
D35*
X288438Y216398D03*
X398838Y299398D03*
X375438Y284398D03*
X190438Y368398D03*
X159438Y341398D03*
X472438Y156868D03*
D34*
X274438Y135398D02*
X273438Y136398D01*
D32*
X307238Y310198D02*
X305718Y311718D01*
D35*
X381438Y361398D03*
X156438Y243398D03*
D32*
X330078Y72958D02*
X331738Y71298D01*
X195756Y394398D02*
X194994Y394398D01*
D34*
X195756Y394398D02*
X198136Y394398D01*
X195756Y394398D02*
X187248Y394398D01*
D36*
X291458Y319778D02*
X297058Y319778D01*
X306638Y310198D01*
X307238Y329958D02*
X307238Y335298D01*
X307238Y329958D02*
X297058Y319778D01*
X364138Y282698D02*
X369738Y284698D01*
X375438Y284398D01*
X398838Y291758D02*
X398838Y299398D01*
X398838Y291758D02*
X398288Y291208D01*
X398288Y284748D01*
X397038Y283498D01*
X398838Y299398D02*
X398838Y312398D01*
D37*
X129478Y283548D02*
X118928Y283548D01*
X113808Y288668D01*
X113808Y299768D01*
X115438Y301398D01*
X30578Y282502D02*
X28344Y280268D01*
X28344Y268108D01*
X30578Y265874D01*
X30742Y282502D02*
X33348Y285108D01*
X30742Y282502D02*
X30578Y282502D01*
X30578Y265874D02*
X30972Y265874D01*
X33648Y263198D01*
D36*
X37778Y246407D02*
X41607Y242578D01*
X36778Y248238D02*
X34108Y251908D01*
X36778Y248238D02*
X37778Y246407D01*
X41607Y242578D02*
X62636Y242578D01*
X66126Y246068D01*
X69138Y246068D01*
X124368Y245238D02*
X129048Y245238D01*
X134378Y245238D01*
X136668Y242948D01*
X146000Y242948D01*
X155988Y242948D01*
X156438Y243398D01*
X129878Y246068D02*
X129878Y256118D01*
X129878Y246068D02*
X129048Y245238D01*
X156438Y243398D02*
X157438Y241628D01*
X167268Y240798D01*
X146678Y247798D02*
X145798Y249918D01*
D34*
X388338Y245098D02*
X388338Y268498D01*
X387938Y268898D01*
X387938Y274398D01*
X397038Y283498D01*
D38*
X111738Y395298D02*
X109614Y393298D01*
X133738Y394398D02*
X187248Y394398D01*
X133738Y394398D02*
X133038Y397098D01*
X203586Y389623D02*
X203586Y386201D01*
X203438Y369053D02*
X190438Y368398D01*
X203438Y369053D02*
X203586Y386201D01*
X203586Y389623D02*
X199136Y394073D01*
X198136Y394398D01*
X187248Y394398D01*
D36*
X306158Y54118D02*
X305412Y47882D01*
X306158Y54118D02*
X301438Y61398D01*
D35*
X168688Y109220D03*
D36*
X226048Y191402D02*
X235712Y191048D01*
X227650Y190800D02*
X226048Y191402D01*
X224600Y190800D02*
X227650Y190800D01*
D35*
X224600Y190800D03*
X227600Y318640D03*
D40*
X74690Y412310D02*
X39626Y412310D01*
X74690Y412310D02*
X88438Y398562D01*
X88438Y387308D01*
D35*
X215000Y251000D03*
D37*
X430448Y115350D02*
X449456Y115350D01*
X451420Y117314D01*
X375834Y115338D02*
X373552Y115350D01*
X381355Y102662D02*
X389000Y100000D01*
X396000Y95000D01*
X396000Y70000D01*
X306438Y150398D02*
X305996Y164337D01*
D36*
X418358Y170745D02*
X423091Y175478D01*
X429785Y175478D01*
X417938Y155098D02*
X418358Y152518D01*
X437865Y167398D02*
X439438Y167398D01*
X418358Y170745D02*
X418358Y152518D01*
X437865Y167398D02*
X429785Y175478D01*
D37*
X420137Y100244D02*
X420033Y100240D01*
X428166Y101638D02*
X430448Y102650D01*
X420033Y100240D02*
X419755Y99937D01*
X421531Y101638D02*
X428166Y101638D01*
X421531Y101638D02*
X420137Y100244D01*
X407080Y57186D02*
X406832Y56938D01*
X403938Y48398D01*
X409409Y89591D02*
X419755Y99937D01*
X409409Y89591D02*
X407186Y87369D01*
X407080Y57186D01*
X407512Y115462D02*
X413364Y115462D01*
X407512Y115462D02*
X403374Y111324D01*
X403374Y105472D01*
X413476Y115350D02*
X430448Y115350D01*
X413476Y115350D02*
X413364Y115462D01*
X403374Y105472D02*
X409409Y99437D01*
X409409Y89591D01*
D34*
X310716Y71676D02*
X301438Y61398D01*
X310716Y71676D02*
X313528Y71676D01*
X314810Y72958D01*
X330078Y72958D01*
X273438Y80398D02*
X274438Y91000D01*
X274438Y103996D01*
X295238Y80498D02*
X295138Y80398D01*
D37*
X381343Y102650D02*
X381355Y102662D01*
X381343Y102650D02*
X373552Y102650D01*
D36*
X350000Y112500D02*
X350000Y118000D01*
X350000Y128000D01*
X345000Y133000D01*
X345166Y133166D01*
X345166Y133346D01*
D35*
X345166Y133346D03*
D37*
X352650Y115350D02*
X373552Y115350D01*
X352650Y115350D02*
X350000Y118000D01*
X451420Y117314D02*
X467580Y117314D01*
X471500Y113394D02*
X471500Y109000D01*
X471500Y113394D02*
X467580Y117314D01*
X406598Y155098D02*
X402000Y156500D01*
X406598Y155098D02*
X417938Y155098D01*
D34*
X154500Y103250D02*
X154322Y103428D01*
X147210Y103428D01*
X143732Y113832D02*
X139296Y118268D01*
X133024Y118268D01*
X124506Y109750D02*
X109500Y109750D01*
X124506Y109750D02*
X133024Y118268D01*
X143732Y106906D02*
X147210Y103428D01*
X143732Y106906D02*
X143732Y113832D01*
X154500Y103250D02*
X154678Y103428D01*
X161790Y103428D01*
X163322Y103960D01*
X166322Y104854D01*
X168688Y109220D01*
D37*
X145798Y243150D02*
X145798Y249918D01*
X145798Y243150D02*
X146000Y242948D01*
D36*
X274438Y112898D02*
X286038Y101298D01*
X273438Y113898D02*
X273438Y136398D01*
X260836Y149000D01*
X254000Y149000D01*
X254000Y151500D01*
X258000Y154000D01*
X274438Y112898D02*
X274438Y103996D01*
X274438Y112898D02*
X273438Y113898D01*
X273438Y136398D02*
X273438Y80398D01*
X271000Y77960D02*
X268000Y59000D01*
X271000Y77960D02*
X273438Y80398D01*
X295138Y80398D01*
D38*
X74438Y240768D02*
X69138Y246068D01*
X74438Y240768D02*
X74438Y214398D01*
X115079Y230400D02*
X122206Y237527D01*
X93440Y230400D02*
X74438Y214398D01*
X122206Y237527D02*
X125206Y241076D01*
X124368Y245238D01*
X115079Y230400D02*
X93440Y230400D01*
D35*
X362000Y48000D03*
X416000Y231000D03*
D37*
X396000Y70000D02*
X379064Y53064D01*
X376074Y53064D01*
X371010Y48000D02*
X362000Y48000D01*
X371010Y48000D02*
X376074Y53064D01*
D34*
X309500Y284000D02*
X307438Y286062D01*
X307438Y310398D01*
X259440Y310880D02*
X254262Y316058D01*
X259440Y310880D02*
X260552Y310880D01*
X261234Y310198D01*
X306638Y310198D01*
D36*
X242538Y333578D02*
X227600Y318640D01*
X242538Y333578D02*
X242538Y348298D01*
X254262Y316058D02*
X230182Y316058D01*
X227600Y318640D01*
X388338Y245098D02*
X393008Y240428D01*
X393008Y238597D01*
X400605Y231000D01*
X416000Y231000D01*
D37*
X331738Y71298D02*
X337424Y65612D01*
X337424Y65218D01*
X354642Y48000D01*
X362000Y48000D01*
D36*
X408608Y41897D02*
X411437Y39068D01*
X408608Y43728D02*
X403938Y48398D01*
X408608Y43728D02*
X408608Y41897D01*
X411437Y39068D02*
X428108Y39068D01*
X440438Y51398D01*
X386462Y167398D02*
X383438Y167398D01*
X386462Y167398D02*
X392402Y173338D01*
X131238Y395298D02*
X111738Y395298D01*
X131238Y395298D02*
X133038Y397098D01*
D37*
X53738Y265874D02*
X49324Y265874D01*
X46648Y263198D01*
X64912Y277048D02*
X69478Y277048D01*
X64912Y277048D02*
X53738Y265874D01*
X51428Y276794D02*
X51264Y276794D01*
X48658Y274188D01*
X58182Y283548D02*
X69478Y283548D01*
X58182Y283548D02*
X51428Y276794D01*
D36*
X206000Y213000D02*
X207000Y208000D01*
X206000Y213000D02*
X206000Y216000D01*
X207172Y216828D02*
X207000Y208000D01*
X207172Y216828D02*
X185737Y244828D01*
D35*
X185737Y244828D03*
X200438Y321398D03*
D37*
X199602Y336398D02*
X188938Y336398D01*
X200438Y334438D02*
X200438Y321398D01*
X200438Y334438D02*
X199602Y335274D01*
X199602Y336398D01*
X138668Y277048D02*
X129478Y277048D01*
X138668Y277048D02*
X145798Y262918D01*
D36*
X167185Y277990D02*
X167148Y281048D01*
X168148Y280188D01*
X171952Y281048D02*
X175000Y285000D01*
X171952Y281048D02*
X167148Y281048D01*
D37*
X159380Y261686D02*
X153920Y261686D01*
X152688Y262918D01*
X145798Y262918D01*
D38*
X167185Y253881D02*
X167268Y253798D01*
X167185Y253881D02*
X167185Y263000D01*
X167185Y277990D01*
X167103Y262918D02*
X145798Y262918D01*
X167103Y262918D02*
X167185Y263000D01*
D32*
X117368Y255628D02*
X116878Y256118D01*
X116878Y257948D01*
X129478Y270548D01*
X115423Y256118D02*
X113573Y254268D01*
X113538Y254268D01*
X111368Y245238D01*
D34*
X115423Y256118D02*
X116878Y256118D01*
D38*
X163248Y179384D02*
X167952Y178384D01*
X177438Y176898D01*
X187248Y409384D02*
X203924Y409384D01*
X203938Y409398D01*
D35*
X451628Y181308D03*
D44*
X413528Y211788D03*
D35*
X389096Y188356D03*
D44*
X413528Y190452D03*
D36*
X389096Y188356D02*
X389096Y205413D01*
X379545Y214963D01*
X379545Y217635D01*
X369000Y228180D01*
X320000Y228180D01*
X313136Y221316D01*
X307376Y221316D01*
X283988Y197928D01*
D35*
X379000Y46000D03*
X314000Y64000D03*
D36*
X340670Y37330D01*
X343004Y37295D01*
X370295Y37295D01*
X379000Y46000D01*
D34*
X430448Y128050D02*
X440450Y128050D01*
X447500Y136000D01*
X430448Y128050D02*
X428674Y127546D01*
X407878Y127546D01*
X402010Y63262D02*
X377630Y30882D01*
X402010Y63262D02*
X402010Y95990D01*
X395826Y116494D02*
X407878Y127546D01*
X395826Y116494D02*
X395826Y102174D01*
X399743Y98257D01*
X400432Y97765D01*
X400471Y97529D01*
X402010Y95990D01*
X377630Y30882D02*
X306412Y30882D01*
X305412Y31882D01*
D36*
X158121Y110080D02*
X154500Y110080D01*
X158121Y110080D02*
X165341Y117300D01*
X234458Y87853D02*
X234458Y76000D01*
X234458Y87853D02*
X205011Y117300D01*
X165341Y117300D01*
D37*
X154500Y110080D02*
X154500Y109750D01*
D36*
X238848Y71610D02*
X238848Y20922D01*
X238848Y71610D02*
X234458Y76000D01*
X238848Y20922D02*
X248247Y20922D01*
X302347Y12920D02*
X307080Y17653D01*
X307080Y24347D01*
X305412Y26015D01*
X305412Y31882D01*
X256249Y12920D02*
X248247Y20922D01*
X256249Y12920D02*
X302347Y12920D01*
D37*
X362000Y94500D02*
X373552Y96300D01*
X382000Y96000D01*
X387000Y92000D01*
X387500Y76000D01*
X329420Y89686D02*
X327186Y91920D01*
X327186Y115080D01*
X359394Y94500D02*
X362000Y94500D01*
X359394Y94500D02*
X354580Y89686D01*
X329420Y89686D01*
X327186Y115080D02*
X325000Y116894D01*
X325000Y126500D01*
X373552Y121700D02*
X381700Y121700D01*
X385686Y141814D02*
X385080Y142814D01*
X385686Y141814D02*
X386500Y144000D01*
X383589Y139305D02*
X383589Y123589D01*
X383589Y139305D02*
X385080Y142814D01*
X383589Y123589D02*
X381700Y121700D01*
X324606Y176000D02*
X313686Y168080D01*
X313686Y109186D02*
X316000Y107500D01*
X313686Y109186D02*
X313686Y168080D01*
X373810Y122712D02*
X373552Y121700D01*
X373810Y122712D02*
X365289Y122712D01*
X361314Y127687D01*
X361314Y169080D01*
X356394Y176000D01*
X324606Y176000D01*
D36*
X320999Y214830D02*
X362001Y214830D01*
X370446Y205581D01*
X265111Y182350D02*
X259111Y182351D01*
X251712Y191048D01*
X265111Y182350D02*
X275499Y182738D01*
X291907Y182738D02*
X320999Y214830D01*
X291907Y182738D02*
X275499Y182738D01*
D34*
X99678Y113540D02*
X99678Y105960D01*
X102210Y103428D01*
X109322Y103428D01*
X109500Y103250D01*
X111264Y125126D02*
X212002Y125126D01*
X111264Y125126D02*
X99678Y113540D01*
X212002Y125126D02*
X215302Y121826D01*
X220000Y121826D01*
X222574Y121826D01*
D37*
X373552Y128050D02*
X373500Y129372D01*
X373500Y144000D01*
D36*
X251712Y191048D02*
X245664Y180000D01*
X239063Y180000D01*
X231732Y153268D02*
X228442Y152268D01*
X231732Y153268D02*
X232000Y176000D01*
X237000Y179937D01*
X239063Y180000D01*
X373500Y163033D02*
X373500Y144000D01*
X373500Y163033D02*
X374518Y164051D01*
X374518Y201510D01*
X370446Y205581D01*
X228442Y152268D02*
X228442Y135732D01*
D34*
X228442Y130268D02*
X220000Y121826D01*
X228442Y130268D02*
X228442Y135732D01*
X228442Y127694D02*
X222574Y121826D01*
X228442Y127694D02*
X228442Y152268D01*
D37*
X373552Y89950D02*
X373844Y89950D01*
X321186Y85186D02*
X319000Y87000D01*
X364080Y85186D02*
X373844Y89950D01*
X364080Y85186D02*
X321186Y85186D01*
X319000Y87000D02*
X316000Y90000D01*
X316000Y94500D01*
X316000Y95000D01*
X373552Y89950D02*
X374500Y76000D01*
X362000Y107500D02*
X350000Y99500D01*
X339000Y99500D01*
D34*
X430448Y96300D02*
X443200Y96300D01*
X443000Y94500D01*
D37*
X430448Y96300D02*
X422000Y96000D01*
X418000Y92000D01*
X418500Y76000D01*
D36*
X414500Y64000D01*
D34*
X459000Y130000D02*
X460500Y136000D01*
D37*
X436406Y121700D02*
X430448Y121700D01*
X436406Y121700D02*
X436420Y121686D01*
X447686Y121686D01*
X459000Y130000D01*
D34*
X466000Y136500D02*
X479000Y136500D01*
X466000Y136500D02*
X460500Y136000D01*
D37*
X432000Y89950D02*
X430448Y89950D01*
X432000Y89950D02*
X434156Y89950D01*
X436920Y87186D01*
X456814Y87186D02*
X466000Y78000D01*
X456814Y87186D02*
X436920Y87186D01*
X466000Y78000D02*
X476000Y78000D01*
X479349Y119027D02*
X479000Y123500D01*
X432000Y89950D02*
X431500Y76000D01*
X481376Y114000D02*
X479349Y119027D01*
X481376Y114000D02*
X481376Y83376D01*
X476000Y78000D01*
D34*
X458500Y97000D02*
X458500Y109000D01*
D37*
X443500Y109000D02*
X443000Y107500D01*
X444500Y109000D01*
X458500Y109000D01*
X175000Y313000D02*
X175000Y335460D01*
X175938Y336398D01*
D35*
X179000Y218000D03*
D36*
X179000Y205000D01*
X201000Y178000D02*
X207000Y180000D01*
X184939Y199228D02*
X184772Y199228D01*
X184939Y199228D02*
X187768Y196399D01*
X187768Y191232D01*
X201000Y178000D01*
X184772Y199228D02*
X179000Y205000D01*
D35*
X194000Y88000D03*
D34*
X183000Y77000D01*
X122750Y77000D01*
X109500Y90250D01*
D36*
X117500Y77000D02*
X116500Y76000D01*
X117500Y77000D02*
X122750Y77000D01*
D34*
X154500Y90250D02*
X163250Y90250D01*
X176000Y103000D01*
X176000Y102000D01*
D35*
X176000Y102000D03*
D34*
X182500Y103000D02*
X186500Y107000D01*
X182500Y103000D02*
X176000Y103000D01*
M02*
