M48
;GenerationSoftware,Autodesk,EAGLE,8.7.1*%
;CreationDate,2018-04-25T07:09:38Z*%
FMAT,2
ICI,OFF
METRIC,TZ,000.000
T7C0.350
T6C0.400
T5C0.500
T4C0.600
T3C0.800
T2C1.016
T1C3.000
%
G90
M71
T1
X3400Y3800
T2
X11194Y4950
X2874Y13280
X5414Y13280
X2874Y10740
X5414Y10740
X2874Y8200
X5414Y8200
X31554Y40740
X29014Y40740
X26474Y40740
X23934Y40740
X2844Y19240
X21354Y4950
X18814Y4950
X16274Y4950
X13734Y4950
X8654Y4950
X36184Y40700
X38724Y40700
X41264Y40700
X43804Y40700
X46344Y40700
T3
X7726Y17775
X41353Y21179
X7726Y15235
X25910Y9241
X25910Y11781
X41353Y19045
T4
X8844Y38731
X7885Y36855
T5
X9044Y13102
T6
X9690Y29586
T7
X11344Y26740
X15744Y19340
X28144Y34840
X32444Y36540
X25444Y35940
X36500Y35300
X30544Y22940
X31249Y26835
X24144Y21140
X27444Y21440
X40309Y25705
X41939Y24733
X42044Y25730
X33000Y31700
X42844Y26640
X46944Y31840
X18544Y26140
X22344Y26540
X42744Y5140
X41044Y10840
X30444Y11140
X21809Y30340
X29644Y26840
X41144Y26340
X39500Y21900
X21844Y34740
X29344Y34840
X30144Y9040
X36644Y17640
X42644Y16740
X42544Y38340
X11432Y31407
X13544Y21040
X14744Y28140
X18944Y30340
X11544Y30140
X7444Y21440
X30144Y6140
X38344Y16740
X43944Y16740
X44044Y5140
X27344Y13640
X27344Y8040
X30644Y15040
X30664Y31020
X28844Y21640
X39884Y29940
X37544Y28440
X19044Y36840
X15944Y34140
X47244Y15687
X38144Y36140
X15644Y24340
X16869Y10922
X22460Y19080
X22760Y31864
X21500Y25100
X34517Y13335
X36200Y4800
X41600Y23100
X18574Y24483
X20044Y32140
X45163Y18131
X1444Y27740
X38910Y18836
X21644Y13140
X37900Y4600
X31400Y6400
X17900Y21800
X19400Y8800
X17600Y10200
X33701Y13899
X25394Y12890
X46900Y3500
X24644Y8340
X42450Y2200
X35900Y19700
X29900Y2100
X32652Y29770
X27319Y15500
X13944Y14440
X8815Y7640
X22044Y7440
X3044Y21640
X2244Y29940
X12344Y19240
X15444Y21140
X14644Y30240
X47200Y8506
X33715Y12354
X13616Y11070
X14344Y36940
X2144Y28740
X17322Y34724
M30