G04 EAGLE Gerber X2 export*
%TF.Part,Single*%
%TF.FileFunction,Other,Solder stop mask CMP*%
%TF.FilePolarity,Positive*%
%TF.GenerationSoftware,Autodesk,EAGLE,8.7.1*%
%TF.CreationDate,2018-04-25T07:09:38Z*%
G75*
%MOMM*%
%FSLAX34Y34*%
%LPD*%
%AMOC8*
5,1,8,0,0,1.08239X$1,22.5*%
G01*
%ADD10C,3.203200*%
%ADD11R,0.903200X1.103200*%
%ADD12R,1.103200X0.903200*%
%ADD13R,0.803200X2.403200*%
%ADD14C,1.524000*%
%ADD15C,1.727200*%
%ADD16R,0.508000X1.193800*%
%ADD17R,0.711200X1.676400*%
%ADD18R,1.676400X0.711200*%
%ADD19P,1.649562X8X112.500000*%
%ADD20P,1.869504X8X112.500000*%
%ADD21R,0.953200X0.503200*%
%ADD22R,1.403200X0.753200*%
%ADD23P,1.649562X8X22.500000*%
%ADD24P,1.869504X8X22.500000*%
%ADD25R,1.803400X1.371600*%
%ADD26R,1.828800X0.152400*%
%ADD27R,1.371600X1.803400*%
%ADD28R,0.152400X1.828800*%
%ADD29C,0.700000*%
%ADD30C,0.903200*%
%ADD31C,0.650000*%
%ADD32C,0.900000*%
%ADD33C,1.103200*%
%ADD34C,0.800000*%
%ADD35C,1.003200*%
%ADD36C,1.200000*%
%ADD37C,1.403200*%


D10*
X34000Y38000D03*
D11*
X427038Y62098D03*
X440038Y62098D03*
D12*
X412338Y382798D03*
X412338Y369798D03*
D11*
X269738Y360898D03*
X282738Y360898D03*
D12*
X245438Y306398D03*
X245438Y319398D03*
D11*
X286938Y243198D03*
X273938Y243198D03*
X258778Y279118D03*
X245778Y279118D03*
X261738Y256598D03*
X274738Y256598D03*
D12*
X330038Y335398D03*
X330038Y348398D03*
X310938Y352698D03*
X310938Y365698D03*
D11*
X358738Y371298D03*
X371738Y371298D03*
D12*
X341438Y371998D03*
X341438Y358998D03*
X241638Y246498D03*
X241638Y259498D03*
X369038Y315298D03*
X369038Y302298D03*
X449738Y316798D03*
X449738Y303798D03*
D11*
X389738Y268098D03*
X376738Y268098D03*
D12*
X331038Y49798D03*
X331038Y62798D03*
X332838Y162898D03*
X332838Y149898D03*
D11*
X327338Y29998D03*
X314338Y29998D03*
D12*
X288538Y34398D03*
X288538Y47398D03*
D11*
X322338Y178498D03*
X309338Y178498D03*
D12*
X292338Y179198D03*
X292338Y166198D03*
D11*
X303938Y42298D03*
X316938Y42298D03*
X306038Y164298D03*
X319038Y164298D03*
D13*
X379088Y132498D03*
X379088Y80498D03*
X391788Y132498D03*
X366388Y132498D03*
X353688Y132498D03*
X391788Y80498D03*
X366388Y80498D03*
X353688Y80498D03*
X439088Y132398D03*
X439088Y80398D03*
X451788Y132398D03*
X426388Y132398D03*
X413688Y132398D03*
X451788Y80398D03*
X426388Y80398D03*
X413688Y80398D03*
D14*
X463438Y399378D02*
X463438Y414618D01*
D15*
X463438Y399378D01*
D14*
X438038Y399378D02*
X438038Y414618D01*
D15*
X438038Y399378D01*
D14*
X412638Y399378D02*
X412638Y414618D01*
D15*
X412638Y399378D01*
D14*
X387238Y399378D02*
X387238Y414618D01*
D15*
X387238Y399378D01*
D14*
X361838Y399378D02*
X361838Y414618D01*
D15*
X361838Y399378D01*
D14*
X86538Y57118D02*
X86538Y41878D01*
D15*
X86538Y57118D01*
D14*
X111938Y57118D02*
X111938Y41878D01*
D15*
X111938Y57118D01*
D14*
X137338Y57118D02*
X137338Y41878D01*
D15*
X137338Y57118D01*
D14*
X162738Y57118D02*
X162738Y41878D01*
D15*
X162738Y57118D01*
D14*
X188138Y57118D02*
X188138Y41878D01*
D15*
X188138Y57118D01*
D14*
X213538Y57118D02*
X213538Y41878D01*
D15*
X213538Y57118D01*
D16*
X191648Y279810D03*
X197998Y279810D03*
X204348Y279810D03*
X210698Y279810D03*
X217048Y279810D03*
X223398Y279810D03*
X229748Y279810D03*
X191648Y336706D03*
X197998Y336706D03*
X204348Y336706D03*
X210698Y336706D03*
X217048Y336706D03*
X223398Y336706D03*
X229748Y336706D03*
X274388Y279950D03*
X280738Y279950D03*
X287088Y279950D03*
X293438Y279950D03*
X299788Y279950D03*
X306138Y279950D03*
X312488Y279950D03*
X274388Y336846D03*
X280738Y336846D03*
X287088Y336846D03*
X293438Y336846D03*
X299788Y336846D03*
X306138Y336846D03*
X312488Y336846D03*
X390388Y279950D03*
X396738Y279950D03*
X403088Y279950D03*
X409438Y279950D03*
X415788Y279950D03*
X422138Y279950D03*
X428488Y279950D03*
X390388Y336846D03*
X396738Y336846D03*
X403088Y336846D03*
X409438Y336846D03*
X415788Y336846D03*
X422138Y336846D03*
X428488Y336846D03*
D11*
X377938Y151398D03*
X364938Y151398D03*
D12*
X351398Y60062D03*
X351398Y47062D03*
D11*
X439478Y151858D03*
X426478Y151858D03*
D16*
X326488Y134846D03*
X320138Y134846D03*
X313788Y134846D03*
X307438Y134846D03*
X301088Y134846D03*
X294738Y134846D03*
X288388Y134846D03*
X326488Y77950D03*
X320138Y77950D03*
X313788Y77950D03*
X307438Y77950D03*
X301088Y77950D03*
X294738Y77950D03*
X288388Y77950D03*
D14*
X239338Y399778D02*
X239338Y415018D01*
D15*
X239338Y399778D01*
D14*
X264738Y399778D02*
X264738Y415018D01*
D15*
X264738Y399778D01*
D14*
X290138Y399778D02*
X290138Y415018D01*
D15*
X290138Y399778D01*
D14*
X315538Y399778D02*
X315538Y415018D01*
D15*
X315538Y399778D01*
D17*
X178378Y171816D03*
X170504Y171816D03*
X162376Y171816D03*
X154502Y171816D03*
X146374Y171816D03*
X138500Y171816D03*
X130372Y171816D03*
X122498Y171816D03*
D18*
X108020Y157338D03*
X108020Y149464D03*
X108020Y141336D03*
X108020Y133462D03*
X108020Y125334D03*
X108020Y117460D03*
X108020Y109332D03*
X108020Y101458D03*
D17*
X122498Y86980D03*
X130372Y86980D03*
X138500Y86980D03*
X146374Y86980D03*
X154502Y86980D03*
X162376Y86980D03*
X170504Y86980D03*
X178378Y86980D03*
D18*
X192856Y101458D03*
X192856Y109332D03*
X192856Y117460D03*
X192856Y125334D03*
X192856Y133462D03*
X192856Y141336D03*
X192856Y149464D03*
X192856Y157338D03*
D12*
X224438Y116898D03*
X224438Y103898D03*
X211438Y103898D03*
X211438Y116898D03*
D19*
X54138Y81998D03*
D20*
X54138Y81998D03*
D19*
X28738Y81998D03*
D20*
X28738Y81998D03*
D19*
X54138Y107398D03*
D20*
X54138Y107398D03*
D19*
X28738Y107398D03*
D20*
X28738Y107398D03*
D19*
X54138Y132798D03*
D20*
X54138Y132798D03*
D19*
X28738Y132798D03*
D20*
X28738Y132798D03*
D21*
X76498Y323828D03*
X76498Y317328D03*
X76498Y310828D03*
X76498Y304328D03*
X76498Y297828D03*
X76498Y291328D03*
X76498Y284828D03*
X76498Y278328D03*
X76498Y271828D03*
X76498Y265328D03*
X136498Y265328D03*
X136498Y271828D03*
X136498Y278328D03*
X136498Y284828D03*
X136498Y291328D03*
X136498Y297828D03*
X136498Y304328D03*
X136498Y310828D03*
X136498Y317328D03*
X136498Y323828D03*
D11*
X98768Y336438D03*
X85768Y336438D03*
X98768Y347848D03*
X85768Y347848D03*
X61988Y343558D03*
X48988Y343558D03*
X60568Y332788D03*
X47568Y332788D03*
X77548Y253638D03*
X90548Y253638D03*
D12*
X170828Y300628D03*
X170828Y313628D03*
X143578Y332328D03*
X143578Y345328D03*
D11*
X116728Y336238D03*
X129728Y336238D03*
D12*
X160298Y313668D03*
X160298Y300668D03*
D11*
X55498Y322058D03*
X42498Y322058D03*
X51698Y300298D03*
X38698Y300298D03*
X45628Y216158D03*
X58628Y216158D03*
X135818Y253998D03*
X122818Y253998D03*
D12*
X60128Y267018D03*
X60128Y254018D03*
D11*
X38428Y288688D03*
X51428Y288688D03*
X205938Y205398D03*
X218938Y205398D03*
X204938Y218398D03*
X217938Y218398D03*
D12*
X205602Y263938D03*
X205602Y250938D03*
X167398Y205062D03*
X167398Y218062D03*
D11*
X178938Y328398D03*
X165938Y328398D03*
X172938Y363398D03*
X159938Y363398D03*
D12*
X204398Y355062D03*
X204398Y368062D03*
D22*
X20438Y268898D03*
X20438Y259398D03*
X20438Y249898D03*
X46438Y249898D03*
X46438Y268898D03*
D11*
X54618Y172198D03*
X41618Y172198D03*
D23*
X28438Y192398D03*
D24*
X28438Y192398D03*
D25*
X469408Y261744D03*
X469408Y246504D03*
D26*
X469408Y254124D03*
D27*
X354616Y214072D03*
X369856Y214072D03*
D28*
X362236Y214072D03*
D11*
X403500Y46000D03*
X390500Y46000D03*
D12*
X341000Y80500D03*
X341000Y93500D03*
X403000Y151500D03*
X403000Y164500D03*
X477000Y229500D03*
X477000Y216500D03*
X464000Y229500D03*
X464000Y216500D03*
X447000Y228500D03*
X447000Y215500D03*
X473000Y142500D03*
X473000Y129500D03*
X257000Y306500D03*
X257000Y319500D03*
D29*
X96898Y295858D03*
D30*
X96898Y295858D03*
D31*
X113438Y267398D03*
X157438Y193398D03*
D32*
X78850Y368550D03*
D33*
X78850Y368550D03*
D31*
X281438Y348398D03*
X324438Y365398D03*
X254438Y359398D03*
X365000Y353000D03*
X305438Y229398D03*
X312488Y268348D03*
X241438Y211398D03*
X274438Y214398D03*
X403088Y257048D03*
X419394Y247327D03*
X420438Y257298D03*
X326522Y297698D03*
X330000Y317000D03*
X428438Y266398D03*
X469438Y318398D03*
X185438Y261398D03*
X223438Y265398D03*
X427438Y51398D03*
X410438Y108398D03*
X304438Y111398D03*
X218088Y303398D03*
X296438Y268398D03*
X411438Y263398D03*
X395000Y219000D03*
X218438Y347398D03*
X293438Y348398D03*
X301438Y90398D03*
X366438Y176398D03*
X426438Y167398D03*
X425438Y383398D03*
X173220Y347236D03*
X21438Y287398D03*
X143438Y369398D03*
X136160Y110696D03*
X337148Y123540D03*
X472000Y85064D03*
X146438Y302398D03*
X154438Y211398D03*
X123438Y192398D03*
X22438Y299398D03*
X30438Y216398D03*
X220438Y74398D03*
X88150Y76398D03*
X139438Y144398D03*
D34*
X90440Y131016D03*
D35*
X90440Y131016D03*
D31*
X273191Y155003D03*
X299000Y21000D03*
X359000Y197000D03*
X424500Y22000D03*
X246438Y83398D03*
D36*
X259096Y92408D03*
D37*
X259096Y92408D03*
D31*
X469000Y35000D03*
X253938Y128898D03*
D36*
X259096Y117808D03*
D37*
X259096Y117808D03*
D31*
X337013Y138987D03*
X216438Y131398D03*
X14438Y277398D03*
X147438Y281398D03*
X135438Y210398D03*
D36*
X77264Y152352D03*
D37*
X77264Y152352D03*
D31*
X114316Y314068D03*
D36*
X77264Y177752D03*
D37*
X77264Y177752D03*
D32*
X88438Y387308D03*
D33*
X88438Y387308D03*
D31*
X189438Y303398D03*
X115438Y301398D03*
X74438Y214398D03*
X301438Y61398D03*
X383438Y167398D03*
X439438Y167398D03*
X440438Y51398D03*
X273438Y136398D03*
X273438Y80398D03*
X306438Y150398D03*
X306638Y310198D03*
X288438Y216398D03*
X398838Y299398D03*
X375438Y284398D03*
X190438Y368398D03*
X159438Y341398D03*
X472438Y156868D03*
X381438Y361398D03*
X156438Y243398D03*
X168688Y109220D03*
X224600Y190800D03*
X227600Y318640D03*
X215000Y251000D03*
X345166Y133346D03*
X362000Y48000D03*
X416000Y231000D03*
X185737Y244828D03*
X200438Y321398D03*
X451628Y181308D03*
D36*
X413528Y211788D03*
D37*
X413528Y211788D03*
D31*
X389096Y188356D03*
D36*
X413528Y190452D03*
D37*
X413528Y190452D03*
D31*
X379000Y46000D03*
X314000Y64000D03*
X179000Y218000D03*
X194000Y88000D03*
X176000Y102000D03*
M02*
