G75*
%MOIN*%
%OFA0B0*%
%FSLAX25Y25*%
%IPPOS*%
%LPD*%
%AMOC8*
5,1,8,0,0,1.08239X$1,22.5*
%
%ADD10R,0.03543X0.02756*%
%ADD11R,0.02756X0.03543*%
%ADD12R,0.03937X0.04331*%
%ADD13C,0.06000*%
%ADD14R,0.03543X0.03937*%
%ADD15R,0.03543X0.04331*%
%ADD16OC8,0.06000*%
%ADD17R,0.06300X0.04600*%
%ADD18R,0.02953X0.01181*%
%ADD19C,0.01496*%
%ADD20R,0.05512X0.02362*%
%ADD21R,0.05512X0.02559*%
%ADD22C,0.00800*%
%ADD23R,0.03150X0.02362*%
%ADD24R,0.02362X0.03150*%
%ADD25R,0.04600X0.06300*%
%ADD26R,0.03900X0.01200*%
%ADD27R,0.07087X0.06299*%
%ADD28R,0.14567X0.07087*%
%ADD29R,0.07087X0.14567*%
%ADD30R,0.06299X0.07087*%
%ADD31R,0.04331X0.01575*%
%ADD32C,0.01000*%
%ADD33C,0.02756*%
%ADD34C,0.01600*%
%ADD35C,0.02559*%
%ADD36C,0.02000*%
%ADD37C,0.01200*%
%ADD38C,0.02400*%
%ADD39C,0.03543*%
%ADD40C,0.05000*%
%ADD41C,0.03200*%
%ADD42C,0.03150*%
%ADD43C,0.04724*%
D10*
X0033083Y0038078D03*
X0033083Y0043196D03*
X0074357Y0076645D03*
X0074357Y0081763D03*
X0070354Y0101802D03*
X0070354Y0106920D03*
X0061901Y0105393D03*
X0061901Y0110511D03*
X0031720Y0108995D03*
X0031720Y0103877D03*
X0085602Y0042236D03*
X0085602Y0037118D03*
X0128909Y0044205D03*
X0128909Y0049323D03*
X0132453Y0056803D03*
X0132453Y0061921D03*
X0137965Y0051291D03*
X0142295Y0051291D03*
X0147020Y0049323D03*
X0142295Y0046173D03*
X0137965Y0046173D03*
X0147020Y0044205D03*
X0162768Y0063496D03*
X0162768Y0068614D03*
X0178909Y0049323D03*
X0178909Y0044205D03*
X0193083Y0055622D03*
X0193083Y0060740D03*
X0147861Y0118298D03*
X0147861Y0123417D03*
X0124658Y0107527D03*
X0124658Y0102409D03*
X0104603Y0126314D03*
X0104603Y0131432D03*
D11*
X0114129Y0132897D03*
X0119247Y0132897D03*
X0120342Y0139007D03*
X0125460Y0139007D03*
X0126350Y0118811D03*
X0121232Y0118811D03*
X0133753Y0117881D03*
X0138871Y0117881D03*
X0157231Y0112865D03*
X0162350Y0112865D03*
X0160814Y0118613D03*
X0165932Y0118613D03*
X0168216Y0124952D03*
X0173334Y0124952D03*
X0166641Y0129991D03*
X0161523Y0129991D03*
X0162507Y0103495D03*
X0157389Y0103495D03*
X0158989Y0075243D03*
X0164107Y0075243D03*
X0169043Y0068062D03*
X0174161Y0068062D03*
X0180681Y0060543D03*
X0185799Y0060543D03*
X0185012Y0049913D03*
X0185012Y0045189D03*
X0190130Y0045189D03*
X0190130Y0049913D03*
X0174382Y0036921D03*
X0172807Y0032197D03*
X0167689Y0032197D03*
X0169264Y0036921D03*
X0168649Y0026054D03*
X0163531Y0026054D03*
X0157059Y0036921D03*
X0151941Y0036921D03*
X0140224Y0035070D03*
X0135106Y0035070D03*
X0125854Y0038692D03*
X0120735Y0038692D03*
X0122231Y0046881D03*
X0117113Y0046881D03*
X0083043Y0049126D03*
X0077925Y0049126D03*
X0050366Y0036921D03*
X0045248Y0036921D03*
X0048346Y0103550D03*
X0050515Y0107834D03*
X0053464Y0103550D03*
X0055633Y0107834D03*
X0023657Y0114948D03*
X0022747Y0119247D03*
X0017629Y0119247D03*
X0018539Y0114948D03*
X0017747Y0110621D03*
X0022865Y0110621D03*
X0023046Y0106176D03*
X0017928Y0106176D03*
X0016865Y0127594D03*
X0016440Y0131771D03*
X0021558Y0131771D03*
X0021983Y0127594D03*
X0023003Y0140696D03*
X0017885Y0140696D03*
X0031822Y0140995D03*
X0036940Y0140995D03*
X0049909Y0141216D03*
X0055027Y0141216D03*
X0073767Y0139440D03*
X0078885Y0139440D03*
X0094869Y0144125D03*
X0099987Y0144125D03*
X0089909Y0168180D03*
X0084791Y0168180D03*
X0151547Y0063693D03*
X0156665Y0063693D03*
D12*
X0056877Y0156645D03*
X0056877Y0163338D03*
X0048491Y0162629D03*
X0048491Y0169322D03*
X0048885Y0079007D03*
X0048885Y0072314D03*
X0040617Y0073574D03*
X0040617Y0066881D03*
D13*
X0038570Y0029487D02*
X0038570Y0023487D01*
X0048570Y0023487D02*
X0048570Y0029487D01*
X0058570Y0029487D02*
X0058570Y0023487D01*
X0068570Y0023487D02*
X0068570Y0029487D01*
X0078570Y0029487D02*
X0078570Y0023487D01*
X0088570Y0023487D02*
X0088570Y0029487D01*
X0098728Y0164393D02*
X0098728Y0170393D01*
X0108728Y0170393D02*
X0108728Y0164393D01*
X0118728Y0164393D02*
X0118728Y0170393D01*
X0128728Y0170393D02*
X0128728Y0164393D01*
X0146956Y0164235D02*
X0146956Y0170235D01*
X0156956Y0170235D02*
X0156956Y0164235D01*
X0166956Y0164235D02*
X0166956Y0170235D01*
X0176956Y0170235D02*
X0176956Y0164235D01*
X0186956Y0164235D02*
X0186956Y0170235D01*
D14*
X0107822Y0108731D03*
X0107822Y0102039D03*
D15*
X0119239Y0105385D03*
D16*
X0025814Y0059283D03*
X0015814Y0059283D03*
X0015814Y0049283D03*
X0025814Y0049283D03*
X0025814Y0039283D03*
X0015814Y0039283D03*
X0015696Y0082747D03*
D17*
X0016090Y0074330D03*
X0016090Y0068330D03*
X0025145Y0068330D03*
X0025145Y0074330D03*
D18*
X0031854Y0113515D03*
X0031854Y0116074D03*
X0031854Y0118633D03*
X0031854Y0121192D03*
X0031854Y0123751D03*
X0031854Y0126310D03*
X0031854Y0128869D03*
X0031854Y0131428D03*
X0031854Y0133987D03*
X0031854Y0136546D03*
X0055476Y0136546D03*
X0055476Y0133987D03*
X0055476Y0131428D03*
X0055476Y0128869D03*
X0055476Y0126310D03*
X0055476Y0123751D03*
X0055476Y0121192D03*
X0055476Y0118633D03*
X0055476Y0116074D03*
X0055476Y0113515D03*
D19*
X0010416Y0152949D02*
X0010416Y0158933D01*
X0029786Y0158933D01*
X0029786Y0152949D01*
X0010416Y0152949D01*
X0010416Y0154444D02*
X0029786Y0154444D01*
X0029786Y0155939D02*
X0010416Y0155939D01*
X0010416Y0157434D02*
X0029786Y0157434D01*
X0029786Y0158929D02*
X0010416Y0158929D01*
X0010416Y0166335D02*
X0010416Y0172319D01*
X0029786Y0172319D01*
X0029786Y0166335D01*
X0010416Y0166335D01*
X0010416Y0167830D02*
X0029786Y0167830D01*
X0029786Y0169325D02*
X0010416Y0169325D01*
X0010416Y0170820D02*
X0029786Y0170820D01*
X0029786Y0172315D02*
X0010416Y0172315D01*
D20*
X0063751Y0168175D03*
X0078220Y0168175D03*
X0078220Y0156375D03*
X0063751Y0156375D03*
X0068771Y0077624D03*
X0068771Y0065824D03*
X0054302Y0065824D03*
X0054302Y0077624D03*
D21*
X0068771Y0071724D03*
X0078220Y0162275D03*
D22*
X0079869Y0161911D02*
X0061365Y0161911D01*
X0061365Y0161113D02*
X0075558Y0161113D01*
X0075932Y0161487D02*
X0073964Y0159519D01*
X0061365Y0159519D01*
X0061365Y0165031D01*
X0073964Y0165031D01*
X0075932Y0163062D01*
X0079869Y0163062D01*
X0079869Y0161487D01*
X0075932Y0161487D01*
X0074759Y0160314D02*
X0061365Y0160314D01*
X0061365Y0162710D02*
X0079869Y0162710D01*
X0075486Y0163508D02*
X0061365Y0163508D01*
X0061365Y0164307D02*
X0074688Y0164307D01*
X0120027Y0139322D02*
X0120342Y0139007D01*
X0064515Y0074480D02*
X0051917Y0074480D01*
X0051917Y0068968D01*
X0064515Y0068968D01*
X0066483Y0070936D01*
X0070420Y0070936D01*
X0070420Y0072511D01*
X0066483Y0072511D01*
X0064515Y0074480D01*
X0064920Y0074075D02*
X0051917Y0074075D01*
X0051917Y0073276D02*
X0065718Y0073276D01*
X0066428Y0070881D02*
X0051917Y0070881D01*
X0051917Y0071679D02*
X0070420Y0071679D01*
X0070420Y0072478D02*
X0051917Y0072478D01*
X0051917Y0070082D02*
X0065630Y0070082D01*
X0064831Y0069284D02*
X0051917Y0069284D01*
D23*
X0124741Y0025851D03*
X0124741Y0019552D03*
D24*
X0098535Y0015237D03*
X0092235Y0015237D03*
X0094438Y0066948D03*
X0088139Y0066948D03*
X0097300Y0082216D03*
X0103599Y0082216D03*
D25*
X0110306Y0084924D03*
X0116306Y0084924D03*
D26*
X0151568Y0057413D03*
X0151568Y0054913D03*
X0151568Y0052413D03*
X0151568Y0049913D03*
X0151568Y0047413D03*
X0151568Y0044913D03*
X0151568Y0042413D03*
X0173968Y0042413D03*
X0173968Y0044913D03*
X0173968Y0047413D03*
X0173968Y0049913D03*
X0173968Y0052413D03*
X0173968Y0054913D03*
X0173968Y0057413D03*
D27*
X0188752Y0026291D03*
X0188752Y0015268D03*
X0138752Y0071173D03*
X0138752Y0082197D03*
X0187571Y0108181D03*
X0187571Y0119205D03*
X0110012Y0030228D03*
X0110012Y0019205D03*
X0085996Y0077866D03*
X0085996Y0088890D03*
X0073398Y0119205D03*
X0073398Y0130228D03*
D28*
X0142295Y0137512D03*
X0142295Y0153654D03*
D29*
X0149579Y0107787D03*
X0133437Y0107787D03*
D30*
X0117098Y0067630D03*
X0106075Y0067630D03*
D31*
X0065327Y0050209D03*
X0065327Y0047650D03*
X0065327Y0045091D03*
X0065327Y0042531D03*
X0047610Y0042531D03*
X0047610Y0045091D03*
X0047610Y0047650D03*
X0047610Y0050209D03*
D32*
X0062940Y0072905D02*
X0068771Y0071724D01*
X0062940Y0072905D02*
X0060578Y0075267D01*
X0053822Y0103550D02*
X0053885Y0103613D01*
X0053822Y0103550D02*
X0053464Y0103550D01*
X0050708Y0107641D02*
X0050515Y0107834D01*
X0050515Y0108554D01*
X0055476Y0113515D01*
X0049942Y0107834D02*
X0049214Y0107106D01*
X0049200Y0107106D01*
X0048346Y0103550D01*
X0031854Y0113515D02*
X0031720Y0113381D01*
X0031854Y0113515D02*
X0030891Y0113515D01*
X0023928Y0119261D02*
X0025860Y0121192D01*
X0031854Y0121192D01*
X0033344Y0121192D01*
X0023928Y0119261D02*
X0023345Y0119845D01*
X0023928Y0119261D02*
X0022747Y0119247D01*
X0020409Y0116909D01*
X0020409Y0116895D01*
X0018539Y0115025D01*
X0018539Y0114948D01*
X0017747Y0110621D02*
X0017928Y0110440D01*
X0017928Y0106176D01*
X0016865Y0127594D02*
X0016834Y0130775D01*
X0016440Y0131771D01*
X0016982Y0133100D01*
X0031854Y0136546D02*
X0031854Y0140964D01*
X0031822Y0140995D01*
X0055027Y0141216D02*
X0055476Y0140767D01*
X0055476Y0136546D01*
X0060972Y0152432D02*
X0060696Y0152550D01*
X0081269Y0162275D02*
X0081569Y0162275D01*
X0119247Y0132897D02*
X0119363Y0132897D01*
X0124861Y0129724D02*
X0125460Y0129125D01*
X0125539Y0129204D01*
X0125460Y0129125D02*
X0125224Y0129125D01*
X0160814Y0118613D02*
X0161523Y0119322D01*
X0123176Y0042590D02*
X0125854Y0040306D01*
X0125854Y0038692D01*
X0126326Y0039033D02*
X0131297Y0038787D01*
X0131310Y0038787D01*
X0131405Y0038692D01*
X0137350Y0038692D01*
X0140027Y0035857D01*
X0140224Y0035070D01*
X0135106Y0035070D02*
X0134452Y0035724D01*
X0126326Y0039033D02*
X0125932Y0039440D01*
D33*
X0042649Y0123480D03*
D34*
X0042306Y0123137D01*
X0042306Y0118649D01*
X0048680Y0112275D01*
X0049161Y0112275D01*
X0049942Y0107834D02*
X0050515Y0107834D01*
X0042649Y0123480D02*
X0043306Y0124137D01*
X0043306Y0130649D01*
X0045235Y0132578D01*
X0045235Y0134049D01*
X0045235Y0136543D01*
X0049909Y0141216D01*
X0036940Y0129976D02*
X0042649Y0123480D01*
X0039539Y0089834D02*
X0036385Y0087073D01*
X0030726Y0087073D01*
X0021985Y0078331D01*
X0021290Y0078331D01*
X0017288Y0074330D01*
X0016090Y0074330D01*
X0016090Y0068330D02*
X0016090Y0066207D01*
X0011113Y0061230D01*
X0011113Y0057335D01*
X0015814Y0052634D01*
X0015814Y0049283D01*
X0021113Y0047335D02*
X0021113Y0053984D01*
X0015814Y0059283D01*
X0021113Y0057335D02*
X0021113Y0061230D01*
X0025145Y0065262D01*
X0025145Y0068330D01*
X0025145Y0074330D02*
X0025145Y0075511D01*
X0033717Y0084083D01*
X0039225Y0084083D01*
X0041995Y0086853D01*
X0059057Y0086853D01*
X0062432Y0090228D01*
X0065302Y0090228D01*
X0067718Y0086122D02*
X0062801Y0086122D01*
X0054302Y0077624D01*
X0060578Y0077361D02*
X0060578Y0075267D01*
X0060578Y0077361D02*
X0060952Y0077735D01*
X0060952Y0077361D01*
X0060952Y0077735D02*
X0066358Y0083141D01*
X0066483Y0083141D01*
X0067718Y0086122D02*
X0072077Y0081763D01*
X0074357Y0081763D01*
X0057822Y0089834D02*
X0039539Y0089834D01*
X0040617Y0066881D02*
X0040617Y0065819D01*
X0040472Y0065674D01*
X0046439Y0059381D02*
X0089161Y0059283D01*
X0089712Y0058731D01*
X0087965Y0056262D02*
X0089264Y0054963D01*
X0091114Y0054963D01*
X0094438Y0058287D01*
X0094438Y0060438D01*
X0094438Y0057273D02*
X0094438Y0066948D01*
X0094438Y0057273D02*
X0092128Y0054963D01*
X0091114Y0054963D01*
X0087965Y0056262D02*
X0048305Y0056262D01*
X0043743Y0051701D01*
X0043743Y0048716D01*
X0044740Y0047720D01*
X0047540Y0047720D01*
X0047610Y0047650D01*
X0047610Y0050209D02*
X0053518Y0050209D01*
X0056871Y0053562D01*
X0059341Y0053562D01*
X0061087Y0051816D01*
X0061087Y0049089D01*
X0062457Y0047720D01*
X0065257Y0047720D01*
X0065327Y0047650D01*
X0065397Y0047720D01*
X0068197Y0047720D01*
X0068800Y0047929D01*
X0069981Y0048281D01*
X0070913Y0050000D01*
X0073791Y0047551D02*
X0076350Y0047551D01*
X0077925Y0049126D01*
X0073791Y0047551D02*
X0073791Y0047157D01*
X0073791Y0047551D02*
X0068772Y0042531D01*
X0065327Y0042531D01*
X0062457Y0040043D02*
X0068197Y0040043D01*
X0068225Y0040071D01*
X0075169Y0040071D01*
X0077897Y0042798D01*
X0077897Y0042880D01*
X0079643Y0044627D01*
X0083606Y0044627D01*
X0085602Y0042236D01*
X0080878Y0041646D02*
X0076547Y0037315D01*
X0052827Y0037315D01*
X0047610Y0042531D01*
X0047540Y0045020D02*
X0044740Y0045020D01*
X0042916Y0043196D01*
X0033083Y0043196D01*
X0031698Y0044581D01*
X0023867Y0044581D01*
X0021113Y0047335D01*
X0025814Y0049283D02*
X0025814Y0052634D01*
X0021113Y0057335D01*
X0025814Y0059283D02*
X0033792Y0059283D01*
X0038113Y0054962D01*
X0042020Y0054962D01*
X0046439Y0059381D01*
X0058106Y0050581D02*
X0058106Y0047488D01*
X0060799Y0045189D01*
X0060898Y0045091D01*
X0065327Y0045091D01*
X0061460Y0044528D02*
X0061460Y0041039D01*
X0062457Y0040043D01*
X0061460Y0044528D02*
X0060898Y0045091D01*
X0047610Y0045091D02*
X0047540Y0045020D01*
X0078570Y0026487D02*
X0085406Y0036472D01*
X0085602Y0037118D01*
X0112153Y0038653D02*
X0112546Y0042827D01*
X0112546Y0047943D01*
X0120735Y0038692D02*
X0120696Y0038653D01*
X0126829Y0035219D02*
X0127936Y0035219D01*
X0128441Y0035724D01*
X0134452Y0035724D01*
X0126829Y0035219D02*
X0123176Y0031172D01*
X0124741Y0019552D02*
X0125135Y0019158D01*
X0153173Y0019158D01*
X0162772Y0031906D01*
X0162772Y0044791D01*
X0162166Y0045397D01*
X0162150Y0045490D01*
X0161879Y0045684D01*
X0160731Y0047226D01*
X0160731Y0052864D01*
X0165082Y0057215D01*
X0173269Y0057215D01*
X0173968Y0057413D01*
X0177906Y0057413D01*
X0180681Y0060543D01*
X0185209Y0058181D02*
X0185799Y0060543D01*
X0187965Y0060740D01*
X0193083Y0060740D01*
X0185012Y0049913D02*
X0185012Y0045189D01*
X0178988Y0044913D02*
X0178909Y0044205D01*
X0178988Y0044913D02*
X0173968Y0044913D01*
X0172807Y0032197D02*
X0174518Y0032017D01*
X0112546Y0060306D02*
X0112153Y0060700D01*
X0112546Y0091409D02*
X0112546Y0097314D01*
X0107822Y0102039D01*
X0121208Y0116724D02*
X0121208Y0118787D01*
X0121232Y0118811D01*
X0125539Y0119623D02*
X0126350Y0118811D01*
X0125539Y0119623D02*
X0125539Y0129204D01*
X0125224Y0129125D02*
X0107348Y0129125D01*
X0107080Y0129394D01*
X0106642Y0129394D01*
X0104603Y0131432D01*
X0082506Y0162275D02*
X0081569Y0162275D01*
X0078220Y0162275D01*
X0157231Y0115031D02*
X0157231Y0112865D01*
X0157389Y0112708D01*
X0157389Y0103495D01*
X0163196Y0108200D02*
X0163196Y0112019D01*
X0162350Y0112865D01*
X0166483Y0110700D02*
X0166483Y0118062D01*
X0165932Y0118613D01*
X0160814Y0118613D02*
X0157231Y0115031D01*
D35*
X0152310Y0118968D03*
X0161523Y0124873D03*
X0166483Y0110700D03*
X0163196Y0108200D03*
X0170027Y0108298D03*
X0173176Y0111881D03*
X0169616Y0104373D03*
X0168280Y0097945D03*
X0160012Y0093220D03*
X0157687Y0081156D03*
X0155460Y0072905D03*
X0148767Y0076448D03*
X0145839Y0084559D03*
X0124751Y0097314D03*
X0118058Y0092196D03*
X0112546Y0091409D03*
X0099554Y0090228D03*
X0092925Y0082118D03*
X0074972Y0092827D03*
X0065302Y0090228D03*
X0057822Y0089834D03*
X0053098Y0082747D03*
X0066483Y0083141D03*
X0059397Y0063850D03*
X0058106Y0050581D03*
X0070913Y0050000D03*
X0073791Y0047157D03*
X0080878Y0041646D03*
X0091287Y0036291D03*
X0101523Y0039834D03*
X0112153Y0038653D03*
X0123176Y0042590D03*
X0124357Y0050857D03*
X0112153Y0060700D03*
X0112056Y0068025D03*
X0104476Y0057747D03*
X0089712Y0058731D03*
X0123176Y0031172D03*
X0128122Y0032197D03*
X0122217Y0015268D03*
X0147020Y0025898D03*
X0153713Y0025110D03*
X0172783Y0027235D03*
X0177901Y0027235D03*
X0189146Y0020780D03*
X0171626Y0015661D03*
X0190327Y0040490D03*
X0167492Y0049562D03*
X0157035Y0050464D03*
X0140392Y0059498D03*
X0137182Y0061719D03*
X0137235Y0055638D03*
X0125145Y0066212D03*
X0089146Y0105819D03*
X0092468Y0111487D03*
X0077507Y0109913D03*
X0077625Y0103389D03*
X0066090Y0102826D03*
X0062546Y0117787D03*
X0062153Y0126054D03*
X0049948Y0125661D03*
X0049506Y0130649D03*
X0067271Y0141409D03*
X0072697Y0143707D03*
X0079476Y0152039D03*
X0090499Y0143771D03*
X0094106Y0132449D03*
X0090361Y0126448D03*
X0083413Y0133535D03*
X0079082Y0126448D03*
X0104672Y0148495D03*
X0115302Y0144165D03*
X0120027Y0144165D03*
X0132231Y0150857D03*
X0148201Y0145976D03*
X0154672Y0149283D03*
X0171995Y0157944D03*
X0189318Y0132354D03*
X0134421Y0131803D03*
X0133052Y0124204D03*
X0125224Y0129125D03*
X0127527Y0112649D03*
X0121208Y0112669D03*
X0172389Y0072905D03*
X0177507Y0072905D03*
X0182306Y0078381D03*
X0190499Y0068759D03*
X0060972Y0152432D03*
X0049161Y0112275D03*
X0033806Y0091409D03*
X0016483Y0092196D03*
X0010184Y0116212D03*
X0012940Y0120149D03*
X0013334Y0124873D03*
X0039205Y0037078D03*
D36*
X0039205Y0036862D01*
X0040917Y0035150D01*
X0043476Y0035150D01*
X0045248Y0036921D01*
X0040917Y0035150D02*
X0043669Y0032398D01*
X0043669Y0021457D01*
X0046540Y0018586D01*
X0060600Y0018586D01*
X0068502Y0026487D01*
X0068570Y0026487D01*
X0079820Y0015237D01*
X0092235Y0015237D01*
X0094306Y0018751D01*
X0094306Y0032381D01*
X0091287Y0035401D01*
X0091287Y0036291D01*
X0091287Y0043178D01*
X0087932Y0046927D01*
X0083274Y0048895D01*
X0083043Y0049126D01*
X0086394Y0053181D02*
X0069595Y0053181D01*
X0066752Y0050339D01*
X0065327Y0050339D01*
X0052827Y0037315D02*
X0050760Y0037315D01*
X0050366Y0036921D01*
X0039205Y0037078D02*
X0038205Y0038078D01*
X0033083Y0038078D01*
X0053986Y0064087D02*
X0059160Y0064087D01*
X0059397Y0063850D01*
X0064119Y0063850D01*
X0065227Y0062741D01*
X0072314Y0062741D01*
X0080116Y0066999D01*
X0086826Y0066999D01*
X0088139Y0066948D01*
X0094438Y0066948D02*
X0094438Y0060438D01*
X0094438Y0066948D02*
X0095733Y0067342D01*
X0095839Y0076291D01*
X0097807Y0077841D01*
X0098619Y0077866D01*
X0101218Y0077866D01*
X0103599Y0082216D01*
X0106512Y0078792D01*
X0108874Y0078791D01*
X0112964Y0078944D01*
X0119424Y0078944D01*
X0130878Y0091579D01*
X0147020Y0091579D01*
X0150345Y0087937D01*
X0151948Y0086334D01*
X0151948Y0071587D01*
X0151547Y0071186D01*
X0151547Y0063693D01*
X0142295Y0057394D02*
X0140327Y0059362D01*
X0140392Y0059427D01*
X0140392Y0059498D01*
X0142295Y0057394D02*
X0142295Y0053457D01*
X0142295Y0051291D01*
X0138622Y0051949D02*
X0138622Y0053457D01*
X0138023Y0055614D01*
X0137235Y0055638D01*
X0138622Y0051949D02*
X0137965Y0051291D01*
X0126326Y0039033D02*
X0126194Y0039033D01*
X0125854Y0038692D01*
X0120696Y0038653D02*
X0112153Y0038653D01*
X0111193Y0037693D01*
X0110012Y0030228D01*
X0112153Y0038653D02*
X0112153Y0060700D01*
X0107191Y0065661D01*
X0104500Y0065661D01*
X0104500Y0066646D01*
X0106075Y0067630D01*
X0112153Y0060700D02*
X0112153Y0051842D01*
X0112546Y0051448D01*
X0112546Y0047943D01*
X0112546Y0051448D02*
X0117113Y0046881D01*
X0128122Y0032197D02*
X0138622Y0021697D01*
X0139541Y0021683D01*
X0150285Y0021683D01*
X0153713Y0025110D01*
X0163531Y0026054D02*
X0165369Y0024216D01*
X0165369Y0023495D01*
X0166483Y0022381D01*
X0173046Y0022381D01*
X0177901Y0027235D01*
X0172783Y0027235D02*
X0169830Y0027235D01*
X0168649Y0026054D01*
X0167689Y0032197D02*
X0169264Y0036921D01*
X0173201Y0032591D02*
X0172807Y0032197D01*
X0173201Y0032591D02*
X0182453Y0032591D01*
X0188752Y0026291D01*
X0189146Y0020780D01*
X0188358Y0015661D02*
X0171626Y0015661D01*
X0188358Y0015661D02*
X0188752Y0015268D01*
X0190327Y0040490D02*
X0190130Y0040687D01*
X0190130Y0045189D01*
X0169208Y0067046D02*
X0169208Y0074222D01*
X0171071Y0076086D01*
X0173707Y0076086D01*
X0176888Y0072905D01*
X0177507Y0072905D01*
X0174161Y0071133D02*
X0172389Y0072905D01*
X0174161Y0071133D02*
X0174161Y0068062D01*
X0169208Y0067046D02*
X0169043Y0068062D01*
X0164107Y0075243D02*
X0162269Y0077082D01*
X0162269Y0088400D01*
X0160012Y0090657D01*
X0160012Y0093220D01*
X0157687Y0087871D02*
X0153927Y0091631D01*
X0153927Y0092683D01*
X0149776Y0096835D01*
X0130484Y0096835D01*
X0127782Y0094132D01*
X0125514Y0094132D01*
X0116306Y0084924D01*
X0110306Y0084924D02*
X0105947Y0087315D01*
X0101141Y0087315D01*
X0100872Y0087046D01*
X0098237Y0087046D01*
X0096373Y0088910D01*
X0096373Y0103180D01*
X0100306Y0107114D01*
X0100306Y0113617D01*
X0095313Y0117207D01*
X0095313Y0117207D01*
X0095313Y0117207D01*
X0093306Y0118649D01*
X0089818Y0118649D01*
X0086783Y0123258D01*
X0086783Y0129047D01*
X0088358Y0130622D01*
X0088358Y0139471D01*
X0083031Y0143617D01*
X0076881Y0143617D01*
X0072854Y0143707D01*
X0072697Y0143707D01*
X0074361Y0147676D02*
X0054073Y0147676D01*
X0049909Y0143511D01*
X0049909Y0141216D01*
X0060972Y0152432D02*
X0056877Y0156527D01*
X0056877Y0156645D01*
X0060972Y0152432D02*
X0063751Y0155212D01*
X0063751Y0156375D01*
X0056877Y0163338D02*
X0056169Y0162629D01*
X0048491Y0162629D01*
X0048491Y0169322D02*
X0053255Y0169361D01*
X0060578Y0169361D01*
X0061765Y0168175D01*
X0063751Y0168175D01*
X0050893Y0172511D02*
X0091287Y0172511D01*
X0089909Y0171133D01*
X0089909Y0168180D01*
X0091287Y0172511D02*
X0097192Y0172511D01*
X0098728Y0170976D01*
X0098728Y0167393D01*
X0096909Y0158338D02*
X0111365Y0158338D01*
X0118728Y0165700D01*
X0118728Y0167393D01*
X0132231Y0150857D02*
X0130657Y0148495D01*
X0104672Y0148495D01*
X0099987Y0144125D02*
X0099987Y0138330D01*
X0094106Y0132449D01*
X0095123Y0131432D01*
X0104603Y0131432D01*
X0104603Y0126314D02*
X0092452Y0126402D01*
X0090361Y0126448D01*
X0092468Y0111487D02*
X0090106Y0109913D01*
X0077507Y0109913D01*
X0077625Y0103389D02*
X0086064Y0092365D01*
X0085996Y0088890D01*
X0085602Y0090858D01*
X0085602Y0092039D01*
X0078424Y0084322D02*
X0077310Y0085436D01*
X0077245Y0085436D01*
X0074972Y0087709D01*
X0074972Y0092827D01*
X0078424Y0084322D02*
X0078424Y0082288D01*
X0083634Y0077079D01*
X0085996Y0077866D01*
X0092925Y0082118D02*
X0094126Y0082118D01*
X0093495Y0082355D01*
X0097300Y0082216D01*
X0099554Y0090228D02*
X0099554Y0092196D01*
X0100560Y0094206D01*
X0100560Y0101205D01*
X0105263Y0105909D01*
X0105884Y0105909D01*
X0106937Y0106962D01*
X0106937Y0107847D01*
X0107822Y0108731D01*
X0108995Y0107558D01*
X0107533Y0107558D01*
X0107486Y0107556D01*
X0107440Y0107551D01*
X0107394Y0107542D01*
X0107349Y0107529D01*
X0107305Y0107513D01*
X0107262Y0107493D01*
X0107222Y0107470D01*
X0107183Y0107444D01*
X0107146Y0107415D01*
X0107112Y0107383D01*
X0107080Y0107349D01*
X0107051Y0107312D01*
X0107025Y0107273D01*
X0107002Y0107233D01*
X0106982Y0107190D01*
X0106966Y0107146D01*
X0106953Y0107101D01*
X0106944Y0107055D01*
X0106939Y0107009D01*
X0106937Y0106962D01*
X0106937Y0107846D02*
X0106995Y0107848D01*
X0107053Y0107854D01*
X0107110Y0107863D01*
X0107166Y0107876D01*
X0107221Y0107893D01*
X0107276Y0107913D01*
X0107328Y0107937D01*
X0107380Y0107965D01*
X0107429Y0107995D01*
X0107476Y0108029D01*
X0107521Y0108066D01*
X0107563Y0108105D01*
X0107602Y0108147D01*
X0107639Y0108192D01*
X0107673Y0108239D01*
X0107703Y0108289D01*
X0107731Y0108340D01*
X0107755Y0108392D01*
X0107775Y0108447D01*
X0107792Y0108502D01*
X0107805Y0108558D01*
X0107814Y0108615D01*
X0107820Y0108673D01*
X0107822Y0108731D01*
X0108995Y0107558D02*
X0111169Y0105385D01*
X0119239Y0105385D01*
X0124658Y0102409D02*
X0124751Y0097511D01*
X0124751Y0097314D01*
X0124867Y0107629D02*
X0127335Y0107629D01*
X0121208Y0112669D02*
X0121208Y0116724D01*
X0133753Y0117881D02*
X0132965Y0121928D01*
X0133052Y0124204D01*
X0147074Y0124204D01*
X0147861Y0123417D01*
X0147872Y0126960D01*
X0176357Y0156626D01*
X0176357Y0156637D01*
X0186956Y0167235D01*
X0189318Y0132354D02*
X0179460Y0132354D01*
X0173334Y0126228D01*
X0173334Y0124952D01*
X0168216Y0124952D02*
X0168216Y0122169D01*
X0169665Y0120720D01*
X0169665Y0116574D01*
X0173176Y0111881D01*
X0170027Y0108298D02*
X0163294Y0104361D01*
X0162428Y0103495D01*
X0162507Y0103495D01*
X0159228Y0101657D02*
X0159228Y0100936D01*
X0162219Y0097945D01*
X0168280Y0097945D01*
X0169616Y0104373D02*
X0171713Y0104244D01*
X0182059Y0104244D01*
X0187571Y0108181D01*
X0187571Y0119205D02*
X0185823Y0119651D01*
X0168216Y0124952D02*
X0168216Y0128417D01*
X0166641Y0129991D01*
X0161523Y0129991D02*
X0161523Y0124873D01*
X0161523Y0121865D01*
X0161306Y0121649D01*
X0161306Y0119106D01*
X0160814Y0118613D01*
X0152310Y0118968D02*
X0150066Y0119086D01*
X0147861Y0118298D01*
X0134421Y0131803D02*
X0134028Y0131803D01*
X0140982Y0136560D02*
X0142295Y0137512D01*
X0142905Y0152698D02*
X0142295Y0153654D01*
X0125460Y0139007D02*
X0125460Y0136905D01*
X0121452Y0132897D01*
X0125224Y0129125D01*
X0121452Y0132897D02*
X0119247Y0132897D01*
X0114129Y0132897D02*
X0114129Y0142991D01*
X0115302Y0144165D01*
X0120027Y0144165D02*
X0120342Y0143850D01*
X0120342Y0139007D01*
X0096909Y0158338D02*
X0086740Y0147775D01*
X0078986Y0147775D01*
X0074361Y0147676D01*
X0090499Y0143771D02*
X0090539Y0143810D01*
X0094869Y0144125D01*
X0073398Y0119205D02*
X0072198Y0117649D01*
X0070306Y0117649D01*
X0070700Y0117310D01*
X0070306Y0117649D02*
X0070321Y0116445D01*
X0061901Y0105393D02*
X0062247Y0104558D01*
X0061980Y0102649D02*
X0065913Y0102649D01*
X0066090Y0102826D01*
X0066483Y0102129D01*
X0070354Y0101802D01*
X0061980Y0102649D02*
X0058306Y0102649D01*
X0057405Y0103550D01*
X0055306Y0103550D01*
X0055633Y0103877D01*
X0055633Y0107834D01*
X0055306Y0103550D02*
X0053464Y0103550D01*
X0053098Y0082747D02*
X0049948Y0081172D01*
X0049948Y0078805D01*
X0047895Y0078805D01*
X0048885Y0079007D01*
X0049948Y0078805D02*
X0054302Y0077624D01*
X0048885Y0072314D02*
X0046995Y0072787D01*
X0040617Y0073574D01*
X0047507Y0072905D02*
X0048885Y0072314D01*
X0047507Y0072905D02*
X0068771Y0071724D01*
X0054302Y0065824D02*
X0054697Y0064798D01*
X0086394Y0053181D02*
X0096806Y0042769D01*
X0096806Y0036921D01*
X0098535Y0035193D01*
X0098535Y0015237D01*
X0102235Y0015237D01*
X0105386Y0012087D01*
X0123534Y0012087D01*
X0125398Y0013950D01*
X0125398Y0016585D01*
X0124741Y0017242D01*
X0124741Y0019552D01*
X0124741Y0025851D02*
X0125035Y0028306D01*
X0123176Y0031172D01*
X0155460Y0072905D02*
X0156650Y0072905D01*
X0158989Y0075243D01*
X0157687Y0081156D02*
X0157687Y0087871D01*
X0159228Y0101657D02*
X0157389Y0103495D01*
X0050893Y0172511D02*
X0048491Y0169322D01*
X0017928Y0106176D02*
X0018980Y0104731D01*
X0019373Y0104011D01*
X0020881Y0102503D01*
X0029160Y0102503D01*
X0030534Y0103877D01*
X0031720Y0103877D01*
D37*
X0028306Y0108649D02*
X0026228Y0106570D01*
X0023046Y0106176D01*
X0022865Y0110621D02*
X0023919Y0111675D01*
X0025657Y0111675D01*
X0030056Y0116074D01*
X0031854Y0116074D01*
X0031854Y0118633D02*
X0027406Y0118633D01*
X0024747Y0115974D01*
X0024683Y0115974D01*
X0023657Y0114948D01*
X0022747Y0119247D02*
X0023345Y0119845D01*
X0020669Y0122520D01*
X0015629Y0122520D01*
X0013258Y0120149D01*
X0012940Y0120149D01*
X0015659Y0117342D02*
X0016539Y0118221D01*
X0016603Y0118221D01*
X0017629Y0119247D01*
X0015659Y0117342D02*
X0015659Y0112554D01*
X0016539Y0111675D01*
X0016694Y0111675D01*
X0017747Y0110621D01*
X0010184Y0116212D02*
X0010184Y0117791D01*
X0009372Y0118997D01*
X0009372Y0130763D01*
X0015940Y0136938D01*
X0024967Y0136938D01*
X0026128Y0135688D01*
X0026414Y0135008D01*
X0026414Y0134032D01*
X0029018Y0131428D01*
X0031854Y0131428D01*
X0031854Y0128869D02*
X0028779Y0128869D01*
X0024438Y0133210D01*
X0024438Y0134164D01*
X0023558Y0135044D01*
X0018377Y0135044D01*
X0017498Y0134164D01*
X0017104Y0133616D01*
X0016982Y0133100D01*
X0021558Y0131771D02*
X0022856Y0130867D01*
X0023983Y0130867D01*
X0028540Y0126310D01*
X0031854Y0126310D01*
X0031854Y0123751D02*
X0028204Y0123751D01*
X0027635Y0124320D01*
X0021983Y0124320D01*
X0021983Y0127594D01*
X0021983Y0124320D02*
X0014078Y0124320D01*
X0013525Y0124873D01*
X0013334Y0124873D01*
X0023345Y0119845D02*
X0024692Y0121192D01*
X0031854Y0121192D01*
X0031720Y0113381D02*
X0031720Y0108995D01*
X0031373Y0108649D01*
X0028306Y0108649D01*
X0049306Y0120649D02*
X0049306Y0125019D01*
X0049948Y0125661D01*
X0052498Y0127657D02*
X0053844Y0126310D01*
X0055476Y0126310D01*
X0055476Y0128869D02*
X0059338Y0128869D01*
X0062153Y0126054D01*
X0065229Y0125110D02*
X0065229Y0127559D01*
X0064306Y0128482D01*
X0064306Y0130649D01*
X0063133Y0131428D01*
X0055476Y0131428D01*
X0055476Y0133987D02*
X0045297Y0133987D01*
X0045235Y0134049D01*
X0049506Y0130649D02*
X0052498Y0127657D01*
X0052498Y0127657D01*
X0049306Y0120649D02*
X0051322Y0118633D01*
X0055476Y0118633D01*
X0055476Y0116074D02*
X0059094Y0116074D01*
X0061901Y0110511D01*
X0064613Y0110511D01*
X0065098Y0110026D01*
X0067248Y0110026D01*
X0061901Y0105393D02*
X0061901Y0102728D01*
X0061980Y0102649D01*
X0062546Y0117787D02*
X0062546Y0122428D01*
X0065229Y0125110D01*
X0073398Y0130228D02*
X0073398Y0139071D01*
X0073767Y0139440D01*
X0078885Y0139440D02*
X0083083Y0139440D01*
X0083083Y0138998D01*
X0083413Y0138669D01*
X0083413Y0133535D01*
X0124658Y0107527D02*
X0124867Y0107629D01*
X0127198Y0108765D01*
X0127198Y0108920D01*
X0127527Y0109772D01*
X0127527Y0112649D01*
X0140596Y0084660D02*
X0138752Y0082197D01*
X0144813Y0076291D02*
X0132298Y0076291D01*
X0127998Y0073173D01*
X0127998Y0049987D01*
X0128909Y0049323D01*
X0124357Y0050857D02*
X0122231Y0046881D01*
X0128909Y0044402D02*
X0128909Y0044205D01*
X0128909Y0042433D01*
X0130091Y0041252D01*
X0130951Y0040538D01*
X0147839Y0040538D01*
X0151683Y0042413D01*
X0151568Y0042413D01*
X0151941Y0036921D01*
X0157059Y0036921D02*
X0156862Y0043220D01*
X0154894Y0044795D01*
X0151568Y0044913D01*
X0147020Y0044205D01*
X0145994Y0044205D01*
X0144098Y0042309D01*
X0134193Y0042309D01*
X0133313Y0043189D01*
X0133313Y0052307D01*
X0132453Y0053021D01*
X0132453Y0056803D01*
X0142295Y0053457D02*
X0143339Y0052413D01*
X0151568Y0052413D01*
X0152466Y0052409D01*
X0151568Y0054913D02*
X0151669Y0055312D01*
X0148315Y0055312D01*
X0146750Y0057271D01*
X0146750Y0073567D01*
X0144813Y0076291D01*
X0151547Y0063693D02*
X0151547Y0057934D01*
X0151568Y0057413D01*
X0151568Y0054913D02*
X0154776Y0054913D01*
X0155519Y0055657D01*
X0155519Y0061844D01*
X0156106Y0063226D01*
X0156345Y0062832D01*
X0156665Y0063693D01*
X0162768Y0063496D02*
X0169750Y0063496D01*
X0171922Y0065669D01*
X0171922Y0065824D01*
X0174161Y0068062D01*
X0173657Y0068101D01*
X0169043Y0068062D02*
X0164578Y0068062D01*
X0162768Y0068614D01*
X0173968Y0054913D02*
X0176313Y0054913D01*
X0176319Y0054908D01*
X0180754Y0054908D01*
X0185209Y0058181D01*
X0182224Y0053187D02*
X0181451Y0052413D01*
X0173968Y0052413D01*
X0167286Y0052413D01*
X0167242Y0052457D01*
X0164938Y0052457D01*
X0163309Y0050828D01*
X0163309Y0048524D01*
X0165685Y0046149D01*
X0165685Y0042272D01*
X0164809Y0041397D01*
X0164768Y0029514D01*
X0164670Y0029417D01*
X0163531Y0026054D01*
X0160406Y0034559D02*
X0153738Y0027891D01*
X0152561Y0027891D01*
X0150567Y0025898D01*
X0147020Y0025898D01*
X0144123Y0025898D01*
X0137344Y0032676D01*
X0137344Y0032831D01*
X0135106Y0035070D01*
X0137965Y0046173D02*
X0142295Y0046173D01*
X0147020Y0049323D01*
X0151568Y0049913D02*
X0156484Y0049913D01*
X0157035Y0050464D01*
X0154640Y0047418D02*
X0154635Y0047413D01*
X0151568Y0047413D01*
X0154640Y0047418D02*
X0157650Y0046370D01*
X0160406Y0044402D01*
X0160406Y0034559D01*
X0165685Y0042272D02*
X0169758Y0046345D01*
X0169867Y0046464D01*
X0169908Y0046466D01*
X0170457Y0047015D01*
X0173069Y0047015D01*
X0173968Y0047413D01*
X0173617Y0049562D02*
X0167492Y0049562D01*
X0170642Y0044795D02*
X0169067Y0043220D01*
X0169264Y0036921D01*
X0174382Y0036921D02*
X0174579Y0042413D01*
X0175428Y0042413D01*
X0176516Y0041325D01*
X0184348Y0041325D01*
X0187965Y0037709D01*
X0191902Y0037709D01*
X0194018Y0039825D01*
X0194018Y0051882D01*
X0193220Y0053861D01*
X0193083Y0055622D01*
X0190130Y0051643D02*
X0188587Y0053187D01*
X0182224Y0053187D01*
X0179500Y0049913D02*
X0185012Y0049913D01*
X0190130Y0049913D02*
X0190130Y0051643D01*
X0179500Y0049913D02*
X0178909Y0049323D01*
X0179106Y0049913D01*
X0173968Y0049913D02*
X0173617Y0049562D01*
X0173968Y0044913D02*
X0170642Y0044795D01*
X0173968Y0042413D02*
X0174579Y0042413D01*
X0125145Y0066212D02*
X0124971Y0071699D01*
X0117492Y0067630D02*
X0117098Y0067630D01*
X0065327Y0050339D02*
X0065327Y0050209D01*
X0110012Y0019205D02*
X0111677Y0016458D01*
X0035834Y0128869D02*
X0031854Y0128869D01*
X0035834Y0128869D02*
X0036940Y0129976D01*
X0036940Y0140995D01*
X0031854Y0133987D02*
X0029712Y0133987D01*
X0028508Y0135191D01*
X0028508Y0136106D01*
X0027348Y0137355D01*
X0026191Y0138511D01*
X0025734Y0138611D01*
X0025697Y0138612D01*
X0025671Y0138638D01*
X0025061Y0138638D01*
X0023003Y0140696D01*
D38*
X0022793Y0144736D02*
X0018713Y0144736D01*
X0018279Y0143121D01*
X0017885Y0140696D01*
X0022793Y0144736D02*
X0024106Y0144869D01*
X0033969Y0144869D01*
X0035543Y0146443D01*
X0035543Y0152098D01*
X0034070Y0144869D02*
X0033969Y0144869D01*
X0034070Y0144869D02*
X0035302Y0143637D01*
X0035302Y0142634D01*
X0036940Y0140995D01*
X0021795Y0155366D02*
X0020101Y0155941D01*
X0047655Y0161842D02*
X0048491Y0162629D01*
X0056877Y0163338D02*
X0057153Y0162275D01*
X0078220Y0162275D01*
X0082506Y0162275D01*
X0082900Y0162147D01*
X0084652Y0160395D01*
X0084652Y0159048D01*
X0084594Y0152296D01*
X0079476Y0152039D01*
X0078220Y0168175D02*
X0084785Y0168175D01*
X0084791Y0168180D01*
X0134421Y0131803D02*
X0136226Y0131803D01*
X0140982Y0136560D01*
X0148201Y0145976D02*
X0148201Y0147403D01*
X0142905Y0152698D01*
X0139485Y0117881D02*
X0149579Y0107787D01*
X0139485Y0117881D02*
X0138871Y0117881D01*
X0127527Y0112649D02*
X0127527Y0107821D01*
X0127335Y0107629D01*
X0133278Y0107629D01*
X0133437Y0107787D01*
X0140596Y0084660D02*
X0144557Y0084660D01*
X0145839Y0084559D01*
X0138752Y0071173D02*
X0137182Y0067832D01*
X0137182Y0061719D01*
X0132453Y0061921D02*
X0138752Y0068220D01*
X0138752Y0071173D01*
X0117492Y0067630D02*
X0112450Y0067630D01*
X0112056Y0068025D01*
X0074357Y0076645D02*
X0070623Y0077230D01*
X0068771Y0077624D01*
X0049807Y0097709D02*
X0041287Y0097709D01*
X0033806Y0091409D01*
X0033806Y0101791D01*
X0031720Y0103877D01*
X0049807Y0097709D02*
X0052613Y0100515D01*
X0053794Y0101912D01*
X0053464Y0103550D01*
X0061901Y0110511D02*
X0070289Y0110511D01*
X0070321Y0110543D01*
X0070321Y0116445D01*
X0070321Y0110543D02*
X0070321Y0106953D01*
X0070354Y0106920D01*
X0170027Y0108298D02*
X0175652Y0108298D01*
X0185823Y0119651D01*
X0121027Y0016458D02*
X0111677Y0016458D01*
X0121027Y0016458D02*
X0122217Y0015268D01*
D39*
X0035543Y0152098D03*
X0039318Y0159483D03*
D40*
X0039318Y0163914D01*
X0033906Y0169327D01*
X0020101Y0169327D01*
X0021795Y0155366D02*
X0025063Y0152098D01*
X0035543Y0152098D01*
D41*
X0040561Y0067398D02*
X0040472Y0065674D01*
X0040106Y0058581D01*
X0045051Y0064087D02*
X0053986Y0064087D01*
X0054697Y0064798D01*
X0045051Y0064087D02*
X0042257Y0066881D01*
X0040617Y0066881D01*
D42*
X0040106Y0058581D03*
D43*
X0034919Y0066981D03*
X0034919Y0076981D03*
X0106506Y0053381D03*
X0106506Y0043381D03*
X0167306Y0081981D03*
X0167306Y0090381D03*
M02*
