G75*
%MOIN*%
%OFA0B0*%
%FSLAX25Y25*%
%IPPOS*%
%LPD*%
%AMOC8*
5,1,8,0,0,1.08239X$1,22.5*
%
%ADD10C,0.00400*%
%ADD11C,0.00300*%
%ADD12C,0.00600*%
%ADD13C,0.00500*%
%ADD14C,0.00800*%
%ADD15C,0.02559*%
%ADD16C,0.00700*%
%ADD17C,0.00200*%
%ADD18C,0.00060*%
%ADD19C,0.01000*%
D10*
X0030796Y0025848D02*
X0030796Y0027382D01*
X0031563Y0028150D01*
X0031563Y0029684D02*
X0030796Y0030452D01*
X0030796Y0031986D01*
X0031563Y0032754D01*
X0033098Y0032754D01*
X0033865Y0031986D01*
X0033865Y0031219D01*
X0033098Y0029684D01*
X0035400Y0029684D01*
X0035400Y0032754D01*
X0034633Y0034288D02*
X0035400Y0035055D01*
X0035400Y0036590D01*
X0034633Y0037357D01*
X0033865Y0037357D01*
X0030796Y0034288D01*
X0030796Y0037357D01*
X0034633Y0028150D02*
X0035400Y0027382D01*
X0035400Y0025848D01*
X0034633Y0025080D01*
X0031563Y0025080D01*
X0030796Y0025848D01*
X0042554Y0030546D02*
X0043322Y0029779D01*
X0044856Y0029779D01*
X0045624Y0030546D01*
X0047158Y0030546D02*
X0047926Y0029779D01*
X0049460Y0029779D01*
X0050228Y0030546D01*
X0050228Y0032081D02*
X0048693Y0032848D01*
X0047926Y0032848D01*
X0047158Y0032081D01*
X0047158Y0030546D01*
X0050228Y0032081D02*
X0050228Y0034383D01*
X0047158Y0034383D01*
X0045624Y0033615D02*
X0044856Y0034383D01*
X0043322Y0034383D01*
X0042554Y0033615D01*
X0042554Y0032848D01*
X0043322Y0032081D01*
X0042554Y0031313D01*
X0042554Y0030546D01*
X0043322Y0032081D02*
X0044089Y0032081D01*
X0051762Y0032081D02*
X0052530Y0031313D01*
X0054831Y0031313D01*
X0053297Y0031313D02*
X0051762Y0029779D01*
X0054831Y0029779D02*
X0054831Y0034383D01*
X0052530Y0034383D01*
X0051762Y0033615D01*
X0051762Y0032081D01*
X0041754Y0051728D02*
X0038685Y0051728D01*
X0037917Y0052495D01*
X0037917Y0054030D01*
X0038685Y0054797D01*
X0037917Y0056331D02*
X0037917Y0059401D01*
X0037917Y0057866D02*
X0042521Y0057866D01*
X0040987Y0056331D01*
X0041754Y0054797D02*
X0042521Y0054030D01*
X0042521Y0052495D01*
X0041754Y0051728D01*
X0046959Y0058223D02*
X0046191Y0058990D01*
X0046191Y0060525D01*
X0046959Y0061292D01*
X0046191Y0062827D02*
X0046191Y0065896D01*
X0046191Y0064361D02*
X0050795Y0064361D01*
X0049261Y0062827D01*
X0050028Y0061292D02*
X0050795Y0060525D01*
X0050795Y0058990D01*
X0050028Y0058223D01*
X0046959Y0058223D01*
X0042521Y0061703D02*
X0041754Y0060935D01*
X0040987Y0060935D01*
X0040219Y0061703D01*
X0040219Y0064005D01*
X0038685Y0064005D02*
X0041754Y0064005D01*
X0042521Y0063237D01*
X0042521Y0061703D01*
X0038685Y0060935D02*
X0037917Y0061703D01*
X0037917Y0063237D01*
X0038685Y0064005D01*
X0046191Y0068198D02*
X0046191Y0069733D01*
X0046959Y0070500D01*
X0047726Y0070500D01*
X0048493Y0069733D01*
X0048493Y0068198D01*
X0049261Y0067431D01*
X0050028Y0067431D01*
X0050795Y0068198D01*
X0050795Y0069733D01*
X0050028Y0070500D01*
X0049261Y0070500D01*
X0048493Y0069733D01*
X0048493Y0068198D02*
X0047726Y0067431D01*
X0046959Y0067431D01*
X0046191Y0068198D01*
X0059149Y0068838D02*
X0059149Y0070373D01*
X0059916Y0071140D01*
X0059916Y0072675D02*
X0059149Y0073442D01*
X0059149Y0074977D01*
X0059916Y0075744D01*
X0062985Y0075744D01*
X0063753Y0074977D01*
X0063753Y0073442D01*
X0062985Y0072675D01*
X0062218Y0072675D01*
X0061451Y0073442D01*
X0061451Y0075744D01*
X0062985Y0071140D02*
X0063753Y0070373D01*
X0063753Y0068838D01*
X0062985Y0068071D01*
X0059916Y0068071D01*
X0059149Y0068838D01*
X0059149Y0066536D02*
X0059149Y0065002D01*
X0059149Y0065769D02*
X0063753Y0065769D01*
X0063753Y0065002D02*
X0063753Y0066536D01*
X0073270Y0066871D02*
X0073270Y0069940D01*
X0073270Y0068405D02*
X0077874Y0068405D01*
X0076339Y0066871D01*
X0075572Y0065336D02*
X0077107Y0065336D01*
X0077874Y0064569D01*
X0077874Y0062267D01*
X0073270Y0062267D01*
X0074805Y0062267D02*
X0074805Y0064569D01*
X0075572Y0065336D01*
X0074805Y0063802D02*
X0073270Y0065336D01*
X0074037Y0071475D02*
X0073270Y0072242D01*
X0073270Y0073777D01*
X0074037Y0074544D01*
X0077107Y0074544D01*
X0074037Y0071475D01*
X0077107Y0071475D01*
X0077874Y0072242D01*
X0077874Y0073777D01*
X0077107Y0074544D01*
X0076963Y0079370D02*
X0076196Y0080137D01*
X0076196Y0081672D01*
X0076963Y0082439D01*
X0076963Y0083974D02*
X0076196Y0084741D01*
X0076196Y0086276D01*
X0076963Y0087043D01*
X0077731Y0087043D01*
X0078498Y0086276D01*
X0078498Y0085509D01*
X0078498Y0086276D02*
X0079265Y0087043D01*
X0080033Y0087043D01*
X0080800Y0086276D01*
X0080800Y0084741D01*
X0080033Y0083974D01*
X0080033Y0082439D02*
X0080800Y0081672D01*
X0080800Y0080137D01*
X0080033Y0079370D01*
X0076963Y0079370D01*
X0076890Y0095050D02*
X0073821Y0095050D01*
X0073054Y0095817D01*
X0073054Y0097352D01*
X0073821Y0098119D01*
X0073054Y0099654D02*
X0076123Y0102723D01*
X0076890Y0102723D01*
X0077657Y0101955D01*
X0077657Y0100421D01*
X0076890Y0099654D01*
X0076890Y0098119D02*
X0077657Y0097352D01*
X0077657Y0095817D01*
X0076890Y0095050D01*
X0073054Y0099654D02*
X0073054Y0102723D01*
X0073821Y0104257D02*
X0076890Y0107327D01*
X0073821Y0107327D01*
X0073054Y0106559D01*
X0073054Y0105025D01*
X0073821Y0104257D01*
X0076890Y0104257D01*
X0077657Y0105025D01*
X0077657Y0106559D01*
X0076890Y0107327D01*
X0064605Y0101325D02*
X0064605Y0098256D01*
X0063837Y0096721D02*
X0062303Y0096721D01*
X0061535Y0095954D01*
X0061535Y0093652D01*
X0060001Y0093652D02*
X0064605Y0093652D01*
X0064605Y0095954D01*
X0063837Y0096721D01*
X0061535Y0095187D02*
X0060001Y0096721D01*
X0060001Y0098256D02*
X0060768Y0098256D01*
X0063837Y0101325D01*
X0064605Y0101325D01*
X0058217Y0100087D02*
X0058217Y0097018D01*
X0057449Y0096250D01*
X0055915Y0096250D01*
X0055147Y0097018D01*
X0053613Y0096250D02*
X0050543Y0096250D01*
X0049009Y0096250D02*
X0049009Y0097018D01*
X0045939Y0100087D01*
X0045939Y0100854D01*
X0049009Y0100854D01*
X0052078Y0100854D02*
X0052078Y0096250D01*
X0053613Y0099320D02*
X0052078Y0100854D01*
X0055147Y0100087D02*
X0055915Y0100854D01*
X0057449Y0100854D01*
X0058217Y0100087D01*
X0046774Y0106134D02*
X0046774Y0110738D01*
X0044472Y0110738D01*
X0043705Y0109970D01*
X0043705Y0108436D01*
X0044472Y0107668D01*
X0046774Y0107668D01*
X0045239Y0107668D02*
X0043705Y0106134D01*
X0042170Y0106901D02*
X0042170Y0107668D01*
X0041403Y0108436D01*
X0039868Y0108436D01*
X0039101Y0107668D01*
X0039101Y0106901D01*
X0039868Y0106134D01*
X0041403Y0106134D01*
X0042170Y0106901D01*
X0041403Y0108436D02*
X0042170Y0109203D01*
X0042170Y0109970D01*
X0041403Y0110738D01*
X0039868Y0110738D01*
X0039101Y0109970D01*
X0039101Y0109203D01*
X0039868Y0108436D01*
X0033456Y0098002D02*
X0032689Y0098002D01*
X0031922Y0097234D01*
X0031154Y0098002D01*
X0030387Y0098002D01*
X0029620Y0097234D01*
X0029620Y0095700D01*
X0030387Y0094932D01*
X0030387Y0093398D02*
X0029620Y0092630D01*
X0029620Y0091096D01*
X0030387Y0090328D01*
X0030387Y0088794D02*
X0029620Y0088026D01*
X0029620Y0086492D01*
X0030387Y0085724D01*
X0033456Y0085724D01*
X0034224Y0086492D01*
X0034224Y0088026D01*
X0033456Y0088794D01*
X0033456Y0090328D02*
X0034224Y0091096D01*
X0034224Y0092630D01*
X0033456Y0093398D01*
X0032689Y0093398D01*
X0031922Y0092630D01*
X0031154Y0093398D01*
X0030387Y0093398D01*
X0031922Y0092630D02*
X0031922Y0091863D01*
X0033456Y0094932D02*
X0034224Y0095700D01*
X0034224Y0097234D01*
X0033456Y0098002D01*
X0031922Y0097234D02*
X0031922Y0096467D01*
X0026575Y0099270D02*
X0026575Y0103874D01*
X0024273Y0103874D01*
X0023506Y0103107D01*
X0023506Y0101572D01*
X0024273Y0100805D01*
X0026575Y0100805D01*
X0025040Y0100805D02*
X0023506Y0099270D01*
X0021971Y0099270D02*
X0018902Y0099270D01*
X0020436Y0099270D02*
X0020436Y0103874D01*
X0021971Y0102339D01*
X0017367Y0102339D02*
X0017367Y0103107D01*
X0016600Y0103874D01*
X0015065Y0103874D01*
X0014298Y0103107D01*
X0014298Y0102339D01*
X0015065Y0101572D01*
X0016600Y0101572D01*
X0017367Y0102339D01*
X0016600Y0101572D02*
X0017367Y0100805D01*
X0017367Y0100037D01*
X0016600Y0099270D01*
X0015065Y0099270D01*
X0014298Y0100037D01*
X0014298Y0100805D01*
X0015065Y0101572D01*
X0013670Y0104749D02*
X0010601Y0104749D01*
X0009834Y0105516D01*
X0009834Y0107051D01*
X0010601Y0107818D01*
X0010601Y0109353D02*
X0009834Y0110120D01*
X0009834Y0111655D01*
X0010601Y0112422D01*
X0011368Y0112422D01*
X0012136Y0111655D01*
X0012136Y0110887D01*
X0012136Y0111655D02*
X0012903Y0112422D01*
X0013670Y0112422D01*
X0014438Y0111655D01*
X0014438Y0110120D01*
X0013670Y0109353D01*
X0013670Y0107818D02*
X0014438Y0107051D01*
X0014438Y0105516D01*
X0013670Y0104749D01*
X0014438Y0113957D02*
X0012136Y0113957D01*
X0012903Y0115491D01*
X0012903Y0116259D01*
X0012136Y0117026D01*
X0010601Y0117026D01*
X0009834Y0116259D01*
X0009834Y0114724D01*
X0010601Y0113957D01*
X0009698Y0116861D02*
X0006629Y0116861D01*
X0005861Y0117628D01*
X0005861Y0119163D01*
X0006629Y0119930D01*
X0006629Y0121465D02*
X0005861Y0122232D01*
X0005861Y0123767D01*
X0006629Y0124534D01*
X0007396Y0124534D01*
X0008163Y0123767D01*
X0008163Y0122999D01*
X0008163Y0123767D02*
X0008931Y0124534D01*
X0009698Y0124534D01*
X0010465Y0123767D01*
X0010465Y0122232D01*
X0009698Y0121465D01*
X0009698Y0119930D02*
X0010465Y0119163D01*
X0010465Y0117628D01*
X0009698Y0116861D01*
X0014438Y0117026D02*
X0014438Y0113957D01*
X0008931Y0126068D02*
X0010465Y0127603D01*
X0005861Y0127603D01*
X0005861Y0126068D02*
X0005861Y0129138D01*
X0007897Y0128559D02*
X0007897Y0130094D01*
X0008664Y0130861D01*
X0007897Y0132396D02*
X0007897Y0135465D01*
X0007897Y0133931D02*
X0012501Y0133931D01*
X0010966Y0132396D01*
X0011733Y0130861D02*
X0012501Y0130094D01*
X0012501Y0128559D01*
X0011733Y0127792D01*
X0008664Y0127792D01*
X0007897Y0128559D01*
X0008664Y0137000D02*
X0007897Y0137767D01*
X0007897Y0139302D01*
X0008664Y0140069D01*
X0009431Y0140069D01*
X0010199Y0139302D01*
X0010199Y0138535D01*
X0010199Y0139302D02*
X0010966Y0140069D01*
X0011733Y0140069D01*
X0012501Y0139302D01*
X0012501Y0137767D01*
X0011733Y0137000D01*
X0015838Y0143396D02*
X0015838Y0148000D01*
X0018140Y0145698D01*
X0015071Y0145698D01*
X0019675Y0145698D02*
X0020442Y0144931D01*
X0022744Y0144931D01*
X0021209Y0144931D02*
X0019675Y0143396D01*
X0022744Y0143396D02*
X0022744Y0148000D01*
X0020442Y0148000D01*
X0019675Y0147233D01*
X0019675Y0145698D01*
X0028216Y0145063D02*
X0028983Y0144295D01*
X0030518Y0144295D01*
X0031285Y0145063D01*
X0031285Y0146597D02*
X0029750Y0147365D01*
X0028983Y0147365D01*
X0028216Y0146597D01*
X0028216Y0145063D01*
X0031285Y0146597D02*
X0031285Y0148899D01*
X0028216Y0148899D01*
X0032820Y0144295D02*
X0035889Y0144295D01*
X0037424Y0144295D02*
X0038958Y0145830D01*
X0038191Y0145830D02*
X0040493Y0145830D01*
X0040493Y0144295D02*
X0040493Y0148899D01*
X0038191Y0148899D01*
X0037424Y0148132D01*
X0037424Y0146597D01*
X0038191Y0145830D01*
X0035889Y0147365D02*
X0034354Y0148899D01*
X0034354Y0144295D01*
X0047641Y0146237D02*
X0050710Y0146237D01*
X0048408Y0148539D01*
X0048408Y0143935D01*
X0052245Y0143935D02*
X0055314Y0143935D01*
X0053780Y0143935D02*
X0053780Y0148539D01*
X0055314Y0147004D01*
X0056849Y0147771D02*
X0056849Y0146237D01*
X0057616Y0145469D01*
X0059918Y0145469D01*
X0059918Y0143935D02*
X0059918Y0148539D01*
X0057616Y0148539D01*
X0056849Y0147771D01*
X0058383Y0145469D02*
X0056849Y0143935D01*
X0052214Y0149266D02*
X0049144Y0149266D01*
X0048377Y0150033D01*
X0048377Y0151568D01*
X0049144Y0152335D01*
X0048377Y0153870D02*
X0051446Y0156939D01*
X0052214Y0156939D01*
X0052981Y0156172D01*
X0052981Y0154637D01*
X0052214Y0153870D01*
X0052214Y0152335D02*
X0052981Y0151568D01*
X0052981Y0150033D01*
X0052214Y0149266D01*
X0048377Y0153870D02*
X0048377Y0156939D01*
X0049144Y0158474D02*
X0048377Y0159241D01*
X0048377Y0160776D01*
X0049144Y0161543D01*
X0050679Y0161543D01*
X0051446Y0160776D01*
X0051446Y0160009D01*
X0050679Y0158474D01*
X0052981Y0158474D01*
X0052981Y0161543D01*
X0043395Y0161231D02*
X0042628Y0160464D01*
X0039559Y0160464D01*
X0038791Y0161231D01*
X0038791Y0162766D01*
X0039559Y0163533D01*
X0038791Y0165068D02*
X0041861Y0168137D01*
X0042628Y0168137D01*
X0043395Y0167370D01*
X0043395Y0165835D01*
X0042628Y0165068D01*
X0042628Y0163533D02*
X0043395Y0162766D01*
X0043395Y0161231D01*
X0038791Y0165068D02*
X0038791Y0168137D01*
X0041093Y0169672D02*
X0041093Y0172741D01*
X0038791Y0171974D02*
X0043395Y0171974D01*
X0041093Y0169672D01*
X0068598Y0167496D02*
X0068598Y0165962D01*
X0069365Y0165194D01*
X0072434Y0168264D01*
X0069365Y0168264D01*
X0068598Y0167496D01*
X0069365Y0165194D02*
X0072434Y0165194D01*
X0073202Y0165962D01*
X0073202Y0167496D01*
X0072434Y0168264D01*
X0068598Y0163660D02*
X0068598Y0160591D01*
X0068598Y0162125D02*
X0073202Y0162125D01*
X0071667Y0160591D01*
X0072434Y0159056D02*
X0073202Y0158289D01*
X0073202Y0156754D01*
X0072434Y0155987D01*
X0069365Y0155987D01*
X0068598Y0156754D01*
X0068598Y0158289D01*
X0069365Y0159056D01*
X0068598Y0154452D02*
X0068598Y0152917D01*
X0068598Y0153685D02*
X0073202Y0153685D01*
X0073202Y0154452D02*
X0073202Y0152917D01*
X0075596Y0146763D02*
X0077130Y0146763D01*
X0077898Y0145996D01*
X0079432Y0145996D02*
X0079432Y0144461D01*
X0080200Y0143694D01*
X0082502Y0143694D01*
X0082502Y0142159D02*
X0082502Y0146763D01*
X0080200Y0146763D01*
X0079432Y0145996D01*
X0080967Y0143694D02*
X0079432Y0142159D01*
X0077898Y0142159D02*
X0074828Y0145228D01*
X0074828Y0145996D01*
X0075596Y0146763D01*
X0073294Y0144461D02*
X0070992Y0144461D01*
X0070224Y0143694D01*
X0070224Y0142926D01*
X0070992Y0142159D01*
X0072526Y0142159D01*
X0073294Y0142926D01*
X0073294Y0144461D01*
X0071759Y0145996D01*
X0070224Y0146763D01*
X0074828Y0142159D02*
X0077898Y0142159D01*
X0091246Y0146536D02*
X0091246Y0149605D01*
X0092014Y0150372D01*
X0093548Y0150372D01*
X0094316Y0149605D01*
X0094316Y0148838D01*
X0093548Y0148070D01*
X0091246Y0148070D01*
X0091246Y0146536D02*
X0092014Y0145769D01*
X0093548Y0145769D01*
X0094316Y0146536D01*
X0095850Y0148070D02*
X0098920Y0148070D01*
X0096618Y0150372D01*
X0096618Y0145769D01*
X0100454Y0146536D02*
X0101222Y0145769D01*
X0102756Y0145769D01*
X0103524Y0146536D01*
X0103524Y0149605D01*
X0102756Y0150372D01*
X0101222Y0150372D01*
X0100454Y0149605D01*
X0116324Y0145744D02*
X0116324Y0144976D01*
X0119393Y0141907D01*
X0116324Y0141907D01*
X0116324Y0145744D02*
X0117091Y0146511D01*
X0118626Y0146511D01*
X0119393Y0145744D01*
X0122462Y0146511D02*
X0122462Y0141907D01*
X0120928Y0141907D02*
X0123997Y0141907D01*
X0125532Y0142674D02*
X0126299Y0141907D01*
X0127833Y0141907D01*
X0128601Y0142674D01*
X0128601Y0145744D01*
X0127833Y0146511D01*
X0126299Y0146511D01*
X0125532Y0145744D01*
X0123997Y0144976D02*
X0122462Y0146511D01*
X0122944Y0129988D02*
X0120642Y0129988D01*
X0119875Y0129221D01*
X0119875Y0127686D01*
X0120642Y0126919D01*
X0122944Y0126919D01*
X0121409Y0126919D02*
X0119875Y0125384D01*
X0118340Y0125384D02*
X0115271Y0128454D01*
X0115271Y0129221D01*
X0116038Y0129988D01*
X0117573Y0129988D01*
X0118340Y0129221D01*
X0118340Y0125384D02*
X0115271Y0125384D01*
X0113736Y0126152D02*
X0110667Y0129221D01*
X0110667Y0126152D01*
X0111434Y0125384D01*
X0112969Y0125384D01*
X0113736Y0126152D01*
X0113736Y0129221D01*
X0112969Y0129988D01*
X0111434Y0129988D01*
X0110667Y0129221D01*
X0101671Y0130034D02*
X0101671Y0126965D01*
X0099369Y0126965D01*
X0100136Y0128499D01*
X0100136Y0129267D01*
X0099369Y0130034D01*
X0097834Y0130034D01*
X0097067Y0129267D01*
X0097067Y0127732D01*
X0097834Y0126965D01*
X0097834Y0125430D02*
X0097067Y0124663D01*
X0097067Y0123128D01*
X0097834Y0122361D01*
X0100904Y0122361D01*
X0101671Y0123128D01*
X0101671Y0124663D01*
X0100904Y0125430D01*
X0100904Y0131568D02*
X0097834Y0131568D01*
X0100904Y0134638D01*
X0097834Y0134638D01*
X0097067Y0133870D01*
X0097067Y0132336D01*
X0097834Y0131568D01*
X0100904Y0131568D02*
X0101671Y0132336D01*
X0101671Y0133870D01*
X0100904Y0134638D01*
X0083202Y0126822D02*
X0080900Y0124520D01*
X0080900Y0127590D01*
X0078598Y0126822D02*
X0083202Y0126822D01*
X0082434Y0122986D02*
X0083202Y0122218D01*
X0083202Y0120684D01*
X0082434Y0119917D01*
X0079365Y0119917D01*
X0078598Y0120684D01*
X0078598Y0122218D01*
X0079365Y0122986D01*
X0054735Y0123657D02*
X0053200Y0123657D01*
X0053967Y0123657D02*
X0053967Y0128261D01*
X0053200Y0128261D02*
X0054735Y0128261D01*
X0051665Y0127494D02*
X0051665Y0124425D01*
X0050898Y0123657D01*
X0049363Y0123657D01*
X0048596Y0124425D01*
X0047061Y0123657D02*
X0043992Y0123657D01*
X0042458Y0123657D02*
X0039388Y0126727D01*
X0039388Y0127494D01*
X0040156Y0128261D01*
X0041690Y0128261D01*
X0042458Y0127494D01*
X0045527Y0128261D02*
X0045527Y0123657D01*
X0042458Y0123657D02*
X0039388Y0123657D01*
X0045527Y0128261D02*
X0047061Y0126727D01*
X0048596Y0127494D02*
X0049363Y0128261D01*
X0050898Y0128261D01*
X0051665Y0127494D01*
X0080972Y0172680D02*
X0084042Y0172680D01*
X0085576Y0172680D02*
X0088646Y0172680D01*
X0090180Y0172680D02*
X0091715Y0174215D01*
X0090948Y0174215D02*
X0093250Y0174215D01*
X0093250Y0172680D02*
X0093250Y0177284D01*
X0090948Y0177284D01*
X0090180Y0176517D01*
X0090180Y0174982D01*
X0090948Y0174215D01*
X0088646Y0175750D02*
X0087111Y0177284D01*
X0087111Y0172680D01*
X0084042Y0175750D02*
X0082507Y0177284D01*
X0082507Y0172680D01*
X0122944Y0129988D02*
X0122944Y0125384D01*
X0130395Y0120323D02*
X0133464Y0120323D01*
X0131929Y0120323D02*
X0131929Y0124927D01*
X0133464Y0123392D01*
X0134998Y0123392D02*
X0135766Y0122625D01*
X0134998Y0121857D01*
X0134998Y0121090D01*
X0135766Y0120323D01*
X0137300Y0120323D01*
X0138068Y0121090D01*
X0139602Y0120323D02*
X0141137Y0121857D01*
X0140370Y0121857D02*
X0142672Y0121857D01*
X0142672Y0120323D02*
X0142672Y0124927D01*
X0140370Y0124927D01*
X0139602Y0124159D01*
X0139602Y0122625D01*
X0140370Y0121857D01*
X0138068Y0124159D02*
X0137300Y0124927D01*
X0135766Y0124927D01*
X0134998Y0124159D01*
X0134998Y0123392D01*
X0135766Y0122625D02*
X0136533Y0122625D01*
X0129532Y0116115D02*
X0130299Y0115348D01*
X0130299Y0112278D01*
X0129532Y0111511D01*
X0127997Y0111511D01*
X0127230Y0112278D01*
X0125695Y0112278D02*
X0124928Y0111511D01*
X0123393Y0111511D01*
X0122626Y0112278D01*
X0122626Y0113046D01*
X0123393Y0113813D01*
X0124928Y0113813D01*
X0125695Y0114580D01*
X0125695Y0115348D01*
X0124928Y0116115D01*
X0123393Y0116115D01*
X0122626Y0115348D01*
X0122626Y0114580D01*
X0123393Y0113813D01*
X0124928Y0113813D02*
X0125695Y0113046D01*
X0125695Y0112278D01*
X0127230Y0115348D02*
X0127997Y0116115D01*
X0129532Y0116115D01*
X0128119Y0109733D02*
X0127352Y0108966D01*
X0127352Y0107431D01*
X0128119Y0106664D01*
X0131189Y0109733D01*
X0128119Y0109733D01*
X0128119Y0106664D02*
X0131189Y0106664D01*
X0131956Y0107431D01*
X0131956Y0108966D01*
X0131189Y0109733D01*
X0131189Y0105129D02*
X0130421Y0105129D01*
X0129654Y0104362D01*
X0128887Y0105129D01*
X0128119Y0105129D01*
X0127352Y0104362D01*
X0127352Y0102827D01*
X0128119Y0102060D01*
X0127352Y0100525D02*
X0128887Y0098991D01*
X0128887Y0099758D02*
X0128887Y0097456D01*
X0127352Y0097456D02*
X0131956Y0097456D01*
X0131956Y0099758D01*
X0131189Y0100525D01*
X0129654Y0100525D01*
X0128887Y0099758D01*
X0131189Y0102060D02*
X0131956Y0102827D01*
X0131956Y0104362D01*
X0131189Y0105129D01*
X0129654Y0104362D02*
X0129654Y0103594D01*
X0118017Y0113432D02*
X0116482Y0111898D01*
X0114947Y0113432D01*
X0114947Y0116502D01*
X0113413Y0116502D02*
X0111111Y0116502D01*
X0110343Y0115734D01*
X0110343Y0114200D01*
X0111111Y0113432D01*
X0113413Y0113432D01*
X0113413Y0111898D02*
X0113413Y0116502D01*
X0111878Y0113432D02*
X0110343Y0111898D01*
X0108809Y0111898D02*
X0105739Y0111898D01*
X0107274Y0111898D02*
X0107274Y0116502D01*
X0108809Y0114967D01*
X0118017Y0116502D02*
X0118017Y0113432D01*
X0145574Y0123709D02*
X0150178Y0123709D01*
X0150178Y0126011D01*
X0149411Y0126778D01*
X0147876Y0126778D01*
X0147109Y0126011D01*
X0147109Y0123709D01*
X0147109Y0125243D02*
X0145574Y0126778D01*
X0146341Y0128313D02*
X0145574Y0129080D01*
X0145574Y0130615D01*
X0146341Y0131382D01*
X0147109Y0131382D01*
X0147876Y0130615D01*
X0147876Y0129847D01*
X0147876Y0130615D02*
X0148643Y0131382D01*
X0149411Y0131382D01*
X0150178Y0130615D01*
X0150178Y0129080D01*
X0149411Y0128313D01*
X0149411Y0132917D02*
X0150178Y0133684D01*
X0150178Y0135218D01*
X0149411Y0135986D01*
X0148643Y0135986D01*
X0145574Y0132917D01*
X0145574Y0135986D01*
X0156954Y0135876D02*
X0156954Y0136643D01*
X0157721Y0137410D01*
X0159256Y0137410D01*
X0160023Y0136643D01*
X0161558Y0135108D02*
X0164627Y0135108D01*
X0162325Y0137410D01*
X0162325Y0132806D01*
X0160023Y0132806D02*
X0156954Y0135876D01*
X0156954Y0132806D02*
X0160023Y0132806D01*
X0166161Y0132806D02*
X0167696Y0134341D01*
X0166929Y0134341D02*
X0169231Y0134341D01*
X0169231Y0132806D02*
X0169231Y0137410D01*
X0166929Y0137410D01*
X0166161Y0136643D01*
X0166161Y0135108D01*
X0166929Y0134341D01*
X0166567Y0125530D02*
X0167335Y0124763D01*
X0167335Y0121693D01*
X0166567Y0120926D01*
X0165033Y0120926D01*
X0164265Y0121693D01*
X0162731Y0123228D02*
X0159661Y0123228D01*
X0158127Y0123995D02*
X0156592Y0125530D01*
X0156592Y0120926D01*
X0155058Y0120926D02*
X0158127Y0120926D01*
X0160429Y0120926D02*
X0160429Y0125530D01*
X0162731Y0123228D01*
X0164265Y0124763D02*
X0165033Y0125530D01*
X0166567Y0125530D01*
X0177209Y0124987D02*
X0177209Y0124219D01*
X0177977Y0123452D01*
X0179511Y0123452D01*
X0180279Y0124219D01*
X0181813Y0125754D02*
X0184883Y0125754D01*
X0182581Y0128056D01*
X0182581Y0123452D01*
X0186417Y0123452D02*
X0187952Y0124987D01*
X0187185Y0124987D02*
X0189487Y0124987D01*
X0189487Y0123452D02*
X0189487Y0128056D01*
X0187185Y0128056D01*
X0186417Y0127289D01*
X0186417Y0125754D01*
X0187185Y0124987D01*
X0180279Y0127289D02*
X0179511Y0128056D01*
X0177977Y0128056D01*
X0177209Y0127289D01*
X0177209Y0126521D01*
X0177977Y0125754D01*
X0177209Y0124987D01*
X0177977Y0125754D02*
X0178744Y0125754D01*
X0176460Y0113955D02*
X0174158Y0113955D01*
X0173391Y0113188D01*
X0173391Y0111653D01*
X0174158Y0110886D01*
X0176460Y0110886D01*
X0174925Y0110886D02*
X0173391Y0109351D01*
X0171856Y0110118D02*
X0171089Y0109351D01*
X0169554Y0109351D01*
X0168787Y0110118D01*
X0168787Y0110886D01*
X0169554Y0111653D01*
X0170321Y0111653D01*
X0169554Y0111653D02*
X0168787Y0112420D01*
X0168787Y0113188D01*
X0169554Y0113955D01*
X0171089Y0113955D01*
X0171856Y0113188D01*
X0167252Y0113188D02*
X0167252Y0112420D01*
X0166485Y0111653D01*
X0164183Y0111653D01*
X0164183Y0110118D02*
X0164183Y0113188D01*
X0164950Y0113955D01*
X0166485Y0113955D01*
X0167252Y0113188D01*
X0167252Y0110118D02*
X0166485Y0109351D01*
X0164950Y0109351D01*
X0164183Y0110118D01*
X0163358Y0100199D02*
X0162591Y0099432D01*
X0162591Y0097897D01*
X0163358Y0097130D01*
X0165660Y0097130D01*
X0165660Y0095595D02*
X0165660Y0100199D01*
X0163358Y0100199D01*
X0164125Y0097130D02*
X0162591Y0095595D01*
X0161056Y0097897D02*
X0157987Y0097897D01*
X0156452Y0098665D02*
X0154917Y0100199D01*
X0154917Y0095595D01*
X0153383Y0095595D02*
X0156452Y0095595D01*
X0158754Y0095595D02*
X0158754Y0100199D01*
X0161056Y0097897D01*
X0176460Y0109351D02*
X0176460Y0113955D01*
X0192771Y0113497D02*
X0195840Y0116566D01*
X0196607Y0116566D01*
X0197375Y0115799D01*
X0197375Y0114264D01*
X0196607Y0113497D01*
X0196607Y0111962D02*
X0197375Y0111195D01*
X0197375Y0109660D01*
X0196607Y0108893D01*
X0193538Y0108893D01*
X0192771Y0109660D01*
X0192771Y0111195D01*
X0193538Y0111962D01*
X0192771Y0113497D02*
X0192771Y0116566D01*
X0162481Y0083747D02*
X0163248Y0082980D01*
X0163248Y0079911D01*
X0162481Y0079143D01*
X0160946Y0079143D01*
X0160179Y0079911D01*
X0158644Y0081445D02*
X0155575Y0081445D01*
X0154040Y0080678D02*
X0154040Y0079911D01*
X0153273Y0079143D01*
X0151738Y0079143D01*
X0150971Y0079911D01*
X0150971Y0080678D01*
X0151738Y0081445D01*
X0153273Y0081445D01*
X0154040Y0082213D01*
X0154040Y0082980D01*
X0153273Y0083747D01*
X0151738Y0083747D01*
X0150971Y0082980D01*
X0150971Y0082213D01*
X0151738Y0081445D01*
X0153273Y0081445D02*
X0154040Y0080678D01*
X0156342Y0079143D02*
X0156342Y0083747D01*
X0158644Y0081445D01*
X0160179Y0082980D02*
X0160946Y0083747D01*
X0162481Y0083747D01*
X0133556Y0080350D02*
X0133556Y0077281D01*
X0133556Y0075746D02*
X0133556Y0072677D01*
X0131254Y0072677D01*
X0132021Y0074212D01*
X0132021Y0074979D01*
X0131254Y0075746D01*
X0129719Y0075746D01*
X0128952Y0074979D01*
X0128952Y0073444D01*
X0129719Y0072677D01*
X0129719Y0071143D02*
X0128952Y0070375D01*
X0128952Y0068841D01*
X0129719Y0068073D01*
X0132789Y0068073D01*
X0133556Y0068841D01*
X0133556Y0070375D01*
X0132789Y0071143D01*
X0128989Y0065646D02*
X0125920Y0065646D01*
X0125153Y0064878D01*
X0125153Y0063344D01*
X0125920Y0062576D01*
X0128989Y0065646D01*
X0129757Y0064878D01*
X0129757Y0063344D01*
X0128989Y0062576D01*
X0125920Y0062576D01*
X0125920Y0061042D02*
X0126687Y0061042D01*
X0127455Y0060274D01*
X0127455Y0057972D01*
X0125920Y0057972D01*
X0125153Y0058740D01*
X0125153Y0060274D01*
X0125920Y0061042D01*
X0128989Y0059507D02*
X0127455Y0057972D01*
X0127455Y0056438D02*
X0126687Y0055670D01*
X0126687Y0053369D01*
X0126687Y0054903D02*
X0125153Y0056438D01*
X0127455Y0056438D02*
X0128989Y0056438D01*
X0129757Y0055670D01*
X0129757Y0053369D01*
X0125153Y0053369D01*
X0123639Y0053936D02*
X0123639Y0050867D01*
X0122871Y0050099D01*
X0121337Y0050099D01*
X0120569Y0050867D01*
X0119035Y0050099D02*
X0115965Y0053168D01*
X0115965Y0053936D01*
X0116733Y0054703D01*
X0118267Y0054703D01*
X0119035Y0053936D01*
X0120569Y0053936D02*
X0121337Y0054703D01*
X0122871Y0054703D01*
X0123639Y0053936D01*
X0119035Y0050099D02*
X0115965Y0050099D01*
X0114431Y0050099D02*
X0111361Y0053168D01*
X0111361Y0053936D01*
X0112129Y0054703D01*
X0113663Y0054703D01*
X0114431Y0053936D01*
X0114431Y0050099D02*
X0111361Y0050099D01*
X0128989Y0059507D02*
X0129757Y0061042D01*
X0116387Y0073597D02*
X0115619Y0072830D01*
X0114085Y0072830D01*
X0113317Y0073597D01*
X0111783Y0073597D02*
X0111015Y0072830D01*
X0109481Y0072830D01*
X0108713Y0073597D01*
X0108713Y0075132D01*
X0109481Y0075899D01*
X0110248Y0075899D01*
X0111783Y0075132D01*
X0111783Y0077434D01*
X0108713Y0077434D01*
X0107179Y0075132D02*
X0104877Y0075132D01*
X0104109Y0074365D01*
X0104109Y0073597D01*
X0104877Y0072830D01*
X0106411Y0072830D01*
X0107179Y0073597D01*
X0107179Y0075132D01*
X0105644Y0076667D01*
X0104109Y0077434D01*
X0113317Y0076667D02*
X0114085Y0077434D01*
X0115619Y0077434D01*
X0116387Y0076667D01*
X0116387Y0073597D01*
X0128952Y0077281D02*
X0129719Y0077281D01*
X0132789Y0080350D01*
X0133556Y0080350D01*
X0158218Y0052490D02*
X0160019Y0050688D01*
X0157617Y0050688D01*
X0158218Y0048887D02*
X0158218Y0052490D01*
X0162502Y0052490D02*
X0162502Y0048887D01*
X0163703Y0048887D02*
X0161300Y0048887D01*
X0163703Y0051289D02*
X0162502Y0052490D01*
X0164984Y0051889D02*
X0165584Y0052490D01*
X0166785Y0052490D01*
X0167386Y0051889D01*
X0167386Y0049487D01*
X0166785Y0048887D01*
X0165584Y0048887D01*
X0164984Y0049487D01*
X0168640Y0048887D02*
X0169841Y0048887D01*
X0169241Y0048887D02*
X0169241Y0052490D01*
X0169841Y0052490D02*
X0168640Y0052490D01*
X0193952Y0027489D02*
X0194719Y0028257D01*
X0197789Y0028257D01*
X0198556Y0027489D01*
X0198556Y0025955D01*
X0197789Y0025187D01*
X0197021Y0025187D01*
X0196254Y0025955D01*
X0196254Y0028257D01*
X0193952Y0027489D02*
X0193952Y0025955D01*
X0194719Y0025187D01*
X0194719Y0023653D02*
X0193952Y0022885D01*
X0193952Y0021351D01*
X0194719Y0020583D01*
X0194719Y0019049D02*
X0193952Y0018281D01*
X0193952Y0016747D01*
X0194719Y0015980D01*
X0197789Y0015980D01*
X0198556Y0016747D01*
X0198556Y0018281D01*
X0197789Y0019049D01*
X0198556Y0020583D02*
X0196254Y0020583D01*
X0197021Y0022118D01*
X0197021Y0022885D01*
X0196254Y0023653D01*
X0194719Y0023653D01*
X0198556Y0023653D02*
X0198556Y0020583D01*
X0172190Y0021391D02*
X0172190Y0018322D01*
X0171422Y0017554D01*
X0169888Y0017554D01*
X0169120Y0018322D01*
X0167586Y0019856D02*
X0164517Y0019856D01*
X0162982Y0018322D02*
X0162215Y0017554D01*
X0160680Y0017554D01*
X0159913Y0018322D01*
X0159913Y0019089D01*
X0160680Y0019856D01*
X0161447Y0019856D01*
X0160680Y0019856D02*
X0159913Y0020624D01*
X0159913Y0021391D01*
X0160680Y0022158D01*
X0162215Y0022158D01*
X0162982Y0021391D01*
X0165284Y0022158D02*
X0167586Y0019856D01*
X0169120Y0021391D02*
X0169888Y0022158D01*
X0171422Y0022158D01*
X0172190Y0021391D01*
X0165284Y0022158D02*
X0165284Y0017554D01*
X0119422Y0017928D02*
X0118655Y0017161D01*
X0115585Y0017161D01*
X0114818Y0017928D01*
X0114818Y0019463D01*
X0115585Y0020230D01*
X0115585Y0021765D02*
X0114818Y0022532D01*
X0114818Y0024067D01*
X0115585Y0024834D01*
X0117120Y0024834D01*
X0117887Y0024067D01*
X0117887Y0023299D01*
X0117120Y0021765D01*
X0119422Y0021765D01*
X0119422Y0024834D01*
X0118655Y0026368D02*
X0117887Y0026368D01*
X0117120Y0027136D01*
X0117120Y0028670D01*
X0116353Y0029438D01*
X0115585Y0029438D01*
X0114818Y0028670D01*
X0114818Y0027136D01*
X0115585Y0026368D01*
X0116353Y0026368D01*
X0117120Y0027136D01*
X0117120Y0028670D02*
X0117887Y0029438D01*
X0118655Y0029438D01*
X0119422Y0028670D01*
X0119422Y0027136D01*
X0118655Y0026368D01*
X0118655Y0020230D02*
X0119422Y0019463D01*
X0119422Y0017928D01*
X0082906Y0033937D02*
X0082139Y0033169D01*
X0079070Y0033169D01*
X0078302Y0033937D01*
X0078302Y0035471D01*
X0079070Y0036239D01*
X0079070Y0037773D02*
X0078302Y0037773D01*
X0079070Y0037773D02*
X0082139Y0040843D01*
X0082906Y0040843D01*
X0082906Y0037773D01*
X0082139Y0036239D02*
X0082906Y0035471D01*
X0082906Y0033937D01*
X0081894Y0051669D02*
X0080359Y0051669D01*
X0079592Y0052436D01*
X0079592Y0053970D01*
X0080359Y0054738D01*
X0081127Y0054738D01*
X0082661Y0053970D01*
X0082661Y0056272D01*
X0079592Y0056272D01*
X0078057Y0055505D02*
X0077290Y0056272D01*
X0075756Y0056272D01*
X0074988Y0055505D01*
X0074988Y0054738D01*
X0078057Y0051669D01*
X0074988Y0051669D01*
X0081894Y0051669D02*
X0082661Y0052436D01*
X0084196Y0051669D02*
X0085731Y0053203D01*
X0084963Y0053203D02*
X0087265Y0053203D01*
X0087265Y0051669D02*
X0087265Y0056272D01*
X0084963Y0056272D01*
X0084196Y0055505D01*
X0084196Y0053970D01*
X0084963Y0053203D01*
D11*
X0088067Y0068394D02*
X0089302Y0068394D01*
X0089919Y0069011D01*
X0091133Y0069011D02*
X0091750Y0068394D01*
X0093602Y0068394D01*
X0093602Y0072097D01*
X0091750Y0072097D01*
X0091133Y0071480D01*
X0091133Y0069011D01*
X0089919Y0071480D02*
X0089302Y0072097D01*
X0088067Y0072097D01*
X0087450Y0071480D01*
X0087450Y0070863D01*
X0088067Y0070246D01*
X0087450Y0069628D01*
X0087450Y0069011D01*
X0088067Y0068394D01*
X0088067Y0070246D02*
X0088684Y0070246D01*
X0095028Y0074906D02*
X0095028Y0078609D01*
X0096879Y0076757D01*
X0094411Y0076757D01*
X0098094Y0075523D02*
X0098094Y0077992D01*
X0098711Y0078609D01*
X0100563Y0078609D01*
X0100563Y0074906D01*
X0098711Y0074906D01*
X0098094Y0075523D01*
X0130772Y0050706D02*
X0130772Y0048237D01*
X0133241Y0050706D01*
X0133858Y0050706D01*
X0134475Y0050088D01*
X0134475Y0048854D01*
X0133858Y0048237D01*
X0134475Y0047022D02*
X0133858Y0045788D01*
X0132624Y0044554D01*
X0132624Y0046405D01*
X0132006Y0047022D01*
X0131389Y0047022D01*
X0130772Y0046405D01*
X0130772Y0045171D01*
X0131389Y0044554D01*
X0132624Y0044554D01*
X0132624Y0043339D02*
X0132006Y0042722D01*
X0132006Y0040870D01*
X0130772Y0040870D02*
X0134475Y0040870D01*
X0134475Y0042722D01*
X0133858Y0043339D01*
X0132624Y0043339D01*
X0132006Y0042105D02*
X0130772Y0043339D01*
X0123106Y0037781D02*
X0123106Y0035981D01*
X0123785Y0035223D02*
X0121316Y0035223D01*
X0120102Y0035223D02*
X0120102Y0033372D01*
X0118867Y0033989D01*
X0118250Y0033989D01*
X0117633Y0033372D01*
X0117633Y0032137D01*
X0118250Y0031520D01*
X0119485Y0031520D01*
X0120102Y0032137D01*
X0121316Y0032137D02*
X0121933Y0031520D01*
X0123168Y0031520D01*
X0123785Y0032137D01*
X0124999Y0032137D02*
X0125617Y0031520D01*
X0126851Y0031520D01*
X0127468Y0032137D01*
X0127468Y0034606D01*
X0126851Y0035223D01*
X0125617Y0035223D01*
X0124999Y0034606D01*
X0123785Y0035223D02*
X0123785Y0033372D01*
X0122551Y0033989D01*
X0121933Y0033989D01*
X0121316Y0033372D01*
X0121316Y0032137D01*
X0120102Y0035223D02*
X0117633Y0035223D01*
X0133629Y0031806D02*
X0133629Y0031189D01*
X0134246Y0030572D01*
X0133629Y0029954D01*
X0133629Y0029337D01*
X0134246Y0028720D01*
X0135481Y0028720D01*
X0136098Y0029337D01*
X0137312Y0029337D02*
X0137929Y0028720D01*
X0139164Y0028720D01*
X0139781Y0029337D01*
X0140995Y0029337D02*
X0141612Y0028720D01*
X0142847Y0028720D01*
X0143464Y0029337D01*
X0143464Y0031806D01*
X0142847Y0032423D01*
X0141612Y0032423D01*
X0140995Y0031806D01*
X0139781Y0032423D02*
X0139781Y0030572D01*
X0138546Y0031189D01*
X0137929Y0031189D01*
X0137312Y0030572D01*
X0137312Y0029337D01*
X0134863Y0030572D02*
X0134246Y0030572D01*
X0133629Y0031806D02*
X0134246Y0032423D01*
X0135481Y0032423D01*
X0136098Y0031806D01*
X0137312Y0032423D02*
X0139781Y0032423D01*
X0145000Y0033353D02*
X0146235Y0032118D01*
X0146235Y0032736D02*
X0146235Y0030884D01*
X0145000Y0030884D02*
X0148704Y0030884D01*
X0148704Y0032736D01*
X0148086Y0033353D01*
X0146852Y0033353D01*
X0146235Y0032736D01*
X0146852Y0034567D02*
X0147469Y0035802D01*
X0147469Y0036419D01*
X0146852Y0037036D01*
X0145618Y0037036D01*
X0145000Y0036419D01*
X0145000Y0035184D01*
X0145618Y0034567D01*
X0146852Y0034567D02*
X0148704Y0034567D01*
X0148704Y0037036D01*
X0148086Y0038250D02*
X0147469Y0038250D01*
X0146852Y0038868D01*
X0146852Y0040719D01*
X0145618Y0040719D02*
X0148086Y0040719D01*
X0148704Y0040102D01*
X0148704Y0038868D01*
X0148086Y0038250D01*
X0145618Y0038250D02*
X0145000Y0038868D01*
X0145000Y0040102D01*
X0145618Y0040719D01*
X0152186Y0035007D02*
X0152186Y0031304D01*
X0150952Y0031304D02*
X0153421Y0031304D01*
X0154635Y0031921D02*
X0154635Y0032538D01*
X0155252Y0033155D01*
X0157104Y0033155D01*
X0157104Y0031921D01*
X0156487Y0031304D01*
X0155252Y0031304D01*
X0154635Y0031921D01*
X0153421Y0033772D02*
X0152186Y0035007D01*
X0154635Y0035007D02*
X0155869Y0034390D01*
X0157104Y0033155D01*
X0158318Y0033155D02*
X0158935Y0032538D01*
X0160787Y0032538D01*
X0159553Y0032538D02*
X0158318Y0031304D01*
X0158318Y0033155D02*
X0158318Y0034390D01*
X0158935Y0035007D01*
X0160787Y0035007D01*
X0160787Y0031304D01*
X0175361Y0032421D02*
X0177830Y0029952D01*
X0177830Y0029335D01*
X0179045Y0029952D02*
X0179662Y0029335D01*
X0180896Y0029335D01*
X0181513Y0029952D01*
X0181513Y0031187D01*
X0179662Y0031187D01*
X0179045Y0030569D01*
X0179045Y0029952D01*
X0181513Y0031187D02*
X0180279Y0032421D01*
X0179045Y0033038D01*
X0178734Y0033666D02*
X0179969Y0033666D01*
X0180586Y0034283D01*
X0180586Y0034900D01*
X0179969Y0035517D01*
X0178734Y0035517D01*
X0178117Y0034900D01*
X0178117Y0034283D01*
X0178734Y0033666D01*
X0177830Y0033038D02*
X0175361Y0033038D01*
X0175361Y0032421D01*
X0178734Y0035517D02*
X0178117Y0036135D01*
X0178117Y0036752D01*
X0178734Y0037369D01*
X0179969Y0037369D01*
X0180586Y0036752D01*
X0180586Y0036135D01*
X0179969Y0035517D01*
X0181800Y0034900D02*
X0182418Y0035517D01*
X0184269Y0035517D01*
X0184269Y0034283D01*
X0183652Y0033666D01*
X0182418Y0033666D01*
X0181800Y0034283D01*
X0181800Y0034900D01*
X0183035Y0036752D02*
X0184269Y0035517D01*
X0185484Y0035517D02*
X0186101Y0034900D01*
X0187952Y0034900D01*
X0186718Y0034900D02*
X0185484Y0033666D01*
X0185196Y0033038D02*
X0183345Y0033038D01*
X0182728Y0032421D01*
X0182728Y0031187D01*
X0183345Y0030569D01*
X0185196Y0030569D01*
X0183962Y0030569D02*
X0182728Y0029335D01*
X0185196Y0029335D02*
X0185196Y0033038D01*
X0187952Y0033666D02*
X0187952Y0037369D01*
X0186101Y0037369D01*
X0185484Y0036752D01*
X0185484Y0035517D01*
X0184444Y0038052D02*
X0183209Y0038052D01*
X0182592Y0038669D01*
X0182592Y0039286D01*
X0183209Y0039903D01*
X0185061Y0039903D01*
X0185061Y0038669D01*
X0184444Y0038052D01*
X0183035Y0036752D02*
X0181800Y0037369D01*
X0185061Y0039903D02*
X0183826Y0041138D01*
X0182592Y0041755D01*
X0186275Y0041755D02*
X0187509Y0041138D01*
X0188744Y0039903D01*
X0186892Y0039903D01*
X0186275Y0039286D01*
X0186275Y0038669D01*
X0186892Y0038052D01*
X0188127Y0038052D01*
X0188744Y0038669D01*
X0188744Y0039903D01*
X0189958Y0039903D02*
X0190575Y0039286D01*
X0192427Y0039286D01*
X0191193Y0039286D02*
X0189958Y0038052D01*
X0189958Y0039903D02*
X0189958Y0041138D01*
X0190575Y0041755D01*
X0192427Y0041755D01*
X0192427Y0038052D01*
X0194158Y0039689D02*
X0197861Y0039689D01*
X0197861Y0041541D01*
X0197244Y0042158D01*
X0196009Y0042158D01*
X0195392Y0041541D01*
X0195392Y0039689D01*
X0195392Y0040924D02*
X0194158Y0042158D01*
X0194158Y0043373D02*
X0194775Y0043373D01*
X0197244Y0045841D01*
X0197861Y0045841D01*
X0197861Y0043373D01*
X0196627Y0047056D02*
X0197861Y0048290D01*
X0194158Y0048290D01*
X0194158Y0047056D02*
X0194158Y0049524D01*
X0189921Y0052563D02*
X0189921Y0056267D01*
X0188069Y0056267D01*
X0187452Y0055649D01*
X0187452Y0054415D01*
X0188069Y0053798D01*
X0189921Y0053798D01*
X0188686Y0053798D02*
X0187452Y0052563D01*
X0186238Y0052563D02*
X0186238Y0053181D01*
X0183769Y0055649D01*
X0183769Y0056267D01*
X0186238Y0056267D01*
X0182555Y0055649D02*
X0181937Y0056267D01*
X0180703Y0056267D01*
X0180086Y0055649D01*
X0180086Y0055032D01*
X0182555Y0052563D01*
X0180086Y0052563D01*
X0178788Y0062800D02*
X0177553Y0062800D01*
X0176936Y0063417D01*
X0176936Y0065886D01*
X0179405Y0063417D01*
X0178788Y0062800D01*
X0179405Y0063417D02*
X0179405Y0065886D01*
X0178788Y0066503D01*
X0177553Y0066503D01*
X0176936Y0065886D01*
X0177306Y0066781D02*
X0177906Y0066781D01*
X0180619Y0066503D02*
X0180619Y0065886D01*
X0183088Y0063417D01*
X0183088Y0062800D01*
X0184302Y0062800D02*
X0185537Y0064034D01*
X0184920Y0064034D02*
X0186771Y0064034D01*
X0186771Y0062800D02*
X0186771Y0066503D01*
X0184920Y0066503D01*
X0184302Y0065886D01*
X0184302Y0064651D01*
X0184920Y0064034D01*
X0183088Y0066503D02*
X0180619Y0066503D01*
X0177948Y0070456D02*
X0176713Y0070456D01*
X0176096Y0071073D01*
X0174882Y0072307D02*
X0172413Y0072307D01*
X0171198Y0073541D02*
X0170581Y0074159D01*
X0169347Y0074159D01*
X0168730Y0073541D01*
X0168730Y0072924D01*
X0171198Y0070456D01*
X0168730Y0070456D01*
X0173030Y0070456D02*
X0173030Y0074159D01*
X0174882Y0072307D01*
X0176096Y0073541D02*
X0176713Y0074159D01*
X0177948Y0074159D01*
X0178565Y0073541D01*
X0178565Y0071073D01*
X0177948Y0070456D01*
X0191402Y0070901D02*
X0192019Y0070284D01*
X0191402Y0070901D02*
X0191402Y0072136D01*
X0192019Y0072753D01*
X0194488Y0072753D01*
X0195105Y0072136D01*
X0195105Y0070901D01*
X0194488Y0070284D01*
X0193871Y0070284D01*
X0193254Y0070901D01*
X0193254Y0072753D01*
X0192636Y0069070D02*
X0192019Y0069070D01*
X0191402Y0068452D01*
X0191402Y0067218D01*
X0192019Y0066601D01*
X0193254Y0066601D01*
X0193254Y0068452D01*
X0192636Y0069070D01*
X0194488Y0067835D02*
X0193254Y0066601D01*
X0193254Y0065386D02*
X0192636Y0064769D01*
X0192636Y0062918D01*
X0191402Y0062918D02*
X0195105Y0062918D01*
X0195105Y0064769D01*
X0194488Y0065386D01*
X0193254Y0065386D01*
X0192636Y0064152D02*
X0191402Y0065386D01*
X0194488Y0067835D02*
X0195105Y0069070D01*
X0160515Y0070640D02*
X0159897Y0069406D01*
X0158663Y0068172D01*
X0158663Y0070023D01*
X0158046Y0070640D01*
X0157429Y0070640D01*
X0156811Y0070023D01*
X0156811Y0068789D01*
X0157429Y0068172D01*
X0158663Y0068172D01*
X0159897Y0066957D02*
X0160515Y0066340D01*
X0160515Y0065106D01*
X0159897Y0064488D01*
X0157429Y0064488D01*
X0156811Y0065106D01*
X0156811Y0066340D01*
X0157429Y0066957D01*
X0155669Y0066343D02*
X0155669Y0070046D01*
X0153817Y0070046D01*
X0153200Y0069429D01*
X0153200Y0068194D01*
X0153817Y0067577D01*
X0155669Y0067577D01*
X0154435Y0067577D02*
X0153200Y0066343D01*
X0151986Y0066960D02*
X0151986Y0068194D01*
X0150134Y0068194D01*
X0149517Y0067577D01*
X0149517Y0066960D01*
X0150134Y0066343D01*
X0151369Y0066343D01*
X0151986Y0066960D01*
X0151986Y0068194D02*
X0150751Y0069429D01*
X0149517Y0070046D01*
X0148303Y0069429D02*
X0147685Y0070046D01*
X0146451Y0070046D01*
X0145834Y0069429D01*
X0145834Y0068812D01*
X0146451Y0068194D01*
X0145834Y0067577D01*
X0145834Y0066960D01*
X0146451Y0066343D01*
X0147685Y0066343D01*
X0148303Y0066960D01*
X0147068Y0068194D02*
X0146451Y0068194D01*
X0144767Y0063160D02*
X0144767Y0060691D01*
X0142915Y0060691D01*
X0143532Y0061926D01*
X0143532Y0062543D01*
X0142915Y0063160D01*
X0141681Y0063160D01*
X0141063Y0062543D01*
X0141063Y0061308D01*
X0141681Y0060691D01*
X0141681Y0059477D02*
X0142298Y0059477D01*
X0142915Y0058860D01*
X0142915Y0057008D01*
X0141681Y0057008D01*
X0141063Y0057625D01*
X0141063Y0058860D01*
X0141681Y0059477D01*
X0139593Y0060802D02*
X0138976Y0059568D01*
X0137742Y0058333D01*
X0137742Y0060185D01*
X0137125Y0060802D01*
X0136507Y0060802D01*
X0135890Y0060185D01*
X0135890Y0058950D01*
X0136507Y0058333D01*
X0137742Y0058333D01*
X0137742Y0057119D02*
X0137125Y0056502D01*
X0137125Y0054650D01*
X0137125Y0055884D02*
X0135890Y0057119D01*
X0137742Y0057119D02*
X0138976Y0057119D01*
X0139593Y0056502D01*
X0139593Y0054650D01*
X0135890Y0054650D01*
X0141063Y0055794D02*
X0142298Y0054559D01*
X0142298Y0055177D02*
X0142298Y0053325D01*
X0141063Y0053325D02*
X0144767Y0053325D01*
X0144767Y0055177D01*
X0144149Y0055794D01*
X0142915Y0055794D01*
X0142298Y0055177D01*
X0142915Y0057008D02*
X0144149Y0058243D01*
X0144767Y0059477D01*
X0139593Y0063868D02*
X0137742Y0062016D01*
X0137742Y0064485D01*
X0139593Y0063868D02*
X0135890Y0063868D01*
X0135566Y0096260D02*
X0134331Y0096260D01*
X0133714Y0096877D01*
X0133714Y0099346D01*
X0136183Y0096877D01*
X0135566Y0096260D01*
X0136183Y0096877D02*
X0136183Y0099346D01*
X0135566Y0099963D01*
X0134331Y0099963D01*
X0133714Y0099346D01*
X0137397Y0098112D02*
X0139866Y0098112D01*
X0138014Y0099963D01*
X0138014Y0096260D01*
X0141080Y0096877D02*
X0141697Y0096260D01*
X0142932Y0096260D01*
X0143549Y0096877D01*
X0143549Y0099346D01*
X0142932Y0099963D01*
X0141697Y0099963D01*
X0141080Y0099346D01*
X0150740Y0136874D02*
X0150122Y0137492D01*
X0150122Y0138726D01*
X0150740Y0139343D01*
X0150122Y0140558D02*
X0152591Y0143026D01*
X0153208Y0143026D01*
X0153826Y0142409D01*
X0153826Y0141175D01*
X0153208Y0140558D01*
X0153208Y0139343D02*
X0153826Y0138726D01*
X0153826Y0137492D01*
X0153208Y0136874D01*
X0150740Y0136874D01*
X0150122Y0140558D02*
X0150122Y0143026D01*
X0150740Y0144241D02*
X0150122Y0144858D01*
X0150122Y0146092D01*
X0150740Y0146709D01*
X0151357Y0146709D01*
X0151974Y0146092D01*
X0151974Y0145475D01*
X0151974Y0146092D02*
X0152591Y0146709D01*
X0153208Y0146709D01*
X0153826Y0146092D01*
X0153826Y0144858D01*
X0153208Y0144241D01*
X0075506Y0120581D02*
X0074706Y0120581D01*
X0050706Y0157581D02*
X0049506Y0157581D01*
X0028097Y0132203D02*
X0027480Y0132203D01*
X0026863Y0131585D01*
X0026863Y0130351D01*
X0027480Y0129734D01*
X0028097Y0129734D01*
X0028715Y0130351D01*
X0028715Y0131585D01*
X0028097Y0132203D01*
X0026863Y0131585D02*
X0026246Y0132203D01*
X0025629Y0132203D01*
X0025011Y0131585D01*
X0025011Y0130351D01*
X0025629Y0129734D01*
X0026246Y0129734D01*
X0026863Y0130351D01*
X0027480Y0128519D02*
X0028097Y0128519D01*
X0028715Y0127902D01*
X0028715Y0126668D01*
X0028097Y0126051D01*
X0028097Y0124836D02*
X0028715Y0124219D01*
X0028715Y0122985D01*
X0028097Y0122367D01*
X0025629Y0122367D01*
X0025011Y0122985D01*
X0025011Y0124219D01*
X0025629Y0124836D01*
X0025011Y0126051D02*
X0027480Y0128519D01*
X0025011Y0128519D02*
X0025011Y0126051D01*
X0026474Y0120125D02*
X0027091Y0120125D01*
X0027709Y0119508D01*
X0027709Y0117656D01*
X0026474Y0117656D01*
X0025857Y0118274D01*
X0025857Y0119508D01*
X0026474Y0120125D01*
X0028943Y0118891D02*
X0027709Y0117656D01*
X0028326Y0116442D02*
X0027709Y0115825D01*
X0027091Y0116442D01*
X0026474Y0116442D01*
X0025857Y0115825D01*
X0025857Y0114590D01*
X0026474Y0113973D01*
X0026474Y0112759D02*
X0025857Y0112142D01*
X0025857Y0110907D01*
X0026474Y0110290D01*
X0028943Y0110290D01*
X0029560Y0110907D01*
X0029560Y0112142D01*
X0028943Y0112759D01*
X0028943Y0113973D02*
X0029560Y0114590D01*
X0029560Y0115825D01*
X0028943Y0116442D01*
X0028326Y0116442D01*
X0027709Y0115825D02*
X0027709Y0115208D01*
X0028943Y0118891D02*
X0029560Y0120125D01*
X0053544Y0046066D02*
X0052927Y0045449D01*
X0052927Y0044831D01*
X0053544Y0044214D01*
X0052927Y0043597D01*
X0052927Y0042980D01*
X0053544Y0042363D01*
X0054778Y0042363D01*
X0055395Y0042980D01*
X0056610Y0042980D02*
X0057227Y0042363D01*
X0058461Y0042363D01*
X0059079Y0042980D01*
X0059079Y0045449D01*
X0058461Y0046066D01*
X0057227Y0046066D01*
X0056610Y0045449D01*
X0055395Y0045449D02*
X0054778Y0046066D01*
X0053544Y0046066D01*
X0053544Y0044214D02*
X0054161Y0044214D01*
X0060300Y0042363D02*
X0061534Y0042363D01*
X0060917Y0042363D02*
X0060917Y0046066D01*
X0061534Y0046066D02*
X0060300Y0046066D01*
X0092474Y0022811D02*
X0092474Y0022194D01*
X0094942Y0019725D01*
X0092474Y0019725D01*
X0092474Y0022811D02*
X0093091Y0023428D01*
X0094325Y0023428D01*
X0094942Y0022811D01*
X0096157Y0022811D02*
X0096774Y0023428D01*
X0098626Y0023428D01*
X0098626Y0019725D01*
X0096774Y0019725D01*
X0096157Y0020342D01*
X0096157Y0022811D01*
X0123671Y0011851D02*
X0126139Y0011851D01*
X0124905Y0011851D02*
X0124905Y0015554D01*
X0126139Y0014320D01*
X0127354Y0014937D02*
X0127354Y0012468D01*
X0127971Y0011851D01*
X0129822Y0011851D01*
X0129822Y0015554D01*
X0127971Y0015554D01*
X0127354Y0014937D01*
D12*
X0137571Y0032984D02*
X0137571Y0034165D01*
X0147020Y0042039D02*
X0147020Y0045189D01*
X0142295Y0050701D02*
X0142295Y0053850D01*
X0137965Y0053850D02*
X0137965Y0050701D01*
X0130484Y0046370D02*
X0129697Y0046370D01*
X0131665Y0059362D02*
X0131272Y0059756D01*
X0130091Y0059756D01*
X0153319Y0064480D02*
X0153319Y0066055D01*
X0154568Y0059813D02*
X0170968Y0059813D01*
X0170968Y0040013D01*
X0154568Y0040013D01*
X0154568Y0059813D01*
X0161587Y0066449D02*
X0160799Y0067236D01*
X0159618Y0076291D02*
X0158437Y0077472D01*
X0158437Y0078654D01*
X0171823Y0069992D02*
X0171823Y0069205D01*
X0183240Y0062118D02*
X0183240Y0061724D01*
X0192689Y0062512D02*
X0192689Y0060150D01*
X0187571Y0051882D02*
X0187571Y0050701D01*
X0189146Y0045583D02*
X0193083Y0045583D01*
X0181272Y0040071D02*
X0180091Y0040071D01*
X0179303Y0040858D01*
X0179303Y0044795D01*
X0176941Y0036921D02*
X0173791Y0036921D01*
X0176941Y0036921D02*
X0177728Y0036134D01*
X0174972Y0031409D02*
X0173398Y0031409D01*
X0172217Y0032591D01*
X0166311Y0025110D02*
X0166311Y0021567D01*
X0154500Y0035346D02*
X0154500Y0035740D01*
X0156168Y0043513D02*
X0156170Y0043597D01*
X0156176Y0043682D01*
X0156186Y0043765D01*
X0156200Y0043849D01*
X0156217Y0043931D01*
X0156239Y0044013D01*
X0156264Y0044093D01*
X0156293Y0044172D01*
X0156326Y0044250D01*
X0156362Y0044326D01*
X0156402Y0044401D01*
X0156446Y0044473D01*
X0156492Y0044544D01*
X0156542Y0044612D01*
X0156595Y0044677D01*
X0156651Y0044740D01*
X0156710Y0044801D01*
X0156772Y0044858D01*
X0156836Y0044913D01*
X0156903Y0044964D01*
X0156972Y0045013D01*
X0157044Y0045058D01*
X0157117Y0045099D01*
X0157192Y0045137D01*
X0157269Y0045172D01*
X0157348Y0045203D01*
X0157428Y0045230D01*
X0157509Y0045253D01*
X0157591Y0045273D01*
X0157674Y0045289D01*
X0157757Y0045301D01*
X0157842Y0045309D01*
X0157926Y0045313D01*
X0158010Y0045313D01*
X0158094Y0045309D01*
X0158179Y0045301D01*
X0158262Y0045289D01*
X0158345Y0045273D01*
X0158427Y0045253D01*
X0158508Y0045230D01*
X0158588Y0045203D01*
X0158667Y0045172D01*
X0158744Y0045137D01*
X0158819Y0045099D01*
X0158892Y0045058D01*
X0158964Y0045013D01*
X0159033Y0044964D01*
X0159100Y0044913D01*
X0159164Y0044858D01*
X0159226Y0044801D01*
X0159285Y0044740D01*
X0159341Y0044677D01*
X0159394Y0044612D01*
X0159444Y0044544D01*
X0159490Y0044473D01*
X0159534Y0044401D01*
X0159574Y0044326D01*
X0159610Y0044250D01*
X0159643Y0044172D01*
X0159672Y0044093D01*
X0159697Y0044013D01*
X0159719Y0043931D01*
X0159736Y0043849D01*
X0159750Y0043765D01*
X0159760Y0043682D01*
X0159766Y0043597D01*
X0159768Y0043513D01*
X0159766Y0043429D01*
X0159760Y0043344D01*
X0159750Y0043261D01*
X0159736Y0043177D01*
X0159719Y0043095D01*
X0159697Y0043013D01*
X0159672Y0042933D01*
X0159643Y0042854D01*
X0159610Y0042776D01*
X0159574Y0042700D01*
X0159534Y0042625D01*
X0159490Y0042553D01*
X0159444Y0042482D01*
X0159394Y0042414D01*
X0159341Y0042349D01*
X0159285Y0042286D01*
X0159226Y0042225D01*
X0159164Y0042168D01*
X0159100Y0042113D01*
X0159033Y0042062D01*
X0158964Y0042013D01*
X0158892Y0041968D01*
X0158819Y0041927D01*
X0158744Y0041889D01*
X0158667Y0041854D01*
X0158588Y0041823D01*
X0158508Y0041796D01*
X0158427Y0041773D01*
X0158345Y0041753D01*
X0158262Y0041737D01*
X0158179Y0041725D01*
X0158094Y0041717D01*
X0158010Y0041713D01*
X0157926Y0041713D01*
X0157842Y0041717D01*
X0157757Y0041725D01*
X0157674Y0041737D01*
X0157591Y0041753D01*
X0157509Y0041773D01*
X0157428Y0041796D01*
X0157348Y0041823D01*
X0157269Y0041854D01*
X0157192Y0041889D01*
X0157117Y0041927D01*
X0157044Y0041968D01*
X0156972Y0042013D01*
X0156903Y0042062D01*
X0156836Y0042113D01*
X0156772Y0042168D01*
X0156710Y0042225D01*
X0156651Y0042286D01*
X0156595Y0042349D01*
X0156542Y0042414D01*
X0156492Y0042482D01*
X0156446Y0042553D01*
X0156402Y0042625D01*
X0156362Y0042700D01*
X0156326Y0042776D01*
X0156293Y0042854D01*
X0156264Y0042933D01*
X0156239Y0043013D01*
X0156217Y0043095D01*
X0156200Y0043177D01*
X0156186Y0043261D01*
X0156176Y0043344D01*
X0156170Y0043429D01*
X0156168Y0043513D01*
X0118806Y0080924D02*
X0107806Y0080924D01*
X0107746Y0080926D01*
X0107685Y0080931D01*
X0107626Y0080940D01*
X0107567Y0080953D01*
X0107508Y0080969D01*
X0107451Y0080989D01*
X0107396Y0081012D01*
X0107341Y0081039D01*
X0107289Y0081068D01*
X0107238Y0081101D01*
X0107189Y0081137D01*
X0107143Y0081175D01*
X0107099Y0081217D01*
X0107057Y0081261D01*
X0107019Y0081307D01*
X0106983Y0081356D01*
X0106950Y0081407D01*
X0106921Y0081459D01*
X0106894Y0081514D01*
X0106871Y0081569D01*
X0106851Y0081626D01*
X0106835Y0081685D01*
X0106822Y0081744D01*
X0106813Y0081803D01*
X0106808Y0081864D01*
X0106806Y0081924D01*
X0106806Y0087924D01*
X0106808Y0087984D01*
X0106813Y0088045D01*
X0106822Y0088104D01*
X0106835Y0088163D01*
X0106851Y0088222D01*
X0106871Y0088279D01*
X0106894Y0088334D01*
X0106921Y0088389D01*
X0106950Y0088441D01*
X0106983Y0088492D01*
X0107019Y0088541D01*
X0107057Y0088587D01*
X0107099Y0088631D01*
X0107143Y0088673D01*
X0107189Y0088711D01*
X0107238Y0088747D01*
X0107289Y0088780D01*
X0107341Y0088809D01*
X0107396Y0088836D01*
X0107451Y0088859D01*
X0107508Y0088879D01*
X0107567Y0088895D01*
X0107626Y0088908D01*
X0107685Y0088917D01*
X0107746Y0088922D01*
X0107806Y0088924D01*
X0118806Y0088924D01*
X0118866Y0088922D01*
X0118927Y0088917D01*
X0118986Y0088908D01*
X0119045Y0088895D01*
X0119104Y0088879D01*
X0119161Y0088859D01*
X0119216Y0088836D01*
X0119271Y0088809D01*
X0119323Y0088780D01*
X0119374Y0088747D01*
X0119423Y0088711D01*
X0119469Y0088673D01*
X0119513Y0088631D01*
X0119555Y0088587D01*
X0119593Y0088541D01*
X0119629Y0088492D01*
X0119662Y0088441D01*
X0119691Y0088389D01*
X0119718Y0088334D01*
X0119741Y0088279D01*
X0119761Y0088222D01*
X0119777Y0088163D01*
X0119790Y0088104D01*
X0119799Y0088045D01*
X0119804Y0087984D01*
X0119806Y0087924D01*
X0119806Y0081924D01*
X0119804Y0081864D01*
X0119799Y0081803D01*
X0119790Y0081744D01*
X0119777Y0081685D01*
X0119761Y0081626D01*
X0119741Y0081569D01*
X0119718Y0081514D01*
X0119691Y0081459D01*
X0119662Y0081407D01*
X0119629Y0081356D01*
X0119593Y0081307D01*
X0119555Y0081261D01*
X0119513Y0081217D01*
X0119469Y0081175D01*
X0119423Y0081137D01*
X0119374Y0081101D01*
X0119323Y0081068D01*
X0119271Y0081039D01*
X0119216Y0081012D01*
X0119161Y0080989D01*
X0119104Y0080969D01*
X0119045Y0080953D01*
X0118986Y0080940D01*
X0118927Y0080931D01*
X0118866Y0080926D01*
X0118806Y0080924D01*
X0125366Y0103457D02*
X0126547Y0103457D01*
X0123791Y0116843D02*
X0123791Y0118024D01*
X0135996Y0118811D02*
X0135996Y0119598D01*
X0162374Y0120386D02*
X0163161Y0119598D01*
X0162768Y0112906D02*
X0161980Y0112906D01*
X0172610Y0125110D02*
X0174972Y0125110D01*
X0072217Y0104244D02*
X0071429Y0104244D01*
X0061980Y0105819D02*
X0061980Y0101882D01*
X0051350Y0101488D02*
X0051350Y0102669D01*
X0051350Y0108181D02*
X0047807Y0108181D01*
X0031665Y0104638D02*
X0031665Y0100307D01*
X0020642Y0103457D02*
X0020642Y0105425D01*
X0018280Y0110543D02*
X0015130Y0110543D01*
X0018280Y0110543D02*
X0018673Y0110937D01*
X0023004Y0114874D02*
X0025366Y0114874D01*
X0018280Y0119205D02*
X0014736Y0122748D01*
X0011193Y0122748D01*
X0021035Y0127472D02*
X0024579Y0127472D01*
X0017492Y0131803D02*
X0015524Y0133772D01*
X0013161Y0133772D01*
X0020642Y0141646D02*
X0020642Y0142433D01*
X0020248Y0142827D01*
X0019090Y0077830D02*
X0013090Y0077830D01*
X0013030Y0077828D01*
X0012969Y0077823D01*
X0012910Y0077814D01*
X0012851Y0077801D01*
X0012792Y0077785D01*
X0012735Y0077765D01*
X0012680Y0077742D01*
X0012625Y0077715D01*
X0012573Y0077686D01*
X0012522Y0077653D01*
X0012473Y0077617D01*
X0012427Y0077579D01*
X0012383Y0077537D01*
X0012341Y0077493D01*
X0012303Y0077447D01*
X0012267Y0077398D01*
X0012234Y0077347D01*
X0012205Y0077295D01*
X0012178Y0077240D01*
X0012155Y0077185D01*
X0012135Y0077128D01*
X0012119Y0077069D01*
X0012106Y0077010D01*
X0012097Y0076951D01*
X0012092Y0076890D01*
X0012090Y0076830D01*
X0012090Y0065830D01*
X0012092Y0065770D01*
X0012097Y0065709D01*
X0012106Y0065650D01*
X0012119Y0065591D01*
X0012135Y0065532D01*
X0012155Y0065475D01*
X0012178Y0065420D01*
X0012205Y0065365D01*
X0012234Y0065313D01*
X0012267Y0065262D01*
X0012303Y0065213D01*
X0012341Y0065167D01*
X0012383Y0065123D01*
X0012427Y0065081D01*
X0012473Y0065043D01*
X0012522Y0065007D01*
X0012573Y0064974D01*
X0012625Y0064945D01*
X0012680Y0064918D01*
X0012735Y0064895D01*
X0012792Y0064875D01*
X0012851Y0064859D01*
X0012910Y0064846D01*
X0012969Y0064837D01*
X0013030Y0064832D01*
X0013090Y0064830D01*
X0019090Y0064830D01*
X0019150Y0064832D01*
X0019211Y0064837D01*
X0019270Y0064846D01*
X0019329Y0064859D01*
X0019388Y0064875D01*
X0019445Y0064895D01*
X0019500Y0064918D01*
X0019555Y0064945D01*
X0019607Y0064974D01*
X0019658Y0065007D01*
X0019707Y0065043D01*
X0019753Y0065081D01*
X0019797Y0065123D01*
X0019839Y0065167D01*
X0019877Y0065213D01*
X0019913Y0065262D01*
X0019946Y0065313D01*
X0019975Y0065365D01*
X0020002Y0065420D01*
X0020025Y0065475D01*
X0020045Y0065532D01*
X0020061Y0065591D01*
X0020074Y0065650D01*
X0020083Y0065709D01*
X0020088Y0065770D01*
X0020090Y0065830D01*
X0020090Y0076830D01*
X0020088Y0076890D01*
X0020083Y0076951D01*
X0020074Y0077010D01*
X0020061Y0077069D01*
X0020045Y0077128D01*
X0020025Y0077185D01*
X0020002Y0077240D01*
X0019975Y0077295D01*
X0019946Y0077347D01*
X0019913Y0077398D01*
X0019877Y0077447D01*
X0019839Y0077493D01*
X0019797Y0077537D01*
X0019753Y0077579D01*
X0019707Y0077617D01*
X0019658Y0077653D01*
X0019607Y0077686D01*
X0019555Y0077715D01*
X0019500Y0077742D01*
X0019445Y0077765D01*
X0019388Y0077785D01*
X0019329Y0077801D01*
X0019270Y0077814D01*
X0019211Y0077823D01*
X0019150Y0077828D01*
X0019090Y0077830D01*
X0021145Y0076830D02*
X0021145Y0065830D01*
X0021147Y0065770D01*
X0021152Y0065709D01*
X0021161Y0065650D01*
X0021174Y0065591D01*
X0021190Y0065532D01*
X0021210Y0065475D01*
X0021233Y0065420D01*
X0021260Y0065365D01*
X0021289Y0065313D01*
X0021322Y0065262D01*
X0021358Y0065213D01*
X0021396Y0065167D01*
X0021438Y0065123D01*
X0021482Y0065081D01*
X0021528Y0065043D01*
X0021577Y0065007D01*
X0021628Y0064974D01*
X0021680Y0064945D01*
X0021735Y0064918D01*
X0021790Y0064895D01*
X0021847Y0064875D01*
X0021906Y0064859D01*
X0021965Y0064846D01*
X0022024Y0064837D01*
X0022085Y0064832D01*
X0022145Y0064830D01*
X0028145Y0064830D01*
X0028205Y0064832D01*
X0028266Y0064837D01*
X0028325Y0064846D01*
X0028384Y0064859D01*
X0028443Y0064875D01*
X0028500Y0064895D01*
X0028555Y0064918D01*
X0028610Y0064945D01*
X0028662Y0064974D01*
X0028713Y0065007D01*
X0028762Y0065043D01*
X0028808Y0065081D01*
X0028852Y0065123D01*
X0028894Y0065167D01*
X0028932Y0065213D01*
X0028968Y0065262D01*
X0029001Y0065313D01*
X0029030Y0065365D01*
X0029057Y0065420D01*
X0029080Y0065475D01*
X0029100Y0065532D01*
X0029116Y0065591D01*
X0029129Y0065650D01*
X0029138Y0065709D01*
X0029143Y0065770D01*
X0029145Y0065830D01*
X0029145Y0076830D01*
X0029143Y0076890D01*
X0029138Y0076951D01*
X0029129Y0077010D01*
X0029116Y0077069D01*
X0029100Y0077128D01*
X0029080Y0077185D01*
X0029057Y0077240D01*
X0029030Y0077295D01*
X0029001Y0077347D01*
X0028968Y0077398D01*
X0028932Y0077447D01*
X0028894Y0077493D01*
X0028852Y0077537D01*
X0028808Y0077579D01*
X0028762Y0077617D01*
X0028713Y0077653D01*
X0028662Y0077686D01*
X0028610Y0077715D01*
X0028555Y0077742D01*
X0028500Y0077765D01*
X0028443Y0077785D01*
X0028384Y0077801D01*
X0028325Y0077814D01*
X0028266Y0077823D01*
X0028205Y0077828D01*
X0028145Y0077830D01*
X0022145Y0077830D01*
X0022085Y0077828D01*
X0022024Y0077823D01*
X0021965Y0077814D01*
X0021906Y0077801D01*
X0021847Y0077785D01*
X0021790Y0077765D01*
X0021735Y0077742D01*
X0021680Y0077715D01*
X0021628Y0077686D01*
X0021577Y0077653D01*
X0021528Y0077617D01*
X0021482Y0077579D01*
X0021438Y0077537D01*
X0021396Y0077493D01*
X0021358Y0077447D01*
X0021322Y0077398D01*
X0021289Y0077347D01*
X0021260Y0077295D01*
X0021233Y0077240D01*
X0021210Y0077185D01*
X0021190Y0077128D01*
X0021174Y0077069D01*
X0021161Y0077010D01*
X0021152Y0076951D01*
X0021147Y0076890D01*
X0021145Y0076830D01*
X0050642Y0051173D02*
X0050642Y0041488D01*
X0050642Y0041528D02*
X0050644Y0041466D01*
X0050650Y0041405D01*
X0050659Y0041344D01*
X0050673Y0041283D01*
X0050690Y0041224D01*
X0050711Y0041166D01*
X0050736Y0041109D01*
X0050764Y0041054D01*
X0050795Y0041001D01*
X0050830Y0040950D01*
X0050868Y0040901D01*
X0050909Y0040854D01*
X0050952Y0040811D01*
X0050999Y0040770D01*
X0051048Y0040732D01*
X0051099Y0040697D01*
X0051152Y0040666D01*
X0051207Y0040638D01*
X0051264Y0040613D01*
X0051322Y0040592D01*
X0051381Y0040575D01*
X0051442Y0040561D01*
X0051503Y0040552D01*
X0051564Y0040546D01*
X0051626Y0040544D01*
X0051626Y0040543D02*
X0061350Y0040543D01*
X0061350Y0040544D02*
X0061412Y0040546D01*
X0061473Y0040552D01*
X0061534Y0040561D01*
X0061595Y0040575D01*
X0061654Y0040592D01*
X0061712Y0040613D01*
X0061769Y0040638D01*
X0061824Y0040666D01*
X0061877Y0040697D01*
X0061928Y0040732D01*
X0061977Y0040770D01*
X0062024Y0040811D01*
X0062067Y0040854D01*
X0062108Y0040901D01*
X0062146Y0040950D01*
X0062181Y0041001D01*
X0062212Y0041054D01*
X0062240Y0041109D01*
X0062265Y0041166D01*
X0062286Y0041224D01*
X0062303Y0041283D01*
X0062317Y0041344D01*
X0062326Y0041405D01*
X0062332Y0041466D01*
X0062334Y0041528D01*
X0062335Y0041488D02*
X0062335Y0051173D01*
X0061311Y0052197D02*
X0051626Y0052197D01*
D13*
X0085383Y0063995D02*
X0097194Y0063995D01*
X0097194Y0069901D01*
X0085383Y0069901D01*
X0085383Y0063995D01*
X0090538Y0065198D02*
X0090538Y0068698D01*
X0092038Y0068698D02*
X0090538Y0066948D01*
X0092038Y0065198D01*
X0092038Y0068698D01*
X0094544Y0079263D02*
X0106355Y0079263D01*
X0106355Y0085169D01*
X0094544Y0085169D01*
X0094544Y0079263D01*
X0099700Y0080466D02*
X0099700Y0083966D01*
X0101200Y0082216D01*
X0099700Y0080466D01*
X0101200Y0080466D02*
X0101200Y0083966D01*
X0106641Y0099283D02*
X0106641Y0111487D01*
X0120617Y0111487D01*
X0120617Y0099283D01*
X0106641Y0099283D01*
X0109397Y0105385D02*
X0118058Y0105385D01*
X0109379Y0105385D02*
X0109381Y0105516D01*
X0109387Y0105648D01*
X0109397Y0105779D01*
X0109411Y0105909D01*
X0109429Y0106039D01*
X0109450Y0106169D01*
X0109476Y0106298D01*
X0109505Y0106426D01*
X0109539Y0106553D01*
X0109576Y0106679D01*
X0109617Y0106804D01*
X0109662Y0106927D01*
X0109710Y0107049D01*
X0109762Y0107170D01*
X0109818Y0107289D01*
X0109877Y0107406D01*
X0109940Y0107521D01*
X0110006Y0107635D01*
X0110076Y0107746D01*
X0110149Y0107856D01*
X0110225Y0107962D01*
X0110305Y0108067D01*
X0110387Y0108169D01*
X0110473Y0108269D01*
X0110561Y0108366D01*
X0110653Y0108460D01*
X0110747Y0108552D01*
X0110844Y0108640D01*
X0110944Y0108726D01*
X0111046Y0108808D01*
X0111151Y0108888D01*
X0111257Y0108964D01*
X0111367Y0109037D01*
X0111478Y0109107D01*
X0111592Y0109173D01*
X0111707Y0109236D01*
X0111824Y0109295D01*
X0111943Y0109351D01*
X0112064Y0109403D01*
X0112186Y0109451D01*
X0112309Y0109496D01*
X0112434Y0109537D01*
X0112560Y0109574D01*
X0112687Y0109608D01*
X0112815Y0109637D01*
X0112944Y0109663D01*
X0113074Y0109684D01*
X0113204Y0109702D01*
X0113334Y0109716D01*
X0113465Y0109726D01*
X0113597Y0109732D01*
X0113728Y0109734D01*
X0113859Y0109732D01*
X0113991Y0109726D01*
X0114122Y0109716D01*
X0114252Y0109702D01*
X0114382Y0109684D01*
X0114512Y0109663D01*
X0114641Y0109637D01*
X0114769Y0109608D01*
X0114896Y0109574D01*
X0115022Y0109537D01*
X0115147Y0109496D01*
X0115270Y0109451D01*
X0115392Y0109403D01*
X0115513Y0109351D01*
X0115632Y0109295D01*
X0115749Y0109236D01*
X0115864Y0109173D01*
X0115978Y0109107D01*
X0116089Y0109037D01*
X0116199Y0108964D01*
X0116305Y0108888D01*
X0116410Y0108808D01*
X0116512Y0108726D01*
X0116612Y0108640D01*
X0116709Y0108552D01*
X0116803Y0108460D01*
X0116895Y0108366D01*
X0116983Y0108269D01*
X0117069Y0108169D01*
X0117151Y0108067D01*
X0117231Y0107962D01*
X0117307Y0107856D01*
X0117380Y0107746D01*
X0117450Y0107635D01*
X0117516Y0107521D01*
X0117579Y0107406D01*
X0117638Y0107289D01*
X0117694Y0107170D01*
X0117746Y0107049D01*
X0117794Y0106927D01*
X0117839Y0106804D01*
X0117880Y0106679D01*
X0117917Y0106553D01*
X0117951Y0106426D01*
X0117980Y0106298D01*
X0118006Y0106169D01*
X0118027Y0106039D01*
X0118045Y0105909D01*
X0118059Y0105779D01*
X0118069Y0105648D01*
X0118075Y0105516D01*
X0118077Y0105385D01*
X0118075Y0105254D01*
X0118069Y0105122D01*
X0118059Y0104991D01*
X0118045Y0104861D01*
X0118027Y0104731D01*
X0118006Y0104601D01*
X0117980Y0104472D01*
X0117951Y0104344D01*
X0117917Y0104217D01*
X0117880Y0104091D01*
X0117839Y0103966D01*
X0117794Y0103843D01*
X0117746Y0103721D01*
X0117694Y0103600D01*
X0117638Y0103481D01*
X0117579Y0103364D01*
X0117516Y0103249D01*
X0117450Y0103135D01*
X0117380Y0103024D01*
X0117307Y0102914D01*
X0117231Y0102808D01*
X0117151Y0102703D01*
X0117069Y0102601D01*
X0116983Y0102501D01*
X0116895Y0102404D01*
X0116803Y0102310D01*
X0116709Y0102218D01*
X0116612Y0102130D01*
X0116512Y0102044D01*
X0116410Y0101962D01*
X0116305Y0101882D01*
X0116199Y0101806D01*
X0116089Y0101733D01*
X0115978Y0101663D01*
X0115864Y0101597D01*
X0115749Y0101534D01*
X0115632Y0101475D01*
X0115513Y0101419D01*
X0115392Y0101367D01*
X0115270Y0101319D01*
X0115147Y0101274D01*
X0115022Y0101233D01*
X0114896Y0101196D01*
X0114769Y0101162D01*
X0114641Y0101133D01*
X0114512Y0101107D01*
X0114382Y0101086D01*
X0114252Y0101068D01*
X0114122Y0101054D01*
X0113991Y0101044D01*
X0113859Y0101038D01*
X0113728Y0101036D01*
X0113597Y0101038D01*
X0113465Y0101044D01*
X0113334Y0101054D01*
X0113204Y0101068D01*
X0113074Y0101086D01*
X0112944Y0101107D01*
X0112815Y0101133D01*
X0112687Y0101162D01*
X0112560Y0101196D01*
X0112434Y0101233D01*
X0112309Y0101274D01*
X0112186Y0101319D01*
X0112064Y0101367D01*
X0111943Y0101419D01*
X0111824Y0101475D01*
X0111707Y0101534D01*
X0111592Y0101597D01*
X0111478Y0101663D01*
X0111367Y0101733D01*
X0111257Y0101806D01*
X0111151Y0101882D01*
X0111046Y0101962D01*
X0110944Y0102044D01*
X0110844Y0102130D01*
X0110747Y0102218D01*
X0110653Y0102310D01*
X0110561Y0102404D01*
X0110473Y0102501D01*
X0110387Y0102601D01*
X0110305Y0102703D01*
X0110225Y0102808D01*
X0110149Y0102914D01*
X0110076Y0103024D01*
X0110006Y0103135D01*
X0109940Y0103249D01*
X0109877Y0103364D01*
X0109818Y0103481D01*
X0109762Y0103600D01*
X0109710Y0103721D01*
X0109662Y0103843D01*
X0109617Y0103966D01*
X0109576Y0104091D01*
X0109539Y0104217D01*
X0109505Y0104344D01*
X0109476Y0104472D01*
X0109450Y0104601D01*
X0109429Y0104731D01*
X0109411Y0104861D01*
X0109397Y0104991D01*
X0109387Y0105122D01*
X0109381Y0105254D01*
X0109379Y0105385D01*
X0113728Y0101054D02*
X0113728Y0109716D01*
X0121788Y0028607D02*
X0121788Y0016796D01*
X0127694Y0016796D01*
X0127694Y0028607D01*
X0121788Y0028607D01*
X0122991Y0023452D02*
X0124741Y0021952D01*
X0126491Y0023452D01*
X0122991Y0023452D01*
X0122991Y0021952D02*
X0126491Y0021952D01*
X0101291Y0018190D02*
X0101291Y0012284D01*
X0089480Y0012284D01*
X0089480Y0018190D01*
X0101291Y0018190D01*
X0096135Y0016987D02*
X0096135Y0013487D01*
X0094635Y0015237D01*
X0096135Y0016987D01*
X0094635Y0016987D02*
X0094635Y0013487D01*
D14*
X0066483Y0062669D02*
X0056641Y0062669D01*
X0056641Y0080779D02*
X0066483Y0080779D01*
X0052523Y0112039D02*
X0034806Y0112039D01*
X0034806Y0138023D01*
X0052523Y0138023D01*
X0052523Y0112039D01*
X0066090Y0153220D02*
X0075932Y0153220D01*
X0075932Y0171330D02*
X0066090Y0171330D01*
X0029943Y0164602D02*
X0029943Y0160665D01*
X0009865Y0160665D02*
X0009865Y0164602D01*
D15*
X0037365Y0114794D03*
D16*
X0023193Y0161215D02*
X0020992Y0161215D01*
X0019510Y0161215D02*
X0017308Y0161215D01*
X0018409Y0161215D02*
X0018409Y0164517D01*
X0019510Y0163416D01*
X0023193Y0164517D02*
X0023193Y0161215D01*
D17*
X0155468Y0058913D02*
X0170068Y0058913D01*
X0170068Y0040913D01*
X0155468Y0040913D01*
X0155468Y0058913D01*
D18*
X0062603Y0051242D02*
X0062063Y0051242D01*
X0062063Y0051243D02*
X0062059Y0051296D01*
X0062051Y0051348D01*
X0062039Y0051400D01*
X0062023Y0051451D01*
X0062004Y0051500D01*
X0061981Y0051548D01*
X0061954Y0051594D01*
X0061924Y0051638D01*
X0061891Y0051679D01*
X0061855Y0051718D01*
X0061816Y0051754D01*
X0061775Y0051787D01*
X0061731Y0051817D01*
X0061685Y0051844D01*
X0061637Y0051867D01*
X0061588Y0051886D01*
X0061537Y0051902D01*
X0061485Y0051914D01*
X0061433Y0051922D01*
X0061380Y0051926D01*
X0061379Y0052466D01*
X0061380Y0052467D01*
X0061448Y0052463D01*
X0061516Y0052456D01*
X0061583Y0052445D01*
X0061650Y0052431D01*
X0061716Y0052413D01*
X0061780Y0052391D01*
X0061844Y0052366D01*
X0061906Y0052337D01*
X0061966Y0052305D01*
X0062024Y0052270D01*
X0062081Y0052232D01*
X0062135Y0052191D01*
X0062187Y0052147D01*
X0062237Y0052100D01*
X0062284Y0052050D01*
X0062328Y0051998D01*
X0062369Y0051944D01*
X0062407Y0051887D01*
X0062442Y0051829D01*
X0062474Y0051769D01*
X0062503Y0051707D01*
X0062528Y0051643D01*
X0062550Y0051579D01*
X0062568Y0051513D01*
X0062582Y0051446D01*
X0062593Y0051379D01*
X0062600Y0051311D01*
X0062604Y0051243D01*
X0062548Y0051243D01*
X0062544Y0051310D01*
X0062537Y0051377D01*
X0062526Y0051444D01*
X0062511Y0051510D01*
X0062492Y0051575D01*
X0062470Y0051638D01*
X0062444Y0051701D01*
X0062415Y0051762D01*
X0062382Y0051821D01*
X0062347Y0051878D01*
X0062308Y0051933D01*
X0062266Y0051986D01*
X0062221Y0052036D01*
X0062173Y0052084D01*
X0062123Y0052129D01*
X0062070Y0052171D01*
X0062015Y0052210D01*
X0061958Y0052245D01*
X0061899Y0052278D01*
X0061838Y0052307D01*
X0061775Y0052333D01*
X0061712Y0052355D01*
X0061647Y0052374D01*
X0061581Y0052389D01*
X0061514Y0052400D01*
X0061447Y0052407D01*
X0061380Y0052411D01*
X0061380Y0052355D01*
X0061447Y0052351D01*
X0061513Y0052343D01*
X0061579Y0052332D01*
X0061643Y0052317D01*
X0061707Y0052298D01*
X0061770Y0052275D01*
X0061831Y0052249D01*
X0061891Y0052219D01*
X0061949Y0052185D01*
X0062004Y0052149D01*
X0062058Y0052109D01*
X0062109Y0052066D01*
X0062158Y0052021D01*
X0062203Y0051972D01*
X0062246Y0051921D01*
X0062286Y0051867D01*
X0062322Y0051812D01*
X0062356Y0051754D01*
X0062386Y0051694D01*
X0062412Y0051633D01*
X0062435Y0051570D01*
X0062454Y0051506D01*
X0062469Y0051442D01*
X0062480Y0051376D01*
X0062488Y0051310D01*
X0062492Y0051243D01*
X0062436Y0051243D01*
X0062432Y0051306D01*
X0062425Y0051369D01*
X0062414Y0051431D01*
X0062399Y0051493D01*
X0062381Y0051554D01*
X0062360Y0051613D01*
X0062335Y0051671D01*
X0062306Y0051728D01*
X0062275Y0051783D01*
X0062240Y0051836D01*
X0062202Y0051886D01*
X0062161Y0051935D01*
X0062118Y0051981D01*
X0062072Y0052024D01*
X0062023Y0052065D01*
X0061973Y0052103D01*
X0061920Y0052138D01*
X0061865Y0052169D01*
X0061808Y0052198D01*
X0061750Y0052223D01*
X0061691Y0052244D01*
X0061630Y0052262D01*
X0061568Y0052277D01*
X0061506Y0052288D01*
X0061443Y0052295D01*
X0061380Y0052299D01*
X0061380Y0052243D01*
X0061442Y0052239D01*
X0061504Y0052231D01*
X0061565Y0052220D01*
X0061626Y0052205D01*
X0061685Y0052187D01*
X0061744Y0052165D01*
X0061800Y0052139D01*
X0061856Y0052110D01*
X0061909Y0052078D01*
X0061960Y0052043D01*
X0062009Y0052004D01*
X0062056Y0051963D01*
X0062100Y0051919D01*
X0062141Y0051872D01*
X0062180Y0051823D01*
X0062215Y0051772D01*
X0062247Y0051719D01*
X0062276Y0051663D01*
X0062302Y0051607D01*
X0062324Y0051548D01*
X0062342Y0051489D01*
X0062357Y0051428D01*
X0062368Y0051367D01*
X0062376Y0051305D01*
X0062380Y0051243D01*
X0062324Y0051243D01*
X0062320Y0051304D01*
X0062312Y0051365D01*
X0062301Y0051425D01*
X0062285Y0051484D01*
X0062267Y0051543D01*
X0062244Y0051600D01*
X0062218Y0051655D01*
X0062188Y0051709D01*
X0062156Y0051760D01*
X0062120Y0051810D01*
X0062081Y0051857D01*
X0062039Y0051902D01*
X0061994Y0051944D01*
X0061947Y0051983D01*
X0061897Y0052019D01*
X0061846Y0052051D01*
X0061792Y0052081D01*
X0061737Y0052107D01*
X0061680Y0052130D01*
X0061621Y0052148D01*
X0061562Y0052164D01*
X0061502Y0052175D01*
X0061441Y0052183D01*
X0061380Y0052187D01*
X0061380Y0052131D01*
X0061437Y0052127D01*
X0061495Y0052120D01*
X0061551Y0052109D01*
X0061607Y0052094D01*
X0061662Y0052076D01*
X0061715Y0052055D01*
X0061767Y0052031D01*
X0061818Y0052003D01*
X0061866Y0051972D01*
X0061913Y0051938D01*
X0061957Y0051902D01*
X0061999Y0051862D01*
X0062039Y0051820D01*
X0062075Y0051776D01*
X0062109Y0051729D01*
X0062140Y0051681D01*
X0062168Y0051630D01*
X0062192Y0051578D01*
X0062213Y0051525D01*
X0062231Y0051470D01*
X0062246Y0051414D01*
X0062257Y0051358D01*
X0062264Y0051300D01*
X0062268Y0051243D01*
X0062211Y0051243D01*
X0062208Y0051299D01*
X0062200Y0051355D01*
X0062189Y0051410D01*
X0062175Y0051464D01*
X0062156Y0051518D01*
X0062135Y0051570D01*
X0062110Y0051620D01*
X0062082Y0051669D01*
X0062050Y0051715D01*
X0062016Y0051760D01*
X0061979Y0051802D01*
X0061939Y0051842D01*
X0061897Y0051879D01*
X0061852Y0051913D01*
X0061806Y0051945D01*
X0061757Y0051973D01*
X0061707Y0051998D01*
X0061655Y0052019D01*
X0061601Y0052038D01*
X0061547Y0052052D01*
X0061492Y0052063D01*
X0061436Y0052071D01*
X0061380Y0052074D01*
X0061380Y0052018D01*
X0061435Y0052015D01*
X0061489Y0052007D01*
X0061543Y0051996D01*
X0061595Y0051981D01*
X0061647Y0051962D01*
X0061697Y0051940D01*
X0061746Y0051915D01*
X0061793Y0051887D01*
X0061837Y0051855D01*
X0061880Y0051820D01*
X0061920Y0051783D01*
X0061957Y0051743D01*
X0061992Y0051700D01*
X0062024Y0051656D01*
X0062052Y0051609D01*
X0062077Y0051560D01*
X0062099Y0051510D01*
X0062118Y0051458D01*
X0062133Y0051406D01*
X0062144Y0051352D01*
X0062152Y0051298D01*
X0062155Y0051243D01*
X0062099Y0051243D01*
X0062095Y0051296D01*
X0062088Y0051349D01*
X0062076Y0051401D01*
X0062061Y0051452D01*
X0062042Y0051502D01*
X0062020Y0051550D01*
X0061994Y0051597D01*
X0061966Y0051641D01*
X0061934Y0051684D01*
X0061899Y0051724D01*
X0061861Y0051762D01*
X0061821Y0051797D01*
X0061778Y0051829D01*
X0061734Y0051857D01*
X0061687Y0051883D01*
X0061639Y0051905D01*
X0061589Y0051924D01*
X0061538Y0051939D01*
X0061486Y0051951D01*
X0061433Y0051958D01*
X0061380Y0051962D01*
X0051597Y0052466D02*
X0051597Y0051926D01*
X0051596Y0051926D02*
X0051543Y0051922D01*
X0051491Y0051914D01*
X0051439Y0051902D01*
X0051388Y0051886D01*
X0051339Y0051867D01*
X0051291Y0051844D01*
X0051245Y0051817D01*
X0051201Y0051787D01*
X0051160Y0051754D01*
X0051121Y0051718D01*
X0051085Y0051679D01*
X0051052Y0051638D01*
X0051022Y0051594D01*
X0050995Y0051548D01*
X0050972Y0051500D01*
X0050953Y0051451D01*
X0050937Y0051400D01*
X0050925Y0051348D01*
X0050917Y0051296D01*
X0050913Y0051243D01*
X0050373Y0051242D01*
X0050372Y0051243D01*
X0050376Y0051311D01*
X0050383Y0051379D01*
X0050394Y0051446D01*
X0050408Y0051513D01*
X0050426Y0051579D01*
X0050448Y0051643D01*
X0050473Y0051707D01*
X0050502Y0051769D01*
X0050534Y0051829D01*
X0050569Y0051887D01*
X0050607Y0051944D01*
X0050648Y0051998D01*
X0050692Y0052050D01*
X0050739Y0052100D01*
X0050789Y0052147D01*
X0050841Y0052191D01*
X0050895Y0052232D01*
X0050952Y0052270D01*
X0051010Y0052305D01*
X0051070Y0052337D01*
X0051132Y0052366D01*
X0051196Y0052391D01*
X0051260Y0052413D01*
X0051326Y0052431D01*
X0051393Y0052445D01*
X0051460Y0052456D01*
X0051528Y0052463D01*
X0051596Y0052467D01*
X0051596Y0052411D01*
X0051529Y0052407D01*
X0051462Y0052400D01*
X0051395Y0052389D01*
X0051329Y0052374D01*
X0051264Y0052355D01*
X0051201Y0052333D01*
X0051138Y0052307D01*
X0051077Y0052278D01*
X0051018Y0052245D01*
X0050961Y0052210D01*
X0050906Y0052171D01*
X0050853Y0052129D01*
X0050803Y0052084D01*
X0050755Y0052036D01*
X0050710Y0051986D01*
X0050668Y0051933D01*
X0050629Y0051878D01*
X0050594Y0051821D01*
X0050561Y0051762D01*
X0050532Y0051701D01*
X0050506Y0051638D01*
X0050484Y0051575D01*
X0050465Y0051510D01*
X0050450Y0051444D01*
X0050439Y0051377D01*
X0050432Y0051310D01*
X0050428Y0051243D01*
X0050484Y0051243D01*
X0050488Y0051310D01*
X0050496Y0051376D01*
X0050507Y0051442D01*
X0050522Y0051506D01*
X0050541Y0051570D01*
X0050564Y0051633D01*
X0050590Y0051694D01*
X0050620Y0051754D01*
X0050654Y0051812D01*
X0050690Y0051867D01*
X0050730Y0051921D01*
X0050773Y0051972D01*
X0050818Y0052021D01*
X0050867Y0052066D01*
X0050918Y0052109D01*
X0050972Y0052149D01*
X0051027Y0052185D01*
X0051085Y0052219D01*
X0051145Y0052249D01*
X0051206Y0052275D01*
X0051269Y0052298D01*
X0051333Y0052317D01*
X0051397Y0052332D01*
X0051463Y0052343D01*
X0051529Y0052351D01*
X0051596Y0052355D01*
X0051596Y0052299D01*
X0051533Y0052295D01*
X0051470Y0052288D01*
X0051408Y0052277D01*
X0051346Y0052262D01*
X0051285Y0052244D01*
X0051226Y0052223D01*
X0051168Y0052198D01*
X0051111Y0052169D01*
X0051056Y0052138D01*
X0051003Y0052103D01*
X0050953Y0052065D01*
X0050904Y0052024D01*
X0050858Y0051981D01*
X0050815Y0051935D01*
X0050774Y0051886D01*
X0050736Y0051836D01*
X0050701Y0051783D01*
X0050670Y0051728D01*
X0050641Y0051671D01*
X0050616Y0051613D01*
X0050595Y0051554D01*
X0050577Y0051493D01*
X0050562Y0051431D01*
X0050551Y0051369D01*
X0050544Y0051306D01*
X0050540Y0051243D01*
X0050596Y0051243D01*
X0050600Y0051305D01*
X0050608Y0051367D01*
X0050619Y0051428D01*
X0050634Y0051489D01*
X0050652Y0051548D01*
X0050674Y0051607D01*
X0050700Y0051663D01*
X0050729Y0051719D01*
X0050761Y0051772D01*
X0050796Y0051823D01*
X0050835Y0051872D01*
X0050876Y0051919D01*
X0050920Y0051963D01*
X0050967Y0052004D01*
X0051016Y0052043D01*
X0051067Y0052078D01*
X0051120Y0052110D01*
X0051176Y0052139D01*
X0051232Y0052165D01*
X0051291Y0052187D01*
X0051350Y0052205D01*
X0051411Y0052220D01*
X0051472Y0052231D01*
X0051534Y0052239D01*
X0051596Y0052243D01*
X0051596Y0052187D01*
X0051535Y0052183D01*
X0051474Y0052175D01*
X0051414Y0052164D01*
X0051355Y0052148D01*
X0051296Y0052130D01*
X0051239Y0052107D01*
X0051184Y0052081D01*
X0051130Y0052051D01*
X0051079Y0052019D01*
X0051029Y0051983D01*
X0050982Y0051944D01*
X0050937Y0051902D01*
X0050895Y0051857D01*
X0050856Y0051810D01*
X0050820Y0051760D01*
X0050788Y0051709D01*
X0050758Y0051655D01*
X0050732Y0051600D01*
X0050709Y0051543D01*
X0050691Y0051484D01*
X0050675Y0051425D01*
X0050664Y0051365D01*
X0050656Y0051304D01*
X0050652Y0051243D01*
X0050708Y0051243D01*
X0050712Y0051300D01*
X0050719Y0051358D01*
X0050730Y0051414D01*
X0050745Y0051470D01*
X0050763Y0051525D01*
X0050784Y0051578D01*
X0050808Y0051630D01*
X0050836Y0051681D01*
X0050867Y0051729D01*
X0050901Y0051776D01*
X0050937Y0051820D01*
X0050977Y0051862D01*
X0051019Y0051902D01*
X0051063Y0051938D01*
X0051110Y0051972D01*
X0051158Y0052003D01*
X0051209Y0052031D01*
X0051261Y0052055D01*
X0051314Y0052076D01*
X0051369Y0052094D01*
X0051425Y0052109D01*
X0051481Y0052120D01*
X0051539Y0052127D01*
X0051596Y0052131D01*
X0051596Y0052074D01*
X0051540Y0052071D01*
X0051484Y0052063D01*
X0051429Y0052052D01*
X0051375Y0052038D01*
X0051321Y0052019D01*
X0051269Y0051998D01*
X0051219Y0051973D01*
X0051170Y0051945D01*
X0051124Y0051913D01*
X0051079Y0051879D01*
X0051037Y0051842D01*
X0050997Y0051802D01*
X0050960Y0051760D01*
X0050926Y0051715D01*
X0050894Y0051669D01*
X0050866Y0051620D01*
X0050841Y0051570D01*
X0050820Y0051518D01*
X0050801Y0051464D01*
X0050787Y0051410D01*
X0050776Y0051355D01*
X0050768Y0051299D01*
X0050765Y0051243D01*
X0050821Y0051243D01*
X0050824Y0051298D01*
X0050832Y0051352D01*
X0050843Y0051406D01*
X0050858Y0051458D01*
X0050877Y0051510D01*
X0050899Y0051560D01*
X0050924Y0051609D01*
X0050952Y0051656D01*
X0050984Y0051700D01*
X0051019Y0051743D01*
X0051056Y0051783D01*
X0051096Y0051820D01*
X0051139Y0051855D01*
X0051183Y0051887D01*
X0051230Y0051915D01*
X0051279Y0051940D01*
X0051329Y0051962D01*
X0051381Y0051981D01*
X0051433Y0051996D01*
X0051487Y0052007D01*
X0051541Y0052015D01*
X0051596Y0052018D01*
X0051596Y0051962D01*
X0051543Y0051958D01*
X0051490Y0051951D01*
X0051438Y0051939D01*
X0051387Y0051924D01*
X0051337Y0051905D01*
X0051289Y0051883D01*
X0051242Y0051857D01*
X0051198Y0051829D01*
X0051155Y0051797D01*
X0051115Y0051762D01*
X0051077Y0051724D01*
X0051042Y0051684D01*
X0051010Y0051641D01*
X0050982Y0051597D01*
X0050956Y0051550D01*
X0050934Y0051502D01*
X0050915Y0051452D01*
X0050900Y0051401D01*
X0050888Y0051349D01*
X0050881Y0051296D01*
X0050877Y0051243D01*
D19*
X0057748Y0048929D02*
X0057750Y0049000D01*
X0057756Y0049071D01*
X0057766Y0049142D01*
X0057780Y0049211D01*
X0057797Y0049280D01*
X0057819Y0049348D01*
X0057844Y0049415D01*
X0057873Y0049480D01*
X0057905Y0049543D01*
X0057941Y0049605D01*
X0057980Y0049664D01*
X0058023Y0049721D01*
X0058068Y0049776D01*
X0058117Y0049828D01*
X0058168Y0049877D01*
X0058222Y0049923D01*
X0058279Y0049967D01*
X0058337Y0050007D01*
X0058398Y0050043D01*
X0058461Y0050077D01*
X0058526Y0050106D01*
X0058592Y0050132D01*
X0058660Y0050155D01*
X0058728Y0050173D01*
X0058798Y0050188D01*
X0058868Y0050199D01*
X0058939Y0050206D01*
X0059010Y0050209D01*
X0059081Y0050208D01*
X0059152Y0050203D01*
X0059223Y0050194D01*
X0059293Y0050181D01*
X0059362Y0050165D01*
X0059430Y0050144D01*
X0059497Y0050120D01*
X0059563Y0050092D01*
X0059626Y0050060D01*
X0059688Y0050025D01*
X0059748Y0049987D01*
X0059806Y0049945D01*
X0059861Y0049901D01*
X0059914Y0049853D01*
X0059964Y0049802D01*
X0060011Y0049749D01*
X0060055Y0049693D01*
X0060096Y0049635D01*
X0060134Y0049574D01*
X0060168Y0049512D01*
X0060198Y0049447D01*
X0060225Y0049382D01*
X0060249Y0049314D01*
X0060268Y0049246D01*
X0060284Y0049177D01*
X0060296Y0049106D01*
X0060304Y0049036D01*
X0060308Y0048965D01*
X0060308Y0048893D01*
X0060304Y0048822D01*
X0060296Y0048752D01*
X0060284Y0048681D01*
X0060268Y0048612D01*
X0060249Y0048544D01*
X0060225Y0048476D01*
X0060198Y0048411D01*
X0060168Y0048346D01*
X0060134Y0048284D01*
X0060096Y0048223D01*
X0060055Y0048165D01*
X0060011Y0048109D01*
X0059964Y0048056D01*
X0059914Y0048005D01*
X0059861Y0047957D01*
X0059806Y0047913D01*
X0059748Y0047871D01*
X0059688Y0047833D01*
X0059626Y0047798D01*
X0059563Y0047766D01*
X0059497Y0047738D01*
X0059430Y0047714D01*
X0059362Y0047693D01*
X0059293Y0047677D01*
X0059223Y0047664D01*
X0059152Y0047655D01*
X0059081Y0047650D01*
X0059010Y0047649D01*
X0058939Y0047652D01*
X0058868Y0047659D01*
X0058798Y0047670D01*
X0058728Y0047685D01*
X0058660Y0047703D01*
X0058592Y0047726D01*
X0058526Y0047752D01*
X0058461Y0047781D01*
X0058398Y0047815D01*
X0058337Y0047851D01*
X0058279Y0047891D01*
X0058222Y0047935D01*
X0058168Y0047981D01*
X0058117Y0048030D01*
X0058068Y0048082D01*
X0058023Y0048137D01*
X0057980Y0048194D01*
X0057941Y0048253D01*
X0057905Y0048315D01*
X0057873Y0048378D01*
X0057844Y0048443D01*
X0057819Y0048510D01*
X0057797Y0048578D01*
X0057780Y0048647D01*
X0057766Y0048716D01*
X0057756Y0048787D01*
X0057750Y0048858D01*
X0057748Y0048929D01*
M02*
