G75*
%MOIN*%
%OFA0B0*%
%FSLAX25Y25*%
%IPPOS*%
%LPD*%
%AMOC8*
5,1,8,0,0,1.08239X$1,22.5*
%
%ADD10R,0.02756X0.03543*%
%ADD11R,0.03543X0.02756*%
%ADD12R,0.02362X0.08661*%
%ADD13C,0.06000*%
%ADD14R,0.01200X0.03900*%
%ADD15R,0.02000X0.05800*%
%ADD16R,0.05800X0.02000*%
%ADD17OC8,0.06000*%
%ADD18R,0.02953X0.01181*%
%ADD19R,0.04724X0.02165*%
%ADD20R,0.06300X0.04600*%
%ADD21R,0.04600X0.06300*%
%ADD22C,0.01000*%
%ADD23C,0.02756*%
%ADD24C,0.01600*%
%ADD25C,0.02559*%
%ADD26C,0.01200*%
%ADD27C,0.02000*%
%ADD28C,0.03543*%
%ADD29C,0.02400*%
%ADD30C,0.00800*%
%ADD31C,0.03150*%
%ADD32C,0.04724*%
D10*
X0020885Y0074794D03*
X0026003Y0074794D03*
X0027582Y0092102D03*
X0022464Y0092102D03*
X0035031Y0106857D03*
X0040149Y0106857D03*
X0052854Y0106999D03*
X0057972Y0106999D03*
X0085184Y0092983D03*
X0090302Y0092983D03*
X0090696Y0087865D03*
X0085578Y0087865D03*
X0107546Y0108023D03*
X0112665Y0108023D03*
X0112350Y0102747D03*
X0117468Y0102747D03*
X0106381Y0116889D03*
X0101263Y0116889D03*
X0074948Y0136291D03*
X0069830Y0136291D03*
X0067468Y0150070D03*
X0072586Y0150070D03*
X0055574Y0139377D03*
X0050456Y0139377D03*
X0043385Y0139456D03*
X0038267Y0139456D03*
X0038267Y0143948D03*
X0043385Y0143948D03*
X0028905Y0142259D03*
X0028346Y0138019D03*
X0023787Y0142259D03*
X0023228Y0138019D03*
X0021231Y0133794D03*
X0026350Y0133794D03*
X0024854Y0125228D03*
X0019735Y0125228D03*
X0019629Y0120657D03*
X0024747Y0120657D03*
X0110696Y0149086D03*
X0115814Y0149086D03*
X0145735Y0153180D03*
X0150854Y0153180D03*
X0152822Y0112550D03*
X0157940Y0112550D03*
X0131405Y0077275D03*
X0126287Y0077275D03*
X0124987Y0071684D03*
X0130106Y0071684D03*
X0148176Y0066606D03*
X0153294Y0066606D03*
X0172405Y0066787D03*
X0177523Y0066787D03*
X0177743Y0031448D03*
X0172625Y0031448D03*
X0163358Y0025110D03*
X0158240Y0025110D03*
X0133373Y0018810D03*
X0129279Y0023653D03*
X0128255Y0018810D03*
X0124161Y0023653D03*
D11*
X0118098Y0025661D03*
X0118098Y0020543D03*
X0134830Y0026606D03*
X0134830Y0031724D03*
X0138752Y0038693D03*
X0138752Y0043811D03*
X0142846Y0030646D03*
X0142846Y0025528D03*
X0135539Y0066015D03*
X0135539Y0071133D03*
X0119594Y0072432D03*
X0119594Y0077550D03*
X0092861Y0053023D03*
X0087743Y0053023D03*
X0087743Y0047905D03*
X0092861Y0047905D03*
X0070405Y0087733D03*
X0070405Y0092851D03*
X0085446Y0105794D03*
X0085446Y0110913D03*
X0099633Y0109165D03*
X0099633Y0104046D03*
X0101129Y0127629D03*
X0105681Y0127669D03*
X0105681Y0132787D03*
X0101129Y0132747D03*
X0084972Y0146788D03*
X0084972Y0151906D03*
X0071755Y0130476D03*
X0067609Y0130491D03*
X0067609Y0125373D03*
X0071755Y0125357D03*
X0061027Y0137838D03*
X0061027Y0142956D03*
X0028172Y0112125D03*
X0028172Y0107007D03*
X0126917Y0145857D03*
X0126917Y0150976D03*
X0134436Y0144165D03*
X0138924Y0148338D03*
X0138924Y0153456D03*
X0134436Y0139046D03*
X0149791Y0131133D03*
X0149791Y0126015D03*
X0166838Y0152590D03*
X0166838Y0157708D03*
X0181562Y0131724D03*
X0181562Y0126606D03*
X0187177Y0097354D03*
X0192295Y0097354D03*
X0192295Y0092236D03*
X0187177Y0092236D03*
X0180484Y0091843D03*
X0180484Y0096961D03*
X0163161Y0071764D03*
X0163161Y0066646D03*
X0190720Y0063102D03*
X0190720Y0057984D03*
D12*
X0182369Y0059125D03*
X0177369Y0059125D03*
X0172369Y0059125D03*
X0167369Y0059125D03*
X0158747Y0059165D03*
X0153747Y0059165D03*
X0148747Y0059165D03*
X0143747Y0059165D03*
X0143747Y0038692D03*
X0148747Y0038692D03*
X0153747Y0038692D03*
X0158747Y0038692D03*
X0167369Y0038653D03*
X0172369Y0038653D03*
X0177369Y0038653D03*
X0182369Y0038653D03*
D13*
X0088570Y0029487D02*
X0088570Y0023487D01*
X0078570Y0023487D02*
X0078570Y0029487D01*
X0068570Y0029487D02*
X0068570Y0023487D01*
X0058570Y0023487D02*
X0058570Y0029487D01*
X0048570Y0029487D02*
X0048570Y0023487D01*
X0038570Y0023487D02*
X0038570Y0029487D01*
X0098728Y0164393D02*
X0098728Y0170393D01*
X0108728Y0170393D02*
X0108728Y0164393D01*
X0118728Y0164393D02*
X0118728Y0170393D01*
X0128728Y0170393D02*
X0128728Y0164393D01*
X0146956Y0164235D02*
X0146956Y0170235D01*
X0156956Y0170235D02*
X0156956Y0164235D01*
X0166956Y0164235D02*
X0166956Y0170235D01*
X0176956Y0170235D02*
X0176956Y0164235D01*
X0186956Y0164235D02*
X0186956Y0170235D01*
D14*
X0173196Y0139617D03*
X0170696Y0139617D03*
X0168196Y0139617D03*
X0165696Y0139617D03*
X0163196Y0139617D03*
X0160696Y0139617D03*
X0158196Y0139617D03*
X0158196Y0117217D03*
X0160696Y0117217D03*
X0163196Y0117217D03*
X0165696Y0117217D03*
X0168196Y0117217D03*
X0170696Y0117217D03*
X0173196Y0117217D03*
X0127527Y0117217D03*
X0125027Y0117217D03*
X0122527Y0117217D03*
X0120027Y0117217D03*
X0117527Y0117217D03*
X0115027Y0117217D03*
X0112527Y0117217D03*
X0094952Y0117161D03*
X0092452Y0117161D03*
X0089952Y0117161D03*
X0087452Y0117161D03*
X0084952Y0117161D03*
X0082452Y0117161D03*
X0079952Y0117161D03*
X0079952Y0139561D03*
X0082452Y0139561D03*
X0084952Y0139561D03*
X0087452Y0139561D03*
X0089952Y0139561D03*
X0092452Y0139561D03*
X0094952Y0139561D03*
X0112527Y0139617D03*
X0115027Y0139617D03*
X0117527Y0139617D03*
X0120027Y0139617D03*
X0122527Y0139617D03*
X0125027Y0139617D03*
X0127527Y0139617D03*
X0128039Y0060089D03*
X0130539Y0060089D03*
X0133039Y0060089D03*
X0125539Y0060089D03*
X0123039Y0060089D03*
X0120539Y0060089D03*
X0118039Y0060089D03*
X0118039Y0037689D03*
X0120539Y0037689D03*
X0123039Y0037689D03*
X0125539Y0037689D03*
X0128039Y0037689D03*
X0130539Y0037689D03*
X0133039Y0037689D03*
D15*
X0074728Y0041244D03*
X0071628Y0041244D03*
X0068428Y0041244D03*
X0065328Y0041244D03*
X0062128Y0041244D03*
X0059028Y0041244D03*
X0055828Y0041244D03*
X0052728Y0041244D03*
X0052728Y0074644D03*
X0055828Y0074644D03*
X0059028Y0074644D03*
X0062128Y0074644D03*
X0065328Y0074644D03*
X0068428Y0074644D03*
X0071628Y0074644D03*
X0074728Y0074644D03*
D16*
X0080428Y0068944D03*
X0080428Y0065844D03*
X0080428Y0062644D03*
X0080428Y0059544D03*
X0080428Y0056344D03*
X0080428Y0053244D03*
X0080428Y0050044D03*
X0080428Y0046944D03*
X0047028Y0046944D03*
X0047028Y0050044D03*
X0047028Y0053244D03*
X0047028Y0056344D03*
X0047028Y0059544D03*
X0047028Y0062644D03*
X0047028Y0065844D03*
X0047028Y0068944D03*
D17*
X0025814Y0059283D03*
X0015814Y0059283D03*
X0015814Y0049283D03*
X0025814Y0049283D03*
X0025814Y0039283D03*
X0015814Y0039283D03*
X0015696Y0082747D03*
D18*
X0034617Y0111460D03*
X0034617Y0114019D03*
X0034617Y0116578D03*
X0034617Y0119137D03*
X0034617Y0121696D03*
X0034617Y0124255D03*
X0034617Y0126814D03*
X0034617Y0129373D03*
X0034617Y0131932D03*
X0034617Y0134491D03*
X0058239Y0134491D03*
X0058239Y0131932D03*
X0058239Y0129373D03*
X0058239Y0126814D03*
X0058239Y0124255D03*
X0058239Y0121696D03*
X0058239Y0119137D03*
X0058239Y0116578D03*
X0058239Y0114019D03*
X0058239Y0111460D03*
D19*
X0022783Y0112865D03*
X0022783Y0105385D03*
X0012546Y0105385D03*
X0012546Y0109125D03*
X0012546Y0112865D03*
D20*
X0189306Y0110049D03*
X0189306Y0104049D03*
D21*
X0150113Y0091280D03*
X0144113Y0091280D03*
D22*
X0132350Y0077275D02*
X0131405Y0077275D01*
X0130106Y0071684D02*
X0130263Y0071172D01*
X0125145Y0066212D02*
X0125145Y0065818D01*
X0120775Y0078023D02*
X0119594Y0077550D01*
X0118544Y0077157D01*
X0124528Y0096356D02*
X0124751Y0097314D01*
X0125027Y0114334D02*
X0125027Y0117217D01*
X0123767Y0127669D02*
X0125224Y0129125D01*
X0101169Y0127669D02*
X0101129Y0127629D01*
X0089952Y0137649D02*
X0089952Y0139561D01*
X0079672Y0151842D02*
X0079476Y0152039D01*
X0070420Y0136291D02*
X0070814Y0135897D01*
X0070420Y0136291D02*
X0069830Y0136291D01*
X0067952Y0130491D02*
X0067609Y0130491D01*
X0067952Y0130491D02*
X0068058Y0130385D01*
X0067609Y0125373D02*
X0067625Y0125357D01*
X0062153Y0126054D02*
X0061117Y0125413D01*
X0061117Y0120525D01*
X0061175Y0120468D01*
X0063657Y0120468D01*
X0065228Y0118897D01*
X0065228Y0116676D01*
X0063011Y0114066D01*
X0063011Y0089834D01*
X0064515Y0089834D01*
X0065302Y0090228D01*
X0061117Y0089980D02*
X0058464Y0089980D01*
X0057822Y0089834D01*
X0060972Y0090228D02*
X0061117Y0089980D01*
X0061117Y0115190D01*
X0061084Y0116405D01*
X0062072Y0117787D01*
X0062546Y0117787D01*
X0061084Y0116405D02*
X0059594Y0116405D01*
X0058239Y0116578D01*
X0058239Y0119137D02*
X0059729Y0119137D01*
X0061117Y0120525D01*
X0058239Y0111460D02*
X0057972Y0111192D01*
X0052861Y0106999D02*
X0052854Y0106999D01*
X0049161Y0112275D02*
X0049554Y0112669D01*
X0035031Y0111046D02*
X0034617Y0111460D01*
X0027582Y0106417D02*
X0023917Y0110081D01*
X0022783Y0112865D02*
X0023436Y0113519D01*
X0022789Y0117483D02*
X0021968Y0118304D01*
X0021968Y0118318D01*
X0019629Y0120657D01*
X0019629Y0125121D01*
X0019735Y0125228D01*
X0016956Y0126920D02*
X0016956Y0127580D01*
X0017777Y0128401D01*
X0021694Y0128401D01*
X0022515Y0127580D01*
X0022515Y0127566D01*
X0024854Y0125228D01*
X0025826Y0124255D01*
X0025787Y0121696D02*
X0024747Y0120657D01*
X0026706Y0117483D02*
X0022789Y0117483D01*
X0026706Y0117483D02*
X0028359Y0119137D01*
X0034617Y0119137D01*
X0022783Y0105385D02*
X0022464Y0105066D01*
X0027582Y0100932D02*
X0027901Y0101251D01*
X0027582Y0100932D02*
X0027582Y0092102D01*
X0016578Y0092102D02*
X0016483Y0092196D01*
X0013334Y0124873D02*
X0016956Y0126920D01*
X0021231Y0133794D02*
X0021231Y0133905D01*
X0021208Y0133928D01*
X0022783Y0137865D02*
X0022834Y0137917D01*
X0023228Y0138019D01*
X0025960Y0134893D01*
X0025960Y0134879D01*
X0027045Y0133794D01*
X0027137Y0133702D01*
X0027045Y0133794D02*
X0026350Y0133794D01*
X0023964Y0142196D02*
X0023850Y0142196D01*
X0023787Y0142259D01*
X0023901Y0142259D01*
X0023964Y0142196D01*
X0037383Y0138572D02*
X0038267Y0139456D01*
X0043385Y0143377D02*
X0043806Y0142956D01*
X0043385Y0143377D02*
X0043385Y0143948D01*
X0050377Y0139456D02*
X0050456Y0139377D01*
X0058239Y0131932D02*
X0058267Y0131960D01*
X0092204Y0111357D02*
X0092468Y0111487D01*
X0098806Y0104046D02*
X0099633Y0104046D01*
X0148373Y0076054D02*
X0148767Y0076448D01*
X0172389Y0072905D02*
X0172405Y0072889D01*
X0177507Y0072905D02*
X0177507Y0073298D01*
X0177369Y0060381D02*
X0177369Y0059125D01*
X0172369Y0031704D02*
X0172828Y0026838D01*
X0172783Y0027235D01*
X0125539Y0037689D02*
X0125539Y0040621D01*
X0123176Y0042590D01*
X0123176Y0031172D02*
X0123570Y0031172D01*
X0124161Y0030976D01*
X0118098Y0020543D02*
X0118124Y0020122D01*
X0119436Y0018810D01*
X0118124Y0020122D02*
X0118151Y0020149D01*
X0118098Y0020543D01*
X0052728Y0041244D02*
X0052498Y0041015D01*
X0049345Y0026487D02*
X0048570Y0026487D01*
X0152231Y0112550D02*
X0152822Y0112550D01*
D23*
X0042649Y0123480D03*
D24*
X0027762Y0034581D02*
X0023867Y0034581D01*
X0021113Y0037335D01*
X0021113Y0041230D01*
X0025814Y0045932D01*
X0025814Y0049283D01*
X0020027Y0054007D02*
X0033306Y0054007D01*
X0037269Y0050044D01*
X0047028Y0050044D01*
X0047028Y0046944D02*
X0033476Y0046944D01*
X0025814Y0039283D01*
X0027762Y0034581D02*
X0034195Y0041015D01*
X0052498Y0041015D01*
X0048921Y0026487D02*
X0048570Y0026487D01*
X0048921Y0026487D02*
X0058723Y0015898D01*
X0091387Y0015898D01*
X0098435Y0022946D01*
X0098435Y0042039D01*
X0100563Y0044168D01*
X0100563Y0055819D01*
X0098435Y0057947D01*
X0098435Y0057982D01*
X0090572Y0065844D01*
X0080428Y0065844D01*
X0080428Y0062644D02*
X0090015Y0062644D01*
X0096335Y0056325D01*
X0096335Y0045822D01*
X0095161Y0044649D01*
X0095161Y0023430D01*
X0090518Y0018786D01*
X0066623Y0018786D01*
X0058921Y0026487D01*
X0058570Y0026487D01*
X0071628Y0041244D02*
X0071628Y0044994D01*
X0073791Y0047157D01*
X0075129Y0041646D02*
X0080878Y0041646D01*
X0075129Y0041646D02*
X0074728Y0041244D01*
X0047028Y0062644D02*
X0031456Y0062644D01*
X0027719Y0066381D01*
X0025306Y0066381D01*
X0020906Y0070781D01*
X0020906Y0074773D01*
X0020885Y0074794D01*
X0015696Y0079983D01*
X0015696Y0082747D01*
X0015289Y0088920D02*
X0019696Y0088920D01*
X0026003Y0083006D01*
X0026003Y0074794D01*
X0015289Y0088920D02*
X0013207Y0091002D01*
X0013207Y0104331D01*
X0012546Y0105385D01*
X0018212Y0110081D02*
X0023917Y0110081D01*
X0025829Y0108169D01*
X0025850Y0108169D01*
X0027012Y0107007D01*
X0028172Y0107007D01*
X0027582Y0106417D01*
X0027582Y0103649D01*
X0027846Y0103384D01*
X0037113Y0103384D01*
X0038110Y0104381D01*
X0038110Y0104819D01*
X0040149Y0106857D01*
X0040291Y0106999D01*
X0035031Y0106857D02*
X0035031Y0111046D01*
X0027582Y0103649D02*
X0027582Y0092102D01*
X0022464Y0092102D02*
X0022464Y0105066D01*
X0018212Y0110081D02*
X0015428Y0112865D01*
X0012546Y0112865D01*
X0010746Y0115650D02*
X0010184Y0116212D01*
X0010746Y0115650D02*
X0016401Y0115650D01*
X0019185Y0112865D01*
X0022783Y0112865D01*
X0022464Y0092102D02*
X0016578Y0092102D01*
X0049161Y0112275D02*
X0052854Y0108582D01*
X0052854Y0106999D01*
X0067609Y0125373D02*
X0071739Y0125373D01*
X0071755Y0125357D01*
X0061027Y0137838D02*
X0061003Y0138649D01*
X0058306Y0138649D01*
X0057578Y0139377D01*
X0055574Y0139377D01*
X0061027Y0142956D02*
X0061814Y0143141D01*
X0050456Y0139377D02*
X0043464Y0139377D01*
X0043385Y0139456D01*
X0043385Y0143948D01*
X0038267Y0143948D02*
X0038267Y0139456D01*
X0079672Y0151842D02*
X0084972Y0151906D01*
X0101169Y0132787D02*
X0105680Y0132787D01*
X0105681Y0132787D01*
X0106561Y0132787D01*
X0106700Y0132649D01*
X0105681Y0127669D02*
X0105641Y0127629D01*
X0101129Y0127629D01*
X0101129Y0132747D02*
X0101169Y0132787D01*
X0092468Y0111487D02*
X0092468Y0095149D01*
X0090302Y0092983D01*
X0085184Y0092983D02*
X0085341Y0087865D01*
X0084028Y0087733D01*
X0080484Y0087733D01*
X0070405Y0087733D01*
X0085446Y0105794D02*
X0088202Y0105662D01*
X0089146Y0105819D01*
X0124987Y0071684D02*
X0124987Y0065976D01*
X0125145Y0065818D01*
X0112153Y0060700D02*
X0111956Y0060503D01*
X0138752Y0038693D02*
X0141114Y0038890D01*
X0143747Y0038692D01*
X0118098Y0025661D02*
X0114893Y0025661D01*
X0113161Y0023535D01*
X0113161Y0019205D01*
X0117098Y0015268D01*
X0122217Y0015268D01*
X0137009Y0012287D02*
X0137177Y0012118D01*
X0020027Y0054007D02*
X0015814Y0049794D01*
X0015814Y0049283D01*
X0149791Y0131133D02*
X0157774Y0139117D01*
X0158196Y0139617D01*
X0173196Y0139617D02*
X0174169Y0139117D01*
X0181562Y0131724D01*
D25*
X0189318Y0132354D03*
X0173176Y0111881D03*
X0170027Y0108298D03*
X0166483Y0110700D03*
X0163196Y0108200D03*
X0169616Y0104373D03*
X0168280Y0097945D03*
X0160012Y0093220D03*
X0157687Y0081156D03*
X0155460Y0072905D03*
X0148767Y0076448D03*
X0145839Y0084559D03*
X0124751Y0097314D03*
X0118058Y0092196D03*
X0112546Y0091409D03*
X0099554Y0090228D03*
X0092925Y0082118D03*
X0074972Y0092827D03*
X0065302Y0090228D03*
X0057822Y0089834D03*
X0053098Y0082747D03*
X0066483Y0083141D03*
X0059397Y0063850D03*
X0058106Y0050581D03*
X0070913Y0050000D03*
X0073791Y0047157D03*
X0080878Y0041646D03*
X0091287Y0036291D03*
X0101523Y0039834D03*
X0112153Y0038653D03*
X0123176Y0042590D03*
X0124357Y0050857D03*
X0112153Y0060700D03*
X0112056Y0068025D03*
X0104476Y0057747D03*
X0089712Y0058731D03*
X0123176Y0031172D03*
X0128122Y0032197D03*
X0122217Y0015268D03*
X0147020Y0025898D03*
X0153713Y0025110D03*
X0172783Y0027235D03*
X0177901Y0027235D03*
X0189146Y0020780D03*
X0171626Y0015661D03*
X0190327Y0040490D03*
X0167492Y0049562D03*
X0157035Y0050464D03*
X0140392Y0059498D03*
X0137182Y0061719D03*
X0137235Y0055638D03*
X0125145Y0066212D03*
X0089146Y0105819D03*
X0092468Y0111487D03*
X0077507Y0109913D03*
X0077625Y0103389D03*
X0066090Y0102826D03*
X0062546Y0117787D03*
X0062153Y0126054D03*
X0049948Y0125661D03*
X0049506Y0130649D03*
X0067271Y0141409D03*
X0072697Y0143707D03*
X0079476Y0152039D03*
X0090499Y0143771D03*
X0094106Y0132449D03*
X0090361Y0126448D03*
X0083413Y0133535D03*
X0079082Y0126448D03*
X0104672Y0148495D03*
X0115302Y0144165D03*
X0120027Y0144165D03*
X0132231Y0150857D03*
X0148201Y0145976D03*
X0154672Y0149283D03*
X0171995Y0157944D03*
X0161523Y0124873D03*
X0152310Y0118968D03*
X0134421Y0131803D03*
X0133052Y0124204D03*
X0125224Y0129125D03*
X0127527Y0112649D03*
X0121208Y0112669D03*
X0172389Y0072905D03*
X0177507Y0072905D03*
X0182306Y0078381D03*
X0190499Y0068759D03*
X0060972Y0152432D03*
X0049161Y0112275D03*
X0033806Y0091409D03*
X0016483Y0092196D03*
X0010184Y0116212D03*
X0012940Y0120149D03*
X0013334Y0124873D03*
X0039205Y0037078D03*
D26*
X0044343Y0033202D02*
X0039204Y0026487D01*
X0038570Y0026487D01*
X0044343Y0033202D02*
X0044875Y0033595D01*
X0047020Y0034953D01*
X0068850Y0034953D01*
X0071035Y0033949D01*
X0076665Y0033949D01*
X0076705Y0033989D01*
X0080435Y0033989D01*
X0080475Y0033949D01*
X0080928Y0033949D01*
X0088064Y0039904D01*
X0088064Y0047044D01*
X0087743Y0047905D01*
X0087743Y0053023D02*
X0092861Y0053023D01*
X0092861Y0055582D01*
X0089712Y0058731D01*
X0104304Y0057919D02*
X0104476Y0057747D01*
X0104611Y0057883D02*
X0104647Y0057919D01*
X0104304Y0057919D01*
X0104647Y0057919D02*
X0107506Y0057919D01*
X0116369Y0057919D01*
X0118039Y0060089D01*
X0120539Y0060089D01*
X0123039Y0060089D02*
X0123039Y0062871D01*
X0122217Y0063693D01*
X0121035Y0063693D01*
X0119854Y0064874D01*
X0119854Y0072172D01*
X0119594Y0072432D01*
X0120539Y0071487D01*
X0123791Y0077550D02*
X0126407Y0077550D01*
X0129405Y0080548D01*
X0142834Y0080548D01*
X0143153Y0081016D01*
X0145839Y0084559D01*
X0130539Y0070897D02*
X0130263Y0071172D01*
X0130539Y0070897D02*
X0130539Y0060089D01*
X0133039Y0060089D02*
X0133039Y0063515D01*
X0135539Y0066015D01*
X0128039Y0060089D02*
X0128039Y0056099D01*
X0128122Y0055425D01*
X0128122Y0052276D01*
X0138752Y0043811D01*
X0133039Y0037689D02*
X0133018Y0037008D01*
X0134830Y0035590D01*
X0134830Y0031724D01*
X0131557Y0032695D02*
X0131557Y0029724D01*
X0132436Y0028844D01*
X0132591Y0028844D01*
X0134830Y0026606D01*
X0131557Y0032695D02*
X0130539Y0033713D01*
X0130539Y0037689D01*
X0128039Y0037689D02*
X0128039Y0033688D01*
X0128122Y0032197D01*
X0123039Y0034987D02*
X0119067Y0031409D01*
X0119067Y0028205D01*
X0118098Y0025661D01*
X0123039Y0034987D02*
X0123039Y0037689D01*
X0120539Y0037689D02*
X0118039Y0037689D01*
X0118039Y0038737D01*
X0114736Y0043220D01*
X0111830Y0043220D01*
X0108837Y0039834D01*
X0106506Y0039834D01*
X0106506Y0053381D02*
X0107506Y0054381D01*
X0107506Y0057919D01*
X0124357Y0050857D02*
X0125539Y0054007D01*
X0125539Y0060089D01*
X0124751Y0097314D02*
X0125027Y0097590D01*
X0125027Y0111216D01*
X0124746Y0111497D01*
X0124746Y0113801D01*
X0125027Y0114082D01*
X0125027Y0114334D01*
X0127527Y0112649D02*
X0127527Y0117217D01*
X0122527Y0117217D02*
X0122527Y0120930D01*
X0125801Y0124204D01*
X0128516Y0124323D01*
X0129115Y0124117D01*
X0133052Y0124204D01*
X0120027Y0117217D02*
X0120027Y0113850D01*
X0121208Y0112669D01*
X0117527Y0117217D02*
X0117527Y0102806D01*
X0117468Y0102747D01*
X0112665Y0108023D02*
X0115027Y0110385D01*
X0115027Y0117217D01*
X0115027Y0120354D01*
X0114487Y0120893D01*
X0110306Y0120893D01*
X0108306Y0118893D01*
X0108306Y0118814D01*
X0106381Y0116889D01*
X0101263Y0116889D02*
X0100991Y0117161D01*
X0094952Y0117161D01*
X0092452Y0117161D01*
X0089952Y0117161D02*
X0089952Y0121192D01*
X0094264Y0125110D01*
X0094264Y0127866D01*
X0093250Y0128880D01*
X0092954Y0129668D01*
X0089952Y0132670D01*
X0089952Y0139561D01*
X0092452Y0139561D02*
X0094952Y0139561D01*
X0101129Y0132884D01*
X0101129Y0132747D01*
X0106700Y0132649D02*
X0116306Y0132649D01*
X0117527Y0133869D01*
X0117527Y0139617D01*
X0120027Y0139617D02*
X0120027Y0144165D01*
X0122527Y0142396D02*
X0122925Y0142794D01*
X0122925Y0144008D01*
X0122856Y0145513D01*
X0122856Y0153369D01*
X0124523Y0154643D01*
X0132773Y0154643D01*
X0135535Y0154637D01*
X0138924Y0153456D01*
X0132231Y0150857D02*
X0130932Y0150976D01*
X0126917Y0150976D01*
X0126917Y0145857D02*
X0133137Y0145857D01*
X0134436Y0144165D01*
X0133579Y0139510D02*
X0127527Y0139617D01*
X0125027Y0139617D02*
X0125027Y0141649D01*
X0125342Y0143932D01*
X0126917Y0145857D01*
X0122527Y0142396D02*
X0122527Y0139617D01*
X0115027Y0139617D02*
X0115027Y0143889D01*
X0115302Y0144165D01*
X0115302Y0148574D01*
X0115814Y0149086D01*
X0112521Y0147261D02*
X0112521Y0143013D01*
X0112527Y0143007D01*
X0112527Y0139617D01*
X0112521Y0147261D02*
X0110696Y0149086D01*
X0090499Y0143771D02*
X0090377Y0143649D01*
X0088306Y0143649D01*
X0087452Y0142794D01*
X0087452Y0139561D01*
X0084952Y0139561D02*
X0084952Y0146769D01*
X0084972Y0146788D01*
X0082453Y0142827D02*
X0082453Y0139062D01*
X0082452Y0139561D01*
X0082452Y0136100D01*
X0083413Y0135140D01*
X0083413Y0133535D01*
X0079952Y0139561D02*
X0079952Y0140184D01*
X0078700Y0140649D01*
X0072586Y0140649D01*
X0074948Y0136291D02*
X0075598Y0135641D01*
X0078700Y0140649D02*
X0079500Y0140243D01*
X0082453Y0142827D02*
X0076700Y0148186D01*
X0076306Y0148499D01*
X0073153Y0148495D01*
X0072586Y0150070D01*
X0061027Y0137838D02*
X0058468Y0134491D01*
X0058239Y0134491D01*
X0058239Y0131932D02*
X0060895Y0131932D01*
X0065216Y0127612D01*
X0065371Y0127612D01*
X0067609Y0125373D01*
X0058239Y0121696D02*
X0057772Y0121229D01*
X0054182Y0121229D01*
X0045592Y0112639D01*
X0045592Y0076981D01*
X0045592Y0070380D01*
X0047028Y0068944D01*
X0040506Y0068781D02*
X0040506Y0065844D01*
X0040506Y0068781D02*
X0036170Y0073117D01*
X0032531Y0073117D01*
X0030268Y0075381D01*
X0030268Y0082197D01*
X0043028Y0094957D01*
X0043028Y0119787D01*
X0045528Y0122287D01*
X0045528Y0126671D01*
X0049506Y0130649D01*
X0053661Y0129373D02*
X0049948Y0125661D01*
X0053661Y0129373D02*
X0058239Y0129373D01*
X0042649Y0123480D02*
X0039121Y0119952D01*
X0039121Y0119165D01*
X0040149Y0118137D01*
X0040149Y0106857D01*
X0034617Y0114019D02*
X0030066Y0114019D01*
X0028172Y0112125D01*
X0027369Y0115490D02*
X0025407Y0115490D01*
X0023436Y0113519D01*
X0027369Y0115490D02*
X0028457Y0116578D01*
X0034617Y0116578D01*
X0034617Y0119137D02*
X0039094Y0119137D01*
X0039121Y0119165D01*
X0034617Y0121696D02*
X0025787Y0121696D01*
X0025826Y0124255D02*
X0034617Y0124255D01*
X0034617Y0126814D02*
X0030354Y0126814D01*
X0028519Y0128649D01*
X0028306Y0128649D01*
X0026306Y0130649D01*
X0025658Y0130394D01*
X0017114Y0130394D01*
X0015975Y0129649D01*
X0011913Y0129649D01*
X0009519Y0127649D01*
X0009519Y0122649D01*
X0012806Y0120149D01*
X0012940Y0120149D01*
X0026306Y0130649D02*
X0026306Y0133751D01*
X0026350Y0133794D01*
X0029229Y0131726D02*
X0031582Y0129373D01*
X0034617Y0129373D01*
X0034617Y0131932D02*
X0032986Y0131932D01*
X0031225Y0133693D01*
X0031225Y0140413D01*
X0030346Y0141292D01*
X0029872Y0141292D01*
X0028905Y0142259D01*
X0028346Y0138019D02*
X0028346Y0137072D01*
X0029229Y0136188D01*
X0029229Y0131726D01*
X0034617Y0134491D02*
X0034617Y0135806D01*
X0037383Y0138572D01*
X0023787Y0142259D02*
X0022820Y0141292D01*
X0021228Y0141292D01*
X0020348Y0140413D01*
X0020348Y0135625D01*
X0021231Y0134742D01*
X0021231Y0133794D01*
X0049554Y0112669D02*
X0050905Y0114019D01*
X0058239Y0114019D01*
X0057972Y0111192D02*
X0057972Y0106999D01*
X0077507Y0109913D02*
X0077507Y0113850D01*
X0079952Y0116294D01*
X0079952Y0117161D01*
X0082452Y0117161D02*
X0082452Y0114480D01*
X0080484Y0112513D01*
X0080484Y0087733D01*
X0099633Y0109165D02*
X0103415Y0109165D01*
X0105547Y0111296D01*
X0106954Y0111296D01*
X0112527Y0116869D01*
X0112527Y0117217D01*
X0092468Y0111487D02*
X0089952Y0113216D01*
X0089952Y0117161D01*
X0087452Y0117161D02*
X0087452Y0122665D01*
X0090361Y0126448D01*
X0084952Y0117161D02*
X0084952Y0111406D01*
X0085446Y0110913D01*
X0133579Y0139510D02*
X0134436Y0139046D01*
X0149791Y0126015D02*
X0153157Y0122649D01*
X0159306Y0122649D01*
X0160696Y0121259D01*
X0160696Y0117217D01*
X0160696Y0114125D01*
X0157940Y0112550D01*
X0155061Y0114789D02*
X0152822Y0112550D01*
X0155061Y0114789D02*
X0155061Y0114944D01*
X0157833Y0117717D01*
X0158196Y0117217D01*
X0163196Y0117217D02*
X0163196Y0121539D01*
X0166306Y0124649D01*
X0179606Y0124649D01*
X0181562Y0126606D01*
X0173896Y0118417D02*
X0189309Y0118417D01*
X0173896Y0118417D02*
X0173196Y0117217D01*
X0170696Y0117217D02*
X0170696Y0115428D01*
X0170813Y0115311D01*
X0170813Y0114309D01*
X0173004Y0112118D01*
X0173004Y0112102D01*
X0173176Y0111881D01*
X0169900Y0112245D02*
X0168196Y0113949D01*
X0168196Y0117217D01*
X0165696Y0117217D02*
X0165696Y0111487D01*
X0166483Y0110700D01*
X0163196Y0108200D02*
X0163196Y0117217D01*
X0169900Y0112245D02*
X0169900Y0107833D01*
X0170027Y0108354D01*
X0170027Y0108298D01*
X0170696Y0139617D02*
X0173196Y0139617D01*
X0168196Y0139617D02*
X0168196Y0143939D01*
X0168306Y0144049D01*
X0163196Y0141856D02*
X0163196Y0139617D01*
X0165696Y0139617D02*
X0165696Y0151448D01*
X0166838Y0152590D01*
X0160696Y0139617D02*
X0158196Y0139617D01*
D27*
X0163196Y0141856D02*
X0163196Y0148759D01*
X0157306Y0154649D01*
X0157306Y0166885D01*
X0156956Y0167235D01*
X0166838Y0167117D02*
X0166956Y0167235D01*
X0166838Y0167117D02*
X0166838Y0157708D01*
X0166838Y0152590D02*
X0171247Y0152590D01*
X0172306Y0153649D01*
X0172306Y0157074D01*
X0171995Y0157944D01*
X0176956Y0154298D02*
X0168306Y0145649D01*
X0168306Y0144049D01*
X0176956Y0154298D02*
X0176956Y0167235D01*
X0154672Y0149361D02*
X0150854Y0153180D01*
X0154672Y0149361D02*
X0154672Y0149283D01*
X0148201Y0145976D02*
X0146587Y0146015D01*
X0141247Y0146015D01*
X0139200Y0153180D02*
X0138924Y0153456D01*
X0139200Y0153180D02*
X0145735Y0153180D01*
X0145735Y0166015D01*
X0146956Y0167235D01*
X0133579Y0139510D02*
X0134421Y0139061D01*
X0134421Y0131803D01*
X0152822Y0112550D02*
X0154661Y0110712D01*
X0154661Y0109991D01*
X0160279Y0104373D01*
X0169616Y0104373D01*
X0168280Y0097945D02*
X0169264Y0096961D01*
X0180484Y0096961D01*
X0180484Y0091843D02*
X0186783Y0091843D01*
X0187177Y0092236D01*
X0187177Y0090891D01*
X0187775Y0089112D01*
X0187775Y0071587D01*
X0185452Y0069264D01*
X0185452Y0051251D01*
X0183069Y0047686D01*
X0180706Y0046381D01*
X0177335Y0046381D01*
X0177335Y0038687D01*
X0177369Y0038653D01*
X0172369Y0038653D02*
X0172369Y0036381D01*
X0172369Y0031704D01*
X0172625Y0031448D01*
X0172572Y0027094D01*
X0172828Y0026838D01*
X0172625Y0031448D02*
X0172625Y0036125D01*
X0172369Y0036381D01*
X0167369Y0038653D02*
X0167369Y0027153D01*
X0163358Y0025110D01*
X0158240Y0025110D02*
X0153713Y0025110D01*
X0150531Y0023793D02*
X0152887Y0021437D01*
X0177782Y0021437D01*
X0182263Y0025918D01*
X0182263Y0038546D01*
X0182369Y0038653D01*
X0195193Y0051476D01*
X0195193Y0058181D01*
X0194996Y0057984D01*
X0190720Y0057984D01*
X0195193Y0058181D02*
X0195193Y0068564D01*
X0192295Y0071462D01*
X0192295Y0092236D01*
X0192295Y0097354D02*
X0192295Y0101060D01*
X0189306Y0104049D01*
X0186390Y0101132D01*
X0187177Y0097354D01*
X0174506Y0086781D02*
X0182306Y0079581D01*
X0182306Y0078381D01*
X0182306Y0059188D01*
X0182369Y0059125D01*
X0177369Y0059125D02*
X0177306Y0059062D01*
X0177369Y0060381D02*
X0177523Y0060535D01*
X0177523Y0066787D01*
X0177523Y0073283D01*
X0177507Y0073298D01*
X0177507Y0074150D01*
X0174579Y0077079D01*
X0168476Y0077079D01*
X0167369Y0075972D01*
X0167369Y0059125D01*
X0172369Y0059125D02*
X0172369Y0054439D01*
X0167492Y0049562D01*
X0163161Y0051645D02*
X0161980Y0050464D01*
X0157035Y0050464D01*
X0156137Y0050464D01*
X0148747Y0041893D01*
X0148747Y0038692D01*
X0148747Y0032036D01*
X0147358Y0030646D01*
X0142846Y0030646D01*
X0138503Y0028771D02*
X0137389Y0029885D01*
X0136669Y0029885D01*
X0134830Y0031724D01*
X0138503Y0028771D02*
X0138503Y0024440D01*
X0133373Y0019310D01*
X0133373Y0018810D01*
X0130094Y0016972D02*
X0130094Y0016251D01*
X0131208Y0015137D01*
X0135539Y0015137D01*
X0136063Y0015661D01*
X0171626Y0015661D01*
X0175141Y0012287D02*
X0183634Y0020780D01*
X0189146Y0020780D01*
X0177901Y0027235D02*
X0177743Y0028574D01*
X0177743Y0031448D01*
X0177369Y0031822D01*
X0177645Y0046293D02*
X0180706Y0046381D01*
X0180404Y0046290D01*
X0177335Y0046381D02*
X0157267Y0046381D01*
X0153747Y0042861D01*
X0153747Y0038692D01*
X0158747Y0038692D02*
X0158747Y0034644D01*
X0150531Y0026428D01*
X0150531Y0023793D01*
X0147020Y0025898D02*
X0146650Y0025528D01*
X0142846Y0025528D01*
X0134830Y0026606D02*
X0131877Y0023653D01*
X0129279Y0023653D01*
X0128255Y0018810D02*
X0130094Y0016972D01*
X0128255Y0018810D02*
X0119436Y0018810D01*
X0118098Y0020149D01*
X0118098Y0020543D01*
X0124161Y0023653D02*
X0124161Y0030976D01*
X0106506Y0039834D02*
X0106506Y0043381D01*
X0106506Y0039834D02*
X0101523Y0039834D01*
X0101413Y0039550D01*
X0101413Y0024831D01*
X0114551Y0012087D01*
X0123534Y0012087D01*
X0123734Y0012287D01*
X0137009Y0012287D01*
X0175141Y0012287D01*
X0163161Y0051645D02*
X0163161Y0066646D01*
X0163161Y0071764D02*
X0167369Y0075972D01*
X0172405Y0072889D02*
X0172405Y0066787D01*
X0172369Y0066751D01*
X0172369Y0059125D01*
X0158747Y0059165D02*
X0158747Y0077340D01*
X0162665Y0077340D01*
X0167306Y0081981D01*
X0167306Y0086781D02*
X0167306Y0090381D01*
X0167306Y0086781D02*
X0174506Y0086781D01*
X0167306Y0086781D02*
X0158306Y0086781D01*
X0154331Y0086950D01*
X0150113Y0091280D01*
X0144113Y0091280D02*
X0135820Y0083381D01*
X0101306Y0083381D01*
X0099007Y0083290D01*
X0099007Y0084146D01*
X0095051Y0088102D01*
X0091874Y0088102D01*
X0091158Y0087386D01*
X0090696Y0087865D01*
X0090696Y0092590D01*
X0090302Y0092983D01*
X0085578Y0092590D02*
X0085578Y0087865D01*
X0085578Y0092590D02*
X0085184Y0092983D01*
X0074972Y0092827D02*
X0074972Y0092433D01*
X0074603Y0092851D01*
X0070405Y0092851D01*
X0066483Y0083141D02*
X0068428Y0081197D01*
X0068428Y0074644D01*
X0065328Y0074644D02*
X0065328Y0069402D01*
X0063306Y0067381D01*
X0061306Y0067381D01*
X0061306Y0065759D01*
X0059397Y0063850D01*
X0060306Y0067381D02*
X0059028Y0068660D01*
X0059028Y0074644D01*
X0062128Y0074644D02*
X0062128Y0081560D01*
X0061306Y0082381D01*
X0065724Y0082381D01*
X0066483Y0083141D01*
X0061306Y0082381D02*
X0059306Y0082381D01*
X0052854Y0088834D01*
X0052854Y0106999D01*
X0071755Y0109259D02*
X0071755Y0125357D01*
X0071755Y0130476D02*
X0071905Y0130476D01*
X0075054Y0130476D01*
X0079082Y0126448D01*
X0077704Y0133535D02*
X0083413Y0133535D01*
X0077704Y0133535D02*
X0074948Y0136291D01*
X0072586Y0140649D02*
X0072586Y0143596D01*
X0072697Y0143707D01*
X0068280Y0146463D01*
X0067913Y0147617D01*
X0067913Y0149625D01*
X0067468Y0150070D01*
X0067271Y0141409D02*
X0067271Y0139570D01*
X0066550Y0138850D01*
X0066550Y0131550D01*
X0067609Y0130491D01*
X0069830Y0136291D02*
X0072586Y0140649D01*
X0071755Y0109259D02*
X0077625Y0103389D01*
X0095960Y0101881D02*
X0099554Y0098286D01*
X0099554Y0090228D01*
X0105046Y0094410D02*
X0111229Y0088228D01*
X0118589Y0088228D01*
X0121239Y0090878D01*
X0121239Y0093802D01*
X0124751Y0097314D01*
X0118058Y0092196D02*
X0112350Y0097905D01*
X0112350Y0102747D01*
X0107546Y0108023D02*
X0107546Y0096409D01*
X0112546Y0091409D01*
X0105046Y0094410D02*
X0105046Y0098633D01*
X0099633Y0104046D01*
X0097794Y0107326D02*
X0097074Y0107326D01*
X0095960Y0106212D01*
X0095960Y0101881D01*
X0097794Y0107326D02*
X0099633Y0109165D01*
X0119594Y0077550D02*
X0123791Y0077550D01*
X0126011Y0077550D01*
X0126287Y0077275D01*
X0131405Y0077275D02*
X0131511Y0077381D01*
X0138306Y0077381D01*
X0139499Y0076188D01*
X0139499Y0069175D01*
X0136340Y0066015D01*
X0135539Y0066015D01*
X0135539Y0071133D02*
X0130302Y0071133D01*
X0130263Y0071172D01*
X0119594Y0072432D02*
X0118873Y0072432D01*
X0116115Y0069285D01*
X0113257Y0069285D01*
X0113257Y0069226D01*
X0112056Y0068025D01*
X0089712Y0058731D02*
X0088899Y0059544D01*
X0080428Y0059544D01*
X0070913Y0050000D02*
X0065328Y0045202D01*
X0065328Y0041244D01*
X0055828Y0041244D02*
X0055828Y0048302D01*
X0058106Y0050581D01*
X0047028Y0065844D02*
X0040506Y0065844D01*
X0036843Y0065844D01*
X0034919Y0066981D01*
X0034919Y0076981D02*
X0045592Y0076981D01*
X0060306Y0067381D02*
X0061306Y0067381D01*
X0092074Y0047318D02*
X0091287Y0041806D01*
X0091287Y0036291D01*
X0101523Y0039834D02*
X0102959Y0039834D01*
X0092861Y0047905D02*
X0092074Y0047318D01*
X0140392Y0059498D02*
X0143413Y0059498D01*
X0143747Y0059165D01*
X0144141Y0054940D01*
X0147306Y0051381D01*
X0151306Y0051381D01*
X0153747Y0053822D01*
X0153747Y0059165D01*
X0153747Y0066153D01*
X0153294Y0066606D01*
X0155460Y0068771D01*
X0155460Y0072905D01*
X0158747Y0077340D02*
X0157687Y0081156D01*
X0148767Y0076448D02*
X0148176Y0072314D01*
X0148176Y0066606D01*
X0148747Y0066035D01*
X0148747Y0059165D01*
X0190499Y0063324D02*
X0190720Y0063102D01*
X0190499Y0063324D02*
X0190499Y0068759D01*
X0189306Y0110049D02*
X0189306Y0113861D01*
X0189309Y0118417D01*
X0189318Y0132354D01*
D28*
X0039318Y0159483D03*
X0035543Y0152098D03*
D29*
X0043204Y0153197D02*
X0039318Y0159483D01*
X0028854Y0159483D01*
X0023787Y0153629D01*
X0023787Y0142259D01*
X0043385Y0143948D02*
X0061007Y0143948D01*
X0061814Y0143141D01*
X0061027Y0142956D02*
X0063755Y0142956D01*
X0067271Y0141409D01*
X0067609Y0130491D02*
X0071889Y0130491D01*
X0071873Y0130476D01*
X0071755Y0130476D01*
X0071889Y0130491D02*
X0071905Y0130476D01*
X0043385Y0143948D02*
X0043385Y0146449D01*
X0043204Y0153197D01*
X0101129Y0127629D02*
X0123728Y0127629D01*
X0125224Y0129125D01*
X0141247Y0146015D02*
X0138924Y0148338D01*
X0110696Y0149086D02*
X0105263Y0149086D01*
X0104672Y0148495D01*
D30*
X0120027Y0144558D02*
X0120027Y0144165D01*
D31*
X0040106Y0058581D03*
D32*
X0034919Y0066981D03*
X0034919Y0076981D03*
X0106506Y0053381D03*
X0106506Y0043381D03*
X0167306Y0081981D03*
X0167306Y0090381D03*
M02*
